<?xml version="1.0" encoding="utf-8"?>
<!-- Generator: Adobe Illustrator 26.2.1, SVG Export Plug-In . SVG Version: 6.00 Build 0)  -->
<svg version="1.1" id="Layer_1" xmlns="http://www.w3.org/2000/svg" xmlns:xlink="http://www.w3.org/1999/xlink" x="0px" y="0px"
	 width="459.6px" height="459.6px" viewBox="0 0 459.6 459.6" style="enable-background:new 0 0 459.6 459.6;" xml:space="preserve"
	>
<style type="text/css">
	.st0{fill:#2A384C;}
	.st1{fill:#2A384C;stroke:#070707;stroke-width:6;stroke-linecap:round;stroke-miterlimit:10;}
</style>
<g>
	<g>
		<g>
			<path class="st0" d="M215.6,123.1c0.1-0.1,0.3-0.1,0.4-0.1c0.7-0.1,1.4-0.1,2.1-0.1c0.9-0.1,1.9-0.1,2.7-0.3
				c1-0.1,2.1-0.3,3.1-0.4c0.3-0.1,0.7-0.1,1.1-0.1c0.1,0,0.1-0.1,0.1-0.1c-0.7-1-1.7-2.1-2.6-3.1c-0.4-0.6-1-1-1.3-1.6l-0.1-0.1
				c0.1-0.1,0.1,0,0.1,0.1c0.6,0.3,1,0.9,1.4,1.1c0.7,0.6,1.4,1.1,2.1,1.7c0.4,0.3,0.7,0.6,1.3,1c0.1,0.1,0.1,0.1,0.1-0.1
				c0.1-0.7,0.1-1.6,0.3-2.3c0.1-0.9,0.3-1.7,0.3-2.6c0.1-0.4,0.1-1,0.1-1.4c0.1-0.6,0.1-1.1,0.1-1.7c0-0.4,0.1-0.9,0.1-1.3
				c0-0.1,0-0.1,0.1-0.1c0.1,0.1,0.1,0.3,0.1,0.6c0.1,0.7,0.1,1.4,0.1,2.1c0.1,0.6,0.1,1,0.1,1.4c0.1,0.6,0.1,1,0.1,1.4
				c0.1,0.7,0.1,1.4,0.3,2.1c0.1,0.6,0.1,1.1,0.3,1.7c0,0.1,0.1,0.1,0.1,0.1c1-0.7,2-1.6,3-2.3c0.6-0.6,1-1,1.7-1.4l0.1-0.1
				c0.1,0.1,0,0.1-0.1,0.1c-0.3,0.6-0.9,1-1.1,1.4c-0.6,0.7-1.1,1.4-1.7,2.1c-0.3,0.4-0.6,0.9-1,1.3c-0.1,0.1-0.1,0.1,0.1,0.1
				c0.9,0.1,1.6,0.1,2.3,0.3c0.9,0.1,1.7,0.3,2.6,0.3c0.4,0.1,1,0.1,1.4,0.1c0.6,0.1,1.1,0.1,1.7,0.1c0.4,0,0.9,0.1,1.3,0.1
				c0.1,0,0.1,0,0.1,0.1c-0.1,0.1-0.3,0.1-0.6,0.1c-0.7,0.1-1.4,0.1-2.1,0.1c-0.6,0.1-1,0.1-1.4,0.1c-0.6,0.1-1,0.1-1.4,0.1
				c-0.7,0.1-1.4,0.1-2.1,0.3c-0.6,0.1-1.1,0.1-1.7,0.3c-0.1,0-0.1,0.1-0.1,0.1c0.7,1,1.6,2,2.3,3c0.6,0.6,1,1,1.4,1.7l0.1,0.1
				c-0.1,0.1-0.1,0-0.1-0.1c-0.6-0.3-1-0.9-1.4-1.1c-0.7-0.6-1.4-1.1-2.1-1.7c-0.4-0.3-0.7-0.6-1.3-1c-0.1-0.1-0.1-0.1-0.1,0.1
				c-0.1,0.7-0.1,1.6-0.3,2.3c-0.1,0.9-0.3,1.7-0.3,2.6c-0.1,0.4-0.1,1-0.1,1.4c-0.1,0.6-0.1,1.1-0.1,1.7c0,0.4-0.1,0.9-0.1,1.3
				c0,0.1,0,0.1-0.1,0.1c-0.1-0.1-0.1-0.3-0.1-0.6c-0.1-0.7-0.1-1.4-0.1-2.1c-0.1-0.6-0.1-1-0.1-1.4c-0.1-0.6-0.1-1-0.1-1.4
				c-0.1-0.7-0.1-1.4-0.3-2.1c-0.1-0.6-0.1-1.1-0.3-1.7c0-0.1-0.1-0.1-0.1-0.1c-1,0.7-2,1.6-3,2.3c-0.6,0.6-1,1-1.7,1.4l-0.1,0.1
				c-0.1-0.1,0-0.1,0.1-0.1c0.3-0.6,0.9-1,1.1-1.4c0.6-0.7,1.1-1.4,1.7-2.1c0.3-0.4,0.6-0.9,1-1.3c0.1-0.1,0.1-0.1-0.1-0.1
				c-0.9-0.1-1.6-0.1-2.3-0.3c-0.9-0.1-1.7-0.3-2.6-0.3c-0.4-0.1-1-0.1-1.4-0.1c-0.6-0.1-1.1-0.1-1.7-0.1c-0.4,0-0.9-0.1-1.3-0.1
				C215.6,123.1,215.6,123.1,215.6,123.1z"/>
		</g>
	</g>
	<g>
		<g>
			<path class="st0" d="M149.3,157c0,0.1-0.1,0.1-0.1,0.3c-0.1,0.4-0.3,0.9-0.4,1.3c-0.1,0.6-0.4,1.1-0.6,1.7
				c-0.1,0.7-0.3,1.4-0.6,2c-0.1,0.3-0.1,0.4-0.1,0.7c0,0.1,0,0.1,0.1,0.1c0.9-0.1,1.7-0.4,2.6-0.7c0.4-0.1,0.9-0.3,1.3-0.4
				c0,0,0.1-0.1,0.1,0c0,0.1,0,0.1-0.1,0.1c-0.3,0.1-0.7,0.3-1,0.6c-0.6,0.3-1,0.6-1.7,0.9c-0.3,0.1-0.6,0.3-0.9,0.6
				c-0.1,0.1-0.1,0.1,0,0.1c0.4,0.3,0.9,0.6,1.3,0.7c0.6,0.3,1,0.6,1.4,0.9c0.3,0.1,0.6,0.3,0.7,0.4c0.3,0.1,0.7,0.3,1,0.6
				c0.3,0.1,0.6,0.3,0.7,0.4c0,0,0.1,0,0.1,0.1c-0.1,0-0.3-0.1-0.3-0.1c-0.4-0.1-1-0.3-1.4-0.4c-0.3-0.1-0.6-0.3-1-0.3
				s-0.7-0.1-1-0.3c-0.4-0.1-0.9-0.3-1.4-0.3c-0.3-0.1-0.7-0.1-1.1-0.3c-0.1,0-0.1,0-0.1,0.1c0.1,0.9,0.4,1.7,0.7,2.6
				c0.1,0.4,0.3,1,0.4,1.4c0,0,0.1,0.1,0,0.1c-0.1,0-0.1,0-0.1-0.1c-0.1-0.3-0.3-0.7-0.6-1c-0.3-0.6-0.6-1-0.9-1.7
				c-0.1-0.3-0.3-0.6-0.6-0.9c-0.1-0.1-0.1-0.1-0.1,0c-0.3,0.4-0.6,0.9-0.7,1.3c-0.3,0.6-0.6,1-0.9,1.4c-0.1,0.3-0.3,0.6-0.4,0.9
				c-0.1,0.3-0.3,0.7-0.6,1c-0.1,0.3-0.3,0.6-0.4,0.7c0,0,0,0.1-0.1,0.1c0-0.1,0.1-0.3,0.1-0.3c0.1-0.4,0.3-1,0.4-1.4
				c0.1-0.3,0.3-0.6,0.3-1c0-0.4,0.1-0.7,0.3-1c0.1-0.4,0.3-0.9,0.3-1.4c0.1-0.3,0.1-0.7,0.3-1.1c0-0.1,0-0.1-0.1-0.1
				c-0.9,0.1-1.7,0.4-2.6,0.7c-0.4,0.1-1,0.3-1.4,0.4c0,0-0.1,0.1-0.1,0s0-0.1,0.1-0.1c0.3-0.1,0.7-0.3,1-0.6c0.6-0.3,1-0.6,1.7-0.9
				c0.3-0.1,0.6-0.3,0.9-0.6c0.1-0.1,0.1-0.1,0-0.1c-0.4-0.3-0.9-0.6-1.3-0.7c-0.6-0.3-1-0.6-1.4-0.9c-0.3-0.1-0.6-0.3-0.9-0.4
				c-0.3-0.1-0.7-0.3-1-0.6c-0.3-0.1-0.6-0.3-0.7-0.4c0,0-0.1,0-0.1-0.1c0.1,0,0.3,0.1,0.3,0.1c0.4,0.1,1,0.3,1.4,0.4
				c0.3,0.1,0.6,0.3,1,0.3c0.3,0.1,0.7,0.1,1,0.3c0.4,0.1,0.9,0.3,1.4,0.3c0.3,0.1,0.7,0.1,1.1,0.3c0.1,0,0.1,0,0.1-0.1
				c-0.1-0.9-0.4-1.7-0.7-2.6c-0.1-0.4-0.3-1-0.4-1.4c0,0-0.1-0.1,0-0.1c0.1,0,0.1,0,0.1,0.1c0.1,0.3,0.3,0.7,0.6,1
				c0.3,0.6,0.6,1,0.9,1.7c0.1,0.3,0.3,0.6,0.6,0.9c0.1,0.1,0.1,0.1,0.1,0c0.3-0.4,0.6-0.9,0.7-1.3c0.3-0.6,0.6-1,0.9-1.4
				c0.1-0.3,0.3-0.6,0.4-0.7c0.1-0.3,0.3-0.7,0.6-1C148.9,157.4,149,157.1,149.3,157C149.1,157,149.1,157,149.3,157z"/>
		</g>
	</g>
	<g>
		<g>
			<path class="st0" d="M306,157c0,0.1,0.1,0.1,0.1,0.3c0.1,0.4,0.3,0.9,0.4,1.3c0.1,0.6,0.4,1.1,0.6,1.7c0.1,0.7,0.3,1.4,0.6,2
				c0.1,0.3,0.1,0.4,0.1,0.7c0,0.1,0,0.1-0.1,0.1c-0.9-0.1-1.7-0.4-2.6-0.7c-0.4-0.1-0.9-0.3-1.3-0.4c0,0-0.1-0.1-0.1,0
				c0,0.1,0,0.1,0.1,0.1c0.3,0.1,0.7,0.3,1,0.6c0.6,0.3,1,0.6,1.7,0.9c0.3,0.1,0.6,0.3,0.9,0.6c0.1,0.1,0.1,0.1,0,0.1
				c-0.4,0.3-0.9,0.6-1.3,0.7c-0.6,0.3-1,0.6-1.4,0.9c-0.3,0.1-0.6,0.3-0.9,0.4c-0.3,0.1-0.7,0.3-1,0.6c-0.3,0.1-0.6,0.3-0.7,0.4
				c0,0-0.1,0-0.1,0.1c0.1,0,0.3-0.1,0.3-0.1c0.4-0.1,1-0.3,1.4-0.4c0.3-0.1,0.6-0.3,1-0.3c0.3-0.1,0.7-0.1,1-0.3
				c0.4-0.1,0.9-0.3,1.4-0.3c0.3-0.1,0.7-0.1,1.1-0.3c0.1,0,0.1,0,0.1,0.1c-0.1,0.9-0.4,1.7-0.7,2.6c-0.1,0.4-0.3,1-0.4,1.4
				c0,0-0.1,0.1,0,0.1s0.1,0,0.1-0.1c0.1-0.3,0.3-0.7,0.6-1c0.3-0.6,0.6-1,0.9-1.7c0.1-0.3,0.3-0.6,0.6-0.9c0.1-0.1,0.1-0.1,0.1,0
				c0.3,0.4,0.6,0.9,0.7,1.3c0.3,0.6,0.6,1,0.9,1.4c0.1,0.3,0.3,0.6,0.4,0.9s0.3,0.7,0.6,1c0.1,0.3,0.3,0.6,0.4,0.7
				c0,0,0,0.1,0.1,0.1c0-0.1-0.1-0.3-0.1-0.3c-0.1-0.4-0.3-1-0.4-1.4c-0.1-0.3-0.3-0.6-0.3-1c-0.1-0.3-0.1-0.7-0.3-1
				c-0.1-0.4-0.3-0.9-0.3-1.4c-0.1-0.3-0.1-0.7-0.3-1.1c0-0.1,0-0.1,0.1-0.1c0.9,0.1,1.7,0.4,2.6,0.7c0.4,0.1,1,0.3,1.4,0.4
				c0,0,0.1,0.1,0.1,0s0-0.1-0.1-0.1c-0.3-0.1-0.7-0.3-1-0.6c-0.6-0.3-1-0.6-1.7-0.9c-0.3-0.1-0.6-0.3-0.9-0.6
				c-0.1-0.1-0.1-0.1,0-0.1c0.4-0.3,0.9-0.6,1.3-0.7c0.6-0.3,1-0.6,1.4-0.9c0.3-0.1,0.6-0.3,0.9-0.4c0.3-0.1,0.7-0.3,1-0.6
				c0.3-0.1,0.6-0.3,0.7-0.4c0,0,0.1,0,0.1-0.1c-0.1,0-0.3,0.1-0.3,0.1c-0.4,0.1-1,0.3-1.4,0.4c-0.3,0.1-0.6,0.3-1,0.3
				c-0.3,0.1-0.7,0.1-1,0.3c-0.4,0.1-0.9,0.3-1.4,0.3c-0.3,0.1-0.7,0.1-1.1,0.3c-0.1,0-0.1,0-0.1-0.1c0.1-0.9,0.4-1.7,0.7-2.6
				c0.1-0.4,0.3-1,0.4-1.4c0,0,0.1-0.1,0-0.1s-0.1,0-0.1,0.1c-0.1,0.3-0.3,0.7-0.6,1c-0.3,0.6-0.6,1-0.9,1.7
				c-0.1,0.3-0.3,0.6-0.6,0.9c-0.1,0.1-0.1,0.1-0.1,0c-0.3-0.4-0.6-0.9-0.7-1.3c-0.3-0.6-0.6-1-0.9-1.4c-0.1-0.3-0.3-0.6-0.4-0.7
				c-0.1-0.3-0.3-0.7-0.6-1C306.3,157.4,306.3,157.1,306,157C306.2,157,306.2,157,306,157z"/>
		</g>
	</g>
	<g>
		<path class="st0" d="M273.7,110.4c0,0.1,0,0.1,0,0.1c0,0.1,0,0.1,0,0.3c0,0.1,0,0.1,0,0.1c0,0.1,0,0.1,0,0.3
			c0,0.3,0.1,0.6,0.1,0.7c0,0.1,0.1,0.3,0.1,0.3c0.1,0.3,0.1,0.4,0.3,0.6c0.1,0.1,0.4,0.3,0.6,0.6c0.1,0.1,0.3,0.1,0.4,0.1
			c0.1,0.1,0.4,0.1,0.6,0.1c0.1,0,0.3,0.1,0.3,0.1c0.1,0,0.1,0,0.1,0c0.1,0,0.1,0,0.1,0h0.1h0.1l0,0l0,0c-0.1,0-0.1,0-0.3,0
			c-0.1,0-0.1,0-0.3,0s-0.1,0-0.1,0c-0.1,0-0.3,0-0.3,0.1c-0.3,0-0.4,0.1-0.7,0.1c-0.3,0.1-0.6,0.1-0.9,0.4
			c-0.1,0.1-0.3,0.3-0.4,0.4c-0.1,0.1-0.3,0.4-0.3,0.7c-0.1,0.3-0.1,0.4-0.1,0.7c0,0.1,0,0.3-0.1,0.3c0,0.1,0,0.1,0,0.3
			c0,0.1,0,0.1,0,0.3c0,0.1,0,0.1,0,0.1l0,0l0,0c0-0.1,0-0.3,0-0.4s0-0.1,0-0.1c0-0.1,0-0.3-0.1-0.3c0-0.3-0.1-0.4-0.1-0.7
			c-0.1-0.3-0.1-0.6-0.4-0.9c-0.1-0.1-0.3-0.3-0.4-0.4c-0.1-0.1-0.4-0.3-0.7-0.3c-0.3-0.1-0.4-0.1-0.7-0.1c-0.1,0-0.3,0-0.3-0.1
			c-0.1,0-0.1,0-0.1,0H270c-0.1,0-0.1,0-0.1,0h-0.1l0,0l0,0c0.1,0,0.1,0,0.1,0c0.1,0,0.1,0,0.3,0c0.1,0,0.1,0,0.1,0s0.1,0,0.3,0
			c0.3,0,0.6-0.1,0.9-0.1c0.1,0,0.1-0.1,0.3-0.1c0.3-0.1,0.4-0.1,0.6-0.3c0.1-0.1,0.3-0.3,0.4-0.6c0.1-0.1,0.3-0.4,0.3-0.7
			c0.1-0.1,0.1-0.4,0.1-0.6c0-0.1,0-0.3,0.1-0.3c0-0.1,0-0.1,0-0.1c0-0.1,0-0.1,0-0.1c0-0.1,0-0.1,0-0.1
			C273.7,110.5,273.7,110.5,273.7,110.4L273.7,110.4z"/>
	</g>
	<g>
		<path class="st0" d="M321.5,193.4c-0.1,0.1-0.1,0.1-0.1,0.1c-0.1,0.1-0.1,0.1-0.1,0.3c0,0.1-0.1,0.1-0.1,0.1
			c-0.1,0.1-0.1,0.1-0.1,0.3c-0.1,0.3-0.3,0.6-0.4,0.7c-0.1,0.1-0.1,0.3-0.1,0.3c-0.1,0.3-0.1,0.6-0.1,0.7c0,0.3,0.1,0.6,0.1,0.9
			c0.1,0.1,0.1,0.3,0.3,0.4c0.1,0.1,0.3,0.3,0.4,0.6c0.1,0.1,0.1,0.1,0.3,0.3c0.1,0.1,0.1,0.1,0.1,0.1c0.1,0.1,0.1,0.1,0.1,0.1
			c0.1,0.1,0.1,0.1,0.1,0.1l0.1,0.1l0,0l0,0c-0.1-0.1-0.1-0.1-0.3-0.1c-0.1-0.1-0.1-0.1-0.1-0.1c-0.1,0-0.1-0.1-0.1-0.1
			c-0.1-0.1-0.1-0.1-0.3-0.1c-0.3-0.1-0.4-0.3-0.7-0.3c-0.3-0.1-0.7-0.3-1-0.3c-0.3,0-0.4,0-0.7,0.1s-0.6,0.1-0.7,0.3
			c-0.1,0.1-0.4,0.3-0.6,0.4c-0.1,0.1-0.1,0.1-0.3,0.3c-0.1,0.1-0.1,0.1-0.1,0.1c-0.1,0.1-0.1,0.1-0.3,0.3l-0.1,0.1l0,0l0,0
			c0.1-0.1,0.1-0.3,0.3-0.4c0-0.1,0.1-0.1,0.1-0.1c0.1-0.1,0.1-0.1,0.1-0.3c0.1-0.3,0.3-0.4,0.3-0.7c0.1-0.3,0.3-0.7,0.3-1
			c0-0.3,0-0.4-0.1-0.7s-0.1-0.6-0.3-0.7c-0.1-0.1-0.3-0.4-0.4-0.6c-0.1-0.1-0.1-0.1-0.3-0.3l-0.1-0.1c-0.1-0.1-0.1-0.1-0.1-0.1
			c-0.1-0.1-0.1-0.1-0.1-0.1l-0.1-0.1l0,0l0,0c0.1,0.1,0.1,0.1,0.1,0.1c0.1,0.1,0.1,0.1,0.3,0.1c0.1,0,0.1,0.1,0.1,0.1
			c0.1,0.1,0.1,0.1,0.3,0.1c0.3,0.1,0.6,0.3,0.7,0.4s0.1,0.1,0.3,0.1c0.3,0.1,0.6,0.1,0.7,0.1s0.4,0,0.7-0.1
			c0.3-0.1,0.6-0.1,0.7-0.3c0.1-0.1,0.3-0.3,0.6-0.4c0.1-0.1,0.1-0.1,0.3-0.3l0.1-0.1c0.1-0.1,0.1-0.1,0.1-0.1l0.1-0.1
			C321.3,193.4,321.3,193.4,321.5,193.4L321.5,193.4z"/>
	</g>
	<g>
		<path class="st0" d="M163.7,118.5c0,0.1-0.1,0.1-0.1,0.1c0,0.1-0.1,0.1-0.1,0.1l-0.1,0.1c-0.1,0.1-0.1,0.1-0.1,0.1
			c-0.1,0.1-0.1,0.3-0.3,0.6c-0.1,0.1-0.1,0.1-0.1,0.3c-0.1,0.1-0.1,0.3-0.1,0.6c0,0.3,0.1,0.4,0.1,0.6c0.1,0.1,0.1,0.3,0.1,0.3
			c0.1,0.1,0.1,0.3,0.3,0.4c0.1,0.1,0.1,0.1,0.1,0.3l0.1,0.1l0.1,0.1l0.1,0.1c0,0,0,0.1,0.1,0.1l0,0l0,0c-0.1-0.1-0.1-0.1-0.1-0.1
			c-0.1,0-0.1-0.1-0.1-0.1l-0.1-0.1c-0.1-0.1-0.1-0.1-0.3-0.1c-0.1-0.1-0.3-0.1-0.6-0.3c-0.3-0.1-0.6-0.1-0.9-0.1
			c-0.1,0-0.3,0-0.6,0.1c-0.1,0.1-0.3,0.1-0.6,0.3c-0.1,0.1-0.3,0.3-0.4,0.3c-0.1,0.1-0.1,0.1-0.1,0.1l-0.1,0.1
			c-0.1,0.1-0.1,0.1-0.1,0.1l-0.1,0.1l0,0l0,0c0.1-0.1,0.1-0.1,0.1-0.3c0-0.1,0.1-0.1,0.1-0.1c0.1-0.1,0.1-0.1,0.1-0.3
			c0.1-0.1,0.1-0.3,0.3-0.6c0.1-0.3,0.1-0.6,0.1-0.7c0-0.1,0-0.3-0.1-0.6c-0.1-0.1-0.1-0.3-0.3-0.6c-0.1-0.1-0.3-0.3-0.3-0.4
			c-0.1-0.1-0.1-0.1-0.1-0.1l-0.1-0.1l-0.1-0.1l-0.1-0.1l-0.1-0.1l0,0l0,0c0.1,0,0.1,0.1,0.1,0.1c0.1,0,0.1,0.1,0.1,0.1l0.1,0.1
			c0.1,0.1,0.1,0.1,0.1,0.1c0.1,0.1,0.3,0.1,0.6,0.3c0.1,0,0.1,0.1,0.1,0.1c0.1,0.1,0.3,0.1,0.6,0.1c0.3,0,0.3,0,0.6-0.1
			c0.1-0.1,0.3-0.1,0.6-0.3c0.3-0.1,0.3-0.1,0.4-0.3c0.1-0.1,0.1-0.1,0.3-0.1l0.1-0.1l0.1-0.1l0.1-0.1
			C163.5,118.6,163.7,118.5,163.7,118.5L163.7,118.5z"/>
	</g>
	<g>
		<path class="st0" d="M209.2,106.4c-0.1,0-0.1,0-0.1,0.1c-0.1,0-0.1,0.1-0.3,0.1c-0.1,0-0.1,0-0.1,0.1c-0.1,0-0.1,0.1-0.3,0.1
			c-0.3,0.1-0.4,0.1-0.7,0.3c-0.1,0.1-0.1,0.1-0.3,0.1c-0.1,0.1-0.3,0.3-0.6,0.4c-0.3,0.1-0.3,0.4-0.3,0.7c0,0.1-0.1,0.3-0.1,0.4
			c0,0.1,0,0.4,0,0.6c0,0.1,0,0.3,0,0.3c0,0.1,0,0.1,0,0.1c0,0.1,0,0.1,0,0.1c0,0.1,0,0.1,0,0.1v0.1l0,0l0,0c0-0.1-0.1-0.1-0.1-0.3
			c0-0.1-0.1-0.1-0.1-0.1c0-0.1,0-0.1-0.1-0.1c0-0.1-0.1-0.1-0.1-0.3c-0.1-0.1-0.1-0.4-0.3-0.6c-0.1-0.3-0.3-0.6-0.6-0.9
			c-0.1-0.1-0.3-0.3-0.6-0.3c-0.3-0.1-0.4-0.1-0.7-0.1c-0.3,0-0.4,0-0.7,0c-0.1,0-0.3,0-0.3,0h-0.1c-0.1,0-0.1,0-0.3,0h-0.1l0,0l0,0
			c0.1,0,0.3-0.1,0.4-0.1s0.1,0,0.1-0.1c0.1,0,0.1-0.1,0.3-0.1c0.1-0.1,0.4-0.1,0.6-0.3c0.3-0.1,0.6-0.3,0.9-0.6
			c0.1-0.1,0.3-0.3,0.3-0.6c0.1-0.3,0.1-0.4,0.1-0.7s0-0.4,0-0.7c0-0.1,0-0.3,0-0.3v-0.1c0-0.1,0-0.1,0-0.1c0-0.1,0-0.1,0-0.1v-0.1
			l0,0l0,0c0,0.1,0,0.1,0.1,0.1c0,0.1,0.1,0.1,0.1,0.3c0,0.1,0,0.1,0.1,0.1c0,0.1,0.1,0.1,0.1,0.3c0.1,0.3,0.1,0.4,0.3,0.7
			c0,0.1,0.1,0.1,0.1,0.3c0.1,0.1,0.3,0.3,0.4,0.6c0.1,0.1,0.3,0.3,0.6,0.3c0.3,0.1,0.4,0.1,0.7,0.1c0.1,0,0.4,0,0.6,0
			c0.1,0,0.3,0,0.3,0c0.1,0,0.1,0,0.1,0h0.1c0.1,0,0.1,0,0.1,0C209.1,106.4,209.1,106.4,209.2,106.4L209.2,106.4z"/>
	</g>
	<g>
		<path class="st0" d="M267.4,159.4c-0.1,0-0.1,0-0.1,0.1c-0.1,0-0.1,0-0.1,0.1H267c-0.1,0-0.1,0.1-0.3,0.1
			c-0.1,0.1-0.3,0.1-0.6,0.3c-0.1,0-0.1,0.1-0.3,0.1c-0.1,0.1-0.3,0.3-0.4,0.3c-0.1,0.1-0.1,0.3-0.3,0.6c0,0.1-0.1,0.3-0.1,0.3
			c0,0.1,0,0.3,0,0.6c0,0.1,0,0.1,0,0.3c0,0.1,0,0.1,0,0.1c0,0.1,0,0.1,0,0.1c0,0.1,0,0.1,0,0.1v0.1l0,0l0,0c0-0.1,0-0.1-0.1-0.1
			c0-0.1,0-0.1-0.1-0.1v-0.1c0-0.1-0.1-0.1-0.1-0.3c-0.1-0.1-0.1-0.3-0.3-0.6c-0.1-0.3-0.3-0.4-0.4-0.6s-0.3-0.1-0.4-0.3
			c-0.1-0.1-0.3-0.1-0.6-0.1c-0.1,0-0.3,0-0.6,0c-0.1,0-0.1,0-0.3,0s-0.1,0-0.1,0c-0.1,0-0.1,0-0.3,0h0.3l0,0l0,0
			c0.1,0,0.3-0.1,0.3-0.1c0.1,0,0.1,0,0.1-0.1c0.1,0,0.1-0.1,0.3-0.1c0.1-0.1,0.3-0.1,0.6-0.3s0.4-0.3,0.6-0.4
			c0.1-0.1,0.1-0.3,0.3-0.4c0.1-0.1,0.1-0.3,0.1-0.6c0-0.1,0-0.3,0-0.6c0-0.1,0-0.1,0-0.3v-0.1c0-0.1,0-0.1,0-0.1c0-0.1,0-0.1,0-0.1
			V157l0,0l0,0c0,0.1,0,0.1,0.1,0.1c0,0.1,0,0.1,0.1,0.1v0.1c0,0.1,0.1,0.1,0.1,0.3c0.1,0.1,0.1,0.3,0.3,0.6c0,0.1,0.1,0.1,0.1,0.1
			c0.1,0.1,0.3,0.3,0.3,0.4c0.1,0.1,0.3,0.1,0.4,0.3c0.1,0.1,0.3,0.1,0.6,0.1c0.1,0,0.3,0,0.6,0c0.1,0,0.1,0,0.3,0h0.1
			c0.1,0,0.1,0,0.1,0h0.1C267.1,159.6,267.3,159.4,267.4,159.4L267.4,159.4z"/>
	</g>
	<g>
		<path class="st0" d="M111.1,185.5c-0.1,0-0.1,0-0.1,0.1c-0.1,0-0.1,0-0.1,0.1h-0.1c-0.1,0-0.1,0.1-0.3,0.1
			c-0.1,0.1-0.3,0.1-0.6,0.3c-0.1,0-0.1,0.1-0.3,0.1c-0.1,0.1-0.3,0.3-0.4,0.3c-0.1,0.1-0.1,0.3-0.3,0.6c0,0.1-0.1,0.3-0.1,0.4
			c0,0.1,0,0.3,0,0.6c0,0.1,0,0.1,0,0.3c0,0.1,0,0.1,0,0.1c0,0.1,0,0.1,0,0.1v0.1v0.1l0,0l0,0c0-0.1,0-0.1-0.1-0.1
			c0-0.1,0-0.1-0.1-0.1v-0.1c0-0.1-0.1-0.1-0.1-0.3c-0.1-0.1-0.1-0.3-0.3-0.6c-0.1-0.3-0.3-0.4-0.6-0.6c-0.1-0.1-0.3-0.1-0.4-0.3
			c-0.1-0.1-0.3-0.1-0.6-0.1c-0.1,0-0.3,0-0.6,0c-0.1,0-0.1,0-0.3,0c-0.1,0-0.1,0-0.1,0c-0.1,0-0.1,0-0.3,0h-0.1l0,0l0,0
			c0.1,0,0.3-0.1,0.3-0.1c0.1,0,0.1,0,0.1-0.1c0.1,0,0.1-0.1,0.3-0.1c0.1-0.1,0.3-0.1,0.6-0.3c0.3-0.1,0.4-0.3,0.6-0.6
			c0.1-0.1,0.1-0.3,0.3-0.4c0.1-0.1,0.1-0.3,0.1-0.6c0-0.1,0-0.3,0-0.6c0-0.1,0-0.1,0-0.3v-0.1c0-0.1,0-0.1,0-0.1c0-0.1,0-0.1,0-0.1
			v-0.1l0,0l0,0c0,0.1,0,0.1,0.1,0.1c0,0.1,0,0.1,0.1,0.1v0.1c0,0.1,0.1,0.1,0.1,0.3c0.1,0.1,0.1,0.3,0.3,0.6c0,0.1,0.1,0.1,0.1,0.1
			c0.1,0.1,0.3,0.3,0.3,0.4c0.1,0.1,0.3,0.1,0.4,0.3c0.1,0.1,0.3,0.1,0.6,0.1c0.1,0,0.3,0,0.6,0c0.1,0,0.1,0,0.3,0h0.1
			c0.1,0,0.1,0,0.1,0h0.1C110.9,185.5,110.9,185.5,111.1,185.5L111.1,185.5z"/>
	</g>
	<g>
		<path class="st0" d="M201.1,158c-0.1,0-0.1,0-0.1-0.1c-0.1,0-0.1,0-0.3-0.1c-0.1,0-0.1,0-0.1,0c-0.1,0-0.1,0-0.3-0.1
			c-0.3,0-0.4-0.1-0.7-0.1c-0.1,0-0.1,0-0.3,0c-0.1,0-0.4,0.1-0.6,0.1c-0.3,0.1-0.4,0.3-0.6,0.4c-0.1,0.1-0.1,0.3-0.3,0.3
			c-0.1,0.1-0.1,0.3-0.3,0.6c-0.1,0.1-0.1,0.1-0.1,0.3c0,0.1-0.1,0.1-0.1,0.1c0,0.1-0.1,0.1-0.1,0.1c0,0.1-0.1,0.1-0.1,0.1v0.1l0,0
			l0,0c0-0.1,0-0.1,0.1-0.3c0-0.1,0-0.1,0.1-0.1c0-0.1,0-0.1,0-0.1c0-0.1,0-0.1,0.1-0.3c0-0.1,0.1-0.4,0.1-0.6c0-0.3,0-0.6-0.1-0.9
			c-0.1-0.1-0.1-0.3-0.3-0.6c-0.1-0.1-0.3-0.3-0.6-0.4c-0.1-0.1-0.3-0.1-0.6-0.3c-0.1-0.1-0.1-0.1-0.3-0.1c-0.1,0-0.1-0.1-0.1-0.1
			s-0.1-0.1-0.3-0.1h-0.1l0,0l0,0c0.1,0,0.3,0.1,0.4,0.1c0.1,0,0.1,0,0.1,0s0.1,0,0.3,0.1c0.1,0,0.4,0.1,0.6,0.1
			c0.3,0,0.6,0,0.9-0.1c0.1-0.1,0.3-0.1,0.6-0.3c0.1-0.1,0.3-0.3,0.4-0.6c0.1-0.1,0.1-0.3,0.3-0.6c0.1-0.1,0.1-0.1,0.1-0.3
			c0-0.1,0-0.1,0.1-0.1c0-0.1,0.1-0.1,0.1-0.1c0-0.1,0.1-0.1,0.1-0.1v-0.1l0,0l0,0c0,0.1,0,0.1-0.1,0.1c0,0.1,0,0.1-0.1,0.3
			c0,0.1,0,0.1,0,0.1c0,0.1,0,0.1-0.1,0.3c0,0.3-0.1,0.4-0.1,0.7c0,0.1,0,0.1,0,0.3s0.1,0.4,0.1,0.6c0.1,0.1,0.1,0.3,0.3,0.6
			c0.1,0.1,0.3,0.3,0.6,0.4c0.1,0.1,0.3,0.1,0.6,0.3c0.1,0.1,0.1,0.1,0.3,0.1c0,0,0.1,0,0.1,0.1c0.1,0,0.1,0.1,0.1,0.1
			C201.1,157.9,201.1,157.9,201.1,158C200.9,158,201.1,158,201.1,158L201.1,158z"/>
	</g>
	<g>
		<path class="st0" d="M312.3,140.2c-0.1,0-0.1,0-0.1,0.1c-0.1,0-0.1,0.1-0.3,0.1s-0.1,0-0.1,0c-0.1,0-0.1,0.1-0.3,0.1
			c-0.1,0.1-0.4,0.1-0.6,0.3c-0.1,0-0.1,0.1-0.3,0.1c-0.1,0.1-0.3,0.3-0.4,0.4c-0.1,0.1-0.3,0.4-0.3,0.7c0,0.1-0.1,0.3-0.1,0.4
			c0,0.1,0,0.3,0,0.6c0,0.1,0,0.1,0,0.3s0,0.1,0,0.1c0,0.1,0,0.1,0,0.1c0,0.1,0,0.1,0,0.1v0.1l0,0l0,0c0-0.1-0.1-0.1-0.1-0.3
			c0-0.1-0.1-0.1-0.1-0.1c0-0.1,0-0.1,0-0.1c0-0.1-0.1-0.1-0.1-0.3c-0.1-0.1-0.1-0.3-0.3-0.6c-0.1-0.3-0.3-0.6-0.6-0.7
			c-0.1-0.1-0.3-0.1-0.6-0.3c-0.1-0.1-0.4-0.1-0.6-0.1c-0.1,0-0.4,0-0.6,0c-0.1,0-0.1,0-0.3,0c-0.1,0-0.1,0-0.1,0
			c-0.1,0-0.1,0-0.3,0h-0.1l0,0l0,0c0.1,0,0.3-0.1,0.3-0.1c0.1,0,0.1,0,0.1-0.1c0.1,0,0.1-0.1,0.3-0.1c0.1-0.1,0.3-0.1,0.6-0.3
			s0.6-0.3,0.7-0.6c0.1-0.1,0.1-0.3,0.3-0.6c0.1-0.3,0.1-0.4,0.1-0.6s0-0.4,0-0.6s0-0.1,0-0.3c0-0.1,0-0.1,0-0.1c0-0.1,0-0.1,0-0.1
			c0-0.1,0-0.1,0-0.1v-0.1l0,0l0,0c0,0.1,0,0.1,0.1,0.1c0,0.1,0.1,0.1,0.1,0.1c0,0.1,0,0.1,0.1,0.1c0,0.1,0.1,0.1,0.1,0.3
			c0.1,0.1,0.1,0.4,0.3,0.6c0,0.1,0.1,0.1,0.1,0.3c0.1,0.1,0.3,0.3,0.4,0.4c0.1,0.1,0.3,0.1,0.6,0.3c0.1,0.1,0.4,0.1,0.6,0.1
			c0.1,0,0.3,0,0.6,0c0.1,0,0.1,0,0.3,0h0.1c0.1,0,0.1,0,0.1,0h0.1C312.2,140.2,312.2,140.2,312.3,140.2L312.3,140.2z"/>
	</g>
	<g>
		<g>
			<path class="st0" d="M227.9,162.1L227.9,162.1L227.9,162.1c-0.1,0-0.1,0-0.1,0C227.7,162.1,227.7,162.1,227.9,162.1L227.9,162.1z
				"/>
		</g>
		<g>
			<path class="st0" d="M227.9,162.1L227.9,162.1L227.9,162.1L227.9,162.1z"/>
		</g>
	</g>
	<g>
		<path class="st0" d="M227.6,85.8c-78.3,0-141.9,63.8-141.9,141.9c0,9.7,1,19.1,2.9,28.4c0.3,1.9,0.7,3.7,1.3,5.7
			c1,4,2.1,8,3.4,11.7c0.9,2.6,1.9,5.3,2.9,7.7c2.9,6.8,6,13.3,9.7,19.4c1.3,2.1,2.6,4.3,4,6.4c3.3,4.8,7,9.6,10.8,14
			c1.3,1.4,2.6,3,4,4.4c3.4,3.6,7.1,7.1,10.8,10.3c2.1,1.9,4.3,3.6,6.4,5.3c23.8,18,53.5,28.8,85.6,28.8s61.8-10.7,85.6-28.8
			c2.3-1.7,4.4-3.4,6.6-5.3c3.9-3.3,7.4-6.7,10.8-10.3c1.4-1.4,2.7-2.9,4-4.4c3.9-4.4,7.4-9.1,10.7-13.8c1.4-2,2.7-4.1,4-6.3
			c3.7-6.1,7-12.6,9.7-19.3c1-2.6,2.1-5.3,3-7.8c1.3-4,2.6-7.8,3.4-12c0.4-1.9,0.9-3.7,1.3-5.7c1.9-9.1,2.9-18.7,2.9-28.4
			C369.5,149.4,305.9,85.8,227.6,85.8z M227.6,364c-22.3,0-43.4-5.4-62-14.8c1.3,0.1,2.9,0.3,4.4,0.3c8,0,12.3-2.4,15.8-4.6
			c3.4-2.1,6.6-3.9,13-3.9c6.4,0,9.6,1.9,13,3.9c3.7,2.1,7.8,4.6,15.8,4.6s12.3-2.4,15.8-4.6c3.4-2.1,6.6-3.9,13-3.9
			c6.4,0,9.6,1.9,13,3.9c3.7,2.1,8,4.6,15.8,4.6c1.4,0,2.7-0.1,4-0.1C271,358.6,249.8,364,227.6,364z M311,335.3
			c-5.8,0.6-9.3,2.6-12.4,4.4c-3.4,2.1-6.6,3.9-13,3.9s-9.6-1.7-13-3.9c-3.7-2.1-7.8-4.6-15.8-4.6c-8,0-12.3,2.4-15.8,4.6
			c-3.4,2.1-6.6,3.9-13,3.9c-6.4,0-9.6-1.7-13-3.9c-3.7-2.1-7.8-4.6-15.8-4.6s-12.3,2.4-15.8,4.6c-3.4,2.1-6.6,3.9-13,3.9
			c-6.4,0-9.6-1.7-13-3.9c-3.3-1.9-6.8-4-12.8-4.6c-5-4-9.8-8.1-14.3-12.8c2.9-1.6,6-2.9,11.3-2.9c6.4,0,9.6,1.9,13,3.9
			c3.7,2.1,8,4.6,15.8,4.6c8,0,12.3-2.4,15.8-4.6c3.4-2.1,6.6-3.9,13-3.9s9.6,1.9,13,3.9c3.7,2.1,7.8,4.6,15.8,4.6
			s12.3-2.4,15.8-4.6c3.4-2.1,6.6-3.9,13-3.9c6.4,0,9.6,1.9,13,3.9c3.7,2.1,8,4.6,15.8,4.6c8,0,12.3-2.4,15.8-4.6
			c3.4-2.1,6.6-3.9,13-3.9c5.3,0,8.1,1.1,11,2.7C321,327,316.2,331.5,311,335.3z M329.4,318.2c-3.4-2-7.6-4.1-15-4.1
			c-8,0-12.3,2.4-15.8,4.6c-3.4,2.1-6.6,3.9-13,3.9s-9.6-1.9-13-3.9c-3.7-2.1-7.8-4.6-15.8-4.6s-12.3,2.4-15.8,4.6
			c-3.4,2.1-6.6,3.9-13,3.9s-9.6-1.9-13-3.9c-3.7-2.1-7.8-4.6-15.8-4.6s-12.3,2.4-15.8,4.6c-3.4,2.1-6.6,3.9-13,3.9
			c-6.4,0-9.6-1.9-13-3.9c-3.7-2.1-7.8-4.6-15.8-4.6c-7.6,0-11.7,2.1-15.3,4.3c-3.3-3.7-6.4-7.6-9.3-11.6c5.3-0.7,8.4-2.6,11.4-4.4
			c3.4-2.1,6.6-3.9,13-3.9c6.4,0,9.6,1.7,13,3.9c3.7,2.1,8,4.6,15.8,4.6c8,0,12.3-2.4,15.8-4.6c3.4-2.1,6.6-3.9,13-3.9
			s9.6,1.7,13,3.9c3.7,2.1,7.8,4.6,15.8,4.6c8,0,12.3-2.4,15.8-4.6c3.4-2.1,6.6-3.9,13-3.9c6.4,0,9.6,1.7,13,3.9
			c3.7,2.1,8,4.6,15.8,4.6c8,0,12.3-2.4,15.8-4.6c3.4-2.1,6.6-3.9,13-3.9s9.6,1.7,13,3.9c2.9,1.7,6,3.6,11.1,4.3
			C335.7,310.6,332.7,314.5,329.4,318.2z M342.3,301.4c-5.7-0.1-8.6-1.9-11.8-3.9c-3.7-2.1-7.8-4.6-15.8-4.6s-12.3,2.4-15.8,4.6
			c-3.4,2.1-6.6,3.9-13,3.9c-6.4,0-9.6-1.9-13-3.9c-3.7-2.1-7.8-4.6-15.8-4.6s-12.3,2.4-15.8,4.6c-3.4,2.1-6.6,3.9-13,3.9
			c-6.4,0-9.6-1.9-13-3.9c-3.7-2.1-7.8-4.6-15.8-4.6s-12.3,2.4-15.8,4.6c-3.4,2.1-6.6,3.9-13,3.9s-9.6-1.9-13-3.9
			c-3.7-2.1-7.8-4.6-15.8-4.6s-12.3,2.4-15.8,4.6c-3.4,2-6.3,3.7-12.3,3.9c-3.4-5.3-6.4-10.8-9.1-16.5c2.3,0.7,5,1.1,8.3,1.1
			c8,0,12.3-2.4,15.8-4.6c3.4-2.1,6.6-3.9,13-3.9c6.4,0,9.6,1.7,13,3.9c3.7,2.1,8,4.6,15.8,4.6c8,0,12.3-2.4,15.8-4.6
			c3.4-2.1,6.6-3.9,13-3.9c6.4,0,9.6,1.7,13,3.9c3.7,2.1,7.8,4.6,15.8,4.6s12.3-2.4,15.8-4.6c3.4-2.1,6.6-3.9,13-3.9
			c6.4,0,9.6,1.7,13,3.9c3.7,2.1,8,4.6,15.8,4.6c8,0,12.3-2.4,15.8-4.6c3.4-2.1,6.6-3.9,13-3.9c6.4,0,9.6,1.7,13,3.9
			c3.7,2.1,8,4.6,15.8,4.6c3.1,0,5.7-0.3,7.8-1C348.7,290.7,345.6,296.1,342.3,301.4z M354.4,277.5c-2.9,1.6-5.8,2.7-11.1,2.7
			c-6.4,0-9.6-1.9-13-3.9c-3.7-2.1-7.8-4.6-15.8-4.6c-8,0-12.3,2.4-15.8,4.6c-3.4,2.1-6.6,3.9-13,3.9c-6.4,0-9.6-1.9-13-3.9
			c-3.7-2.1-7.8-4.6-15.8-4.6s-12.3,2.4-15.8,4.6c-3.4,2.1-6.6,3.9-13,3.9c-6.4,0-9.6-1.9-13-3.9c-3.7-2.1-7.8-4.6-15.8-4.6
			s-12.3,2.4-15.8,4.6c-3.4,2.1-6.6,3.9-13,3.9c-6.4,0-9.6-1.9-13-3.9c-3.7-2.1-7.8-4.6-15.8-4.6s-12.3,2.4-15.8,4.6
			c-3.4,2.1-6.6,3.9-13,3.9c-5.4,0-8.6-1.3-11.6-3c-2-5-3.7-10.3-5-15.5h264C358.3,267.1,356.5,272.4,354.4,277.5z M139.9,256
			l5.1-24l2.7,24H139.9z M248.6,185.2l-21.4,21.1l-21.4-21.1L248.6,185.2L248.6,185.2z M208.6,179.7l18.5-11.6l18.5,11.6H208.6z
			 M182.1,219.2l39.5-5.3l-23.4,38.9L182.1,219.2z M193.5,256H156l21.5-33.2L193.5,256z M227.2,215.9l24.1,40.1h-48.4L227.2,215.9z
			 M232.6,213.9l39.5,5.3L256,252.9L232.6,213.9z M276.8,222.8l21.5,33.2h-37.5L276.8,222.8z M281.4,219.3l24.5-1.9l-4.1,33.2
			L281.4,219.3z M277.9,213.9l-14.3-23.5l37.8,21.8L277.9,213.9z M263.1,183.7l9.7-2.4l17.4,18L263.1,183.7z M271,213.3l-37.7-5
			l21.7-21.3L271,213.3z M256,179.4L256,179.4l-10.3-6.4l16.7,4.8L256,179.4z M198.4,179.4l-6.6-1.6l16.8-4.8L198.4,179.4z
			 M199.4,187.1l21.7,21.3l-37.7,5L199.4,187.1z M190.7,190.4l-14.3,23.5l0,0l-23.4-1.7L190.7,190.4z M164.7,198.9l16.8-17.5
			l9.7,2.3L164.7,198.9z M173,219.3l-20.3,31.4l-3.7-33.1L173,219.3z M306.6,256l3.1-25l5.6,25H306.6z M361,256h-39.8l-9.3-42.1
			c0-0.1,0-0.1-0.1-0.3l0,0v-0.1v-0.1c-0.1-0.3-0.3-0.6-0.6-0.9l0,0l-35.4-36.2l-0.1-0.1c-0.1-0.1-0.1-0.1-0.3-0.3
			c-0.1-0.1-0.3-0.1-0.3-0.3c-0.1,0-0.1-0.1-0.1-0.1l-0.1-0.1c-0.1-0.1-0.3-0.1-0.4-0.1L228,161.9h-0.1c0,0,0,0-0.1,0c0,0,0,0-0.1,0
			l0,0h-0.1c-0.1,0-0.1,0-0.1,0c-0.1,0-0.3,0-0.3,0h-0.1c-0.1,0-0.3,0-0.3,0h-0.1h-0.1l0,0c0,0,0,0-0.1,0H226l-46.4,13.3h-0.1
			c-0.1,0-0.1,0.1-0.3,0.1c-0.1,0-0.1,0.1-0.3,0.1c-0.1,0-0.1,0.1-0.1,0.1c-0.1,0.1-0.1,0.1-0.1,0.1l-0.1,0.1
			c-0.1,0.1-0.1,0.1-0.1,0.1l-0.1,0.1l-34.7,36.2l-0.1,0.1l-0.1,0.1l-0.1,0.1c-0.1,0.1-0.3,0.4-0.3,0.7c0,0.1-0.1,0.1-0.1,0.3v0.1
			l-9.1,42.1H93.8c-1.9-9.1-3-18.5-3-28.4c0-75.2,61.1-136.4,136.4-136.4c75.2,0,136.4,61.1,136.4,136.4
			C364,237.5,362.8,246.9,361,256z"/>
	</g>
	<g>
		<g>
			<path class="st0" d="M338.1,214.8c0,0.3,0,0.6,0,1v-1.1C338.1,214.6,338.1,214.6,338.1,214.8z"/>
		</g>
		<g>
			<path class="st0" d="M356.7,242.4c-0.1,1-1,1.6-1.9,1.6c-0.1,0-0.3,0-0.4-0.1c-0.4-0.1-7.6-1.7-12.3-6.3v19c0,1.1-0.9,2-2,2
				s-2-0.9-2-2v-19c-4.6,4.6-11.7,6.1-12.3,6.3c-0.1,0-0.3,0.1-0.4,0.1c-0.9,0-1.7-0.6-1.9-1.6c-0.3-1,0.4-2.1,1.4-2.4
				c0.1,0,3.3-0.7,6.6-2.6c3.3-1.9,6.6-4.6,6.6-8.8v-3.7c-3.3,3.3-7.7,4.6-10.7,5c-0.1,0-0.1,0-0.3,0c-1,0-1.9-0.9-2-1.7
				c-0.1-1.1,0.7-2.1,1.7-2.1c0.4-0.1,10.7-1.4,11.1-10.4l0,0c0-0.3,0-0.6,0-1c0-0.1,0-0.1,0-0.1v-1.7c-3.3,3.7-7.1,4.4-7.3,4.4
				c-1,0.1-2.1-0.6-2.3-1.7c-0.1-1,0.6-2.1,1.7-2.3c0.3-0.1,7.8-1.4,7.8-12.6v0.1c0-1.1,0.9-2,2-2c0.6,0,1,0.3,1.4,0.6
				c0.4,0.3,0.6,0.9,0.6,1.4v0.1c0,11.1,7.6,12.6,7.8,12.6c1,0.1,1.9,1.3,1.7,2.3c-0.1,1-1,1.7-1.9,1.7c-0.1,0-0.1,0-0.3,0
				c-0.1,0-4-0.7-7.3-4.4v1.6c0,0.1,0,0.1,0,0.3c0,0.1,0,0.1,0,0.3v0.7c0-0.1,0-0.1,0-0.3c0.3,9.1,10.7,10.4,11.1,10.4
				c1.1,0.1,1.9,1.1,1.7,2.1s-1,1.7-2,1.7c-0.1,0-0.1,0-0.3,0c-3-0.3-7.4-1.7-10.7-5v3.4c0,0.1,0,0.1,0,0.1c0,8.4,13,11.3,13.1,11.3
				C356.3,240.3,357,241.4,356.7,242.4z"/>
		</g>
		<g>
			<path class="st0" d="M342.1,215.6L342.1,215.6c0,0.1,0,0.1,0,0.3v-0.7C342.1,215.3,342.1,215.5,342.1,215.6z"/>
		</g>
		<g>
			<path class="st0" d="M338.1,214.8c0,0.3,0,0.6,0,1v-0.9V214.8z"/>
			<path class="st0" d="M342.1,215.6L342.1,215.6c0,0.1,0,0.1,0,0.3v-0.7C342.1,215.3,342.1,215.5,342.1,215.6z"/>
		</g>
		<g>
			<path class="st1" d="M340.1,200.8"/>
		</g>
	</g>
	<g>
		<g>
			<path class="st0" d="M113.2,215.6L113.2,215.6c0,0.1,0,0.1,0,0.1v-0.6C113.2,215.3,113.2,215.5,113.2,215.6z"/>
			<path class="st0" d="M116.1,226.9c0.1,0.1,0.1,0.1,0.3,0.1C116.2,227,116.1,226.9,116.1,226.9z"/>
			<path class="st0" d="M131.7,242.4c-0.1,1-1,1.6-1.9,1.6c-0.1,0-0.3,0-0.4-0.1c-0.4-0.1-7.6-1.7-12.3-6.3v19c0,1.1-0.9,2-2,2
				s-2-0.9-2-2v-19c-4.6,4.6-11.7,6.1-12.3,6.3c-0.1,0-0.3,0.1-0.4,0.1c-0.9,0-1.7-0.6-1.9-1.6c-0.3-1,0.4-2.1,1.4-2.4
				c0.1,0,3.3-0.7,6.6-2.6c3.3-1.9,6.4-4.6,6.4-8.8v-3.7c-3.3,3.1-7.7,4.6-10.7,5c-0.1,0-0.1,0-0.3,0c-1,0-1.9-0.9-2-1.7
				c-0.1-1.1,0.7-2.1,1.7-2.1c0.4-0.1,10.7-1.3,11.1-10.3v-0.1l0,0c0-0.1,0-0.3,0-0.6v-2.3c-3.3,3.7-7.1,4.4-7.3,4.4
				c-1,0.1-2.1-0.6-2.3-1.7c-0.1-1.1,0.6-2.1,1.7-2.3c0.3-0.1,7.8-1.4,7.8-12.6v0.1c0-1.1,0.9-2,2-2l0,0c1.1,0,2,0.9,2,2v0.1
				c0,11.1,7.6,12.4,7.8,12.6c1,0.1,1.9,1.3,1.7,2.3c-0.1,1-1,1.7-1.9,1.7c-0.1,0-0.1,0-0.3,0c-0.1,0-4-0.7-7.3-4.4v1.3
				c0,0.1,0,0.3,0,0.6s0,0.4,0,0.7l0,0c0.3,9.1,10.7,10.4,11.1,10.4c1,0.1,1.9,1.1,1.7,2.1s-1,1.7-2,1.7c-0.1,0-0.1,0-0.3,0
				c-3-0.3-7.4-1.7-10.7-5v3.4c0,0.1,0,0.1,0,0.3c0,8.4,13,11.3,13.1,11.3C131.3,240.3,132,241.4,131.7,242.4z"/>
		</g>
		<g>
			<path class="st0" d="M116.1,226.9c0.1,0.1,0.1,0.1,0.3,0.1C116.2,227,116.1,226.9,116.1,226.9z"/>
		</g>
		<g>
			<path class="st1" d="M115.2,200.8"/>
		</g>
	</g>
</g>
<g>
	<path class="st0" d="M413.2,139.6c4.3-1.9,7.2-3.2,10.4-4.9c0.3,0.8,0.6,2,1.2,3.2c0.6,1.3,1.1,2.2,1.6,3
		c-3.5,1.3-6.4,2.5-10.8,4.3l-5.2,2.3c-2.8,1.3-5.8,2.6-7.7,3.5c1.3,2.8,2.7,5.7,4.3,8.5c-0.6,0.2-1,0.3-1.8,0.6
		c-0.8,0.4-1.1,0.6-1.6,0.9c-0.5-1.4-1.2-3.3-2.7-6.8c-2.7-6.2-3.3-7.2-3.7-8c3.5-1.3,6.4-2.5,10.8-4.3L413.2,139.6z"/>
	<path class="st0" d="M421.8,158.4c2.5,1.5,4.4,4,5.2,6.5c1.3,4.2,0.6,7.9-4.2,9.3c-3.4,1-6.2,1.9-9.1,2.7c-2.5,0.8-2.5,1.6-2,3.2
		l-0.9,0.3c-1.3-1.2-1.8-2.1-2.2-3.3c-0.6-1.9,0.1-3.5,1.7-4.7c-2.1-0.7-3.8-1.8-4.6-4.3c-1.3-4,0.9-6.5,3.5-7.4
		c3.4-1.1,5.7,0.8,7.7,4.1c2.5,4.1,2.9,4.5,4.3,3.9c1.9-0.6,3-2.5,2.2-4.9c-0.6-1.8-2.3-3.6-3.7-4.1l-0.1-0.3L421.8,158.4z
		 M418.2,169.9c-2-1.8-2.8-4.9-6.8-3.7c-1.9,0.6-2.7,1.9-2.3,3.2c0.5,1.7,2.3,2.6,4.9,1.7C416.3,170.5,417.3,170.3,418.2,169.9z"/>
	<path class="st0" d="M427.6,179.8c5.3-1.1,9.5-2,14.1-3.2c0.1,0.7,0.2,2,0.4,3.2c0.2,1.2,0.6,2.4,0.8,3c-4.6,0.8-8.8,1.5-19.3,3.6
		c-0.7,0.1-0.9,0.2-0.8,0.4c0.1,0.5,4.3,2.8,10.6,5.9c0,0.6,0,1.3,0.2,2c0.1,0.6,0.4,1.3,0.6,2.2c-1.9-1.1-7.4-4.8-9-5.7
		c-1,0.9-9.4,8.9-10.8,9.8c-0.1-1.1-0.3-2.2-0.5-3.2s-0.5-2-0.8-3.1c1.1-1,8.4-7.2,8.3-7.8c-0.1-0.3-0.2-0.2-4.1,0.5
		c-1.5,0.3-4.4,1-5.4,1.3c-0.2-1-0.2-2-0.3-3c-0.2-1-0.5-1.9-0.8-2.9c4.6-0.8,8.8-1.5,14.2-2.6L427.6,179.8z"/>
	<path class="st0" d="M425.1,207c-4.5,0.4-7.7,2.4-7.4,6.3c0.2,2,1,3.6,2.4,5l-0.3,0.5l-2.4-0.7c-1.2-1.3-2.2-3-2.5-6.1
		c-0.5-5.5,2.3-10.5,9.5-11.1c7.2-0.6,11,3.1,11.6,8.6c0.5,5.4-2.7,8.8-8.5,9.3c-0.7,0.1-1,0.1-1.4,0.1L425.1,207z M427.5,213.3
		c4.2-0.5,6.8-1.6,6.6-3.7c-0.3-2.5-4-2.9-7.2-2.7L427.5,213.3z"/>
	<path class="st0" d="M443.6,253.6c-0.2,0.6-0.3,1.2-0.4,1.8s0,1.3,0.1,1.9c-6.3-3.2-18.6-9.6-27.9-13.5c0.1-0.6,0.3-1.2,0.4-1.8
		c0.1-0.7,0-1.3-0.1-1.9c7.3-2.1,23-6.9,29.5-9.2c-0.3,1.3-0.4,2.5-0.4,3.7c-0.1,1.2,0,2.5,0,3.6c-6.3,1.4-14.3,3.9-21.5,5.9
		C430.1,247.5,437.4,250.9,443.6,253.6z"/>
	<path class="st0" d="M424.4,259.7c3.3,0.6,6.2,1,9.2,1.3c-0.3,0.7-0.5,1.8-0.8,3.1c-0.3,1.3-0.3,2.4-0.3,3.1
		c-2.8-0.8-5.7-1.4-9.1-2l-1.6-0.3c-3.3-0.6-6.2-1-9.2-1.3c0.2-0.7,0.5-1.8,0.8-3.1c0.3-1.3,0.3-2.4,0.3-3.1c2.8,0.8,5.7,1.4,9.1,2
		L424.4,259.7z M444.2,266.1c-0.3,1.8-2,3-3.8,2.7c-1.8-0.3-3-2-2.7-3.8c0.3-1.8,2-3,3.8-2.7C443.3,262.6,444.6,264.2,444.2,266.1z"
		/>
	<path class="st0" d="M420.4,275.7c-4.4-1.2-8.1-0.3-9.1,3.4c-0.5,1.9-0.4,3.7,0.5,5.5l-0.5,0.4l-2-1.5c-0.7-1.6-1-3.6-0.2-6.6
		c1.4-5.2,5.8-9,12.8-7.1c7,1.9,9.3,6.7,7.9,12.1c-1.4,5.2-5.5,7.4-11.2,5.8c-0.7-0.2-1.1-0.3-1.3-0.4L420.4,275.7z M420.6,282.4
		c4.1,0.9,6.9,0.8,7.4-1.3c0.6-2.4-2.7-4.1-5.8-5L420.6,282.4z"/>
	<path class="st0" d="M404,309.5c3.9,3.3,7.8,6.4,11.8,9.4c-0.3,0.4-0.6,1-0.8,1.5c-0.2,0.5-0.3,1.1-0.5,1.7
		c-1.5-1.9-10.7-9.9-16-14.2c0.4-0.7,0.8-1.4,1.1-2c0.3-0.7,0.5-1.5,0.7-2.3c4.8,0.6,10.2,1,14.3,1.4l0.1-0.1
		c-3.7-3.1-7.4-6.1-11.1-9.1c0.4-0.7,0.8-1.4,1.1-2.1c0.4-0.8,0.5-1.6,0.7-2.4c6.8,0.9,19.3,1.7,21.2,1.7c-0.6,1.1-1.1,2-1.5,3
		c-0.4,0.9-0.7,2-0.9,2.9c-4.9-0.6-10.6-1.2-14.9-1.7l-0.1,0.1c3.9,3.3,7.8,6.4,11.8,9.4c-0.4,0.7-0.8,1.4-1,2.1
		c-0.3,0.7-0.5,1.5-0.7,2.3C414.1,310.5,409.1,309.9,404,309.5L404,309.5z"/>
	<path class="st0" d="M393.2,359.3c3.1,0,6-1.1,8.2-4.3c3-4.2,2.6-11.1-4.6-16.1c-5.5-3.8-11.7-3.7-15.4,1.5c-0.8,1.2-2,3.3-2,4.1
		c0.5,0.5,1.4,1.1,2.3,1.8c3.6,2.6,5.3,3.5,6,3.9c-0.4,0.4-1,1-2,2.4c-1.2,1.6-1.6,2.4-1.8,2.9c-0.6-0.6-3.4-2.8-5.6-4.3
		c-1.5-1.1-3.3-2.3-3.8-2.5c1.2-3.6,2.8-7.1,5-10.2c5.5-7.8,14-10.3,20.9-5.4c8.7,6.2,8.7,15.3,3,23.3c-2.4,3.5-4.9,5.2-7.8,6.7
		c-0.9-1.2-1.8-2.4-2.8-3.5L393.2,359.3z"/>
	<path class="st0" d="M382.8,362.9c4.1,3.6,7.4,6.4,11,9.4c-0.6,0.4-1.4,1.3-2.3,2.2c-0.8,0.9-1.6,1.9-1.9,2.5
		c-3.4-3.3-6.5-6.2-10.6-9.8l-2.1-1.8c-4.1-3.6-7.4-6.4-11-9.4c0.6-0.4,1.4-1.3,2.3-2.2c0.8-0.9,1.6-1.9,1.9-2.5
		c3.4,3.3,6.5,6.2,10.6,9.8L382.8,362.9z"/>
	<path class="st0" d="M375.2,372.3c-0.3,2.9-1.7,5.7-3.6,7.5c-3.3,3-6.9,3.9-10.2,0.3c-2.5-2.6-4.3-4.8-6.4-7
		c-1.8-1.9-2.5-1.6-3.8-0.4l-0.7-0.7c0.5-1.7,1.1-2.5,2-3.4c1.5-1.4,3.2-1.4,5-0.5c-0.3-2.1,0.1-4.2,1.9-5.9
		c3.1-2.9,6.3-2.1,8.1-0.1c2.5,2.6,1.8,5.4-0.3,8.6c-2.7,4.1-2.7,4.5-1.7,5.6c1.4,1.4,3.6,1.7,5.4-0.1c1.4-1.4,2.3-3.7,2-5.1
		l0.2-0.2L375.2,372.3z M363.2,374c0.8-2.7,3.2-4.6,0.4-7.7c-1.4-1.5-2.9-1.7-3.9-0.7c-1.4,1.2-1.3,3.1,0.6,5.1
		C361.9,372.6,362.5,373.4,363.2,374z"/>
	<path class="st0" d="M354,390.3L354,390.3c0,2.8-1,5.2-3.1,6.7c-2,1.4-4.4,1.3-6.7-0.2c0.1,3.1-1,5.6-3,7c-3.4,2.4-6.7,1.8-9.8-2.6
		c-1.6-2.3-2.7-4-3.9-5.8c-1-1.5-2.4-3.2-3.6-4.8c0.6-0.3,1.7-0.9,2.7-1.6c1-0.7,1.9-1.5,2.5-2c1.4,2.7,3.7,6,6.5,10.1
		c2,2.9,3.9,3.4,5.6,2.3c2.2-1.6,1.1-4.2,0-5.9l-1.8-2.4c-2-2.8-3.7-5.1-5.6-7.4c0.6-0.3,1.6-0.9,2.7-1.6c1.1-0.7,1.9-1.5,2.5-2
		c1.5,2.5,3.1,5,5.1,7.8l1.5,2.1c2,2.7,3.6,3.9,5.5,2.5c2-1.4,1.6-4-0.6-7.1l-0.9-1.4c-2-2.8-3.7-5.1-5.6-7.4
		c0.6-0.3,1.6-0.9,2.7-1.6c1.1-0.7,1.9-1.5,2.5-2c1.5,2.5,3.1,5,5.1,7.8l0.9,1.4c2,2.8,3.7,5.1,5.6,7.4c-0.9,0.5-1.8,1-2.5,1.6
		c-0.8,0.6-1.6,1.2-2.4,1.9L354,390.3z"/>
	<path class="st0" d="M323.1,397.1c2.4,4.9,4.5,8.7,6.7,12.8c-0.9,0.3-1.9,0.7-2.7,1.1c-0.9,0.4-1.7,0.9-2.5,1.4
		c-0.3-0.8-0.8-2.3-1.3-3.3l-0.1,0c0.4,2.4-0.8,5-3.4,6.4c-3.8,1.9-8.6,0.9-11.9-5.6c-3.6-7.1-1.2-11.7,2.5-13.5
		c2.2-1.1,4.4-1,6.2,0.3l0.1,0c-1.8-3.6-5.2-10.2-6.3-11.9c0.7-0.2,1.8-0.7,2.9-1.2c1.1-0.5,2.1-1.1,2.7-1.5
		c1.9,4.3,3.7,8.2,6.1,13.1L323.1,397.1z M320.3,412.5c1.9-0.9,2.5-3.8-0.2-9.4c-2.3-4.5-4.6-6-6.7-5c-2.1,1.1-2.3,4.1,0.1,9
		C315.9,412.1,318.3,413.5,320.3,412.5z"/>
	<path class="st0" d="M303.7,412.1c1.3,3.2,2.4,5.9,3.7,8.5c-0.8,0.2-1.8,0.4-2.9,1c-1.2,0.5-2.2,1-2.8,1.4
		c-0.8-2.8-1.9-5.6-3.1-8.8l-0.6-1.6c-1.3-3.2-2.4-5.9-3.7-8.5c0.7-0.1,1.8-0.4,2.9-1c1.2-0.5,2.2-1,2.8-1.4
		c0.8,2.8,1.9,5.6,3.1,8.8L303.7,412.1z M308.6,432.2c-1.7,0.6-3.6-0.2-4.3-1.8c-0.6-1.7,0.2-3.6,1.8-4.3s3.6,0.2,4.3,1.8
		S310.4,431.5,308.6,432.2z"/>
	<path class="st0" d="M289.5,423.8L289.5,423.8c-1,2.6-2.6,4.6-5.1,5.3c-4,1.2-7-0.4-8.4-5.5c-0.8-2.7-1.2-4.7-1.9-6.8
		c-0.5-1.7-1.3-3.7-1.9-5.8c0.7-0.1,1.9-0.4,3-0.7c1.2-0.3,2.3-0.7,2.9-1.1c0.5,3,1.6,6.9,2.9,11.6c1,3.4,2.6,4.6,4.7,3.9
		c2.4-0.7,2.8-3.3,1.7-6.9l-0.5-1.6c-1-3.3-1.9-6-2.9-8.8c0.7-0.1,1.8-0.3,3-0.7c1.3-0.4,2.3-0.8,2.9-1.1c0.6,2.9,1.4,5.8,2.3,9
		l0.5,1.6c1,3.3,1.9,6,2.9,8.8c-1,0.2-1.9,0.4-2.9,0.6c-1,0.3-1.9,0.7-2.9,1.1L289.5,423.8z"/>
	<path class="st0" d="M257.7,432.7L257.7,432.7c-1.5-0.8-2.6-2.2-3-4.3c-0.8-4.1,2.1-7.4,6.8-8.3c0.6-0.1,1.1-0.1,1.8-0.2
		c0.7-0.1,1-0.9,1-1.7c-0.3-1.3-1.4-1.9-3.6-1.7l-3,0.5c-4.5,0.7-7-0.5-7.6-4.2c-1.1-6.5,4.5-9.9,9.4-10.7c5.1-0.9,8.6,0.9,9.2,4.1
		c0.4,2.6-0.9,4.5-3.2,5.9l0,0.1c1.5,0.4,2.6,1.3,2.9,2.8c0.3,1.8-0.8,4-3,5.1l0,0.1c1.7,0.1,3.2,0.6,4.3,1.5s1.8,2.3,2.1,4
		c0.7,4.2-2.3,7.3-7.6,8.1c-1,0.2-2,0.2-3.1,0.4c-0.7,0.1-1.4,0.2-2.3,0.3c-1.4,0.3-2.9,0.5-4.4,0.8c0-0.3,0-0.6-0.1-1
		c0-0.3-0.1-0.7-0.3-1L257.7,432.7z M261.1,412.6c1.4-0.2,2.4-0.6,2.8-0.9c0.6-0.4,1.3-2,1-3.9c-0.5-3.1-3.3-4.3-6.2-3.8
		c-3.2,0.5-4.8,3.2-4.2,5.8C255.1,413,257.4,413.2,261.1,412.6z M265.9,426.1c-0.6-3.6-2.3-4.6-3.5-4.3c-1.8,0.3-2.4,1.9-1.7,5.7
		c0.6,3.7,2,4.9,3.5,4.6C265.9,431.6,266.5,429.7,265.9,426.1z"/>
	<path class="st0" d="M234,422.3c-1.9,0.1-3.5-1.5-3.6-3.3s1.5-3.5,3.3-3.6c1.9-0.1,3.5,1.5,3.6,3.3
		C237.3,420.6,235.9,422.3,234,422.3z"/>
	<path class="st0" d="M211.8,432.8c-0.5,4.7-0.8,7.9-1,11.5c-0.9-0.2-2-0.4-3.4-0.6c-1.3-0.1-2.5-0.1-3.5-0.2
		c0.7-3.7,1.1-6.8,1.6-11.5l0.7-5.7c0.3-3.1,0.7-6.2,0.8-8.4c-3.1-0.3-6.3-0.6-9.6-0.5c0.1-0.6,0.3-1,0.4-1.8
		c0.1-0.9,0.1-1.3,0.1-1.8c1.5,0.2,3.4,0.6,7.2,1.1c6.8,0.8,7.9,0.8,8.8,0.8c-0.7,3.7-1.1,6.8-1.6,11.5L211.8,432.8z"/>
	<path class="st0" d="M191.1,430.7c-2.6,1.4-5.7,1.7-8.3,1.2c-4.3-1-7-3.5-6-8.3c0.7-3.5,1.5-6.3,2.2-9.2c0.5-2.5-0.1-2.9-1.8-3.4
		l0.2-0.9c1.8-0.4,2.8-0.6,3.9-0.3c2,0.4,2.9,1.9,3.2,3.8c1.6-1.4,3.5-2.4,6-1.8c4.1,0.9,5.2,4,4.6,6.6c-0.8,3.6-3.6,4.5-7.3,4.6
		c-4.8,0.1-5.3,0.4-5.6,1.8c-0.4,2,0.7,3.9,3.1,4.4c1.8,0.4,4.3-0.2,5.4-1.2l0.3,0.1L191.1,430.7z M182.9,421.7
		c2.6-0.7,5.6,0.2,6.5-4c0.4-2-0.2-3.3-1.7-3.6c-1.8-0.4-3.4,0.7-3.9,3.4C183.4,419.8,183.1,420.8,182.9,421.7z"/>
	<path class="st0" d="M169.7,424.9c-1.8,5.2-3,9.2-4.4,13.8c-0.6-0.3-1.8-0.8-2.9-1.2c-1.1-0.4-2.3-0.7-3.1-0.8
		c1.7-4.4,3.2-8.4,6.7-18.6c0.3-0.7,0.3-0.9,0.1-0.9c-0.5-0.1-4.6,2.3-10.4,6.2c-0.6-0.3-1.2-0.6-1.8-0.8c-0.6-0.2-1.3-0.3-2.2-0.6
		c2-1,7.9-4,9.5-4.9c-0.3-1.3-2.9-12.6-3.1-14.3c1.1,0.4,2.1,0.9,3,1.2c1,0.4,2,0.5,3.1,0.8c0.3,1.5,1.9,10.9,2.5,11.1
		c0.3,0.1,0.3,0,1.6-3.8c0.4-1.4,1.4-4.3,1.5-5.4c0.9,0.4,1.8,0.8,2.8,1.2c1,0.3,1.9,0.6,2.9,0.7c-1.7,4.4-3.2,8.4-5,13.6
		L169.7,424.9z"/>
	<path class="st0" d="M147.5,408.9c1.9-4.1,1.8-7.9-1.7-9.6c-1.8-0.8-3.5-0.9-5.5-0.4l-0.3-0.5l1.8-1.7c1.7-0.4,3.7-0.3,6.5,1
		c4.9,2.3,7.8,7.2,4.8,13.9c-3,6.6-8.2,8.1-13.4,5.7c-4.9-2.3-6.2-6.8-3.8-12c0.3-0.6,0.5-1,0.6-1.2L147.5,408.9z M140.9,408
		c-1.7,3.8-2,6.6-0.1,7.6c2.2,1.1,4.5-1.9,6-4.9L140.9,408z"/>
	<path class="st0" d="M97.9,401.7c-0.4-0.4-0.9-0.9-1.4-1.2c-0.5-0.3-1.1-0.7-1.6-0.9c5.9-3.9,17.7-11.3,25.7-17.4
		c0.5,0.5,0.9,0.9,1.4,1.2c0.5,0.3,1.1,0.6,1.6,0.9c-1.8,7.4-5.5,23.4-6.9,30.2c-0.9-0.8-2-1.6-3-2.3c-1-0.7-2.1-1.4-3.2-1.9
		c2-6.2,3.9-14.3,5.7-21.5C110,392.9,103.4,397.5,97.9,401.7z"/>
	<path class="st0" d="M102.1,382c-2.1,2.6-4,4.9-5.7,7.3c-0.5-0.6-1.2-1.4-2.3-2.1s-1.9-1.4-2.5-1.8c2.1-2.1,4.1-4.3,6.2-6.9
		l1.1-1.3c2.1-2.6,4-4.9,5.7-7.3c0.5,0.6,1.2,1.4,2.3,2.1c1,0.8,1.9,1.4,2.5,1.8c-2.1,2.1-4.1,4.3-6.2,6.9L102.1,382z M86.8,395.9
		c-1.4-1.2-1.6-3.2-0.4-4.6c1.2-1.4,3.2-1.6,4.6-0.4c1.4,1.2,1.6,3.2,0.4,4.6C90.2,396.8,88.2,397,86.8,395.9z"/>
	<path class="st0" d="M90.4,370.4c3.2-3.2,4.4-6.9,1.7-9.6c-1.3-1.3-3-2.1-5-2.3l-0.1-0.6l2.3-1c1.7,0.2,3.6,0.9,5.9,3.2
		c3.9,3.8,4.9,9.5-0.2,14.7c-5.1,5.1-10.5,4.7-14.4,0.8c-3.9-3.8-3.6-8.5,0.5-12.5c0.5-0.5,0.8-0.8,1-0.9L90.4,370.4z M84.5,367.2
		c-2.9,3-4.2,5.5-2.7,7.1c1.7,1.7,4.9-0.3,7.3-2.6L84.5,367.2z"/>
	<path class="st0" d="M69.4,339.4c-4.8,1.7-9.5,3.5-14.1,5.4c-0.3-0.4-0.5-1-0.8-1.4c-0.4-0.4-0.7-0.8-1.2-1.3
		c2.4-0.4,13.9-4.3,20.3-6.7c0.3,0.6,0.8,1.3,1.3,2c0.5,0.7,1,1.1,1.6,1.8c-2.8,3.8-6,8.3-8.4,11.6l0,0.1c4.5-1.7,9-3.2,13.5-5
		c0.5,0.7,0.8,1.4,1.3,2c0.5,0.7,1.1,1.2,1.6,1.8c-4.2,5.5-11.2,15.8-12.1,17.4c-0.7-1-1.2-1.9-1.9-2.7c-0.6-0.8-1.3-1.5-2-2.3
		c3-4,6.3-8.5,9-12.1l0-0.1c-4.8,1.7-9.4,3.6-14.1,5.4c-0.5-0.7-0.8-1.3-1.3-2c-0.5-0.7-1-1.1-1.6-1.8
		C63.5,347.5,66.6,343.5,69.4,339.4L69.4,339.4z"/>
	<path class="st0" d="M31.9,304.8c-1.6,2.6-2,5.8-0.4,9.2c2.2,4.7,8.2,7.8,16.3,4.2c6-2.8,9.1-8.2,6.4-14.1
		c-0.6-1.3-1.9-3.4-2.6-3.8c-0.7,0.1-1.6,0.6-2.7,1.1c-4.1,1.8-5.8,2.9-6.5,3.2c-0.2-0.5-0.4-1.3-1.1-2.9c-0.8-1.8-1.3-2.5-1.6-3
		c0.9-0.2,4.1-1.5,6.5-2.6c1.7-0.7,3.6-1.7,4.1-2.1c2.5,2.9,4.8,6,6.3,9.4c4,8.8,1.8,17.3-5.9,20.9c-9.7,4.4-17.6-0.2-21.6-9.2
		c-1.7-3.8-2.1-6.8-1.9-10.2c1.5-0.1,3-0.3,4.3-0.6L31.9,304.8z"/>
	<path class="st0" d="M34,294c-5.2,1.7-9.2,3.1-13.7,4.7c-0.1-0.7-0.4-1.9-0.8-3c-0.4-1.1-0.8-2.3-1.2-2.9c4.5-1.3,8.7-2.5,13.8-4.2
		l2.6-0.8c5.2-1.7,9.2-3.1,13.7-4.7c0.1,0.7,0.4,1.9,0.8,3c0.4,1.1,0.8,2.3,1.2,2.9c-4.5,1.3-8.7,2.5-13.8,4.2L34,294z"/>
	<path class="st0" d="M29.7,282.8c-2.4-1.8-4.1-4.4-4.6-6.9c-1.1-4.3,0.1-7.9,4.9-9c3.4-0.8,6.3-1.4,9.3-2c2.5-0.6,2.7-1.4,2.3-3.1
		l1-0.3c1.2,1.4,1.7,2.3,2,3.5c0.4,2-0.4,3.5-2,4.6c2,0.9,3.6,2.1,4.3,4.6c1,4.1-1.3,6.5-4,7.1c-3.5,0.9-5.5-1.1-7.4-4.6
		c-2.1-4.3-2.6-4.6-4-4.3c-1.9,0.5-3.2,2.3-2.6,4.7c0.5,1.9,2.1,3.8,3.4,4.4l0.1,0.3L29.7,282.8z M34.2,271.6c1.8,2,2.3,5.1,6.4,4.1
		c2-0.4,2.9-1.6,2.5-3.1c-0.4-1.8-2-2.7-4.7-2.1C36.2,271.2,35.2,271.3,34.2,271.6z"/>
	<path class="st0" d="M24.8,255.3L24.8,255.3c-2.4-1.5-4-3.4-4.2-6c-0.2-2.5,1-4.4,3.5-5.6c-2.7-1.5-4.3-3.6-4.5-6.1
		c-0.4-4.1,1.8-6.7,7-7.2c2.8-0.2,4.8-0.3,7-0.4c1.8-0.1,3.9-0.5,6-0.7c0,0.8,0,1.9,0.1,3.2c0.1,1.2,0.3,2.5,0.5,3.1
		c-3-0.2-7.1,0.2-12,0.6c-3.4,0.3-5,1.7-4.8,3.8c0.2,2.7,3,3,5.1,2.9l3-0.3c3.4-0.3,6.4-0.7,9.2-1.2c0,0.8-0.1,1.8,0.1,3.2
		c0.1,1.2,0.3,2.3,0.5,3.1c-3,0-5.9,0.2-9.3,0.5l-2.6,0.2c-3.3,0.3-5.2,1.2-5,3.5c0.2,2.5,2.6,3.4,6.5,3l1.6-0.2
		c3.4-0.3,6.4-0.7,9.2-1.2c0,0.8-0.1,1.8,0.1,3.2c0.1,1.2,0.3,2.3,0.5,3.1c-3,0-5.9,0.2-9.3,0.5l-1.6,0.2c-3.4,0.3-6.4,0.7-9.2,1.2
		c0-0.9,0-1.9,0-3c-0.1-1-0.3-1.9-0.5-3L24.8,255.3z"/>
	<path class="st0" d="M34.3,225.3c-5.5-0.3-9.8-0.4-14.5-0.6c0.2-0.9,0.3-1.9,0.4-2.9s0-1.9,0-2.9c0.9,0.1,2.4,0.4,3.6,0.5l0-0.1
		c-2.3-1-4-3.2-3.8-6.2c0.2-4.2,3.6-7.9,10.8-7.4c8,0.5,10.7,4.8,10.4,8.9c-0.1,2.5-1.3,4.3-3.4,5.2l0,0.1c4,0.2,11.5,0.8,13.5,0.5
		c-0.2,0.7-0.3,1.9-0.4,3.1s0,2.5,0,3.2c-4.7-0.5-8.9-0.8-14.4-1.3L34.3,225.3z M22.6,215c-0.1,2.1,2,4.2,8.3,4.5
		c5,0.3,7.5-1,7.7-3.4c0.2-2.4-2.3-4-7.8-4.4C25.1,211.5,22.7,212.8,22.6,215z"/>
	<path class="st0" d="M11.3,195.1c0.3-1.8,2-3.1,3.8-2.8c1.8,0.3,3.1,2,2.8,3.8s-2,3.1-3.8,2.8S11.1,196.8,11.3,195.1z M31.2,200.9
		c-3.4-0.5-6.3-0.9-9.2-1.1c0.2-0.7,0.5-1.8,0.7-3c0.2-1.2,0.3-2.4,0.2-3.1c2.8,0.7,5.8,1.3,9.2,1.7l1.7,0.2
		c3.4,0.5,6.3,0.9,9.2,1.1c-0.2,0.7-0.5,1.8-0.7,3c-0.2,1.2-0.2,2.3-0.2,3.1c-2.8-0.7-5.8-1.3-9.2-1.7L31.2,200.9z"/>
	<path class="st0" d="M28.3,182.7L28.3,182.7c-1.8-2.1-2.6-4.6-2.1-7.1c0.9-4.1,3.8-5.8,9-4.5c2.8,0.7,4.7,1.4,6.8,1.9
		c1.8,0.4,3.8,0.8,5.9,1.2c-0.3,0.6-0.7,1.9-0.9,3c-0.3,1.2-0.5,2.4-0.6,3.1c-2.9-1.1-6.7-2.1-11.6-3.3c-3.4-0.8-5.2,0-5.7,2.1
		c-0.6,2.5,1.4,4.1,5.1,5.1l1.6,0.4c3.3,0.8,6.2,1.4,9.1,1.9c-0.3,0.6-0.6,1.7-0.9,3c-0.3,1.3-0.4,2.3-0.6,3.1
		c-2.8-1-5.7-1.7-8.9-2.6l-1.6-0.4c-3.3-0.8-6.2-1.4-9.1-1.9c0.3-1,0.7-1.9,0.9-2.8c0.3-1,0.3-1.9,0.5-3L28.3,182.7z"/>
	<path class="st0" d="M36.6,150.9L36.6,150.9c1.5-0.9,3.2-1.2,5.2-0.4c3.8,1.5,5.3,5.5,3.7,10c-0.2,0.5-0.4,1.1-0.7,1.8
		c-0.2,0.6,0.3,1.4,1,1.6c1.3,0.5,2.4-0.1,3.2-2.3l1.1-2.9c1.6-4.3,3.9-5.8,7.5-4.5c6.2,2.3,6.3,8.9,4.6,13.5
		c-1.8,4.8-5.1,7-8.1,5.9c-2.5-0.9-3.4-3-3.5-5.6l-0.1-0.1c-1.1,1.1-2.4,1.6-3.9,1.1c-1.7-0.6-3.1-2.8-2.8-5.2l-0.1-0.1
		c-1,1.4-2.1,2.4-3.5,2.9s-2.9,0.4-4.6-0.2c-4-1.5-5.1-5.7-3.2-10.7c0.4-1,0.9-1.9,1.2-2.8c0.3-0.6,0.6-1.4,0.9-2.1
		c0.5-1.3,1-2.7,1.4-4.2c0.3,0.1,0.6,0.3,0.9,0.4c0.3,0.1,0.6,0.2,1,0.3L36.6,150.9z M38.2,161.3c3.5,1.3,5.1,0.3,5.5-0.9
		c0.6-1.7-0.5-3.1-4.1-4.4c-3.6-1.2-5.2-0.7-5.7,0.7C33.3,158.5,34.7,160,38.2,161.3z M52.3,163.9c-0.6,1.4-0.7,2.3-0.6,3
		c0.1,0.7,1,2.1,2.8,2.8c3,1.1,5.4-0.7,6.4-3.4c1.1-3-0.3-5.7-2.9-6.6C54.9,158.5,53.6,160.5,52.3,163.9z"/>
	<path class="st0" d="M57.5,135.7c0.9-1.6,3-2.3,4.6-1.4c1.6,0.9,2.3,3,1.4,4.6c-0.9,1.6-3,2.3-4.6,1.4S56.6,137.3,57.5,135.7z"/>
	<path class="st0" d="M59.6,111.1c-3.8-2.8-6.4-4.7-9.5-6.6c0.6-0.7,1.4-1.5,2.2-2.6c0.8-1.2,1.4-2.1,1.9-2.8
		c2.8,2.4,5.4,4.4,9.1,7.2l4.6,3.4c2.5,1.8,5.1,3.7,6.8,4.9c1.8-2.5,3.6-5.2,5.2-8c0.4,0.4,0.7,0.7,1.4,1.3c0.7,0.5,1.1,0.7,1.5,0.9
		c-0.9,1.2-2.2,2.6-4.5,5.7c-4.1,5.4-4.7,6.4-5.1,7.2c-2.8-2.4-5.4-4.4-9.1-7.2L59.6,111.1z"/>
	<path class="st0" d="M71.8,94.3c0.2-2.9,1.4-5.8,3.1-7.8c3.1-3.3,6.6-4.4,10.2-1c2.6,2.4,4.6,4.5,6.9,6.5c1.9,1.7,2.6,1.4,3.8,0.2
		l0.8,0.7c-0.4,1.8-0.9,2.7-1.8,3.5c-1.4,1.5-3.1,1.7-4.9,0.9c0.4,2.2,0.3,4.2-1.5,6.1c-2.9,3.1-6.1,2.5-8.1,0.6
		c-2.6-2.4-2.2-5.3-0.2-8.7c2.4-4.2,2.4-4.7,1.3-5.8c-1.5-1.4-3.7-1.4-5.4,0.5c-1.3,1.4-2,3.8-1.7,5.2l-0.2,0.2L71.8,94.3z
		 M83.7,91.7c-0.6,2.7-2.9,4.8,0.2,7.7c1.5,1.4,3,1.5,4,0.4c1.2-1.3,1-3.3-0.9-5.1C85.1,93,84.3,92.4,83.7,91.7z"/>
	<path class="st0" d="M87.5,78.7c-3.6-4.1-6.5-7.3-9.7-10.7c0.6-0.3,1.6-1.1,2.5-1.9s1.8-1.6,2.3-2.2c3,3.7,5.7,7,12.7,15
		c0.5,0.6,0.6,0.7,0.7,0.6c0.3-0.3,0.2-5.1-0.1-12.1c0.6-0.4,1.1-0.7,1.6-1.1c0.5-0.4,0.9-1,1.6-1.7c-0.1,2.2-0.6,8.8-0.5,10.6
		c1.2,0.4,12.4,3.8,13.9,4.5c-0.9,0.7-1.8,1.3-2.7,2c-0.9,0.8-1.5,1.5-2.3,2.2c-1.4-0.4-10.4-3.8-10.9-3.4c-0.2,0.2-0.1,0.3,2.5,3.3
		c1,1.1,3.1,3.3,3.8,4c-0.8,0.6-1.7,1.2-2.4,1.9c-0.7,0.7-1.4,1.4-2.1,2.2c-3-3.7-5.7-7-9.2-11.1L87.5,78.7z"/>
	<path class="st0" d="M112.4,67.5c2.6,3.7,6,5.5,9.1,3.3c1.6-1.1,2.7-2.6,3.1-4.5l0.6,0l0.6,2.4c-0.5,1.7-1.5,3.3-4.2,5.2
		c-4.5,3.2-10.2,3.1-14.4-2.9c-4.1-5.9-2.7-11.1,1.8-14.3c4.5-3.2,9-2,12.3,2.7c0.4,0.6,0.7,0.9,0.7,1.1L112.4,67.5z M116.7,62.3
		c-2.4-3.4-4.7-5.1-6.5-3.9c-2,1.4-0.6,4.8,1.2,7.6L116.7,62.3z"/>
	<path class="st0" d="M143.8,28.3c0.6-0.1,1.2-0.3,1.8-0.7c0.5-0.3,1.1-0.6,1.5-1c0.3,7.1,0.9,20.9,2.1,31c-0.6,0.2-1.2,0.3-1.8,0.7
		c-0.5,0.3-1.1,0.6-1.5,1c-5.4-5.4-17.4-16.6-22.6-21.2c1.2-0.5,2.4-0.9,3.5-1.4c1.1-0.5,2.1-1.1,3.2-1.7
		c4.3,4.8,10.4,10.5,15.7,15.7C145.2,43.2,144.6,35.2,143.8,28.3z"/>
	<path class="st0" d="M154.4,21.6c1.7-0.6,3.6,0.3,4.2,2.1c0.6,1.8-0.3,3.6-2.1,4.2c-1.7,0.6-3.6-0.3-4.2-2.1
		C151.8,24,152.8,22.3,154.4,21.6z M158.7,41.9c-1.1-3.2-2.2-6-3.4-8.7c0.8-0.2,1.8-0.4,3-0.8c1.2-0.5,2.2-0.9,2.8-1.3
		c0.7,2.8,1.7,5.7,2.8,8.9l0.6,1.6c1.1,3.2,2.2,6,3.4,8.7c-0.7,0.1-1.8,0.4-3,0.8c-1.2,0.5-2.2,0.9-2.8,1.3
		c-0.7-2.8-1.7-5.7-2.8-8.9L158.7,41.9z"/>
	<path class="st0" d="M174.5,37.6c1.2,4.4,3.7,7.2,7.4,6.2c1.9-0.5,3.4-1.6,4.5-3.2l0.6,0.2l-0.3,2.4c-1.1,1.4-2.6,2.7-5.6,3.5
		c-5.2,1.4-10.6-0.5-12.5-7.6c-1.8-7,1.2-11.4,6.6-12.9c5.2-1.4,9.1,1.1,10.6,6.7c0.1,0.7,0.3,1.1,0.3,1.4L174.5,37.6z M180.3,34.1
		c-1.2-4-2.7-6.5-4.7-5.9c-2.4,0.7-2.2,4.3-1.5,7.6L180.3,34.1z"/>
	<path class="st0" d="M212,35c0.9-5,1.8-9.9,2.4-14.9c0.5,0,1.1,0,1.6,0c0.5-0.1,1-0.3,1.8-0.4c-1,2.3-3.3,14.2-4.4,20.9
		c-0.8,0-1.6,0-2.3,0.1c-0.8,0.1-1.5,0.3-2.3,0.5c-1.9-4.4-4.1-9.4-5.8-13.1l-0.1,0c-0.9,4.7-1.7,9.5-2.4,14.2c-0.9,0-1.6,0-2.4,0.1
		c-0.8,0.1-1.6,0.4-2.4,0.5c-2.7-6.4-8-17.6-9-19.3c1.3,0,2.2-0.1,3.2-0.2c1-0.2,2-0.4,3-0.6c1.9,4.6,4.1,9.8,6,13.8l0.1,0
		c0.9-4.9,1.6-10,2.4-14.9c0.9,0,1.6,0,2.3-0.1c0.7-0.1,1.5-0.3,2.3-0.5C207.8,25.8,209.8,30.5,212,35L212,35z"/>
	<path class="st0" d="M260.6,19.9c-1.5-2.6-3.9-4.6-7.8-5c-5.2-0.5-11,3.2-11.8,11.9c-0.6,6.6,2.5,12,8.9,12.6
		c1.4,0.1,3.9,0.1,4.6-0.3c0.2-0.6,0.3-1.7,0.4-2.9c0.5-4.5,0.4-6.4,0.4-7.2c0.6,0.1,1.3,0.4,3.1,0.5c2,0.2,2.8,0.1,3.4,0.1
		c-0.3,0.9-0.7,4.3-1,7c-0.2,1.8-0.3,4-0.3,4.6c-3.7,0.6-7.6,1.1-11.3,0.7c-9.5-1-15.9-7.1-15-15.6c1.1-10.5,9-15.1,18.9-14.1
		c4.2,0.5,6.9,1.6,9.7,3.5c-0.6,1.4-1.2,2.7-1.6,4.1L260.6,19.9z"/>
	<path class="st0" d="M269,27.2c1.2-5.4,1.9-9.6,2.7-14.2c0.6,0.3,1.8,0.6,3,0.9c1.2,0.3,2.4,0.4,3.1,0.4c-1.2,4.6-2.2,8.7-3.4,14.1
		l-0.6,2.7c-1.2,5.4-1.9,9.6-2.7,14.2c-0.6-0.3-1.8-0.6-3-0.9c-1.2-0.3-2.4-0.4-3.1-0.4c1.2-4.6,2.2-8.7,3.4-14.1L269,27.2z"/>
	<path class="st0" d="M280.8,29.2c2.7-1.1,5.8-1.3,8.3-0.5c4.2,1.3,6.7,4,5.3,8.8c-1.1,3.4-2,6.2-2.9,9.1c-0.8,2.5-0.2,2.9,1.5,3.5
		l-0.3,1c-1.8,0.3-2.8,0.3-4,0c-1.9-0.6-2.8-2.1-2.9-4.1c-1.8,1.3-3.6,2.1-6.1,1.3c-4.1-1.3-4.9-4.5-4.1-7c1.1-3.5,3.9-4.2,7.7-4
		c4.8,0.3,5.3,0.1,5.8-1.4c0.6-1.9-0.4-3.9-2.8-4.6c-1.8-0.6-4.3-0.1-5.5,0.7l-0.3-0.1L280.8,29.2z M288.2,38.8
		c-2.7,0.6-5.7-0.6-6.8,3.5c-0.6,1.9,0,3.3,1.4,3.8c1.8,0.5,3.3-0.5,4.2-3C287.6,40.6,288,39.6,288.2,38.8z"/>
	<path class="st0" d="M307,38.8L307,38.8c2.5-1.3,5-1.7,7.4-0.6c2.3,1.1,3.3,3.2,3.1,5.9c2.6-1.6,5.3-1.8,7.6-0.9
		c3.8,1.8,4.9,4.9,2.6,9.7c-1.2,2.6-2.2,4.3-3.1,6.3c-0.8,1.6-1.6,3.6-2.4,5.6c-0.6-0.4-1.6-1-2.7-1.6c-1.1-0.6-2.3-1-2.9-1.2
		c1.6-2.5,3.4-6.2,5.5-10.7c1.5-3.1,1.1-5.2-0.9-6.1c-2.4-1.1-4.2,1.1-5,2.9l-1.2,2.7c-1.4,3.1-2.7,5.8-3.7,8.5
		c-0.6-0.4-1.6-1-2.7-1.6s-2.2-0.9-2.9-1.2c1.5-2.6,2.8-5.2,4.3-8.3L311,46c1.5-3,1.6-5.1-0.5-6c-2.3-1.1-4.3,0.5-5.9,4l-0.7,1.5
		c-1.4,3.1-2.7,5.8-3.7,8.5c-0.6-0.4-1.6-1-2.7-1.6c-1.2-0.5-2.2-0.9-2.9-1.2c1.5-2.6,2.8-5.2,4.3-8.3l0.7-1.5
		c1.4-3.1,2.7-5.8,3.7-8.5c0.8,0.5,1.6,1,2.6,1.5c0.9,0.4,1.9,0.7,2.9,1.1L307,38.8z"/>
	<path class="st0" d="M328.2,62.2c3-4.5,5.3-8.1,7.7-12.2c0.7,0.6,1.5,1.2,2.3,1.8c0.8,0.5,1.6,1,2.5,1.4c-0.6,0.7-1.6,1.9-2.2,2.9
		l0,0.1c2-1.5,4.8-1.8,7.2-0.1c3.5,2.3,5.1,7.1,1,13.1c-4.4,6.6-9.5,6.8-12.9,4.6c-2-1.4-3.1-3.3-2.8-5.6l0-0.1
		c-2.2,3.4-6.4,9.6-7.2,11.4c-0.5-0.5-1.5-1.2-2.5-1.9c-1-0.7-2.1-1.3-2.7-1.6c2.8-3.8,5.3-7.3,8.3-11.8L328.2,62.2z M342.9,57
		c-1.7-1.2-4.6-0.3-8.1,4.9c-2.8,4.2-3,7-1,8.4c2,1.3,4.7,0,7.7-4.6C344.8,61.1,344.8,58.3,342.9,57z"/>
	<path class="st0" d="M365.8,57.4c1.4,1.2,1.6,3.2,0.5,4.6c-1.2,1.4-3.2,1.6-4.6,0.5c-1.4-1.2-1.6-3.2-0.5-4.6
		C362.3,56.5,364.3,56.3,365.8,57.4z M350.8,71.6c2.1-2.6,3.9-5,5.6-7.4c0.5,0.6,1.3,1.3,2.3,2.1c1,0.8,2,1.4,2.6,1.8
		c-2,2.1-3.9,4.3-6,7l-1,1.3c-2.1,2.6-3.9,5-5.6,7.4c-0.5-0.6-1.3-1.3-2.3-2.1c-1-0.8-1.9-1.4-2.6-1.8c2-2.1,3.9-4.3,6-7L350.8,71.6
		z"/>
	<path class="st0" d="M368,78.3L368,78.3c2.7-0.5,5.2,0,7.2,1.8c3,2.9,3.1,6.2-0.7,10.1c-2,2-3.4,3.4-5,4.9
		c-1.2,1.3-2.7,2.9-4.1,4.5c-0.4-0.6-1.2-1.5-2.1-2.3c-0.9-0.9-1.8-1.6-2.3-2c2.4-1.9,5.2-4.7,8.7-8.3c2.4-2.5,2.6-4.5,1.1-6
		c-1.8-1.8-4.3-0.9-6.9,1.9l-1.2,1.2c-2.4,2.5-4.4,4.6-6.2,6.9c-0.4-0.6-1.2-1.4-2.1-2.3s-1.8-1.6-2.3-2c2.2-1.9,4.4-4.1,6.7-6.4
		l1.2-1.2c2.3-2.4,4.4-4.6,6.2-6.9c0.7,0.7,1.3,1.5,2,2.2c0.7,0.7,1.5,1.2,2.3,2L368,78.3z"/>
	<path class="st0" d="M391.4,101.4l-0.1-0.1c0.1,1.7-0.6,3.4-2.1,4.7c-3.2,2.7-7.4,1.9-10.5-1.9c-0.4-0.5-0.7-0.9-1.2-1.5
		c-0.4-0.5-1.3-0.5-1.9,0.1c-1.1,0.8-1,2.2,0.4,3.9l1.9,2.4c2.9,3.6,3,6.4,0.1,8.8c-5.1,4.2-10.8,1-14-2.8c-3.3-4-3.5-7.9-1-10
		c2-1.7,4.4-1.4,6.6-0.1l0.1,0c-0.4-1.4-0.2-2.9,1-3.9c1.4-1.2,3.9-1.2,5.9,0.2l0.1,0c-0.8-1.5-1-3-0.8-4.5c0.2-1.4,1-2.7,2.4-3.9
		c3.3-2.7,7.5-1.5,10.9,2.6c0.6,0.7,1.3,1.7,1.9,2.5c0.4,0.6,0.9,1.2,1.4,1.8c0.9,1,1.9,2.2,2.9,3.4c-0.2,0.2-0.6,0.3-0.8,0.6
		c-0.2,0.2-0.5,0.5-0.7,0.7L391.4,101.4z M381.6,97.6c-2.8,2.3-2.9,4.3-2.1,5.3c1.2,1.4,3,1.1,5.8-1.3c3-2.4,3.2-4.2,2.3-5.3
		C386.4,94.8,384.4,95.2,381.6,97.6z M372.2,108.4c-1-1.1-1.6-1.8-2.2-2s-2.3-0.2-3.9,1.1c-2.5,2-2.1,5-0.2,7.3
		c2.1,2.4,5.1,2.6,7.1,0.9C375.5,113.4,374.6,111.3,372.2,108.4z"/>
	<path class="st0" d="M394,127.2c1,1.5,0.4,3.8-1.1,4.7c-1.5,1-3.8,0.4-4.7-1.1c-0.9-1.6-0.4-3.8,1.1-4.7
		C390.9,125.1,393,125.6,394,127.2z"/>
</g>
</svg>
