<?xml version="1.0" encoding="utf-8"?>
<!-- Generator: Adobe Illustrator 25.4.1, SVG Export Plug-In . SVG Version: 6.00 Build 0)  -->
<svg version="1.1" id="Layer_1" xmlns="http://www.w3.org/2000/svg" xmlns:xlink="http://www.w3.org/1999/xlink" x="0px" y="0px"
	 width="450px" height="450px" viewBox="0 0 450 450" style="enable-background:new 0 0 450 450;" xml:space="preserve">
<style type="text/css">
	.st0{fill:#FFFFFF;}
	.st1{fill:#FFFFFF;stroke:#070707;stroke-width:6;stroke-linecap:round;stroke-miterlimit:10;}
</style>
<g>
	<g>
		<g>
			<path class="st0" d="M215.6,151.5c0.1-0.1,0.2-0.1,0.3-0.1c0.5-0.1,1-0.1,1.5-0.1c0.6-0.1,1.3-0.1,1.9-0.2
				c0.7-0.1,1.5-0.2,2.2-0.3c0.2-0.1,0.5-0.1,0.8-0.1c0.1,0,0.1-0.1,0.1-0.1c-0.5-0.7-1.2-1.5-1.8-2.2c-0.3-0.4-0.7-0.7-0.9-1.1
				l-0.1-0.1c0.1-0.1,0.1,0,0.1,0.1c0.4,0.2,0.7,0.6,1,0.8c0.5,0.4,1,0.8,1.5,1.2c0.3,0.2,0.5,0.4,0.9,0.7c0.1,0.1,0.1,0.1,0.1-0.1
				c0.1-0.5,0.1-1.1,0.2-1.6c0.1-0.6,0.2-1.2,0.2-1.8c0.1-0.3,0.1-0.7,0.1-1c0.1-0.4,0.1-0.8,0.1-1.2c0-0.3,0.1-0.6,0.1-0.9
				c0-0.1,0-0.1,0.1-0.1c0.1,0.1,0.1,0.2,0.1,0.4c0.1,0.5,0.1,1,0.1,1.5c0.1,0.4,0.1,0.7,0.1,1c0.1,0.4,0.1,0.7,0.1,1
				c0.1,0.5,0.1,1,0.2,1.5c0.1,0.4,0.1,0.8,0.2,1.2c0,0.1,0.1,0.1,0.1,0.1c0.7-0.5,1.4-1.1,2.1-1.6c0.4-0.4,0.7-0.7,1.2-1l0.1-0.1
				c0.1,0.1,0,0.1-0.1,0.1c-0.2,0.4-0.6,0.7-0.8,1c-0.4,0.5-0.8,1-1.2,1.5c-0.2,0.3-0.4,0.6-0.7,0.9c-0.1,0.1-0.1,0.1,0.1,0.1
				c0.6,0.1,1.1,0.1,1.6,0.2c0.6,0.1,1.2,0.2,1.8,0.2c0.3,0.1,0.7,0.1,1,0.1c0.4,0.1,0.8,0.1,1.2,0.1c0.3,0,0.6,0.1,0.9,0.1
				c0.1,0,0.1,0,0.1,0.1c-0.1,0.1-0.2,0.1-0.4,0.1c-0.5,0.1-1,0.1-1.5,0.1c-0.4,0.1-0.7,0.1-1,0.1c-0.4,0.1-0.7,0.1-1,0.1
				c-0.5,0.1-1,0.1-1.5,0.2c-0.4,0.1-0.8,0.1-1.2,0.2c-0.1,0-0.1,0.1-0.1,0.1c0.5,0.7,1.1,1.4,1.6,2.1c0.4,0.4,0.7,0.7,1,1.2
				l0.1,0.1c-0.1,0.1-0.1,0-0.1-0.1c-0.4-0.2-0.7-0.6-1-0.8c-0.5-0.4-1-0.8-1.5-1.2c-0.3-0.2-0.5-0.4-0.9-0.7
				c-0.1-0.1-0.1-0.1-0.1,0.1c-0.1,0.5-0.1,1.1-0.2,1.6c-0.1,0.6-0.2,1.2-0.2,1.8c-0.1,0.3-0.1,0.7-0.1,1c-0.1,0.4-0.1,0.8-0.1,1.2
				c0,0.3-0.1,0.6-0.1,0.9c0,0.1,0,0.1-0.1,0.1c-0.1-0.1-0.1-0.2-0.1-0.4c-0.1-0.5-0.1-1-0.1-1.5c-0.1-0.4-0.1-0.7-0.1-1
				c-0.1-0.4-0.1-0.7-0.1-1c-0.1-0.5-0.1-1-0.2-1.5c-0.1-0.4-0.1-0.8-0.2-1.2c0-0.1-0.1-0.1-0.1-0.1c-0.7,0.5-1.4,1.1-2.1,1.6
				c-0.4,0.4-0.7,0.7-1.2,1l-0.1,0.1c-0.1-0.1,0-0.1,0.1-0.1c0.2-0.4,0.6-0.7,0.8-1c0.4-0.5,0.8-1,1.2-1.5c0.2-0.3,0.4-0.6,0.7-0.9
				c0.1-0.1,0.1-0.1-0.1-0.1c-0.6-0.1-1.1-0.1-1.6-0.2c-0.6-0.1-1.2-0.2-1.8-0.2c-0.3-0.1-0.7-0.1-1-0.1c-0.4-0.1-0.8-0.1-1.2-0.1
				c-0.3,0-0.6-0.1-0.9-0.1C215.6,151.5,215.6,151.5,215.6,151.5z"/>
		</g>
	</g>
	<g>
		<g>
			<path class="st0" d="M169.1,175.3c0,0.1-0.1,0.1-0.1,0.2c-0.1,0.3-0.2,0.6-0.3,0.9c-0.1,0.4-0.3,0.8-0.4,1.2
				c-0.1,0.5-0.2,1-0.4,1.4c-0.1,0.2-0.1,0.3-0.1,0.5c0,0.1,0,0.1,0.1,0.1c0.6-0.1,1.2-0.3,1.8-0.5c0.3-0.1,0.6-0.2,0.9-0.3
				c0,0,0.1-0.1,0.1,0s0,0.1-0.1,0.1c-0.2,0.1-0.5,0.2-0.7,0.4c-0.4,0.2-0.7,0.4-1.2,0.6c-0.2,0.1-0.4,0.2-0.6,0.4
				c-0.1,0.1-0.1,0.1,0,0.1c0.3,0.2,0.6,0.4,0.9,0.5c0.4,0.2,0.7,0.4,1,0.6c0.2,0.1,0.4,0.2,0.5,0.3c0.2,0.1,0.5,0.2,0.7,0.4
				c0.2,0.1,0.4,0.2,0.5,0.3c0,0,0.1,0,0.1,0.1c-0.1,0-0.2-0.1-0.2-0.1c-0.3-0.1-0.7-0.2-1-0.3c-0.2-0.1-0.4-0.2-0.7-0.2
				s-0.5-0.1-0.7-0.2c-0.3-0.1-0.6-0.2-1-0.2c-0.2-0.1-0.5-0.1-0.8-0.2c-0.1,0-0.1,0-0.1,0.1c0.1,0.6,0.3,1.2,0.5,1.8
				c0.1,0.3,0.2,0.7,0.3,1c0,0,0.1,0.1,0,0.1s-0.1,0-0.1-0.1c-0.1-0.2-0.2-0.5-0.4-0.7c-0.2-0.4-0.4-0.7-0.6-1.2
				c-0.1-0.2-0.2-0.4-0.4-0.6c-0.1-0.1-0.1-0.1-0.1,0c-0.2,0.3-0.4,0.6-0.5,0.9c-0.2,0.4-0.4,0.7-0.6,1c-0.1,0.2-0.2,0.4-0.3,0.6
				c-0.1,0.2-0.2,0.5-0.4,0.7c-0.1,0.2-0.2,0.4-0.3,0.5c0,0,0,0.1-0.1,0.1c0-0.1,0.1-0.2,0.1-0.2c0.1-0.3,0.2-0.7,0.3-1
				c0.1-0.2,0.2-0.4,0.2-0.7s0.1-0.5,0.2-0.7c0.1-0.3,0.2-0.6,0.2-1c0.1-0.2,0.1-0.5,0.2-0.8c0-0.1,0-0.1-0.1-0.1
				c-0.6,0.1-1.2,0.3-1.8,0.5c-0.3,0.1-0.7,0.2-1,0.3c0,0-0.1,0.1-0.1,0s0-0.1,0.1-0.1c0.2-0.1,0.5-0.2,0.7-0.4
				c0.4-0.2,0.7-0.4,1.2-0.6c0.2-0.1,0.4-0.2,0.6-0.4c0.1-0.1,0.1-0.1,0-0.1c-0.3-0.2-0.6-0.4-0.9-0.5c-0.4-0.2-0.7-0.4-1-0.6
				c-0.2-0.1-0.4-0.2-0.6-0.3c-0.2-0.1-0.5-0.2-0.7-0.4c-0.2-0.1-0.4-0.2-0.5-0.3c0,0-0.1,0-0.1-0.1c0.1,0,0.2,0.1,0.2,0.1
				c0.3,0.1,0.7,0.2,1,0.3c0.2,0.1,0.4,0.2,0.7,0.2c0.2,0.1,0.5,0.1,0.7,0.2c0.3,0.1,0.6,0.2,1,0.2c0.2,0.1,0.5,0.1,0.8,0.2
				c0.1,0,0.1,0,0.1-0.1c-0.1-0.6-0.3-1.2-0.5-1.8c-0.1-0.3-0.2-0.7-0.3-1c0,0-0.1-0.1,0-0.1s0.1,0,0.1,0.1c0.1,0.2,0.2,0.5,0.4,0.7
				c0.2,0.4,0.4,0.7,0.6,1.2c0.1,0.2,0.2,0.4,0.4,0.6c0.1,0.1,0.1,0.1,0.1,0c0.2-0.3,0.4-0.6,0.5-0.9c0.2-0.4,0.4-0.7,0.6-1
				c0.1-0.2,0.2-0.4,0.3-0.5c0.1-0.2,0.2-0.5,0.4-0.7C168.8,175.6,168.9,175.4,169.1,175.3C169,175.3,169,175.3,169.1,175.3z"/>
		</g>
	</g>
	<g>
		<g>
			<path class="st0" d="M279,175.3c0,0.1,0.1,0.1,0.1,0.2c0.1,0.3,0.2,0.6,0.3,0.9c0.1,0.4,0.3,0.8,0.4,1.2c0.1,0.5,0.2,1,0.4,1.4
				c0.1,0.2,0.1,0.3,0.1,0.5c0,0.1,0,0.1-0.1,0.1c-0.6-0.1-1.2-0.3-1.8-0.5c-0.3-0.1-0.6-0.2-0.9-0.3c0,0-0.1-0.1-0.1,0
				s0,0.1,0.1,0.1c0.2,0.1,0.5,0.2,0.7,0.4c0.4,0.2,0.7,0.4,1.2,0.6c0.2,0.1,0.4,0.2,0.6,0.4c0.1,0.1,0.1,0.1,0,0.1
				c-0.3,0.2-0.6,0.4-0.9,0.5c-0.4,0.2-0.7,0.4-1,0.6c-0.2,0.1-0.4,0.2-0.6,0.3c-0.2,0.1-0.5,0.2-0.7,0.4c-0.2,0.1-0.4,0.2-0.5,0.3
				c0,0-0.1,0-0.1,0.1c0.1,0,0.2-0.1,0.2-0.1c0.3-0.1,0.7-0.2,1-0.3c0.2-0.1,0.4-0.2,0.7-0.2c0.2-0.1,0.5-0.1,0.7-0.2
				c0.3-0.1,0.6-0.2,1-0.2c0.2-0.1,0.5-0.1,0.8-0.2c0.1,0,0.1,0,0.1,0.1c-0.1,0.6-0.3,1.2-0.5,1.8c-0.1,0.3-0.2,0.7-0.3,1
				c0,0-0.1,0.1,0,0.1s0.1,0,0.1-0.1c0.1-0.2,0.2-0.5,0.4-0.7c0.2-0.4,0.4-0.7,0.6-1.2c0.1-0.2,0.2-0.4,0.4-0.6
				c0.1-0.1,0.1-0.1,0.1,0c0.2,0.3,0.4,0.6,0.5,0.9c0.2,0.4,0.4,0.7,0.6,1c0.1,0.2,0.2,0.4,0.3,0.6s0.2,0.5,0.4,0.7
				c0.1,0.2,0.2,0.4,0.3,0.5c0,0,0,0.1,0.1,0.1c0-0.1-0.1-0.2-0.1-0.2c-0.1-0.3-0.2-0.7-0.3-1c-0.1-0.2-0.2-0.4-0.2-0.7
				c-0.1-0.2-0.1-0.5-0.2-0.7c-0.1-0.3-0.2-0.6-0.2-1c-0.1-0.2-0.1-0.5-0.2-0.8c0-0.1,0-0.1,0.1-0.1c0.6,0.1,1.2,0.3,1.8,0.5
				c0.3,0.1,0.7,0.2,1,0.3c0,0,0.1,0.1,0.1,0s0-0.1-0.1-0.1c-0.2-0.1-0.5-0.2-0.7-0.4c-0.4-0.2-0.7-0.4-1.2-0.6
				c-0.2-0.1-0.4-0.2-0.6-0.4c-0.1-0.1-0.1-0.1,0-0.1c0.3-0.2,0.6-0.4,0.9-0.5c0.4-0.2,0.7-0.4,1-0.6c0.2-0.1,0.4-0.2,0.6-0.3
				c0.2-0.1,0.5-0.2,0.7-0.4c0.2-0.1,0.4-0.2,0.5-0.3c0,0,0.1,0,0.1-0.1c-0.1,0-0.2,0.1-0.2,0.1c-0.3,0.1-0.7,0.2-1,0.3
				c-0.2,0.1-0.4,0.2-0.7,0.2c-0.2,0.1-0.5,0.1-0.7,0.2c-0.3,0.1-0.6,0.2-1,0.2c-0.2,0.1-0.5,0.1-0.8,0.2c-0.1,0-0.1,0-0.1-0.1
				c0.1-0.6,0.3-1.2,0.5-1.8c0.1-0.3,0.2-0.7,0.3-1c0,0,0.1-0.1,0-0.1s-0.1,0-0.1,0.1c-0.1,0.2-0.2,0.5-0.4,0.7
				c-0.2,0.4-0.4,0.7-0.6,1.2c-0.1,0.2-0.2,0.4-0.4,0.6c-0.1,0.1-0.1,0.1-0.1,0c-0.2-0.3-0.4-0.6-0.5-0.9c-0.2-0.4-0.4-0.7-0.6-1
				c-0.1-0.2-0.2-0.4-0.3-0.5c-0.1-0.2-0.2-0.5-0.4-0.7C279.2,175.6,279.2,175.4,279,175.3C279.1,175.3,279.1,175.3,279,175.3z"/>
		</g>
	</g>
	<g>
		<path class="st0" d="M256.3,142.6c0,0.1,0,0.1,0,0.1c0,0.1,0,0.1,0,0.2s0,0.1,0,0.1c0,0.1,0,0.1,0,0.2c0,0.2,0.1,0.4,0.1,0.5
			s0.1,0.2,0.1,0.2c0.1,0.2,0.1,0.3,0.2,0.4s0.3,0.2,0.4,0.4c0.1,0.1,0.2,0.1,0.3,0.1c0.1,0.1,0.3,0.1,0.4,0.1
			c0.1,0,0.2,0.1,0.2,0.1c0.1,0,0.1,0,0.1,0c0.1,0,0.1,0,0.1,0h0.1h0.1l0,0l0,0c-0.1,0-0.1,0-0.2,0s-0.1,0-0.2,0s-0.1,0-0.1,0
			c-0.1,0-0.2,0-0.2,0.1c-0.2,0-0.3,0.1-0.5,0.1c-0.2,0.1-0.4,0.1-0.6,0.3c-0.1,0.1-0.2,0.2-0.3,0.3c-0.1,0.1-0.2,0.3-0.2,0.5
			c-0.1,0.2-0.1,0.3-0.1,0.5c0,0.1,0,0.2-0.1,0.2c0,0.1,0,0.1,0,0.2s0,0.1,0,0.2s0,0.1,0,0.1l0,0l0,0c0-0.1,0-0.2,0-0.3s0-0.1,0-0.1
			c0-0.1,0-0.2-0.1-0.2c0-0.2-0.1-0.3-0.1-0.5c-0.1-0.2-0.1-0.4-0.3-0.6c-0.1-0.1-0.2-0.2-0.3-0.3c-0.1-0.1-0.3-0.2-0.5-0.2
			c-0.2-0.1-0.3-0.1-0.5-0.1c-0.1,0-0.2,0-0.2-0.1c-0.1,0-0.1,0-0.1,0h-0.1c-0.1,0-0.1,0-0.1,0h-0.1l0,0l0,0c0.1,0,0.1,0,0.1,0
			c0.1,0,0.1,0,0.2,0s0.1,0,0.1,0s0.1,0,0.2,0c0.2,0,0.4-0.1,0.6-0.1c0.1,0,0.1-0.1,0.2-0.1c0.2-0.1,0.3-0.1,0.4-0.2
			c0.1-0.1,0.2-0.2,0.3-0.4c0.1-0.1,0.2-0.3,0.2-0.5c0.1-0.1,0.1-0.3,0.1-0.4s0-0.2,0.1-0.2c0-0.1,0-0.1,0-0.1c0-0.1,0-0.1,0-0.1
			c0-0.1,0-0.1,0-0.1C256.3,142.7,256.3,142.7,256.3,142.6L256.3,142.6z"/>
	</g>
	<g>
		<path class="st0" d="M289.8,200.8C289.7,200.9,289.7,200.9,289.8,200.8c-0.2,0.2-0.2,0.2-0.2,0.3c0,0.1-0.1,0.1-0.1,0.1
			c-0.1,0.1-0.1,0.1-0.1,0.2c-0.1,0.2-0.2,0.4-0.3,0.5s-0.1,0.2-0.1,0.2c-0.1,0.2-0.1,0.4-0.1,0.5c0,0.2,0.1,0.4,0.1,0.6
			c0.1,0.1,0.1,0.2,0.2,0.3c0.1,0.1,0.2,0.2,0.3,0.4c0.1,0.1,0.1,0.1,0.2,0.2s0.1,0.1,0.1,0.1c0.1,0.1,0.1,0.1,0.1,0.1
			c0.1,0.1,0.1,0.1,0.1,0.1l0.1,0.1l0,0l0,0c-0.1-0.1-0.1-0.1-0.2-0.1c-0.1-0.1-0.1-0.1-0.1-0.1c-0.1,0-0.1-0.1-0.1-0.1
			c-0.1-0.1-0.1-0.1-0.2-0.1c-0.2-0.1-0.3-0.2-0.5-0.2c-0.2-0.1-0.5-0.2-0.7-0.2s-0.3,0-0.5,0.1s-0.4,0.1-0.5,0.2
			c-0.1,0.1-0.3,0.2-0.4,0.3c-0.1,0.1-0.1,0.1-0.2,0.2s-0.1,0.1-0.1,0.1c-0.1,0.1-0.1,0.1-0.2,0.2l-0.1,0.1l0,0l0,0
			c0.1-0.1,0.1-0.2,0.2-0.3c0-0.1,0.1-0.1,0.1-0.1c0.1-0.1,0.1-0.1,0.1-0.2c0.1-0.2,0.2-0.3,0.2-0.5c0.1-0.2,0.2-0.5,0.2-0.7
			s0-0.3-0.1-0.5s-0.1-0.4-0.2-0.5c-0.1-0.1-0.2-0.3-0.3-0.4c-0.1-0.1-0.1-0.1-0.2-0.2l-0.1-0.1c-0.1-0.1-0.1-0.1-0.1-0.1
			c-0.1-0.1-0.1-0.1-0.1-0.1l-0.1-0.1l0,0l0,0c0.1,0.1,0.1,0.1,0.1,0.1c0.1,0.1,0.1,0.1,0.2,0.1c0.1,0,0.1,0.1,0.1,0.1
			c0.1,0.1,0.1,0.1,0.2,0.1c0.2,0.1,0.4,0.2,0.5,0.3s0.1,0.1,0.2,0.1c0.2,0.1,0.4,0.1,0.5,0.1s0.3,0,0.5-0.1s0.4-0.1,0.5-0.2
			c0.1-0.1,0.2-0.2,0.4-0.3c0.1-0.1,0.1-0.1,0.2-0.2l0.1-0.1c0.1-0.1,0.1-0.1,0.1-0.1l0.1-0.1C289.7,200.8,289.7,200.8,289.8,200.8
			L289.8,200.8z"/>
	</g>
	<g>
		<path class="st0" d="M179.2,148.3c0,0.1-0.1,0.1-0.1,0.1c0,0.1-0.1,0.1-0.1,0.1l-0.1,0.1c-0.1,0.1-0.1,0.1-0.1,0.1
			c-0.1,0.1-0.1,0.2-0.2,0.4c-0.1,0.1-0.1,0.1-0.1,0.2c-0.1,0.1-0.1,0.2-0.1,0.4c0,0.2,0.1,0.3,0.1,0.4c0.1,0.1,0.1,0.2,0.1,0.2
			c0.1,0.1,0.1,0.2,0.2,0.3c0.1,0.1,0.1,0.1,0.1,0.2l0.1,0.1l0.1,0.1l0.1,0.1c0,0,0,0.1,0.1,0.1l0,0l0,0c-0.1-0.1-0.1-0.1-0.1-0.1
			c-0.1,0-0.1-0.1-0.1-0.1l-0.1-0.1c-0.1-0.1-0.1-0.1-0.2-0.1c-0.1-0.1-0.2-0.1-0.4-0.2c-0.2-0.1-0.4-0.1-0.6-0.1
			c-0.1,0-0.2,0-0.4,0.1c-0.1,0.1-0.2,0.1-0.4,0.2c-0.1,0.1-0.2,0.2-0.3,0.2c-0.1,0.1-0.1,0.1-0.1,0.1l-0.1,0.1
			c-0.1,0.1-0.1,0.1-0.1,0.1l-0.1,0.1l0,0l0,0c0.1-0.1,0.1-0.1,0.1-0.2s0.1-0.1,0.1-0.1c0.1-0.1,0.1-0.1,0.1-0.2
			c0.1-0.1,0.1-0.2,0.2-0.4c0.1-0.2,0.1-0.4,0.1-0.5s0-0.2-0.1-0.4c-0.1-0.1-0.1-0.2-0.2-0.4c-0.1-0.1-0.2-0.2-0.2-0.3
			c-0.1-0.1-0.1-0.1-0.1-0.1l-0.1-0.1l-0.1-0.1l-0.1-0.1l-0.1-0.1l0,0l0,0c0.1,0,0.1,0.1,0.1,0.1c0.1,0,0.1,0.1,0.1,0.1l0.1,0.1
			c0.1,0.1,0.1,0.1,0.1,0.1c0.1,0.1,0.2,0.1,0.4,0.2c0.1,0,0.1,0.1,0.1,0.1c0.1,0.1,0.2,0.1,0.4,0.1s0.2,0,0.4-0.1
			c0.1-0.1,0.2-0.1,0.4-0.2s0.2-0.1,0.3-0.2c0.1-0.1,0.1-0.1,0.2-0.1l0.1-0.1l0.1-0.1l0.1-0.1C179.1,148.4,179.2,148.3,179.2,148.3
			L179.2,148.3z"/>
	</g>
	<g>
		<path class="st0" d="M211.1,139.8c-0.1,0-0.1,0-0.1,0.1c-0.1,0-0.1,0.1-0.2,0.1s-0.1,0-0.1,0.1c-0.1,0-0.1,0.1-0.2,0.1
			c-0.2,0.1-0.3,0.1-0.5,0.2c-0.1,0.1-0.1,0.1-0.2,0.1c-0.1,0.1-0.2,0.2-0.4,0.3s-0.2,0.3-0.2,0.5c0,0.1-0.1,0.2-0.1,0.3
			c0,0.1,0,0.3,0,0.4s0,0.2,0,0.2c0,0.1,0,0.1,0,0.1c0,0.1,0,0.1,0,0.1c0,0.1,0,0.1,0,0.1v0.1l0,0l0,0c0-0.1-0.1-0.1-0.1-0.2
			s-0.1-0.1-0.1-0.1c0-0.1,0-0.1-0.1-0.1c0-0.1-0.1-0.1-0.1-0.2c-0.1-0.1-0.1-0.3-0.2-0.4c-0.1-0.2-0.2-0.4-0.4-0.6
			c-0.1-0.1-0.2-0.2-0.4-0.2c-0.2-0.1-0.3-0.1-0.5-0.1s-0.3,0-0.5,0c-0.1,0-0.2,0-0.2,0h-0.1c-0.1,0-0.1,0-0.2,0h-0.1l0,0l0,0
			c0.1,0,0.2-0.1,0.3-0.1s0.1,0,0.1-0.1c0.1,0,0.1-0.1,0.2-0.1c0.1-0.1,0.3-0.1,0.4-0.2c0.2-0.1,0.4-0.2,0.6-0.4
			c0.1-0.1,0.2-0.2,0.2-0.4c0.1-0.2,0.1-0.3,0.1-0.5s0-0.3,0-0.5c0-0.1,0-0.2,0-0.2v-0.1c0-0.1,0-0.1,0-0.1c0-0.1,0-0.1,0-0.1v-0.1
			l0,0l0,0c0,0.1,0,0.1,0.1,0.1c0,0.1,0.1,0.1,0.1,0.2s0,0.1,0.1,0.1c0,0.1,0.1,0.1,0.1,0.2c0.1,0.2,0.1,0.3,0.2,0.5
			c0,0.1,0.1,0.1,0.1,0.2c0.1,0.1,0.2,0.2,0.3,0.4c0.1,0.1,0.2,0.2,0.4,0.2c0.2,0.1,0.3,0.1,0.5,0.1c0.1,0,0.3,0,0.4,0
			c0.1,0,0.2,0,0.2,0c0.1,0,0.1,0,0.1,0h0.1c0.1,0,0.1,0,0.1,0C211,139.8,211,139.8,211.1,139.8L211.1,139.8z"/>
	</g>
	<g>
		<path class="st0" d="M251.9,177c-0.1,0-0.1,0-0.1,0.1c-0.1,0-0.1,0-0.1,0.1h-0.1c-0.1,0-0.1,0.1-0.2,0.1c-0.1,0.1-0.2,0.1-0.4,0.2
			c-0.1,0-0.1,0.1-0.2,0.1c-0.1,0.1-0.2,0.2-0.3,0.2c-0.1,0.1-0.1,0.2-0.2,0.4c0,0.1-0.1,0.2-0.1,0.2c0,0.1,0,0.2,0,0.4
			c0,0.1,0,0.1,0,0.2s0,0.1,0,0.1c0,0.1,0,0.1,0,0.1c0,0.1,0,0.1,0,0.1v0.1l0,0l0,0c0-0.1,0-0.1-0.1-0.1c0-0.1,0-0.1-0.1-0.1v-0.1
			c0-0.1-0.1-0.1-0.1-0.2c-0.1-0.1-0.1-0.2-0.2-0.4c-0.1-0.2-0.2-0.3-0.3-0.4s-0.2-0.1-0.3-0.2s-0.2-0.1-0.4-0.1c-0.1,0-0.2,0-0.4,0
			c-0.1,0-0.1,0-0.2,0s-0.1,0-0.1,0c-0.1,0-0.1,0-0.2,0h0.2l0,0l0,0c0.1,0,0.2-0.1,0.2-0.1c0.1,0,0.1,0,0.1-0.1
			c0.1,0,0.1-0.1,0.2-0.1c0.1-0.1,0.2-0.1,0.4-0.2s0.3-0.2,0.4-0.3c0.1-0.1,0.1-0.2,0.2-0.3c0.1-0.1,0.1-0.2,0.1-0.4
			c0-0.1,0-0.2,0-0.4c0-0.1,0-0.1,0-0.2v-0.1c0-0.1,0-0.1,0-0.1c0-0.1,0-0.1,0-0.1v-0.1l0,0l0,0c0,0.1,0,0.1,0.1,0.1
			c0,0.1,0,0.1,0.1,0.1v0.1c0,0.1,0.1,0.1,0.1,0.2c0.1,0.1,0.1,0.2,0.2,0.4c0,0.1,0.1,0.1,0.1,0.1c0.1,0.1,0.2,0.2,0.2,0.3
			c0.1,0.1,0.2,0.1,0.3,0.2s0.2,0.1,0.4,0.1c0.1,0,0.2,0,0.4,0c0.1,0,0.1,0,0.2,0h0.1C251.9,176.9,251.9,176.9,251.9,177L251.9,177
			C251.7,177.1,251.8,177,251.9,177L251.9,177z"/>
	</g>
	<g>
		<path class="st0" d="M142.3,195.3c-0.1,0-0.1,0-0.1,0.1c-0.1,0-0.1,0-0.1,0.1H142c-0.1,0-0.1,0.1-0.2,0.1
			c-0.1,0.1-0.2,0.1-0.4,0.2c-0.1,0-0.1,0.1-0.2,0.1c-0.1,0.1-0.2,0.2-0.3,0.2c-0.1,0.1-0.1,0.2-0.2,0.4c0,0.1-0.1,0.2-0.1,0.3
			c0,0.1,0,0.2,0,0.4c0,0.1,0,0.1,0,0.2s0,0.1,0,0.1c0,0.1,0,0.1,0,0.1v0.1v0.1l0,0l0,0c0-0.1,0-0.1-0.1-0.1c0-0.1,0-0.1-0.1-0.1
			v-0.1c0-0.1-0.1-0.1-0.1-0.2c-0.1-0.1-0.1-0.2-0.2-0.4c-0.1-0.2-0.2-0.3-0.4-0.4c-0.1-0.1-0.2-0.1-0.3-0.2
			c-0.1-0.1-0.2-0.1-0.4-0.1c-0.1,0-0.2,0-0.4,0c-0.1,0-0.1,0-0.2,0s-0.1,0-0.1,0c-0.1,0-0.1,0-0.2,0H138l0,0l0,0
			c0.1,0,0.2-0.1,0.2-0.1c0.1,0,0.1,0,0.1-0.1c0.1,0,0.1-0.1,0.2-0.1c0.1-0.1,0.2-0.1,0.4-0.2c0.2-0.1,0.3-0.2,0.4-0.4
			c0.1-0.1,0.1-0.2,0.2-0.3c0.1-0.1,0.1-0.2,0.1-0.4c0-0.1,0-0.2,0-0.4c0-0.1,0-0.1,0-0.2v-0.1c0-0.1,0-0.1,0-0.1c0-0.1,0-0.1,0-0.1
			v-0.1l0,0l0,0c0,0.1,0,0.1,0.1,0.1c0,0.1,0,0.1,0.1,0.1v0.1c0,0.1,0.1,0.1,0.1,0.2c0.1,0.1,0.1,0.2,0.2,0.4c0,0.1,0.1,0.1,0.1,0.1
			c0.1,0.1,0.2,0.2,0.2,0.3c0.1,0.1,0.2,0.1,0.3,0.2c0.1,0.1,0.2,0.1,0.4,0.1c0.1,0,0.2,0,0.4,0c0.1,0,0.1,0,0.2,0h0.1
			c0.1,0,0.1,0,0.1,0h0.1C142.2,195.3,142.2,195.3,142.3,195.3L142.3,195.3z"/>
	</g>
	<g>
		<path class="st0" d="M205.4,176c-0.1,0-0.1,0-0.1-0.1c-0.1,0-0.1,0-0.2-0.1c-0.1,0-0.1,0-0.1,0c-0.1,0-0.1,0-0.2-0.1
			c-0.2,0-0.3-0.1-0.5-0.1c-0.1,0-0.1,0-0.2,0c-0.1,0-0.3,0.1-0.4,0.1c-0.2,0.1-0.3,0.2-0.4,0.3c-0.1,0.1-0.1,0.2-0.2,0.2
			c-0.1,0.1-0.1,0.2-0.2,0.4c-0.1,0.1-0.1,0.1-0.1,0.2s-0.1,0.1-0.1,0.1c0,0.1-0.1,0.1-0.1,0.1c0,0.1-0.1,0.1-0.1,0.1v0.1l0,0l0,0
			c0-0.1,0-0.1,0.1-0.2c0-0.1,0-0.1,0.1-0.1c0-0.1,0-0.1,0-0.1c0-0.1,0-0.1,0.1-0.2c0-0.1,0.1-0.3,0.1-0.4c0-0.2,0-0.4-0.1-0.6
			c-0.1-0.1-0.1-0.2-0.2-0.4c-0.1-0.1-0.2-0.2-0.4-0.3c-0.1-0.1-0.2-0.1-0.4-0.2c-0.1-0.1-0.1-0.1-0.2-0.1c-0.1,0-0.1-0.1-0.1-0.1
			s-0.1-0.1-0.2-0.1h-0.1l0,0l0,0c0.1,0,0.2,0.1,0.3,0.1s0.1,0,0.1,0s0.1,0,0.2,0.1c0.1,0,0.3,0.1,0.4,0.1c0.2,0,0.4,0,0.6-0.1
			c0.1-0.1,0.2-0.1,0.4-0.2c0.1-0.1,0.2-0.2,0.3-0.4c0.1-0.1,0.1-0.2,0.2-0.4c0.1-0.1,0.1-0.1,0.1-0.2s0-0.1,0.1-0.1
			c0-0.1,0.1-0.1,0.1-0.1c0-0.1,0.1-0.1,0.1-0.1V173l0,0l0,0c0,0.1,0,0.1-0.1,0.1c0,0.1,0,0.1-0.1,0.2c0,0.1,0,0.1,0,0.1
			c0,0.1,0,0.1-0.1,0.2c0,0.2-0.1,0.3-0.1,0.5c0,0.1,0,0.1,0,0.2s0.1,0.3,0.1,0.4c0.1,0.1,0.1,0.2,0.2,0.4c0.1,0.1,0.2,0.2,0.4,0.3
			c0.1,0.1,0.2,0.1,0.4,0.2c0.1,0.1,0.1,0.1,0.2,0.1c0,0,0.1,0,0.1,0.1c0.1,0,0.1,0.1,0.1,0.1C205.4,175.9,205.4,175.9,205.4,176
			C205.3,176,205.4,176,205.4,176L205.4,176z"/>
	</g>
	<g>
		<path class="st0" d="M283.4,163.5c-0.1,0-0.1,0-0.1,0.1c-0.1,0-0.1,0.1-0.2,0.1s-0.1,0-0.1,0c-0.1,0-0.1,0.1-0.2,0.1
			c-0.1,0.1-0.3,0.1-0.4,0.2c-0.1,0-0.1,0.1-0.2,0.1c-0.1,0.1-0.2,0.2-0.3,0.3c-0.1,0.1-0.2,0.3-0.2,0.5c0,0.1-0.1,0.2-0.1,0.3
			c0,0.1,0,0.2,0,0.4c0,0.1,0,0.1,0,0.2s0,0.1,0,0.1c0,0.1,0,0.1,0,0.1c0,0.1,0,0.1,0,0.1v0.1l0,0l0,0c0-0.1-0.1-0.1-0.1-0.2
			s-0.1-0.1-0.1-0.1c0-0.1,0-0.1,0-0.1c0-0.1-0.1-0.1-0.1-0.2c-0.1-0.1-0.1-0.2-0.2-0.4c-0.1-0.2-0.2-0.4-0.4-0.5
			c-0.1-0.1-0.2-0.1-0.4-0.2c-0.1-0.1-0.3-0.1-0.4-0.1c-0.1,0-0.3,0-0.4,0c-0.1,0-0.1,0-0.2,0c-0.1,0-0.1,0-0.1,0
			c-0.1,0-0.1,0-0.2,0h-0.1l0,0l0,0c0.1,0,0.2-0.1,0.2-0.1c0.1,0,0.1,0,0.1-0.1c0.1,0,0.1-0.1,0.2-0.1c0.1-0.1,0.2-0.1,0.4-0.2
			s0.4-0.2,0.5-0.4c0.1-0.1,0.1-0.2,0.2-0.4s0.1-0.3,0.1-0.4s0-0.3,0-0.4s0-0.1,0-0.2s0-0.1,0-0.1c0-0.1,0-0.1,0-0.1
			c0-0.1,0-0.1,0-0.1v-0.1l0,0l0,0c0,0.1,0,0.1,0.1,0.1c0,0.1,0.1,0.1,0.1,0.1c0,0.1,0,0.1,0.1,0.1c0,0.1,0.1,0.1,0.1,0.2
			c0.1,0.1,0.1,0.3,0.2,0.4c0,0.1,0.1,0.1,0.1,0.2c0.1,0.1,0.2,0.2,0.3,0.3c0.1,0.1,0.2,0.1,0.4,0.2c0.1,0.1,0.3,0.1,0.4,0.1
			c0.1,0,0.2,0,0.4,0c0.1,0,0.1,0,0.2,0h0.1c0.1,0,0.1,0,0.1,0h0.1C283.3,163.5,283.3,163.5,283.4,163.5L283.4,163.5z"/>
	</g>
	<g>
		<g>
			<path class="st0" d="M224.2,178.9L224.2,178.9L224.2,178.9C224.1,178.9,224.1,178.9,224.2,178.9
				C224.1,178.9,224.1,178.9,224.2,178.9L224.2,178.9z"/>
		</g>
		<g>
			<path class="st0" d="M224.2,178.9L224.2,178.9L224.2,178.9L224.2,178.9z"/>
		</g>
	</g>
	<g>
		<path class="st0" d="M224,125.4c-54.9,0-99.5,44.7-99.5,99.5c0,6.8,0.7,13.4,2,19.9c0.2,1.3,0.5,2.6,0.9,4
			c0.7,2.8,1.5,5.6,2.4,8.2c0.6,1.8,1.3,3.7,2,5.4c2,4.8,4.2,9.3,6.8,13.6c0.9,1.5,1.8,3,2.8,4.5c2.3,3.4,4.9,6.7,7.6,9.8
			c0.9,1,1.8,2.1,2.8,3.1c2.4,2.5,5,5,7.6,7.2c1.5,1.3,3,2.5,4.5,3.7c16.7,12.6,37.5,20.2,60,20.2s43.3-7.5,60-20.2
			c1.6-1.2,3.1-2.4,4.6-3.7c2.7-2.3,5.2-4.7,7.6-7.2c1-1,1.9-2,2.8-3.1c2.7-3.1,5.2-6.4,7.5-9.7c1-1.4,1.9-2.9,2.8-4.4
			c2.6-4.3,4.9-8.8,6.8-13.5c0.7-1.8,1.5-3.7,2.1-5.5c0.9-2.8,1.8-5.5,2.4-8.4c0.3-1.3,0.6-2.6,0.9-4c1.3-6.4,2-13.1,2-19.9
			C323.5,170,278.9,125.4,224,125.4z M224,320.4c-15.6,0-30.4-3.8-43.5-10.4c0.9,0.1,2,0.2,3.1,0.2c5.6,0,8.6-1.7,11.1-3.2
			c2.4-1.5,4.6-2.7,9.1-2.7s6.7,1.3,9.1,2.7c2.6,1.5,5.5,3.2,11.1,3.2s8.6-1.7,11.1-3.2c2.4-1.5,4.6-2.7,9.1-2.7s6.7,1.3,9.1,2.7
			c2.6,1.5,5.6,3.2,11.1,3.2c1,0,1.9-0.1,2.8-0.1C254.4,316.6,239.6,320.4,224,320.4z M282.5,300.3c-4.1,0.4-6.5,1.8-8.7,3.1
			c-2.4,1.5-4.6,2.7-9.1,2.7s-6.7-1.2-9.1-2.7c-2.6-1.5-5.5-3.2-11.1-3.2s-8.6,1.7-11.1,3.2c-2.4,1.5-4.6,2.7-9.1,2.7
			s-6.7-1.2-9.1-2.7c-2.6-1.5-5.5-3.2-11.1-3.2s-8.6,1.7-11.1,3.2c-2.4,1.5-4.6,2.7-9.1,2.7s-6.7-1.2-9.1-2.7
			c-2.3-1.3-4.8-2.8-9-3.2c-3.5-2.8-6.9-5.7-10-9c2-1.1,4.2-2,7.9-2c4.5,0,6.7,1.3,9.1,2.7c2.6,1.5,5.6,3.2,11.1,3.2
			c5.6,0,8.6-1.7,11.1-3.2c2.4-1.5,4.6-2.7,9.1-2.7s6.7,1.3,9.1,2.7c2.6,1.5,5.5,3.2,11.1,3.2s8.6-1.7,11.1-3.2
			c2.4-1.5,4.6-2.7,9.1-2.7s6.7,1.3,9.1,2.7c2.6,1.5,5.6,3.2,11.1,3.2c5.6,0,8.6-1.7,11.1-3.2c2.4-1.5,4.6-2.7,9.1-2.7
			c3.7,0,5.7,0.8,7.7,1.9C289.5,294.5,286.1,297.6,282.5,300.3z M295.4,288.3c-2.4-1.4-5.3-2.9-10.5-2.9c-5.6,0-8.6,1.7-11.1,3.2
			c-2.4,1.5-4.6,2.7-9.1,2.7s-6.7-1.3-9.1-2.7c-2.6-1.5-5.5-3.2-11.1-3.2s-8.6,1.7-11.1,3.2c-2.4,1.5-4.6,2.7-9.1,2.7
			s-6.7-1.3-9.1-2.7c-2.6-1.5-5.5-3.2-11.1-3.2s-8.6,1.7-11.1,3.2c-2.4,1.5-4.6,2.7-9.1,2.7s-6.7-1.3-9.1-2.7
			c-2.6-1.5-5.5-3.2-11.1-3.2c-5.3,0-8.2,1.5-10.7,3c-2.3-2.6-4.5-5.3-6.5-8.1c3.7-0.5,5.9-1.8,8-3.1c2.4-1.5,4.6-2.7,9.1-2.7
			s6.7,1.2,9.1,2.7c2.6,1.5,5.6,3.2,11.1,3.2c5.6,0,8.6-1.7,11.1-3.2c2.4-1.5,4.6-2.7,9.1-2.7s6.7,1.2,9.1,2.7
			c2.6,1.5,5.5,3.2,11.1,3.2s8.6-1.7,11.1-3.2c2.4-1.5,4.6-2.7,9.1-2.7s6.7,1.2,9.1,2.7c2.6,1.5,5.6,3.2,11.1,3.2
			c5.6,0,8.6-1.7,11.1-3.2c2.4-1.5,4.6-2.7,9.1-2.7s6.7,1.2,9.1,2.7c2,1.2,4.2,2.5,7.8,3C299.8,283,297.7,285.7,295.4,288.3z
			 M304.4,276.5c-4-0.1-6-1.3-8.3-2.7c-2.6-1.5-5.5-3.2-11.1-3.2s-8.6,1.7-11.1,3.2c-2.4,1.5-4.6,2.7-9.1,2.7s-6.7-1.3-9.1-2.7
			c-2.6-1.5-5.5-3.2-11.1-3.2s-8.6,1.7-11.1,3.2c-2.4,1.5-4.6,2.7-9.1,2.7s-6.7-1.3-9.1-2.7c-2.6-1.5-5.5-3.2-11.1-3.2
			s-8.6,1.7-11.1,3.2c-2.4,1.5-4.6,2.7-9.1,2.7s-6.7-1.3-9.1-2.7c-2.6-1.5-5.5-3.2-11.1-3.2s-8.6,1.7-11.1,3.2
			c-2.4,1.4-4.4,2.6-8.6,2.7c-2.4-3.7-4.5-7.6-6.4-11.6c1.6,0.5,3.5,0.8,5.8,0.8c5.6,0,8.6-1.7,11.1-3.2c2.4-1.5,4.6-2.7,9.1-2.7
			s6.7,1.2,9.1,2.7c2.6,1.5,5.6,3.2,11.1,3.2c5.6,0,8.6-1.7,11.1-3.2c2.4-1.5,4.6-2.7,9.1-2.7s6.7,1.2,9.1,2.7
			c2.6,1.5,5.5,3.2,11.1,3.2s8.6-1.7,11.1-3.2c2.4-1.5,4.6-2.7,9.1-2.7s6.7,1.2,9.1,2.7c2.6,1.5,5.6,3.2,11.1,3.2
			c5.6,0,8.6-1.7,11.1-3.2c2.4-1.5,4.6-2.7,9.1-2.7s6.7,1.2,9.1,2.7c2.6,1.5,5.6,3.2,11.1,3.2c2.2,0,4-0.2,5.5-0.7
			C308.9,269,306.7,272.8,304.4,276.5z M312.9,259.8c-2,1.1-4.1,1.9-7.8,1.9c-4.5,0-6.7-1.3-9.1-2.7c-2.6-1.5-5.5-3.2-11.1-3.2
			s-8.6,1.7-11.1,3.2c-2.4,1.5-4.6,2.7-9.1,2.7s-6.7-1.3-9.1-2.7c-2.6-1.5-5.5-3.2-11.1-3.2s-8.6,1.7-11.1,3.2
			c-2.4,1.5-4.6,2.7-9.1,2.7s-6.7-1.3-9.1-2.7c-2.6-1.5-5.5-3.2-11.1-3.2s-8.6,1.7-11.1,3.2c-2.4,1.5-4.6,2.7-9.1,2.7
			s-6.7-1.3-9.1-2.7c-2.6-1.5-5.5-3.2-11.1-3.2s-8.6,1.7-11.1,3.2c-2.4,1.5-4.6,2.7-9.1,2.7c-3.8,0-6-0.9-8.1-2.1
			c-1.4-3.5-2.6-7.2-3.5-10.9H317C315.6,252.5,314.4,256.2,312.9,259.8z M162.5,244.7l3.6-16.8l1.9,16.8H162.5z M238.7,195.1
			l-15,14.8l-15-14.8L238.7,195.1L238.7,195.1z M210.7,191.2l13-8.1l13,8.1H210.7z M192.1,218.9l27.7-3.7l-16.4,27.3L192.1,218.9z
			 M200.1,244.7h-26.3l15.1-23.3L200.1,244.7z M223.7,216.6l16.9,28.1h-33.9L223.7,216.6z M227.5,215.2l27.7,3.7l-11.3,23.6
			L227.5,215.2z M258.5,221.4l15.1,23.3h-26.3L258.5,221.4z M261.7,219l17.2-1.3L276,241L261.7,219z M259.3,215.2l-10-16.5
			l26.5,15.3L259.3,215.2z M248.9,194l6.8-1.7l12.2,12.6L248.9,194z M254.4,214.8l-26.4-3.5l15.2-14.9L254.4,214.8z M243.9,191
			L243.9,191l-7.2-4.5l11.7,3.4L243.9,191z M203.5,191l-4.6-1.1l11.8-3.4L203.5,191z M204.2,196.4l15.2,14.9l-26.4,3.5L204.2,196.4z
			 M198.1,198.7l-10,16.5l0,0l-16.4-1.2L198.1,198.7z M179.9,204.7l11.8-12.3l6.8,1.6L179.9,204.7z M185.7,219l-14.2,22l-2.6-23.2
			L185.7,219z M279.4,244.7l2.2-17.5l3.9,17.5H279.4z M317.5,244.7h-27.9l-6.5-29.5c0-0.1,0-0.1-0.1-0.2l0,0v-0.1v-0.1
			c-0.1-0.2-0.2-0.4-0.4-0.6l0,0l-24.8-25.4l-0.1-0.1c-0.1-0.1-0.1-0.1-0.2-0.2s-0.2-0.1-0.2-0.2c-0.1,0-0.1-0.1-0.1-0.1l-0.1-0.1
			c-0.1-0.1-0.2-0.1-0.3-0.1l-32.5-9.3h-0.1c0,0,0,0-0.1,0c0,0,0,0-0.1,0l0,0h-0.1c-0.1,0-0.1,0-0.1,0c-0.1,0-0.2,0-0.2,0h-0.1
			c-0.1,0-0.2,0-0.2,0h-0.1h-0.1l0,0c0,0,0,0-0.1,0h-0.1l-32.5,9.3h-0.1c-0.1,0-0.1,0.1-0.2,0.1s-0.1,0.1-0.2,0.1s-0.1,0.1-0.1,0.1
			c-0.1,0.1-0.1,0.1-0.1,0.1l-0.1,0.1c-0.1,0.1-0.1,0.1-0.1,0.1l-0.1,0.1l-24.3,25.4l-0.1,0.1l-0.1,0.1l-0.1,0.1
			c-0.1,0.1-0.2,0.3-0.2,0.5c0,0.1-0.1,0.1-0.1,0.2v0.1l-6.4,29.5h-27.9c-1.3-6.4-2.1-13-2.1-19.9c0-52.7,42.8-95.6,95.6-95.6
			c52.7,0,95.6,42.8,95.6,95.6C319.6,231.7,318.8,238.3,317.5,244.7z"/>
	</g>
	<g>
		<g>
			<path class="st0" d="M301.5,215.8c0,0.2,0,0.4,0,0.7V215.8C301.5,215.7,301.5,215.7,301.5,215.8z"/>
		</g>
		<g>
			<path class="st0" d="M314.5,235.2c-0.1,0.7-0.7,1.1-1.3,1.1c-0.1,0-0.2,0-0.3-0.1c-0.3-0.1-5.3-1.2-8.6-4.4v13.3
				c0,0.8-0.6,1.4-1.4,1.4s-1.4-0.6-1.4-1.4v-13.3c-3.2,3.2-8.2,4.3-8.6,4.4c-0.1,0-0.2,0.1-0.3,0.1c-0.6,0-1.2-0.4-1.3-1.1
				c-0.2-0.7,0.3-1.5,1-1.7c0.1,0,2.3-0.5,4.6-1.8s4.6-3.2,4.6-6.2v-2.6c-2.3,2.3-5.4,3.2-7.5,3.5c-0.1,0-0.1,0-0.2,0
				c-0.7,0-1.3-0.6-1.4-1.2c-0.1-0.8,0.5-1.5,1.2-1.5c0.3-0.1,7.5-1,7.8-7.3l0,0c0-0.2,0-0.4,0-0.7c0-0.1,0-0.1,0-0.1v-1.2
				c-2.3,2.6-5,3.1-5.1,3.1c-0.7,0.1-1.5-0.4-1.6-1.2c-0.1-0.7,0.4-1.5,1.2-1.6c0.2-0.1,5.5-1,5.5-8.8v0.1c0-0.8,0.6-1.4,1.4-1.4
				c0.4,0,0.7,0.2,1,0.4s0.4,0.6,0.4,1v0.1c0,7.8,5.3,8.8,5.5,8.8c0.7,0.1,1.3,0.9,1.2,1.6c-0.1,0.7-0.7,1.2-1.3,1.2
				c-0.1,0-0.1,0-0.2,0s-2.8-0.5-5.1-3.1v1.1c0,0.1,0,0.1,0,0.2s0,0.1,0,0.2v0.5c0-0.1,0-0.1,0-0.2c0.2,6.4,7.5,7.3,7.8,7.3
				c0.8,0.1,1.3,0.8,1.2,1.5s-0.7,1.2-1.4,1.2c-0.1,0-0.1,0-0.2,0c-2.1-0.2-5.2-1.2-7.5-3.5v2.4c0,0.1,0,0.1,0,0.1
				c0,5.9,9.1,7.9,9.2,7.9C314.2,233.7,314.7,234.5,314.5,235.2z"/>
		</g>
		<g>
			<path class="st0" d="M304.3,216.4L304.3,216.4c0,0.1,0,0.1,0,0.2v-0.5C304.3,216.2,304.3,216.3,304.3,216.4z"/>
		</g>
		<g>
			<path class="st0" d="M301.5,215.8c0,0.2,0,0.4,0,0.7v-0.6V215.8z"/>
			<path class="st0" d="M304.3,216.4L304.3,216.4c0,0.1,0,0.1,0,0.2v-0.5C304.3,216.2,304.3,216.3,304.3,216.4z"/>
		</g>
		<g>
			<path class="st1" d="M302.9,206"/>
		</g>
	</g>
	<g>
		<g>
			<path class="st0" d="M143.8,216.4L143.8,216.4C143.8,216.5,143.8,216.5,143.8,216.4v-0.3C143.8,216.2,143.8,216.3,143.8,216.4z"
				/>
			<path class="st0" d="M145.8,224.3c0.1,0.1,0.1,0.1,0.2,0.1C145.9,224.4,145.8,224.3,145.8,224.3z"/>
			<path class="st0" d="M156.8,235.2c-0.1,0.7-0.7,1.1-1.3,1.1c-0.1,0-0.2,0-0.3-0.1c-0.3-0.1-5.3-1.2-8.6-4.4v13.3
				c0,0.8-0.6,1.4-1.4,1.4s-1.4-0.6-1.4-1.4v-13.3c-3.2,3.2-8.2,4.3-8.6,4.4c-0.1,0-0.2,0.1-0.3,0.1c-0.6,0-1.2-0.4-1.3-1.1
				c-0.2-0.7,0.3-1.5,1-1.7c0.1,0,2.3-0.5,4.6-1.8c2.3-1.3,4.5-3.2,4.5-6.2v-2.6c-2.3,2.2-5.4,3.2-7.5,3.5c-0.1,0-0.1,0-0.2,0
				c-0.7,0-1.3-0.6-1.4-1.2c-0.1-0.8,0.5-1.5,1.2-1.5c0.3-0.1,7.5-0.9,7.8-7.2v-0.1l0,0c0-0.1,0-0.2,0-0.4v-1.6
				c-2.3,2.6-5,3.1-5.1,3.1c-0.7,0.1-1.5-0.4-1.6-1.2s0.4-1.5,1.2-1.6c0.2-0.1,5.5-1,5.5-8.8v0.1c0-0.8,0.6-1.4,1.4-1.4l0,0
				c0.8,0,1.4,0.6,1.4,1.4v0.1c0,7.8,5.3,8.7,5.5,8.8c0.7,0.1,1.3,0.9,1.2,1.6c-0.1,0.7-0.7,1.2-1.3,1.2c-0.1,0-0.1,0-0.2,0
				s-2.8-0.5-5.1-3.1v0.9c0,0.1,0,0.2,0,0.4s0,0.3,0,0.5l0,0c0.2,6.4,7.5,7.3,7.8,7.3c0.7,0.1,1.3,0.8,1.2,1.5s-0.7,1.2-1.4,1.2
				c-0.1,0-0.1,0-0.2,0c-2.1-0.2-5.2-1.2-7.5-3.5v2.4c0,0.1,0,0.1,0,0.2c0,5.9,9.1,7.9,9.2,7.9C156.5,233.7,157,234.5,156.8,235.2z"
				/>
		</g>
		<g>
			<path class="st0" d="M145.8,224.3c0.1,0.1,0.1,0.1,0.2,0.1C145.9,224.4,145.8,224.3,145.8,224.3z"/>
		</g>
		<g>
			<path class="st1" d="M145.2,206"/>
		</g>
	</g>
</g>
<g>
	<path class="st0" d="M205.1,20.5c-0.3-4.7-0.5-7.9-1-11.5c0.9,0,2.1,0.1,3.4,0c1.4-0.1,2.5-0.3,3.4-0.4c0,3.7,0.1,6.9,0.3,11.6
		l0.3,5.7c0.2,3.1,0.4,6.3,0.6,8.4c3.1-0.2,6.3-0.5,9.5-1.1c0,0.6-0.1,1-0.1,1.9c0.1,0.9,0.2,1.3,0.3,1.8c-1.5,0-3.5,0-7.3,0.2
		c-6.8,0.4-7.9,0.6-8.8,0.7c0-3.7-0.1-6.9-0.3-11.6L205.1,20.5z"/>
	<path class="st0" d="M225.7,19c2.3-1.8,5.3-2.7,7.9-2.6c4.4,0.2,7.6,2.2,7.3,7.2c-0.2,3.5-0.4,6.5-0.6,9.5c-0.1,2.6,0.6,2.9,2.3,3
		v1c-1.6,0.8-2.6,1-3.9,0.9c-2-0.1-3.2-1.3-3.8-3.2c-1.4,1.7-3,2.9-5.6,2.8c-4.2-0.2-5.8-3.1-5.7-5.8c0.2-3.6,2.7-5.1,6.5-5.8
		c4.7-0.9,5.2-1.2,5.2-2.7c0.1-2-1.3-3.7-3.8-3.8c-1.9-0.1-4.2,0.9-5.1,2.1h-0.3L225.7,19z M235.3,26.4c-2.4,1.2-5.6,0.9-5.8,5.1
		c-0.1,2,0.8,3.2,2.2,3.3c1.8,0.1,3.2-1.3,3.3-4C235.2,28.4,235.3,27.4,235.3,26.4z"/>
	<path class="st0" d="M247.8,21c0.8-5.4,1.4-9.6,1.9-14.3c0.7,0.2,1.9,0.5,3.1,0.7c1.2,0.2,2.4,0.3,3.1,0.3
		c-0.9,4.6-1.7,8.8-3.3,19.4c-0.1,0.7-0.1,0.9,0.1,0.9c0.5,0.1,4.1-3.1,9.2-7.9c0.6,0.2,1.2,0.4,1.9,0.5c0.6,0.1,1.3,0.1,2.3,0.2
		c-1.7,1.4-7.1,5.3-8.5,6.5c0.5,1.2,5.1,11.9,5.5,13.5c-1.1-0.3-2.2-0.5-3.2-0.7s-2.1-0.2-3.2-0.3c-0.5-1.4-3.8-10.4-4.4-10.5
		c-0.3,0-0.3,0.1-0.9,4c-0.2,1.5-0.6,4.5-0.6,5.5c-1-0.2-2-0.5-2.9-0.7c-1-0.2-2-0.2-3-0.3c0.9-4.6,1.7-8.8,2.5-14.2L247.8,21z"/>
	<path class="st0" d="M272.5,32.8c-1.2,4.4-0.4,8.1,3.4,9.1c1.9,0.5,3.7,0.3,5.5-0.5l0.4,0.5l-1.5,2c-1.6,0.7-3.6,1-6.6,0.2
		c-5.3-1.4-9-5.8-7.1-12.8s6.7-9.3,12.1-7.9c5.2,1.4,7.3,5.6,5.8,11.2c-0.2,0.7-0.3,1-0.4,1.3L272.5,32.8z M279.2,32.7
		c1-4.1,0.9-6.9-1.2-7.5c-2.4-0.6-4.1,2.7-5,5.8L279.2,32.7z"/>
	<path class="st0" d="M322.6,31.6c0.5,0.4,1,0.7,1.6,1s1.2,0.4,1.8,0.6c-5.2,4.8-15.4,14.1-22.4,21.5c-0.5-0.3-1-0.7-1.6-1
		s-1.2-0.4-1.8-0.6c0.6-7.6,1.5-24,1.6-30.9c1.1,0.7,2.2,1.2,3.3,1.7s2.3,0.9,3.4,1.3c-0.9,6.4-1.3,14.8-1.9,22.2
		C312.2,42.2,317.9,36.5,322.6,31.6z"/>
	<path class="st0" d="M321.7,51.7c1.7-2.9,3.1-5.5,4.4-8.2c0.6,0.5,1.5,1.1,2.6,1.8c1.1,0.7,2.2,1.1,2.8,1.4c-1.7,2.4-3.3,4.9-5,7.8
		l-0.8,1.4c-1.7,2.9-3.1,5.5-4.4,8.2c-0.6-0.4-1.5-1.1-2.6-1.8c-1.1-0.7-2.1-1.1-2.8-1.4c1.7-2.4,3.3-4.9,5-7.8L321.7,51.7z
		 M334.5,35.4c1.6,0.9,2.1,2.9,1.2,4.5c-0.9,1.6-2.9,2.1-4.5,1.2s-2.1-2.9-1.2-4.5C330.9,35,332.9,34.4,334.5,35.4z"/>
	<path class="st0" d="M335.3,61c-2.6,3.7-3.1,7.5,0,9.7c1.6,1.1,3.3,1.6,5.3,1.4l0.2,0.6l-2.1,1.4c-1.7,0.1-3.7-0.3-6.3-2.1
		c-4.4-3.1-6.4-8.5-2.2-14.5c4.2-5.9,9.5-6.4,14.1-3.2c4.4,3.1,5,7.7,1.6,12.5c-0.4,0.6-0.6,0.9-0.8,1.1L335.3,61z M341.6,63.2
		c2.3-3.5,3.2-6.2,1.4-7.4c-2-1.4-4.8,1.1-6.7,3.7L341.6,63.2z"/>
	<path class="st0" d="M361.3,88.1c4.4-2.5,8.7-5.1,12.9-7.8c0.3,0.4,0.7,0.9,1.1,1.3s0.9,0.6,1.4,1c-2.3,0.7-13,6.6-18.9,10.1
		c-0.5-0.6-1-1.2-1.5-1.7c-0.6-0.5-1.2-1-1.9-1.4c2.2-4.3,4.5-9.2,6.3-12.9l-0.1-0.1c-4.2,2.4-8.3,4.8-12.4,7.3
		c-0.5-0.6-1-1.2-1.6-1.8s-1.3-1-2-1.5c3.2-6.1,8.3-17.5,9-19.3c0.8,0.9,1.5,1.7,2.3,2.4c0.7,0.7,1.6,1.3,2.4,1.9
		c-2.3,4.4-4.8,9.5-6.8,13.4l0.1,0.1c4.4-2.5,8.7-5.1,12.9-7.8c0.5,0.6,1,1.2,1.6,1.7s1.2,1,1.9,1.4C365.7,79,363.4,83.5,361.3,88.1
		L361.3,88.1z"/>
	<path class="st0" d="M404.2,115.5c1.1-2.9,1-6-1.2-9.2c-2.9-4.3-9.5-6.3-16.7-1.3c-5.5,3.8-7.5,9.7-3.9,15c0.8,1.2,2.4,3,3.2,3.3
		c0.6-0.3,1.5-0.9,2.5-1.5c3.7-2.5,5.1-3.8,5.8-4.3c0.2,0.5,0.6,1.3,1.6,2.7c1.1,1.7,1.7,2.3,2.1,2.7c-0.8,0.3-3.8,2.2-6,3.7
		c-1.5,1-3.3,2.3-3.7,2.7c-2.9-2.4-5.7-5.1-7.8-8.2c-5.4-7.9-4.8-16.7,2.2-21.5c8.8-6,17.4-2.8,22.9,5.3c2.4,3.5,3.2,6.4,3.6,9.7
		c-1.4,0.4-2.9,0.8-4.2,1.4L404.2,115.5z"/>
	<path class="st0" d="M404,126.6c4.8-2.6,8.6-4.7,12.6-7.1c0.2,0.7,0.7,1.8,1.3,2.9s1.2,2.1,1.7,2.7c-4.3,2-8.1,3.9-12.9,6.5
		l-2.4,1.3c-4.8,2.6-8.6,4.7-12.6,7.1c-0.2-0.7-0.7-1.8-1.3-2.9s-1.2-2.1-1.7-2.7c4.3-2,8.1-3.9,12.9-6.5L404,126.6z"/>
	<path class="st0" d="M410.2,136.9c2.6,1.3,4.7,3.6,5.8,6c1.7,4.1,1.3,7.8-3.3,9.7c-3.3,1.4-6,2.4-8.8,3.6c-2.4,1-2.4,1.8-1.7,3.4
		l-0.9,0.4c-1.4-1.1-2-1.9-2.5-3.1c-0.8-1.9-0.2-3.5,1.3-4.9c-2.1-0.5-3.9-1.5-4.9-3.8c-1.7-3.9,0.2-6.6,2.7-7.6
		c3.3-1.4,5.7,0.2,8,3.3c2.9,3.9,3.3,4.1,4.7,3.5c1.8-0.8,2.8-2.8,1.8-5.1c-0.8-1.8-2.7-3.4-4.1-3.7l-0.1-0.3L410.2,136.9z
		 M407.6,148.8c-2.2-1.7-3.2-4.6-7.1-3c-1.9,0.8-2.6,2.1-2,3.4c0.7,1.7,2.5,2.3,5,1.2C405.8,149.5,406.8,149.2,407.6,148.8z"/>
	<path class="st0" d="M419.7,163.1L419.7,163.1c2.6,1,4.5,2.7,5.2,5.2c0.6,2.4-0.3,4.6-2.5,6.2c2.9,1,4.9,2.9,5.5,5.2
		c1.1,4-0.6,6.9-5.8,8.3c-2.7,0.7-4.7,1.1-6.8,1.6c-1.7,0.4-3.8,1.1-5.8,1.7c-0.1-0.7-0.3-1.9-0.6-3.1s-0.7-2.3-1-3
		c3-0.4,6.9-1.4,11.7-2.6c3.4-0.9,4.6-2.5,4.1-4.5c-0.7-2.6-3.6-2.5-5.5-2l-2.9,0.8c-3.3,0.9-6.1,1.7-8.9,2.7
		c-0.1-0.7-0.3-1.8-0.6-3.1c-0.3-1.3-0.7-2.3-1-3c2.9-0.5,5.8-1.2,9.1-2.1l2.5-0.7c3.2-0.9,4.9-2,4.3-4.3c-0.6-2.4-3.2-2.9-6.9-1.9
		l-1.6,0.4c-3.3,0.9-6.1,1.7-8.9,2.7c-0.1-0.7-0.3-1.8-0.6-3.1c-0.3-1.3-0.7-2.3-1-3c2.9-0.5,5.8-1.2,9.1-2.1l1.6-0.4
		c3.3-0.9,6.1-1.7,8.9-2.7c0.2,1,0.3,2,0.6,2.9c0.3,1,0.6,1.9,1,2.9L419.7,163.1z"/>
	<path class="st0" d="M415.4,194.4c5.4-0.6,9.7-1.2,14.3-1.9c0,1,0,2,0.1,2.9c0.1,1,0.3,1.9,0.5,2.8c-0.9,0-2.4,0-3.6,0.1v0.1
		c2.4,0.5,4.4,2.5,4.8,5.4c0.5,4.2-2.1,8.4-9.4,9.2c-7.9,0.9-11.4-2.9-11.8-7c-0.3-2.5,0.6-4.5,2.4-5.7v-0.1
		c-4,0.4-11.4,1.3-13.4,1.8c0-0.7,0-1.9-0.1-3.1c-0.1-1.2-0.3-2.4-0.5-3.1c4.7-0.3,9-0.6,14.4-1.2L415.4,194.4z M428.8,202.4
		c-0.2-2.1-2.7-3.7-8.9-3.1c-5,0.6-7.2,2.2-7,4.6c0.3,2.4,3,3.6,8.5,3C426.9,206.4,429.1,204.6,428.8,202.4z"/>
	<path class="st0" d="M422.7,217.8c3.4-0.1,6.4-0.2,9.3-0.5c-0.1,0.8-0.2,1.8-0.1,3.1c0,1.3,0.2,2.4,0.3,3.1
		c-2.9-0.2-5.9-0.2-9.3-0.1h-1.7c-3.4,0.1-6.4,0.2-9.3,0.5c0.1-0.7,0.2-1.8,0.1-3.1c0-1.3-0.2-2.4-0.3-3.1c2.9,0.2,5.9,0.2,9.3,0.1
		H422.7z M443.2,220.2c0,1.8-1.4,3.3-3.2,3.4c-1.8,0-3.3-1.4-3.4-3.2s1.4-3.3,3.2-3.4S443.2,218.3,443.2,220.2z"/>
	<path class="st0" d="M428.7,235.2L428.7,235.2c2.1,1.8,3.4,4,3.2,6.6c-0.3,4.2-2.8,6.4-8.1,6c-2.8-0.2-4.8-0.5-7-0.6
		c-1.8-0.1-3.9-0.1-6.1-0.2c0.2-0.7,0.3-1.9,0.4-3.1c0.1-1.2,0.1-2.4,0-3.1c3,0.6,7,0.9,11.9,1.3c3.5,0.2,5.2-0.9,5.3-3.1
		c0.2-2.5-2.1-3.8-5.9-4l-1.7-0.1c-3.4-0.2-6.3-0.3-9.3-0.3c0.1-0.7,0.3-1.8,0.4-3.1c0.1-1.3,0-2.4,0-3.1c2.9,0.4,5.9,0.7,9.2,1
		l1.7,0.1c3.4,0.2,6.3,0.3,9.3,0.3c-0.2,1-0.3,1.9-0.4,2.9c-0.1,1,0,2,0,3.1L428.7,235.2z"/>
	<path class="st0" d="M426.1,268.1L426.1,268.1c-1.3,1.1-3,1.7-5.1,1.3c-4.1-0.7-6.2-4.5-5.4-9.2c0.1-0.6,0.3-1.1,0.4-1.8
		c0.1-0.7-0.5-1.3-1.3-1.5c-1.3-0.2-2.3,0.6-2.8,2.8l-0.6,3c-0.9,4.5-2.9,6.4-6.6,5.7c-6.5-1.2-7.7-7.6-6.8-12.5
		c0.9-5.1,3.8-7.8,7-7.2c2.6,0.5,3.9,2.4,4.4,5h0.1c0.9-1.3,2.1-2,3.6-1.8c1.8,0.3,3.5,2.2,3.7,4.6h0.1c0.7-1.6,1.7-2.8,2.9-3.5
		s2.8-0.9,4.5-0.6c4.2,0.8,6,4.7,5,9.9c-0.2,1-0.5,2-0.7,3c-0.2,0.7-0.3,1.4-0.5,2.3c-0.2,1.4-0.5,2.9-0.8,4.4
		c-0.3-0.1-0.6-0.2-1-0.3c-0.3-0.1-0.7-0.1-1-0.1L426.1,268.1z M408.4,257.9c0.3-1.4,0.3-2.4,0.1-3c-0.2-0.7-1.4-1.9-3.3-2.3
		c-3.1-0.6-5.2,1.6-5.7,4.5c-0.6,3.2,1.3,5.6,4,6C406.7,263.7,407.7,261.6,408.4,257.9z M422.7,258.1c-3.6-0.7-5.1,0.6-5.3,1.8
		c-0.3,1.8,1,2.9,4.7,3.6c3.7,0.7,5.3-0.2,5.5-1.7C427.9,260,426.3,258.8,422.7,258.1z"/>
	<path class="st0" d="M408.1,286.7c-0.6,1.8-2.6,2.8-4.3,2.2s-2.8-2.6-2.2-4.3c0.6-1.8,2.6-2.8,4.3-2.2S408.7,284.9,408.1,286.7z"/>
	<path class="st0" d="M410.2,311.2c4.2,2.1,7.1,3.5,10.5,4.9c-0.5,0.8-1.1,1.7-1.7,3c-0.6,1.2-1,2.3-1.4,3.2
		c-3.2-1.9-6-3.4-10.2-5.5l-5.1-2.6c-2.8-1.4-5.6-2.8-7.6-3.7c-1.4,2.8-2.7,5.7-3.8,8.8c-0.5-0.3-0.8-0.6-1.6-1s-1.2-0.5-1.7-0.7
		c0.7-1.3,1.8-3,3.5-6.4c3.1-6.1,3.5-7.1,3.8-8c3.2,1.9,6,3.4,10.2,5.5L410.2,311.2z"/>
	<path class="st0" d="M401.1,329.9c0.4,2.9-0.4,5.9-1.8,8.2c-2.4,3.7-5.7,5.4-9.9,2.7c-3-1.9-5.4-3.6-7.9-5.3
		c-2.2-1.4-2.8-0.9-3.8,0.5l-0.8-0.5c0.2-1.8,0.4-2.8,1.1-3.8c1.1-1.7,2.8-2.1,4.7-1.7c-0.8-2-1-4.1,0.4-6.2c2.3-3.5,5.6-3.5,7.8-2
		c3.1,2,3,4.9,1.8,8.5c-1.6,4.5-1.5,5.1-0.3,5.9c1.7,1.1,3.9,0.7,5.2-1.4c1-1.6,1.3-4.1,0.8-5.5l0.2-0.2L401.1,329.9z M389.8,334.4
		c0.2-2.7,2.1-5.2-1.5-7.5c-1.7-1.1-3.2-1-4,0.3c-1,1.5-0.5,3.4,1.8,4.8C388.2,333.3,389,333.9,389.8,334.4z"/>
	<path class="st0" d="M388.2,347.9c4.3,3.5,7.6,6,11.4,8.9c-0.5,0.5-1.4,1.4-2.1,2.3c-0.8,0.9-1.5,1.9-1.8,2.6
		c-3.5-3.1-6.8-5.9-15.1-12.7c-0.6-0.5-0.7-0.6-0.8-0.4c-0.3,0.4,0.6,5.1,2.2,11.9c-0.5,0.5-1,0.9-1.4,1.4s-0.7,1.1-1.3,1.9
		c-0.3-2.2-1-8.8-1.3-10.6c-1.3-0.2-12.8-1.6-14.5-2.1c0.8-0.9,1.6-1.6,2.2-2.4c0.7-0.8,1.2-1.7,1.8-2.6c1.5,0.2,10.9,2,11.3,1.5
		c0.2-0.2,0.1-0.3-3-2.8c-1.2-0.9-3.6-2.8-4.5-3.3c0.7-0.7,1.4-1.4,2.1-2.2c0.6-0.8,1.2-1.6,1.7-2.5c3.5,3.1,6.8,5.9,11,9.4
		L388.2,347.9z"/>
	<path class="st0" d="M365.5,363.2c-3.2-3.2-6.8-4.4-9.6-1.7c-1.4,1.4-2.1,3-2.3,5l-0.6,0.1l-1-2.3c0.2-1.7,1-3.6,3.2-5.8
		c3.9-3.8,9.5-4.8,14.7,0.3c5.1,5.1,4.7,10.5,0.7,14.5c-3.9,3.8-8.5,3.5-12.6-0.6c-0.5-0.5-0.8-0.8-0.9-1L365.5,363.2z M362.3,369.1
		c3,2.9,5.5,4.2,7.1,2.7c1.8-1.7-0.2-4.9-2.5-7.3L362.3,369.1z"/>
	<path class="st0" d="M341.5,407.2c-0.5,0.2-1.1,0.5-1.6,0.9s-1,0.8-1.4,1.2c-1.6-6.9-4.5-20.5-7.4-30.1c0.6-0.3,1.1-0.5,1.6-0.9
		s0.9-0.8,1.4-1.2c6.3,4.3,20,13.3,25.9,16.9c-1.1,0.6-2.2,1.3-3.2,2s-2,1.5-2.9,2.3c-5.1-4-12.1-8.6-18.2-12.8
		C337.5,392.8,339.5,400.6,341.5,407.2z"/>
	<path class="st0" d="M324.5,396.4c1.7,2.9,3.2,5.5,4.9,7.9c-0.7,0.3-1.7,0.7-2.8,1.4s-2,1.3-2.6,1.7c-1.2-2.7-2.6-5.3-4.3-8.2
		l-0.8-1.5c-1.7-2.9-3.2-5.5-4.9-7.9c0.7-0.3,1.7-0.7,2.8-1.4s2-1.3,2.6-1.7c1.2,2.7,2.6,5.3,4.3,8.2L324.5,396.4z M332.2,415.6
		c-1.6,0.9-3.6,0.4-4.5-1.2c-0.9-1.6-0.4-3.6,1.2-4.5c1.6-0.9,3.6-0.4,4.5,1.2C334.3,412.7,333.8,414.7,332.2,415.6z"/>
	<path class="st0" d="M309.6,403.4c-1.9-4.1-4.9-6.5-8.4-4.9c-1.7,0.8-3,2.1-3.9,3.9l-0.6-0.1l-0.1-2.5c0.8-1.5,2.1-3.1,5-4.4
		c4.9-2.3,10.6-1.3,13.7,5.3c3,6.6,0.8,11.5-4.3,13.8c-4.9,2.3-9.2,0.4-11.6-4.8c-0.3-0.6-0.5-1-0.5-1.3L309.6,403.4z M304.5,407.8
		c1.8,3.8,3.7,5.9,5.7,5c2.2-1,1.4-4.7,0.1-7.7L304.5,407.8z"/>
	<path class="st0" d="M273.2,412.3c-0.1,5.1,0,10.1,0.2,15.1c-0.5,0.1-1.1,0.1-1.6,0.3s-1,0.4-1.6,0.7c0.5-2.4,0.8-14.5,0.8-21.4
		c0.7-0.1,1.5-0.3,2.3-0.5s1.4-0.6,2.2-0.9c2.6,4,5.7,8.5,8,11.9h0.1c0-4.8,0.1-9.6,0-14.4c0.8-0.2,1.6-0.3,2.3-0.5
		c0.8-0.2,1.5-0.6,2.3-0.9c3.7,5.8,10.9,16,12.1,17.4c-1.2,0.3-2.2,0.5-3.2,0.8s-1.9,0.7-2.9,1.1c-2.7-4.2-5.8-8.9-8.2-12.6h-0.1
		c-0.1,5.1,0.1,10.1,0.2,15.1c-0.8,0.2-1.5,0.3-2.3,0.5s-1.4,0.6-2.2,0.9C278.8,420.7,276.1,416.4,273.2,412.3L273.2,412.3z"/>
	<path class="st0" d="M227.8,435.5c1.9,2.4,4.7,3.9,8.5,3.6c5.2-0.4,10.2-5,9.6-13.8c-0.5-6.6-4.5-11.4-11-10.9
		c-1.4,0.1-3.9,0.6-4.5,1.1c-0.1,0.7,0,1.7,0.1,2.9c0.3,4.5,0.7,6.4,0.8,7.2c-0.5,0-1.4-0.1-3.1,0c-2,0.1-2.8,0.3-3.4,0.4
		c0.1-0.9,0-4.4-0.2-7c-0.1-1.8-0.3-4-0.5-4.6c3.6-1.3,7.3-2.4,11-2.6c9.6-0.7,16.9,4.3,17.5,12.8c0.8,10.6-6.3,16.4-16.1,17.1
		c-4.2,0.3-7.1-0.4-10.2-1.8c0.4-1.5,0.7-2.9,0.9-4.3L227.8,435.5z"/>
	<path class="st0" d="M218.3,429.8c-0.2,5.5-0.3,9.7-0.3,14.5c-0.7-0.2-1.9-0.3-3.1-0.3c-1.2,0-2.4,0-3.1,0.1
		c0.4-4.7,0.7-9,0.9-14.4l0.1-2.7c0.2-5.5,0.3-9.7,0.3-14.5c0.7,0.2,1.9,0.3,3.1,0.3c1.2,0,2.4,0,3.1-0.1c-0.4,4.7-0.7,9-0.9,14.4
		L218.3,429.8z"/>
	<path class="st0" d="M206.4,429.9c-2.5,1.6-5.5,2.3-8.1,1.9c-4.4-0.5-7.4-2.8-6.8-7.7c0.4-3.5,0.9-6.4,1.3-9.4
		c0.3-2.6-0.4-3-2.1-3.2l0.1-1c1.7-0.6,2.7-0.8,4-0.6c2,0.3,3.1,1.6,3.6,3.5c1.5-1.6,3.2-2.7,5.8-2.4c4.2,0.5,5.6,3.5,5.3,6.2
		c-0.4,3.6-3,4.8-6.9,5.3c-4.8,0.5-5.2,0.8-5.4,2.3c-0.2,2,1,3.8,3.5,4.1c1.9,0.2,4.3-0.6,5.3-1.7h0.3L206.4,429.9z M197.4,421.8
		c2.5-1,5.6-0.4,6.1-4.6c0.3-2-0.5-3.3-2-3.4c-1.8-0.2-3.2,1-3.6,3.7C197.7,419.8,197.5,420.8,197.4,421.8z"/>
	<path class="st0" d="M178.9,425L178.9,425c-2.2,1.7-4.6,2.6-7.1,1.9c-2.4-0.7-3.8-2.5-4.1-5.2c-2.3,2-4.9,2.8-7.3,2.1
		c-4-1.1-5.7-4-4.3-9.1c0.8-2.7,1.4-4.6,2-6.7c0.5-1.7,0.9-3.8,1.4-5.9c0.7,0.3,1.8,0.7,3,1s2.4,0.6,3.1,0.6
		c-1.2,2.8-2.3,6.7-3.6,11.5c-0.9,3.3-0.1,5.3,1.9,5.8c2.6,0.7,3.9-1.8,4.5-3.8l0.8-2.9c0.9-3.3,1.6-6.2,2.1-9c0.7,0.3,1.7,0.7,3,1
		c1.2,0.3,2.3,0.5,3.1,0.6c-1,2.8-1.9,5.6-2.8,8.9l-0.7,2.5c-0.9,3.2-0.7,5.3,1.5,5.9c2.4,0.7,4.1-1.3,5.1-5l0.4-1.6
		c0.9-3.3,1.6-6.2,2.1-9c0.7,0.3,1.7,0.7,3,1c1.2,0.3,2.3,0.5,3.1,0.6c-1,2.8-1.9,5.6-2.8,8.9l-0.4,1.6c-0.9,3.3-1.6,6.2-2.1,9
		c-0.9-0.3-1.8-0.7-2.8-1s-1.9-0.4-3-0.6L178.9,425z"/>
	<path class="st0" d="M154,405.6c-2.2,5-3.8,9-5.6,13.4c-0.8-0.5-1.7-1-2.6-1.4s-1.8-0.7-2.7-1c0.4-0.8,1.2-2.1,1.7-3.2h-0.1
		c-1.7,1.8-4.4,2.6-7.1,1.4c-3.9-1.7-6.2-6.1-3.2-12.7c3.2-7.3,8.2-8.4,12-6.7c2.3,1,3.6,2.7,3.7,5h0.1c1.6-3.7,4.7-10.5,5.2-12.5
		c0.6,0.4,1.7,1,2.8,1.5s2.3,0.9,3,1.1c-2.1,4.2-3.9,8.1-6.2,13.1L154,405.6z M140.3,413.1c1.9,0.8,4.6-0.4,7.1-6.2
		c2-4.6,1.7-7.4-0.5-8.4s-4.6,0.8-6.8,5.8C137.9,409.5,138.3,412.2,140.3,413.1z"/>
	<path class="st0" d="M117.7,416.7c-1.6-0.9-2.2-2.9-1.3-4.5c0.9-1.6,2.9-2.2,4.5-1.3s2.2,2.9,1.3,4.5S119.3,417.5,117.7,416.7z
		 M130.1,400.1c-1.6,3-3,5.6-4.2,8.3c-0.6-0.4-1.5-1.1-2.6-1.7s-2.2-1.1-2.8-1.3c1.6-2.4,3.2-5,4.8-8l0.8-1.5c1.6-3,3-5.6,4.2-8.3
		c0.6,0.4,1.5,1.1,2.6,1.7c1.1,0.6,2.1,1,2.8,1.3c-1.6,2.4-3.2,5-4.8,8L130.1,400.1z"/>
	<path class="st0" d="M112,396.5L112,396.5c-2.6,1-5.2,0.9-7.4-0.5c-3.5-2.3-4.1-5.6-1.1-10c1.6-2.4,2.9-3.9,4.1-5.7
		c1-1.5,2.1-3.3,3.2-5.1c0.5,0.5,1.5,1.3,2.5,1.9c1,0.7,2.1,1.3,2.7,1.6c-2,2.3-4.3,5.6-7.1,9.7c-1.9,2.9-1.8,4.9,0,6.1
		c2.1,1.4,4.3,0.1,6.5-3l0.9-1.4c1.9-2.8,3.5-5.3,4.9-7.9c0.5,0.5,1.4,1.2,2.5,1.9s2,1.2,2.7,1.6c-1.9,2.3-3.6,4.7-5.5,7.5l-0.9,1.4
		c-1.9,2.8-3.5,5.3-4.9,7.9c-0.8-0.6-1.5-1.3-2.3-1.8c-0.8-0.6-1.7-1-2.6-1.5L112,396.5z"/>
	<path class="st0" d="M85,377.7h0.1c-0.4-1.7-0.1-3.4,1.3-5c2.7-3.1,7-3.1,10.7,0c0.4,0.4,0.9,0.8,1.4,1.3c0.5,0.4,1.4,0.2,1.9-0.4
		c0.9-1,0.7-2.3-1-3.8l-2.3-2c-3.5-3-4.1-5.7-1.6-8.6c4.3-5,10.5-2.8,14.2,0.4c3.9,3.4,4.8,7.2,2.7,9.6c-1.7,2-4,2.1-6.5,1.3
		l-0.1,0.1c0.7,1.4,0.7,2.8-0.3,4c-1.2,1.4-3.7,1.9-5.8,0.8l-0.1,0.1c1,1.4,1.5,2.8,1.5,4.3s-0.6,2.9-1.8,4.2
		c-2.8,3.2-7.1,2.8-11.1-0.7c-0.8-0.7-1.5-1.5-2.2-2.1c-0.5-0.5-1.1-1-1.7-1.6c-1-0.9-2.2-1.9-3.4-2.8c0.2-0.2,0.5-0.5,0.7-0.7
		s0.4-0.5,0.6-0.8L85,377.7z M95.3,379.8c2.4-2.8,2.1-4.7,1.1-5.5c-1.4-1.2-3.1-0.6-5.5,2.3c-2.4,2.9-2.5,4.6-1.3,5.6
		C91,383.4,92.9,382.6,95.3,379.8z M102.7,367.5c1.1,1,1.9,1.5,2.6,1.6c0.7,0.2,2.3-0.2,3.6-1.7c2.1-2.4,1.2-5.3-1-7.2
		c-2.4-2.1-5.5-1.7-7.2,0.4C98.5,363.1,99.9,365.1,102.7,367.5z"/>
	<path class="st0" d="M78,352.8c-1.2-1.4-1.1-3.6,0.3-4.8s3.6-1.1,4.8,0.3s1.1,3.6-0.3,4.8S79.2,354.2,78,352.8z"/>
	<path class="st0" d="M55.7,342.3c-3.9,2.6-6.6,4.4-9.5,6.6c-0.4-0.8-0.9-1.8-1.7-3c-0.8-1.2-1.5-2-2-2.8c3.2-1.8,6-3.5,9.9-6
		l4.8-3.1c2.6-1.7,5.2-3.5,7-4.7c-1.7-2.6-3.6-5.2-5.7-7.7c0.5-0.2,0.9-0.4,1.7-0.9c0.7-0.5,1-0.8,1.4-1.1c0.8,1.3,1.7,3,3.8,6.2
		c3.7,5.7,4.4,6.6,5,7.3c-3.2,1.8-6,3.5-9.9,6L55.7,342.3z"/>
	<path class="st0" d="M44.2,325c-2.7-1.2-5-3.3-6.2-5.6c-2-4-1.8-7.7,2.6-9.9c3.2-1.6,5.8-2.8,8.5-4.2c2.3-1.2,2.2-2,1.5-3.5
		l0.9-0.5c1.5,1,2.2,1.8,2.7,2.9c0.9,1.8,0.5,3.5-0.9,4.9c2.2,0.4,4,1.2,5.2,3.5c1.9,3.8,0.2,6.6-2.2,7.8c-3.2,1.6-5.7,0.2-8.2-2.8
		c-3.1-3.7-3.6-3.9-5-3.2c-1.8,0.9-2.6,3-1.4,5.2c0.9,1.7,2.9,3.2,4.3,3.4l0.1,0.3L44.2,325z M45.9,313c2.3,1.5,3.5,4.4,7.3,2.5
		c1.8-0.9,2.4-2.3,1.8-3.6c-0.8-1.6-2.7-2.1-5.1-0.9C47.6,312.1,46.7,312.6,45.9,313z"/>
	<path class="st0" d="M35,304.9c-5.1,1.9-9.1,3.6-13.4,5.4c-0.1-0.7-0.5-1.9-0.9-3s-0.9-2.2-1.3-2.9c4.5-1.5,8.5-2.9,18.5-6.7
		c0.7-0.3,0.9-0.3,0.8-0.5c-0.2-0.4-4.7-2-11.4-4.1c-0.2-0.7-0.3-1.3-0.5-1.9c-0.2-0.6-0.6-1.2-1-2.1c2,0.8,8.1,3.6,9.8,4.2
		c0.8-1,7.9-10.3,9.1-11.5c0.3,1.1,0.6,2.1,1,3.2s0.9,1.9,1.3,2.9c-0.9,1.2-7.2,8.4-7,9c0.1,0.3,0.2,0.2,4-1.2
		c1.4-0.5,4.2-1.7,5.1-2.2c0.3,1,0.5,2,0.9,2.9s0.8,1.8,1.3,2.7c-4.5,1.5-8.5,2.9-13.6,4.8L35,304.9z"/>
	<path class="st0" d="M33.1,277.6c4.4-1.1,7.2-3.7,6.3-7.4c-0.5-1.9-1.5-3.4-3.1-4.5l0.2-0.6l2.5,0.3c1.4,1.1,2.6,2.6,3.4,5.7
		c1.4,5.3-0.6,10.7-7.7,12.5c-7,1.8-11.4-1.3-12.8-6.7c-1.4-5.3,1.2-9.1,6.8-10.6c0.7-0.2,1.1-0.3,1.3-0.3L33.1,277.6z M29.7,271.8
		c-4,1.1-6.4,2.6-5.9,4.7c0.6,2.4,4.3,2.2,7.5,1.5L29.7,271.8z"/>
	<path class="st0" d="M7.3,234.6c0.1-0.6,0.1-1.2,0-1.9c-0.1-0.6-0.2-1.2-0.4-1.8c6.8,2.2,19.9,6.4,29.8,8.8c0,0.6-0.1,1.2,0,1.9
		c0.1,0.6,0.2,1.2,0.4,1.8c-6.9,3.2-21.6,10.6-27.7,13.9c0-1.3,0-2.6-0.1-3.8s-0.3-2.4-0.5-3.6c6-2.4,13.5-6.1,20.2-9.3
		C21.7,238.4,14,236.2,7.3,234.6z"/>
	<path class="st0" d="M4.7,222.3c0-1.8,1.5-3.3,3.4-3.2s3.3,1.5,3.2,3.4c0,1.8-1.5,3.3-3.4,3.2S4.7,224.1,4.7,222.3z M25.2,225.4
		c-3.4-0.1-6.4,0-9.3,0.2c0.1-0.8,0.2-1.8,0.3-3.1c0-1.3-0.1-2.4-0.2-3.1c2.9,0.3,5.9,0.4,9.3,0.5H27c3.4,0.1,6.4,0,9.3-0.2
		c-0.1,0.7-0.2,1.8-0.3,3.1c0,1.3,0.1,2.4,0.2,3.1c-2.9-0.3-5.9-0.4-9.3-0.5H25.2z"/>
	<path class="st0" d="M26.6,209c4.5,0.4,8.1-1,8.4-4.8c0.2-1.9-0.3-3.7-1.4-5.3l0.4-0.5l2.2,1.1c0.9,1.5,1.6,3.4,1.3,6.5
		c-0.5,5.4-4.2,9.8-11.5,9.1c-7.2-0.7-10.3-5.1-9.8-10.7c0.5-5.4,4.2-8.2,10-7.6c0.7,0.1,1.1,0.1,1.4,0.2L26.6,209z M25.4,202.4
		c-4.2-0.3-7,0.3-7.2,2.4c-0.2,2.5,3.3,3.6,6.6,4L25.4,202.4z"/>
	<path class="st0" d="M37.2,173c-4.4-2.6-8.7-5.1-13.1-7.4c0.2-0.5,0.4-1,0.6-1.5c0.1-0.5,0.1-1,0.2-1.8c1.8,1.7,12.2,8,18.1,11.4
		c-0.3,0.7-0.6,1.5-0.7,2.2c-0.2,0.8-0.2,1.5-0.3,2.3c-4.8,0.2-10.2,0.6-14.3,0.9v0.1c4.1,2.5,8.3,4.9,12.5,7.2
		c-0.3,0.8-0.6,1.5-0.7,2.3c-0.2,0.8-0.2,1.6-0.4,2.4c-6.9,0.3-19.3,1.4-21.2,1.7c0.4-1.2,0.7-2.1,0.9-3.1c0.2-1,0.3-2,0.5-3
		c5-0.2,10.6-0.5,15-0.8v-0.1c-4.3-2.6-8.8-5-13.1-7.4c0.3-0.8,0.6-1.5,0.7-2.2s0.2-1.5,0.3-2.3C27.1,173.7,32.2,173.5,37.2,173
		L37.2,173z"/>
	<path class="st0" d="M39.9,122.1c-3,0.5-5.7,2.1-7.4,5.6c-2.3,4.7-0.8,11.4,7.1,15.2c6,2.9,12.1,1.8,14.9-4
		c0.6-1.3,1.4-3.6,1.3-4.4c-0.5-0.4-1.5-0.9-2.6-1.4c-4.1-2-5.9-2.6-6.6-2.9c0.3-0.5,0.8-1.1,1.5-2.7c0.9-1.8,1.1-2.6,1.3-3.1
		c0.7,0.6,3.8,2.2,6.2,3.4c1.6,0.8,3.6,1.7,4.2,1.9c-0.7,3.7-1.6,7.5-3.3,10.8c-4.2,8.6-12.2,12.4-19.8,8.7
		c-9.5-4.7-11-13.7-6.7-22.6c1.9-3.8,3.9-5.9,6.7-7.9c1.1,1,2.1,2.1,3.3,2.9L39.9,122.1z"/>
	<path class="st0" d="M49.7,116.8c-4.6-3-8.3-5.1-12.4-7.5c0.5-0.5,1.2-1.5,1.9-2.5c0.7-1,1.2-2.1,1.5-2.8c3.9,2.7,7.4,5.1,12,8.1
		l2.3,1.5c4.6,3,8.3,5.1,12.4,7.5c-0.5,0.5-1.2,1.5-1.9,2.5c-0.7,1-1.2,2.1-1.5,2.8c-3.9-2.7-7.4-5.1-12-8.1L49.7,116.8z"/>
	<path class="st0" d="M55.6,106.4c-0.1-2.9,0.8-5.9,2.4-8c2.7-3.5,6.1-4.9,10.1-1.9c2.8,2.2,5.1,4,7.5,5.9c2.1,1.6,2.7,1.2,3.8-0.2
		l0.8,0.6c-0.3,1.8-0.7,2.7-1.4,3.7c-1.2,1.6-2.9,1.9-4.8,1.3c0.6,2.1,0.7,4.1-0.9,6.2c-2.6,3.4-5.9,3-8,1.4
		c-2.9-2.2-2.6-5.1-1.1-8.6c1.9-4.4,1.9-4.9,0.7-5.9c-1.6-1.2-3.8-1-5.3,1c-1.2,1.5-1.6,4-1.2,5.4l-0.2,0.2L55.6,106.4z M67.2,102.8
		c-0.4,2.7-2.5,5.1,0.9,7.6c1.6,1.2,3.1,1.2,4,0c1.1-1.5,0.7-3.3-1.4-5C68.7,104,67.9,103.3,67.2,102.8z"/>
	<path class="st0" d="M73.7,85.2L73.7,85.2c-0.4-2.8,0.1-5.3,2-7.1c1.8-1.8,4.1-2,6.6-0.9c-0.6-3,0.1-5.6,1.8-7.4
		c3-2.9,6.3-2.9,10,0.9c2,2,3.3,3.6,4.8,5.1c1.2,1.3,2.8,2.7,4.4,4.2c-0.6,0.4-1.5,1.2-2.4,2s-1.7,1.8-2.1,2.3
		c-1.8-2.4-4.6-5.3-8.1-8.9c-2.4-2.5-4.5-2.8-6-1.3c-1.9,1.9-0.4,4.3,1,5.7l2.1,2.1c2.4,2.4,4.5,4.5,6.7,6.4c-0.6,0.4-1.5,1.1-2.4,2
		s-1.6,1.8-2.1,2.3c-1.9-2.3-3.9-4.4-6.3-6.9l-1.8-1.8c-2.3-2.4-4.2-3.3-5.8-1.6c-1.8,1.8-1,4.2,1.7,6.9l1.2,1.2
		c2.4,2.4,4.5,4.5,6.7,6.4c-0.6,0.4-1.5,1.1-2.4,2s-1.6,1.8-2.1,2.3c-1.9-2.3-3.9-4.4-6.3-6.9L73.7,93c-2.4-2.4-4.5-4.5-6.7-6.4
		c0.8-0.6,1.5-1.2,2.3-1.9c0.7-0.7,1.3-1.5,2-2.3L73.7,85.2z"/>
	<path class="st0" d="M103,73.4c-3.2-4.4-5.8-7.8-8.8-11.5c0.8-0.5,1.7-1,2.5-1.5c0.8-0.6,1.5-1.2,2.2-1.9c0.5,0.8,1.2,2.1,1.9,3.1
		h0.1c-0.7-2.4,0-5.1,2.4-6.8c3.4-2.5,8.4-2.3,12.6,3.6c4.7,6.4,3.1,11.3-0.2,13.7c-2,1.4-4.2,1.7-6.2,0.7h-0.1
		c2.4,3.2,6.8,9.3,8.2,10.7c-0.6,0.3-1.7,1-2.7,1.7s-1.9,1.5-2.4,2c-2.6-3.9-5-7.5-8.2-11.9L103,73.4z M103.3,57.8
		c-1.7,1.2-1.9,4.2,1.8,9.3c3,4.1,5.5,5.2,7.5,3.8c1.9-1.4,1.6-4.4-1.6-8.8C107.7,57.5,105.1,56.5,103.3,57.8z"/>
	<path class="st0" d="M111.6,36.5c1.6-0.9,3.6-0.4,4.5,1.1c0.9,1.6,0.4,3.6-1.1,4.5c-1.6,0.9-3.6,0.4-4.5-1.1
		C109.5,39.5,110,37.5,111.6,36.5z M119.7,55.5c-1.7-2.9-3.3-5.4-5-7.8c0.7-0.3,1.7-0.8,2.8-1.4c1.1-0.7,2-1.4,2.6-1.8
		c1.3,2.6,2.7,5.2,4.5,8.1l0.9,1.4c1.7,2.9,3.3,5.4,5,7.8c-0.7,0.3-1.7,0.8-2.8,1.4c-1.1,0.7-2,1.3-2.6,1.8
		c-1.3-2.6-2.7-5.2-4.5-8.1L119.7,55.5z"/>
	<path class="st0" d="M131.9,41.7L131.9,41.7c0.5-2.7,1.8-4.9,4.2-6.1c3.8-1.8,6.9-0.7,9.2,4.1c1.2,2.6,2,4.4,2.9,6.4
		c0.8,1.6,1.8,3.5,2.8,5.4c-0.7,0.2-1.8,0.6-2.9,1.2c-1.1,0.5-2.1,1.1-2.7,1.5c-1-2.9-2.6-6.5-4.8-11c-1.5-3.1-3.3-4-5.3-3.1
		c-2.3,1.1-2.3,3.7-0.6,7.1l0.7,1.5c1.5,3.1,2.8,5.7,4.3,8.2c-0.7,0.2-1.7,0.6-2.9,1.2s-2.1,1.1-2.7,1.5c-1-2.7-2.3-5.5-3.7-8.5
		l-0.7-1.5c-1.5-3-2.8-5.7-4.3-8.2c0.9-0.4,1.9-0.7,2.8-1.1s1.7-1,2.7-1.5L131.9,41.7z"/>
	<path class="st0" d="M161.7,27.7l-0.1,0.1c1.6,0.5,3,1.7,3.7,3.6c1.4,3.9-0.8,7.6-5.4,9.2c-0.6,0.2-1.1,0.3-1.8,0.6
		c-0.6,0.2-0.9,1.1-0.6,1.8c0.4,1.3,1.7,1.7,3.8,1l2.9-1c4.4-1.5,7-0.6,8.3,3c2.2,6.3-2.8,10.5-7.5,12.1c-4.9,1.7-8.6,0.6-9.7-2.5
		c-0.9-2.5,0.2-4.6,2.2-6.2v-0.1c-1.5-0.1-2.8-0.8-3.3-2.3c-0.6-1.7,0.2-4.1,2.2-5.5v-0.1c-1.7,0.2-3.2-0.1-4.5-0.8
		c-1.2-0.7-2.2-1.9-2.8-3.6c-1.4-4,1.2-7.5,6.2-9.3c0.9-0.3,2-0.6,3-0.9c0.7-0.2,1.4-0.4,2.2-0.7c1.3-0.5,2.7-1,4.2-1.5
		c0.1,0.3,0.1,0.7,0.3,1c0.1,0.3,0.3,0.6,0.4,0.9L161.7,27.7z M154.8,35.6c1.2,3.4,3,4.2,4.2,3.8c1.7-0.6,2.1-2.4,0.8-5.9
		c-1.2-3.6-2.8-4.5-4.2-4C153.8,30.1,153.5,32.2,154.8,35.6z M161.6,48.2c-1.4,0.5-2.2,0.9-2.7,1.4s-1,2.1-0.3,4c1,3,4,3.7,6.8,2.7
		c3-1.1,4.2-3.9,3.3-6.4C167.5,46.8,165.2,46.9,161.6,48.2z"/>
	<path class="st0" d="M186.8,34.2c1.8-0.4,3.7,0.9,4,2.7c0.4,1.8-0.9,3.7-2.7,4s-3.7-0.9-4-2.7S185,34.6,186.8,34.2z"/>
</g>
</svg>
