<?xml version="1.0" encoding="utf-8"?>
<!-- Generator: Adobe Illustrator 26.1.0, SVG Export Plug-In . SVG Version: 6.00 Build 0)  -->
<svg version="1.1" id="Layer_1" xmlns="http://www.w3.org/2000/svg" xmlns:xlink="http://www.w3.org/1999/xlink" x="0px" y="0px"
	 width="451.9px" height="451.9px" viewBox="0 0 451.9 451.9" style="enable-background:new 0 0 451.9 451.9;" xml:space="preserve"
	>
<style type="text/css">
	.st0{fill:#E9E9E9;}
	.st1{fill:#E9E9E9;stroke:#070707;stroke-width:6;stroke-linecap:round;stroke-miterlimit:10;}
</style>
<g>
	<g>
		<g>
			<path class="st0" d="M211.7,106.8c0.2-0.1,0.3-0.1,0.5-0.1c0.8-0.1,1.6-0.1,2.4-0.2c1-0.1,2.1-0.2,3-0.3c1.2-0.2,2.4-0.3,3.5-0.5
				c0.4-0.1,0.8-0.1,1.3-0.2c0.2,0,0.2-0.1,0.1-0.2c-0.9-1.2-1.9-2.5-2.8-3.5c-0.5-0.6-1.1-1.1-1.5-1.8c0,0-0.1-0.1-0.1-0.2
				c0.1-0.1,0.1,0,0.2,0.1c0.6,0.4,1.1,0.9,1.6,1.3c0.8,0.7,1.6,1.3,2.4,2c0.5,0.4,0.9,0.7,1.4,1.1c0.1,0.1,0.2,0.1,0.2-0.1
				c0.1-0.9,0.2-1.8,0.3-2.6c0.1-1,0.3-2,0.4-2.9c0.1-0.5,0.1-1.1,0.1-1.6c0.1-0.7,0.1-1.3,0.2-2c0-0.5,0.1-1,0.1-1.5
				c0-0.1,0-0.1,0.1-0.2c0.1,0.2,0.1,0.4,0.1,0.6c0.1,0.8,0.2,1.7,0.2,2.5c0.1,0.6,0.1,1.2,0.1,1.7c0.1,0.6,0.1,1.2,0.2,1.7
				c0.1,0.8,0.2,1.6,0.3,2.4c0.1,0.6,0.2,1.3,0.3,1.9c0,0.1,0.1,0.2,0.2,0.1c1.2-0.9,2.3-1.8,3.4-2.7c0.6-0.6,1.2-1.2,1.9-1.7
				c0,0,0.1-0.1,0.2-0.1c0.1,0.1,0,0.1-0.1,0.2c-0.4,0.6-0.9,1.1-1.3,1.6c-0.7,0.8-1.3,1.6-2,2.4c-0.4,0.5-0.7,0.9-1.1,1.4
				c-0.1,0.1-0.1,0.2,0.1,0.2c0.9,0.1,1.8,0.2,2.6,0.3c1,0.1,2,0.3,2.9,0.4c0.5,0.1,1.1,0.1,1.6,0.1c0.7,0.1,1.3,0.1,2,0.2
				c0.5,0,1,0.1,1.5,0.1c0.1,0,0.1,0,0.2,0.1c-0.2,0.1-0.4,0.1-0.6,0.1c-0.8,0.1-1.7,0.2-2.5,0.2c-0.6,0.1-1.2,0.1-1.7,0.1
				c-0.6,0.1-1.2,0.1-1.7,0.2c-0.8,0.1-1.6,0.2-2.4,0.3c-0.6,0.1-1.3,0.2-1.9,0.3c-0.1,0-0.2,0.1-0.1,0.2c0.9,1.2,1.8,2.3,2.7,3.4
				c0.6,0.6,1.2,1.2,1.7,1.9c0,0,0.1,0.1,0.1,0.2c-0.1,0.1-0.1,0-0.2-0.1c-0.6-0.4-1.1-0.9-1.6-1.3c-0.8-0.7-1.6-1.3-2.4-2
				c-0.5-0.4-0.9-0.7-1.4-1.1c-0.1-0.1-0.2-0.1-0.2,0.1c-0.1,0.9-0.2,1.8-0.3,2.6c-0.1,1-0.3,2-0.4,2.9c-0.1,0.5-0.1,1.1-0.1,1.6
				c-0.1,0.7-0.1,1.3-0.2,2c0,0.5-0.1,1-0.1,1.5c0,0.1,0,0.1-0.1,0.2c-0.1-0.2-0.1-0.4-0.1-0.6c-0.1-0.8-0.2-1.7-0.2-2.5
				c-0.1-0.6-0.1-1.2-0.1-1.7c-0.1-0.6-0.1-1.2-0.2-1.7c-0.1-0.8-0.2-1.6-0.3-2.4c-0.1-0.6-0.2-1.3-0.3-1.9c0-0.1-0.1-0.2-0.2-0.1
				c-1.2,0.9-2.3,1.8-3.4,2.7c-0.6,0.6-1.2,1.2-1.9,1.7c0,0-0.1,0.1-0.2,0.1c-0.1-0.1,0-0.1,0.1-0.2c0.4-0.6,0.9-1.1,1.3-1.6
				c0.7-0.8,1.3-1.6,2-2.4c0.4-0.5,0.7-0.9,1.1-1.4c0.1-0.1,0.1-0.2-0.1-0.2c-0.9-0.1-1.8-0.2-2.6-0.3c-1-0.1-2-0.3-2.9-0.4
				c-0.5-0.1-1.1-0.1-1.6-0.1c-0.7-0.1-1.3-0.1-2-0.2c-0.5,0-1-0.1-1.5-0.1C211.8,106.8,211.8,106.8,211.7,106.8z"/>
		</g>
	</g>
	<g>
		<g>
			<path class="st0" d="M137,145c0,0.1-0.1,0.2-0.1,0.3c-0.2,0.5-0.3,1-0.5,1.5c-0.2,0.7-0.5,1.3-0.6,2c-0.2,0.8-0.4,1.6-0.7,2.3
				c-0.1,0.3-0.2,0.5-0.2,0.8c0,0.1,0,0.1,0.1,0.1c1-0.2,2-0.5,2.9-0.8c0.5-0.2,1-0.4,1.5-0.5c0,0,0.1-0.1,0.1,0
				c0,0.1,0,0.1-0.1,0.1c-0.4,0.2-0.8,0.4-1.2,0.6c-0.6,0.3-1.2,0.6-1.9,1c-0.3,0.2-0.7,0.4-1,0.6c-0.1,0.1-0.1,0.1,0,0.2
				c0.5,0.3,1,0.6,1.5,0.9c0.6,0.3,1.1,0.7,1.7,1c0.3,0.2,0.6,0.3,0.9,0.5c0.4,0.2,0.8,0.4,1.2,0.6c0.3,0.2,0.6,0.3,0.9,0.5
				c0,0,0.1,0,0.1,0.1c-0.1,0-0.3-0.1-0.4-0.1c-0.5-0.2-1.1-0.3-1.6-0.5c-0.4-0.1-0.7-0.3-1.1-0.4c-0.4-0.1-0.8-0.2-1.1-0.3
				c-0.5-0.1-1-0.3-1.6-0.4c-0.4-0.1-0.8-0.2-1.3-0.4c-0.1,0-0.1,0-0.1,0.1c0.2,1,0.5,1.9,0.8,2.8c0.2,0.5,0.4,1.1,0.5,1.6
				c0,0,0.1,0.1,0,0.1c-0.1,0-0.1,0-0.1-0.1c-0.2-0.4-0.4-0.8-0.6-1.2c-0.3-0.6-0.6-1.2-1-1.9c-0.2-0.3-0.4-0.7-0.6-1
				c-0.1-0.1-0.1-0.1-0.2,0c-0.3,0.5-0.6,1-0.9,1.5c-0.3,0.6-0.7,1.1-1,1.7c-0.2,0.3-0.3,0.6-0.5,0.9c-0.2,0.4-0.4,0.8-0.6,1.2
				c-0.2,0.3-0.3,0.6-0.5,0.9c0,0,0,0.1-0.1,0.1c0-0.2,0.1-0.3,0.1-0.4c0.2-0.5,0.3-1.1,0.5-1.6c0.1-0.4,0.3-0.7,0.4-1.1
				s0.2-0.8,0.3-1.1c0.1-0.5,0.3-1,0.4-1.6c0.1-0.4,0.2-0.8,0.4-1.3c0-0.1,0-0.1-0.1-0.1c-1,0.2-1.9,0.5-2.8,0.8
				c-0.5,0.2-1.1,0.4-1.6,0.5c0,0-0.1,0.1-0.1,0c0-0.1,0-0.1,0.1-0.1c0.4-0.2,0.8-0.4,1.2-0.6c0.6-0.3,1.2-0.6,1.9-1
				c0.3-0.2,0.7-0.4,1-0.6c0.1-0.1,0.1-0.1,0-0.2c-0.5-0.3-1-0.6-1.5-0.9c-0.6-0.3-1.1-0.7-1.7-1c-0.3-0.2-0.6-0.3-0.9-0.5
				c-0.4-0.2-0.8-0.4-1.2-0.6c-0.3-0.2-0.6-0.3-0.9-0.5c0,0-0.1,0-0.1-0.1c0.2,0,0.3,0.1,0.4,0.1c0.5,0.2,1.1,0.3,1.6,0.5
				c0.4,0.1,0.7,0.3,1.1,0.4c0.4,0.1,0.8,0.2,1.1,0.3c0.5,0.1,1,0.3,1.6,0.4c0.4,0.1,0.8,0.2,1.3,0.4c0.1,0,0.1,0,0.1-0.1
				c-0.2-1-0.5-1.9-0.8-2.8c-0.2-0.5-0.4-1.1-0.5-1.6c0,0-0.1-0.1,0-0.1c0.1,0,0.1,0,0.1,0.1c0.2,0.4,0.4,0.8,0.6,1.2
				c0.3,0.6,0.6,1.2,1,1.9c0.2,0.3,0.4,0.7,0.6,1c0.1,0.1,0.1,0.1,0.2,0c0.3-0.5,0.6-1,0.9-1.5c0.3-0.6,0.7-1.1,1-1.7
				c0.2-0.3,0.3-0.6,0.5-0.9c0.2-0.4,0.4-0.8,0.6-1.2C136.6,145.5,136.7,145.2,137,145C136.9,145.1,136.9,145,137,145z"/>
		</g>
	</g>
	<g>
		<g>
			<path class="st0" d="M313.6,145c0,0.1,0.1,0.2,0.1,0.3c0.2,0.5,0.3,1,0.5,1.5c0.2,0.7,0.5,1.3,0.6,2c0.2,0.8,0.4,1.6,0.7,2.3
				c0.1,0.3,0.2,0.5,0.2,0.8c0,0.1,0,0.1-0.1,0.1c-1-0.2-2-0.5-2.9-0.8c-0.5-0.2-1-0.4-1.5-0.5c0,0-0.1-0.1-0.1,0
				c0,0.1,0,0.1,0.1,0.1c0.4,0.2,0.8,0.4,1.2,0.6c0.6,0.3,1.2,0.6,1.9,1c0.3,0.2,0.7,0.4,1,0.6c0.1,0.1,0.1,0.1,0,0.2
				c-0.5,0.3-1,0.6-1.5,0.9c-0.6,0.3-1.1,0.7-1.7,1c-0.3,0.2-0.6,0.3-0.9,0.5c-0.4,0.2-0.8,0.4-1.2,0.6c-0.3,0.2-0.6,0.3-0.9,0.5
				c0,0-0.1,0-0.1,0.1c0.1,0,0.3-0.1,0.4-0.1c0.5-0.2,1.1-0.3,1.6-0.5c0.4-0.1,0.7-0.3,1.1-0.4c0.4-0.1,0.8-0.2,1.1-0.3
				c0.5-0.1,1-0.3,1.6-0.4c0.4-0.1,0.8-0.2,1.3-0.4c0.1,0,0.1,0,0.1,0.1c-0.2,1-0.5,1.9-0.8,2.8c-0.2,0.5-0.4,1.1-0.5,1.6
				c0,0-0.1,0.1,0,0.1c0.1,0,0.1,0,0.1-0.1c0.2-0.4,0.4-0.8,0.6-1.2c0.3-0.6,0.6-1.2,1-1.9c0.2-0.3,0.4-0.7,0.6-1
				c0.1-0.1,0.1-0.1,0.2,0c0.3,0.5,0.6,1,0.9,1.5c0.3,0.6,0.7,1.1,1,1.7c0.2,0.3,0.3,0.6,0.5,0.9c0.2,0.4,0.4,0.8,0.6,1.2
				c0.2,0.3,0.3,0.6,0.5,0.9c0,0,0,0.1,0.1,0.1c0-0.2-0.1-0.3-0.1-0.4c-0.2-0.5-0.3-1.1-0.5-1.6c-0.1-0.4-0.3-0.7-0.4-1.1
				c-0.1-0.4-0.2-0.8-0.3-1.1c-0.1-0.5-0.3-1-0.4-1.6c-0.1-0.4-0.2-0.8-0.4-1.3c0-0.1,0-0.1,0.1-0.1c1,0.2,1.9,0.5,2.8,0.8
				c0.5,0.2,1.1,0.4,1.6,0.5c0,0,0.1,0.1,0.1,0c0-0.1,0-0.1-0.1-0.1c-0.4-0.2-0.8-0.4-1.2-0.6c-0.6-0.3-1.2-0.6-1.9-1
				c-0.3-0.2-0.7-0.4-1-0.6c-0.1-0.1-0.1-0.1,0-0.2c0.5-0.3,1-0.6,1.5-0.9c0.6-0.3,1.1-0.7,1.7-1c0.3-0.2,0.6-0.3,0.9-0.5
				c0.4-0.2,0.8-0.4,1.2-0.6c0.3-0.2,0.6-0.3,0.9-0.5c0,0,0.1,0,0.1-0.1c-0.2,0-0.3,0.1-0.4,0.1c-0.5,0.2-1.1,0.3-1.6,0.5
				c-0.4,0.1-0.7,0.3-1.1,0.4c-0.4,0.1-0.8,0.2-1.1,0.3c-0.5,0.1-1,0.3-1.6,0.4c-0.4,0.1-0.8,0.2-1.3,0.4c-0.1,0-0.1,0-0.1-0.1
				c0.2-1,0.5-1.9,0.8-2.8c0.2-0.5,0.4-1.1,0.5-1.6c0,0,0.1-0.1,0-0.1c-0.1,0-0.1,0-0.1,0.1c-0.2,0.4-0.4,0.8-0.6,1.2
				c-0.3,0.6-0.6,1.2-1,1.9c-0.2,0.3-0.4,0.7-0.6,1c-0.1,0.1-0.1,0.1-0.2,0c-0.3-0.5-0.6-1-0.9-1.5c-0.3-0.6-0.7-1.1-1-1.7
				c-0.2-0.3-0.3-0.6-0.5-0.9c-0.2-0.4-0.4-0.8-0.6-1.2C314,145.5,313.9,145.2,313.6,145C313.7,145.1,313.7,145,313.6,145z"/>
		</g>
	</g>
	<g>
		<path class="st0" d="M277.2,92.6c0,0.1,0,0.2,0,0.2c0,0.1,0,0.2,0,0.3c0,0.1,0,0.1,0,0.2c0,0.1,0,0.2,0,0.4c0,0.3,0.1,0.6,0.2,0.9
			c0,0.1,0.1,0.3,0.1,0.4c0.1,0.3,0.2,0.5,0.4,0.7s0.5,0.4,0.7,0.6c0.2,0.1,0.4,0.2,0.5,0.2c0.2,0.1,0.5,0.1,0.7,0.2
			c0.1,0,0.3,0.1,0.4,0.1c0.1,0,0.2,0,0.2,0c0.1,0,0.1,0,0.2,0c0.1,0,0.1,0,0.2,0h0.1l0,0l0,0c-0.1,0-0.2,0-0.3,0
			c-0.1,0-0.2,0-0.3,0c-0.1,0-0.1,0-0.2,0c-0.1,0-0.3,0-0.4,0.1c-0.3,0-0.5,0.1-0.8,0.2c-0.4,0.1-0.7,0.2-1,0.5
			c-0.2,0.2-0.3,0.3-0.5,0.5c-0.1,0.2-0.3,0.5-0.3,0.8c-0.1,0.3-0.1,0.5-0.2,0.8c0,0.1,0,0.3-0.1,0.4c0,0.1,0,0.2,0,0.3
			c0,0.1,0,0.2,0,0.3c0,0.1,0,0.1,0,0.2l0,0l0,0c0-0.2,0-0.4,0-0.5c0-0.1,0-0.2,0-0.2c0-0.1,0-0.3-0.1-0.4c0-0.3-0.1-0.5-0.2-0.8
			c-0.1-0.4-0.2-0.7-0.5-1c-0.2-0.2-0.3-0.3-0.5-0.5c-0.2-0.1-0.5-0.3-0.8-0.3c-0.3-0.1-0.5-0.1-0.8-0.2c-0.1,0-0.3,0-0.4-0.1
			c-0.1,0-0.1,0-0.2,0c-0.1,0-0.1,0-0.2,0c-0.1,0-0.1,0-0.2,0h-0.1l0,0l0,0c0.1,0,0.2,0,0.2,0c0.1,0,0.2,0,0.3,0c0.1,0,0.1,0,0.2,0
			c0.1,0,0.2,0,0.4,0c0.3,0,0.6-0.1,0.9-0.2c0.1,0,0.2-0.1,0.3-0.1c0.3-0.1,0.5-0.2,0.7-0.4c0.2-0.2,0.4-0.3,0.5-0.6
			c0.1-0.2,0.3-0.5,0.3-0.8c0.1-0.2,0.1-0.5,0.2-0.7c0-0.1,0-0.3,0.1-0.4c0-0.1,0-0.1,0-0.2c0-0.1,0-0.2,0-0.2c0-0.1,0-0.1,0-0.2
			C277.2,92.7,277.2,92.7,277.2,92.6L277.2,92.6z"/>
	</g>
	<g>
		<path class="st0" d="M330.9,185.9c-0.1,0.1-0.1,0.1-0.2,0.2c-0.1,0.1-0.1,0.2-0.2,0.3c0,0.1-0.1,0.1-0.1,0.2
			c-0.1,0.1-0.1,0.2-0.2,0.3c-0.2,0.3-0.3,0.6-0.5,0.8c-0.1,0.1-0.1,0.3-0.2,0.4c-0.1,0.3-0.2,0.6-0.2,0.9s0.1,0.7,0.2,1
			c0.1,0.2,0.2,0.4,0.3,0.5c0.2,0.2,0.3,0.4,0.5,0.6c0.1,0.1,0.2,0.2,0.3,0.3c0.1,0.1,0.1,0.1,0.2,0.2c0.1,0.1,0.1,0.1,0.2,0.2
			c0.1,0.1,0.1,0.1,0.2,0.2l0.1,0.1l0,0l0,0c-0.1-0.1-0.2-0.1-0.3-0.2c-0.1-0.1-0.2-0.1-0.2-0.2c-0.1,0-0.1-0.1-0.2-0.1
			c-0.1-0.1-0.2-0.2-0.4-0.2c-0.3-0.1-0.5-0.3-0.8-0.4c-0.4-0.2-0.8-0.3-1.2-0.3c-0.3,0-0.5,0-0.8,0.1s-0.6,0.2-0.8,0.4
			c-0.2,0.2-0.5,0.3-0.7,0.5c-0.1,0.1-0.2,0.2-0.3,0.3c-0.1,0.1-0.1,0.1-0.2,0.2c-0.1,0.1-0.2,0.2-0.3,0.3l-0.1,0.1l0,0l0,0
			c0.1-0.2,0.2-0.3,0.3-0.5c0-0.1,0.1-0.1,0.2-0.2c0.1-0.1,0.2-0.2,0.2-0.4c0.2-0.3,0.3-0.5,0.4-0.8c0.2-0.4,0.3-0.8,0.3-1.2
			c0-0.3,0-0.5-0.1-0.8s-0.2-0.6-0.4-0.8c-0.2-0.2-0.3-0.5-0.5-0.7c-0.1-0.1-0.2-0.2-0.3-0.3l-0.1-0.1c-0.1-0.1-0.1-0.1-0.2-0.2
			c-0.1-0.1-0.1-0.1-0.2-0.2l-0.1-0.1l0,0l0,0c0.1,0.1,0.1,0.1,0.2,0.2c0.1,0.1,0.2,0.1,0.3,0.2c0.1,0,0.1,0.1,0.2,0.1
			c0.1,0.1,0.2,0.1,0.3,0.2c0.3,0.2,0.6,0.3,0.8,0.5c0.1,0.1,0.2,0.1,0.3,0.1c0.3,0.1,0.6,0.2,0.9,0.2c0.3,0,0.5,0,0.8-0.1
			c0.3-0.1,0.6-0.2,0.8-0.4c0.2-0.2,0.4-0.3,0.6-0.5c0.1-0.1,0.2-0.2,0.3-0.3l0.1-0.1c0.1-0.1,0.1-0.1,0.2-0.2l0.1-0.1
			C330.8,186,330.8,186,330.9,185.9L330.9,185.9z"/>
	</g>
	<g>
		<path class="st0" d="M153.3,101.7c0,0.1-0.1,0.1-0.1,0.2c0,0.1-0.1,0.1-0.1,0.2l-0.1,0.1c-0.1,0.1-0.1,0.2-0.2,0.2
			c-0.1,0.2-0.2,0.4-0.3,0.6c-0.1,0.1-0.1,0.2-0.1,0.3c-0.1,0.2-0.1,0.4-0.1,0.6c0,0.3,0.1,0.5,0.2,0.7c0.1,0.1,0.1,0.3,0.2,0.4
			c0.1,0.2,0.2,0.3,0.4,0.5c0.1,0.1,0.1,0.2,0.2,0.3l0.1,0.1l0.1,0.1l0.1,0.1c0,0,0,0.1,0.1,0.1l0,0l0,0c-0.1-0.1-0.1-0.1-0.2-0.2
			c-0.1,0-0.1-0.1-0.2-0.1l-0.1-0.1c-0.1-0.1-0.2-0.1-0.3-0.2c-0.2-0.1-0.4-0.2-0.6-0.3c-0.3-0.1-0.6-0.2-0.9-0.2
			c-0.2,0-0.4,0-0.6,0.1c-0.2,0.1-0.4,0.2-0.6,0.3c-0.2,0.1-0.3,0.3-0.5,0.4c-0.1,0.1-0.2,0.1-0.2,0.2l-0.1,0.1
			c-0.1,0.1-0.1,0.1-0.2,0.2l-0.1,0.1l0,0l0,0c0.1-0.1,0.2-0.2,0.2-0.3c0-0.1,0.1-0.1,0.1-0.2c0.1-0.1,0.1-0.2,0.2-0.3
			c0.1-0.2,0.2-0.4,0.3-0.6c0.1-0.3,0.2-0.6,0.2-0.9c0-0.2,0-0.4-0.1-0.6c-0.1-0.2-0.2-0.4-0.3-0.6c-0.1-0.2-0.3-0.3-0.4-0.5
			c-0.1-0.1-0.1-0.2-0.2-0.2l-0.1-0.1l-0.1-0.1l-0.1-0.1l-0.1-0.1l0,0l0,0c0.1,0,0.1,0.1,0.2,0.1s0.1,0.1,0.2,0.1l0.1,0.1
			c0.1,0.1,0.2,0.1,0.2,0.2c0.2,0.1,0.4,0.2,0.6,0.3c0.1,0,0.2,0.1,0.2,0.1c0.2,0.1,0.4,0.1,0.6,0.1c0.2,0,0.4,0,0.6-0.1
			c0.2-0.1,0.4-0.2,0.6-0.3c0.2-0.1,0.3-0.2,0.5-0.4c0.1-0.1,0.2-0.1,0.3-0.2l0.1-0.1l0.1-0.1l0.1-0.1
			C153.2,101.8,153.3,101.7,153.3,101.7L153.3,101.7z"/>
	</g>
	<g>
		<path class="st0" d="M204.6,88c-0.1,0-0.2,0-0.2,0.1c-0.1,0-0.2,0.1-0.3,0.1c-0.1,0-0.1,0-0.2,0.1c-0.1,0-0.2,0.1-0.3,0.1
			c-0.3,0.1-0.5,0.2-0.8,0.4c-0.1,0.1-0.2,0.1-0.3,0.2c-0.2,0.1-0.4,0.3-0.6,0.5c-0.2,0.2-0.3,0.5-0.4,0.8c0,0.2-0.1,0.4-0.1,0.5
			c0,0.2,0,0.5,0,0.7c0,0.1,0,0.3,0,0.4c0,0.1,0,0.2,0,0.2c0,0.1,0,0.1,0,0.2c0,0.1,0,0.1,0,0.2v0.1l0,0l0,0c0-0.1-0.1-0.2-0.1-0.3
			c0-0.1-0.1-0.2-0.1-0.2c0-0.1,0-0.1-0.1-0.2c0-0.1-0.1-0.2-0.1-0.4c-0.1-0.2-0.2-0.5-0.3-0.7c-0.2-0.3-0.4-0.6-0.7-0.9
			c-0.2-0.1-0.4-0.3-0.6-0.3c-0.3-0.1-0.5-0.1-0.8-0.1s-0.5,0-0.8,0c-0.1,0-0.3,0-0.4,0c-0.1,0-0.2,0-0.2,0c-0.1,0-0.2,0-0.3,0h-0.1
			l0,0l0,0c0.2,0,0.3-0.1,0.5-0.2c0.1,0,0.1,0,0.2-0.1c0.1,0,0.2-0.1,0.4-0.1c0.2-0.1,0.5-0.2,0.7-0.3c0.3-0.2,0.6-0.4,0.9-0.7
			c0.2-0.2,0.3-0.4,0.3-0.6c0.1-0.3,0.1-0.5,0.1-0.8s0-0.5,0-0.8c0-0.1,0-0.3,0-0.4c0-0.1,0-0.1,0-0.2c0-0.1,0-0.1,0-0.2
			c0-0.1,0-0.1,0-0.2v-0.1l0,0l0,0c0,0.1,0,0.1,0.1,0.2c0,0.1,0.1,0.2,0.1,0.3c0,0.1,0,0.1,0.1,0.2c0,0.1,0.1,0.2,0.1,0.3
			c0.1,0.3,0.2,0.5,0.3,0.8c0,0.1,0.1,0.2,0.2,0.3c0.1,0.2,0.3,0.4,0.5,0.6c0.2,0.2,0.4,0.3,0.6,0.3c0.3,0.1,0.5,0.1,0.8,0.1
			c0.2,0,0.5,0,0.7,0c0.1,0,0.3,0,0.4,0c0.1,0,0.1,0,0.2,0c0.1,0,0.2,0,0.2,0c0.1,0,0.1,0,0.2,0C204.5,88,204.5,88,204.6,88
			L204.6,88z"/>
	</g>
	<g>
		<path class="st0" d="M270,147.8c-0.1,0-0.1,0-0.2,0.1c-0.1,0-0.1,0-0.2,0.1h-0.1c-0.1,0-0.2,0.1-0.3,0.1c-0.2,0.1-0.4,0.2-0.6,0.3
			c-0.1,0-0.2,0.1-0.3,0.2c-0.2,0.1-0.3,0.3-0.5,0.4c-0.1,0.2-0.2,0.4-0.3,0.7c0,0.1-0.1,0.3-0.1,0.4c0,0.2,0,0.4,0,0.6
			c0,0.1,0,0.2,0,0.3c0,0.1,0,0.1,0,0.2s0,0.1,0,0.2c0,0.1,0,0.1,0,0.2v0.1l0,0l0,0c0-0.1,0-0.2-0.1-0.2c0-0.1,0-0.1-0.1-0.2v-0.1
			c0-0.1-0.1-0.2-0.1-0.3c-0.1-0.2-0.2-0.4-0.3-0.6c-0.1-0.3-0.3-0.5-0.5-0.7c-0.1-0.1-0.3-0.2-0.5-0.3c-0.2-0.1-0.4-0.1-0.7-0.1
			c-0.2,0-0.4,0-0.6,0c-0.1,0-0.2,0-0.3,0c-0.1,0-0.1,0-0.2,0c-0.1,0-0.2,0-0.3,0h-0.1l0,0l0,0c0.1,0,0.3-0.1,0.4-0.1
			c0.1,0,0.1,0,0.2-0.1c0.1,0,0.2-0.1,0.3-0.1c0.2-0.1,0.4-0.2,0.6-0.3c0.3-0.1,0.5-0.3,0.7-0.5c0.1-0.1,0.2-0.3,0.3-0.5
			c0.1-0.2,0.1-0.4,0.1-0.7c0-0.2,0-0.4,0-0.6c0-0.1,0-0.2,0-0.3v-0.1c0-0.1,0-0.1,0-0.2s0-0.1,0-0.2v-0.1l0,0l0,0
			c0,0.1,0,0.1,0.1,0.2c0,0.1,0,0.1,0.1,0.2v0.1c0,0.1,0.1,0.2,0.1,0.3c0.1,0.2,0.2,0.4,0.3,0.6c0,0.1,0.1,0.1,0.1,0.2
			c0.1,0.2,0.3,0.3,0.4,0.5c0.1,0.1,0.3,0.2,0.5,0.3c0.2,0.1,0.4,0.1,0.7,0.1c0.2,0,0.4,0,0.6,0c0.1,0,0.2,0,0.3,0h0.1
			c0.1,0,0.1,0,0.2,0h0.1C269.8,147.9,269.9,147.8,270,147.8L270,147.8z"/>
	</g>
	<g>
		<path class="st0" d="M94,177.1c-0.1,0-0.1,0-0.2,0.1c-0.1,0-0.2,0-0.2,0.1h-0.1c-0.1,0-0.2,0.1-0.3,0.1c-0.2,0.1-0.4,0.2-0.6,0.3
			c-0.1,0-0.2,0.1-0.3,0.2c-0.2,0.1-0.3,0.3-0.5,0.4c-0.2,0.2-0.2,0.4-0.3,0.7c0,0.1-0.1,0.3-0.1,0.5c0,0.2,0,0.4,0,0.6
			c0,0.1,0,0.2,0,0.3c0,0.1,0,0.1,0,0.2s0,0.1,0,0.2c0,0.1,0,0.1,0,0.2v0.1l0,0l0,0c0-0.1,0-0.2-0.1-0.2c0-0.1,0-0.1-0.1-0.2v-0.1
			c0-0.1-0.1-0.2-0.1-0.3c-0.1-0.2-0.2-0.4-0.3-0.6c-0.1-0.3-0.3-0.5-0.6-0.7c-0.2-0.1-0.3-0.2-0.5-0.3c-0.2-0.1-0.4-0.1-0.7-0.1
			c-0.2,0-0.4,0-0.6,0c-0.1,0-0.2,0-0.3,0c-0.1,0-0.1,0-0.2,0s-0.2,0-0.3,0h-0.1l0,0l0,0c0.1,0,0.3-0.1,0.4-0.1s0.1,0,0.2-0.1
			c0.1,0,0.2-0.1,0.3-0.1c0.2-0.1,0.4-0.2,0.6-0.3c0.3-0.1,0.5-0.3,0.7-0.6c0.1-0.2,0.2-0.3,0.3-0.5c0.1-0.2,0.1-0.4,0.1-0.7
			c0-0.2,0-0.4,0-0.6c0-0.1,0-0.2,0-0.3v-0.1c0-0.1,0-0.1,0-0.2s0-0.1,0-0.2v-0.1l0,0l0,0c0,0.1,0,0.1,0.1,0.2c0,0.1,0,0.1,0.1,0.2
			v0.1c0,0.1,0.1,0.2,0.1,0.3c0.1,0.2,0.2,0.4,0.3,0.6c0,0.1,0.1,0.2,0.1,0.2c0.1,0.2,0.3,0.3,0.4,0.5c0.2,0.1,0.3,0.2,0.5,0.3
			c0.2,0.1,0.4,0.1,0.7,0.1c0.2,0,0.4,0,0.6,0c0.1,0,0.2,0,0.3,0h0.1c0.1,0,0.1,0,0.2,0h0.1C93.9,177.1,93.9,177.1,94,177.1
			L94,177.1z"/>
	</g>
	<g>
		<path class="st0" d="M195.4,146.1c-0.1,0-0.1,0-0.2-0.1c-0.1,0-0.2,0-0.3-0.1c-0.1,0-0.1,0-0.2,0c-0.1,0-0.2,0-0.3-0.1
			c-0.3,0-0.5-0.1-0.8-0.1c-0.1,0-0.2,0-0.4,0c-0.2,0-0.5,0.1-0.7,0.2c-0.3,0.1-0.5,0.3-0.7,0.5c-0.1,0.1-0.2,0.3-0.3,0.4
			c-0.1,0.2-0.2,0.4-0.3,0.6c-0.1,0.1-0.1,0.2-0.2,0.3c0,0.1-0.1,0.1-0.1,0.2c0,0.1-0.1,0.1-0.1,0.2c0,0.1-0.1,0.1-0.1,0.2v0.1l0,0
			l0,0c0-0.1,0-0.2,0.1-0.3c0-0.1,0-0.2,0.1-0.2c0-0.1,0-0.1,0-0.2s0-0.2,0.1-0.4c0-0.2,0.1-0.5,0.1-0.7c0-0.3,0-0.7-0.1-1
			c-0.1-0.2-0.2-0.4-0.3-0.6c-0.2-0.2-0.4-0.4-0.6-0.5c-0.2-0.1-0.4-0.2-0.6-0.4c-0.1-0.1-0.2-0.1-0.3-0.2c-0.1,0-0.1-0.1-0.2-0.1
			c-0.1,0-0.2-0.1-0.3-0.1h-0.1l0,0l0,0c0.2,0,0.3,0.1,0.5,0.1c0.1,0,0.1,0,0.2,0c0.1,0,0.2,0,0.4,0.1c0.2,0,0.5,0.1,0.7,0.1
			c0.3,0,0.7,0,1-0.1c0.2-0.1,0.4-0.2,0.6-0.3c0.2-0.2,0.4-0.4,0.5-0.6c0.1-0.2,0.2-0.4,0.4-0.6c0.1-0.1,0.1-0.2,0.2-0.3
			c0-0.1,0-0.1,0.1-0.2c0-0.1,0.1-0.1,0.1-0.2c0-0.1,0.1-0.1,0.1-0.2v-0.1l0,0l0,0c0,0.1,0,0.1-0.1,0.2c0,0.1,0,0.2-0.1,0.3
			c0,0.1,0,0.1,0,0.2s0,0.2-0.1,0.3c0,0.3-0.1,0.5-0.1,0.8c0,0.1,0,0.2,0,0.3c0,0.2,0.1,0.5,0.1,0.7c0.1,0.2,0.2,0.4,0.3,0.6
			c0.2,0.2,0.4,0.4,0.6,0.5s0.4,0.2,0.6,0.3c0.1,0.1,0.2,0.1,0.3,0.2c0,0,0.1,0,0.1,0.1c0.1,0,0.1,0.1,0.2,0.1
			C195.3,146,195.3,146,195.4,146.1C195.2,146.1,195.3,146.1,195.4,146.1L195.4,146.1z"/>
	</g>
	<g>
		<path class="st0" d="M320.7,126.2c-0.1,0-0.1,0-0.2,0.1c-0.1,0-0.2,0.1-0.3,0.1c-0.1,0-0.1,0-0.2,0c-0.1,0-0.2,0.1-0.3,0.1
			c-0.2,0.1-0.5,0.2-0.7,0.3c-0.1,0-0.2,0.1-0.3,0.2c-0.2,0.1-0.4,0.3-0.5,0.5c-0.2,0.2-0.3,0.5-0.3,0.8c0,0.2-0.1,0.3-0.1,0.5
			c0,0.2,0,0.4,0,0.7c0,0.1,0,0.2,0,0.4c0,0.1,0,0.1,0,0.2c0,0.1,0,0.1,0,0.2c0,0.1,0,0.1,0,0.2v0.1l0,0l0,0c0-0.1-0.1-0.2-0.1-0.3
			c0-0.1-0.1-0.2-0.1-0.2c0-0.1,0-0.1,0-0.2s-0.1-0.2-0.1-0.3c-0.1-0.2-0.2-0.4-0.3-0.6c-0.2-0.3-0.4-0.6-0.6-0.8
			c-0.2-0.1-0.4-0.2-0.6-0.3c-0.2-0.1-0.5-0.1-0.7-0.1c-0.2,0-0.5,0-0.7,0c-0.1,0-0.2,0-0.4,0c-0.1,0-0.1,0-0.2,0
			c-0.1,0-0.2,0-0.3,0h-0.1l0,0l0,0c0.2,0,0.3-0.1,0.4-0.1c0.1,0,0.1,0,0.2-0.1c0.1,0,0.2-0.1,0.3-0.1c0.2-0.1,0.4-0.2,0.6-0.3
			c0.3-0.2,0.6-0.4,0.8-0.6c0.1-0.2,0.2-0.4,0.3-0.6c0.1-0.2,0.1-0.5,0.1-0.7s0-0.5,0-0.7c0-0.1,0-0.2,0-0.4c0-0.1,0-0.1,0-0.2
			s0-0.1,0-0.2c0-0.1,0-0.1,0-0.2v-0.1l0,0l0,0c0,0.1,0,0.1,0.1,0.2c0,0.1,0.1,0.2,0.1,0.2c0,0.1,0,0.1,0.1,0.2
			c0,0.1,0.1,0.2,0.1,0.3c0.1,0.2,0.2,0.5,0.3,0.7c0,0.1,0.1,0.2,0.1,0.3c0.1,0.2,0.3,0.4,0.5,0.5c0.2,0.1,0.4,0.2,0.6,0.3
			c0.2,0.1,0.5,0.1,0.7,0.1s0.4,0,0.6,0c0.1,0,0.2,0,0.4,0h0.1c0.1,0,0.1,0,0.2,0c0.1,0,0.1,0,0.2,0
			C320.5,126.2,320.6,126.2,320.7,126.2L320.7,126.2z"/>
	</g>
	<g>
		<g>
			<path class="st0" d="M225.6,150.8L225.6,150.8L225.6,150.8c-0.1,0-0.1,0-0.2,0C225.5,150.8,225.5,150.8,225.6,150.8L225.6,150.8z
				"/>
		</g>
		<g>
			<path class="st0" d="M225.6,150.8L225.6,150.8L225.6,150.8L225.6,150.8z"/>
		</g>
	</g>
	<g>
		<path class="st0" d="M225.3,64.8c-88.1,0-159.9,71.8-159.9,159.9c0,10.9,1.1,21.6,3.2,31.9c0.4,2.2,0.9,4.2,1.5,6.4
			c1.1,4.5,2.4,8.9,3.8,13.3c1,2.9,2.1,5.9,3.2,8.7c3.1,7.7,6.8,14.9,11,21.9c1.5,2.5,2.9,4.8,4.5,7.2c3.7,5.5,7.9,10.8,12.2,15.8
			c1.5,1.7,2.9,3.3,4.5,4.9c3.8,4,8,8,12.2,11.6c2.4,2.1,4.8,4,7.3,5.9c26.8,20.3,60.3,32.4,96.4,32.4s69.6-12.1,96.4-32.4
			c2.6-1.9,5-3.9,7.4-6c4.3-3.6,8.3-7.6,12.3-11.6c1.6-1.6,3-3.2,4.5-4.9c4.3-5,8.3-10.2,12.1-15.6c1.6-2.3,3-4.6,4.5-7.1
			c4.2-6.9,7.9-14.1,10.9-21.7c1.2-2.9,2.4-5.9,3.3-8.8c1.5-4.4,2.8-8.8,3.9-13.4c0.5-2.1,1-4.2,1.5-6.4c2.1-10.3,3.2-21,3.2-31.9
			C385.2,136.5,313.4,64.8,225.3,64.8z M225.3,378.1c-25.1,0-48.9-6.1-69.8-16.8c1.5,0.2,3.1,0.3,4.9,0.3c9,0,13.7-2.7,17.9-5.2
			c3.9-2.4,7.4-4.3,14.6-4.3c7.3,0,10.7,2.1,14.6,4.3c4.1,2.5,8.8,5.2,17.9,5.2s13.7-2.7,17.9-5.2c3.9-2.4,7.4-4.3,14.6-4.3
			c7.3,0,10.7,2.1,14.6,4.3c4.1,2.5,8.9,5.2,17.9,5.2c1.6,0,3-0.1,4.4-0.2C274.1,372,250.3,378.1,225.3,378.1z M319.3,345.8
			c-6.6,0.7-10.5,2.9-14,5c-3.9,2.4-7.4,4.3-14.6,4.3s-10.7-2-14.6-4.3c-4.1-2.5-8.8-5.2-17.9-5.2c-9,0-13.7,2.7-17.9,5.2
			c-3.9,2.4-7.4,4.3-14.6,4.3c-7.3,0-10.7-2-14.6-4.3c-4.1-2.5-8.8-5.2-17.9-5.2c-9,0-13.7,2.7-17.9,5.2c-3.9,2.4-7.4,4.3-14.6,4.3
			c-7.3,0-10.7-2-14.6-4.3c-3.6-2.2-7.7-4.5-14.5-5.1c-5.7-4.4-11.1-9.2-16.1-14.4c3.2-1.8,6.7-3.2,12.7-3.2
			c7.3,0,10.7,2.1,14.6,4.3c4.1,2.5,8.9,5.2,17.9,5.2s13.7-2.7,17.9-5.2c3.9-2.4,7.4-4.3,14.6-4.3c7.3,0,10.7,2.1,14.6,4.3
			c4.1,2.5,8.8,5.2,17.9,5.2s13.7-2.7,17.9-5.2c3.9-2.4,7.4-4.3,14.6-4.3c7.3,0,10.7,2.1,14.6,4.3c4.1,2.5,8.9,5.2,17.9,5.2
			c8.9,0,13.7-2.7,17.9-5.2c3.9-2.4,7.4-4.3,14.6-4.3c5.9,0,9.2,1.3,12.4,3C330.5,336.5,325.1,341.4,319.3,345.8z M340,326.5
			c-3.9-2.3-8.5-4.6-16.9-4.6c-9,0-13.7,2.7-17.9,5.2c-3.9,2.4-7.4,4.3-14.6,4.3s-10.7-2.1-14.6-4.3c-4.1-2.5-8.8-5.2-17.9-5.2
			c-9,0-13.7,2.7-17.9,5.2c-3.9,2.4-7.4,4.3-14.6,4.3c-7.3,0-10.7-2.1-14.6-4.3c-4.1-2.5-8.8-5.2-17.9-5.2c-9,0-13.7,2.7-17.9,5.2
			c-3.9,2.4-7.4,4.3-14.6,4.3c-7.3,0-10.7-2.1-14.6-4.3c-4.1-2.5-8.8-5.2-17.9-5.2c-8.4,0-13.2,2.5-17.2,4.8
			c-3.7-4.1-7.2-8.4-10.4-13c5.9-0.8,9.5-2.9,12.9-4.9c3.9-2.4,7.4-4.3,14.6-4.3c7.3,0,10.7,2,14.6,4.3c4.1,2.5,8.9,5.2,17.9,5.2
			s13.7-2.7,17.9-5.2c3.9-2.4,7.4-4.3,14.6-4.3s10.7,2,14.6,4.3c4.1,2.5,8.8,5.2,17.9,5.2s13.7-2.7,17.9-5.2
			c3.9-2.4,7.4-4.3,14.6-4.3c7.3,0,10.7,2,14.6,4.3c4.1,2.5,8.9,5.2,17.9,5.2c8.9,0,13.7-2.7,17.9-5.2c3.9-2.4,7.4-4.3,14.6-4.3
			c7.3,0,10.7,2,14.6,4.3c3.2,1.9,6.8,4,12.5,4.8C347.1,318.1,343.7,322.4,340,326.5z M354.4,307.6c-6.4-0.2-9.6-2.2-13.3-4.3
			c-4.1-2.5-8.8-5.2-17.9-5.2s-13.7,2.7-17.9,5.2c-3.9,2.4-7.4,4.3-14.6,4.3s-10.7-2.1-14.6-4.3c-4.1-2.5-8.8-5.2-17.9-5.2
			c-9,0-13.7,2.7-17.9,5.2c-3.9,2.4-7.4,4.3-14.6,4.3c-7.3,0-10.7-2.1-14.6-4.3c-4.1-2.5-8.8-5.2-17.9-5.2c-9,0-13.7,2.7-17.9,5.2
			c-3.9,2.4-7.4,4.3-14.6,4.3c-7.3,0-10.7-2.1-14.6-4.3c-4.1-2.5-8.8-5.2-17.9-5.2s-13.7,2.7-17.9,5.2c-3.8,2.3-7.1,4.1-13.7,4.3
			c-3.8-6-7.3-12.2-10.3-18.7c2.6,0.8,5.6,1.3,9.3,1.3c9,0,13.7-2.7,17.9-5.2c3.9-2.4,7.4-4.3,14.6-4.3c7.3,0,10.7,2,14.6,4.3
			c4.1,2.5,8.9,5.2,17.9,5.2s13.7-2.7,17.9-5.2c3.9-2.4,7.4-4.3,14.6-4.3s10.7,2,14.6,4.3c4.1,2.5,8.8,5.2,17.9,5.2
			s13.7-2.7,17.9-5.2c3.9-2.4,7.4-4.3,14.6-4.3c7.3,0,10.7,2,14.6,4.3c4.1,2.5,8.9,5.2,17.9,5.2c8.9,0,13.7-2.7,17.9-5.2
			c3.9-2.4,7.4-4.3,14.6-4.3c7.3,0,10.7,2,14.6,4.3c4.1,2.5,8.9,5.2,17.9,5.2c3.5,0,6.4-0.4,8.8-1.1
			C361.6,295.5,358.2,301.7,354.4,307.6z M368.1,280.8c-3.1,1.8-6.6,3-12.5,3c-7.3,0-10.7-2.1-14.6-4.3c-4.1-2.5-8.8-5.2-17.9-5.2
			s-13.7,2.7-17.9,5.2c-3.9,2.4-7.4,4.3-14.6,4.3s-10.7-2.1-14.6-4.3c-4.1-2.5-8.8-5.2-17.9-5.2c-9,0-13.7,2.7-17.9,5.2
			c-3.9,2.4-7.4,4.3-14.6,4.3c-7.3,0-10.7-2.1-14.6-4.3c-4.1-2.5-8.8-5.2-17.9-5.2c-9,0-13.7,2.7-17.9,5.2
			c-3.9,2.4-7.4,4.3-14.6,4.3s-10.7-2.1-14.6-4.3c-4.1-2.5-8.8-5.2-17.9-5.2s-13.7,2.7-17.9,5.2c-3.9,2.4-7.4,4.3-14.6,4.3
			c-6.2,0-9.6-1.5-13-3.3c-2.3-5.7-4.1-11.6-5.7-17.6h297.3C372.4,269,370.5,275,368.1,280.8z M126.4,256.5l5.8-27l3,27H126.4z
			 M248.9,176.9l-24.1,23.8l-24.1-23.8H248.9z M204,170.6l20.8-13l20.8,13H204z M174,215.1l44.6-5.9L192.2,253L174,215.1z
			 M186.9,256.5h-42.2l24.2-37.5L186.9,256.5z M224.8,211.4l27.2,45.2h-54.4L224.8,211.4z M230.9,209.2l44.6,5.9L257.3,253
			L230.9,209.2z M280.6,219l24.2,37.5h-42.2L280.6,219z M285.8,215.3l27.6-2.1l-4.7,37.4L285.8,215.3z M281.9,209.2l-16.1-26.5
			l42.6,24.5L281.9,209.2z M265.2,175l11-2.7l19.6,20.2L265.2,175z M274.1,208.4l-42.4-5.6l24.4-24L274.1,208.4z M257.3,170.3
			L257.3,170.3l-11.5-7.2l18.8,5.4L257.3,170.3z M192.3,170.3l-7.4-1.8l18.9-5.4L192.3,170.3z M193.5,178.9l24.4,24l-42.4,5.6
			L193.5,178.9z M183.7,182.7l-16.1,26.5l0,0l-26.4-2L183.7,182.7z M154.4,192.2l18.9-19.7l11,2.7L154.4,192.2z M163.7,215.3
			L141,250.5l-4.2-37.2L163.7,215.3z M314.3,256.5l3.5-28.2l6.3,28.2H314.3z M375.5,256.5h-44.9l-10.5-47.3c0-0.1,0-0.2-0.1-0.3
			v-0.1v-0.1v-0.1c-0.1-0.4-0.4-0.7-0.6-1l0,0l-39.8-40.8l-0.1-0.1c-0.1-0.1-0.2-0.2-0.3-0.3c-0.1-0.1-0.3-0.2-0.4-0.3
			c-0.1,0-0.1-0.1-0.2-0.1c-0.1,0-0.1-0.1-0.2-0.1c-0.2-0.1-0.3-0.1-0.5-0.2l-52.2-14.9h-0.1c0,0,0,0-0.1,0c0,0,0,0-0.1,0l0,0h-0.1
			c-0.1,0-0.1,0-0.2,0c-0.1,0-0.3,0-0.4,0h-0.1c-0.1,0-0.3,0-0.4,0c-0.1,0-0.1,0-0.2,0H224l0,0c0,0,0,0-0.1,0h-0.1l-52.2,14.9h-0.1
			c-0.1,0-0.2,0.1-0.4,0.1c-0.1,0-0.2,0.1-0.3,0.1c-0.1,0-0.1,0.1-0.2,0.1c-0.1,0.1-0.2,0.1-0.2,0.2l-0.1,0.1
			c-0.1,0.1-0.1,0.1-0.2,0.2l-0.1,0.1l-39.1,40.8l-0.1,0.1l-0.1,0.1c0,0-0.1,0.1-0.1,0.2c-0.2,0.2-0.3,0.5-0.4,0.8
			c0,0.1-0.1,0.2-0.1,0.4v0.1L120,256.4H75.1c-2.2-10.3-3.3-20.9-3.3-31.9C71.8,139.9,140.6,71,225.3,71
			c84.6,0,153.5,68.8,153.5,153.5C378.8,235.6,377.6,246.2,375.5,256.5z"/>
	</g>
	<g>
		<g>
			<path class="st0" d="M349.7,210.1c0,0.4,0,0.7,0,1.1v-1.3C349.7,209.9,349.7,210,349.7,210.1z"/>
		</g>
		<g>
			<path class="st0" d="M370.6,241.3c-0.2,1.1-1.2,1.8-2.2,1.8c-0.2,0-0.3,0-0.5-0.1c-0.5-0.1-8.5-2-13.7-7.1v21.3
				c0,1.3-1,2.3-2.3,2.3c-1.3,0-2.3-1-2.3-2.3v-21.3c-5.2,5.1-13.3,7-13.7,7.1c-0.2,0-0.3,0.1-0.5,0.1c-1,0-2-0.7-2.2-1.8
				c-0.3-1.2,0.5-2.4,1.7-2.7c0.1,0,3.7-0.9,7.5-2.8c3.6-2.1,7.4-5.2,7.4-9.9v-4.1c-3.6,3.6-8.6,5.2-12,5.6c-0.1,0-0.2,0-0.3,0
				c-1.1,0-2.1-0.9-2.3-2c-0.1-1.3,0.8-2.4,2-2.5c0.5-0.1,12-1.6,12.5-11.7l0,0c0-0.3,0-0.7,0-1.1c0-0.1,0-0.1,0-0.2v-1.9
				c-3.6,4.1-8,4.9-8.1,4.9c-1.2,0.2-2.4-0.7-2.6-1.9c-0.2-1.2,0.7-2.4,1.9-2.6c0.4-0.1,8.8-1.7,8.8-14.1v-0.1c0-1.3,1-2.3,2.3-2.3
				c0.6,0,1.2,0.3,1.6,0.7c0.4,0.4,0.7,1,0.7,1.6v0.1c0,12.5,8.4,14.1,8.8,14.1c1.2,0.2,2.1,1.4,1.9,2.6c-0.2,1.1-1.1,1.9-2.2,1.9
				c-0.1,0-0.2,0-0.3,0c-0.1,0-4.5-0.8-8.1-4.9v1.8c0,0.1,0,0.2,0,0.3s0,0.2,0,0.3v0.8c0-0.1,0-0.2,0-0.3
				c0.4,10.2,12,11.7,12.5,11.8c1.3,0.2,2.1,1.3,2,2.5c-0.1,1.2-1.1,2-2.3,2c-0.1,0-0.2,0-0.3,0c-3.3-0.4-8.3-2-12-5.6v3.9
				c0,0.1,0,0.2,0,0.2c0,9.4,14.6,12.8,14.7,12.8C370.2,238.8,370.9,240.1,370.6,241.3z"/>
		</g>
		<g>
			<path class="st0" d="M354.3,211.1L354.3,211.1c0,0.1,0,0.2,0,0.3v-0.8C354.3,210.7,354.3,210.9,354.3,211.1z"/>
		</g>
		<g>
			<path class="st0" d="M349.7,210.1c0,0.4,0,0.7,0,1.1v-0.9C349.7,210.2,349.7,210.1,349.7,210.1z"/>
			<path class="st0" d="M354.3,211.1L354.3,211.1c0,0.1,0,0.2,0,0.3v-0.8C354.3,210.7,354.3,210.9,354.3,211.1z"/>
		</g>
		<g>
			<path class="st1" d="M352,194.4"/>
		</g>
	</g>
	<g>
		<g>
			<path class="st0" d="M96.4,211.1L96.4,211.1c0,0.1,0,0.1,0,0.2v-0.7C96.4,210.8,96.4,211,96.4,211.1z"/>
			<path class="st0" d="M99.6,223.8c0.1,0.1,0.2,0.1,0.3,0.2C99.8,223.9,99.7,223.8,99.6,223.8z"/>
			<path class="st0" d="M117.3,241.3c-0.2,1.1-1.2,1.8-2.2,1.8c-0.2,0-0.3,0-0.5-0.1c-0.5-0.1-8.5-2-13.7-7.1v21.3
				c0,1.3-1,2.3-2.3,2.3s-2.3-1-2.3-2.3v-21.3c-5.2,5.1-13.3,7-13.7,7.1c-0.2,0-0.3,0.1-0.5,0.1c-1,0-2-0.7-2.2-1.8
				c-0.3-1.2,0.5-2.4,1.7-2.7c0.1,0,3.7-0.9,7.5-2.8c3.6-2.1,7.3-5.2,7.3-9.9v-4.1c-3.6,3.5-8.6,5.2-12,5.6c-0.1,0-0.2,0-0.3,0
				c-1.1,0-2.1-0.9-2.3-2c-0.1-1.3,0.8-2.4,2-2.5c0.5-0.1,12-1.5,12.5-11.6v-0.1l0,0c0-0.2,0-0.4,0-0.6v-2.6c-3.6,4.1-8,4.9-8.1,4.9
				c-1.2,0.2-2.4-0.7-2.6-1.9c-0.2-1.2,0.7-2.4,1.9-2.6c0.4-0.1,8.8-1.7,8.8-14.1v-0.1c0-1.3,1-2.3,2.3-2.3l0,0c1.3,0,2.3,1,2.3,2.3
				v0.1c0,12.5,8.5,14,8.8,14.1c1.2,0.2,2.1,1.4,1.9,2.6c-0.2,1.1-1.1,1.9-2.2,1.9c-0.1,0-0.2,0-0.3,0c-0.1,0-4.5-0.8-8.1-4.9v1.5
				c0,0.2,0,0.4,0,0.6c0,0.3,0,0.5,0,0.8l0,0c0.4,10.2,12,11.7,12.5,11.8c1.2,0.2,2.1,1.3,2,2.5c-0.1,1.2-1.1,2-2.3,2
				c-0.1,0-0.2,0-0.3,0c-3.3-0.4-8.3-2-12-5.6v3.9c0,0.1,0,0.2,0,0.3c0,9.4,14.6,12.8,14.7,12.8
				C116.8,238.8,117.6,240.1,117.3,241.3z"/>
		</g>
		<g>
			<path class="st0" d="M99.6,223.8c0.1,0.1,0.2,0.1,0.3,0.2C99.8,223.9,99.7,223.8,99.6,223.8z"/>
		</g>
		<g>
			<path class="st1" d="M98.7,194.4"/>
		</g>
	</g>
</g>
<g>
	<path class="st0" d="M206.4,20.3c-0.3-4.7-0.5-7.9-1-11.5c0.9,0,2.1,0.1,3.4,0c1.4-0.1,2.5-0.3,3.4-0.4c0,3.7,0.1,6.9,0.3,11.6
		l0.3,5.7c0.2,3.1,0.4,6.3,0.6,8.4c3.1-0.2,6.3-0.5,9.5-1.1c0,0.6-0.1,1-0.1,1.9c0.1,0.9,0.2,1.3,0.3,1.8c-1.5,0-3.5,0-7.3,0.2
		c-6.8,0.4-7.9,0.6-8.8,0.7c0-3.7-0.1-6.9-0.3-11.6L206.4,20.3z"/>
	<path class="st0" d="M227,18.8c2.3-1.8,5.3-2.7,7.9-2.6c4.4,0.2,7.6,2.2,7.3,7.2c-0.2,3.5-0.4,6.5-0.6,9.5c-0.1,2.6,0.6,2.9,2.3,3
		v1c-1.6,0.8-2.6,1-3.9,0.9c-2-0.1-3.2-1.3-3.8-3.2c-1.4,1.7-3,2.9-5.6,2.8c-4.2-0.2-5.8-3.1-5.7-5.8c0.2-3.6,2.7-5.1,6.5-5.8
		c4.7-0.9,5.2-1.2,5.2-2.7c0.1-2-1.3-3.7-3.8-3.8c-1.9-0.1-4.2,0.9-5.1,2.1h-0.3L227,18.8z M236.6,26.2c-2.4,1.2-5.6,0.9-5.8,5.1
		c-0.1,2,0.8,3.2,2.2,3.3c1.8,0.1,3.2-1.3,3.3-4C236.5,28.2,236.6,27.2,236.6,26.2z"/>
	<path class="st0" d="M249.1,20.8c0.8-5.4,1.4-9.6,1.9-14.3c0.7,0.2,1.9,0.5,3.1,0.7c1.2,0.2,2.4,0.3,3.1,0.3
		c-0.9,4.6-1.7,8.8-3.3,19.4c-0.1,0.7-0.1,0.9,0.1,0.9c0.5,0.1,4.1-3.1,9.2-7.9c0.6,0.2,1.2,0.4,1.9,0.5c0.6,0.1,1.3,0.1,2.3,0.2
		c-1.7,1.4-7.1,5.3-8.5,6.5c0.5,1.2,5.1,11.9,5.5,13.5c-1.1-0.3-2.2-0.5-3.2-0.7s-2.1-0.2-3.2-0.3c-0.5-1.4-3.8-10.4-4.4-10.5
		c-0.3,0-0.3,0.1-0.9,4c-0.2,1.5-0.6,4.5-0.6,5.5c-1-0.2-2-0.5-2.9-0.7c-1-0.2-2-0.2-3-0.3c0.9-4.6,1.7-8.8,2.5-14.2L249.1,20.8z"/>
	<path class="st0" d="M273.8,32.6c-1.2,4.4-0.4,8.1,3.4,9.1c1.9,0.5,3.7,0.3,5.5-0.5l0.4,0.5l-1.5,2c-1.6,0.7-3.6,1-6.6,0.2
		c-5.3-1.4-9-5.8-7.1-12.8s6.7-9.3,12.1-7.9c5.2,1.4,7.3,5.6,5.8,11.2c-0.2,0.7-0.3,1-0.4,1.3L273.8,32.6z M280.5,32.5
		c1-4.1,0.9-6.9-1.2-7.5c-2.4-0.6-4.1,2.7-5,5.8L280.5,32.5z"/>
	<path class="st0" d="M323.9,31.4c0.5,0.4,1,0.7,1.6,1s1.2,0.4,1.8,0.6c-5.2,4.8-15.4,14.1-22.4,21.5c-0.5-0.3-1-0.7-1.6-1
		s-1.2-0.4-1.8-0.6c0.6-7.6,1.5-24,1.6-30.9c1.1,0.7,2.2,1.2,3.3,1.7s2.3,0.9,3.4,1.3c-0.9,6.4-1.3,14.8-1.9,22.2
		C313.5,42,319.2,36.3,323.9,31.4z"/>
	<path class="st0" d="M323,51.5c1.7-2.9,3.1-5.5,4.4-8.2c0.6,0.5,1.5,1.1,2.6,1.8c1.1,0.7,2.2,1.1,2.8,1.4c-1.7,2.4-3.3,4.9-5,7.8
		l-0.8,1.4c-1.7,2.9-3.1,5.5-4.4,8.2c-0.6-0.4-1.5-1.1-2.6-1.8c-1.1-0.7-2.1-1.1-2.8-1.4c1.7-2.4,3.3-4.9,5-7.8L323,51.5z
		 M335.8,35.2c1.6,0.9,2.1,2.9,1.2,4.5c-0.9,1.6-2.9,2.1-4.5,1.2s-2.1-2.9-1.2-4.5C332.2,34.8,334.2,34.2,335.8,35.2z"/>
	<path class="st0" d="M336.6,60.8c-2.6,3.7-3.1,7.5,0,9.7c1.6,1.1,3.3,1.6,5.3,1.4l0.2,0.6l-2.1,1.4c-1.7,0.1-3.7-0.3-6.3-2.1
		c-4.4-3.1-6.4-8.5-2.2-14.5c4.2-5.9,9.5-6.4,14.1-3.2c4.4,3.1,5,7.7,1.6,12.5c-0.4,0.6-0.6,0.9-0.8,1.1L336.6,60.8z M342.9,63
		c2.3-3.5,3.2-6.2,1.4-7.4c-2-1.4-4.8,1.1-6.7,3.7L342.9,63z"/>
	<path class="st0" d="M362.6,87.9c4.4-2.5,8.7-5.1,12.9-7.8c0.3,0.4,0.7,0.9,1.1,1.3s0.9,0.6,1.4,1c-2.3,0.7-13,6.6-18.9,10.1
		c-0.5-0.6-1-1.2-1.5-1.7c-0.6-0.5-1.2-1-1.9-1.4c2.2-4.3,4.5-9.2,6.3-12.9l-0.1-0.1c-4.2,2.4-8.3,4.8-12.4,7.3
		c-0.5-0.6-1-1.2-1.6-1.8s-1.3-1-2-1.5c3.2-6.1,8.3-17.5,9-19.3c0.8,0.9,1.5,1.7,2.3,2.4c0.7,0.7,1.6,1.3,2.4,1.9
		c-2.3,4.4-4.8,9.5-6.8,13.4l0.1,0.1c4.4-2.5,8.7-5.1,12.9-7.8c0.5,0.6,1,1.2,1.6,1.7s1.2,1,1.9,1.4C367,78.8,364.7,83.3,362.6,87.9
		L362.6,87.9z"/>
	<path class="st0" d="M405.5,115.3c1.1-2.9,1-6-1.2-9.2c-2.9-4.3-9.5-6.3-16.7-1.3c-5.5,3.8-7.5,9.7-3.9,15c0.8,1.2,2.4,3,3.2,3.3
		c0.6-0.3,1.5-0.9,2.5-1.5c3.7-2.5,5.1-3.8,5.8-4.3c0.2,0.5,0.6,1.3,1.6,2.7c1.1,1.7,1.7,2.3,2.1,2.7c-0.8,0.3-3.8,2.2-6,3.7
		c-1.5,1-3.3,2.3-3.7,2.7c-2.9-2.4-5.7-5.1-7.8-8.2c-5.4-7.9-4.8-16.7,2.2-21.5c8.8-6,17.4-2.8,22.9,5.3c2.4,3.5,3.2,6.4,3.6,9.7
		c-1.4,0.4-2.9,0.8-4.2,1.4L405.5,115.3z"/>
	<path class="st0" d="M405.3,126.4c4.8-2.6,8.6-4.7,12.6-7.1c0.2,0.7,0.7,1.8,1.3,2.9s1.2,2.1,1.7,2.7c-4.3,2-8.1,3.9-12.9,6.5
		l-2.4,1.3c-4.8,2.6-8.6,4.7-12.6,7.1c-0.2-0.7-0.7-1.8-1.3-2.9s-1.2-2.1-1.7-2.7c4.3-2,8.1-3.9,12.9-6.5L405.3,126.4z"/>
	<path class="st0" d="M411.5,136.7c2.6,1.3,4.7,3.6,5.8,6c1.7,4.1,1.3,7.8-3.3,9.7c-3.3,1.4-6,2.4-8.8,3.6c-2.4,1-2.4,1.8-1.7,3.4
		l-0.9,0.4c-1.4-1.1-2-1.9-2.5-3.1c-0.8-1.9-0.2-3.5,1.3-4.9c-2.1-0.5-3.9-1.5-4.9-3.8c-1.7-3.9,0.2-6.6,2.7-7.6
		c3.3-1.4,5.7,0.2,8,3.3c2.9,3.9,3.3,4.1,4.7,3.5c1.8-0.8,2.8-2.8,1.8-5.1c-0.8-1.8-2.7-3.4-4.1-3.7l-0.1-0.3L411.5,136.7z
		 M408.9,148.6c-2.2-1.7-3.2-4.6-7.1-3c-1.9,0.8-2.6,2.1-2,3.4c0.7,1.7,2.5,2.3,5,1.2C407.1,149.3,408.1,149,408.9,148.6z"/>
	<path class="st0" d="M421,162.9L421,162.9c2.6,1,4.5,2.7,5.2,5.2c0.6,2.4-0.3,4.6-2.5,6.2c2.9,1,4.9,2.9,5.5,5.2
		c1.1,4-0.6,6.9-5.8,8.3c-2.7,0.7-4.7,1.1-6.8,1.6c-1.7,0.4-3.8,1.1-5.8,1.7c-0.1-0.7-0.3-1.9-0.6-3.1s-0.7-2.3-1-3
		c3-0.4,6.9-1.4,11.7-2.6c3.4-0.9,4.6-2.5,4.1-4.5c-0.7-2.6-3.6-2.5-5.5-2l-2.9,0.8c-3.3,0.9-6.1,1.7-8.9,2.7
		c-0.1-0.7-0.3-1.8-0.6-3.1c-0.3-1.3-0.7-2.3-1-3c2.9-0.5,5.8-1.2,9.1-2.1l2.5-0.7c3.2-0.9,4.9-2,4.3-4.3c-0.6-2.4-3.2-2.9-6.9-1.9
		l-1.6,0.4c-3.3,0.9-6.1,1.7-8.9,2.7c-0.1-0.7-0.3-1.8-0.6-3.1c-0.3-1.3-0.7-2.3-1-3c2.9-0.5,5.8-1.2,9.1-2.1l1.6-0.4
		c3.3-0.9,6.1-1.7,8.9-2.7c0.2,1,0.3,2,0.6,2.9c0.3,1,0.6,1.9,1,2.9L421,162.9z"/>
	<path class="st0" d="M416.7,194.2c5.4-0.6,9.7-1.2,14.3-1.9c0,1,0,2,0.1,2.9c0.1,1,0.3,1.9,0.5,2.8c-0.9,0-2.4,0-3.6,0.1v0.1
		c2.4,0.5,4.4,2.5,4.8,5.4c0.5,4.2-2.1,8.4-9.4,9.2c-7.9,0.9-11.4-2.9-11.8-7c-0.3-2.5,0.6-4.5,2.4-5.7V200
		c-4,0.4-11.4,1.3-13.4,1.8c0-0.7,0-1.9-0.1-3.1c-0.1-1.2-0.3-2.4-0.5-3.1c4.7-0.3,9-0.6,14.4-1.2L416.7,194.2z M430.1,202.2
		c-0.2-2.1-2.7-3.7-8.9-3.1c-5,0.6-7.2,2.2-7,4.6c0.3,2.4,3,3.6,8.5,3C428.2,206.2,430.4,204.4,430.1,202.2z"/>
	<path class="st0" d="M424,217.6c3.4-0.1,6.4-0.2,9.3-0.5c-0.1,0.8-0.2,1.8-0.1,3.1c0,1.3,0.2,2.4,0.3,3.1c-2.9-0.2-5.9-0.2-9.3-0.1
		h-1.7c-3.4,0.1-6.4,0.2-9.3,0.5c0.1-0.7,0.2-1.8,0.1-3.1c0-1.3-0.2-2.4-0.3-3.1c2.9,0.2,5.9,0.2,9.3,0.1H424z M444.5,220
		c0,1.8-1.4,3.3-3.2,3.4c-1.8,0-3.3-1.4-3.4-3.2s1.4-3.3,3.2-3.4S444.5,218.1,444.5,220z"/>
	<path class="st0" d="M430,235L430,235c2.1,1.8,3.4,4,3.2,6.6c-0.3,4.2-2.8,6.4-8.1,6c-2.8-0.2-4.8-0.5-7-0.6
		c-1.8-0.1-3.9-0.1-6.1-0.2c0.2-0.7,0.3-1.9,0.4-3.1c0.1-1.2,0.1-2.4,0-3.1c3,0.6,7,0.9,11.9,1.3c3.5,0.2,5.2-0.9,5.3-3.1
		c0.2-2.5-2.1-3.8-5.9-4l-1.7-0.1c-3.4-0.2-6.3-0.3-9.3-0.3c0.1-0.7,0.3-1.8,0.4-3.1c0.1-1.3,0-2.4,0-3.1c2.9,0.4,5.9,0.7,9.2,1
		l1.7,0.1c3.4,0.2,6.3,0.3,9.3,0.3c-0.2,1-0.3,1.9-0.4,2.9c-0.1,1,0,2,0,3.1L430,235z"/>
	<path class="st0" d="M427.4,267.9L427.4,267.9c-1.3,1.1-3,1.7-5.1,1.3c-4.1-0.7-6.2-4.5-5.4-9.2c0.1-0.6,0.3-1.1,0.4-1.8
		c0.1-0.7-0.5-1.3-1.3-1.5c-1.3-0.2-2.3,0.6-2.8,2.8l-0.6,3c-0.9,4.5-2.9,6.4-6.6,5.7c-6.5-1.2-7.7-7.6-6.8-12.5
		c0.9-5.1,3.8-7.8,7-7.2c2.6,0.5,3.9,2.4,4.4,5h0.1c0.9-1.3,2.1-2,3.6-1.8c1.8,0.3,3.5,2.2,3.7,4.6h0.1c0.7-1.6,1.7-2.8,2.9-3.5
		s2.8-0.9,4.5-0.6c4.2,0.8,6,4.7,5,9.9c-0.2,1-0.5,2-0.7,3c-0.2,0.7-0.3,1.4-0.5,2.3c-0.2,1.4-0.5,2.9-0.8,4.4
		c-0.3-0.1-0.6-0.2-1-0.3c-0.3-0.1-0.7-0.1-1-0.1L427.4,267.9z M409.7,257.7c0.3-1.4,0.3-2.4,0.1-3c-0.2-0.7-1.4-1.9-3.3-2.3
		c-3.1-0.6-5.2,1.6-5.7,4.5c-0.6,3.2,1.3,5.6,4,6C408,263.5,409,261.4,409.7,257.7z M424,257.9c-3.6-0.7-5.1,0.6-5.3,1.8
		c-0.3,1.8,1,2.9,4.7,3.6c3.7,0.7,5.3-0.2,5.5-1.7C429.2,259.8,427.6,258.6,424,257.9z"/>
	<path class="st0" d="M409.4,286.5c-0.6,1.8-2.6,2.8-4.3,2.2s-2.8-2.6-2.2-4.3c0.6-1.8,2.6-2.8,4.3-2.2S410,284.7,409.4,286.5z"/>
	<path class="st0" d="M411.5,311c4.2,2.1,7.1,3.5,10.5,4.9c-0.5,0.8-1.1,1.7-1.7,3c-0.6,1.2-1,2.3-1.4,3.2c-3.2-1.9-6-3.4-10.2-5.5
		l-5.1-2.6c-2.8-1.4-5.6-2.8-7.6-3.7c-1.4,2.8-2.7,5.7-3.8,8.8c-0.5-0.3-0.8-0.6-1.6-1s-1.2-0.5-1.7-0.7c0.7-1.3,1.8-3,3.5-6.4
		c3.1-6.1,3.5-7.1,3.8-8c3.2,1.9,6,3.4,10.2,5.5L411.5,311z"/>
	<path class="st0" d="M402.4,329.7c0.4,2.9-0.4,5.9-1.8,8.2c-2.4,3.7-5.7,5.4-9.9,2.7c-3-1.9-5.4-3.6-7.9-5.3
		c-2.2-1.4-2.8-0.9-3.8,0.5l-0.8-0.5c0.2-1.8,0.4-2.8,1.1-3.8c1.1-1.7,2.8-2.1,4.7-1.7c-0.8-2-1-4.1,0.4-6.2c2.3-3.5,5.6-3.5,7.8-2
		c3.1,2,3,4.9,1.8,8.5c-1.6,4.5-1.5,5.1-0.3,5.9c1.7,1.1,3.9,0.7,5.2-1.4c1-1.6,1.3-4.1,0.8-5.5l0.2-0.2L402.4,329.7z M391.1,334.2
		c0.2-2.7,2.1-5.2-1.5-7.5c-1.7-1.1-3.2-1-4,0.3c-1,1.5-0.5,3.4,1.8,4.8C389.5,333.1,390.3,333.7,391.1,334.2z"/>
	<path class="st0" d="M389.5,347.7c4.3,3.5,7.6,6,11.4,8.9c-0.5,0.5-1.4,1.4-2.1,2.3c-0.8,0.9-1.5,1.9-1.8,2.6
		c-3.5-3.1-6.8-5.9-15.1-12.7c-0.6-0.5-0.7-0.6-0.8-0.4c-0.3,0.4,0.6,5.1,2.2,11.9c-0.5,0.5-1,0.9-1.4,1.4s-0.7,1.1-1.3,1.9
		c-0.3-2.2-1-8.8-1.3-10.6c-1.3-0.2-12.8-1.6-14.5-2.1c0.8-0.9,1.6-1.6,2.2-2.4c0.7-0.8,1.2-1.7,1.8-2.6c1.5,0.2,10.9,2,11.3,1.5
		c0.2-0.2,0.1-0.3-3-2.8c-1.2-0.9-3.6-2.8-4.5-3.3c0.7-0.7,1.4-1.4,2.1-2.2c0.6-0.8,1.2-1.6,1.7-2.5c3.5,3.1,6.8,5.9,11,9.4
		L389.5,347.7z"/>
	<path class="st0" d="M366.8,363c-3.2-3.2-6.8-4.4-9.6-1.7c-1.4,1.4-2.1,3-2.3,5l-0.6,0.1l-1-2.3c0.2-1.7,1-3.6,3.2-5.8
		c3.9-3.8,9.5-4.8,14.7,0.3c5.1,5.1,4.7,10.5,0.7,14.5c-3.9,3.8-8.5,3.5-12.6-0.6c-0.5-0.5-0.8-0.8-0.9-1L366.8,363z M363.6,368.9
		c3,2.9,5.5,4.2,7.1,2.7c1.8-1.7-0.2-4.9-2.5-7.3L363.6,368.9z"/>
	<path class="st0" d="M342.8,407c-0.5,0.2-1.1,0.5-1.6,0.9s-1,0.8-1.4,1.2c-1.6-6.9-4.5-20.5-7.4-30.1c0.6-0.3,1.1-0.5,1.6-0.9
		s0.9-0.8,1.4-1.2c6.3,4.3,20,13.3,25.9,16.9c-1.1,0.6-2.2,1.3-3.2,2s-2,1.5-2.9,2.3c-5.1-4-12.1-8.6-18.2-12.8
		C338.8,392.6,340.8,400.4,342.8,407z"/>
	<path class="st0" d="M325.8,396.2c1.7,2.9,3.2,5.5,4.9,7.9c-0.7,0.3-1.7,0.7-2.8,1.4s-2,1.3-2.6,1.7c-1.2-2.7-2.6-5.3-4.3-8.2
		l-0.8-1.5c-1.7-2.9-3.2-5.5-4.9-7.9c0.7-0.3,1.7-0.7,2.8-1.4s2-1.3,2.6-1.7c1.2,2.7,2.6,5.3,4.3,8.2L325.8,396.2z M333.5,415.4
		c-1.6,0.9-3.6,0.4-4.5-1.2c-0.9-1.6-0.4-3.6,1.2-4.5c1.6-0.9,3.6-0.4,4.5,1.2C335.6,412.5,335.1,414.5,333.5,415.4z"/>
	<path class="st0" d="M310.9,403.2c-1.9-4.1-4.9-6.5-8.4-4.9c-1.7,0.8-3,2.1-3.9,3.9l-0.6-0.1l-0.1-2.5c0.8-1.5,2.1-3.1,5-4.4
		c4.9-2.3,10.6-1.3,13.7,5.3c3,6.6,0.8,11.5-4.3,13.8c-4.9,2.3-9.2,0.4-11.6-4.8c-0.3-0.6-0.5-1-0.5-1.3L310.9,403.2z M305.8,407.6
		c1.8,3.8,3.7,5.9,5.7,5c2.2-1,1.4-4.7,0.1-7.7L305.8,407.6z"/>
	<path class="st0" d="M274.5,412.1c-0.1,5.1,0,10.1,0.2,15.1c-0.5,0.1-1.1,0.1-1.6,0.3s-1,0.4-1.6,0.7c0.5-2.4,0.8-14.5,0.8-21.4
		c0.7-0.1,1.5-0.3,2.3-0.5s1.4-0.6,2.2-0.9c2.6,4,5.7,8.5,8,11.9h0.1c0-4.8,0.1-9.6,0-14.4c0.8-0.2,1.6-0.3,2.3-0.5
		c0.8-0.2,1.5-0.6,2.3-0.9c3.7,5.8,10.9,16,12.1,17.4c-1.2,0.3-2.2,0.5-3.2,0.8s-1.9,0.7-2.9,1.1c-2.7-4.2-5.8-8.9-8.2-12.6h-0.1
		c-0.1,5.1,0.1,10.1,0.2,15.1c-0.8,0.2-1.5,0.3-2.3,0.5s-1.4,0.6-2.2,0.9C280.1,420.5,277.4,416.2,274.5,412.1L274.5,412.1z"/>
	<path class="st0" d="M229.1,435.3c1.9,2.4,4.7,3.9,8.5,3.6c5.2-0.4,10.2-5,9.6-13.8c-0.5-6.6-4.5-11.4-11-10.9
		c-1.4,0.1-3.9,0.6-4.5,1.1c-0.1,0.7,0,1.7,0.1,2.9c0.3,4.5,0.7,6.4,0.8,7.2c-0.5,0-1.4-0.1-3.1,0c-2,0.1-2.8,0.3-3.4,0.4
		c0.1-0.9,0-4.4-0.2-7c-0.1-1.8-0.3-4-0.5-4.6c3.6-1.3,7.3-2.4,11-2.6c9.6-0.7,16.9,4.3,17.5,12.8c0.8,10.6-6.3,16.4-16.1,17.1
		c-4.2,0.3-7.1-0.4-10.2-1.8c0.4-1.5,0.7-2.9,0.9-4.3L229.1,435.3z"/>
	<path class="st0" d="M219.6,429.6c-0.2,5.5-0.3,9.7-0.3,14.5c-0.7-0.2-1.9-0.3-3.1-0.3c-1.2,0-2.4,0-3.1,0.1
		c0.4-4.7,0.7-9,0.9-14.4l0.1-2.7c0.2-5.5,0.3-9.7,0.3-14.5c0.7,0.2,1.9,0.3,3.1,0.3c1.2,0,2.4,0,3.1-0.1c-0.4,4.7-0.7,9-0.9,14.4
		L219.6,429.6z"/>
	<path class="st0" d="M207.7,429.7c-2.5,1.6-5.5,2.3-8.1,1.9c-4.4-0.5-7.4-2.8-6.8-7.7c0.4-3.5,0.9-6.4,1.3-9.4
		c0.3-2.6-0.4-3-2.1-3.2l0.1-1c1.7-0.6,2.7-0.8,4-0.6c2,0.3,3.1,1.6,3.6,3.5c1.5-1.6,3.2-2.7,5.8-2.4c4.2,0.5,5.6,3.5,5.3,6.2
		c-0.4,3.6-3,4.8-6.9,5.3c-4.8,0.5-5.2,0.8-5.4,2.3c-0.2,2,1,3.8,3.5,4.1c1.9,0.2,4.3-0.6,5.3-1.7h0.3L207.7,429.7z M198.7,421.6
		c2.5-1,5.6-0.4,6.1-4.6c0.3-2-0.5-3.3-2-3.4c-1.8-0.2-3.2,1-3.6,3.7C199,419.6,198.8,420.6,198.7,421.6z"/>
	<path class="st0" d="M180.2,424.8L180.2,424.8c-2.2,1.7-4.6,2.6-7.1,1.9c-2.4-0.7-3.8-2.5-4.1-5.2c-2.3,2-4.9,2.8-7.3,2.1
		c-4-1.1-5.7-4-4.3-9.1c0.8-2.7,1.4-4.6,2-6.7c0.5-1.7,0.9-3.8,1.4-5.9c0.7,0.3,1.8,0.7,3,1s2.4,0.6,3.1,0.6
		c-1.2,2.8-2.3,6.7-3.6,11.5c-0.9,3.3-0.1,5.3,1.9,5.8c2.6,0.7,3.9-1.8,4.5-3.8l0.8-2.9c0.9-3.3,1.6-6.2,2.1-9c0.7,0.3,1.7,0.7,3,1
		c1.2,0.3,2.3,0.5,3.1,0.6c-1,2.8-1.9,5.6-2.8,8.9l-0.7,2.5c-0.9,3.2-0.7,5.3,1.5,5.9c2.4,0.7,4.1-1.3,5.1-5l0.4-1.6
		c0.9-3.3,1.6-6.2,2.1-9c0.7,0.3,1.7,0.7,3,1c1.2,0.3,2.3,0.5,3.1,0.6c-1,2.8-1.9,5.6-2.8,8.9l-0.4,1.6c-0.9,3.3-1.6,6.2-2.1,9
		c-0.9-0.3-1.8-0.7-2.8-1s-1.9-0.4-3-0.6L180.2,424.8z"/>
	<path class="st0" d="M155.3,405.4c-2.2,5-3.8,9-5.6,13.4c-0.8-0.5-1.7-1-2.6-1.4s-1.8-0.7-2.7-1c0.4-0.8,1.2-2.1,1.7-3.2H146
		c-1.7,1.8-4.4,2.6-7.1,1.4c-3.9-1.7-6.2-6.1-3.2-12.7c3.2-7.3,8.2-8.4,12-6.7c2.3,1,3.6,2.7,3.7,5h0.1c1.6-3.7,4.7-10.5,5.2-12.5
		c0.6,0.4,1.7,1,2.8,1.5s2.3,0.9,3,1.1c-2.1,4.2-3.9,8.1-6.2,13.1L155.3,405.4z M141.6,412.9c1.9,0.8,4.6-0.4,7.1-6.2
		c2-4.6,1.7-7.4-0.5-8.4s-4.6,0.8-6.8,5.8C139.2,409.3,139.6,412,141.6,412.9z"/>
	<path class="st0" d="M119,416.5c-1.6-0.9-2.2-2.9-1.3-4.5c0.9-1.6,2.9-2.2,4.5-1.3s2.2,2.9,1.3,4.5S120.6,417.3,119,416.5z
		 M131.4,399.9c-1.6,3-3,5.6-4.2,8.3c-0.6-0.4-1.5-1.1-2.6-1.7s-2.2-1.1-2.8-1.3c1.6-2.4,3.2-5,4.8-8l0.8-1.5c1.6-3,3-5.6,4.2-8.3
		c0.6,0.4,1.5,1.1,2.6,1.7c1.1,0.6,2.1,1,2.8,1.3c-1.6,2.4-3.2,5-4.8,8L131.4,399.9z"/>
	<path class="st0" d="M113.3,396.3L113.3,396.3c-2.6,1-5.2,0.9-7.4-0.5c-3.5-2.3-4.1-5.6-1.1-10c1.6-2.4,2.9-3.9,4.1-5.7
		c1-1.5,2.1-3.3,3.2-5.1c0.5,0.5,1.5,1.3,2.5,1.9c1,0.7,2.1,1.3,2.7,1.6c-2,2.3-4.3,5.6-7.1,9.7c-1.9,2.9-1.8,4.9,0,6.1
		c2.1,1.4,4.3,0.1,6.5-3l0.9-1.4c1.9-2.8,3.5-5.3,4.9-7.9c0.5,0.5,1.4,1.2,2.5,1.9s2,1.2,2.7,1.6c-1.9,2.3-3.6,4.7-5.5,7.5l-0.9,1.4
		c-1.9,2.8-3.5,5.3-4.9,7.9c-0.8-0.6-1.5-1.3-2.3-1.8c-0.8-0.6-1.7-1-2.6-1.5L113.3,396.3z"/>
	<path class="st0" d="M86.3,377.5h0.1c-0.4-1.7-0.1-3.4,1.3-5c2.7-3.1,7-3.1,10.7,0c0.4,0.4,0.9,0.8,1.4,1.3
		c0.5,0.4,1.4,0.2,1.9-0.4c0.9-1,0.7-2.3-1-3.8l-2.3-2c-3.5-3-4.1-5.7-1.6-8.6c4.3-5,10.5-2.8,14.2,0.4c3.9,3.4,4.8,7.2,2.7,9.6
		c-1.7,2-4,2.1-6.5,1.3l-0.1,0.1c0.7,1.4,0.7,2.8-0.3,4c-1.2,1.4-3.7,1.9-5.8,0.8l-0.1,0.1c1,1.4,1.5,2.8,1.5,4.3s-0.6,2.9-1.8,4.2
		c-2.8,3.2-7.1,2.8-11.1-0.7c-0.8-0.7-1.5-1.5-2.2-2.1c-0.5-0.5-1.1-1-1.7-1.6c-1-0.9-2.2-1.9-3.4-2.8c0.2-0.2,0.5-0.5,0.7-0.7
		s0.4-0.5,0.6-0.8L86.3,377.5z M96.6,379.6c2.4-2.8,2.1-4.7,1.1-5.5c-1.4-1.2-3.1-0.6-5.5,2.3c-2.4,2.9-2.5,4.6-1.3,5.6
		C92.3,383.2,94.2,382.4,96.6,379.6z M104,367.3c1.1,1,1.9,1.5,2.6,1.6c0.7,0.2,2.3-0.2,3.6-1.7c2.1-2.4,1.2-5.3-1-7.2
		c-2.4-2.1-5.5-1.7-7.2,0.4C99.8,362.9,101.2,364.9,104,367.3z"/>
	<path class="st0" d="M79.3,352.6c-1.2-1.4-1.1-3.6,0.3-4.8s3.6-1.1,4.8,0.3s1.1,3.6-0.3,4.8S80.5,354,79.3,352.6z"/>
	<path class="st0" d="M57,342.1c-3.9,2.6-6.6,4.4-9.5,6.6c-0.4-0.8-0.9-1.8-1.7-3c-0.8-1.2-1.5-2-2-2.8c3.2-1.8,6-3.5,9.9-6l4.8-3.1
		c2.6-1.7,5.2-3.5,7-4.7c-1.7-2.6-3.6-5.2-5.7-7.7c0.5-0.2,0.9-0.4,1.7-0.9c0.7-0.5,1-0.8,1.4-1.1c0.8,1.3,1.7,3,3.8,6.2
		c3.7,5.7,4.4,6.6,5,7.3c-3.2,1.8-6,3.5-9.9,6L57,342.1z"/>
	<path class="st0" d="M45.5,324.8c-2.7-1.2-5-3.3-6.2-5.6c-2-4-1.8-7.7,2.6-9.9c3.2-1.6,5.8-2.8,8.5-4.2c2.3-1.2,2.2-2,1.5-3.5
		l0.9-0.5c1.5,1,2.2,1.8,2.7,2.9c0.9,1.8,0.5,3.5-0.9,4.9c2.2,0.4,4,1.2,5.2,3.5c1.9,3.8,0.2,6.6-2.2,7.8c-3.2,1.6-5.7,0.2-8.2-2.8
		c-3.1-3.7-3.6-3.9-5-3.2c-1.8,0.9-2.6,3-1.4,5.2c0.9,1.7,2.9,3.2,4.3,3.4l0.1,0.3L45.5,324.8z M47.2,312.8c2.3,1.5,3.5,4.4,7.3,2.5
		c1.8-0.9,2.4-2.3,1.8-3.6c-0.8-1.6-2.7-2.1-5.1-0.9C48.9,311.9,48,312.4,47.2,312.8z"/>
	<path class="st0" d="M36.3,304.7c-5.1,1.9-9.1,3.6-13.4,5.4c-0.1-0.7-0.5-1.9-0.9-3s-0.9-2.2-1.3-2.9c4.5-1.5,8.5-2.9,18.5-6.7
		c0.7-0.3,0.9-0.3,0.8-0.5c-0.2-0.4-4.7-2-11.4-4.1c-0.2-0.7-0.3-1.3-0.5-1.9c-0.2-0.6-0.6-1.2-1-2.1c2,0.8,8.1,3.6,9.8,4.2
		c0.8-1,7.9-10.3,9.1-11.5c0.3,1.1,0.6,2.1,1,3.2s0.9,1.9,1.3,2.9c-0.9,1.2-7.2,8.4-7,9c0.1,0.3,0.2,0.2,4-1.2
		c1.4-0.5,4.2-1.7,5.1-2.2c0.3,1,0.5,2,0.9,2.9s0.8,1.8,1.3,2.7c-4.5,1.5-8.5,2.9-13.6,4.8L36.3,304.7z"/>
	<path class="st0" d="M34.4,277.4c4.4-1.1,7.2-3.7,6.3-7.4c-0.5-1.9-1.5-3.4-3.1-4.5l0.2-0.6l2.5,0.3c1.4,1.1,2.6,2.6,3.4,5.7
		c1.4,5.3-0.6,10.7-7.7,12.5c-7,1.8-11.4-1.3-12.8-6.7c-1.4-5.3,1.2-9.1,6.8-10.6c0.7-0.2,1.1-0.3,1.3-0.3L34.4,277.4z M31,271.6
		c-4,1.1-6.4,2.6-5.9,4.7c0.6,2.4,4.3,2.2,7.5,1.5L31,271.6z"/>
	<path class="st0" d="M8.6,234.4c0.1-0.6,0.1-1.2,0-1.9c-0.1-0.6-0.2-1.2-0.4-1.8c6.8,2.2,19.9,6.4,29.8,8.8c0,0.6-0.1,1.2,0,1.9
		c0.1,0.6,0.2,1.2,0.4,1.8c-6.9,3.2-21.6,10.6-27.7,13.9c0-1.3,0-2.6-0.1-3.8s-0.3-2.4-0.5-3.6c6-2.4,13.5-6.1,20.2-9.3
		C23,238.2,15.3,236,8.6,234.4z"/>
	<path class="st0" d="M6,222.1c0-1.8,1.5-3.3,3.4-3.2s3.3,1.5,3.2,3.4c0,1.8-1.5,3.3-3.4,3.2S6,223.9,6,222.1z M26.5,225.2
		c-3.4-0.1-6.4,0-9.3,0.2c0.1-0.8,0.2-1.8,0.3-3.1c0-1.3-0.1-2.4-0.2-3.1c2.9,0.3,5.9,0.4,9.3,0.5h1.7c3.4,0.1,6.4,0,9.3-0.2
		c-0.1,0.7-0.2,1.8-0.3,3.1c0,1.3,0.1,2.4,0.2,3.1c-2.9-0.3-5.9-0.4-9.3-0.5H26.5z"/>
	<path class="st0" d="M27.9,208.8c4.5,0.4,8.1-1,8.4-4.8c0.2-1.9-0.3-3.7-1.4-5.3l0.4-0.5l2.2,1.1c0.9,1.5,1.6,3.4,1.3,6.5
		c-0.5,5.4-4.2,9.8-11.5,9.1c-7.2-0.7-10.3-5.1-9.8-10.7c0.5-5.4,4.2-8.2,10-7.6c0.7,0.1,1.1,0.1,1.4,0.2L27.9,208.8z M26.7,202.2
		c-4.2-0.3-7,0.3-7.2,2.4c-0.2,2.5,3.3,3.6,6.6,4L26.7,202.2z"/>
	<path class="st0" d="M38.5,172.8c-4.4-2.6-8.7-5.1-13.1-7.4c0.2-0.5,0.4-1,0.6-1.5c0.1-0.5,0.1-1,0.2-1.8c1.8,1.7,12.2,8,18.1,11.4
		c-0.3,0.7-0.6,1.5-0.7,2.2c-0.2,0.8-0.2,1.5-0.3,2.3c-4.8,0.2-10.2,0.6-14.3,0.9v0.1c4.1,2.5,8.3,4.9,12.5,7.2
		c-0.3,0.8-0.6,1.5-0.7,2.3c-0.2,0.8-0.2,1.6-0.4,2.4c-6.9,0.3-19.3,1.4-21.2,1.7c0.4-1.2,0.7-2.1,0.9-3.1c0.2-1,0.3-2,0.5-3
		c5-0.2,10.6-0.5,15-0.8v-0.1c-4.3-2.6-8.8-5-13.1-7.4c0.3-0.8,0.6-1.5,0.7-2.2s0.2-1.5,0.3-2.3C28.4,173.5,33.5,173.3,38.5,172.8
		L38.5,172.8z"/>
	<path class="st0" d="M41.2,121.9c-3,0.5-5.7,2.1-7.4,5.6c-2.3,4.7-0.8,11.4,7.1,15.2c6,2.9,12.1,1.8,14.9-4
		c0.6-1.3,1.4-3.6,1.3-4.4c-0.5-0.4-1.5-0.9-2.6-1.4c-4.1-2-5.9-2.6-6.6-2.9c0.3-0.5,0.8-1.1,1.5-2.7c0.9-1.8,1.1-2.6,1.3-3.1
		c0.7,0.6,3.8,2.2,6.2,3.4c1.6,0.8,3.6,1.7,4.2,1.9c-0.7,3.7-1.6,7.5-3.3,10.8c-4.2,8.6-12.2,12.4-19.8,8.7
		c-9.5-4.7-11-13.7-6.7-22.6c1.9-3.8,3.9-5.9,6.7-7.9c1.1,1,2.1,2.1,3.3,2.9L41.2,121.9z"/>
	<path class="st0" d="M51,116.6c-4.6-3-8.3-5.1-12.4-7.5c0.5-0.5,1.2-1.5,1.9-2.5c0.7-1,1.2-2.1,1.5-2.8c3.9,2.7,7.4,5.1,12,8.1
		l2.3,1.5c4.6,3,8.3,5.1,12.4,7.5c-0.5,0.5-1.2,1.5-1.9,2.5c-0.7,1-1.2,2.1-1.5,2.8c-3.9-2.7-7.4-5.1-12-8.1L51,116.6z"/>
	<path class="st0" d="M56.9,106.2c-0.1-2.9,0.8-5.9,2.4-8c2.7-3.5,6.1-4.9,10.1-1.9c2.8,2.2,5.1,4,7.5,5.9c2.1,1.6,2.7,1.2,3.8-0.2
		l0.8,0.6c-0.3,1.8-0.7,2.7-1.4,3.7c-1.2,1.6-2.9,1.9-4.8,1.3c0.6,2.1,0.7,4.1-0.9,6.2c-2.6,3.4-5.9,3-8,1.4
		c-2.9-2.2-2.6-5.1-1.1-8.6c1.9-4.4,1.9-4.9,0.7-5.9c-1.6-1.2-3.8-1-5.3,1c-1.2,1.5-1.6,4-1.2,5.4l-0.2,0.2L56.9,106.2z M68.5,102.6
		c-0.4,2.7-2.5,5.1,0.9,7.6c1.6,1.2,3.1,1.2,4,0c1.1-1.5,0.7-3.3-1.4-5C70,103.8,69.2,103.1,68.5,102.6z"/>
	<path class="st0" d="M75,85L75,85c-0.4-2.8,0.1-5.3,2-7.1c1.8-1.8,4.1-2,6.6-0.9c-0.6-3,0.1-5.6,1.8-7.4c3-2.9,6.3-2.9,10,0.9
		c2,2,3.3,3.6,4.8,5.1c1.2,1.3,2.8,2.7,4.4,4.2c-0.6,0.4-1.5,1.2-2.4,2s-1.7,1.8-2.1,2.3c-1.8-2.4-4.6-5.3-8.1-8.9
		c-2.4-2.5-4.5-2.8-6-1.3c-1.9,1.9-0.4,4.3,1,5.7l2.1,2.1c2.4,2.4,4.5,4.5,6.7,6.4c-0.6,0.4-1.5,1.1-2.4,2s-1.6,1.8-2.1,2.3
		c-1.9-2.3-3.9-4.4-6.3-6.9l-1.8-1.8c-2.3-2.4-4.2-3.3-5.8-1.6c-1.8,1.8-1,4.2,1.7,6.9l1.2,1.2c2.4,2.4,4.5,4.5,6.7,6.4
		c-0.6,0.4-1.5,1.1-2.4,2s-1.6,1.8-2.1,2.3c-1.9-2.3-3.9-4.4-6.3-6.9L75,92.8c-2.4-2.4-4.5-4.5-6.7-6.4c0.8-0.6,1.5-1.2,2.3-1.9
		c0.7-0.7,1.3-1.5,2-2.3L75,85z"/>
	<path class="st0" d="M104.3,73.2c-3.2-4.4-5.8-7.8-8.8-11.5c0.8-0.5,1.7-1,2.5-1.5c0.8-0.6,1.5-1.2,2.2-1.9
		c0.5,0.8,1.2,2.1,1.9,3.1h0.1c-0.7-2.4,0-5.1,2.4-6.8c3.4-2.5,8.4-2.3,12.6,3.6c4.7,6.4,3.1,11.3-0.2,13.7c-2,1.4-4.2,1.7-6.2,0.7
		h-0.1c2.4,3.2,6.8,9.3,8.2,10.7c-0.6,0.3-1.7,1-2.7,1.7s-1.9,1.5-2.4,2c-2.6-3.9-5-7.5-8.2-11.9L104.3,73.2z M104.6,57.6
		c-1.7,1.2-1.9,4.2,1.8,9.3c3,4.1,5.5,5.2,7.5,3.8c1.9-1.4,1.6-4.4-1.6-8.8C109,57.3,106.4,56.3,104.6,57.6z"/>
	<path class="st0" d="M112.9,36.3c1.6-0.9,3.6-0.4,4.5,1.1c0.9,1.6,0.4,3.6-1.1,4.5c-1.6,0.9-3.6,0.4-4.5-1.1
		C110.8,39.3,111.3,37.3,112.9,36.3z M121,55.3c-1.7-2.9-3.3-5.4-5-7.8c0.7-0.3,1.7-0.8,2.8-1.4c1.1-0.7,2-1.4,2.6-1.8
		c1.3,2.6,2.7,5.2,4.5,8.1l0.9,1.4c1.7,2.9,3.3,5.4,5,7.8c-0.7,0.3-1.7,0.8-2.8,1.4c-1.1,0.7-2,1.3-2.6,1.8
		c-1.3-2.6-2.7-5.2-4.5-8.1L121,55.3z"/>
	<path class="st0" d="M133.2,41.5L133.2,41.5c0.5-2.7,1.8-4.9,4.2-6.1c3.8-1.8,6.9-0.7,9.2,4.1c1.2,2.6,2,4.4,2.9,6.4
		c0.8,1.6,1.8,3.5,2.8,5.4c-0.7,0.2-1.8,0.6-2.9,1.2c-1.1,0.5-2.1,1.1-2.7,1.5c-1-2.9-2.6-6.5-4.8-11c-1.5-3.1-3.3-4-5.3-3.1
		c-2.3,1.1-2.3,3.7-0.6,7.1l0.7,1.5c1.5,3.1,2.8,5.7,4.3,8.2c-0.7,0.2-1.7,0.6-2.9,1.2s-2.1,1.1-2.7,1.5c-1-2.7-2.3-5.5-3.7-8.5
		l-0.7-1.5c-1.5-3-2.8-5.7-4.3-8.2c0.9-0.4,1.9-0.7,2.8-1.1s1.7-1,2.7-1.5L133.2,41.5z"/>
	<path class="st0" d="M163,27.5l-0.1,0.1c1.6,0.5,3,1.7,3.7,3.6c1.4,3.9-0.8,7.6-5.4,9.2c-0.6,0.2-1.1,0.3-1.8,0.6
		c-0.6,0.2-0.9,1.1-0.6,1.8c0.4,1.3,1.7,1.7,3.8,1l2.9-1c4.4-1.5,7-0.6,8.3,3c2.2,6.3-2.8,10.5-7.5,12.1c-4.9,1.7-8.6,0.6-9.7-2.5
		c-0.9-2.5,0.2-4.6,2.2-6.2v-0.1c-1.5-0.1-2.8-0.8-3.3-2.3c-0.6-1.7,0.2-4.1,2.2-5.5v-0.1c-1.7,0.2-3.2-0.1-4.5-0.8
		c-1.2-0.7-2.2-1.9-2.8-3.6c-1.4-4,1.2-7.5,6.2-9.3c0.9-0.3,2-0.6,3-0.9c0.7-0.2,1.4-0.4,2.2-0.7c1.3-0.5,2.7-1,4.2-1.5
		c0.1,0.3,0.1,0.7,0.3,1c0.1,0.3,0.3,0.6,0.4,0.9L163,27.5z M156.1,35.4c1.2,3.4,3,4.2,4.2,3.8c1.7-0.6,2.1-2.4,0.8-5.9
		c-1.2-3.6-2.8-4.5-4.2-4C155.1,29.9,154.8,32,156.1,35.4z M162.9,48c-1.4,0.5-2.2,0.9-2.7,1.4s-1,2.1-0.3,4c1,3,4,3.7,6.8,2.7
		c3-1.1,4.2-3.9,3.3-6.4C168.8,46.6,166.5,46.7,162.9,48z"/>
	<path class="st0" d="M188.1,34c1.8-0.4,3.7,0.9,4,2.7c0.4,1.8-0.9,3.7-2.7,4s-3.7-0.9-4-2.7S186.3,34.4,188.1,34z"/>
</g>
</svg>
