<?xml version="1.0" encoding="utf-8"?>
<!-- Generator: Adobe Illustrator 26.1.0, SVG Export Plug-In . SVG Version: 6.00 Build 0)  -->
<svg version="1.1" id="Layer_1" xmlns="http://www.w3.org/2000/svg" xmlns:xlink="http://www.w3.org/1999/xlink" x="0px" y="0px"
	 width="214px" height="214px" viewBox="0 0 214 214" style="enable-background:new 0 0 214 214;" xml:space="preserve">
<style type="text/css">
	.st0{fill:#FFFFFF;}
	.st1{fill:#FFFFFF;stroke:#070707;stroke-width:6;stroke-linecap:round;stroke-miterlimit:10;}
	.st2{display:none;}
	.st3{display:inline;fill:#FFFFFF;}
</style>
<g>
	<g>
		<g>
			<g>
				<path class="st0" d="M99.6,33c0.1-0.1,0.2-0.1,0.3-0.1c0.5-0.1,1-0.1,1.5-0.1c0.6-0.1,1.3-0.1,1.9-0.2c0.7-0.1,1.5-0.2,2.2-0.3
					c0.2-0.1,0.5-0.1,0.8-0.1c0.1,0,0.1-0.1,0.1-0.1c-0.5-0.7-1.2-1.5-1.8-2.2c-0.3-0.4-0.7-0.7-0.9-1.1l-0.1-0.1
					c0.1-0.1,0.1,0,0.1,0.1c0.4,0.2,0.7,0.6,1,0.8c0.5,0.4,1,0.8,1.5,1.2c0.3,0.2,0.5,0.4,0.9,0.7c0.1,0.1,0.1,0.1,0.1-0.1
					c0.1-0.5,0.1-1.1,0.2-1.6c0.1-0.6,0.2-1.2,0.2-1.8c0.1-0.3,0.1-0.7,0.1-1c0.1-0.4,0.1-0.8,0.1-1.2c0-0.3,0.1-0.6,0.1-0.9
					c0-0.1,0-0.1,0.1-0.1c0.1,0.1,0.1,0.2,0.1,0.4c0.1,0.5,0.1,1,0.1,1.5c0.1,0.4,0.1,0.7,0.1,1c0.1,0.4,0.1,0.7,0.1,1
					c0.1,0.5,0.1,1,0.2,1.5c0.1,0.4,0.1,0.8,0.2,1.2c0,0.1,0.1,0.1,0.1,0.1c0.7-0.5,1.4-1.1,2.1-1.6c0.4-0.4,0.7-0.7,1.2-1l0.1-0.1
					c0.1,0.1,0,0.1-0.1,0.1c-0.2,0.4-0.6,0.7-0.8,1c-0.4,0.5-0.8,1-1.2,1.5c-0.2,0.3-0.4,0.6-0.7,0.9c-0.1,0.1-0.1,0.1,0.1,0.1
					c0.6,0.1,1.1,0.1,1.6,0.2c0.6,0.1,1.2,0.2,1.8,0.2c0.3,0.1,0.7,0.1,1,0.1c0.4,0.1,0.8,0.1,1.2,0.1c0.3,0,0.6,0.1,0.9,0.1
					c0.1,0,0.1,0,0.1,0.1c-0.1,0.1-0.2,0.1-0.4,0.1c-0.5,0.1-1,0.1-1.5,0.1c-0.4,0.1-0.7,0.1-1,0.1c-0.4,0.1-0.7,0.1-1,0.1
					c-0.5,0.1-1,0.1-1.5,0.2c-0.4,0.1-0.8,0.1-1.2,0.2c-0.1,0-0.1,0.1-0.1,0.1c0.5,0.7,1.1,1.4,1.6,2.1c0.4,0.4,0.7,0.7,1,1.2
					l0.1,0.1c-0.1,0.1-0.1,0-0.1-0.1c-0.4-0.2-0.7-0.6-1-0.8c-0.5-0.4-1-0.8-1.5-1.2c-0.3-0.2-0.5-0.4-0.9-0.7
					c-0.1-0.1-0.1-0.1-0.1,0.1c-0.1,0.5-0.1,1.1-0.2,1.6c-0.1,0.6-0.2,1.2-0.2,1.8c-0.1,0.3-0.1,0.7-0.1,1c-0.1,0.4-0.1,0.8-0.1,1.2
					c0,0.3-0.1,0.6-0.1,0.9c0,0.1,0,0.1-0.1,0.1c-0.1-0.1-0.1-0.2-0.1-0.4c-0.1-0.5-0.1-1-0.1-1.5c-0.1-0.4-0.1-0.7-0.1-1
					c-0.1-0.4-0.1-0.7-0.1-1c-0.1-0.5-0.1-1-0.2-1.5c-0.1-0.4-0.1-0.8-0.2-1.2c0-0.1-0.1-0.1-0.1-0.1c-0.7,0.5-1.4,1.1-2.1,1.6
					c-0.4,0.4-0.7,0.7-1.2,1l-0.1,0.1c-0.1-0.1,0-0.1,0.1-0.1c0.2-0.4,0.6-0.7,0.8-1c0.4-0.5,0.8-1,1.2-1.5c0.2-0.3,0.4-0.6,0.7-0.9
					c0.1-0.1,0.1-0.1-0.1-0.1c-0.6-0.1-1.1-0.1-1.6-0.2c-0.6-0.1-1.2-0.2-1.8-0.2c-0.3-0.1-0.7-0.1-1-0.1c-0.4-0.1-0.8-0.1-1.2-0.1
					c-0.3,0-0.6-0.1-0.9-0.1C99.6,33,99.6,33,99.6,33z"/>
			</g>
		</g>
		<g>
			<g>
				<path class="st0" d="M53.1,56.8c0,0.1-0.1,0.1-0.1,0.2c-0.1,0.3-0.2,0.6-0.3,0.9c-0.1,0.4-0.3,0.8-0.4,1.2
					c-0.1,0.5-0.2,1-0.4,1.4c-0.1,0.2-0.1,0.3-0.1,0.5c0,0.1,0,0.1,0.1,0.1c0.6-0.1,1.2-0.3,1.8-0.5c0.3-0.1,0.6-0.2,0.9-0.3
					c0,0,0.1-0.1,0.1,0s0,0.1-0.1,0.1c-0.2,0.1-0.5,0.2-0.7,0.4c-0.4,0.2-0.7,0.4-1.2,0.6c-0.2,0.1-0.4,0.2-0.6,0.4
					c-0.1,0.1-0.1,0.1,0,0.1c0.3,0.2,0.6,0.4,0.9,0.5c0.4,0.2,0.7,0.4,1,0.6c0.2,0.1,0.4,0.2,0.5,0.3c0.2,0.1,0.5,0.2,0.7,0.4
					c0.2,0.1,0.4,0.2,0.5,0.3c0,0,0.1,0,0.1,0.1c-0.1,0-0.2-0.1-0.2-0.1c-0.3-0.1-0.7-0.2-1-0.3c-0.2-0.1-0.4-0.2-0.7-0.2
					s-0.5-0.1-0.7-0.2c-0.3-0.1-0.6-0.2-1-0.2C52,63,51.7,63,51.4,62.9c-0.1,0-0.1,0-0.1,0.1c0.1,0.6,0.3,1.2,0.5,1.8
					c0.1,0.3,0.2,0.7,0.3,1c0,0,0.1,0.1,0,0.1s-0.1,0-0.1-0.1c-0.1-0.2-0.2-0.5-0.4-0.7c-0.2-0.4-0.4-0.7-0.6-1.2
					c-0.1-0.2-0.2-0.4-0.4-0.6c-0.1-0.1-0.1-0.1-0.1,0c-0.2,0.3-0.4,0.6-0.5,0.9c-0.2,0.4-0.4,0.7-0.6,1c-0.1,0.2-0.2,0.4-0.3,0.6
					c-0.1,0.2-0.2,0.5-0.4,0.7c-0.1,0.2-0.2,0.4-0.3,0.5c0,0,0,0.1-0.1,0.1c0-0.1,0.1-0.2,0.1-0.2c0.1-0.3,0.2-0.7,0.3-1
					c0.1-0.2,0.2-0.4,0.2-0.7s0.1-0.5,0.2-0.7c0.1-0.3,0.2-0.6,0.2-1c0.1-0.2,0.1-0.5,0.2-0.8c0-0.1,0-0.1-0.1-0.1
					c-0.6,0.1-1.2,0.3-1.8,0.5c-0.3,0.1-0.7,0.2-1,0.3c0,0-0.1,0.1-0.1,0s0-0.1,0.1-0.1c0.2-0.1,0.5-0.2,0.7-0.4
					c0.4-0.2,0.7-0.4,1.2-0.6c0.2-0.1,0.4-0.2,0.6-0.4c0.1-0.1,0.1-0.1,0-0.1c-0.3-0.2-0.6-0.4-0.9-0.5c-0.4-0.2-0.7-0.4-1-0.6
					c-0.2-0.1-0.4-0.2-0.6-0.3c-0.2-0.1-0.5-0.2-0.7-0.4c-0.2-0.1-0.4-0.2-0.5-0.3c0,0-0.1,0-0.1-0.1c0.1,0,0.2,0.1,0.2,0.1
					c0.3,0.1,0.7,0.2,1,0.3c0.2,0.1,0.4,0.2,0.7,0.2c0.2,0.1,0.5,0.1,0.7,0.2c0.3,0.1,0.6,0.2,1,0.2c0.2,0.1,0.5,0.1,0.8,0.2
					c0.1,0,0.1,0,0.1-0.1c-0.1-0.6-0.3-1.2-0.5-1.8c-0.1-0.3-0.2-0.7-0.3-1c0,0-0.1-0.1,0-0.1s0.1,0,0.1,0.1
					c0.1,0.2,0.2,0.5,0.4,0.7c0.2,0.4,0.4,0.7,0.6,1.2c0.1,0.2,0.2,0.4,0.4,0.6c0.1,0.1,0.1,0.1,0.1,0c0.2-0.3,0.4-0.6,0.5-0.9
					c0.2-0.4,0.4-0.7,0.6-1c0.1-0.2,0.2-0.4,0.3-0.5c0.1-0.2,0.2-0.5,0.4-0.7C52.8,57.1,52.9,56.9,53.1,56.8
					C53,56.8,53,56.8,53.1,56.8z"/>
			</g>
		</g>
		<g>
			<g>
				<path class="st0" d="M163,56.8c0,0.1,0.1,0.1,0.1,0.2c0.1,0.3,0.2,0.6,0.3,0.9c0.1,0.4,0.3,0.8,0.4,1.2c0.1,0.5,0.2,1,0.4,1.4
					c0.1,0.2,0.1,0.3,0.1,0.5c0,0.1,0,0.1-0.1,0.1c-0.6-0.1-1.2-0.3-1.8-0.5c-0.3-0.1-0.6-0.2-0.9-0.3c0,0-0.1-0.1-0.1,0
					s0,0.1,0.1,0.1c0.2,0.1,0.5,0.2,0.7,0.4c0.4,0.2,0.7,0.4,1.2,0.6c0.2,0.1,0.4,0.2,0.6,0.4c0.1,0.1,0.1,0.1,0,0.1
					c-0.3,0.2-0.6,0.4-0.9,0.5c-0.4,0.2-0.7,0.4-1,0.6c-0.2,0.1-0.4,0.2-0.6,0.3c-0.2,0.1-0.5,0.2-0.7,0.4c-0.2,0.1-0.4,0.2-0.5,0.3
					c0,0-0.1,0-0.1,0.1c0.1,0,0.2-0.1,0.2-0.1c0.3-0.1,0.7-0.2,1-0.3c0.2-0.1,0.4-0.2,0.7-0.2c0.2-0.1,0.5-0.1,0.7-0.2
					c0.3-0.1,0.6-0.2,1-0.2c0.2-0.1,0.5-0.1,0.8-0.2c0.1,0,0.1,0,0.1,0.1c-0.1,0.6-0.3,1.2-0.5,1.8c-0.1,0.3-0.2,0.7-0.3,1
					c0,0-0.1,0.1,0,0.1s0.1,0,0.1-0.1c0.1-0.2,0.2-0.5,0.4-0.7c0.2-0.4,0.4-0.7,0.6-1.2c0.1-0.2,0.2-0.4,0.4-0.6
					c0.1-0.1,0.1-0.1,0.1,0c0.2,0.3,0.4,0.6,0.5,0.9c0.2,0.4,0.4,0.7,0.6,1c0.1,0.2,0.2,0.4,0.3,0.6s0.2,0.5,0.4,0.7
					c0.1,0.2,0.2,0.4,0.3,0.5c0,0,0,0.1,0.1,0.1c0-0.1-0.1-0.2-0.1-0.2c-0.1-0.3-0.2-0.7-0.3-1c-0.1-0.2-0.2-0.4-0.2-0.7
					c-0.1-0.2-0.1-0.5-0.2-0.7c-0.1-0.3-0.2-0.6-0.2-1c-0.1-0.2-0.1-0.5-0.2-0.8c0-0.1,0-0.1,0.1-0.1c0.6,0.1,1.2,0.3,1.8,0.5
					c0.3,0.1,0.7,0.2,1,0.3c0,0,0.1,0.1,0.1,0s0-0.1-0.1-0.1c-0.2-0.1-0.5-0.2-0.7-0.4c-0.4-0.2-0.7-0.4-1.2-0.6
					c-0.2-0.1-0.4-0.2-0.6-0.4c-0.1-0.1-0.1-0.1,0-0.1c0.3-0.2,0.6-0.4,0.9-0.5c0.4-0.2,0.7-0.4,1-0.6c0.2-0.1,0.4-0.2,0.6-0.3
					c0.2-0.1,0.5-0.2,0.7-0.4c0.2-0.1,0.4-0.2,0.5-0.3c0,0,0.1,0,0.1-0.1c-0.1,0-0.2,0.1-0.2,0.1c-0.3,0.1-0.7,0.2-1,0.3
					c-0.2,0.1-0.4,0.2-0.7,0.2c-0.2,0.1-0.5,0.1-0.7,0.2c-0.3,0.1-0.6,0.2-1,0.2c-0.2,0.1-0.5,0.1-0.8,0.2c-0.1,0-0.1,0-0.1-0.1
					c0.1-0.6,0.3-1.2,0.5-1.8c0.1-0.3,0.2-0.7,0.3-1c0,0,0.1-0.1,0-0.1s-0.1,0-0.1,0.1c-0.1,0.2-0.2,0.5-0.4,0.7
					c-0.2,0.4-0.4,0.7-0.6,1.2c-0.1,0.2-0.2,0.4-0.4,0.6c-0.1,0.1-0.1,0.1-0.1,0c-0.2-0.3-0.4-0.6-0.5-0.9c-0.2-0.4-0.4-0.7-0.6-1
					c-0.1-0.2-0.2-0.4-0.3-0.5c-0.1-0.2-0.2-0.5-0.4-0.7C163.2,57.1,163.2,56.9,163,56.8C163.1,56.8,163.1,56.8,163,56.8z"/>
			</g>
		</g>
		<g>
			<path class="st0" d="M140.3,24.1c0,0.1,0,0.1,0,0.1c0,0.1,0,0.1,0,0.2s0,0.1,0,0.1c0,0.1,0,0.1,0,0.2c0,0.2,0.1,0.4,0.1,0.5
				s0.1,0.2,0.1,0.2c0.1,0.2,0.1,0.3,0.2,0.4s0.3,0.2,0.4,0.4c0.1,0.1,0.2,0.1,0.3,0.1c0.1,0.1,0.3,0.1,0.4,0.1
				c0.1,0,0.2,0.1,0.2,0.1c0.1,0,0.1,0,0.1,0c0.1,0,0.1,0,0.1,0h0.1h0.1l0,0l0,0c-0.1,0-0.1,0-0.2,0s-0.1,0-0.2,0s-0.1,0-0.1,0
				c-0.1,0-0.2,0-0.2,0.1c-0.2,0-0.3,0.1-0.5,0.1c-0.2,0.1-0.4,0.1-0.6,0.3c-0.1,0.1-0.2,0.2-0.3,0.3c-0.1,0.1-0.2,0.3-0.2,0.5
				c-0.1,0.2-0.1,0.3-0.1,0.5c0,0.1,0,0.2-0.1,0.2c0,0.1,0,0.1,0,0.2s0,0.1,0,0.2s0,0.1,0,0.1l0,0l0,0c0-0.1,0-0.2,0-0.3
				s0-0.1,0-0.1c0-0.1,0-0.2-0.1-0.2c0-0.2-0.1-0.3-0.1-0.5c-0.1-0.2-0.1-0.4-0.3-0.6c-0.1-0.1-0.2-0.2-0.3-0.3
				c-0.1-0.1-0.3-0.2-0.5-0.2c-0.2-0.1-0.3-0.1-0.5-0.1c-0.1,0-0.2,0-0.2-0.1c-0.1,0-0.1,0-0.1,0h-0.1c-0.1,0-0.1,0-0.1,0h-0.1l0,0
				l0,0c0.1,0,0.1,0,0.1,0c0.1,0,0.1,0,0.2,0s0.1,0,0.1,0s0.1,0,0.2,0c0.2,0,0.4-0.1,0.6-0.1c0.1,0,0.1-0.1,0.2-0.1
				c0.2-0.1,0.3-0.1,0.4-0.2c0.1-0.1,0.2-0.2,0.3-0.4c0.1-0.1,0.2-0.3,0.2-0.5c0.1-0.1,0.1-0.3,0.1-0.4s0-0.2,0.1-0.2
				c0-0.1,0-0.1,0-0.1c0-0.1,0-0.1,0-0.1c0-0.1,0-0.1,0-0.1C140.3,24.2,140.3,24.2,140.3,24.1L140.3,24.1z"/>
		</g>
		<g>
			<path class="st0" d="M173.8,82.3C173.8,82.4,173.8,82.4,173.8,82.3c-0.2,0.2-0.2,0.2-0.2,0.3c0,0.1-0.1,0.1-0.1,0.1
				c-0.1,0.1-0.1,0.1-0.1,0.2c-0.1,0.2-0.2,0.4-0.3,0.5s-0.1,0.2-0.1,0.2c-0.1,0.2-0.1,0.4-0.1,0.5c0,0.2,0.1,0.4,0.1,0.6
				c0.1,0.1,0.1,0.2,0.2,0.3c0.1,0.1,0.2,0.2,0.3,0.4c0.1,0.1,0.1,0.1,0.2,0.2s0.1,0.1,0.1,0.1c0.1,0.1,0.1,0.1,0.1,0.1
				c0.1,0.1,0.1,0.1,0.1,0.1l0.1,0.1l0,0l0,0c-0.1-0.1-0.1-0.1-0.2-0.1c-0.1-0.1-0.1-0.1-0.1-0.1c-0.1,0-0.1-0.1-0.1-0.1
				c-0.1-0.1-0.1-0.1-0.2-0.1c-0.2-0.1-0.3-0.2-0.5-0.2c-0.2-0.1-0.5-0.2-0.7-0.2s-0.3,0-0.5,0.1s-0.4,0.1-0.5,0.2
				c-0.1,0.1-0.3,0.2-0.4,0.3c-0.1,0.1-0.1,0.1-0.2,0.2s-0.1,0.1-0.1,0.1c-0.1,0.1-0.1,0.1-0.2,0.2l-0.1,0.1l0,0l0,0
				c0.1-0.1,0.1-0.2,0.2-0.3c0-0.1,0.1-0.1,0.1-0.1c0.1-0.1,0.1-0.1,0.1-0.2c0.1-0.2,0.2-0.3,0.2-0.5c0.1-0.2,0.2-0.5,0.2-0.7
				s0-0.3-0.1-0.5s-0.1-0.4-0.2-0.5c-0.1-0.1-0.2-0.3-0.3-0.4c-0.1-0.1-0.1-0.1-0.2-0.2l-0.1-0.1c-0.1-0.1-0.1-0.1-0.1-0.1
				c-0.1-0.1-0.1-0.1-0.1-0.1l-0.1-0.1l0,0l0,0c0.1,0.1,0.1,0.1,0.1,0.1c0.1,0.1,0.1,0.1,0.2,0.1c0.1,0,0.1,0.1,0.1,0.1
				c0.1,0.1,0.1,0.1,0.2,0.1c0.2,0.1,0.4,0.2,0.5,0.3s0.1,0.1,0.2,0.1c0.2,0.1,0.4,0.1,0.5,0.1s0.3,0,0.5-0.1s0.4-0.1,0.5-0.2
				c0.1-0.1,0.2-0.2,0.4-0.3c0.1-0.1,0.1-0.1,0.2-0.2l0.1-0.1c0.1-0.1,0.1-0.1,0.1-0.1l0.1-0.1C173.8,82.3,173.8,82.3,173.8,82.3
				L173.8,82.3z"/>
		</g>
		<g>
			<path class="st0" d="M63.2,29.8c0,0.1-0.1,0.1-0.1,0.1C63.1,30,63,30,63,30l-0.1,0.1c-0.1,0.1-0.1,0.1-0.1,0.1
				c-0.1,0.1-0.1,0.2-0.2,0.4c-0.1,0.1-0.1,0.1-0.1,0.2c-0.1,0.1-0.1,0.2-0.1,0.4c0,0.2,0.1,0.3,0.1,0.4c0.1,0.1,0.1,0.2,0.1,0.2
				c0.1,0.1,0.1,0.2,0.2,0.3c0.1,0.1,0.1,0.1,0.1,0.2l0.1,0.1l0.1,0.1l0.1,0.1c0,0,0,0.1,0.1,0.1l0,0l0,0c-0.1-0.1-0.1-0.1-0.1-0.1
				c-0.1,0-0.1-0.1-0.1-0.1L63,32.4c-0.1-0.1-0.1-0.1-0.2-0.1c-0.1-0.1-0.2-0.1-0.4-0.2C62.2,32,62,32,61.8,32c-0.1,0-0.2,0-0.4,0.1
				c-0.1,0.1-0.2,0.1-0.4,0.2c-0.1,0.1-0.2,0.2-0.3,0.2c-0.1,0.1-0.1,0.1-0.1,0.1l-0.1,0.1c-0.1,0.1-0.1,0.1-0.1,0.1l-0.1,0.1l0,0
				l0,0c0.1-0.1,0.1-0.1,0.1-0.2s0.1-0.1,0.1-0.1c0.1-0.1,0.1-0.1,0.1-0.2c0.1-0.1,0.1-0.2,0.2-0.4c0.1-0.2,0.1-0.4,0.1-0.5
				s0-0.2-0.1-0.4c-0.1-0.1-0.1-0.2-0.2-0.4c-0.1-0.1-0.2-0.2-0.2-0.3c-0.1-0.1-0.1-0.1-0.1-0.1l-0.1-0.1l-0.1-0.1L60,30l-0.1-0.1
				l0,0l0,0C60,29.9,60,30,60,30c0.1,0,0.1,0.1,0.1,0.1l0.1,0.1c0.1,0.1,0.1,0.1,0.1,0.1c0.1,0.1,0.2,0.1,0.4,0.2
				c0.1,0,0.1,0.1,0.1,0.1c0.1,0.1,0.2,0.1,0.4,0.1s0.2,0,0.4-0.1c0.1-0.1,0.2-0.1,0.4-0.2s0.2-0.1,0.3-0.2c0.1-0.1,0.1-0.1,0.2-0.1
				l0.1-0.1l0.1-0.1l0.1-0.1C63.1,29.9,63.2,29.8,63.2,29.8L63.2,29.8z"/>
		</g>
		<g>
			<path class="st0" d="M95.1,21.3c-0.1,0-0.1,0-0.1,0.1c-0.1,0-0.1,0.1-0.2,0.1s-0.1,0-0.1,0.1c-0.1,0-0.1,0.1-0.2,0.1
				c-0.2,0.1-0.3,0.1-0.5,0.2C94,22,94,22,93.8,22c-0.1,0.1-0.2,0.2-0.4,0.3s-0.2,0.3-0.2,0.5c0,0.1-0.1,0.2-0.1,0.3
				c0,0.1,0,0.3,0,0.4s0,0.2,0,0.2c0,0.1,0,0.1,0,0.1c0,0.1,0,0.1,0,0.1c0,0.1,0,0.1,0,0.1v0.1l0,0l0,0c0-0.1-0.1-0.1-0.1-0.2
				S93,23.8,93,23.8c0-0.1,0-0.1-0.1-0.1c0-0.1-0.1-0.1-0.1-0.2c-0.1-0.1-0.1-0.3-0.2-0.4c-0.1-0.2-0.2-0.4-0.4-0.6
				c-0.1-0.1-0.2-0.2-0.4-0.2c-0.2-0.1-0.3-0.1-0.5-0.1s-0.3,0-0.5,0c-0.1,0-0.2,0-0.2,0h-0.1c-0.1,0-0.1,0-0.2,0h-0.1l0,0l0,0
				c0.1,0,0.2-0.1,0.3-0.1s0.1,0,0.1-0.1c0.1,0,0.1-0.1,0.2-0.1c0.1-0.1,0.3-0.1,0.4-0.2c0.2-0.1,0.4-0.2,0.6-0.4
				c0.1-0.1,0.2-0.2,0.2-0.4c0.1-0.2,0.1-0.3,0.1-0.5s0-0.3,0-0.5c0-0.1,0-0.2,0-0.2v-0.1c0-0.1,0-0.1,0-0.1c0-0.1,0-0.1,0-0.1v-0.1
				l0,0l0,0c0,0.1,0,0.1,0.1,0.1c0,0.1,0.1,0.1,0.1,0.2s0,0.1,0.1,0.1c0,0.1,0.1,0.1,0.1,0.2c0.1,0.2,0.1,0.3,0.2,0.5
				c0,0.1,0.1,0.1,0.1,0.2c0.1,0.1,0.2,0.2,0.3,0.4c0.1,0.1,0.2,0.2,0.4,0.2c0.2,0.1,0.3,0.1,0.5,0.1c0.1,0,0.3,0,0.4,0
				c0.1,0,0.2,0,0.2,0c0.1,0,0.1,0,0.1,0h0.1c0.1,0,0.1,0,0.1,0C95,21.3,95,21.3,95.1,21.3L95.1,21.3z"/>
		</g>
		<g>
			<path class="st0" d="M136,58.5c-0.1,0-0.1,0-0.1,0.1c-0.1,0-0.1,0-0.1,0.1h-0.1c-0.1,0-0.1,0.1-0.2,0.1c-0.1,0.1-0.2,0.1-0.4,0.2
				c-0.1,0-0.1,0.1-0.2,0.1c-0.1,0.1-0.2,0.2-0.3,0.2c-0.1,0.1-0.1,0.2-0.2,0.4c0,0.1-0.1,0.2-0.1,0.2c0,0.1,0,0.2,0,0.4
				c0,0.1,0,0.1,0,0.2s0,0.1,0,0.1c0,0.1,0,0.1,0,0.1c0,0.1,0,0.1,0,0.1v0.1l0,0l0,0c0-0.1,0-0.1-0.1-0.1c0-0.1,0-0.1-0.1-0.1v-0.1
				c0-0.1-0.1-0.1-0.1-0.2c-0.1-0.1-0.1-0.2-0.2-0.4c-0.1-0.2-0.2-0.3-0.3-0.4s-0.2-0.1-0.3-0.2s-0.2-0.1-0.4-0.1
				c-0.1,0-0.2,0-0.4,0c-0.1,0-0.1,0-0.2,0s-0.1,0-0.1,0c-0.1,0-0.1,0-0.2,0h0.2l0,0l0,0c0.1,0,0.2-0.1,0.2-0.1c0.1,0,0.1,0,0.1-0.1
				c0.1,0,0.1-0.1,0.2-0.1c0.1-0.1,0.2-0.1,0.4-0.2s0.3-0.2,0.4-0.3c0.1-0.1,0.1-0.2,0.2-0.3c0.1-0.1,0.1-0.2,0.1-0.4
				c0-0.1,0-0.2,0-0.4c0-0.1,0-0.1,0-0.2v-0.1c0-0.1,0-0.1,0-0.1c0-0.1,0-0.1,0-0.1v-0.1l0,0l0,0c0,0.1,0,0.1,0.1,0.1
				c0,0.1,0,0.1,0.1,0.1v0.1c0,0.1,0.1,0.1,0.1,0.2c0.1,0.1,0.1,0.2,0.2,0.4c0,0.1,0.1,0.1,0.1,0.1c0.1,0.1,0.2,0.2,0.2,0.3
				c0.1,0.1,0.2,0.1,0.3,0.2s0.2,0.1,0.4,0.1c0.1,0,0.2,0,0.4,0c0.1,0,0.1,0,0.2,0h0.1C135.9,58.4,135.9,58.4,136,58.5L136,58.5
				C135.8,58.6,135.8,58.5,136,58.5L136,58.5z"/>
		</g>
		<g>
			<path class="st0" d="M26.3,76.8c-0.1,0-0.1,0-0.1,0.1c-0.1,0-0.1,0-0.1,0.1H26c-0.1,0-0.1,0.1-0.2,0.1c-0.1,0.1-0.2,0.1-0.4,0.2
				c-0.1,0-0.1,0.1-0.2,0.1c-0.1,0.1-0.2,0.2-0.3,0.2c-0.1,0.1-0.1,0.2-0.2,0.4c0,0.1-0.1,0.2-0.1,0.3c0,0.1,0,0.2,0,0.4
				c0,0.1,0,0.1,0,0.2s0,0.1,0,0.1c0,0.1,0,0.1,0,0.1v0.1v0.1l0,0l0,0c0-0.1,0-0.1-0.1-0.1c0-0.1,0-0.1-0.1-0.1V79
				c0-0.1-0.1-0.1-0.1-0.2c-0.1-0.1-0.1-0.2-0.2-0.4c-0.1-0.2-0.2-0.3-0.4-0.4c-0.1-0.1-0.2-0.1-0.3-0.2c-0.1-0.1-0.2-0.1-0.4-0.1
				c-0.1,0-0.2,0-0.4,0c-0.1,0-0.1,0-0.2,0s-0.1,0-0.1,0c-0.1,0-0.1,0-0.2,0H22l0,0l0,0c0.1,0,0.2-0.1,0.2-0.1c0.1,0,0.1,0,0.1-0.1
				c0.1,0,0.1-0.1,0.2-0.1c0.1-0.1,0.2-0.1,0.4-0.2c0.2-0.1,0.3-0.2,0.4-0.4c0.1-0.1,0.1-0.2,0.2-0.3c0.1-0.1,0.1-0.2,0.1-0.4
				c0-0.1,0-0.2,0-0.4c0-0.1,0-0.1,0-0.2v-0.1c0-0.1,0-0.1,0-0.1c0-0.1,0-0.1,0-0.1v-0.1l0,0l0,0c0,0.1,0,0.1,0.1,0.1
				c0,0.1,0,0.1,0.1,0.1v0.1c0,0.1,0.1,0.1,0.1,0.2c0.1,0.1,0.1,0.2,0.2,0.4c0,0.1,0.1,0.1,0.1,0.1c0.1,0.1,0.2,0.2,0.2,0.3
				c0.1,0.1,0.2,0.1,0.3,0.2c0.1,0.1,0.2,0.1,0.4,0.1c0.1,0,0.2,0,0.4,0c0.1,0,0.1,0,0.2,0h0.1c0.1,0,0.1,0,0.1,0h0.1
				C26.2,76.8,26.2,76.8,26.3,76.8L26.3,76.8z"/>
		</g>
		<g>
			<path class="st0" d="M89.5,57.5c-0.1,0-0.1,0-0.1-0.1c-0.1,0-0.1,0-0.2-0.1c-0.1,0-0.1,0-0.1,0c-0.1,0-0.1,0-0.2-0.1
				c-0.2,0-0.3-0.1-0.5-0.1c-0.1,0-0.1,0-0.2,0c-0.1,0-0.3,0.1-0.4,0.1c-0.2,0.1-0.3,0.2-0.4,0.3c-0.1,0.1-0.1,0.2-0.2,0.2
				c-0.1,0.1-0.1,0.2-0.2,0.4c-0.1,0.1-0.1,0.1-0.1,0.2s-0.1,0.1-0.1,0.1c0,0.1-0.1,0.1-0.1,0.1c0,0.1-0.1,0.1-0.1,0.1v0.1l0,0l0,0
				c0-0.1,0-0.1,0.1-0.2c0-0.1,0-0.1,0.1-0.1c0-0.1,0-0.1,0-0.1c0-0.1,0-0.1,0.1-0.2c0-0.1,0.1-0.3,0.1-0.4c0-0.2,0-0.4-0.1-0.6
				c-0.1-0.1-0.1-0.2-0.2-0.4c-0.1-0.1-0.2-0.2-0.4-0.3c-0.1-0.1-0.2-0.1-0.4-0.2c-0.1-0.1-0.1-0.1-0.2-0.1c-0.1,0-0.1-0.1-0.1-0.1
				s-0.1-0.1-0.2-0.1h-0.1l0,0l0,0c0.1,0,0.2,0.1,0.3,0.1s0.1,0,0.1,0s0.1,0,0.2,0.1c0.1,0,0.3,0.1,0.4,0.1c0.2,0,0.4,0,0.6-0.1
				c0.1-0.1,0.2-0.1,0.4-0.2c0.1-0.1,0.2-0.2,0.3-0.4c0.1-0.1,0.1-0.2,0.2-0.4c0.1-0.1,0.1-0.1,0.1-0.2s0-0.1,0.1-0.1
				c0-0.1,0.1-0.1,0.1-0.1c0-0.1,0.1-0.1,0.1-0.1v-0.1l0,0l0,0c0,0.1,0,0.1-0.1,0.1c0,0.1,0,0.1-0.1,0.2c0,0.1,0,0.1,0,0.1
				c0,0.1,0,0.1-0.1,0.2c0,0.2-0.1,0.3-0.1,0.5c0,0.1,0,0.1,0,0.2s0.1,0.3,0.1,0.4c0.1,0.1,0.1,0.2,0.2,0.4c0.1,0.1,0.2,0.2,0.4,0.3
				c0.1,0.1,0.2,0.1,0.4,0.2c0.1,0.1,0.1,0.1,0.2,0.1c0,0,0.1,0,0.1,0.1c0.1,0,0.1,0.1,0.1,0.1C89.5,57.4,89.5,57.4,89.5,57.5
				C89.3,57.5,89.5,57.5,89.5,57.5L89.5,57.5z"/>
		</g>
		<g>
			<path class="st0" d="M167.5,45c-0.1,0-0.1,0-0.1,0.1c-0.1,0-0.1,0.1-0.2,0.1s-0.1,0-0.1,0c-0.1,0-0.1,0.1-0.2,0.1
				c-0.1,0.1-0.3,0.1-0.4,0.2c-0.1,0-0.1,0.1-0.2,0.1c-0.1,0.1-0.2,0.2-0.3,0.3c-0.1,0.1-0.2,0.3-0.2,0.5c0,0.1-0.1,0.2-0.1,0.3
				c0,0.1,0,0.2,0,0.4c0,0.1,0,0.1,0,0.2s0,0.1,0,0.1c0,0.1,0,0.1,0,0.1c0,0.1,0,0.1,0,0.1v0.1l0,0l0,0c0-0.1-0.1-0.1-0.1-0.2
				s-0.1-0.1-0.1-0.1c0-0.1,0-0.1,0-0.1c0-0.1-0.1-0.1-0.1-0.2c-0.1-0.1-0.1-0.2-0.2-0.4c-0.1-0.2-0.2-0.4-0.4-0.5
				c-0.1-0.1-0.2-0.1-0.4-0.2c-0.1-0.1-0.3-0.1-0.4-0.1c-0.1,0-0.3,0-0.4,0c-0.1,0-0.1,0-0.2,0c-0.1,0-0.1,0-0.1,0
				c-0.1,0-0.1,0-0.2,0H163l0,0l0,0c0.1,0,0.2-0.1,0.2-0.1c0.1,0,0.1,0,0.1-0.1c0.1,0,0.1-0.1,0.2-0.1c0.1-0.1,0.2-0.1,0.4-0.2
				s0.4-0.2,0.5-0.4c0.1-0.1,0.1-0.2,0.2-0.4s0.1-0.3,0.1-0.4s0-0.3,0-0.4s0-0.1,0-0.2s0-0.1,0-0.1c0-0.1,0-0.1,0-0.1
				c0-0.1,0-0.1,0-0.1v-0.1l0,0l0,0c0,0.1,0,0.1,0.1,0.1c0,0.1,0.1,0.1,0.1,0.1c0,0.1,0,0.1,0.1,0.1c0,0.1,0.1,0.1,0.1,0.2
				c0.1,0.1,0.1,0.3,0.2,0.4c0,0.1,0.1,0.1,0.1,0.2c0.1,0.1,0.2,0.2,0.3,0.3c0.1,0.1,0.2,0.1,0.4,0.2c0.1,0.1,0.3,0.1,0.4,0.1
				c0.1,0,0.2,0,0.4,0c0.1,0,0.1,0,0.2,0h0.1c0.1,0,0.1,0,0.1,0h0.1C167.3,45,167.3,45,167.5,45L167.5,45z"/>
		</g>
		<g>
			<g>
				<path class="st0" d="M108.2,60.4L108.2,60.4L108.2,60.4C108.2,60.4,108.2,60.4,108.2,60.4C108.1,60.4,108.1,60.4,108.2,60.4
					L108.2,60.4z"/>
			</g>
			<g>
				<path class="st0" d="M108.2,60.4L108.2,60.4L108.2,60.4L108.2,60.4z"/>
			</g>
		</g>
		<g>
			<path class="st0" d="M108,6.9c-54.9,0-99.5,44.7-99.5,99.5c0,6.8,0.7,13.4,2,19.9c0.2,1.3,0.5,2.6,0.9,4c0.7,2.8,1.5,5.6,2.4,8.2
				c0.6,1.8,1.3,3.7,2,5.4c2,4.8,4.2,9.3,6.8,13.6c0.9,1.5,1.8,3,2.8,4.5c2.3,3.4,4.9,6.7,7.6,9.8c0.9,1,1.8,2.1,2.8,3.1
				c2.4,2.5,5,5,7.6,7.2c1.5,1.3,3,2.5,4.5,3.7c16.7,12.6,37.5,20.2,60,20.2s43.3-7.5,60-20.2c1.6-1.2,3.1-2.4,4.6-3.7
				c2.7-2.3,5.2-4.7,7.6-7.2c1-1,1.9-2,2.8-3.1c2.7-3.1,5.2-6.4,7.5-9.7c1-1.4,1.9-2.9,2.8-4.4c2.6-4.3,4.9-8.8,6.8-13.5
				c0.7-1.8,1.5-3.7,2.1-5.5c0.9-2.8,1.8-5.5,2.4-8.4c0.3-1.3,0.6-2.6,0.9-4c1.3-6.4,2-13.1,2-19.9C207.5,51.5,163,6.9,108,6.9z
				 M108,201.9c-15.6,0-30.4-3.8-43.5-10.4c0.9,0.1,2,0.2,3.1,0.2c5.6,0,8.6-1.7,11.1-3.2c2.4-1.5,4.6-2.7,9.1-2.7s6.7,1.3,9.1,2.7
				c2.6,1.5,5.5,3.2,11.1,3.2s8.6-1.7,11.1-3.2c2.4-1.5,4.6-2.7,9.1-2.7s6.7,1.3,9.1,2.7c2.6,1.5,5.6,3.2,11.1,3.2
				c1,0,1.9-0.1,2.8-0.1C138.5,198.1,123.6,201.9,108,201.9z M166.5,181.8c-4.1,0.4-6.5,1.8-8.7,3.1c-2.4,1.5-4.6,2.7-9.1,2.7
				s-6.7-1.2-9.1-2.7c-2.6-1.5-5.5-3.2-11.1-3.2s-8.6,1.7-11.1,3.2c-2.4,1.5-4.6,2.7-9.1,2.7s-6.7-1.2-9.1-2.7
				c-2.6-1.5-5.5-3.2-11.1-3.2s-8.6,1.7-11.1,3.2c-2.4,1.5-4.6,2.7-9.1,2.7s-6.7-1.2-9.1-2.7c-2.3-1.3-4.8-2.8-9-3.2
				c-3.5-2.8-6.9-5.7-10-9c2-1.1,4.2-2,7.9-2c4.5,0,6.7,1.3,9.1,2.7c2.6,1.5,5.6,3.2,11.1,3.2c5.6,0,8.6-1.7,11.1-3.2
				c2.4-1.5,4.6-2.7,9.1-2.7s6.7,1.3,9.1,2.7c2.6,1.5,5.5,3.2,11.1,3.2s8.6-1.7,11.1-3.2c2.4-1.5,4.6-2.7,9.1-2.7s6.7,1.3,9.1,2.7
				c2.6,1.5,5.6,3.2,11.1,3.2c5.6,0,8.6-1.7,11.1-3.2c2.4-1.5,4.6-2.7,9.1-2.7c3.7,0,5.7,0.8,7.7,1.9
				C173.5,176,170.1,179.1,166.5,181.8z M179.5,169.8c-2.4-1.4-5.3-2.9-10.5-2.9c-5.6,0-8.6,1.7-11.1,3.2c-2.4,1.5-4.6,2.7-9.1,2.7
				s-6.7-1.3-9.1-2.7c-2.6-1.5-5.5-3.2-11.1-3.2s-8.6,1.7-11.1,3.2c-2.4,1.5-4.6,2.7-9.1,2.7s-6.7-1.3-9.1-2.7
				c-2.6-1.5-5.5-3.2-11.1-3.2s-8.6,1.7-11.1,3.2c-2.4,1.5-4.6,2.7-9.1,2.7s-6.7-1.3-9.1-2.7c-2.6-1.5-5.5-3.2-11.1-3.2
				c-5.3,0-8.2,1.5-10.7,3c-2.3-2.6-4.5-5.3-6.5-8.1c3.7-0.5,5.9-1.8,8-3.1c2.4-1.5,4.6-2.7,9.1-2.7s6.7,1.2,9.1,2.7
				c2.6,1.5,5.6,3.2,11.1,3.2c5.6,0,8.6-1.7,11.1-3.2c2.4-1.5,4.6-2.7,9.1-2.7s6.7,1.2,9.1,2.7c2.6,1.5,5.5,3.2,11.1,3.2
				s8.6-1.7,11.1-3.2c2.4-1.5,4.6-2.7,9.1-2.7s6.7,1.2,9.1,2.7c2.6,1.5,5.6,3.2,11.1,3.2c5.6,0,8.6-1.7,11.1-3.2
				c2.4-1.5,4.6-2.7,9.1-2.7s6.7,1.2,9.1,2.7c2,1.2,4.2,2.5,7.8,3C183.8,164.5,181.8,167.2,179.5,169.8z M188.5,158
				c-4-0.1-6-1.3-8.3-2.7c-2.6-1.5-5.5-3.2-11.1-3.2s-8.6,1.7-11.1,3.2c-2.4,1.5-4.6,2.7-9.1,2.7s-6.7-1.3-9.1-2.7
				c-2.6-1.5-5.5-3.2-11.1-3.2s-8.6,1.7-11.1,3.2c-2.4,1.5-4.6,2.7-9.1,2.7s-6.7-1.3-9.1-2.7c-2.6-1.5-5.5-3.2-11.1-3.2
				s-8.6,1.7-11.1,3.2c-2.4,1.5-4.6,2.7-9.1,2.7s-6.7-1.3-9.1-2.7c-2.6-1.5-5.5-3.2-11.1-3.2s-8.6,1.7-11.1,3.2
				c-2.4,1.4-4.4,2.6-8.6,2.7c-2.4-3.7-4.5-7.6-6.4-11.6c1.6,0.5,3.5,0.8,5.8,0.8c5.6,0,8.6-1.7,11.1-3.2c2.4-1.5,4.6-2.7,9.1-2.7
				s6.7,1.2,9.1,2.7c2.6,1.5,5.6,3.2,11.1,3.2c5.6,0,8.6-1.7,11.1-3.2c2.4-1.5,4.6-2.7,9.1-2.7s6.7,1.2,9.1,2.7
				c2.6,1.5,5.5,3.2,11.1,3.2s8.6-1.7,11.1-3.2c2.4-1.5,4.6-2.7,9.1-2.7s6.7,1.2,9.1,2.7c2.6,1.5,5.6,3.2,11.1,3.2
				c5.6,0,8.6-1.7,11.1-3.2c2.4-1.5,4.6-2.7,9.1-2.7s6.7,1.2,9.1,2.7c2.6,1.5,5.6,3.2,11.1,3.2c2.2,0,4-0.2,5.5-0.7
				C193,150.5,190.8,154.3,188.5,158z M197,141.3c-2,1.1-4.1,1.9-7.8,1.9c-4.5,0-6.7-1.3-9.1-2.7c-2.6-1.5-5.5-3.2-11.1-3.2
				s-8.6,1.7-11.1,3.2c-2.4,1.5-4.6,2.7-9.1,2.7s-6.7-1.3-9.1-2.7c-2.6-1.5-5.5-3.2-11.1-3.2s-8.6,1.7-11.1,3.2
				c-2.4,1.5-4.6,2.7-9.1,2.7s-6.7-1.3-9.1-2.7c-2.6-1.5-5.5-3.2-11.1-3.2s-8.6,1.7-11.1,3.2c-2.4,1.5-4.6,2.7-9.1,2.7
				s-6.7-1.3-9.1-2.7c-2.6-1.5-5.5-3.2-11.1-3.2s-8.6,1.7-11.1,3.2c-2.4,1.5-4.6,2.7-9.1,2.7c-3.8,0-6-0.9-8.1-2.1
				c-1.4-3.5-2.6-7.2-3.5-10.9h185.1C199.6,134,198.5,137.7,197,141.3z M46.5,126.2l3.6-16.8l1.9,16.8H46.5z M122.8,76.6l-15,14.8
				l-15-14.8L122.8,76.6L122.8,76.6z M94.8,72.7l13-8.1l13,8.1H94.8z M76.1,100.4l27.7-3.7L87.4,124L76.1,100.4z M84.1,126.2H57.8
				l15.1-23.3L84.1,126.2z M107.8,98.1l16.9,28.1H90.8L107.8,98.1z M111.5,96.7l27.7,3.7L128,124L111.5,96.7z M142.5,102.9
				l15.1,23.3h-26.3L142.5,102.9z M145.8,100.5l17.2-1.3l-2.9,23.3L145.8,100.5z M143.3,96.7l-10-16.5l26.5,15.3L143.3,96.7z
				 M133,75.5l6.8-1.7L152,86.4L133,75.5z M138.5,96.3L112,92.8l15.2-14.9L138.5,96.3z M128,72.5L128,72.5l-7.2-4.5l11.7,3.4
				L128,72.5z M87.5,72.5L83,71.4L94.8,68L87.5,72.5z M88.2,77.9l15.2,14.9l-26.4,3.5L88.2,77.9z M82.1,80.2l-10,16.5l0,0l-16.4-1.2
				L82.1,80.2z M63.9,86.2l11.8-12.3l6.8,1.6L63.9,86.2z M69.8,100.5l-14.2,22l-2.6-23.2L69.8,100.5z M163.5,126.2l2.2-17.5
				l3.9,17.5H163.5z M201.5,126.2h-27.9l-6.5-29.5c0-0.1,0-0.1-0.1-0.2l0,0v-0.1v-0.1c-0.1-0.2-0.2-0.4-0.4-0.6l0,0l-24.8-25.4
				l-0.1-0.1c-0.1-0.1-0.1-0.1-0.2-0.2s-0.2-0.1-0.2-0.2c-0.1,0-0.1-0.1-0.1-0.1l-0.1-0.1c-0.1-0.1-0.2-0.1-0.3-0.1l-32.5-9.3h-0.1
				c0,0,0,0-0.1,0c0,0,0,0-0.1,0l0,0H108c-0.1,0-0.1,0-0.1,0c-0.1,0-0.2,0-0.2,0h-0.1c-0.1,0-0.2,0-0.2,0h-0.1h-0.1l0,0
				c0,0,0,0-0.1,0H107l-32.5,9.3h-0.1c-0.1,0-0.1,0.1-0.2,0.1s-0.1,0.1-0.2,0.1s-0.1,0.1-0.1,0.1c-0.1,0.1-0.1,0.1-0.1,0.1L73.7,70
				c-0.1,0.1-0.1,0.1-0.1,0.1l-0.1,0.1L49.2,95.6l-0.1,0.1L49,95.8l-0.1,0.1c-0.1,0.1-0.2,0.3-0.2,0.5c0,0.1-0.1,0.1-0.1,0.2v0.1
				l-6.4,29.5H14.3c-1.3-6.4-2.1-13-2.1-19.9c0-52.7,42.8-95.6,95.6-95.6c52.7,0,95.6,42.8,95.6,95.6
				C203.6,113.2,202.8,119.8,201.5,126.2z"/>
		</g>
		<g>
			<g>
				<path class="st0" d="M185.5,97.3c0,0.2,0,0.4,0,0.7V97.3C185.5,97.2,185.5,97.2,185.5,97.3z"/>
			</g>
			<g>
				<path class="st0" d="M198.5,116.7c-0.1,0.7-0.7,1.1-1.3,1.1c-0.1,0-0.2,0-0.3-0.1c-0.3-0.1-5.3-1.2-8.6-4.4v13.3
					c0,0.8-0.6,1.4-1.4,1.4s-1.4-0.6-1.4-1.4v-13.3c-3.2,3.2-8.2,4.3-8.6,4.4c-0.1,0-0.2,0.1-0.3,0.1c-0.6,0-1.2-0.4-1.3-1.1
					c-0.2-0.7,0.3-1.5,1-1.7c0.1,0,2.3-0.5,4.6-1.8s4.6-3.2,4.6-6.2v-2.6c-2.3,2.3-5.4,3.2-7.5,3.5c-0.1,0-0.1,0-0.2,0
					c-0.7,0-1.3-0.6-1.4-1.2c-0.1-0.8,0.5-1.5,1.2-1.5c0.3-0.1,7.5-1,7.8-7.3l0,0c0-0.2,0-0.4,0-0.7c0-0.1,0-0.1,0-0.1v-1.2
					c-2.3,2.6-5,3.1-5.1,3.1c-0.7,0.1-1.5-0.4-1.6-1.2c-0.1-0.7,0.4-1.5,1.2-1.6c0.2-0.1,5.5-1,5.5-8.8v0.1c0-0.8,0.6-1.4,1.4-1.4
					c0.4,0,0.7,0.2,1,0.4s0.4,0.6,0.4,1v0.1c0,7.8,5.3,8.8,5.5,8.8c0.7,0.1,1.3,0.9,1.2,1.6c-0.1,0.7-0.7,1.2-1.3,1.2
					c-0.1,0-0.1,0-0.2,0s-2.8-0.5-5.1-3.1v1.1c0,0.1,0,0.1,0,0.2s0,0.1,0,0.2v0.5c0-0.1,0-0.1,0-0.2c0.2,6.4,7.5,7.3,7.8,7.3
					c0.8,0.1,1.3,0.8,1.2,1.5s-0.7,1.2-1.4,1.2c-0.1,0-0.1,0-0.2,0c-2.1-0.2-5.2-1.2-7.5-3.5v2.4c0,0.1,0,0.1,0,0.1
					c0,5.9,9.1,7.9,9.2,7.9C198.2,115.2,198.8,116,198.5,116.7z"/>
			</g>
			<g>
				<path class="st0" d="M188.3,97.9L188.3,97.9c0,0.1,0,0.1,0,0.2v-0.5C188.3,97.7,188.3,97.8,188.3,97.9z"/>
			</g>
			<g>
				<path class="st0" d="M185.5,97.3c0,0.2,0,0.4,0,0.7v-0.6V97.3z"/>
				<path class="st0" d="M188.3,97.9L188.3,97.9c0,0.1,0,0.1,0,0.2v-0.5C188.3,97.7,188.3,97.8,188.3,97.9z"/>
			</g>
			<g>
				<path class="st1" d="M187,87.5"/>
			</g>
		</g>
		<g>
			<g>
				<path class="st0" d="M27.8,97.9L27.8,97.9C27.8,98,27.8,98,27.8,97.9v-0.3C27.8,97.7,27.8,97.8,27.8,97.9z"/>
				<path class="st0" d="M29.8,105.8c0.1,0.1,0.1,0.1,0.2,0.1C29.9,105.9,29.8,105.8,29.8,105.8z"/>
				<path class="st0" d="M40.8,116.7c-0.1,0.7-0.7,1.1-1.3,1.1c-0.1,0-0.2,0-0.3-0.1c-0.3-0.1-5.3-1.2-8.6-4.4v13.3
					c0,0.8-0.6,1.4-1.4,1.4s-1.4-0.6-1.4-1.4v-13.3c-3.2,3.2-8.2,4.3-8.6,4.4c-0.1,0-0.2,0.1-0.3,0.1c-0.6,0-1.2-0.4-1.3-1.1
					c-0.2-0.7,0.3-1.5,1-1.7c0.1,0,2.3-0.5,4.6-1.8c2.3-1.3,4.5-3.2,4.5-6.2v-2.6c-2.3,2.2-5.4,3.2-7.5,3.5c-0.1,0-0.1,0-0.2,0
					c-0.7,0-1.3-0.6-1.4-1.2c-0.1-0.8,0.5-1.5,1.2-1.5c0.3-0.1,7.5-0.9,7.8-7.2v-0.1l0,0c0-0.1,0-0.2,0-0.4v-1.6
					c-2.3,2.6-5,3.1-5.1,3.1c-0.7,0.1-1.5-0.4-1.6-1.2s0.4-1.5,1.2-1.6c0.2-0.1,5.5-1,5.5-8.8v0.1c0-0.8,0.6-1.4,1.4-1.4l0,0
					c0.8,0,1.4,0.6,1.4,1.4v0.1c0,7.8,5.3,8.7,5.5,8.8c0.7,0.1,1.3,0.9,1.2,1.6c-0.1,0.7-0.7,1.2-1.3,1.2c-0.1,0-0.1,0-0.2,0
					s-2.8-0.5-5.1-3.1V97c0,0.1,0,0.2,0,0.4s0,0.3,0,0.5l0,0c0.2,6.4,7.5,7.3,7.8,7.3c0.7,0.1,1.3,0.8,1.2,1.5s-0.7,1.2-1.4,1.2
					c-0.1,0-0.1,0-0.2,0c-2.1-0.2-5.2-1.2-7.5-3.5v2.4c0,0.1,0,0.1,0,0.2c0,5.9,9.1,7.9,9.2,7.9C40.5,115.2,41,116,40.8,116.7z"/>
			</g>
			<g>
				<path class="st0" d="M29.8,105.8c0.1,0.1,0.1,0.1,0.2,0.1C29.9,105.9,29.8,105.8,29.8,105.8z"/>
			</g>
			<g>
				<path class="st1" d="M29.2,87.5"/>
			</g>
		</g>
	</g>
	<g class="st2">
		<path class="st3" d="M89.1-98c-0.3-4.7-0.5-7.9-1-11.5c0.9,0,2.1,0.1,3.4,0c1.4-0.1,2.5-0.3,3.4-0.4c0,3.7,0.1,6.9,0.3,11.6
			l0.3,5.7c0.2,3.1,0.4,6.3,0.6,8.4c3.1-0.2,6.3-0.5,9.5-1.1c0,0.6-0.1,1-0.1,1.9c0.1,0.9,0.2,1.3,0.3,1.8c-1.5,0-3.5,0-7.3,0.2
			c-6.8,0.4-7.9,0.6-8.8,0.7c0-3.7-0.1-6.9-0.3-11.6L89.1-98z"/>
		<path class="st3" d="M109.8-99.5c2.3-1.8,5.3-2.7,7.9-2.6c4.4,0.2,7.6,2.2,7.3,7.2c-0.2,3.5-0.4,6.5-0.6,9.5
			c-0.1,2.6,0.6,2.9,2.3,3v1c-1.6,0.8-2.6,1-3.9,0.9c-2-0.1-3.2-1.3-3.8-3.2c-1.4,1.7-3,2.9-5.6,2.8c-4.2-0.2-5.8-3.1-5.7-5.8
			c0.2-3.6,2.7-5.1,6.5-5.8c4.7-0.9,5.2-1.2,5.2-2.7c0.1-2-1.3-3.7-3.8-3.8c-1.9-0.1-4.2,0.9-5.1,2.1h-0.3L109.8-99.5z M119.3-92.1
			c-2.4,1.2-5.6,0.9-5.8,5.1c-0.1,2,0.8,3.2,2.2,3.3c1.8,0.1,3.2-1.3,3.3-4C119.2-90.1,119.3-91.1,119.3-92.1z"/>
		<path class="st3" d="M131.8-97.5c0.8-5.4,1.4-9.6,1.9-14.3c0.7,0.2,1.9,0.5,3.1,0.7c1.2,0.2,2.4,0.3,3.1,0.3
			c-0.9,4.6-1.7,8.8-3.3,19.4c-0.1,0.7-0.1,0.9,0.1,0.9c0.5,0.1,4.1-3.1,9.2-7.9c0.6,0.2,1.2,0.4,1.9,0.5c0.6,0.1,1.3,0.1,2.3,0.2
			c-1.7,1.4-7.1,5.3-8.5,6.5c0.5,1.2,5.1,11.9,5.5,13.5c-1.1-0.3-2.2-0.5-3.2-0.7s-2.1-0.2-3.2-0.3c-0.5-1.4-3.8-10.4-4.4-10.5
			c-0.3,0-0.3,0.1-0.9,4c-0.2,1.5-0.6,4.5-0.6,5.5c-1-0.2-2-0.5-2.9-0.7c-1-0.2-2-0.2-3-0.3c0.9-4.6,1.7-8.8,2.5-14.2L131.8-97.5z"
			/>
		<path class="st3" d="M156.5-85.7c-1.2,4.4-0.4,8.1,3.4,9.1c1.9,0.5,3.7,0.3,5.5-0.5l0.4,0.5l-1.5,2c-1.6,0.7-3.6,1-6.6,0.2
			c-5.3-1.4-9-5.8-7.1-12.8s6.7-9.3,12.1-7.9c5.2,1.4,7.3,5.6,5.8,11.2c-0.2,0.7-0.3,1-0.4,1.3L156.5-85.7z M163.2-85.8
			c1-4.1,0.9-6.9-1.2-7.5c-2.4-0.6-4.1,2.7-5,5.8L163.2-85.8z"/>
		<path class="st3" d="M206.6-86.9c0.5,0.4,1,0.7,1.6,1s1.2,0.4,1.8,0.6c-5.2,4.8-15.4,14.1-22.4,21.5c-0.5-0.3-1-0.7-1.6-1
			s-1.2-0.4-1.8-0.6c0.6-7.6,1.5-24,1.6-30.9c1.1,0.7,2.2,1.2,3.3,1.7s2.3,0.9,3.4,1.3c-0.9,6.4-1.3,14.8-1.9,22.2
			C196.2-76.3,202-82,206.6-86.9z"/>
		<path class="st3" d="M205.8-66.8c1.7-2.9,3.1-5.5,4.4-8.2c0.6,0.5,1.5,1.1,2.6,1.8c1.1,0.7,2.2,1.1,2.8,1.4
			c-1.7,2.4-3.3,4.9-5,7.8l-0.8,1.4c-1.7,2.9-3.1,5.5-4.4,8.2c-0.6-0.4-1.5-1.1-2.6-1.8c-1.1-0.7-2.1-1.1-2.8-1.4
			c1.7-2.4,3.3-4.9,5-7.8L205.8-66.8z M218.5-83.1c1.6,0.9,2.1,2.9,1.2,4.5c-0.9,1.6-2.9,2.1-4.5,1.2s-2.1-2.9-1.2-4.5
			C215-83.5,217-84.1,218.5-83.1z"/>
		<path class="st3" d="M219.3-57.5c-2.6,3.7-3.1,7.5,0,9.7c1.6,1.1,3.3,1.6,5.3,1.4l0.2,0.6l-2.1,1.4c-1.7,0.1-3.7-0.3-6.3-2.1
			C212-49.6,210-55,214.2-61c4.2-5.9,9.5-6.4,14.1-3.2c4.4,3.1,5,7.7,1.6,12.5c-0.4,0.6-0.6,0.9-0.8,1.1L219.3-57.5z M225.6-55.3
			c2.3-3.5,3.2-6.2,1.4-7.4c-2-1.4-4.8,1.1-6.7,3.7L225.6-55.3z"/>
		<path class="st3" d="M245.3-30.4c4.4-2.5,8.7-5.1,12.9-7.8c0.3,0.4,0.7,0.9,1.1,1.3s0.9,0.6,1.4,1c-2.3,0.7-13,6.6-18.9,10.1
			c-0.5-0.6-1-1.2-1.5-1.7c-0.6-0.5-1.2-1-1.9-1.4c2.2-4.3,4.5-9.2,6.3-12.9l-0.1-0.1c-4.2,2.4-8.3,4.8-12.4,7.3
			c-0.5-0.6-1-1.2-1.6-1.8s-1.3-1-2-1.5c3.2-6.1,8.3-17.5,9-19.3c0.8,0.9,1.5,1.7,2.3,2.4c0.7,0.7,1.6,1.3,2.4,1.9
			c-2.3,4.4-4.8,9.5-6.8,13.4l0.1,0.1c4.4-2.5,8.7-5.1,12.9-7.8c0.5,0.6,1,1.2,1.6,1.7s1.2,1,1.9,1.4
			C249.8-39.5,247.5-35,245.3-30.4L245.3-30.4z"/>
		<path class="st3" d="M288.2-3c1.1-2.9,1-6-1.2-9.2c-2.9-4.3-9.5-6.3-16.7-1.3c-5.5,3.8-7.5,9.7-3.9,15c0.8,1.2,2.4,3,3.2,3.3
			c0.6-0.3,1.5-0.9,2.5-1.5c3.7-2.5,5.1-3.8,5.8-4.3c0.2,0.5,0.6,1.3,1.6,2.7c1.1,1.7,1.7,2.3,2.1,2.7c-0.8,0.3-3.8,2.2-6,3.7
			c-1.5,1-3.3,2.3-3.7,2.7c-2.9-2.4-5.7-5.1-7.8-8.2c-5.4-7.9-4.8-16.7,2.2-21.5c8.8-6,17.4-2.8,22.9,5.3c2.4,3.5,3.2,6.4,3.6,9.7
			c-1.4,0.4-2.9,0.8-4.2,1.4L288.2-3z"/>
		<path class="st3" d="M288,8.1c4.8-2.6,8.6-4.7,12.6-7.1c0.2,0.7,0.7,1.8,1.3,2.9s1.2,2.1,1.7,2.7c-4.3,2-8.1,3.9-12.9,6.5
			l-2.4,1.3c-4.8,2.6-8.6,4.7-12.6,7.1c-0.2-0.7-0.7-1.8-1.3-2.9s-1.2-2.1-1.7-2.7c4.3-2,8.1-3.9,12.9-6.5L288,8.1z"/>
		<path class="st3" d="M294.2,18.4c2.6,1.3,4.7,3.6,5.8,6c1.7,4.1,1.3,7.8-3.3,9.7c-3.3,1.4-6,2.4-8.8,3.6c-2.4,1-2.4,1.8-1.7,3.4
			l-0.9,0.4c-1.4-1.1-2-1.9-2.5-3.1c-0.8-1.9-0.2-3.5,1.3-4.9c-2.1-0.5-3.9-1.5-4.9-3.8c-1.7-3.9,0.2-6.6,2.7-7.6
			c3.3-1.4,5.7,0.2,8,3.3c2.9,3.9,3.3,4.1,4.7,3.5c1.8-0.8,2.8-2.8,1.8-5.1c-0.8-1.8-2.7-3.4-4.1-3.7l-0.1-0.3L294.2,18.4z
			 M291.6,30.3c-2.2-1.7-3.2-4.6-7.1-3c-1.9,0.8-2.6,2.1-2,3.4c0.7,1.7,2.5,2.3,5,1.2C289.8,31,290.8,30.7,291.6,30.3z"/>
		<path class="st3" d="M303.8,44.6L303.8,44.6c2.6,1,4.5,2.7,5.2,5.2c0.6,2.4-0.3,4.6-2.5,6.2c2.9,1,4.9,2.9,5.5,5.2
			c1.1,4-0.6,6.9-5.8,8.3c-2.7,0.7-4.7,1.1-6.8,1.6c-1.7,0.4-3.8,1.1-5.8,1.7c-0.1-0.7-0.3-1.9-0.6-3.1s-0.7-2.3-1-3
			c3-0.4,6.9-1.4,11.7-2.6c3.4-0.9,4.6-2.5,4.1-4.5c-0.7-2.6-3.6-2.5-5.5-2l-2.9,0.8c-3.3,0.9-6.1,1.7-8.9,2.7
			c-0.1-0.7-0.3-1.8-0.6-3.1c-0.3-1.3-0.7-2.3-1-3c2.9-0.5,5.8-1.2,9.1-2.1l2.5-0.7c3.2-0.9,4.9-2,4.3-4.3c-0.6-2.4-3.2-2.9-6.9-1.9
			l-1.6,0.4c-3.3,0.9-6.1,1.7-8.9,2.7c-0.1-0.7-0.3-1.8-0.6-3.1c-0.3-1.3-0.7-2.3-1-3c2.9-0.5,5.8-1.2,9.1-2.1l1.6-0.4
			c3.3-0.9,6.1-1.7,8.9-2.7c0.2,1,0.3,2,0.6,2.9c0.3,1,0.6,1.9,1,2.9L303.8,44.6z"/>
		<path class="st3" d="M299.5,75.9c5.4-0.6,9.7-1.2,14.3-1.9c0,1,0,2,0.1,2.9c0.1,1,0.3,1.9,0.5,2.8c-0.9,0-2.4,0-3.6,0.1v0.1
			c2.4,0.5,4.4,2.5,4.8,5.4c0.5,4.2-2.1,8.4-9.4,9.2c-7.9,0.9-11.4-2.9-11.8-7c-0.3-2.5,0.6-4.5,2.4-5.7v-0.1
			c-4,0.4-11.4,1.3-13.4,1.8c0-0.7,0-1.9-0.1-3.1c-0.1-1.2-0.3-2.4-0.5-3.1c4.7-0.3,9-0.6,14.4-1.2L299.5,75.9z M312.8,83.9
			c-0.2-2.1-2.7-3.7-8.9-3.1c-5,0.6-7.2,2.2-7,4.6c0.3,2.4,3,3.6,8.5,3C311,87.9,313.1,86.1,312.8,83.9z"/>
		<path class="st3" d="M306.8,99.3c3.4-0.1,6.4-0.2,9.3-0.5c-0.1,0.8-0.2,1.8-0.1,3.1c0,1.3,0.2,2.4,0.3,3.1
			c-2.9-0.2-5.9-0.2-9.3-0.1h-1.7c-3.4,0.1-6.4,0.2-9.3,0.5c0.1-0.7,0.2-1.8,0.1-3.1c0-1.3-0.2-2.4-0.3-3.1c2.9,0.2,5.9,0.2,9.3,0.1
			H306.8z M327.2,101.7c0,1.8-1.4,3.3-3.2,3.4c-1.8,0-3.3-1.4-3.4-3.2s1.4-3.3,3.2-3.4S327.2,99.8,327.2,101.7z"/>
		<path class="st3" d="M312.8,116.7L312.8,116.7c2.1,1.8,3.4,4,3.2,6.6c-0.3,4.2-2.8,6.4-8.1,6c-2.8-0.2-4.8-0.5-7-0.6
			c-1.8-0.1-3.9-0.1-6.1-0.2c0.2-0.7,0.3-1.9,0.4-3.1c0.1-1.2,0.1-2.4,0-3.1c3,0.6,7,0.9,11.9,1.3c3.5,0.2,5.2-0.9,5.3-3.1
			c0.2-2.5-2.1-3.8-5.9-4l-1.7-0.1c-3.4-0.2-6.3-0.3-9.3-0.3c0.1-0.7,0.3-1.8,0.4-3.1c0.1-1.3,0-2.4,0-3.1c2.9,0.4,5.9,0.7,9.2,1
			l1.7,0.1c3.4,0.2,6.3,0.3,9.3,0.3c-0.2,1-0.3,1.9-0.4,2.9c-0.1,1,0,2,0,3.1L312.8,116.7z"/>
		<path class="st3" d="M310.1,149.6L310.1,149.6c-1.3,1.1-3,1.7-5.1,1.3c-4.1-0.7-6.2-4.5-5.4-9.2c0.1-0.6,0.3-1.1,0.4-1.8
			c0.1-0.7-0.5-1.3-1.3-1.5c-1.3-0.2-2.3,0.6-2.8,2.8l-0.6,3c-0.9,4.5-2.9,6.4-6.6,5.7c-6.5-1.2-7.7-7.6-6.8-12.5
			c0.9-5.1,3.8-7.8,7-7.2c2.6,0.5,3.9,2.4,4.4,5h0.1c0.9-1.3,2.1-2,3.6-1.8c1.8,0.3,3.5,2.2,3.7,4.6h0.1c0.7-1.6,1.7-2.8,2.9-3.5
			s2.8-0.9,4.5-0.6c4.2,0.8,6,4.7,5,9.9c-0.2,1-0.5,2-0.7,3c-0.2,0.7-0.3,1.4-0.5,2.3c-0.2,1.4-0.5,2.9-0.8,4.4
			c-0.3-0.1-0.6-0.2-1-0.3c-0.3-0.1-0.7-0.1-1-0.1L310.1,149.6z M292.5,139.4c0.3-1.4,0.3-2.4,0.1-3c-0.2-0.7-1.4-1.9-3.3-2.3
			c-3.1-0.6-5.2,1.6-5.7,4.5c-0.6,3.2,1.3,5.6,4,6C290.8,145.2,291.8,143.1,292.5,139.4z M306.8,139.6c-3.6-0.7-5.1,0.6-5.3,1.8
			c-0.3,1.8,1,2.9,4.7,3.6c3.7,0.7,5.3-0.2,5.5-1.7C312,141.5,310.3,140.3,306.8,139.6z"/>
		<path class="st3" d="M292.1,168.2c-0.6,1.8-2.6,2.8-4.3,2.2s-2.8-2.6-2.2-4.3c0.6-1.8,2.6-2.8,4.3-2.2S292.8,166.4,292.1,168.2z"
			/>
		<path class="st3" d="M294.2,192.7c4.2,2.1,7.1,3.5,10.5,4.9c-0.5,0.8-1.1,1.7-1.7,3c-0.6,1.2-1,2.3-1.4,3.2
			c-3.2-1.9-6-3.4-10.2-5.5l-5.1-2.6c-2.8-1.4-5.6-2.8-7.6-3.7c-1.4,2.8-2.7,5.7-3.8,8.8c-0.5-0.3-0.8-0.6-1.6-1s-1.2-0.5-1.7-0.7
			c0.7-1.3,1.8-3,3.5-6.4c3.1-6.1,3.5-7.1,3.8-8c3.2,1.9,6,3.4,10.2,5.5L294.2,192.7z"/>
		<path class="st3" d="M285.1,211.4c0.4,2.9-0.4,5.9-1.8,8.2c-2.4,3.7-5.7,5.4-9.9,2.7c-3-1.9-5.4-3.6-7.9-5.3
			c-2.2-1.4-2.8-0.9-3.8,0.5l-0.8-0.5c0.2-1.8,0.4-2.8,1.1-3.8c1.1-1.7,2.8-2.1,4.7-1.7c-0.8-2-1-4.1,0.4-6.2c2.3-3.5,5.6-3.5,7.8-2
			c3.1,2,3,4.9,1.8,8.5c-1.6,4.5-1.5,5.1-0.3,5.9c1.7,1.1,3.9,0.7,5.2-1.4c1-1.6,1.3-4.1,0.8-5.5l0.2-0.2L285.1,211.4z M273.8,215.9
			c0.2-2.7,2.1-5.2-1.5-7.5c-1.7-1.1-3.2-1-4,0.3c-1,1.5-0.5,3.4,1.8,4.8C272.2,214.8,273,215.4,273.8,215.9z"/>
		<path class="st3" d="M272.2,229.4c4.3,3.5,7.6,6,11.4,8.9c-0.5,0.5-1.4,1.4-2.1,2.3c-0.8,0.9-1.5,1.9-1.8,2.6
			c-3.5-3.1-6.8-5.9-15.1-12.7c-0.6-0.5-0.7-0.6-0.8-0.4c-0.3,0.4,0.6,5.1,2.2,11.9c-0.5,0.5-1,0.9-1.4,1.4s-0.7,1.1-1.3,1.9
			c-0.3-2.2-1-8.8-1.3-10.6c-1.3-0.2-12.8-1.6-14.5-2.1c0.8-0.9,1.6-1.6,2.2-2.4c0.7-0.8,1.2-1.7,1.8-2.6c1.5,0.2,10.9,2,11.3,1.5
			c0.2-0.2,0.1-0.3-3-2.8c-1.2-0.9-3.6-2.8-4.5-3.3c0.7-0.7,1.4-1.4,2.1-2.2c0.6-0.8,1.2-1.6,1.7-2.5c3.5,3.1,6.8,5.9,11,9.4
			L272.2,229.4z"/>
		<path class="st3" d="M249.5,244.7c-3.2-3.2-6.8-4.4-9.6-1.7c-1.4,1.4-2.1,3-2.3,5l-0.6,0.1l-1-2.3c0.2-1.7,1-3.6,3.2-5.8
			c3.9-3.8,9.5-4.8,14.7,0.3c5.1,5.1,4.7,10.5,0.7,14.5c-3.9,3.8-8.5,3.5-12.6-0.6c-0.5-0.5-0.8-0.8-0.9-1L249.5,244.7z
			 M246.3,250.6c3,2.9,5.5,4.2,7.1,2.7c1.8-1.7-0.2-4.9-2.5-7.3L246.3,250.6z"/>
		<path class="st3" d="M225.5,288.7c-0.5,0.2-1.1,0.5-1.6,0.9s-1,0.8-1.4,1.2c-1.6-6.9-4.5-20.5-7.4-30.1c0.6-0.3,1.1-0.5,1.6-0.9
			s0.9-0.8,1.4-1.2c6.3,4.3,20,13.3,25.9,16.9c-1.1,0.6-2.2,1.3-3.2,2s-2,1.5-2.9,2.3c-5.1-4-12.1-8.6-18.2-12.8
			C221.5,274.3,223.5,282.1,225.5,288.7z"/>
		<path class="st3" d="M208.5,277.9c1.7,2.9,3.2,5.5,4.9,7.9c-0.7,0.3-1.7,0.7-2.8,1.4s-2,1.3-2.6,1.7c-1.2-2.7-2.6-5.3-4.3-8.2
			l-0.8-1.5c-1.7-2.9-3.2-5.5-4.9-7.9c0.7-0.3,1.7-0.7,2.8-1.4s2-1.3,2.6-1.7c1.2,2.7,2.6,5.3,4.3,8.2L208.5,277.9z M216.2,297.1
			c-1.6,0.9-3.6,0.4-4.5-1.2c-0.9-1.6-0.4-3.6,1.2-4.5c1.6-0.9,3.6-0.4,4.5,1.2C218.3,294.2,217.8,296.2,216.2,297.1z"/>
		<path class="st3" d="M193.6,284.9c-1.9-4.1-4.9-6.5-8.4-4.9c-1.7,0.8-3,2.1-3.9,3.9l-0.6-0.1l-0.1-2.5c0.8-1.5,2.1-3.1,5-4.4
			c4.9-2.3,10.6-1.3,13.7,5.3c3,6.6,0.8,11.5-4.3,13.8c-4.9,2.3-9.2,0.4-11.6-4.8c-0.3-0.6-0.5-1-0.5-1.3L193.6,284.9z M188.5,289.3
			c1.8,3.8,3.7,5.9,5.7,5c2.2-1,1.4-4.7,0.1-7.7L188.5,289.3z"/>
		<path class="st3" d="M157.2,293.8c-0.1,5.1,0,10.1,0.2,15.1c-0.5,0.1-1.1,0.1-1.6,0.3s-1,0.4-1.6,0.7c0.5-2.4,0.8-14.5,0.8-21.4
			c0.7-0.1,1.5-0.3,2.3-0.5s1.4-0.6,2.2-0.9c2.6,4,5.7,8.5,8,11.9h0.1c0-4.8,0.1-9.6,0-14.4c0.8-0.2,1.6-0.3,2.3-0.5
			c0.8-0.2,1.5-0.6,2.3-0.9c3.7,5.8,10.9,16,12.1,17.4c-1.2,0.3-2.2,0.5-3.2,0.8s-1.9,0.7-2.9,1.1c-2.7-4.2-5.8-8.9-8.2-12.6h-0.1
			c-0.1,5.1,0.1,10.1,0.2,15.1c-0.8,0.2-1.5,0.3-2.3,0.5s-1.4,0.6-2.2,0.9C162.8,302.2,160.1,297.9,157.2,293.8L157.2,293.8z"/>
		<path class="st3" d="M111.8,317c1.9,2.4,4.7,3.9,8.5,3.6c5.2-0.4,10.2-5,9.6-13.8c-0.5-6.6-4.5-11.4-11-10.9
			c-1.4,0.1-3.9,0.6-4.5,1.1c-0.1,0.7,0,1.7,0.1,2.9c0.3,4.5,0.7,6.4,0.8,7.2c-0.5,0-1.4-0.1-3.1,0c-2,0.1-2.8,0.3-3.4,0.4
			c0.1-0.9,0-4.4-0.2-7c-0.1-1.8-0.3-4-0.5-4.6c3.6-1.3,7.3-2.4,11-2.6c9.6-0.7,16.9,4.3,17.5,12.8c0.8,10.6-6.3,16.4-16.1,17.1
			c-4.2,0.3-7.1-0.4-10.2-1.8c0.4-1.5,0.7-2.9,0.9-4.3L111.8,317z"/>
		<path class="st3" d="M102.3,311.3c-0.2,5.5-0.3,9.7-0.3,14.5c-0.7-0.2-1.9-0.3-3.1-0.3c-1.2,0-2.4,0-3.1,0.1
			c0.4-4.7,0.7-9,0.9-14.4l0.1-2.7c0.2-5.5,0.3-9.7,0.3-14.5c0.7,0.2,1.9,0.3,3.1,0.3c1.2,0,2.4,0,3.1-0.1c-0.4,4.7-0.7,9-0.9,14.4
			L102.3,311.3z"/>
		<path class="st3" d="M90.5,311.4c-2.5,1.6-5.5,2.3-8.1,1.9c-4.4-0.5-7.4-2.8-6.8-7.7c0.4-3.5,0.9-6.4,1.3-9.4
			c0.3-2.6-0.4-3-2.1-3.2l0.1-1c1.7-0.6,2.7-0.8,4-0.6c2,0.3,3.1,1.6,3.6,3.5c1.5-1.6,3.2-2.7,5.8-2.4c4.2,0.5,5.6,3.5,5.3,6.2
			c-0.4,3.6-3,4.8-6.9,5.3c-4.8,0.5-5.2,0.8-5.4,2.3c-0.2,2,1,3.8,3.5,4.1c1.9,0.2,4.3-0.6,5.3-1.7h0.3L90.5,311.4z M81.5,303.3
			c2.5-1,5.6-0.4,6.1-4.6c0.3-2-0.5-3.3-2-3.4c-1.8-0.2-3.2,1-3.6,3.7C81.8,301.3,81.5,302.3,81.5,303.3z"/>
		<path class="st3" d="M62.9,306.5L62.9,306.5c-2.2,1.7-4.6,2.6-7.1,1.9c-2.4-0.7-3.8-2.5-4.1-5.2c-2.3,2-4.9,2.8-7.3,2.1
			c-4-1.1-5.7-4-4.3-9.1c0.8-2.7,1.4-4.6,2-6.7c0.5-1.7,0.9-3.8,1.4-5.9c0.7,0.3,1.8,0.7,3,1s2.4,0.6,3.1,0.6
			c-1.2,2.8-2.3,6.7-3.6,11.5c-0.9,3.3-0.1,5.3,1.9,5.8c2.6,0.7,3.9-1.8,4.5-3.8l0.8-2.9c0.9-3.3,1.6-6.2,2.1-9c0.7,0.3,1.7,0.7,3,1
			c1.2,0.3,2.3,0.5,3.1,0.6c-1,2.8-1.9,5.6-2.8,8.9l-0.7,2.5c-0.9,3.2-0.7,5.3,1.5,5.9c2.4,0.7,4.1-1.3,5.1-5l0.4-1.6
			c0.9-3.3,1.6-6.2,2.1-9c0.7,0.3,1.7,0.7,3,1c1.2,0.3,2.3,0.5,3.1,0.6c-1,2.8-1.9,5.6-2.8,8.9l-0.4,1.6c-0.9,3.3-1.6,6.2-2.1,9
			c-0.9-0.3-1.8-0.7-2.8-1s-1.9-0.4-3-0.6L62.9,306.5z"/>
		<path class="st3" d="M38,287.1c-2.2,5-3.8,9-5.6,13.4c-0.8-0.5-1.7-1-2.6-1.4s-1.8-0.7-2.7-1c0.4-0.8,1.2-2.1,1.7-3.2h-0.1
			c-1.7,1.8-4.4,2.6-7.1,1.4c-3.9-1.7-6.2-6.1-3.2-12.7c3.2-7.3,8.2-8.4,12-6.7c2.3,1,3.6,2.7,3.7,5h0.1c1.6-3.7,4.7-10.5,5.2-12.5
			c0.6,0.4,1.7,1,2.8,1.5s2.3,0.9,3,1.1c-2.1,4.2-3.9,8.1-6.2,13.1L38,287.1z M24.3,294.6c1.9,0.8,4.6-0.4,7.1-6.2
			c2-4.6,1.7-7.4-0.5-8.4s-4.6,0.8-6.8,5.8C21.9,291,22.3,293.7,24.3,294.6z"/>
		<path class="st3" d="M1.8,298.2c-1.6-0.9-2.2-2.9-1.3-4.5c0.9-1.6,2.9-2.2,4.5-1.3s2.2,2.9,1.3,4.5S3.3,299,1.8,298.2z
			 M14.1,281.6c-1.6,3-3,5.6-4.2,8.3c-0.6-0.4-1.5-1.1-2.6-1.7s-2.2-1.1-2.8-1.3c1.6-2.4,3.2-5,4.8-8l0.8-1.5c1.6-3,3-5.6,4.2-8.3
			c0.6,0.4,1.5,1.1,2.6,1.7c1.1,0.6,2.1,1,2.8,1.3c-1.6,2.4-3.2,5-4.8,8L14.1,281.6z"/>
		<path class="st3" d="M-4,278L-4,278c-2.6,1-5.2,0.9-7.4-0.5c-3.5-2.3-4.1-5.6-1.1-10c1.6-2.4,2.9-3.9,4.1-5.7
			c1-1.5,2.1-3.3,3.2-5.1c0.5,0.5,1.5,1.3,2.5,1.9c1,0.7,2.1,1.3,2.7,1.6c-2,2.3-4.3,5.6-7.1,9.7c-1.9,2.9-1.8,4.9,0,6.1
			c2.1,1.4,4.3,0.1,6.5-3l0.9-1.4c1.9-2.8,3.5-5.3,4.9-7.9c0.5,0.5,1.4,1.2,2.5,1.9s2,1.2,2.7,1.6c-1.9,2.3-3.6,4.7-5.5,7.5
			l-0.9,1.4c-1.9,2.8-3.5,5.3-4.9,7.9c-0.8-0.6-1.5-1.3-2.3-1.8c-0.8-0.6-1.7-1-2.6-1.5L-4,278z"/>
		<path class="st3" d="M-31,259.2h0.1c-0.4-1.7-0.1-3.4,1.3-5c2.7-3.1,7-3.1,10.7,0c0.4,0.4,0.9,0.8,1.4,1.3
			c0.5,0.4,1.4,0.2,1.9-0.4c0.9-1,0.7-2.3-1-3.8l-2.3-2c-3.5-3-4.1-5.7-1.6-8.6c4.3-5,10.5-2.8,14.2,0.4c3.9,3.4,4.8,7.2,2.7,9.6
			c-1.7,2-4,2.1-6.5,1.3l-0.1,0.1c0.7,1.4,0.7,2.8-0.3,4c-1.2,1.4-3.7,1.9-5.8,0.8l-0.1,0.1c1,1.4,1.5,2.8,1.5,4.3s-0.6,2.9-1.8,4.2
			c-2.8,3.2-7.1,2.8-11.1-0.7c-0.8-0.7-1.5-1.5-2.2-2.1c-0.5-0.5-1.1-1-1.7-1.6c-1-0.9-2.2-1.9-3.4-2.8c0.2-0.2,0.5-0.5,0.7-0.7
			s0.4-0.5,0.6-0.8L-31,259.2z M-20.7,261.3c2.4-2.8,2.1-4.7,1.1-5.5c-1.4-1.2-3.1-0.6-5.5,2.3c-2.4,2.9-2.5,4.6-1.3,5.6
			C-25,264.9-23.1,264.1-20.7,261.3z M-13.2,249c1.1,1,1.9,1.5,2.6,1.6c0.7,0.2,2.3-0.2,3.6-1.7c2.1-2.4,1.2-5.3-1-7.2
			c-2.4-2.1-5.5-1.7-7.2,0.4C-17.5,244.6-16.1,246.6-13.2,249z"/>
		<path class="st3" d="M-38,234.3c-1.2-1.4-1.1-3.6,0.3-4.8s3.6-1.1,4.8,0.3s1.1,3.6-0.3,4.8S-36.8,235.7-38,234.3z"/>
		<path class="st3" d="M-60.2,223.8c-3.9,2.6-6.6,4.4-9.5,6.6c-0.4-0.8-0.9-1.8-1.7-3c-0.8-1.2-1.5-2-2-2.8c3.2-1.8,6-3.5,9.9-6
			l4.8-3.1c2.6-1.7,5.2-3.5,7-4.7c-1.7-2.6-3.6-5.2-5.7-7.7c0.5-0.2,0.9-0.4,1.7-0.9c0.7-0.5,1-0.8,1.4-1.1c0.8,1.3,1.7,3,3.8,6.2
			c3.7,5.7,4.4,6.6,5,7.3c-3.2,1.8-6,3.5-9.9,6L-60.2,223.8z"/>
		<path class="st3" d="M-71.8,206.5c-2.7-1.2-5-3.3-6.2-5.6c-2-4-1.8-7.7,2.6-9.9c3.2-1.6,5.8-2.8,8.5-4.2c2.3-1.2,2.2-2,1.5-3.5
			l0.9-0.5c1.5,1,2.2,1.8,2.7,2.9c0.9,1.8,0.5,3.5-0.9,4.9c2.2,0.4,4,1.2,5.2,3.5c1.9,3.8,0.2,6.6-2.2,7.8c-3.2,1.6-5.7,0.2-8.2-2.8
			c-3.1-3.7-3.6-3.9-5-3.2c-1.8,0.9-2.6,3-1.4,5.2c0.9,1.7,2.9,3.2,4.3,3.4l0.1,0.3L-71.8,206.5z M-70.1,194.5
			c2.3,1.5,3.5,4.4,7.3,2.5c1.8-0.9,2.4-2.3,1.8-3.6c-0.8-1.6-2.7-2.1-5.1-0.9C-68.4,193.6-69.2,194.1-70.1,194.5z"/>
		<path class="st3" d="M-81,186.4c-5.1,1.9-9.1,3.6-13.4,5.4c-0.1-0.7-0.5-1.9-0.9-3s-0.9-2.2-1.3-2.9c4.5-1.5,8.5-2.9,18.5-6.7
			c0.7-0.3,0.9-0.3,0.8-0.5c-0.2-0.4-4.7-2-11.4-4.1c-0.2-0.7-0.3-1.3-0.5-1.9c-0.2-0.6-0.6-1.2-1-2.1c2,0.8,8.1,3.6,9.8,4.2
			c0.8-1,7.9-10.3,9.1-11.5c0.3,1.1,0.6,2.1,1,3.2s0.9,1.9,1.3,2.9c-0.9,1.2-7.2,8.4-7,9c0.1,0.3,0.2,0.2,4-1.2
			c1.4-0.5,4.2-1.7,5.1-2.2c0.3,1,0.5,2,0.9,2.9s0.8,1.8,1.3,2.7c-4.5,1.5-8.5,2.9-13.6,4.8L-81,186.4z"/>
		<path class="st3" d="M-82.9,159.1c4.4-1.1,7.2-3.7,6.3-7.4c-0.5-1.9-1.5-3.4-3.1-4.5l0.2-0.6l2.5,0.3c1.4,1.1,2.6,2.6,3.4,5.7
			c1.4,5.3-0.6,10.7-7.7,12.5c-7,1.8-11.4-1.3-12.8-6.7c-1.4-5.3,1.2-9.1,6.8-10.6c0.7-0.2,1.1-0.3,1.3-0.3L-82.9,159.1z
			 M-86.2,153.3c-4,1.1-6.4,2.6-5.9,4.7c0.6,2.4,4.3,2.2,7.5,1.5L-86.2,153.3z"/>
		<path class="st3" d="M-108.7,116.1c0.1-0.6,0.1-1.2,0-1.9c-0.1-0.6-0.2-1.2-0.4-1.8c6.8,2.2,19.9,6.4,29.8,8.8
			c0,0.6-0.1,1.2,0,1.9c0.1,0.6,0.2,1.2,0.4,1.8c-6.9,3.2-21.6,10.6-27.7,13.9c0-1.3,0-2.6-0.1-3.8s-0.3-2.4-0.5-3.6
			c6-2.4,13.5-6.1,20.2-9.3C-94.2,119.9-102,117.7-108.7,116.1z"/>
		<path class="st3" d="M-111.2,103.8c0-1.8,1.5-3.3,3.4-3.2s3.3,1.5,3.2,3.4c0,1.8-1.5,3.3-3.4,3.2S-111.2,105.6-111.2,103.8z
			 M-90.8,106.9c-3.4-0.1-6.4,0-9.3,0.2c0.1-0.8,0.2-1.8,0.3-3.1c0-1.3-0.1-2.4-0.2-3.1c2.9,0.3,5.9,0.4,9.3,0.5h1.7
			c3.4,0.1,6.4,0,9.3-0.2c-0.1,0.7-0.2,1.8-0.3,3.1c0,1.3,0.1,2.4,0.2,3.1c-2.9-0.3-5.9-0.4-9.3-0.5H-90.8z"/>
		<path class="st3" d="M-89.4,90.5c4.5,0.4,8.1-1,8.4-4.8c0.2-1.9-0.3-3.7-1.4-5.3l0.4-0.5l2.2,1.1c0.9,1.5,1.6,3.4,1.3,6.5
			c-0.5,5.4-4.2,9.8-11.5,9.1c-7.2-0.7-10.3-5.1-9.8-10.7c0.5-5.4,4.2-8.2,10-7.6c0.7,0.1,1.1,0.1,1.4,0.2L-89.4,90.5z M-90.6,83.9
			c-4.2-0.3-7,0.3-7.2,2.4c-0.2,2.5,3.3,3.6,6.6,4L-90.6,83.9z"/>
		<path class="st3" d="M-78.8,54.5c-4.4-2.6-8.7-5.1-13.1-7.4c0.2-0.5,0.4-1,0.6-1.5c0.1-0.5,0.1-1,0.2-1.8
			c1.8,1.7,12.2,8,18.1,11.4c-0.3,0.7-0.6,1.5-0.7,2.2c-0.2,0.8-0.2,1.5-0.3,2.3c-4.8,0.2-10.2,0.6-14.3,0.9v0.1
			c4.1,2.5,8.3,4.9,12.5,7.2c-0.3,0.8-0.6,1.5-0.7,2.3c-0.2,0.8-0.2,1.6-0.4,2.4c-6.9,0.3-19.3,1.4-21.2,1.7
			c0.4-1.2,0.7-2.1,0.9-3.1c0.2-1,0.3-2,0.5-3c5-0.2,10.6-0.5,15-0.8v-0.1c-4.3-2.6-8.8-5-13.1-7.4c0.3-0.8,0.6-1.5,0.7-2.2
			s0.2-1.5,0.3-2.3C-88.9,55.2-83.8,55-78.8,54.5L-78.8,54.5z"/>
		<path class="st3" d="M-76.1,3.6c-3,0.5-5.7,2.1-7.4,5.6c-2.3,4.7-0.8,11.4,7.1,15.2c6,2.9,12.1,1.8,14.9-4
			c0.6-1.3,1.4-3.6,1.3-4.4c-0.5-0.4-1.5-0.9-2.6-1.4c-4.1-2-5.9-2.6-6.6-2.9c0.3-0.5,0.8-1.1,1.5-2.7c0.9-1.8,1.1-2.6,1.3-3.1
			c0.7,0.6,3.8,2.2,6.2,3.4c1.6,0.8,3.6,1.7,4.2,1.9c-0.7,3.7-1.6,7.5-3.3,10.8c-4.2,8.6-12.2,12.4-19.8,8.7
			C-88.8,26-90.2,17-86,8.1c1.9-3.8,3.9-5.9,6.7-7.9c1.1,1,2.1,2.1,3.3,2.9L-76.1,3.6z"/>
		<path class="st3" d="M-66.2-1.7c-4.6-3-8.3-5.1-12.4-7.5c0.5-0.5,1.2-1.5,1.9-2.5c0.7-1,1.2-2.1,1.5-2.8c3.9,2.7,7.4,5.1,12,8.1
			l2.3,1.5c4.6,3,8.3,5.1,12.4,7.5c-0.5,0.5-1.2,1.5-1.9,2.5c-0.7,1-1.2,2.1-1.5,2.8c-3.9-2.7-7.4-5.1-12-8.1L-66.2-1.7z"/>
		<path class="st3" d="M-60.4-12.1c-0.1-2.9,0.8-5.9,2.4-8c2.7-3.5,6.1-4.9,10.1-1.9c2.8,2.2,5.1,4,7.5,5.9c2.1,1.6,2.7,1.2,3.8-0.2
			l0.8,0.6c-0.3,1.8-0.7,2.7-1.4,3.7c-1.2,1.6-2.9,1.9-4.8,1.3c0.6,2.1,0.7,4.1-0.9,6.2c-2.6,3.4-5.9,3-8,1.4
			c-2.9-2.2-2.6-5.1-1.1-8.6c1.9-4.4,1.9-4.9,0.7-5.9c-1.6-1.2-3.8-1-5.3,1c-1.2,1.5-1.6,4-1.2,5.4L-58-11L-60.4-12.1z M-48.8-15.7
			c-0.4,2.7-2.5,5.1,0.9,7.6c1.6,1.2,3.1,1.2,4,0c1.1-1.5,0.7-3.3-1.4-5C-47.2-14.5-48.1-15.2-48.8-15.7z"/>
		<path class="st3" d="M-42.2-33.3L-42.2-33.3c-0.4-2.8,0.1-5.3,2-7.1c1.8-1.8,4.1-2,6.6-0.9c-0.6-3,0.1-5.6,1.8-7.4
			c3-2.9,6.3-2.9,10,0.9c2,2,3.3,3.6,4.8,5.1c1.2,1.3,2.8,2.7,4.4,4.2c-0.6,0.4-1.5,1.2-2.4,2s-1.7,1.8-2.1,2.3
			c-1.8-2.4-4.6-5.3-8.1-8.9c-2.4-2.5-4.5-2.8-6-1.3c-1.9,1.9-0.4,4.3,1,5.7l2.1,2.1c2.4,2.4,4.5,4.5,6.7,6.4
			c-0.6,0.4-1.5,1.1-2.4,2s-1.6,1.8-2.1,2.3c-1.9-2.3-3.9-4.4-6.3-6.9l-1.8-1.8c-2.3-2.4-4.2-3.3-5.8-1.6c-1.8,1.8-1,4.2,1.7,6.9
			l1.2,1.2c2.4,2.4,4.5,4.5,6.7,6.4c-0.6,0.4-1.5,1.1-2.4,2s-1.6,1.8-2.1,2.3c-1.9-2.3-3.9-4.4-6.3-6.9l-1.2-1.2
			c-2.4-2.4-4.5-4.5-6.7-6.4c0.8-0.6,1.5-1.2,2.3-1.9c0.7-0.7,1.3-1.5,2-2.3L-42.2-33.3z"/>
		<path class="st3" d="M-13-45.1c-3.2-4.4-5.8-7.8-8.8-11.5c0.8-0.5,1.7-1,2.5-1.5c0.8-0.6,1.5-1.2,2.2-1.9c0.5,0.8,1.2,2.1,1.9,3.1
			h0.1c-0.7-2.4,0-5.1,2.4-6.8C-9.2-66.2-4.2-66,0-60.1c4.7,6.4,3.1,11.3-0.2,13.7c-2,1.4-4.2,1.7-6.2,0.7h-0.1
			c2.4,3.2,6.8,9.3,8.2,10.7c-0.6,0.3-1.7,1-2.7,1.7s-1.9,1.5-2.4,2c-2.6-3.9-5-7.5-8.2-11.9L-13-45.1z M-12.7-60.7
			c-1.7,1.2-1.9,4.2,1.8,9.3c3,4.1,5.5,5.2,7.5,3.8C-1.5-49-1.8-52-5-56.4C-8.2-61-10.9-62-12.7-60.7z"/>
		<path class="st3" d="M-4.4-82c1.6-0.9,3.6-0.4,4.5,1.1C1-79.3,0.5-77.3-1-76.4c-1.6,0.9-3.6,0.4-4.5-1.1C-6.5-79-6-81-4.4-82z
			 M3.8-63c-1.7-2.9-3.3-5.4-5-7.8c0.7-0.3,1.7-0.8,2.8-1.4c1.1-0.7,2-1.4,2.6-1.8c1.3,2.6,2.7,5.2,4.5,8.1l0.9,1.4
			c1.7,2.9,3.3,5.4,5,7.8c-0.7,0.3-1.7,0.8-2.8,1.4c-1.1,0.7-2,1.3-2.6,1.8c-1.3-2.6-2.7-5.2-4.5-8.1L3.8-63z"/>
		<path class="st3" d="M15.9-76.8L15.9-76.8c0.5-2.7,1.8-4.9,4.2-6.1c3.8-1.8,6.9-0.7,9.2,4.1c1.2,2.6,2,4.4,2.9,6.4
			C33-70.8,34-68.9,35-67c-0.7,0.2-1.8,0.6-2.9,1.2c-1.1,0.5-2.1,1.1-2.7,1.5c-1-2.9-2.6-6.5-4.8-11c-1.5-3.1-3.3-4-5.3-3.1
			c-2.3,1.1-2.3,3.7-0.6,7.1l0.7,1.5c1.5,3.1,2.8,5.7,4.3,8.2C23-61.4,22-61,20.9-60.4s-2.1,1.1-2.7,1.5c-1-2.7-2.3-5.5-3.7-8.5
			l-0.7-1.5c-1.5-3-2.8-5.7-4.3-8.2c0.9-0.4,1.9-0.7,2.8-1.1s1.7-1,2.7-1.5L15.9-76.8z"/>
		<path class="st3" d="M45.8-90.8l-0.1,0.1c1.6,0.5,3,1.7,3.7,3.6c1.4,3.9-0.8,7.6-5.4,9.2c-0.6,0.2-1.1,0.3-1.8,0.6
			c-0.6,0.2-0.9,1.1-0.6,1.8c0.4,1.3,1.7,1.7,3.8,1l2.9-1c4.4-1.5,7-0.6,8.3,3c2.2,6.3-2.8,10.5-7.5,12.1c-4.9,1.7-8.6,0.6-9.7-2.5
			c-0.9-2.5,0.2-4.6,2.2-6.2v-0.1c-1.5-0.1-2.8-0.8-3.3-2.3c-0.6-1.7,0.2-4.1,2.2-5.5v-0.1c-1.7,0.2-3.2-0.1-4.5-0.8
			c-1.2-0.7-2.2-1.9-2.8-3.6c-1.4-4,1.2-7.5,6.2-9.3c0.9-0.3,2-0.6,3-0.9c0.7-0.2,1.4-0.4,2.2-0.7c1.3-0.5,2.7-1,4.2-1.5
			c0.1,0.3,0.1,0.7,0.3,1c0.1,0.3,0.3,0.6,0.4,0.9L45.8-90.8z M38.8-82.9c1.2,3.4,3,4.2,4.2,3.8c1.7-0.6,2.1-2.4,0.8-5.9
			c-1.2-3.6-2.8-4.5-4.2-4C37.8-88.4,37.5-86.3,38.8-82.9z M45.6-70.3c-1.4,0.5-2.2,0.9-2.7,1.4s-1,2.1-0.3,4c1,3,4,3.7,6.8,2.7
			c3-1.1,4.2-3.9,3.3-6.4C51.5-71.7,49.2-71.6,45.6-70.3z"/>
		<path class="st3" d="M70.8-84.3c1.8-0.4,3.7,0.9,4,2.7c0.4,1.8-0.9,3.7-2.7,4s-3.7-0.9-4-2.7S69-83.9,70.8-84.3z"/>
	</g>
</g>
</svg>
