<?xml version="1.0" encoding="utf-8"?>
<!-- Generator: Adobe Illustrator 26.1.0, SVG Export Plug-In . SVG Version: 6.00 Build 0)  -->
<svg version="1.1" id="Layer_1" xmlns="http://www.w3.org/2000/svg" xmlns:xlink="http://www.w3.org/1999/xlink" x="0px" y="0px"
	 width="450px" height="454px" viewBox="0 0 450 454" style="enable-background:new 0 0 450 454;" xml:space="preserve">
<style type="text/css">
	.st0{fill:#000;}
	.st1{fill:#000;stroke:#070707;stroke-width:6;stroke-linecap:round;stroke-miterlimit:10;}
</style>
<g>
	<g>
		<g>
			<g>
				<path class="st0" d="M216.6,153c0.1-0.1,0.2-0.1,0.3-0.1c0.5-0.1,1-0.1,1.5-0.1c0.6-0.1,1.3-0.1,1.9-0.2
					c0.7-0.1,1.5-0.2,2.2-0.3c0.2-0.1,0.5-0.1,0.8-0.1c0.1,0,0.1-0.1,0.1-0.1c-0.5-0.7-1.2-1.5-1.8-2.2c-0.3-0.4-0.7-0.7-0.9-1.1
					l-0.1-0.1c0.1-0.1,0.1,0,0.1,0.1c0.4,0.2,0.7,0.6,1,0.8c0.5,0.4,1,0.8,1.5,1.2c0.3,0.2,0.5,0.4,0.9,0.7c0.1,0.1,0.1,0.1,0.1-0.1
					c0.1-0.5,0.1-1.1,0.2-1.6c0.1-0.6,0.2-1.2,0.2-1.8c0.1-0.3,0.1-0.7,0.1-1c0.1-0.4,0.1-0.8,0.1-1.2c0-0.3,0.1-0.6,0.1-0.9
					c0-0.1,0-0.1,0.1-0.1c0.1,0.1,0.1,0.2,0.1,0.4c0.1,0.5,0.1,1,0.1,1.5c0.1,0.4,0.1,0.7,0.1,1c0.1,0.4,0.1,0.7,0.1,1
					c0.1,0.5,0.1,1,0.2,1.5c0.1,0.4,0.1,0.8,0.2,1.2c0,0.1,0.1,0.1,0.1,0.1c0.7-0.5,1.4-1.1,2.1-1.6c0.4-0.4,0.7-0.7,1.2-1l0.1-0.1
					c0.1,0.1,0,0.1-0.1,0.1c-0.2,0.4-0.6,0.7-0.8,1c-0.4,0.5-0.8,1-1.2,1.5c-0.2,0.3-0.4,0.6-0.7,0.9c-0.1,0.1-0.1,0.1,0.1,0.1
					c0.6,0.1,1.1,0.1,1.6,0.2c0.6,0.1,1.2,0.2,1.8,0.2c0.3,0.1,0.7,0.1,1,0.1c0.4,0.1,0.8,0.1,1.2,0.1c0.3,0,0.6,0.1,0.9,0.1
					c0.1,0,0.1,0,0.1,0.1c-0.1,0.1-0.2,0.1-0.4,0.1c-0.5,0.1-1,0.1-1.5,0.1c-0.4,0.1-0.7,0.1-1,0.1c-0.4,0.1-0.7,0.1-1,0.1
					c-0.5,0.1-1,0.1-1.5,0.2c-0.4,0.1-0.8,0.1-1.2,0.2c-0.1,0-0.1,0.1-0.1,0.1c0.5,0.7,1.1,1.4,1.6,2.1c0.4,0.4,0.7,0.7,1,1.2
					l0.1,0.1c-0.1,0.1-0.1,0-0.1-0.1c-0.4-0.2-0.7-0.6-1-0.8c-0.5-0.4-1-0.8-1.5-1.2c-0.3-0.2-0.5-0.4-0.9-0.7
					c-0.1-0.1-0.1-0.1-0.1,0.1c-0.1,0.5-0.1,1.1-0.2,1.6c-0.1,0.6-0.2,1.2-0.2,1.8c-0.1,0.3-0.1,0.7-0.1,1c-0.1,0.4-0.1,0.8-0.1,1.2
					c0,0.3-0.1,0.6-0.1,0.9c0,0.1,0,0.1-0.1,0.1c-0.1-0.1-0.1-0.2-0.1-0.4c-0.1-0.5-0.1-1-0.1-1.5c-0.1-0.4-0.1-0.7-0.1-1
					c-0.1-0.4-0.1-0.7-0.1-1c-0.1-0.5-0.1-1-0.2-1.5c-0.1-0.4-0.1-0.8-0.2-1.2c0-0.1-0.1-0.1-0.1-0.1c-0.7,0.5-1.4,1.1-2.1,1.6
					c-0.4,0.4-0.7,0.7-1.2,1l-0.1,0.1c-0.1-0.1,0-0.1,0.1-0.1c0.2-0.4,0.6-0.7,0.8-1c0.4-0.5,0.8-1,1.2-1.5c0.2-0.3,0.4-0.6,0.7-0.9
					c0.1-0.1,0.1-0.1-0.1-0.1c-0.6-0.1-1.1-0.1-1.6-0.2c-0.6-0.1-1.2-0.2-1.8-0.2c-0.3-0.1-0.7-0.1-1-0.1c-0.4-0.1-0.8-0.1-1.2-0.1
					c-0.3,0-0.6-0.1-0.9-0.1C216.6,153,216.6,153,216.6,153z"/>
			</g>
		</g>
		<g>
			<g>
				<path class="st0" d="M170.1,176.8c0,0.1-0.1,0.1-0.1,0.2c-0.1,0.3-0.2,0.6-0.3,0.9c-0.1,0.4-0.3,0.8-0.4,1.2
					c-0.1,0.5-0.2,1-0.4,1.4c-0.1,0.2-0.1,0.3-0.1,0.5c0,0.1,0,0.1,0.1,0.1c0.6-0.1,1.2-0.3,1.8-0.5c0.3-0.1,0.6-0.2,0.9-0.3
					c0,0,0.1-0.1,0.1,0s0,0.1-0.1,0.1c-0.2,0.1-0.5,0.2-0.7,0.4c-0.4,0.2-0.7,0.4-1.2,0.6c-0.2,0.1-0.4,0.2-0.6,0.4
					c-0.1,0.1-0.1,0.1,0,0.1c0.3,0.2,0.6,0.4,0.9,0.5c0.4,0.2,0.7,0.4,1,0.6c0.2,0.1,0.4,0.2,0.5,0.3c0.2,0.1,0.5,0.2,0.7,0.4
					c0.2,0.1,0.4,0.2,0.5,0.3c0,0,0.1,0,0.1,0.1c-0.1,0-0.2-0.1-0.2-0.1c-0.3-0.1-0.7-0.2-1-0.3c-0.2-0.1-0.4-0.2-0.7-0.2
					s-0.5-0.1-0.7-0.2c-0.3-0.1-0.6-0.2-1-0.2c-0.2-0.1-0.5-0.1-0.8-0.2c-0.1,0-0.1,0-0.1,0.1c0.1,0.6,0.3,1.2,0.5,1.8
					c0.1,0.3,0.2,0.7,0.3,1c0,0,0.1,0.1,0,0.1s-0.1,0-0.1-0.1c-0.1-0.2-0.2-0.5-0.4-0.7c-0.2-0.4-0.4-0.7-0.6-1.2
					c-0.1-0.2-0.2-0.4-0.4-0.6c-0.1-0.1-0.1-0.1-0.1,0c-0.2,0.3-0.4,0.6-0.5,0.9c-0.2,0.4-0.4,0.7-0.6,1c-0.1,0.2-0.2,0.4-0.3,0.6
					c-0.1,0.2-0.2,0.5-0.4,0.7c-0.1,0.2-0.2,0.4-0.3,0.5c0,0,0,0.1-0.1,0.1c0-0.1,0.1-0.2,0.1-0.2c0.1-0.3,0.2-0.7,0.3-1
					c0.1-0.2,0.2-0.4,0.2-0.7s0.1-0.5,0.2-0.7c0.1-0.3,0.2-0.6,0.2-1c0.1-0.2,0.1-0.5,0.2-0.8c0-0.1,0-0.1-0.1-0.1
					c-0.6,0.1-1.2,0.3-1.8,0.5c-0.3,0.1-0.7,0.2-1,0.3c0,0-0.1,0.1-0.1,0s0-0.1,0.1-0.1c0.2-0.1,0.5-0.2,0.7-0.4
					c0.4-0.2,0.7-0.4,1.2-0.6c0.2-0.1,0.4-0.2,0.6-0.4c0.1-0.1,0.1-0.1,0-0.1c-0.3-0.2-0.6-0.4-0.9-0.5c-0.4-0.2-0.7-0.4-1-0.6
					c-0.2-0.1-0.4-0.2-0.6-0.3c-0.2-0.1-0.5-0.2-0.7-0.4c-0.2-0.1-0.4-0.2-0.5-0.3c0,0-0.1,0-0.1-0.1c0.1,0,0.2,0.1,0.2,0.1
					c0.3,0.1,0.7,0.2,1,0.3c0.2,0.1,0.4,0.2,0.7,0.2c0.2,0.1,0.5,0.1,0.7,0.2c0.3,0.1,0.6,0.2,1,0.2c0.2,0.1,0.5,0.1,0.8,0.2
					c0.1,0,0.1,0,0.1-0.1c-0.1-0.6-0.3-1.2-0.5-1.8c-0.1-0.3-0.2-0.7-0.3-1c0,0-0.1-0.1,0-0.1s0.1,0,0.1,0.1
					c0.1,0.2,0.2,0.5,0.4,0.7c0.2,0.4,0.4,0.7,0.6,1.2c0.1,0.2,0.2,0.4,0.4,0.6c0.1,0.1,0.1,0.1,0.1,0c0.2-0.3,0.4-0.6,0.5-0.9
					c0.2-0.4,0.4-0.7,0.6-1c0.1-0.2,0.2-0.4,0.3-0.5c0.1-0.2,0.2-0.5,0.4-0.7C169.8,177.1,169.9,176.9,170.1,176.8
					C170,176.8,170,176.8,170.1,176.8z"/>
			</g>
		</g>
		<g>
			<g>
				<path class="st0" d="M280,176.8c0,0.1,0.1,0.1,0.1,0.2c0.1,0.3,0.2,0.6,0.3,0.9c0.1,0.4,0.3,0.8,0.4,1.2c0.1,0.5,0.2,1,0.4,1.4
					c0.1,0.2,0.1,0.3,0.1,0.5c0,0.1,0,0.1-0.1,0.1c-0.6-0.1-1.2-0.3-1.8-0.5c-0.3-0.1-0.6-0.2-0.9-0.3c0,0-0.1-0.1-0.1,0
					s0,0.1,0.1,0.1c0.2,0.1,0.5,0.2,0.7,0.4c0.4,0.2,0.7,0.4,1.2,0.6c0.2,0.1,0.4,0.2,0.6,0.4c0.1,0.1,0.1,0.1,0,0.1
					c-0.3,0.2-0.6,0.4-0.9,0.5c-0.4,0.2-0.7,0.4-1,0.6c-0.2,0.1-0.4,0.2-0.6,0.3c-0.2,0.1-0.5,0.2-0.7,0.4c-0.2,0.1-0.4,0.2-0.5,0.3
					c0,0-0.1,0-0.1,0.1c0.1,0,0.2-0.1,0.2-0.1c0.3-0.1,0.7-0.2,1-0.3c0.2-0.1,0.4-0.2,0.7-0.2c0.2-0.1,0.5-0.1,0.7-0.2
					c0.3-0.1,0.6-0.2,1-0.2c0.2-0.1,0.5-0.1,0.8-0.2c0.1,0,0.1,0,0.1,0.1c-0.1,0.6-0.3,1.2-0.5,1.8c-0.1,0.3-0.2,0.7-0.3,1
					c0,0-0.1,0.1,0,0.1s0.1,0,0.1-0.1c0.1-0.2,0.2-0.5,0.4-0.7c0.2-0.4,0.4-0.7,0.6-1.2c0.1-0.2,0.2-0.4,0.4-0.6
					c0.1-0.1,0.1-0.1,0.1,0c0.2,0.3,0.4,0.6,0.5,0.9c0.2,0.4,0.4,0.7,0.6,1c0.1,0.2,0.2,0.4,0.3,0.6s0.2,0.5,0.4,0.7
					c0.1,0.2,0.2,0.4,0.3,0.5c0,0,0,0.1,0.1,0.1c0-0.1-0.1-0.2-0.1-0.2c-0.1-0.3-0.2-0.7-0.3-1c-0.1-0.2-0.2-0.4-0.2-0.7
					c-0.1-0.2-0.1-0.5-0.2-0.7c-0.1-0.3-0.2-0.6-0.2-1c-0.1-0.2-0.1-0.5-0.2-0.8c0-0.1,0-0.1,0.1-0.1c0.6,0.1,1.2,0.3,1.8,0.5
					c0.3,0.1,0.7,0.2,1,0.3c0,0,0.1,0.1,0.1,0s0-0.1-0.1-0.1c-0.2-0.1-0.5-0.2-0.7-0.4c-0.4-0.2-0.7-0.4-1.2-0.6
					c-0.2-0.1-0.4-0.2-0.6-0.4c-0.1-0.1-0.1-0.1,0-0.1c0.3-0.2,0.6-0.4,0.9-0.5c0.4-0.2,0.7-0.4,1-0.6c0.2-0.1,0.4-0.2,0.6-0.3
					c0.2-0.1,0.5-0.2,0.7-0.4c0.2-0.1,0.4-0.2,0.5-0.3c0,0,0.1,0,0.1-0.1c-0.1,0-0.2,0.1-0.2,0.1c-0.3,0.1-0.7,0.2-1,0.3
					c-0.2,0.1-0.4,0.2-0.7,0.2c-0.2,0.1-0.5,0.1-0.7,0.2c-0.3,0.1-0.6,0.2-1,0.2c-0.2,0.1-0.5,0.1-0.8,0.2c-0.1,0-0.1,0-0.1-0.1
					c0.1-0.6,0.3-1.2,0.5-1.8c0.1-0.3,0.2-0.7,0.3-1c0,0,0.1-0.1,0-0.1s-0.1,0-0.1,0.1c-0.1,0.2-0.2,0.5-0.4,0.7
					c-0.2,0.4-0.4,0.7-0.6,1.2c-0.1,0.2-0.2,0.4-0.4,0.6c-0.1,0.1-0.1,0.1-0.1,0c-0.2-0.3-0.4-0.6-0.5-0.9c-0.2-0.4-0.4-0.7-0.6-1
					c-0.1-0.2-0.2-0.4-0.3-0.5c-0.1-0.2-0.2-0.5-0.4-0.7C280.2,177.1,280.2,176.9,280,176.8C280.1,176.8,280.1,176.8,280,176.8z"/>
			</g>
		</g>
		<g>
			<path class="st0" d="M257.3,144.1c0,0.1,0,0.1,0,0.1c0,0.1,0,0.1,0,0.2s0,0.1,0,0.1c0,0.1,0,0.1,0,0.2c0,0.2,0.1,0.4,0.1,0.5
				s0.1,0.2,0.1,0.2c0.1,0.2,0.1,0.3,0.2,0.4s0.3,0.2,0.4,0.4c0.1,0.1,0.2,0.1,0.3,0.1c0.1,0.1,0.3,0.1,0.4,0.1
				c0.1,0,0.2,0.1,0.2,0.1c0.1,0,0.1,0,0.1,0c0.1,0,0.1,0,0.1,0h0.1h0.1l0,0l0,0c-0.1,0-0.1,0-0.2,0s-0.1,0-0.2,0s-0.1,0-0.1,0
				c-0.1,0-0.2,0-0.2,0.1c-0.2,0-0.3,0.1-0.5,0.1c-0.2,0.1-0.4,0.1-0.6,0.3c-0.1,0.1-0.2,0.2-0.3,0.3c-0.1,0.1-0.2,0.3-0.2,0.5
				c-0.1,0.2-0.1,0.3-0.1,0.5c0,0.1,0,0.2-0.1,0.2c0,0.1,0,0.1,0,0.2s0,0.1,0,0.2s0,0.1,0,0.1l0,0l0,0c0-0.1,0-0.2,0-0.3
				s0-0.1,0-0.1c0-0.1,0-0.2-0.1-0.2c0-0.2-0.1-0.3-0.1-0.5c-0.1-0.2-0.1-0.4-0.3-0.6c-0.1-0.1-0.2-0.2-0.3-0.3
				c-0.1-0.1-0.3-0.2-0.5-0.2c-0.2-0.1-0.3-0.1-0.5-0.1c-0.1,0-0.2,0-0.2-0.1c-0.1,0-0.1,0-0.1,0h-0.1c-0.1,0-0.1,0-0.1,0h-0.1l0,0
				l0,0c0.1,0,0.1,0,0.1,0c0.1,0,0.1,0,0.2,0s0.1,0,0.1,0s0.1,0,0.2,0c0.2,0,0.4-0.1,0.6-0.1c0.1,0,0.1-0.1,0.2-0.1
				c0.2-0.1,0.3-0.1,0.4-0.2c0.1-0.1,0.2-0.2,0.3-0.4c0.1-0.1,0.2-0.3,0.2-0.5c0.1-0.1,0.1-0.3,0.1-0.4s0-0.2,0.1-0.2
				c0-0.1,0-0.1,0-0.1c0-0.1,0-0.1,0-0.1c0-0.1,0-0.1,0-0.1C257.3,144.2,257.3,144.2,257.3,144.1L257.3,144.1z"/>
		</g>
		<g>
			<path class="st0" d="M290.8,202.3C290.8,202.4,290.8,202.4,290.8,202.3c-0.2,0.2-0.2,0.2-0.2,0.3c0,0.1-0.1,0.1-0.1,0.1
				c-0.1,0.1-0.1,0.1-0.1,0.2c-0.1,0.2-0.2,0.4-0.3,0.5s-0.1,0.2-0.1,0.2c-0.1,0.2-0.1,0.4-0.1,0.5c0,0.2,0.1,0.4,0.1,0.6
				c0.1,0.1,0.1,0.2,0.2,0.3c0.1,0.1,0.2,0.2,0.3,0.4c0.1,0.1,0.1,0.1,0.2,0.2s0.1,0.1,0.1,0.1c0.1,0.1,0.1,0.1,0.1,0.1
				c0.1,0.1,0.1,0.1,0.1,0.1l0.1,0.1l0,0l0,0c-0.1-0.1-0.1-0.1-0.2-0.1c-0.1-0.1-0.1-0.1-0.1-0.1c-0.1,0-0.1-0.1-0.1-0.1
				c-0.1-0.1-0.1-0.1-0.2-0.1c-0.2-0.1-0.3-0.2-0.5-0.2c-0.2-0.1-0.5-0.2-0.7-0.2s-0.3,0-0.5,0.1s-0.4,0.1-0.5,0.2
				c-0.1,0.1-0.3,0.2-0.4,0.3c-0.1,0.1-0.1,0.1-0.2,0.2s-0.1,0.1-0.1,0.1c-0.1,0.1-0.1,0.1-0.2,0.2l-0.1,0.1l0,0l0,0
				c0.1-0.1,0.1-0.2,0.2-0.3c0-0.1,0.1-0.1,0.1-0.1c0.1-0.1,0.1-0.1,0.1-0.2c0.1-0.2,0.2-0.3,0.2-0.5c0.1-0.2,0.2-0.5,0.2-0.7
				s0-0.3-0.1-0.5s-0.1-0.4-0.2-0.5c-0.1-0.1-0.2-0.3-0.3-0.4c-0.1-0.1-0.1-0.1-0.2-0.2l-0.1-0.1c-0.1-0.1-0.1-0.1-0.1-0.1
				c-0.1-0.1-0.1-0.1-0.1-0.1l-0.1-0.1l0,0l0,0c0.1,0.1,0.1,0.1,0.1,0.1c0.1,0.1,0.1,0.1,0.2,0.1c0.1,0,0.1,0.1,0.1,0.1
				c0.1,0.1,0.1,0.1,0.2,0.1c0.2,0.1,0.4,0.2,0.5,0.3s0.1,0.1,0.2,0.1c0.2,0.1,0.4,0.1,0.5,0.1s0.3,0,0.5-0.1s0.4-0.1,0.5-0.2
				c0.1-0.1,0.2-0.2,0.4-0.3c0.1-0.1,0.1-0.1,0.2-0.2l0.1-0.1c0.1-0.1,0.1-0.1,0.1-0.1l0.1-0.1C290.8,202.3,290.8,202.3,290.8,202.3
				L290.8,202.3z"/>
		</g>
		<g>
			<path class="st0" d="M180.2,149.8c0,0.1-0.1,0.1-0.1,0.1c0,0.1-0.1,0.1-0.1,0.1l-0.1,0.1c-0.1,0.1-0.1,0.1-0.1,0.1
				c-0.1,0.1-0.1,0.2-0.2,0.4c-0.1,0.1-0.1,0.1-0.1,0.2c-0.1,0.1-0.1,0.2-0.1,0.4c0,0.2,0.1,0.3,0.1,0.4c0.1,0.1,0.1,0.2,0.1,0.2
				c0.1,0.1,0.1,0.2,0.2,0.3c0.1,0.1,0.1,0.1,0.1,0.2l0.1,0.1l0.1,0.1l0.1,0.1c0,0,0,0.1,0.1,0.1l0,0l0,0c-0.1-0.1-0.1-0.1-0.1-0.1
				c-0.1,0-0.1-0.1-0.1-0.1l-0.1-0.1c-0.1-0.1-0.1-0.1-0.2-0.1c-0.1-0.1-0.2-0.1-0.4-0.2c-0.2-0.1-0.4-0.1-0.6-0.1
				c-0.1,0-0.2,0-0.4,0.1c-0.1,0.1-0.2,0.1-0.4,0.2c-0.1,0.1-0.2,0.2-0.3,0.2c-0.1,0.1-0.1,0.1-0.1,0.1l-0.1,0.1
				c-0.1,0.1-0.1,0.1-0.1,0.1l-0.1,0.1l0,0l0,0c0.1-0.1,0.1-0.1,0.1-0.2s0.1-0.1,0.1-0.1c0.1-0.1,0.1-0.1,0.1-0.2
				c0.1-0.1,0.1-0.2,0.2-0.4c0.1-0.2,0.1-0.4,0.1-0.5s0-0.2-0.1-0.4c-0.1-0.1-0.1-0.2-0.2-0.4c-0.1-0.1-0.2-0.2-0.2-0.3
				c-0.1-0.1-0.1-0.1-0.1-0.1l-0.1-0.1l-0.1-0.1L177,150l-0.1-0.1l0,0l0,0c0.1,0,0.1,0.1,0.1,0.1c0.1,0,0.1,0.1,0.1,0.1l0.1,0.1
				c0.1,0.1,0.1,0.1,0.1,0.1c0.1,0.1,0.2,0.1,0.4,0.2c0.1,0,0.1,0.1,0.1,0.1c0.1,0.1,0.2,0.1,0.4,0.1s0.2,0,0.4-0.1
				c0.1-0.1,0.2-0.1,0.4-0.2s0.2-0.1,0.3-0.2c0.1-0.1,0.1-0.1,0.2-0.1l0.1-0.1l0.1-0.1l0.1-0.1C180.1,149.9,180.2,149.8,180.2,149.8
				L180.2,149.8z"/>
		</g>
		<g>
			<path class="st0" d="M212.1,141.3c-0.1,0-0.1,0-0.1,0.1c-0.1,0-0.1,0.1-0.2,0.1s-0.1,0-0.1,0.1c-0.1,0-0.1,0.1-0.2,0.1
				c-0.2,0.1-0.3,0.1-0.5,0.2c-0.1,0.1-0.1,0.1-0.2,0.1c-0.1,0.1-0.2,0.2-0.4,0.3s-0.2,0.3-0.2,0.5c0,0.1-0.1,0.2-0.1,0.3
				c0,0.1,0,0.3,0,0.4s0,0.2,0,0.2c0,0.1,0,0.1,0,0.1c0,0.1,0,0.1,0,0.1c0,0.1,0,0.1,0,0.1v0.1l0,0l0,0c0-0.1-0.1-0.1-0.1-0.2
				s-0.1-0.1-0.1-0.1c0-0.1,0-0.1-0.1-0.1c0-0.1-0.1-0.1-0.1-0.2c-0.1-0.1-0.1-0.3-0.2-0.4c-0.1-0.2-0.2-0.4-0.4-0.6
				c-0.1-0.1-0.2-0.2-0.4-0.2c-0.2-0.1-0.3-0.1-0.5-0.1s-0.3,0-0.5,0c-0.1,0-0.2,0-0.2,0h-0.1c-0.1,0-0.1,0-0.2,0h-0.1l0,0l0,0
				c0.1,0,0.2-0.1,0.3-0.1s0.1,0,0.1-0.1c0.1,0,0.1-0.1,0.2-0.1c0.1-0.1,0.3-0.1,0.4-0.2c0.2-0.1,0.4-0.2,0.6-0.4
				c0.1-0.1,0.2-0.2,0.2-0.4c0.1-0.2,0.1-0.3,0.1-0.5s0-0.3,0-0.5c0-0.1,0-0.2,0-0.2v-0.1c0-0.1,0-0.1,0-0.1c0-0.1,0-0.1,0-0.1v-0.1
				l0,0l0,0c0,0.1,0,0.1,0.1,0.1c0,0.1,0.1,0.1,0.1,0.2s0,0.1,0.1,0.1c0,0.1,0.1,0.1,0.1,0.2c0.1,0.2,0.1,0.3,0.2,0.5
				c0,0.1,0.1,0.1,0.1,0.2c0.1,0.1,0.2,0.2,0.3,0.4c0.1,0.1,0.2,0.2,0.4,0.2c0.2,0.1,0.3,0.1,0.5,0.1c0.1,0,0.3,0,0.4,0
				c0.1,0,0.2,0,0.2,0c0.1,0,0.1,0,0.1,0h0.1c0.1,0,0.1,0,0.1,0C212,141.3,212,141.3,212.1,141.3L212.1,141.3z"/>
		</g>
		<g>
			<path class="st0" d="M253,178.5c-0.1,0-0.1,0-0.1,0.1c-0.1,0-0.1,0-0.1,0.1h-0.1c-0.1,0-0.1,0.1-0.2,0.1
				c-0.1,0.1-0.2,0.1-0.4,0.2c-0.1,0-0.1,0.1-0.2,0.1c-0.1,0.1-0.2,0.2-0.3,0.2c-0.1,0.1-0.1,0.2-0.2,0.4c0,0.1-0.1,0.2-0.1,0.2
				c0,0.1,0,0.2,0,0.4c0,0.1,0,0.1,0,0.2s0,0.1,0,0.1c0,0.1,0,0.1,0,0.1c0,0.1,0,0.1,0,0.1v0.1l0,0l0,0c0-0.1,0-0.1-0.1-0.1
				c0-0.1,0-0.1-0.1-0.1v-0.1c0-0.1-0.1-0.1-0.1-0.2c-0.1-0.1-0.1-0.2-0.2-0.4c-0.1-0.2-0.2-0.3-0.3-0.4s-0.2-0.1-0.3-0.2
				s-0.2-0.1-0.4-0.1c-0.1,0-0.2,0-0.4,0c-0.1,0-0.1,0-0.2,0s-0.1,0-0.1,0c-0.1,0-0.1,0-0.2,0h0.2l0,0l0,0c0.1,0,0.2-0.1,0.2-0.1
				c0.1,0,0.1,0,0.1-0.1c0.1,0,0.1-0.1,0.2-0.1c0.1-0.1,0.2-0.1,0.4-0.2s0.3-0.2,0.4-0.3c0.1-0.1,0.1-0.2,0.2-0.3
				c0.1-0.1,0.1-0.2,0.1-0.4c0-0.1,0-0.2,0-0.4c0-0.1,0-0.1,0-0.2v-0.1c0-0.1,0-0.1,0-0.1c0-0.1,0-0.1,0-0.1v-0.1l0,0l0,0
				c0,0.1,0,0.1,0.1,0.1c0,0.1,0,0.1,0.1,0.1v0.1c0,0.1,0.1,0.1,0.1,0.2c0.1,0.1,0.1,0.2,0.2,0.4c0,0.1,0.1,0.1,0.1,0.1
				c0.1,0.1,0.2,0.2,0.2,0.3c0.1,0.1,0.2,0.1,0.3,0.2s0.2,0.1,0.4,0.1c0.1,0,0.2,0,0.4,0c0.1,0,0.1,0,0.2,0h0.1
				C252.9,178.4,252.9,178.4,253,178.5L253,178.5C252.8,178.6,252.8,178.5,253,178.5L253,178.5z"/>
		</g>
		<g>
			<path class="st0" d="M143.3,196.8c-0.1,0-0.1,0-0.1,0.1c-0.1,0-0.1,0-0.1,0.1H143c-0.1,0-0.1,0.1-0.2,0.1
				c-0.1,0.1-0.2,0.1-0.4,0.2c-0.1,0-0.1,0.1-0.2,0.1c-0.1,0.1-0.2,0.2-0.3,0.2c-0.1,0.1-0.1,0.2-0.2,0.4c0,0.1-0.1,0.2-0.1,0.3
				c0,0.1,0,0.2,0,0.4c0,0.1,0,0.1,0,0.2s0,0.1,0,0.1c0,0.1,0,0.1,0,0.1v0.1v0.1l0,0l0,0c0-0.1,0-0.1-0.1-0.1c0-0.1,0-0.1-0.1-0.1
				V199c0-0.1-0.1-0.1-0.1-0.2c-0.1-0.1-0.1-0.2-0.2-0.4c-0.1-0.2-0.2-0.3-0.4-0.4c-0.1-0.1-0.2-0.1-0.3-0.2
				c-0.1-0.1-0.2-0.1-0.4-0.1c-0.1,0-0.2,0-0.4,0c-0.1,0-0.1,0-0.2,0s-0.1,0-0.1,0c-0.1,0-0.1,0-0.2,0H139l0,0l0,0
				c0.1,0,0.2-0.1,0.2-0.1c0.1,0,0.1,0,0.1-0.1c0.1,0,0.1-0.1,0.2-0.1c0.1-0.1,0.2-0.1,0.4-0.2c0.2-0.1,0.3-0.2,0.4-0.4
				c0.1-0.1,0.1-0.2,0.2-0.3c0.1-0.1,0.1-0.2,0.1-0.4c0-0.1,0-0.2,0-0.4c0-0.1,0-0.1,0-0.2v-0.1c0-0.1,0-0.1,0-0.1
				c0-0.1,0-0.1,0-0.1v-0.1l0,0l0,0c0,0.1,0,0.1,0.1,0.1c0,0.1,0,0.1,0.1,0.1v0.1c0,0.1,0.1,0.1,0.1,0.2c0.1,0.1,0.1,0.2,0.2,0.4
				c0,0.1,0.1,0.1,0.1,0.1c0.1,0.1,0.2,0.2,0.2,0.3c0.1,0.1,0.2,0.1,0.3,0.2c0.1,0.1,0.2,0.1,0.4,0.1c0.1,0,0.2,0,0.4,0
				c0.1,0,0.1,0,0.2,0h0.1c0.1,0,0.1,0,0.1,0h0.1C143.2,196.8,143.2,196.8,143.3,196.8L143.3,196.8z"/>
		</g>
		<g>
			<path class="st0" d="M206.5,177.5c-0.1,0-0.1,0-0.1-0.1c-0.1,0-0.1,0-0.2-0.1c-0.1,0-0.1,0-0.1,0c-0.1,0-0.1,0-0.2-0.1
				c-0.2,0-0.3-0.1-0.5-0.1c-0.1,0-0.1,0-0.2,0c-0.1,0-0.3,0.1-0.4,0.1c-0.2,0.1-0.3,0.2-0.4,0.3c-0.1,0.1-0.1,0.2-0.2,0.2
				c-0.1,0.1-0.1,0.2-0.2,0.4c-0.1,0.1-0.1,0.1-0.1,0.2s-0.1,0.1-0.1,0.1c0,0.1-0.1,0.1-0.1,0.1c0,0.1-0.1,0.1-0.1,0.1v0.1l0,0l0,0
				c0-0.1,0-0.1,0.1-0.2c0-0.1,0-0.1,0.1-0.1c0-0.1,0-0.1,0-0.1c0-0.1,0-0.1,0.1-0.2c0-0.1,0.1-0.3,0.1-0.4c0-0.2,0-0.4-0.1-0.6
				c-0.1-0.1-0.1-0.2-0.2-0.4c-0.1-0.1-0.2-0.2-0.4-0.3c-0.1-0.1-0.2-0.1-0.4-0.2c-0.1-0.1-0.1-0.1-0.2-0.1c-0.1,0-0.1-0.1-0.1-0.1
				s-0.1-0.1-0.2-0.1h-0.1l0,0l0,0c0.1,0,0.2,0.1,0.3,0.1s0.1,0,0.1,0s0.1,0,0.2,0.1c0.1,0,0.3,0.1,0.4,0.1c0.2,0,0.4,0,0.6-0.1
				c0.1-0.1,0.2-0.1,0.4-0.2c0.1-0.1,0.2-0.2,0.3-0.4c0.1-0.1,0.1-0.2,0.2-0.4c0.1-0.1,0.1-0.1,0.1-0.2s0-0.1,0.1-0.1
				c0-0.1,0.1-0.1,0.1-0.1c0-0.1,0.1-0.1,0.1-0.1v-0.1l0,0l0,0c0,0.1,0,0.1-0.1,0.1c0,0.1,0,0.1-0.1,0.2c0,0.1,0,0.1,0,0.1
				c0,0.1,0,0.1-0.1,0.2c0,0.2-0.1,0.3-0.1,0.5c0,0.1,0,0.1,0,0.2s0.1,0.3,0.1,0.4c0.1,0.1,0.1,0.2,0.2,0.4c0.1,0.1,0.2,0.2,0.4,0.3
				c0.1,0.1,0.2,0.1,0.4,0.2c0.1,0.1,0.1,0.1,0.2,0.1c0,0,0.1,0,0.1,0.1c0.1,0,0.1,0.1,0.1,0.1C206.5,177.4,206.5,177.4,206.5,177.5
				C206.3,177.5,206.5,177.5,206.5,177.5L206.5,177.5z"/>
		</g>
		<g>
			<path class="st0" d="M284.5,165c-0.1,0-0.1,0-0.1,0.1c-0.1,0-0.1,0.1-0.2,0.1s-0.1,0-0.1,0c-0.1,0-0.1,0.1-0.2,0.1
				c-0.1,0.1-0.3,0.1-0.4,0.2c-0.1,0-0.1,0.1-0.2,0.1c-0.1,0.1-0.2,0.2-0.3,0.3c-0.1,0.1-0.2,0.3-0.2,0.5c0,0.1-0.1,0.2-0.1,0.3
				c0,0.1,0,0.2,0,0.4c0,0.1,0,0.1,0,0.2s0,0.1,0,0.1c0,0.1,0,0.1,0,0.1c0,0.1,0,0.1,0,0.1v0.1l0,0l0,0c0-0.1-0.1-0.1-0.1-0.2
				s-0.1-0.1-0.1-0.1c0-0.1,0-0.1,0-0.1c0-0.1-0.1-0.1-0.1-0.2c-0.1-0.1-0.1-0.2-0.2-0.4c-0.1-0.2-0.2-0.4-0.4-0.5
				c-0.1-0.1-0.2-0.1-0.4-0.2c-0.1-0.1-0.3-0.1-0.4-0.1c-0.1,0-0.3,0-0.4,0c-0.1,0-0.1,0-0.2,0c-0.1,0-0.1,0-0.1,0
				c-0.1,0-0.1,0-0.2,0H280l0,0l0,0c0.1,0,0.2-0.1,0.2-0.1c0.1,0,0.1,0,0.1-0.1c0.1,0,0.1-0.1,0.2-0.1c0.1-0.1,0.2-0.1,0.4-0.2
				s0.4-0.2,0.5-0.4c0.1-0.1,0.1-0.2,0.2-0.4s0.1-0.3,0.1-0.4s0-0.3,0-0.4s0-0.1,0-0.2s0-0.1,0-0.1c0-0.1,0-0.1,0-0.1
				c0-0.1,0-0.1,0-0.1v-0.1l0,0l0,0c0,0.1,0,0.1,0.1,0.1c0,0.1,0.1,0.1,0.1,0.1c0,0.1,0,0.1,0.1,0.1c0,0.1,0.1,0.1,0.1,0.2
				c0.1,0.1,0.1,0.3,0.2,0.4c0,0.1,0.1,0.1,0.1,0.2c0.1,0.1,0.2,0.2,0.3,0.3c0.1,0.1,0.2,0.1,0.4,0.2c0.1,0.1,0.3,0.1,0.4,0.1
				c0.1,0,0.2,0,0.4,0c0.1,0,0.1,0,0.2,0h0.1c0.1,0,0.1,0,0.1,0h0.1C284.3,165,284.3,165,284.5,165L284.5,165z"/>
		</g>
		<g>
			<g>
				<path class="st0" d="M225.2,180.4L225.2,180.4L225.2,180.4C225.2,180.4,225.2,180.4,225.2,180.4
					C225.1,180.4,225.1,180.4,225.2,180.4L225.2,180.4z"/>
			</g>
			<g>
				<path class="st0" d="M225.2,180.4L225.2,180.4L225.2,180.4L225.2,180.4z"/>
			</g>
		</g>
		<g>
			<path class="st0" d="M225,126.9c-54.9,0-99.5,44.7-99.5,99.5c0,6.8,0.7,13.4,2,19.9c0.2,1.3,0.5,2.6,0.9,4
				c0.7,2.8,1.5,5.6,2.4,8.2c0.6,1.8,1.3,3.7,2,5.4c2,4.8,4.2,9.3,6.8,13.6c0.9,1.5,1.8,3,2.8,4.5c2.3,3.4,4.9,6.7,7.6,9.8
				c0.9,1,1.8,2.1,2.8,3.1c2.4,2.5,5,5,7.6,7.2c1.5,1.3,3,2.5,4.5,3.7c16.7,12.6,37.5,20.2,60,20.2s43.3-7.5,60-20.2
				c1.6-1.2,3.1-2.4,4.6-3.7c2.7-2.3,5.2-4.7,7.6-7.2c1-1,1.9-2,2.8-3.1c2.7-3.1,5.2-6.4,7.5-9.7c1-1.4,1.9-2.9,2.8-4.4
				c2.6-4.3,4.9-8.8,6.8-13.5c0.7-1.8,1.5-3.7,2.1-5.5c0.9-2.8,1.8-5.5,2.4-8.4c0.3-1.3,0.6-2.6,0.9-4c1.3-6.4,2-13.1,2-19.9
				C324.5,171.5,280,126.9,225,126.9z M225,321.9c-15.6,0-30.4-3.8-43.5-10.4c0.9,0.1,2,0.2,3.1,0.2c5.6,0,8.6-1.7,11.1-3.2
				c2.4-1.5,4.6-2.7,9.1-2.7s6.7,1.3,9.1,2.7c2.6,1.5,5.5,3.2,11.1,3.2s8.6-1.7,11.1-3.2c2.4-1.5,4.6-2.7,9.1-2.7s6.7,1.3,9.1,2.7
				c2.6,1.5,5.6,3.2,11.1,3.2c1,0,1.9-0.1,2.8-0.1C255.5,318.1,240.6,321.9,225,321.9z M283.5,301.8c-4.1,0.4-6.5,1.8-8.7,3.1
				c-2.4,1.5-4.6,2.7-9.1,2.7s-6.7-1.2-9.1-2.7c-2.6-1.5-5.5-3.2-11.1-3.2s-8.6,1.7-11.1,3.2c-2.4,1.5-4.6,2.7-9.1,2.7
				s-6.7-1.2-9.1-2.7c-2.6-1.5-5.5-3.2-11.1-3.2s-8.6,1.7-11.1,3.2c-2.4,1.5-4.6,2.7-9.1,2.7s-6.7-1.2-9.1-2.7
				c-2.3-1.3-4.8-2.8-9-3.2c-3.5-2.8-6.9-5.7-10-9c2-1.1,4.2-2,7.9-2c4.5,0,6.7,1.3,9.1,2.7c2.6,1.5,5.6,3.2,11.1,3.2
				c5.6,0,8.6-1.7,11.1-3.2c2.4-1.5,4.6-2.7,9.1-2.7s6.7,1.3,9.1,2.7c2.6,1.5,5.5,3.2,11.1,3.2s8.6-1.7,11.1-3.2
				c2.4-1.5,4.6-2.7,9.1-2.7s6.7,1.3,9.1,2.7c2.6,1.5,5.6,3.2,11.1,3.2c5.6,0,8.6-1.7,11.1-3.2c2.4-1.5,4.6-2.7,9.1-2.7
				c3.7,0,5.7,0.8,7.7,1.9C290.5,296,287.1,299.1,283.5,301.8z M296.5,289.8c-2.4-1.4-5.3-2.9-10.5-2.9c-5.6,0-8.6,1.7-11.1,3.2
				c-2.4,1.5-4.6,2.7-9.1,2.7s-6.7-1.3-9.1-2.7c-2.6-1.5-5.5-3.2-11.1-3.2s-8.6,1.7-11.1,3.2c-2.4,1.5-4.6,2.7-9.1,2.7
				s-6.7-1.3-9.1-2.7c-2.6-1.5-5.5-3.2-11.1-3.2s-8.6,1.7-11.1,3.2c-2.4,1.5-4.6,2.7-9.1,2.7s-6.7-1.3-9.1-2.7
				c-2.6-1.5-5.5-3.2-11.1-3.2c-5.3,0-8.2,1.5-10.7,3c-2.3-2.6-4.5-5.3-6.5-8.1c3.7-0.5,5.9-1.8,8-3.1c2.4-1.5,4.6-2.7,9.1-2.7
				s6.7,1.2,9.1,2.7c2.6,1.5,5.6,3.2,11.1,3.2c5.6,0,8.6-1.7,11.1-3.2c2.4-1.5,4.6-2.7,9.1-2.7s6.7,1.2,9.1,2.7
				c2.6,1.5,5.5,3.2,11.1,3.2s8.6-1.7,11.1-3.2c2.4-1.5,4.6-2.7,9.1-2.7s6.7,1.2,9.1,2.7c2.6,1.5,5.6,3.2,11.1,3.2
				c5.6,0,8.6-1.7,11.1-3.2c2.4-1.5,4.6-2.7,9.1-2.7s6.7,1.2,9.1,2.7c2,1.2,4.2,2.5,7.8,3C300.8,284.5,298.8,287.2,296.5,289.8z
				 M305.5,278c-4-0.1-6-1.3-8.3-2.7c-2.6-1.5-5.5-3.2-11.1-3.2s-8.6,1.7-11.1,3.2c-2.4,1.5-4.6,2.7-9.1,2.7s-6.7-1.3-9.1-2.7
				c-2.6-1.5-5.5-3.2-11.1-3.2s-8.6,1.7-11.1,3.2c-2.4,1.5-4.6,2.7-9.1,2.7s-6.7-1.3-9.1-2.7c-2.6-1.5-5.5-3.2-11.1-3.2
				s-8.6,1.7-11.1,3.2c-2.4,1.5-4.6,2.7-9.1,2.7s-6.7-1.3-9.1-2.7c-2.6-1.5-5.5-3.2-11.1-3.2s-8.6,1.7-11.1,3.2
				c-2.4,1.4-4.4,2.6-8.6,2.7c-2.4-3.7-4.5-7.6-6.4-11.6c1.6,0.5,3.5,0.8,5.8,0.8c5.6,0,8.6-1.7,11.1-3.2c2.4-1.5,4.6-2.7,9.1-2.7
				s6.7,1.2,9.1,2.7c2.6,1.5,5.6,3.2,11.1,3.2c5.6,0,8.6-1.7,11.1-3.2c2.4-1.5,4.6-2.7,9.1-2.7s6.7,1.2,9.1,2.7
				c2.6,1.5,5.5,3.2,11.1,3.2s8.6-1.7,11.1-3.2c2.4-1.5,4.6-2.7,9.1-2.7s6.7,1.2,9.1,2.7c2.6,1.5,5.6,3.2,11.1,3.2
				c5.6,0,8.6-1.7,11.1-3.2c2.4-1.5,4.6-2.7,9.1-2.7s6.7,1.2,9.1,2.7c2.6,1.5,5.6,3.2,11.1,3.2c2.2,0,4-0.2,5.5-0.7
				C310,270.5,307.8,274.3,305.5,278z M314,261.3c-2,1.1-4.1,1.9-7.8,1.9c-4.5,0-6.7-1.3-9.1-2.7c-2.6-1.5-5.5-3.2-11.1-3.2
				s-8.6,1.7-11.1,3.2c-2.4,1.5-4.6,2.7-9.1,2.7s-6.7-1.3-9.1-2.7c-2.6-1.5-5.5-3.2-11.1-3.2s-8.6,1.7-11.1,3.2
				c-2.4,1.5-4.6,2.7-9.1,2.7s-6.7-1.3-9.1-2.7c-2.6-1.5-5.5-3.2-11.1-3.2s-8.6,1.7-11.1,3.2c-2.4,1.5-4.6,2.7-9.1,2.7
				s-6.7-1.3-9.1-2.7c-2.6-1.5-5.5-3.2-11.1-3.2s-8.6,1.7-11.1,3.2c-2.4,1.5-4.6,2.7-9.1,2.7c-3.8,0-6-0.9-8.1-2.1
				c-1.4-3.5-2.6-7.2-3.5-10.9h185.1C316.6,254,315.5,257.7,314,261.3z M163.5,246.2l3.6-16.8l1.9,16.8H163.5z M239.8,196.6
				l-15,14.8l-15-14.8L239.8,196.6L239.8,196.6z M211.8,192.7l13-8.1l13,8.1H211.8z M193.1,220.4l27.7-3.7L204.4,244L193.1,220.4z
				 M201.1,246.2h-26.3l15.1-23.3L201.1,246.2z M224.8,218.1l16.9,28.1h-33.9L224.8,218.1z M228.5,216.7l27.7,3.7L245,244
				L228.5,216.7z M259.5,222.9l15.1,23.3h-26.3L259.5,222.9z M262.8,220.5l17.2-1.3l-2.9,23.3L262.8,220.5z M260.3,216.7l-10-16.5
				l26.5,15.3L260.3,216.7z M250,195.5l6.8-1.7l12.2,12.6L250,195.5z M255.5,216.3l-26.4-3.5l15.2-14.9L255.5,216.3z M245,192.5
				L245,192.5l-7.2-4.5l11.7,3.4L245,192.5z M204.5,192.5l-4.6-1.1l11.8-3.4L204.5,192.5z M205.2,197.9l15.2,14.9l-26.4,3.5
				L205.2,197.9z M199.1,200.2l-10,16.5l0,0l-16.4-1.2L199.1,200.2z M180.9,206.2l11.8-12.3l6.8,1.6L180.9,206.2z M186.8,220.5
				l-14.2,22l-2.6-23.2L186.8,220.5z M280.5,246.2l2.2-17.5l3.9,17.5H280.5z M318.5,246.2h-27.9l-6.5-29.5c0-0.1,0-0.1-0.1-0.2l0,0
				v-0.1v-0.1c-0.1-0.2-0.2-0.4-0.4-0.6l0,0l-24.8-25.4l-0.1-0.1c-0.1-0.1-0.1-0.1-0.2-0.2s-0.2-0.1-0.2-0.2c-0.1,0-0.1-0.1-0.1-0.1
				l-0.1-0.1c-0.1-0.1-0.2-0.1-0.3-0.1l-32.5-9.3h-0.1c0,0,0,0-0.1,0c0,0,0,0-0.1,0l0,0H225c-0.1,0-0.1,0-0.1,0c-0.1,0-0.2,0-0.2,0
				h-0.1c-0.1,0-0.2,0-0.2,0h-0.1h-0.1l0,0c0,0,0,0-0.1,0H224l-32.5,9.3h-0.1c-0.1,0-0.1,0.1-0.2,0.1s-0.1,0.1-0.2,0.1
				s-0.1,0.1-0.1,0.1c-0.1,0.1-0.1,0.1-0.1,0.1l-0.1,0.1c-0.1,0.1-0.1,0.1-0.1,0.1l-0.1,0.1l-24.3,25.4l-0.1,0.1l-0.1,0.1l-0.1,0.1
				c-0.1,0.1-0.2,0.3-0.2,0.5c0,0.1-0.1,0.1-0.1,0.2v0.1l-6.4,29.5h-27.9c-1.3-6.4-2.1-13-2.1-19.9c0-52.7,42.8-95.6,95.6-95.6
				c52.7,0,95.6,42.8,95.6,95.6C320.6,233.2,319.8,239.8,318.5,246.2z"/>
		</g>
		<g>
			<g>
				<path class="st0" d="M302.5,217.3c0,0.2,0,0.4,0,0.7V217.3C302.5,217.2,302.5,217.2,302.5,217.3z"/>
			</g>
			<g>
				<path class="st0" d="M315.5,236.7c-0.1,0.7-0.7,1.1-1.3,1.1c-0.1,0-0.2,0-0.3-0.1c-0.3-0.1-5.3-1.2-8.6-4.4v13.3
					c0,0.8-0.6,1.4-1.4,1.4s-1.4-0.6-1.4-1.4v-13.3c-3.2,3.2-8.2,4.3-8.6,4.4c-0.1,0-0.2,0.1-0.3,0.1c-0.6,0-1.2-0.4-1.3-1.1
					c-0.2-0.7,0.3-1.5,1-1.7c0.1,0,2.3-0.5,4.6-1.8s4.6-3.2,4.6-6.2v-2.6c-2.3,2.3-5.4,3.2-7.5,3.5c-0.1,0-0.1,0-0.2,0
					c-0.7,0-1.3-0.6-1.4-1.2c-0.1-0.8,0.5-1.5,1.2-1.5c0.3-0.1,7.5-1,7.8-7.3l0,0c0-0.2,0-0.4,0-0.7c0-0.1,0-0.1,0-0.1v-1.2
					c-2.3,2.6-5,3.1-5.1,3.1c-0.7,0.1-1.5-0.4-1.6-1.2c-0.1-0.7,0.4-1.5,1.2-1.6c0.2-0.1,5.5-1,5.5-8.8v0.1c0-0.8,0.6-1.4,1.4-1.4
					c0.4,0,0.7,0.2,1,0.4s0.4,0.6,0.4,1v0.1c0,7.8,5.3,8.8,5.5,8.8c0.7,0.1,1.3,0.9,1.2,1.6c-0.1,0.7-0.7,1.2-1.3,1.2
					c-0.1,0-0.1,0-0.2,0s-2.8-0.5-5.1-3.1v1.1c0,0.1,0,0.1,0,0.2s0,0.1,0,0.2v0.5c0-0.1,0-0.1,0-0.2c0.2,6.4,7.5,7.3,7.8,7.3
					c0.8,0.1,1.3,0.8,1.2,1.5s-0.7,1.2-1.4,1.2c-0.1,0-0.1,0-0.2,0c-2.1-0.2-5.2-1.2-7.5-3.5v2.4c0,0.1,0,0.1,0,0.1
					c0,5.9,9.1,7.9,9.2,7.9C315.2,235.2,315.8,236,315.5,236.7z"/>
			</g>
			<g>
				<path class="st0" d="M305.3,217.9L305.3,217.9c0,0.1,0,0.1,0,0.2v-0.5C305.3,217.7,305.3,217.8,305.3,217.9z"/>
			</g>
			<g>
				<path class="st0" d="M302.5,217.3c0,0.2,0,0.4,0,0.7v-0.6V217.3z"/>
				<path class="st0" d="M305.3,217.9L305.3,217.9c0,0.1,0,0.1,0,0.2v-0.5C305.3,217.7,305.3,217.8,305.3,217.9z"/>
			</g>
			<g>
				<path class="st1" d="M304,207.5"/>
			</g>
		</g>
		<g>
			<g>
				<path class="st0" d="M144.8,217.9L144.8,217.9C144.8,218,144.8,218,144.8,217.9v-0.3C144.8,217.7,144.8,217.8,144.8,217.9z"/>
				<path class="st0" d="M146.8,225.8c0.1,0.1,0.1,0.1,0.2,0.1C146.9,225.9,146.8,225.8,146.8,225.8z"/>
				<path class="st0" d="M157.8,236.7c-0.1,0.7-0.7,1.1-1.3,1.1c-0.1,0-0.2,0-0.3-0.1c-0.3-0.1-5.3-1.2-8.6-4.4v13.3
					c0,0.8-0.6,1.4-1.4,1.4s-1.4-0.6-1.4-1.4v-13.3c-3.2,3.2-8.2,4.3-8.6,4.4c-0.1,0-0.2,0.1-0.3,0.1c-0.6,0-1.2-0.4-1.3-1.1
					c-0.2-0.7,0.3-1.5,1-1.7c0.1,0,2.3-0.5,4.6-1.8c2.3-1.3,4.5-3.2,4.5-6.2v-2.6c-2.3,2.2-5.4,3.2-7.5,3.5c-0.1,0-0.1,0-0.2,0
					c-0.7,0-1.3-0.6-1.4-1.2c-0.1-0.8,0.5-1.5,1.2-1.5c0.3-0.1,7.5-0.9,7.8-7.2v-0.1l0,0c0-0.1,0-0.2,0-0.4v-1.6
					c-2.3,2.6-5,3.1-5.1,3.1c-0.7,0.1-1.5-0.4-1.6-1.2s0.4-1.5,1.2-1.6c0.2-0.1,5.5-1,5.5-8.8v0.1c0-0.8,0.6-1.4,1.4-1.4l0,0
					c0.8,0,1.4,0.6,1.4,1.4v0.1c0,7.8,5.3,8.7,5.5,8.8c0.7,0.1,1.3,0.9,1.2,1.6c-0.1,0.7-0.7,1.2-1.3,1.2c-0.1,0-0.1,0-0.2,0
					s-2.8-0.5-5.1-3.1v0.9c0,0.1,0,0.2,0,0.4s0,0.3,0,0.5l0,0c0.2,6.4,7.5,7.3,7.8,7.3c0.7,0.1,1.3,0.8,1.2,1.5s-0.7,1.2-1.4,1.2
					c-0.1,0-0.1,0-0.2,0c-2.1-0.2-5.2-1.2-7.5-3.5v2.4c0,0.1,0,0.1,0,0.2c0,5.9,9.1,7.9,9.2,7.9C157.5,235.2,158,236,157.8,236.7z"
					/>
			</g>
			<g>
				<path class="st0" d="M146.8,225.8c0.1,0.1,0.1,0.1,0.2,0.1C146.9,225.9,146.8,225.8,146.8,225.8z"/>
			</g>
			<g>
				<path class="st1" d="M146.2,207.5"/>
			</g>
		</g>
	</g>
	<g>
	
		<path class="st0" d="M206.1,22c-0.3-4.7-0.5-7.9-1-11.5c0.9,0,2.1,0.1,3.4,0c1.4-0.1,2.5-0.3,3.4-0.4c0,3.7,0.1,6.9,0.3,11.6
			l0.3,5.7c0.2,3.1,0.4,6.3,0.6,8.4c3.1-0.2,6.3-0.5,9.5-1.1c0,0.6-0.1,1-0.1,1.9c0.1,0.9,0.2,1.3,0.3,1.8c-1.5,0-3.5,0-7.3,0.2
			c-6.8,0.4-7.9,0.6-8.8,0.7c0-3.7-0.1-6.9-0.3-11.6L206.1,22z"/>
		<path class="st0" d="M226.8,20.5c2.3-1.8,5.3-2.7,7.9-2.6c4.4,0.2,7.6,2.2,7.3,7.2c-0.2,3.5-0.4,6.5-0.6,9.5
			c-0.1,2.6,0.6,2.9,2.3,3v1c-1.6,0.8-2.6,1-3.9,0.9c-2-0.1-3.2-1.3-3.8-3.2c-1.4,1.7-3,2.9-5.6,2.8c-4.2-0.2-5.8-3.1-5.7-5.8
			c0.2-3.6,2.7-5.1,6.5-5.8c4.7-0.9,5.2-1.2,5.2-2.7c0.1-2-1.3-3.7-3.8-3.8c-1.9-0.1-4.2,0.9-5.1,2.1h-0.3L226.8,20.5z M236.3,27.9
			c-2.4,1.2-5.6,0.9-5.8,5.1c-0.1,2,0.8,3.2,2.2,3.3c1.8,0.1,3.2-1.3,3.3-4C236.2,29.9,236.3,28.9,236.3,27.9z"/>
		<path class="st0" d="M248.8,22.5c0.8-5.4,1.4-9.6,1.9-14.3c0.7,0.2,1.9,0.5,3.1,0.7c1.2,0.2,2.4,0.3,3.1,0.3
			c-0.9,4.6-1.7,8.8-3.3,19.4c-0.1,0.7-0.1,0.9,0.1,0.9c0.5,0.1,4.1-3.1,9.2-7.9c0.6,0.2,1.2,0.4,1.9,0.5c0.6,0.1,1.3,0.1,2.3,0.2
			c-1.7,1.4-7.1,5.3-8.5,6.5c0.5,1.2,5.1,11.9,5.5,13.5c-1.1-0.3-2.2-0.5-3.2-0.7s-2.1-0.2-3.2-0.3c-0.5-1.4-3.8-10.4-4.4-10.5
			c-0.3,0-0.3,0.1-0.9,4c-0.2,1.5-0.6,4.5-0.6,5.5c-1-0.2-2-0.5-2.9-0.7c-1-0.2-2-0.2-3-0.3c0.9-4.6,1.7-8.8,2.5-14.2L248.8,22.5z"
			/>
		<path class="st0" d="M273.5,34.3c-1.2,4.4-0.4,8.1,3.4,9.1c1.9,0.5,3.7,0.3,5.5-0.5l0.4,0.5l-1.5,2c-1.6,0.7-3.6,1-6.6,0.2
			c-5.3-1.4-9-5.8-7.1-12.8s6.7-9.3,12.1-7.9c5.2,1.4,7.3,5.6,5.8,11.2c-0.2,0.7-0.3,1-0.4,1.3L273.5,34.3z M280.2,34.2
			c1-4.1,0.9-6.9-1.2-7.5c-2.4-0.6-4.1,2.7-5,5.8L280.2,34.2z"/>
		<path class="st0" d="M323.6,33.1c0.5,0.4,1,0.7,1.6,1s1.2,0.4,1.8,0.6c-5.2,4.8-15.4,14.1-22.4,21.5c-0.5-0.3-1-0.7-1.6-1
			s-1.2-0.4-1.8-0.6c0.6-7.6,1.5-24,1.6-30.9c1.1,0.7,2.2,1.2,3.3,1.7s2.3,0.9,3.4,1.3c-0.9,6.4-1.3,14.8-1.9,22.2
			C313.2,43.7,319,38,323.6,33.1z"/>
		<path class="st0" d="M322.8,53.2c1.7-2.9,3.1-5.5,4.4-8.2c0.6,0.5,1.5,1.1,2.6,1.8c1.1,0.7,2.2,1.1,2.8,1.4
			c-1.7,2.4-3.3,4.9-5,7.8l-0.8,1.4c-1.7,2.9-3.1,5.5-4.4,8.2c-0.6-0.4-1.5-1.1-2.6-1.8c-1.1-0.7-2.1-1.1-2.8-1.4
			c1.7-2.4,3.3-4.9,5-7.8L322.8,53.2z M335.5,36.9c1.6,0.9,2.1,2.9,1.2,4.5c-0.9,1.6-2.9,2.1-4.5,1.2s-2.1-2.9-1.2-4.5
			C332,36.5,334,35.9,335.5,36.9z"/>
		<path class="st0" d="M336.3,62.5c-2.6,3.7-3.1,7.5,0,9.7c1.6,1.1,3.3,1.6,5.3,1.4l0.2,0.6l-2.1,1.4c-1.7,0.1-3.7-0.3-6.3-2.1
			C329,70.4,327,65,331.2,59c4.2-5.9,9.5-6.4,14.1-3.2c4.4,3.1,5,7.7,1.6,12.5c-0.4,0.6-0.6,0.9-0.8,1.1L336.3,62.5z M342.6,64.7
			c2.3-3.5,3.2-6.2,1.4-7.4c-2-1.4-4.8,1.1-6.7,3.7L342.6,64.7z"/>
		<path class="st0" d="M362.3,89.6c4.4-2.5,8.7-5.1,12.9-7.8c0.3,0.4,0.7,0.9,1.1,1.3s0.9,0.6,1.4,1c-2.3,0.7-13,6.6-18.9,10.1
			c-0.5-0.6-1-1.2-1.5-1.7c-0.6-0.5-1.2-1-1.9-1.4c2.2-4.3,4.5-9.2,6.3-12.9l-0.1-0.1c-4.2,2.4-8.3,4.8-12.4,7.3
			c-0.5-0.6-1-1.2-1.6-1.8s-1.3-1-2-1.5c3.2-6.1,8.3-17.5,9-19.3c0.8,0.9,1.5,1.7,2.3,2.4c0.7,0.7,1.6,1.3,2.4,1.9
			c-2.3,4.4-4.8,9.5-6.8,13.4l0.1,0.1c4.4-2.5,8.7-5.1,12.9-7.8c0.5,0.6,1,1.2,1.6,1.7s1.2,1,1.9,1.4
			C366.8,80.5,364.5,85,362.3,89.6L362.3,89.6z"/>
		<path class="st0" d="M405.2,117c1.1-2.9,1-6-1.2-9.2c-2.9-4.3-9.5-6.3-16.7-1.3c-5.5,3.8-7.5,9.7-3.9,15c0.8,1.2,2.4,3,3.2,3.3
			c0.6-0.3,1.5-0.9,2.5-1.5c3.7-2.5,5.1-3.8,5.8-4.3c0.2,0.5,0.6,1.3,1.6,2.7c1.1,1.7,1.7,2.3,2.1,2.7c-0.8,0.3-3.8,2.2-6,3.7
			c-1.5,1-3.3,2.3-3.7,2.7c-2.9-2.4-5.7-5.1-7.8-8.2c-5.4-7.9-4.8-16.7,2.2-21.5c8.8-6,17.4-2.8,22.9,5.3c2.4,3.5,3.2,6.4,3.6,9.7
			c-1.4,0.4-2.9,0.8-4.2,1.4L405.2,117z"/>
		<path class="st0" d="M405,128.1c4.8-2.6,8.6-4.7,12.6-7.1c0.2,0.7,0.7,1.8,1.3,2.9s1.2,2.1,1.7,2.7c-4.3,2-8.1,3.9-12.9,6.5
			l-2.4,1.3c-4.8,2.6-8.6,4.7-12.6,7.1c-0.2-0.7-0.7-1.8-1.3-2.9s-1.2-2.1-1.7-2.7c4.3-2,8.1-3.9,12.9-6.5L405,128.1z"/>
		<path class="st0" d="M411.2,138.4c2.6,1.3,4.7,3.6,5.8,6c1.7,4.1,1.3,7.8-3.3,9.7c-3.3,1.4-6,2.4-8.8,3.6c-2.4,1-2.4,1.8-1.7,3.4
			l-0.9,0.4c-1.4-1.1-2-1.9-2.5-3.1c-0.8-1.9-0.2-3.5,1.3-4.9c-2.1-0.5-3.9-1.5-4.9-3.8c-1.7-3.9,0.2-6.6,2.7-7.6
			c3.3-1.4,5.7,0.2,8,3.3c2.9,3.9,3.3,4.1,4.7,3.5c1.8-0.8,2.8-2.8,1.8-5.1c-0.8-1.8-2.7-3.4-4.1-3.7l-0.1-0.3L411.2,138.4z
			 M408.6,150.3c-2.2-1.7-3.2-4.6-7.1-3c-1.9,0.8-2.6,2.1-2,3.4c0.7,1.7,2.5,2.3,5,1.2C406.8,151,407.8,150.7,408.6,150.3z"/>
		<path class="st0" d="M420.8,164.6L420.8,164.6c2.6,1,4.5,2.7,5.2,5.2c0.6,2.4-0.3,4.6-2.5,6.2c2.9,1,4.9,2.9,5.5,5.2
			c1.1,4-0.6,6.9-5.8,8.3c-2.7,0.7-4.7,1.1-6.8,1.6c-1.7,0.4-3.8,1.1-5.8,1.7c-0.1-0.7-0.3-1.9-0.6-3.1s-0.7-2.3-1-3
			c3-0.4,6.9-1.4,11.7-2.6c3.4-0.9,4.6-2.5,4.1-4.5c-0.7-2.6-3.6-2.5-5.5-2l-2.9,0.8c-3.3,0.9-6.1,1.7-8.9,2.7
			c-0.1-0.7-0.3-1.8-0.6-3.1c-0.3-1.3-0.7-2.3-1-3c2.9-0.5,5.8-1.2,9.1-2.1l2.5-0.7c3.2-0.9,4.9-2,4.3-4.3c-0.6-2.4-3.2-2.9-6.9-1.9
			l-1.6,0.4c-3.3,0.9-6.1,1.7-8.9,2.7c-0.1-0.7-0.3-1.8-0.6-3.1c-0.3-1.3-0.7-2.3-1-3c2.9-0.5,5.8-1.2,9.1-2.1l1.6-0.4
			c3.3-0.9,6.1-1.7,8.9-2.7c0.2,1,0.3,2,0.6,2.9c0.3,1,0.6,1.9,1,2.9L420.8,164.6z"/>
		<path class="st0" d="M416.5,195.9c5.4-0.6,9.7-1.2,14.3-1.9c0,1,0,2,0.1,2.9c0.1,1,0.3,1.9,0.5,2.8c-0.9,0-2.4,0-3.6,0.1v0.1
			c2.4,0.5,4.4,2.5,4.8,5.4c0.5,4.2-2.1,8.4-9.4,9.2c-7.9,0.9-11.4-2.9-11.8-7c-0.3-2.5,0.6-4.5,2.4-5.7v-0.1
			c-4,0.4-11.4,1.3-13.4,1.8c0-0.7,0-1.9-0.1-3.1c-0.1-1.2-0.3-2.4-0.5-3.1c4.7-0.3,9-0.6,14.4-1.2L416.5,195.9z M429.8,203.9
			c-0.2-2.1-2.7-3.7-8.9-3.1c-5,0.6-7.2,2.2-7,4.6c0.3,2.4,3,3.6,8.5,3C428,207.9,430.1,206.1,429.8,203.9z"/>
		<path class="st0" d="M423.8,219.3c3.4-0.1,6.4-0.2,9.3-0.5c-0.1,0.8-0.2,1.8-0.1,3.1c0,1.3,0.2,2.4,0.3,3.1
			c-2.9-0.2-5.9-0.2-9.3-0.1h-1.7c-3.4,0.1-6.4,0.2-9.3,0.5c0.1-0.7,0.2-1.8,0.1-3.1c0-1.3-0.2-2.4-0.3-3.1c2.9,0.2,5.9,0.2,9.3,0.1
			H423.8z M444.2,221.7c0,1.8-1.4,3.3-3.2,3.4c-1.8,0-3.3-1.4-3.4-3.2s1.4-3.3,3.2-3.4S444.2,219.8,444.2,221.7z"/>
		<path class="st0" d="M429.8,236.7L429.8,236.7c2.1,1.8,3.4,4,3.2,6.6c-0.3,4.2-2.8,6.4-8.1,6c-2.8-0.2-4.8-0.5-7-0.6
			c-1.8-0.1-3.9-0.1-6.1-0.2c0.2-0.7,0.3-1.9,0.4-3.1c0.1-1.2,0.1-2.4,0-3.1c3,0.6,7,0.9,11.9,1.3c3.5,0.2,5.2-0.9,5.3-3.1
			c0.2-2.5-2.1-3.8-5.9-4l-1.7-0.1c-3.4-0.2-6.3-0.3-9.3-0.3c0.1-0.7,0.3-1.8,0.4-3.1c0.1-1.3,0-2.4,0-3.1c2.9,0.4,5.9,0.7,9.2,1
			l1.7,0.1c3.4,0.2,6.3,0.3,9.3,0.3c-0.2,1-0.3,1.9-0.4,2.9c-0.1,1,0,2,0,3.1L429.8,236.7z"/>
		<path class="st0" d="M427.1,269.6L427.1,269.6c-1.3,1.1-3,1.7-5.1,1.3c-4.1-0.7-6.2-4.5-5.4-9.2c0.1-0.6,0.3-1.1,0.4-1.8
			c0.1-0.7-0.5-1.3-1.3-1.5c-1.3-0.2-2.3,0.6-2.8,2.8l-0.6,3c-0.9,4.5-2.9,6.4-6.6,5.7c-6.5-1.2-7.7-7.6-6.8-12.5
			c0.9-5.1,3.8-7.8,7-7.2c2.6,0.5,3.9,2.4,4.4,5h0.1c0.9-1.3,2.1-2,3.6-1.8c1.8,0.3,3.5,2.2,3.7,4.6h0.1c0.7-1.6,1.7-2.8,2.9-3.5
			s2.8-0.9,4.5-0.6c4.2,0.8,6,4.7,5,9.9c-0.2,1-0.5,2-0.7,3c-0.2,0.7-0.3,1.4-0.5,2.3c-0.2,1.4-0.5,2.9-0.8,4.4
			c-0.3-0.1-0.6-0.2-1-0.3c-0.3-0.1-0.7-0.1-1-0.1L427.1,269.6z M409.5,259.4c0.3-1.4,0.3-2.4,0.1-3c-0.2-0.7-1.4-1.9-3.3-2.3
			c-3.1-0.6-5.2,1.6-5.7,4.5c-0.6,3.2,1.3,5.6,4,6C407.8,265.2,408.8,263.1,409.5,259.4z M423.8,259.6c-3.6-0.7-5.1,0.6-5.3,1.8
			c-0.3,1.8,1,2.9,4.7,3.6c3.7,0.7,5.3-0.2,5.5-1.7C429,261.5,427.3,260.3,423.8,259.6z"/>
		<path class="st0" d="M409.1,288.2c-0.6,1.8-2.6,2.8-4.3,2.2s-2.8-2.6-2.2-4.3c0.6-1.8,2.6-2.8,4.3-2.2S409.8,286.4,409.1,288.2z"
			/>
		<path class="st0" d="M411.2,312.7c4.2,2.1,7.1,3.5,10.5,4.9c-0.5,0.8-1.1,1.7-1.7,3c-0.6,1.2-1,2.3-1.4,3.2
			c-3.2-1.9-6-3.4-10.2-5.5l-5.1-2.6c-2.8-1.4-5.6-2.8-7.6-3.7c-1.4,2.8-2.7,5.7-3.8,8.8c-0.5-0.3-0.8-0.6-1.6-1s-1.2-0.5-1.7-0.7
			c0.7-1.3,1.8-3,3.5-6.4c3.1-6.1,3.5-7.1,3.8-8c3.2,1.9,6,3.4,10.2,5.5L411.2,312.7z"/>
		<path class="st0" d="M402.1,331.4c0.4,2.9-0.4,5.9-1.8,8.2c-2.4,3.7-5.7,5.4-9.9,2.7c-3-1.9-5.4-3.6-7.9-5.3
			c-2.2-1.4-2.8-0.9-3.8,0.5l-0.8-0.5c0.2-1.8,0.4-2.8,1.1-3.8c1.1-1.7,2.8-2.1,4.7-1.7c-0.8-2-1-4.1,0.4-6.2c2.3-3.5,5.6-3.5,7.8-2
			c3.1,2,3,4.9,1.8,8.5c-1.6,4.5-1.5,5.1-0.3,5.9c1.7,1.1,3.9,0.7,5.2-1.4c1-1.6,1.3-4.1,0.8-5.5l0.2-0.2L402.1,331.4z M390.8,335.9
			c0.2-2.7,2.1-5.2-1.5-7.5c-1.7-1.1-3.2-1-4,0.3c-1,1.5-0.5,3.4,1.8,4.8C389.2,334.8,390,335.4,390.8,335.9z"/>
		<path class="st0" d="M389.2,349.4c4.3,3.5,7.6,6,11.4,8.9c-0.5,0.5-1.4,1.4-2.1,2.3c-0.8,0.9-1.5,1.9-1.8,2.6
			c-3.5-3.1-6.8-5.9-15.1-12.7c-0.6-0.5-0.7-0.6-0.8-0.4c-0.3,0.4,0.6,5.1,2.2,11.9c-0.5,0.5-1,0.9-1.4,1.4s-0.7,1.1-1.3,1.9
			c-0.3-2.2-1-8.8-1.3-10.6c-1.3-0.2-12.8-1.6-14.5-2.1c0.8-0.9,1.6-1.6,2.2-2.4c0.7-0.8,1.2-1.7,1.8-2.6c1.5,0.2,10.9,2,11.3,1.5
			c0.2-0.2,0.1-0.3-3-2.8c-1.2-0.9-3.6-2.8-4.5-3.3c0.7-0.7,1.4-1.4,2.1-2.2c0.6-0.8,1.2-1.6,1.7-2.5c3.5,3.1,6.8,5.9,11,9.4
			L389.2,349.4z"/>
		<path class="st0" d="M366.5,364.7c-3.2-3.2-6.8-4.4-9.6-1.7c-1.4,1.4-2.1,3-2.3,5l-0.6,0.1l-1-2.3c0.2-1.7,1-3.6,3.2-5.8
			c3.9-3.8,9.5-4.8,14.7,0.3c5.1,5.1,4.7,10.5,0.7,14.5c-3.9,3.8-8.5,3.5-12.6-0.6c-0.5-0.5-0.8-0.8-0.9-1L366.5,364.7z
			 M363.3,370.6c3,2.9,5.5,4.2,7.1,2.7c1.8-1.7-0.2-4.9-2.5-7.3L363.3,370.6z"/>
		<path class="st0" d="M342.5,408.7c-0.5,0.2-1.1,0.5-1.6,0.9s-1,0.8-1.4,1.2c-1.6-6.9-4.5-20.5-7.4-30.1c0.6-0.3,1.1-0.5,1.6-0.9
			s0.9-0.8,1.4-1.2c6.3,4.3,20,13.3,25.9,16.9c-1.1,0.6-2.2,1.3-3.2,2s-2,1.5-2.9,2.3c-5.1-4-12.1-8.6-18.2-12.8
			C338.5,394.3,340.5,402.1,342.5,408.7z"/>
		<path class="st0" d="M325.5,397.9c1.7,2.9,3.2,5.5,4.9,7.9c-0.7,0.3-1.7,0.7-2.8,1.4s-2,1.3-2.6,1.7c-1.2-2.7-2.6-5.3-4.3-8.2
			l-0.8-1.5c-1.7-2.9-3.2-5.5-4.9-7.9c0.7-0.3,1.7-0.7,2.8-1.4s2-1.3,2.6-1.7c1.2,2.7,2.6,5.3,4.3,8.2L325.5,397.9z M333.2,417.1
			c-1.6,0.9-3.6,0.4-4.5-1.2c-0.9-1.6-0.4-3.6,1.2-4.5c1.6-0.9,3.6-0.4,4.5,1.2C335.3,414.2,334.8,416.2,333.2,417.1z"/>
		<path class="st0" d="M310.6,404.9c-1.9-4.1-4.9-6.5-8.4-4.9c-1.7,0.8-3,2.1-3.9,3.9l-0.6-0.1l-0.1-2.5c0.8-1.5,2.1-3.1,5-4.4
			c4.9-2.3,10.6-1.3,13.7,5.3c3,6.6,0.8,11.5-4.3,13.8c-4.9,2.3-9.2,0.4-11.6-4.8c-0.3-0.6-0.5-1-0.5-1.3L310.6,404.9z M305.5,409.3
			c1.8,3.8,3.7,5.9,5.7,5c2.2-1,1.4-4.7,0.1-7.7L305.5,409.3z"/>
		<path class="st0" d="M274.2,413.8c-0.1,5.1,0,10.1,0.2,15.1c-0.5,0.1-1.1,0.1-1.6,0.3s-1,0.4-1.6,0.7c0.5-2.4,0.8-14.5,0.8-21.4
			c0.7-0.1,1.5-0.3,2.3-0.5s1.4-0.6,2.2-0.9c2.6,4,5.7,8.5,8,11.9h0.1c0-4.8,0.1-9.6,0-14.4c0.8-0.2,1.6-0.3,2.3-0.5
			c0.8-0.2,1.5-0.6,2.3-0.9c3.7,5.8,10.9,16,12.1,17.4c-1.2,0.3-2.2,0.5-3.2,0.8s-1.9,0.7-2.9,1.1c-2.7-4.2-5.8-8.9-8.2-12.6h-0.1
			c-0.1,5.1,0.1,10.1,0.2,15.1c-0.8,0.2-1.5,0.3-2.3,0.5s-1.4,0.6-2.2,0.9C279.8,422.2,277.1,417.9,274.2,413.8L274.2,413.8z"/>
		<path class="st0" d="M228.8,437c1.9,2.4,4.7,3.9,8.5,3.6c5.2-0.4,10.2-5,9.6-13.8c-0.5-6.6-4.5-11.4-11-10.9
			c-1.4,0.1-3.9,0.6-4.5,1.1c-0.1,0.7,0,1.7,0.1,2.9c0.3,4.5,0.7,6.4,0.8,7.2c-0.5,0-1.4-0.1-3.1,0c-2,0.1-2.8,0.3-3.4,0.4
			c0.1-0.9,0-4.4-0.2-7c-0.1-1.8-0.3-4-0.5-4.6c3.6-1.3,7.3-2.4,11-2.6c9.6-0.7,16.9,4.3,17.5,12.8c0.8,10.6-6.3,16.4-16.1,17.1
			c-4.2,0.3-7.1-0.4-10.2-1.8c0.4-1.5,0.7-2.9,0.9-4.3L228.8,437z"/>
		<path class="st0" d="M219.3,431.3c-0.2,5.5-0.3,9.7-0.3,14.5c-0.7-0.2-1.9-0.3-3.1-0.3c-1.2,0-2.4,0-3.1,0.1
			c0.4-4.7,0.7-9,0.9-14.4l0.1-2.7c0.2-5.5,0.3-9.7,0.3-14.5c0.7,0.2,1.9,0.3,3.1,0.3c1.2,0,2.4,0,3.1-0.1c-0.4,4.7-0.7,9-0.9,14.4
			L219.3,431.3z"/>
		<path class="st0" d="M207.5,431.4c-2.5,1.6-5.5,2.3-8.1,1.9c-4.4-0.5-7.4-2.8-6.8-7.7c0.4-3.5,0.9-6.4,1.3-9.4
			c0.3-2.6-0.4-3-2.1-3.2l0.1-1c1.7-0.6,2.7-0.8,4-0.6c2,0.3,3.1,1.6,3.6,3.5c1.5-1.6,3.2-2.7,5.8-2.4c4.2,0.5,5.6,3.5,5.3,6.2
			c-0.4,3.6-3,4.8-6.9,5.3c-4.8,0.5-5.2,0.8-5.4,2.3c-0.2,2,1,3.8,3.5,4.1c1.9,0.2,4.3-0.6,5.3-1.7h0.3L207.5,431.4z M198.5,423.3
			c2.5-1,5.6-0.4,6.1-4.6c0.3-2-0.5-3.3-2-3.4c-1.8-0.2-3.2,1-3.6,3.7C198.8,421.3,198.5,422.3,198.5,423.3z"/>
		<path class="st0" d="M179.9,426.5L179.9,426.5c-2.2,1.7-4.6,2.6-7.1,1.9c-2.4-0.7-3.8-2.5-4.1-5.2c-2.3,2-4.9,2.8-7.3,2.1
			c-4-1.1-5.7-4-4.3-9.1c0.8-2.7,1.4-4.6,2-6.7c0.5-1.7,0.9-3.8,1.4-5.9c0.7,0.3,1.8,0.7,3,1s2.4,0.6,3.1,0.6
			c-1.2,2.8-2.3,6.7-3.6,11.5c-0.9,3.3-0.1,5.3,1.9,5.8c2.6,0.7,3.9-1.8,4.5-3.8l0.8-2.9c0.9-3.3,1.6-6.2,2.1-9c0.7,0.3,1.7,0.7,3,1
			c1.2,0.3,2.3,0.5,3.1,0.6c-1,2.8-1.9,5.6-2.8,8.9l-0.7,2.5c-0.9,3.2-0.7,5.3,1.5,5.9c2.4,0.7,4.1-1.3,5.1-5l0.4-1.6
			c0.9-3.3,1.6-6.2,2.1-9c0.7,0.3,1.7,0.7,3,1c1.2,0.3,2.3,0.5,3.1,0.6c-1,2.8-1.9,5.6-2.8,8.9l-0.4,1.6c-0.9,3.3-1.6,6.2-2.1,9
			c-0.9-0.3-1.8-0.7-2.8-1s-1.9-0.4-3-0.6L179.9,426.5z"/>
		<path class="st0" d="M155,407.1c-2.2,5-3.8,9-5.6,13.4c-0.8-0.5-1.7-1-2.6-1.4s-1.8-0.7-2.7-1c0.4-0.8,1.2-2.1,1.7-3.2h-0.1
			c-1.7,1.8-4.4,2.6-7.1,1.4c-3.9-1.7-6.2-6.1-3.2-12.7c3.2-7.3,8.2-8.4,12-6.7c2.3,1,3.6,2.7,3.7,5h0.1c1.6-3.7,4.7-10.5,5.2-12.5
			c0.6,0.4,1.7,1,2.8,1.5s2.3,0.9,3,1.1c-2.1,4.2-3.9,8.1-6.2,13.1L155,407.1z M141.3,414.6c1.9,0.8,4.6-0.4,7.1-6.2
			c2-4.6,1.7-7.4-0.5-8.4s-4.6,0.8-6.8,5.8C138.9,411,139.3,413.7,141.3,414.6z"/>
		<path class="st0" d="M118.8,418.2c-1.6-0.9-2.2-2.9-1.3-4.5c0.9-1.6,2.9-2.2,4.5-1.3s2.2,2.9,1.3,4.5S120.3,419,118.8,418.2z
			 M131.1,401.6c-1.6,3-3,5.6-4.2,8.3c-0.6-0.4-1.5-1.1-2.6-1.7s-2.2-1.1-2.8-1.3c1.6-2.4,3.2-5,4.8-8l0.8-1.5c1.6-3,3-5.6,4.2-8.3
			c0.6,0.4,1.5,1.1,2.6,1.7c1.1,0.6,2.1,1,2.8,1.3c-1.6,2.4-3.2,5-4.8,8L131.1,401.6z"/>
		<path class="st0" d="M113,398L113,398c-2.6,1-5.2,0.9-7.4-0.5c-3.5-2.3-4.1-5.6-1.1-10c1.6-2.4,2.9-3.9,4.1-5.7
			c1-1.5,2.1-3.3,3.2-5.1c0.5,0.5,1.5,1.3,2.5,1.9c1,0.7,2.1,1.3,2.7,1.6c-2,2.3-4.3,5.6-7.1,9.7c-1.9,2.9-1.8,4.9,0,6.1
			c2.1,1.4,4.3,0.1,6.5-3l0.9-1.4c1.9-2.8,3.5-5.3,4.9-7.9c0.5,0.5,1.4,1.2,2.5,1.9s2,1.2,2.7,1.6c-1.9,2.3-3.6,4.7-5.5,7.5
			l-0.9,1.4c-1.9,2.8-3.5,5.3-4.9,7.9c-0.8-0.6-1.5-1.3-2.3-1.8c-0.8-0.6-1.7-1-2.6-1.5L113,398z"/>
		<path class="st0" d="M86,379.2h0.1c-0.4-1.7-0.1-3.4,1.3-5c2.7-3.1,7-3.1,10.7,0c0.4,0.4,0.9,0.8,1.4,1.3c0.5,0.4,1.4,0.2,1.9-0.4
			c0.9-1,0.7-2.3-1-3.8l-2.3-2c-3.5-3-4.1-5.7-1.6-8.6c4.3-5,10.5-2.8,14.2,0.4c3.9,3.4,4.8,7.2,2.7,9.6c-1.7,2-4,2.1-6.5,1.3
			l-0.1,0.1c0.7,1.4,0.7,2.8-0.3,4c-1.2,1.4-3.7,1.9-5.8,0.8l-0.1,0.1c1,1.4,1.5,2.8,1.5,4.3s-0.6,2.9-1.8,4.2
			c-2.8,3.2-7.1,2.8-11.1-0.7c-0.8-0.7-1.5-1.5-2.2-2.1c-0.5-0.5-1.1-1-1.7-1.6c-1-0.9-2.2-1.9-3.4-2.8c0.2-0.2,0.5-0.5,0.7-0.7
			s0.4-0.5,0.6-0.8L86,379.2z M96.3,381.3c2.4-2.8,2.1-4.7,1.1-5.5c-1.4-1.2-3.1-0.6-5.5,2.3c-2.4,2.9-2.5,4.6-1.3,5.6
			C92,384.9,93.9,384.1,96.3,381.3z M103.8,369c1.1,1,1.9,1.5,2.6,1.6c0.7,0.2,2.3-0.2,3.6-1.7c2.1-2.4,1.2-5.3-1-7.2
			c-2.4-2.1-5.5-1.7-7.2,0.4C99.5,364.6,100.9,366.6,103.8,369z"/>
		<path class="st0" d="M79,354.3c-1.2-1.4-1.1-3.6,0.3-4.8s3.6-1.1,4.8,0.3s1.1,3.6-0.3,4.8S80.2,355.7,79,354.3z"/>
		<path class="st0" d="M56.8,343.8c-3.9,2.6-6.6,4.4-9.5,6.6c-0.4-0.8-0.9-1.8-1.7-3c-0.8-1.2-1.5-2-2-2.8c3.2-1.8,6-3.5,9.9-6
			l4.8-3.1c2.6-1.7,5.2-3.5,7-4.7c-1.7-2.6-3.6-5.2-5.7-7.7c0.5-0.2,0.9-0.4,1.7-0.9c0.7-0.5,1-0.8,1.4-1.1c0.8,1.3,1.7,3,3.8,6.2
			c3.7,5.7,4.4,6.6,5,7.3c-3.2,1.8-6,3.5-9.9,6L56.8,343.8z"/>
		<path class="st0" d="M45.2,326.5c-2.7-1.2-5-3.3-6.2-5.6c-2-4-1.8-7.7,2.6-9.9c3.2-1.6,5.8-2.8,8.5-4.2c2.3-1.2,2.2-2,1.5-3.5
			l0.9-0.5c1.5,1,2.2,1.8,2.7,2.9c0.9,1.8,0.5,3.5-0.9,4.9c2.2,0.4,4,1.2,5.2,3.5c1.9,3.8,0.2,6.6-2.2,7.8c-3.2,1.6-5.7,0.2-8.2-2.8
			c-3.1-3.7-3.6-3.9-5-3.2c-1.8,0.9-2.6,3-1.4,5.2c0.9,1.7,2.9,3.2,4.3,3.4l0.1,0.3L45.2,326.5z M46.9,314.5
			c2.3,1.5,3.5,4.4,7.3,2.5c1.8-0.9,2.4-2.3,1.8-3.6c-0.8-1.6-2.7-2.1-5.1-0.9C48.6,313.6,47.8,314.1,46.9,314.5z"/>
		<path class="st0" d="M36,306.4c-5.1,1.9-9.1,3.6-13.4,5.4c-0.1-0.7-0.5-1.9-0.9-3s-0.9-2.2-1.3-2.9c4.5-1.5,8.5-2.9,18.5-6.7
			c0.7-0.3,0.9-0.3,0.8-0.5c-0.2-0.4-4.7-2-11.4-4.1c-0.2-0.7-0.3-1.3-0.5-1.9c-0.2-0.6-0.6-1.2-1-2.1c2,0.8,8.1,3.6,9.8,4.2
			c0.8-1,7.9-10.3,9.1-11.5c0.3,1.1,0.6,2.1,1,3.2s0.9,1.9,1.3,2.9c-0.9,1.2-7.2,8.4-7,9c0.1,0.3,0.2,0.2,4-1.2
			c1.4-0.5,4.2-1.7,5.1-2.2c0.3,1,0.5,2,0.9,2.9s0.8,1.8,1.3,2.7c-4.5,1.5-8.5,2.9-13.6,4.8L36,306.4z"/>
		<path class="st0" d="M34.1,279.1c4.4-1.1,7.2-3.7,6.3-7.4c-0.5-1.9-1.5-3.4-3.1-4.5l0.2-0.6l2.5,0.3c1.4,1.1,2.6,2.6,3.4,5.7
			c1.4,5.3-0.6,10.7-7.7,12.5c-7,1.8-11.4-1.3-12.8-6.7c-1.4-5.3,1.2-9.1,6.8-10.6c0.7-0.2,1.1-0.3,1.3-0.3L34.1,279.1z M30.8,273.3
			c-4,1.1-6.4,2.6-5.9,4.7c0.6,2.4,4.3,2.2,7.5,1.5L30.8,273.3z"/>
		<path class="st0" d="M8.3,236.1c0.1-0.6,0.1-1.2,0-1.9c-0.1-0.6-0.2-1.2-0.4-1.8c6.8,2.2,19.9,6.4,29.8,8.8c0,0.6-0.1,1.2,0,1.9
			c0.1,0.6,0.2,1.2,0.4,1.8c-6.9,3.2-21.6,10.6-27.7,13.9c0-1.3,0-2.6-0.1-3.8s-0.3-2.4-0.5-3.6c6-2.4,13.5-6.1,20.2-9.3
			C22.8,239.9,15,237.7,8.3,236.1z"/>
		<path class="st0" d="M5.8,223.8c0-1.8,1.5-3.3,3.4-3.2s3.3,1.5,3.2,3.4c0,1.8-1.5,3.3-3.4,3.2S5.8,225.6,5.8,223.8z M26.2,226.9
			c-3.4-0.1-6.4,0-9.3,0.2c0.1-0.8,0.2-1.8,0.3-3.1c0-1.3-0.1-2.4-0.2-3.1c2.9,0.3,5.9,0.4,9.3,0.5H28c3.4,0.1,6.4,0,9.3-0.2
			c-0.1,0.7-0.2,1.8-0.3,3.1c0,1.3,0.1,2.4,0.2,3.1c-2.9-0.3-5.9-0.4-9.3-0.5H26.2z"/>
		<path class="st0" d="M27.6,210.5c4.5,0.4,8.1-1,8.4-4.8c0.2-1.9-0.3-3.7-1.4-5.3l0.4-0.5l2.2,1.1c0.9,1.5,1.6,3.4,1.3,6.5
			c-0.5,5.4-4.2,9.8-11.5,9.1c-7.2-0.7-10.3-5.1-9.8-10.7c0.5-5.4,4.2-8.2,10-7.6c0.7,0.1,1.1,0.1,1.4,0.2L27.6,210.5z M26.4,203.9
			c-4.2-0.3-7,0.3-7.2,2.4c-0.2,2.5,3.3,3.6,6.6,4L26.4,203.9z"/>
		<path class="st0" d="M38.2,174.5c-4.4-2.6-8.7-5.1-13.1-7.4c0.2-0.5,0.4-1,0.6-1.5c0.1-0.5,0.1-1,0.2-1.8
			c1.8,1.7,12.2,8,18.1,11.4c-0.3,0.7-0.6,1.5-0.7,2.2c-0.2,0.8-0.2,1.5-0.3,2.3c-4.8,0.2-10.2,0.6-14.3,0.9v0.1
			c4.1,2.5,8.3,4.9,12.5,7.2c-0.3,0.8-0.6,1.5-0.7,2.3c-0.2,0.8-0.2,1.6-0.4,2.4c-6.9,0.3-19.3,1.4-21.2,1.7
			c0.4-1.2,0.7-2.1,0.9-3.1c0.2-1,0.3-2,0.5-3c5-0.2,10.6-0.5,15-0.8v-0.1c-4.3-2.6-8.8-5-13.1-7.4c0.3-0.8,0.6-1.5,0.7-2.2
			s0.2-1.5,0.3-2.3C28.1,175.2,33.2,175,38.2,174.5L38.2,174.5z"/>
		<path class="st0" d="M40.9,123.6c-3,0.5-5.7,2.1-7.4,5.6c-2.3,4.7-0.8,11.4,7.1,15.2c6,2.9,12.1,1.8,14.9-4
			c0.6-1.3,1.4-3.6,1.3-4.4c-0.5-0.4-1.5-0.9-2.6-1.4c-4.1-2-5.9-2.6-6.6-2.9c0.3-0.5,0.8-1.1,1.5-2.7c0.9-1.8,1.1-2.6,1.3-3.1
			c0.7,0.6,3.8,2.2,6.2,3.4c1.6,0.8,3.6,1.7,4.2,1.9c-0.7,3.7-1.6,7.5-3.3,10.8c-4.2,8.6-12.2,12.4-19.8,8.7
			c-9.5-4.7-11-13.7-6.7-22.6c1.9-3.8,3.9-5.9,6.7-7.9c1.1,1,2.1,2.1,3.3,2.9L40.9,123.6z"/>
		<path class="st0" d="M50.8,118.3c-4.6-3-8.3-5.1-12.4-7.5c0.5-0.5,1.2-1.5,1.9-2.5c0.7-1,1.2-2.1,1.5-2.8c3.9,2.7,7.4,5.1,12,8.1
			l2.3,1.5c4.6,3,8.3,5.1,12.4,7.5c-0.5,0.5-1.2,1.5-1.9,2.5c-0.7,1-1.2,2.1-1.5,2.8c-3.9-2.7-7.4-5.1-12-8.1L50.8,118.3z"/>
		<path class="st0" d="M56.6,107.9c-0.1-2.9,0.8-5.9,2.4-8c2.7-3.5,6.1-4.9,10.1-1.9c2.8,2.2,5.1,4,7.5,5.9c2.1,1.6,2.7,1.2,3.8-0.2
			l0.8,0.6c-0.3,1.8-0.7,2.7-1.4,3.7c-1.2,1.6-2.9,1.9-4.8,1.3c0.6,2.1,0.7,4.1-0.9,6.2c-2.6,3.4-5.9,3-8,1.4
			c-2.9-2.2-2.6-5.1-1.1-8.6c1.9-4.4,1.9-4.9,0.7-5.9c-1.6-1.2-3.8-1-5.3,1c-1.2,1.5-1.6,4-1.2,5.4L59,109L56.6,107.9z M68.2,104.3
			c-0.4,2.7-2.5,5.1,0.9,7.6c1.6,1.2,3.1,1.2,4,0c1.1-1.5,0.7-3.3-1.4-5C69.8,105.5,68.9,104.8,68.2,104.3z"/>
		<path class="st0" d="M74.8,86.7L74.8,86.7c-0.4-2.8,0.1-5.3,2-7.1c1.8-1.8,4.1-2,6.6-0.9c-0.6-3,0.1-5.6,1.8-7.4
			c3-2.9,6.3-2.9,10,0.9c2,2,3.3,3.6,4.8,5.1c1.2,1.3,2.8,2.7,4.4,4.2c-0.6,0.4-1.5,1.2-2.4,2s-1.7,1.8-2.1,2.3
			c-1.8-2.4-4.6-5.3-8.1-8.9c-2.4-2.5-4.5-2.8-6-1.3c-1.9,1.9-0.4,4.3,1,5.7l2.1,2.1c2.4,2.4,4.5,4.5,6.7,6.4
			c-0.6,0.4-1.5,1.1-2.4,2s-1.6,1.8-2.1,2.3c-1.9-2.3-3.9-4.4-6.3-6.9L83,85.4c-2.3-2.4-4.2-3.3-5.8-1.6c-1.8,1.8-1,4.2,1.7,6.9
			l1.2,1.2c2.4,2.4,4.5,4.5,6.7,6.4c-0.6,0.4-1.5,1.1-2.4,2s-1.6,1.8-2.1,2.3c-1.9-2.3-3.9-4.4-6.3-6.9l-1.2-1.2
			c-2.4-2.4-4.5-4.5-6.7-6.4c0.8-0.6,1.5-1.2,2.3-1.9c0.7-0.7,1.3-1.5,2-2.3L74.8,86.7z"/>
		<path class="st0" d="M104,74.9c-3.2-4.4-5.8-7.8-8.8-11.5c0.8-0.5,1.7-1,2.5-1.5c0.8-0.6,1.5-1.2,2.2-1.9c0.5,0.8,1.2,2.1,1.9,3.1
			h0.1c-0.7-2.4,0-5.1,2.4-6.8c3.4-2.5,8.4-2.3,12.6,3.6c4.7,6.4,3.1,11.3-0.2,13.7c-2,1.4-4.2,1.7-6.2,0.7h-0.1
			c2.4,3.2,6.8,9.3,8.2,10.7c-0.6,0.3-1.7,1-2.7,1.7s-1.9,1.5-2.4,2c-2.6-3.9-5-7.5-8.2-11.9L104,74.9z M104.3,59.3
			c-1.7,1.2-1.9,4.2,1.8,9.3c3,4.1,5.5,5.2,7.5,3.8c1.9-1.4,1.6-4.4-1.6-8.8C108.8,59,106.1,58,104.3,59.3z"/>
		<path class="st0" d="M112.6,38c1.6-0.9,3.6-0.4,4.5,1.1c0.9,1.6,0.4,3.6-1.1,4.5c-1.6,0.9-3.6,0.4-4.5-1.1
			C110.5,41,111,39,112.6,38z M120.8,57c-1.7-2.9-3.3-5.4-5-7.8c0.7-0.3,1.7-0.8,2.8-1.4c1.1-0.7,2-1.4,2.6-1.8
			c1.3,2.6,2.7,5.2,4.5,8.1l0.9,1.4c1.7,2.9,3.3,5.4,5,7.8c-0.7,0.3-1.7,0.8-2.8,1.4c-1.1,0.7-2,1.3-2.6,1.8
			c-1.3-2.6-2.7-5.2-4.5-8.1L120.8,57z"/>
		<path class="st0" d="M132.9,43.2L132.9,43.2c0.5-2.7,1.8-4.9,4.2-6.1c3.8-1.8,6.9-0.7,9.2,4.1c1.2,2.6,2,4.4,2.9,6.4
			c0.8,1.6,1.8,3.5,2.8,5.4c-0.7,0.2-1.8,0.6-2.9,1.2c-1.1,0.5-2.1,1.1-2.7,1.5c-1-2.9-2.6-6.5-4.8-11c-1.5-3.1-3.3-4-5.3-3.1
			c-2.3,1.1-2.3,3.7-0.6,7.1l0.7,1.5c1.5,3.1,2.8,5.7,4.3,8.2c-0.7,0.2-1.7,0.6-2.9,1.2s-2.1,1.1-2.7,1.5c-1-2.7-2.3-5.5-3.7-8.5
			l-0.7-1.5c-1.5-3-2.8-5.7-4.3-8.2c0.9-0.4,1.9-0.7,2.8-1.1s1.7-1,2.7-1.5L132.9,43.2z"/>
		<path class="st0" d="M162.8,29.2l-0.1,0.1c1.6,0.5,3,1.7,3.7,3.6c1.4,3.9-0.8,7.6-5.4,9.2c-0.6,0.2-1.1,0.3-1.8,0.6
			c-0.6,0.2-0.9,1.1-0.6,1.8c0.4,1.3,1.7,1.7,3.8,1l2.9-1c4.4-1.5,7-0.6,8.3,3c2.2,6.3-2.8,10.5-7.5,12.1c-4.9,1.7-8.6,0.6-9.7-2.5
			c-0.9-2.5,0.2-4.6,2.2-6.2v-0.1c-1.5-0.1-2.8-0.8-3.3-2.3c-0.6-1.7,0.2-4.1,2.2-5.5v-0.1c-1.7,0.2-3.2-0.1-4.5-0.8
			c-1.2-0.7-2.2-1.9-2.8-3.6c-1.4-4,1.2-7.5,6.2-9.3c0.9-0.3,2-0.6,3-0.9c0.7-0.2,1.4-0.4,2.2-0.7c1.3-0.5,2.7-1,4.2-1.5
			c0.1,0.3,0.1,0.7,0.3,1c0.1,0.3,0.3,0.6,0.4,0.9L162.8,29.2z M155.8,37.1c1.2,3.4,3,4.2,4.2,3.8c1.7-0.6,2.1-2.4,0.8-5.9
			c-1.2-3.6-2.8-4.5-4.2-4C154.8,31.6,154.5,33.7,155.8,37.1z M162.6,49.7c-1.4,0.5-2.2,0.9-2.7,1.4s-1,2.1-0.3,4c1,3,4,3.7,6.8,2.7
			c3-1.1,4.2-3.9,3.3-6.4C168.5,48.3,166.2,48.4,162.6,49.7z"/>
		<path class="st0" d="M187.8,35.7c1.8-0.4,3.7,0.9,4,2.7c0.4,1.8-0.9,3.7-2.7,4s-3.7-0.9-4-2.7S186,36.1,187.8,35.7z"/>
	</g>
</g>
</svg>
