<?xml version="1.0" encoding="utf-8"?>
<!-- Generator: Adobe Illustrator 26.1.0, SVG Export Plug-In . SVG Version: 6.00 Build 0)  -->
<svg version="1.1" id="Layer_1" xmlns="http://www.w3.org/2000/svg" xmlns:xlink="http://www.w3.org/1999/xlink" x="0px" y="0px"
	 width="618.2px" height="858.7px" viewBox="0 0 618.2 858.7" style="enable-background:new 0 0 618.2 858.7;" xml:space="preserve"
	>
<style type="text/css">
	.st0{opacity:0.1;}
	.st1{fill:#2F3D51;}
	.st2{fill:#2F3D51;stroke:#070707;stroke-width:6;stroke-linecap:round;stroke-miterlimit:10;}
</style>
<g class="st0">
	<g>
		<g>
			<g>
				<path class="st1" d="M534.5,249c0.2-0.2,0.5-0.2,0.7-0.2c1.2-0.2,2.4-0.2,3.7-0.2c1.5-0.2,3.2-0.2,4.6-0.5
					c1.7-0.2,3.7-0.5,5.4-0.7c0.5-0.2,1.2-0.2,1.9-0.2c0.2,0,0.2-0.2,0.2-0.2c-1.2-1.7-2.9-3.7-4.4-5.4c-0.7-1-1.7-1.7-2.2-2.7
					l-0.2-0.2c0.2-0.2,0.2,0,0.2,0.2c1,0.5,1.7,1.5,2.4,1.9c1.2,1,2.4,1.9,3.7,2.9c0.7,0.5,1.2,1,2.2,1.7c0.2,0.2,0.2,0.2,0.2-0.2
					c0.2-1.2,0.2-2.7,0.5-3.9c0.2-1.5,0.5-2.9,0.5-4.4c0.2-0.7,0.2-1.7,0.2-2.4c0.2-1,0.2-1.9,0.2-2.9c0-0.7,0.2-1.5,0.2-2.2
					c0-0.2,0-0.2,0.2-0.2c0.2,0.2,0.2,0.5,0.2,1c0.2,1.2,0.2,2.4,0.2,3.7c0.2,1,0.2,1.7,0.2,2.4c0.2,1,0.2,1.7,0.2,2.4
					c0.2,1.2,0.2,2.4,0.5,3.7c0.2,1,0.2,1.9,0.5,2.9c0,0.2,0.2,0.2,0.2,0.2c1.7-1.2,3.4-2.7,5.1-3.9c1-1,1.7-1.7,2.9-2.4l0.2-0.2
					c0.2,0.2,0,0.2-0.2,0.2c-0.5,1-1.5,1.7-1.9,2.4c-1,1.2-1.9,2.4-2.9,3.7c-0.5,0.7-1,1.5-1.7,2.2c-0.2,0.2-0.2,0.2,0.2,0.2
					c1.5,0.2,2.7,0.2,3.9,0.5c1.5,0.2,2.9,0.5,4.4,0.5c0.7,0.2,1.7,0.2,2.4,0.2c1,0.2,1.9,0.2,2.9,0.2c0.7,0,1.5,0.2,2.2,0.2
					c0.2,0,0.2,0,0.2,0.2c-0.2,0.2-0.5,0.2-1,0.2c-1.2,0.2-2.4,0.2-3.7,0.2c-1,0.2-1.7,0.2-2.4,0.2c-1,0.2-1.7,0.2-2.4,0.2
					c-1.2,0.2-2.4,0.2-3.7,0.5c-1,0.2-1.9,0.2-2.9,0.5c-0.2,0-0.2,0.2-0.2,0.2c1.2,1.7,2.7,3.4,3.9,5.1c1,1,1.7,1.7,2.4,2.9l0.2,0.2
					c-0.2,0.2-0.2,0-0.2-0.2c-1-0.5-1.7-1.5-2.4-1.9c-1.2-1-2.4-1.9-3.7-2.9c-0.7-0.5-1.2-1-2.2-1.7c-0.2-0.2-0.2-0.2-0.2,0.2
					c-0.2,1.2-0.2,2.7-0.5,3.9c-0.2,1.5-0.5,2.9-0.5,4.4c-0.2,0.7-0.2,1.7-0.2,2.4c-0.2,1-0.2,1.9-0.2,2.9c0,0.7-0.2,1.5-0.2,2.2
					c0,0.2,0,0.2-0.2,0.2c-0.2-0.2-0.2-0.5-0.2-1c-0.2-1.2-0.2-2.4-0.2-3.7c-0.2-1-0.2-1.7-0.2-2.4c-0.2-1-0.2-1.7-0.2-2.4
					c-0.2-1.2-0.2-2.4-0.5-3.7c-0.2-1-0.2-1.9-0.5-2.9c0-0.2-0.2-0.2-0.2-0.2c-1.7,1.2-3.4,2.7-5.1,3.9c-1,1-1.7,1.7-2.9,2.4
					l-0.2,0.2c-0.2-0.2,0-0.2,0.2-0.2c0.5-1,1.5-1.7,1.9-2.4c1-1.2,1.9-2.4,2.9-3.7c0.5-0.7,1-1.5,1.7-2.2c0.2-0.2,0.2-0.2-0.2-0.2
					c-1.5-0.2-2.7-0.2-3.9-0.5c-1.5-0.2-2.9-0.5-4.4-0.5c-0.7-0.2-1.7-0.2-2.4-0.2c-1-0.2-1.9-0.2-2.9-0.2c-0.7,0-1.5-0.2-2.2-0.2
					C534.5,249,534.5,249,534.5,249z"/>
			</g>
		</g>
		<g>
			<g>
				<path class="st1" d="M421.2,307c0,0.2-0.2,0.2-0.2,0.5c-0.2,0.7-0.5,1.5-0.7,2.2c-0.2,1-0.7,1.9-1,2.9c-0.2,1.2-0.5,2.4-1,3.4
					c-0.2,0.5-0.2,0.7-0.2,1.2c0,0.2,0,0.2,0.2,0.2c1.5-0.2,2.9-0.7,4.4-1.2c0.7-0.2,1.5-0.5,2.2-0.7c0,0,0.2-0.2,0.2,0
					s0,0.2-0.2,0.2c-0.5,0.2-1.2,0.5-1.7,1c-1,0.5-1.7,1-2.9,1.5c-0.5,0.2-1,0.5-1.5,1c-0.2,0.2-0.2,0.2,0,0.2
					c0.7,0.5,1.5,1,2.2,1.2c1,0.5,1.7,1,2.4,1.5c0.5,0.2,1,0.5,1.2,0.7c0.5,0.2,1.2,0.5,1.7,1c0.5,0.2,1,0.5,1.2,0.7
					c0,0,0.2,0,0.2,0.2c-0.2,0-0.5-0.2-0.5-0.2c-0.7-0.2-1.7-0.5-2.4-0.7c-0.5-0.2-1-0.5-1.7-0.5s-1.2-0.2-1.7-0.5
					c-0.7-0.2-1.5-0.5-2.4-0.5c-0.5-0.2-1.2-0.2-1.9-0.5c-0.2,0-0.2,0-0.2,0.2c0.2,1.5,0.7,2.9,1.2,4.4c0.2,0.7,0.5,1.7,0.7,2.4
					c0,0,0.2,0.2,0,0.2s-0.2,0-0.2-0.2c-0.2-0.5-0.5-1.2-1-1.7c-0.5-1-1-1.7-1.5-2.9c-0.2-0.5-0.5-1-1-1.5c-0.2-0.2-0.2-0.2-0.2,0
					c-0.5,0.7-1,1.5-1.2,2.2c-0.5,1-1,1.7-1.5,2.4c-0.2,0.5-0.5,1-0.7,1.5c-0.2,0.5-0.5,1.2-1,1.7c-0.2,0.5-0.5,1-0.7,1.2
					c0,0,0,0.2-0.2,0.2c0-0.2,0.2-0.5,0.2-0.5c0.2-0.7,0.5-1.7,0.7-2.4c0.2-0.5,0.5-1,0.5-1.7s0.2-1.2,0.5-1.7
					c0.2-0.7,0.5-1.5,0.5-2.4c0.2-0.5,0.2-1.2,0.5-1.9c0-0.2,0-0.2-0.2-0.2c-1.5,0.2-2.9,0.7-4.4,1.2c-0.7,0.2-1.7,0.5-2.4,0.7
					c0,0-0.2,0.2-0.2,0s0-0.2,0.2-0.2c0.5-0.2,1.2-0.5,1.7-1c1-0.5,1.7-1,2.9-1.5c0.5-0.2,1-0.5,1.5-1c0.2-0.2,0.2-0.2,0-0.2
					c-0.7-0.5-1.5-1-2.2-1.2c-1-0.5-1.7-1-2.4-1.5c-0.5-0.2-1-0.5-1.5-0.7c-0.5-0.2-1.2-0.5-1.7-1c-0.5-0.2-1-0.5-1.2-0.7
					c0,0-0.2,0-0.2-0.2c0.2,0,0.5,0.2,0.5,0.2c0.7,0.2,1.7,0.5,2.4,0.7c0.5,0.2,1,0.5,1.7,0.5c0.5,0.2,1.2,0.2,1.7,0.5
					c0.7,0.2,1.5,0.5,2.4,0.5c0.5,0.2,1.2,0.2,1.9,0.5c0.2,0,0.2,0,0.2-0.2c-0.2-1.5-0.7-2.9-1.2-4.4c-0.2-0.7-0.5-1.7-0.7-2.4
					c0,0-0.2-0.2,0-0.2s0.2,0,0.2,0.2c0.2,0.5,0.5,1.2,1,1.7c0.5,1,1,1.7,1.5,2.9c0.2,0.5,0.5,1,1,1.5c0.2,0.2,0.2,0.2,0.2,0
					c0.5-0.7,1-1.5,1.2-2.2c0.5-1,1-1.7,1.5-2.4c0.2-0.5,0.5-1,0.7-1.2c0.2-0.5,0.5-1.2,1-1.7C420.5,307.8,420.7,307.3,421.2,307
					C420.9,307,420.9,307,421.2,307z"/>
			</g>
		</g>
		<g>
			<g>
				<path class="st1" d="M688.9,307c0,0.2,0.2,0.2,0.2,0.5c0.2,0.7,0.5,1.5,0.7,2.2c0.2,1,0.7,1.9,1,2.9c0.2,1.2,0.5,2.4,1,3.4
					c0.2,0.5,0.2,0.7,0.2,1.2c0,0.2,0,0.2-0.2,0.2c-1.5-0.2-2.9-0.7-4.4-1.2c-0.7-0.2-1.5-0.5-2.2-0.7c0,0-0.2-0.2-0.2,0
					s0,0.2,0.2,0.2c0.5,0.2,1.2,0.5,1.7,1c1,0.5,1.7,1,2.9,1.5c0.5,0.2,1,0.5,1.5,1c0.2,0.2,0.2,0.2,0,0.2c-0.7,0.5-1.5,1-2.2,1.2
					c-1,0.5-1.7,1-2.4,1.5c-0.5,0.2-1,0.5-1.5,0.7c-0.5,0.2-1.2,0.5-1.7,1c-0.5,0.2-1,0.5-1.2,0.7c0,0-0.2,0-0.2,0.2
					c0.2,0,0.5-0.2,0.5-0.2c0.7-0.2,1.7-0.5,2.4-0.7c0.5-0.2,1-0.5,1.7-0.5c0.5-0.2,1.2-0.2,1.7-0.5c0.7-0.2,1.5-0.5,2.4-0.5
					c0.5-0.2,1.2-0.2,1.9-0.5c0.2,0,0.2,0,0.2,0.2c-0.2,1.5-0.7,2.9-1.2,4.4c-0.2,0.7-0.5,1.7-0.7,2.4c0,0-0.2,0.2,0,0.2
					s0.2,0,0.2-0.2c0.2-0.5,0.5-1.2,1-1.7c0.5-1,1-1.7,1.5-2.9c0.2-0.5,0.5-1,1-1.5c0.2-0.2,0.2-0.2,0.2,0c0.5,0.7,1,1.5,1.2,2.2
					c0.5,1,1,1.7,1.5,2.4c0.2,0.5,0.5,1,0.7,1.5s0.5,1.2,1,1.7c0.2,0.5,0.5,1,0.7,1.2c0,0,0,0.2,0.2,0.2c0-0.2-0.2-0.5-0.2-0.5
					c-0.2-0.7-0.5-1.7-0.7-2.4c-0.2-0.5-0.5-1-0.5-1.7c-0.2-0.5-0.2-1.2-0.5-1.7c-0.2-0.7-0.5-1.5-0.5-2.4c-0.2-0.5-0.2-1.2-0.5-1.9
					c0-0.2,0-0.2,0.2-0.2c1.5,0.2,2.9,0.7,4.4,1.2c0.7,0.2,1.7,0.5,2.4,0.7c0,0,0.2,0.2,0.2,0s0-0.2-0.2-0.2c-0.5-0.2-1.2-0.5-1.7-1
					c-1-0.5-1.7-1-2.9-1.5c-0.5-0.2-1-0.5-1.5-1c-0.2-0.2-0.2-0.2,0-0.2c0.7-0.5,1.5-1,2.2-1.2c1-0.5,1.7-1,2.4-1.5
					c0.5-0.2,1-0.5,1.5-0.7c0.5-0.2,1.2-0.5,1.7-1c0.5-0.2,1-0.5,1.2-0.7c0,0,0.2,0,0.2-0.2c-0.2,0-0.5,0.2-0.5,0.2
					c-0.7,0.2-1.7,0.5-2.4,0.7c-0.5,0.2-1,0.5-1.7,0.5c-0.5,0.2-1.2,0.2-1.7,0.5c-0.7,0.2-1.5,0.5-2.4,0.5c-0.5,0.2-1.2,0.2-1.9,0.5
					c-0.2,0-0.2,0-0.2-0.2c0.2-1.5,0.7-2.9,1.2-4.4c0.2-0.7,0.5-1.7,0.7-2.4c0,0,0.2-0.2,0-0.2c-0.2,0-0.2,0-0.2,0.2
					c-0.2,0.5-0.5,1.2-1,1.7c-0.5,1-1,1.7-1.5,2.9c-0.2,0.5-0.5,1-1,1.5c-0.2,0.2-0.2,0.2-0.2,0c-0.5-0.7-1-1.5-1.2-2.2
					c-0.5-1-1-1.7-1.5-2.4c-0.2-0.5-0.5-1-0.7-1.2c-0.2-0.5-0.5-1.2-1-1.7C689.4,307.8,689.4,307.3,688.9,307
					C689.2,307,689.2,307,688.9,307z"/>
			</g>
		</g>
		<g>
			<path class="st1" d="M633.6,227.4c0,0.2,0,0.2,0,0.2c0,0.2,0,0.2,0,0.5s0,0.2,0,0.2c0,0.2,0,0.2,0,0.5c0,0.5,0.2,1,0.2,1.2
				s0.2,0.5,0.2,0.5c0.2,0.5,0.2,0.7,0.5,1s0.7,0.5,1,1c0.2,0.2,0.5,0.2,0.7,0.2c0.2,0.2,0.7,0.2,1,0.2c0.2,0,0.5,0.2,0.5,0.2
				c0.2,0,0.2,0,0.2,0c0.2,0,0.2,0,0.2,0h0.2h0.2l0,0l0,0c-0.2,0-0.2,0-0.5,0c-0.2,0-0.2,0-0.5,0c-0.2,0-0.2,0-0.2,0
				c-0.2,0-0.5,0-0.5,0.2c-0.5,0-0.7,0.2-1.2,0.2c-0.5,0.2-1,0.2-1.5,0.7c-0.2,0.2-0.5,0.5-0.7,0.7c-0.2,0.2-0.5,0.7-0.5,1.2
				c-0.2,0.5-0.2,0.7-0.2,1.2c0,0.2,0,0.5-0.2,0.5c0,0.2,0,0.2,0,0.5s0,0.2,0,0.5s0,0.2,0,0.2l0,0l0,0c0-0.2,0-0.5,0-0.7
				s0-0.2,0-0.2c0-0.2,0-0.5-0.2-0.5c0-0.5-0.2-0.7-0.2-1.2c-0.2-0.5-0.2-1-0.7-1.5c-0.2-0.2-0.5-0.5-0.7-0.7
				c-0.2-0.2-0.7-0.5-1.2-0.5c-0.5-0.2-0.7-0.2-1.2-0.2c-0.2,0-0.5,0-0.5-0.2c-0.2,0-0.2,0-0.2,0h-0.2c-0.2,0-0.2,0-0.2,0h-0.2l0,0
				l0,0c0.2,0,0.2,0,0.2,0c0.2,0,0.2,0,0.5,0c0.2,0,0.2,0,0.2,0s0.2,0,0.5,0c0.5,0,1-0.2,1.5-0.2c0.2,0,0.2-0.2,0.5-0.2
				c0.5-0.2,0.7-0.2,1-0.5c0.2-0.2,0.5-0.5,0.7-1c0.2-0.2,0.5-0.7,0.5-1.2c0.2-0.2,0.2-0.7,0.2-1s0-0.5,0.2-0.5c0-0.2,0-0.2,0-0.2
				c0-0.2,0-0.2,0-0.2c0-0.2,0-0.2,0-0.2C633.6,227.6,633.6,227.6,633.6,227.4L633.6,227.4z"/>
		</g>
		<g>
			<path class="st1" d="M715.3,369.2c-0.2,0.2-0.2,0.2-0.2,0.2c-0.2,0.2-0.2,0.2-0.2,0.5c0,0.2-0.2,0.2-0.2,0.2
				c-0.2,0.2-0.2,0.2-0.2,0.5c-0.2,0.5-0.5,1-0.7,1.2c-0.2,0.2-0.2,0.5-0.2,0.5c-0.2,0.5-0.2,1-0.2,1.2c0,0.5,0.2,1,0.2,1.5
				c0.2,0.2,0.2,0.5,0.5,0.7c0.2,0.2,0.5,0.5,0.7,1c0.2,0.2,0.2,0.2,0.5,0.5c0.2,0.2,0.2,0.2,0.2,0.2c0.2,0.2,0.2,0.2,0.2,0.2
				c0.2,0.2,0.2,0.2,0.2,0.2l0.2,0.2l0,0l0,0c-0.2-0.2-0.2-0.2-0.5-0.2c-0.2-0.2-0.2-0.2-0.2-0.2c-0.2,0-0.2-0.2-0.2-0.2
				c-0.2-0.2-0.2-0.2-0.5-0.2c-0.5-0.2-0.7-0.5-1.2-0.5c-0.5-0.2-1.2-0.5-1.7-0.5s-0.7,0-1.2,0.2s-1,0.2-1.2,0.5
				c-0.2,0.2-0.7,0.5-1,0.7c-0.2,0.2-0.2,0.2-0.5,0.5c-0.2,0.2-0.2,0.2-0.2,0.2c-0.2,0.2-0.2,0.2-0.5,0.5l-0.2,0.2l0,0l0,0
				c0.2-0.2,0.2-0.5,0.5-0.7c0-0.2,0.2-0.2,0.2-0.2c0.2-0.2,0.2-0.2,0.2-0.5c0.2-0.5,0.5-0.7,0.5-1.2c0.2-0.5,0.5-1.2,0.5-1.7
				c0-0.5,0-0.7-0.2-1.2s-0.2-1-0.5-1.2c-0.2-0.2-0.5-0.7-0.7-1c-0.2-0.2-0.2-0.2-0.5-0.5l-0.2-0.2c-0.2-0.2-0.2-0.2-0.2-0.2
				c-0.2-0.2-0.2-0.2-0.2-0.2l-0.2-0.2l0,0l0,0c0.2,0.2,0.2,0.2,0.2,0.2c0.2,0.2,0.2,0.2,0.5,0.2c0.2,0,0.2,0.2,0.2,0.2
				c0.2,0.2,0.2,0.2,0.5,0.2c0.5,0.2,1,0.5,1.2,0.7c0.2,0.2,0.2,0.2,0.5,0.2c0.5,0.2,1,0.2,1.2,0.2s0.7,0,1.2-0.2
				c0.5-0.2,1-0.2,1.2-0.5c0.2-0.2,0.5-0.5,1-0.7c0.2-0.2,0.2-0.2,0.5-0.5l0.2-0.2c0.2-0.2,0.2-0.2,0.2-0.2l0.2-0.2
				C715,369.2,715,369.2,715.3,369.2L715.3,369.2z"/>
		</g>
		<g>
			<path class="st1" d="M445.8,241.2c0,0.2-0.2,0.2-0.2,0.2c0,0.2-0.2,0.2-0.2,0.2l-0.2,0.2c-0.2,0.2-0.2,0.2-0.2,0.2
				c-0.2,0.2-0.2,0.5-0.5,1c-0.2,0.2-0.2,0.2-0.2,0.5c-0.2,0.2-0.2,0.5-0.2,1c0,0.5,0.2,0.7,0.2,1c0.2,0.2,0.2,0.5,0.2,0.5
				c0.2,0.2,0.2,0.5,0.5,0.7c0.2,0.2,0.2,0.2,0.2,0.5l0.2,0.2l0.2,0.2l0.2,0.2c0,0,0,0.2,0.2,0.2l0,0l0,0c-0.2-0.2-0.2-0.2-0.2-0.2
				c-0.2,0-0.2-0.2-0.2-0.2l-0.2-0.2c-0.2-0.2-0.2-0.2-0.5-0.2c-0.2-0.2-0.5-0.2-1-0.5c-0.5-0.2-1-0.2-1.5-0.2c-0.2,0-0.5,0-1,0.2
				c-0.2,0.2-0.5,0.2-1,0.5c-0.2,0.2-0.5,0.5-0.7,0.5c-0.2,0.2-0.2,0.2-0.2,0.2l-0.2,0.2c-0.2,0.2-0.2,0.2-0.2,0.2l-0.2,0.2l0,0l0,0
				c0.2-0.2,0.2-0.2,0.2-0.5s0.2-0.2,0.2-0.2c0.2-0.2,0.2-0.2,0.2-0.5c0.2-0.2,0.2-0.5,0.5-1c0.2-0.5,0.2-1,0.2-1.2s0-0.5-0.2-1
				c-0.2-0.2-0.2-0.5-0.5-1c-0.2-0.2-0.5-0.5-0.5-0.7c-0.2-0.2-0.2-0.2-0.2-0.2l-0.2-0.2l-0.2-0.2l-0.2-0.2l-0.2-0.2l0,0l0,0
				c0.2,0,0.2,0.2,0.2,0.2c0.2,0,0.2,0.2,0.2,0.2l0.2,0.2c0.2,0.2,0.2,0.2,0.2,0.2c0.2,0.2,0.5,0.2,1,0.5c0.2,0,0.2,0.2,0.2,0.2
				c0.2,0.2,0.5,0.2,1,0.2c0.5,0,0.5,0,1-0.2c0.2-0.2,0.5-0.2,1-0.5c0.5-0.2,0.5-0.2,0.7-0.5c0.2-0.2,0.2-0.2,0.5-0.2l0.2-0.2
				l0.2-0.2l0.2-0.2C445.6,241.5,445.8,241.2,445.8,241.2L445.8,241.2z"/>
		</g>
		<g>
			<path class="st1" d="M523.5,220.5c-0.2,0-0.2,0-0.2,0.2c-0.2,0-0.2,0.2-0.5,0.2c-0.2,0-0.2,0-0.2,0.2c-0.2,0-0.2,0.2-0.5,0.2
				c-0.5,0.2-0.7,0.2-1.2,0.5c-0.2,0.2-0.2,0.2-0.5,0.2c-0.2,0.2-0.5,0.5-1,0.7s-0.5,0.7-0.5,1.2c0,0.2-0.2,0.5-0.2,0.7
				c0,0.2,0,0.7,0,1s0,0.5,0,0.5c0,0.2,0,0.2,0,0.2c0,0.2,0,0.2,0,0.2c0,0.2,0,0.2,0,0.2v0.2l0,0l0,0c0-0.2-0.2-0.2-0.2-0.5
				s-0.2-0.2-0.2-0.2c0-0.2,0-0.2-0.2-0.2c0-0.2-0.2-0.2-0.2-0.5c-0.2-0.2-0.2-0.7-0.5-1c-0.2-0.5-0.5-1-1-1.5
				c-0.2-0.2-0.5-0.5-1-0.5c-0.5-0.2-0.7-0.2-1.2-0.2s-0.7,0-1.2,0c-0.2,0-0.5,0-0.5,0h-0.2c-0.2,0-0.2,0-0.5,0h-0.2l0,0l0,0
				c0.2,0,0.5-0.2,0.7-0.2s0.2,0,0.2-0.2c0.2,0,0.2-0.2,0.5-0.2c0.2-0.2,0.7-0.2,1-0.5c0.5-0.2,1-0.5,1.5-1c0.2-0.2,0.5-0.5,0.5-1
				c0.2-0.5,0.2-0.7,0.2-1.2s0-0.7,0-1.2c0-0.2,0-0.5,0-0.5v-0.2c0-0.2,0-0.2,0-0.2c0-0.2,0-0.2,0-0.2v-0.2l0,0l0,0
				c0,0.2,0,0.2,0.2,0.2c0,0.2,0.2,0.2,0.2,0.5s0,0.2,0.2,0.2c0,0.2,0.2,0.2,0.2,0.5c0.2,0.5,0.2,0.7,0.5,1.2c0,0.2,0.2,0.2,0.2,0.5
				c0.2,0.2,0.5,0.5,0.7,1c0.2,0.2,0.5,0.5,1,0.5c0.5,0.2,0.7,0.2,1.2,0.2c0.2,0,0.7,0,1,0c0.2,0,0.5,0,0.5,0c0.2,0,0.2,0,0.2,0h0.2
				c0.2,0,0.2,0,0.2,0C523.3,220.5,523.3,220.5,523.5,220.5L523.5,220.5z"/>
		</g>
		<g>
			<path class="st1" d="M622.9,311.2c-0.2,0-0.2,0-0.2,0.2c-0.2,0-0.2,0-0.2,0.2h-0.2c-0.2,0-0.2,0.2-0.5,0.2
				c-0.2,0.2-0.5,0.2-1,0.5c-0.2,0-0.2,0.2-0.5,0.2c-0.2,0.2-0.5,0.5-0.7,0.5c-0.2,0.2-0.2,0.5-0.5,1c0,0.2-0.2,0.5-0.2,0.5
				c0,0.2,0,0.5,0,1c0,0.2,0,0.2,0,0.5s0,0.2,0,0.2c0,0.2,0,0.2,0,0.2c0,0.2,0,0.2,0,0.2v0.2l0,0l0,0c0-0.2,0-0.2-0.2-0.2
				c0-0.2,0-0.2-0.2-0.2v-0.2c0-0.2-0.2-0.2-0.2-0.5c-0.2-0.2-0.2-0.5-0.5-1c-0.2-0.5-0.5-0.7-0.7-1s-0.5-0.2-0.7-0.5
				s-0.5-0.2-1-0.2c-0.2,0-0.5,0-1,0c-0.2,0-0.2,0-0.5,0s-0.2,0-0.2,0c-0.2,0-0.2,0-0.5,0h0.5l0,0l0,0c0.2,0,0.5-0.2,0.5-0.2
				c0.2,0,0.2,0,0.2-0.2c0.2,0,0.2-0.2,0.5-0.2c0.2-0.2,0.5-0.2,1-0.5s0.7-0.5,1-0.7c0.2-0.2,0.2-0.5,0.5-0.7c0.2-0.2,0.2-0.5,0.2-1
				c0-0.2,0-0.5,0-1c0-0.2,0-0.2,0-0.5v-0.2c0-0.2,0-0.2,0-0.2c0-0.2,0-0.2,0-0.2V307l0,0l0,0c0,0.2,0,0.2,0.2,0.2
				c0,0.2,0,0.2,0.2,0.2v0.2c0,0.2,0.2,0.2,0.2,0.5c0.2,0.2,0.2,0.5,0.5,1c0,0.2,0.2,0.2,0.2,0.2c0.2,0.2,0.5,0.5,0.5,0.7
				c0.2,0.2,0.5,0.2,0.7,0.5s0.5,0.2,1,0.2c0.2,0,0.5,0,1,0c0.2,0,0.2,0,0.5,0h0.2c0.2,0,0.2,0,0.2,0h0.2
				C622.4,311.4,622.7,311.2,622.9,311.2L622.9,311.2z"/>
		</g>
		<g>
			<path class="st1" d="M355.9,355.8c-0.2,0-0.2,0-0.2,0.2c-0.2,0-0.2,0-0.2,0.2h-0.2c-0.2,0-0.2,0.2-0.5,0.2
				c-0.2,0.2-0.5,0.2-1,0.5c-0.2,0-0.2,0.2-0.5,0.2c-0.2,0.2-0.5,0.5-0.7,0.5c-0.2,0.2-0.2,0.5-0.5,1c0,0.2-0.2,0.5-0.2,0.7
				c0,0.2,0,0.5,0,1c0,0.2,0,0.2,0,0.5s0,0.2,0,0.2c0,0.2,0,0.2,0,0.2v0.2v0.2l0,0l0,0c0-0.2,0-0.2-0.2-0.2c0-0.2,0-0.2-0.2-0.2
				v-0.2c0-0.2-0.2-0.2-0.2-0.5c-0.2-0.2-0.2-0.5-0.5-1c-0.2-0.5-0.5-0.7-1-1c-0.2-0.2-0.5-0.2-0.7-0.5c-0.2-0.2-0.5-0.2-1-0.2
				c-0.2,0-0.5,0-1,0c-0.2,0-0.2,0-0.5,0s-0.2,0-0.2,0c-0.2,0-0.2,0-0.5,0h-0.2l0,0l0,0c0.2,0,0.5-0.2,0.5-0.2c0.2,0,0.2,0,0.2-0.2
				c0.2,0,0.2-0.2,0.5-0.2c0.2-0.2,0.5-0.2,1-0.5c0.5-0.2,0.7-0.5,1-1c0.2-0.2,0.2-0.5,0.5-0.7c0.2-0.2,0.2-0.5,0.2-1
				c0-0.2,0-0.5,0-1c0-0.2,0-0.2,0-0.5v-0.2c0-0.2,0-0.2,0-0.2c0-0.2,0-0.2,0-0.2v-0.2l0,0l0,0c0,0.2,0,0.2,0.2,0.2
				c0,0.2,0,0.2,0.2,0.2v0.2c0,0.2,0.2,0.2,0.2,0.5c0.2,0.2,0.2,0.5,0.5,1c0,0.2,0.2,0.2,0.2,0.2c0.2,0.2,0.5,0.5,0.5,0.7
				c0.2,0.2,0.5,0.2,0.7,0.5c0.2,0.2,0.5,0.2,1,0.2c0.2,0,0.5,0,1,0c0.2,0,0.2,0,0.5,0h0.2c0.2,0,0.2,0,0.2,0h0.2
				C355.7,355.8,355.7,355.8,355.9,355.8L355.9,355.8z"/>
		</g>
		<g>
			<path class="st1" d="M509.6,308.7c-0.2,0-0.2,0-0.2-0.2c-0.2,0-0.2,0-0.5-0.2c-0.2,0-0.2,0-0.2,0c-0.2,0-0.2,0-0.5-0.2
				c-0.5,0-0.7-0.2-1.2-0.2c-0.2,0-0.2,0-0.5,0c-0.2,0-0.7,0.2-1,0.2c-0.5,0.2-0.7,0.5-1,0.7c-0.2,0.2-0.2,0.5-0.5,0.5
				c-0.2,0.2-0.2,0.5-0.5,1c-0.2,0.2-0.2,0.2-0.2,0.5s-0.2,0.2-0.2,0.2c0,0.2-0.2,0.2-0.2,0.2c0,0.2-0.2,0.2-0.2,0.2v0.2l0,0l0,0
				c0-0.2,0-0.2,0.2-0.5c0-0.2,0-0.2,0.2-0.2c0-0.2,0-0.2,0-0.2c0-0.2,0-0.2,0.2-0.5c0-0.2,0.2-0.7,0.2-1c0-0.5,0-1-0.2-1.5
				c-0.2-0.2-0.2-0.5-0.5-1c-0.2-0.2-0.5-0.5-1-0.7c-0.2-0.2-0.5-0.2-1-0.5c-0.2-0.2-0.2-0.2-0.5-0.2c-0.2,0-0.2-0.2-0.2-0.2
				s-0.2-0.2-0.5-0.2h-0.2l0,0l0,0c0.2,0,0.5,0.2,0.7,0.2c0.2,0,0.2,0,0.2,0s0.2,0,0.5,0.2c0.2,0,0.7,0.2,1,0.2c0.5,0,1,0,1.5-0.2
				c0.2-0.2,0.5-0.2,1-0.5c0.2-0.2,0.5-0.5,0.7-1c0.2-0.2,0.2-0.5,0.5-1c0.2-0.2,0.2-0.2,0.2-0.5s0-0.2,0.2-0.2
				c0-0.2,0.2-0.2,0.2-0.2c0-0.2,0.2-0.2,0.2-0.2v-0.2l0,0l0,0c0,0.2,0,0.2-0.2,0.2c0,0.2,0,0.2-0.2,0.5c0,0.2,0,0.2,0,0.2
				c0,0.2,0,0.2-0.2,0.5c0,0.5-0.2,0.7-0.2,1.2c0,0.2,0,0.2,0,0.5s0.2,0.7,0.2,1c0.2,0.2,0.2,0.5,0.5,1c0.2,0.2,0.5,0.5,1,0.7
				c0.2,0.2,0.5,0.2,1,0.5c0.2,0.2,0.2,0.2,0.5,0.2c0,0,0.2,0,0.2,0.2c0.2,0,0.2,0.2,0.2,0.2C509.6,308.5,509.6,308.5,509.6,308.7
				C509.4,308.7,509.6,308.7,509.6,308.7L509.6,308.7z"/>
		</g>
		<g>
			<path class="st1" d="M699.7,278.3c-0.2,0-0.2,0-0.2,0.2c-0.2,0-0.2,0.2-0.5,0.2c-0.2,0-0.2,0-0.2,0c-0.2,0-0.2,0.2-0.5,0.2
				c-0.2,0.2-0.7,0.2-1,0.5c-0.2,0-0.2,0.2-0.5,0.2c-0.2,0.2-0.5,0.5-0.7,0.7c-0.2,0.2-0.5,0.7-0.5,1.2c0,0.2-0.2,0.5-0.2,0.7
				c0,0.2,0,0.5,0,1c0,0.2,0,0.2,0,0.5s0,0.2,0,0.2c0,0.2,0,0.2,0,0.2c0,0.2,0,0.2,0,0.2v0.2l0,0l0,0c0-0.2-0.2-0.2-0.2-0.5
				s-0.2-0.2-0.2-0.2c0-0.2,0-0.2,0-0.2c0-0.2-0.2-0.2-0.2-0.5c-0.2-0.2-0.2-0.5-0.5-1c-0.2-0.5-0.5-1-1-1.2c-0.2-0.2-0.5-0.2-1-0.5
				c-0.2-0.2-0.7-0.2-1-0.2c-0.2,0-0.7,0-1,0c-0.2,0-0.2,0-0.5,0c-0.2,0-0.2,0-0.2,0c-0.2,0-0.2,0-0.5,0h-0.2l0,0l0,0
				c0.2,0,0.5-0.2,0.5-0.2c0.2,0,0.2,0,0.2-0.2c0.2,0,0.2-0.2,0.5-0.2c0.2-0.2,0.5-0.2,1-0.5s1-0.5,1.2-1c0.2-0.2,0.2-0.5,0.5-1
				c0.2-0.5,0.2-0.7,0.2-1s0-0.7,0-1s0-0.2,0-0.5s0-0.2,0-0.2c0-0.2,0-0.2,0-0.2c0-0.2,0-0.2,0-0.2v-0.2l0,0l0,0
				c0,0.2,0,0.2,0.2,0.2c0,0.2,0.2,0.2,0.2,0.2c0,0.2,0,0.2,0.2,0.2c0,0.2,0.2,0.2,0.2,0.5c0.2,0.2,0.2,0.7,0.5,1
				c0,0.2,0.2,0.2,0.2,0.5c0.2,0.2,0.5,0.5,0.7,0.7c0.2,0.2,0.5,0.2,1,0.5c0.2,0.2,0.7,0.2,1,0.2c0.2,0,0.5,0,1,0c0.2,0,0.2,0,0.5,0
				h0.2c0.2,0,0.2,0,0.2,0h0.2C699.4,278.3,699.4,278.3,699.7,278.3L699.7,278.3z"/>
		</g>
		<g>
			<g>
				<path class="st1" d="M555.4,315.8L555.4,315.8L555.4,315.8c-0.2,0-0.2,0-0.2,0C555.2,315.8,555.2,315.8,555.4,315.8L555.4,315.8
					z"/>
			</g>
			<g>
				<path class="st1" d="M555.4,315.8L555.4,315.8L555.4,315.8L555.4,315.8z"/>
			</g>
		</g>
		<g>
			<path class="st1" d="M554.9,185.5c-133.8,0-242.4,108.9-242.4,242.4c0,16.6,1.7,32.6,4.9,48.5c0.5,3.2,1.2,6.3,2.2,9.7
				c1.7,6.8,3.7,13.6,5.8,20c1.5,4.4,3.2,9,4.9,13.2c4.9,11.7,10.2,22.7,16.6,33.1c2.2,3.7,4.4,7.3,6.8,11
				c5.6,8.3,11.9,16.3,18.5,23.9c2.2,2.4,4.4,5.1,6.8,7.6c5.8,6.1,12.2,12.2,18.5,17.5c3.7,3.2,7.3,6.1,11,9
				c40.7,30.7,91.4,49.2,146.2,49.2s105.5-18.3,146.2-49.2c3.9-2.9,7.6-5.8,11.2-9c6.6-5.6,12.7-11.5,18.5-17.5
				c2.4-2.4,4.6-4.9,6.8-7.6c6.6-7.6,12.7-15.6,18.3-23.6c2.4-3.4,4.6-7.1,6.8-10.7c6.3-10.5,11.9-21.4,16.6-32.9
				c1.7-4.4,3.7-9,5.1-13.4c2.2-6.8,4.4-13.4,5.8-20.5c0.7-3.2,1.5-6.3,2.2-9.7c3.2-15.6,4.9-31.9,4.9-48.5
				C797.4,294.1,688.7,185.5,554.9,185.5z M554.9,660.5c-38,0-74.1-9.3-106-25.3c2.2,0.2,4.9,0.5,7.6,0.5c13.6,0,21-4.1,27-7.8
				c5.8-3.7,11.2-6.6,22.2-6.6s16.3,3.2,22.2,6.6c6.3,3.7,13.4,7.8,27,7.8s21-4.1,27-7.8c5.8-3.7,11.2-6.6,22.2-6.6
				c11,0,16.3,3.2,22.2,6.6c6.3,3.7,13.6,7.8,27,7.8c2.4,0,4.6-0.2,6.8-0.2C629,651.3,593,660.5,554.9,660.5z M697.5,611.6
				c-10,1-15.8,4.4-21.2,7.6c-5.8,3.7-11.2,6.6-22.2,6.6c-11,0-16.3-2.9-22.2-6.6c-6.3-3.7-13.4-7.8-27-7.8c-13.6,0-21,4.1-27,7.8
				c-5.8,3.7-11.2,6.6-22.2,6.6s-16.3-2.9-22.2-6.6c-6.3-3.7-13.4-7.8-27-7.8s-21,4.1-27,7.8c-5.8,3.7-11.2,6.6-22.2,6.6
				c-11,0-16.3-2.9-22.2-6.6c-5.6-3.2-11.7-6.8-21.9-7.8c-8.5-6.8-16.8-13.9-24.4-21.9c4.9-2.7,10.2-4.9,19.2-4.9
				c11,0,16.3,3.2,22.2,6.6c6.3,3.7,13.6,7.8,27,7.8c13.6,0,21-4.1,27-7.8c5.8-3.7,11.2-6.6,22.2-6.6s16.3,3.2,22.2,6.6
				c6.3,3.7,13.4,7.8,27,7.8s21-4.1,27-7.8c5.8-3.7,11.2-6.6,22.2-6.6c11,0,16.3,3.2,22.2,6.6c6.3,3.7,13.6,7.8,27,7.8
				c13.6,0,21-4.1,27-7.8c5.8-3.7,11.2-6.6,22.2-6.6c9,0,13.9,1.9,18.8,4.6C714.5,597.4,706.2,605,697.5,611.6z M728.9,582.3
				c-5.8-3.4-12.9-7.1-25.6-7.1c-13.6,0-21,4.1-27,7.8c-5.8,3.7-11.2,6.6-22.2,6.6s-16.3-3.2-22.2-6.6c-6.3-3.7-13.4-7.8-27-7.8
				s-21,4.1-27,7.8c-5.8,3.7-11.2,6.6-22.2,6.6s-16.3-3.2-22.2-6.6c-6.3-3.7-13.4-7.8-27-7.8c-13.6,0-21,4.1-27,7.8
				c-5.8,3.7-11.2,6.6-22.2,6.6c-11,0-16.3-3.2-22.2-6.6c-6.3-3.7-13.4-7.8-27-7.8c-12.9,0-20,3.7-26.1,7.3
				c-5.6-6.3-11-12.9-15.8-19.7c9-1.2,14.4-4.4,19.5-7.6c5.8-3.7,11.2-6.6,22.2-6.6s16.3,2.9,22.2,6.6c6.3,3.7,13.6,7.8,27,7.8
				c13.6,0,21-4.1,27-7.8c5.8-3.7,11.2-6.6,22.2-6.6c11,0,16.3,2.9,22.2,6.6c6.3,3.7,13.4,7.8,27,7.8s21-4.1,27-7.8
				c5.8-3.7,11.2-6.6,22.2-6.6s16.3,2.9,22.2,6.6c6.3,3.7,13.6,7.8,27,7.8c13.6,0,21-4.1,27-7.8c5.8-3.7,11.2-6.6,22.2-6.6
				c11,0,16.3,2.9,22.2,6.6c4.9,2.9,10.2,6.1,19,7.3C739.6,569.4,734.5,576,728.9,582.3z M750.8,553.6c-9.7-0.2-14.6-3.2-20.2-6.6
				c-6.3-3.7-13.4-7.8-27-7.8s-21,4.1-27,7.8c-5.8,3.7-11.2,6.6-22.2,6.6s-16.3-3.2-22.2-6.6c-6.3-3.7-13.4-7.8-27-7.8
				s-21,4.1-27,7.8c-5.8,3.7-11.2,6.6-22.2,6.6c-11,0-16.3-3.2-22.2-6.6c-6.3-3.7-13.4-7.8-27-7.8c-13.6,0-21,4.1-27,7.8
				c-5.8,3.7-11.2,6.6-22.2,6.6c-11,0-16.3-3.2-22.2-6.6c-6.3-3.7-13.4-7.8-27-7.8c-13.6,0-21,4.1-27,7.8c-5.8,3.4-10.7,6.3-21,6.6
				c-5.8-9-11-18.5-15.6-28.3c3.9,1.2,8.5,1.9,14.1,1.9c13.6,0,21-4.1,27-7.8c5.8-3.7,11.2-6.6,22.2-6.6c11,0,16.3,2.9,22.2,6.6
				c6.3,3.7,13.6,7.8,27,7.8c13.6,0,21-4.1,27-7.8c5.8-3.7,11.2-6.6,22.2-6.6c11,0,16.3,2.9,22.2,6.6c6.3,3.7,13.4,7.8,27,7.8
				s21-4.1,27-7.8c5.8-3.7,11.2-6.6,22.2-6.6s16.3,2.9,22.2,6.6c6.3,3.7,13.6,7.8,27,7.8c13.6,0,21-4.1,27-7.8
				c5.8-3.7,11.2-6.6,22.2-6.6c11,0,16.3,2.9,22.2,6.6c6.3,3.7,13.6,7.8,27,7.8c5.4,0,9.7-0.5,13.4-1.7
				C761.8,535.3,756.4,544.6,750.8,553.6z M771.5,512.9c-4.9,2.7-10,4.6-19,4.6c-11,0-16.3-3.2-22.2-6.6c-6.3-3.7-13.4-7.8-27-7.8
				s-21,4.1-27,7.8c-5.8,3.7-11.2,6.6-22.2,6.6s-16.3-3.2-22.2-6.6c-6.3-3.7-13.4-7.8-27-7.8c-13.6,0-21,4.1-27,7.8
				c-5.8,3.7-11.2,6.6-22.2,6.6c-11,0-16.3-3.2-22.2-6.6c-6.3-3.7-13.4-7.8-27-7.8s-21,4.1-27,7.8c-5.8,3.7-11.2,6.6-22.2,6.6
				c-11,0-16.3-3.2-22.2-6.6c-6.3-3.7-13.4-7.8-27-7.8c-13.6,0-21,4.1-27,7.8c-5.8,3.7-11.2,6.6-22.2,6.6c-9.3,0-14.6-2.2-19.7-5.1
				c-3.4-8.5-6.3-17.5-8.5-26.6h451C778.1,495.1,775.2,504.1,771.5,512.9z M405.1,476.1l8.8-40.9l4.6,40.9H405.1z M590.8,355.3
				l-36.5,36.1l-36.5-36.1L590.8,355.3L590.8,355.3z M522.5,345.8l31.7-19.7l31.7,19.7H522.5z M477.2,413.3l67.5-9l-40,66.5
				L477.2,413.3z M496.7,476.1h-64.1l36.8-56.8L496.7,476.1z M554.2,407.6l41.2,68.5h-82.6L554.2,407.6z M563.5,404.2l67.5,9
				l-27.5,57.5L563.5,404.2z M639,419.3l36.8,56.8h-64.1L639,419.3z M646.8,413.5l41.9-3.2l-7.1,56.8L646.8,413.5z M640.9,404.2
				L616.6,364l64.6,37.3L640.9,404.2z M615.6,352.6l16.6-4.1l29.7,30.7L615.6,352.6z M629,403.3l-64.3-8.5l37-36.3L629,403.3z
				 M603.4,345.3L603.4,345.3l-17.5-11l28.5,8.3L603.4,345.3z M505,345.3l-11.2-2.7l28.7-8.3L505,345.3z M506.7,358.4l37,36.3
				l-64.3,8.5L506.7,358.4z M491.8,364l-24.4,40.2l0,0l-40-2.9L491.8,364z M447.5,378.7l28.7-30l16.6,3.9L447.5,378.7z M461.6,413.5
				L427,467.1l-6.3-56.5L461.6,413.5z M689.9,476.1l5.4-42.6l9.5,42.6H689.9z M782.7,476.1h-68l-15.8-71.9c0-0.2,0-0.2-0.2-0.5l0,0
				v-0.2v-0.2c-0.2-0.5-0.5-1-1-1.5l0,0l-60.4-61.9l-0.2-0.2c-0.2-0.2-0.2-0.2-0.5-0.5s-0.5-0.2-0.5-0.5c-0.2,0-0.2-0.2-0.2-0.2
				l-0.2-0.2c-0.2-0.2-0.5-0.2-0.7-0.2l-79.2-22.7h-0.2c0,0,0,0-0.2,0c0,0,0,0-0.2,0l0,0h-0.2c-0.2,0-0.2,0-0.2,0
				c-0.2,0-0.5,0-0.5,0h-0.2c-0.2,0-0.5,0-0.5,0H553h-0.2l0,0c0,0,0,0-0.2,0h-0.2L473.1,338h-0.2c-0.2,0-0.2,0.2-0.5,0.2
				s-0.2,0.2-0.5,0.2s-0.2,0.2-0.2,0.2c-0.2,0.2-0.2,0.2-0.2,0.2l-0.2,0.2c-0.2,0.2-0.2,0.2-0.2,0.2l-0.2,0.2l-59.2,61.9l-0.2,0.2
				L411,402l-0.2,0.2c-0.2,0.2-0.5,0.7-0.5,1.2c0,0.2-0.2,0.2-0.2,0.5v0.2l-15.6,71.9h-68c-3.2-15.6-5.1-31.7-5.1-48.5
				c0-128.4,104.3-232.9,232.9-232.9c128.4,0,232.9,104.3,232.9,232.9C787.9,444.4,785.9,460.5,782.7,476.1z"/>
		</g>
		<g>
			<g>
				<path class="st1" d="M743.8,405.7c0,0.5,0,1,0,1.7v-1.9C743.8,405.5,743.8,405.5,743.8,405.7z"/>
			</g>
			<g>
				<path class="st1" d="M775.4,453c-0.2,1.7-1.7,2.7-3.2,2.7c-0.2,0-0.5,0-0.7-0.2c-0.7-0.2-12.9-2.9-21-10.7v32.4
					c0,1.9-1.5,3.4-3.4,3.4s-3.4-1.5-3.4-3.4v-32.4c-7.8,7.8-20,10.5-21,10.7c-0.2,0-0.5,0.2-0.7,0.2c-1.5,0-2.9-1-3.2-2.7
					c-0.5-1.7,0.7-3.7,2.4-4.1c0.2,0,5.6-1.2,11.2-4.4c5.6-3.2,11.2-7.8,11.2-15.1V423c-5.6,5.6-13.2,7.8-18.3,8.5
					c-0.2,0-0.2,0-0.5,0c-1.7,0-3.2-1.5-3.4-2.9c-0.2-1.9,1.2-3.7,2.9-3.7c0.7-0.2,18.3-2.4,19-17.8l0,0c0-0.5,0-1,0-1.7
					c0-0.2,0-0.2,0-0.2v-2.9c-5.6,6.3-12.2,7.6-12.4,7.6c-1.7,0.2-3.7-1-3.9-2.9c-0.2-1.7,1-3.7,2.9-3.9c0.5-0.2,13.4-2.4,13.4-21.4
					v0.2c0-1.9,1.5-3.4,3.4-3.4c1,0,1.7,0.5,2.4,1c0.7,0.5,1,1.5,1,2.4v0.2c0,19,12.9,21.4,13.4,21.4c1.7,0.2,3.2,2.2,2.9,3.9
					c-0.2,1.7-1.7,2.9-3.2,2.9c-0.2,0-0.2,0-0.5,0s-6.8-1.2-12.4-7.6v2.7c0,0.2,0,0.2,0,0.5c0,0.2,0,0.2,0,0.5v1.2
					c0-0.2,0-0.2,0-0.5c0.5,15.6,18.3,17.8,19,17.8c1.9,0.2,3.2,1.9,2.9,3.7c-0.2,1.7-1.7,2.9-3.4,2.9c-0.2,0-0.2,0-0.5,0
					c-5.1-0.5-12.7-2.9-18.3-8.5v5.8c0,0.2,0,0.2,0,0.2c0,14.4,22.2,19.2,22.4,19.2C774.7,449.3,775.9,451.3,775.4,453z"/>
			</g>
			<g>
				<path class="st1" d="M750.6,407.2L750.6,407.2c0,0.2,0,0.2,0,0.5v-1.2C750.6,406.7,750.6,406.9,750.6,407.2z"/>
			</g>
			<g>
				<path class="st1" d="M743.8,405.7c0,0.5,0,1,0,1.7v-1.5V405.7z"/>
				<path class="st1" d="M750.6,407.2L750.6,407.2c0,0.2,0,0.2,0,0.5v-1.2C750.6,406.7,750.6,406.9,750.6,407.2z"/>
			</g>
			<g>
				<path class="st2" d="M747.2,381.8"/>
			</g>
		</g>
		<g>
			<g>
				<path class="st1" d="M359.5,407.2L359.5,407.2c0,0.2,0,0.2,0,0.2v-1C359.5,406.7,359.5,406.9,359.5,407.2z"/>
				<path class="st1" d="M364.4,426.4c0.2,0.2,0.2,0.2,0.5,0.2C364.7,426.7,364.4,426.4,364.4,426.4z"/>
				<path class="st1" d="M391.2,453c-0.2,1.7-1.7,2.7-3.2,2.7c-0.2,0-0.5,0-0.7-0.2c-0.7-0.2-12.9-2.9-21-10.7v32.4
					c0,1.9-1.5,3.4-3.4,3.4c-1.9,0-3.4-1.5-3.4-3.4v-32.4c-7.8,7.8-20,10.5-21,10.7c-0.2,0-0.5,0.2-0.7,0.2c-1.5,0-2.9-1-3.2-2.7
					c-0.5-1.7,0.7-3.7,2.4-4.1c0.2,0,5.6-1.2,11.2-4.4c5.6-3.2,11-7.8,11-15.1V423c-5.6,5.4-13.2,7.8-18.3,8.5c-0.2,0-0.2,0-0.5,0
					c-1.7,0-3.2-1.5-3.4-2.9c-0.2-1.9,1.2-3.7,2.9-3.7c0.7-0.2,18.3-2.2,19-17.5v-0.2l0,0c0-0.2,0-0.5,0-1v-3.9
					c-5.6,6.3-12.2,7.6-12.4,7.6c-1.7,0.2-3.7-1-3.9-2.9s1-3.7,2.9-3.9c0.5-0.2,13.4-2.4,13.4-21.4v0.2c0-1.9,1.5-3.4,3.4-3.4l0,0
					c1.9,0,3.4,1.5,3.4,3.4v0.2c0,19,12.9,21.2,13.4,21.4c1.7,0.2,3.2,2.2,2.9,3.9c-0.2,1.7-1.7,2.9-3.2,2.9c-0.2,0-0.2,0-0.5,0
					s-6.8-1.2-12.4-7.6v2.2c0,0.2,0,0.5,0,1s0,0.7,0,1.2l0,0c0.5,15.6,18.3,17.8,19,17.8c1.7,0.2,3.2,1.9,2.9,3.7
					c-0.2,1.7-1.7,2.9-3.4,2.9c-0.2,0-0.2,0-0.5,0c-5.1-0.5-12.7-2.9-18.3-8.5v5.8c0,0.2,0,0.2,0,0.5c0,14.4,22.2,19.2,22.4,19.2
					C390.5,449.3,391.7,451.3,391.2,453z"/>
			</g>
			<g>
				<path class="st1" d="M364.4,426.4c0.2,0.2,0.2,0.2,0.5,0.2C364.7,426.7,364.4,426.4,364.4,426.4z"/>
			</g>
			<g>
				<path class="st2" d="M363,381.8"/>
			</g>
		</g>
	</g>
	<g>
		<path class="st1" d="M508.9-70.1c-0.7-11.5-1.2-19.2-2.4-28c2.2,0,5.1,0.2,8.3,0c3.4-0.2,6.1-0.7,8.3-1c0,9,0.2,16.8,0.7,28.3
			l0.7,13.9c0.5,7.6,1,15.3,1.5,20.5c7.6-0.5,15.3-1.2,23.1-2.7c0,1.5-0.2,2.4-0.2,4.6c0.2,2.2,0.5,3.2,0.7,4.4
			c-3.7,0-8.5,0-17.8,0.5c-16.6,1-19.2,1.5-21.4,1.7c0-9-0.2-16.8-0.7-28.3L508.9-70.1z"/>
		<path class="st1" d="M559.1-73.8c5.6-4.4,12.9-6.6,19.2-6.3c10.7,0.5,18.5,5.4,17.8,17.5c-0.5,8.5-1,15.8-1.5,23.1
			c-0.2,6.3,1.5,7.1,5.6,7.3v2.4c-3.9,1.9-6.3,2.4-9.5,2.2c-4.9-0.2-7.8-3.2-9.3-7.8c-3.4,4.1-7.3,7.1-13.6,6.8
			c-10.2-0.5-14.1-7.6-13.9-14.1c0.5-8.8,6.6-12.4,15.8-14.1c11.5-2.2,12.7-2.9,12.7-6.6c0.2-4.9-3.2-9-9.3-9.3
			c-4.6-0.2-10.2,2.2-12.4,5.1h-0.7L559.1-73.8z M582.5-55.7c-5.8,2.9-13.6,2.2-14.1,12.4c-0.2,4.9,1.9,7.8,5.4,8
			c4.4,0.2,7.8-3.2,8-9.7C582.2-50.9,582.5-53.3,582.5-55.7z"/>
		<path class="st1" d="M612.9-68.9c1.9-13.2,3.4-23.4,4.6-34.8c1.7,0.5,4.6,1.2,7.6,1.7c2.9,0.5,5.8,0.7,7.6,0.7
			c-2.2,11.2-4.1,21.4-8,47.3c-0.2,1.7-0.2,2.2,0.2,2.2c1.2,0.2,10-7.6,22.4-19.2c1.5,0.5,2.9,1,4.6,1.2c1.5,0.2,3.2,0.2,5.6,0.5
			c-4.1,3.4-17.3,12.9-20.7,15.8c1.2,2.9,12.4,29,13.4,32.9c-2.7-0.7-5.4-1.2-7.8-1.7c-2.4-0.5-5.1-0.5-7.8-0.7
			c-1.2-3.4-9.3-25.3-10.7-25.6c-0.7,0-0.7,0.2-2.2,9.7c-0.5,3.7-1.5,11-1.5,13.4c-2.4-0.5-4.9-1.2-7.1-1.7
			c-2.4-0.5-4.9-0.5-7.3-0.7c2.2-11.2,4.1-21.4,6.1-34.6L612.9-68.9z"/>
		<path class="st1" d="M673.1-40.2c-2.9,10.7-1,19.7,8.3,22.2c4.6,1.2,9,0.7,13.4-1.2l1,1.2l-3.7,4.9c-3.9,1.7-8.8,2.4-16.1,0.5
			c-12.9-3.4-21.9-14.1-17.3-31.2s16.3-22.7,29.5-19.2c12.7,3.4,17.8,13.6,14.1,27.3c-0.5,1.7-0.7,2.4-1,3.2L673.1-40.2z
			 M689.4-40.4c2.4-10,2.2-16.8-2.9-18.3c-5.8-1.5-10,6.6-12.2,14.1L689.4-40.4z"/>
		<path class="st1" d="M795.2-43.1c1.2,1,2.4,1.7,3.9,2.4c1.5,0.7,2.9,1,4.4,1.5c-12.7,11.7-37.5,34.4-54.6,52.4
			c-1.2-0.7-2.4-1.7-3.9-2.4c-1.5-0.7-2.9-1-4.4-1.5c1.5-18.5,3.7-58.5,3.9-75.3c2.7,1.7,5.4,2.9,8,4.1c2.7,1.2,5.6,2.2,8.3,3.2
			c-2.2,15.6-3.2,36.1-4.6,54.1C769.8-17.3,783.7-31.1,795.2-43.1z"/>
		<path class="st1" d="M793,5.9c4.1-7.1,7.6-13.4,10.7-20c1.5,1.2,3.7,2.7,6.3,4.4c2.7,1.7,5.4,2.7,6.8,3.4c-4.1,5.8-8,11.9-12.2,19
			l-1.9,3.4c-4.1,7.1-7.6,13.4-10.7,20c-1.5-1-3.7-2.7-6.3-4.4c-2.7-1.7-5.1-2.7-6.8-3.4c4.1-5.8,8-11.9,12.2-19L793,5.9z
			 M824.2-33.8c3.9,2.2,5.1,7.1,2.9,11c-2.2,3.9-7.1,5.1-11,2.9s-5.1-7.1-2.9-11C815.4-34.8,820.3-36.3,824.2-33.8z"/>
		<path class="st1" d="M826.1,28.5c-6.3,9-7.6,18.3,0,23.6c3.9,2.7,8,3.9,12.9,3.4l0.5,1.5l-5.1,3.4c-4.1,0.2-9-0.7-15.3-5.1
			c-10.7-7.6-15.6-20.7-5.4-35.3c10.2-14.4,23.1-15.6,34.4-7.8c10.7,7.6,12.2,18.8,3.9,30.5c-1,1.5-1.5,2.2-1.9,2.7L826.1,28.5z
			 M841.5,33.9c5.6-8.5,7.8-15.1,3.4-18c-4.9-3.4-11.7,2.7-16.3,9L841.5,33.9z"/>
		<path class="st1" d="M889.5,94.6c10.7-6.1,21.2-12.4,31.4-19c0.7,1,1.7,2.2,2.7,3.2c1,1,2.2,1.5,3.4,2.4
			c-5.6,1.7-31.7,16.1-46,24.6c-1.2-1.5-2.4-2.9-3.7-4.1c-1.5-1.2-2.9-2.4-4.6-3.4c5.4-10.5,11-22.4,15.3-31.4l-0.2-0.2
			c-10.2,5.8-20.2,11.7-30.2,17.8c-1.2-1.5-2.4-2.9-3.9-4.4c-1.5-1.5-3.2-2.4-4.9-3.7c7.8-14.9,20.2-42.6,21.9-47
			c1.9,2.2,3.7,4.1,5.6,5.8c1.7,1.7,3.9,3.2,5.8,4.6c-5.6,10.7-11.7,23.1-16.6,32.6l0.2,0.2c10.7-6.1,21.2-12.4,31.4-19
			c1.2,1.5,2.4,2.9,3.9,4.1c1.5,1.2,2.9,2.4,4.6,3.4C900.2,72.4,894.6,83.4,889.5,94.6L889.5,94.6z"/>
		<path class="st1" d="M994,161.3c2.7-7.1,2.4-14.6-2.9-22.4c-7.1-10.5-23.1-15.3-40.7-3.2c-13.4,9.3-18.3,23.6-9.5,36.5
			c1.9,2.9,5.8,7.3,7.8,8c1.5-0.7,3.7-2.2,6.1-3.7c9-6.1,12.4-9.3,14.1-10.5c0.5,1.2,1.5,3.2,3.9,6.6c2.7,4.1,4.1,5.6,5.1,6.6
			c-1.9,0.7-9.3,5.4-14.6,9c-3.7,2.4-8,5.6-9,6.6c-7.1-5.8-13.9-12.4-19-20c-13.2-19.2-11.7-40.7,5.4-52.4
			c21.4-14.6,42.4-6.8,55.8,12.9c5.8,8.5,7.8,15.6,8.8,23.6c-3.4,1-7.1,1.9-10.2,3.4L994,161.3z"/>
		<path class="st1" d="M993.5,188.4c11.7-6.3,21-11.5,30.7-17.3c0.5,1.7,1.7,4.4,3.2,7.1s2.9,5.1,4.1,6.6
			c-10.5,4.9-19.7,9.5-31.4,15.8l-5.8,3.2c-11.7,6.3-21,11.5-30.7,17.3c-0.5-1.7-1.7-4.4-3.2-7.1c-1.5-2.7-2.9-5.1-4.1-6.6
			c10.5-4.9,19.7-9.5,31.4-15.8L993.5,188.4z"/>
		<path class="st1" d="M1008.6,213.5c6.3,3.2,11.5,8.8,14.1,14.6c4.1,10,3.2,19-8,23.6c-8,3.4-14.6,5.8-21.4,8.8
			c-5.8,2.4-5.8,4.4-4.1,8.3l-2.2,1c-3.4-2.7-4.9-4.6-6.1-7.6c-1.9-4.6-0.5-8.5,3.2-11.9c-5.1-1.2-9.5-3.7-11.9-9.3
			c-4.1-9.5,0.5-16.1,6.6-18.5c8-3.4,13.9,0.5,19.5,8c7.1,9.5,8,10,11.5,8.5c4.4-1.9,6.8-6.8,4.4-12.4c-1.9-4.4-6.6-8.3-10-9
			l-0.2-0.7L1008.6,213.5z M1002.3,242.5c-5.4-4.1-7.8-11.2-17.3-7.3c-4.6,1.9-6.3,5.1-4.9,8.3c1.7,4.1,6.1,5.6,12.2,2.9
			C997.9,244.2,1000.3,243.4,1002.3,242.5z"/>
		<path class="st1" d="M1031.7,277.3L1031.7,277.3c6.3,2.4,11,6.6,12.7,12.7c1.5,5.8-0.7,11.2-6.1,15.1c7.1,2.4,11.9,7.1,13.4,12.7
			c2.7,9.7-1.5,16.8-14.1,20.2c-6.6,1.7-11.5,2.7-16.6,3.9c-4.1,1-9.3,2.7-14.1,4.1c-0.2-1.7-0.7-4.6-1.5-7.6
			c-0.7-2.9-1.7-5.6-2.4-7.3c7.3-1,16.8-3.4,28.5-6.3c8.3-2.2,11.2-6.1,10-11c-1.7-6.3-8.8-6.1-13.4-4.9l-7.1,1.9
			c-8,2.2-14.9,4.1-21.7,6.6c-0.2-1.7-0.7-4.4-1.5-7.6c-0.7-3.2-1.7-5.6-2.4-7.3c7.1-1.2,14.1-2.9,22.2-5.1l6.1-1.7
			c7.8-2.2,11.9-4.9,10.5-10.5c-1.5-5.8-7.8-7.1-16.8-4.6l-3.9,1c-8,2.2-14.9,4.1-21.7,6.6c-0.2-1.7-0.7-4.4-1.5-7.6
			c-0.7-3.2-1.7-5.6-2.4-7.3c7.1-1.2,14.1-2.9,22.2-5.1l3.9-1c8-2.2,14.9-4.1,21.7-6.6c0.5,2.4,0.7,4.9,1.5,7.1
			c0.7,2.4,1.5,4.6,2.4,7.1L1031.7,277.3z"/>
		<path class="st1" d="M1021.3,353.6c13.2-1.5,23.6-2.9,34.8-4.6c0,2.4,0,4.9,0.2,7.1c0.2,2.4,0.7,4.6,1.2,6.8c-2.2,0-5.8,0-8.8,0.2
			v0.2c5.8,1.2,10.7,6.1,11.7,13.2c1.2,10.2-5.1,20.5-22.9,22.4c-19.2,2.2-27.8-7.1-28.7-17.1c-0.7-6.1,1.5-11,5.8-13.9v-0.2
			c-9.7,1-27.8,3.2-32.6,4.4c0-1.7,0-4.6-0.2-7.6c-0.2-2.9-0.7-5.8-1.2-7.6c11.5-0.7,21.9-1.5,35.1-2.9L1021.3,353.6z M1053.9,373.1
			c-0.5-5.1-6.6-9-21.7-7.6c-12.2,1.5-17.5,5.4-17.1,11.2c0.7,5.8,7.3,8.8,20.7,7.3C1049.3,382.8,1054.6,378.4,1053.9,373.1z"/>
		<path class="st1" d="M1039.1,410.6c8.3-0.2,15.6-0.5,22.7-1.2c-0.2,1.9-0.5,4.4-0.2,7.6c0,3.2,0.5,5.8,0.7,7.6
			c-7.1-0.5-14.4-0.5-22.7-0.2h-4.1c-8.3,0.2-15.6,0.5-22.7,1.2c0.2-1.7,0.5-4.4,0.2-7.6c0-3.2-0.5-5.8-0.7-7.6
			c7.1,0.5,14.4,0.5,22.7,0.2H1039.1z M1089,416.4c0,4.4-3.4,8-7.8,8.3c-4.4,0-8-3.4-8.3-7.8s3.4-8,7.8-8.3
			C1085.1,408.4,1089,411.8,1089,416.4z"/>
		<path class="st1" d="M1053.7,453L1053.7,453c5.1,4.4,8.3,9.7,7.8,16.1c-0.7,10.2-6.8,15.6-19.7,14.6c-6.8-0.5-11.7-1.2-17.1-1.5
			c-4.4-0.2-9.5-0.2-14.9-0.5c0.5-1.7,0.7-4.6,1-7.6c0.2-2.9,0.2-5.8,0-7.6c7.3,1.5,17.1,2.2,29,3.2c8.5,0.5,12.7-2.2,12.9-7.6
			c0.5-6.1-5.1-9.3-14.4-9.7l-4.1-0.2c-8.3-0.5-15.3-0.7-22.7-0.7c0.2-1.7,0.7-4.4,1-7.6c0.2-3.2,0-5.8,0-7.6
			c7.1,1,14.4,1.7,22.4,2.4l4.1,0.2c8.3,0.5,15.3,0.7,22.7,0.7c-0.5,2.4-0.7,4.6-1,7.1s0,4.9,0,7.6L1053.7,453z"/>
		<path class="st1" d="M1047.3,533.1L1047.3,533.1c-3.2,2.7-7.3,4.1-12.4,3.2c-10-1.7-15.1-11-13.2-22.4c0.2-1.5,0.7-2.7,1-4.4
			c0.2-1.7-1.2-3.2-3.2-3.7c-3.2-0.5-5.6,1.5-6.8,6.8l-1.5,7.3c-2.2,11-7.1,15.6-16.1,13.9c-15.8-2.9-18.8-18.5-16.6-30.5
			c2.2-12.4,9.3-19,17.1-17.5c6.3,1.2,9.5,5.8,10.7,12.2h0.2c2.2-3.2,5.1-4.9,8.8-4.4c4.4,0.7,8.5,5.4,9,11.2h0.2
			c1.7-3.9,4.1-6.8,7.1-8.5c2.9-1.7,6.8-2.2,11-1.5c10.2,1.9,14.6,11.5,12.2,24.1c-0.5,2.4-1.2,4.9-1.7,7.3
			c-0.5,1.7-0.7,3.4-1.2,5.6c-0.5,3.4-1.2,7.1-1.9,10.7c-0.7-0.2-1.5-0.5-2.4-0.7c-0.7-0.2-1.7-0.2-2.4-0.2L1047.3,533.1z
			 M1004.2,508.3c0.7-3.4,0.7-5.8,0.2-7.3c-0.5-1.7-3.4-4.6-8-5.6c-7.6-1.5-12.7,3.9-13.9,11c-1.5,7.8,3.2,13.6,9.7,14.6
			C1000.1,522.4,1002.5,517.3,1004.2,508.3z M1039.1,508.8c-8.8-1.7-12.4,1.5-12.9,4.4c-0.7,4.4,2.4,7.1,11.5,8.8
			c9,1.7,12.9-0.5,13.4-4.1C1051.7,513.4,1047.8,510.5,1039.1,508.8z"/>
		<path class="st1" d="M1003.5,578.4c-1.5,4.4-6.3,6.8-10.5,5.4c-4.1-1.5-6.8-6.3-5.4-10.5c1.5-4.4,6.3-6.8,10.5-5.4
			C1002.3,569.4,1004.9,574.1,1003.5,578.4z"/>
		<path class="st1" d="M1008.6,638.1c10.2,5.1,17.3,8.5,25.6,11.9c-1.2,1.9-2.7,4.1-4.1,7.3c-1.5,2.9-2.4,5.6-3.4,7.8
			c-7.8-4.6-14.6-8.3-24.9-13.4l-12.4-6.3c-6.8-3.4-13.6-6.8-18.5-9c-3.4,6.8-6.6,13.9-9.3,21.4c-1.2-0.7-1.9-1.5-3.9-2.4
			c-1.9-1-2.9-1.2-4.1-1.7c1.7-3.2,4.4-7.3,8.5-15.6c7.6-14.9,8.5-17.3,9.3-19.5c7.8,4.6,14.6,8.3,24.9,13.4L1008.6,638.1z"/>
		<path class="st1" d="M986.4,683.7c1,7.1-1,14.4-4.4,20c-5.8,9-13.9,13.2-24.1,6.6c-7.3-4.6-13.2-8.8-19.2-12.9
			c-5.4-3.4-6.8-2.2-9.3,1.2l-1.9-1.2c0.5-4.4,1-6.8,2.7-9.3c2.7-4.1,6.8-5.1,11.5-4.1c-1.9-4.9-2.4-10,1-15.1
			c5.6-8.5,13.6-8.5,19-4.9c7.6,4.9,7.3,11.9,4.4,20.7c-3.9,11-3.7,12.4-0.7,14.4c4.1,2.7,9.5,1.7,12.7-3.4c2.4-3.9,3.2-10,1.9-13.4
			l0.5-0.5L986.4,683.7z M958.9,694.7c0.5-6.6,5.1-12.7-3.7-18.3c-4.1-2.7-7.8-2.4-9.7,0.7c-2.4,3.7-1.2,8.3,4.4,11.7
			C955,692,956.9,693.4,958.9,694.7z"/>
		<path class="st1" d="M955,727.5c10.5,8.5,18.5,14.6,27.8,21.7c-1.2,1.2-3.4,3.4-5.1,5.6c-1.9,2.2-3.7,4.6-4.4,6.3
			c-8.5-7.6-16.6-14.4-36.8-30.9c-1.5-1.2-1.7-1.5-1.9-1c-0.7,1,1.5,12.4,5.4,29c-1.2,1.2-2.4,2.2-3.4,3.4c-1,1.2-1.7,2.7-3.2,4.6
			c-0.7-5.4-2.4-21.4-3.2-25.8c-3.2-0.5-31.2-3.9-35.3-5.1c1.9-2.2,3.9-3.9,5.4-5.8c1.7-1.9,2.9-4.1,4.4-6.3
			c3.7,0.5,26.6,4.9,27.5,3.7c0.5-0.5,0.2-0.7-7.3-6.8c-2.9-2.2-8.8-6.8-11-8c1.7-1.7,3.4-3.4,5.1-5.4c1.5-1.9,2.9-3.9,4.1-6.1
			c8.5,7.6,16.6,14.4,26.8,22.9L955,727.5z"/>
		<path class="st1" d="M899.7,764.8c-7.8-7.8-16.6-10.7-23.4-4.1c-3.4,3.4-5.1,7.3-5.6,12.2l-1.5,0.2l-2.4-5.6
			c0.5-4.1,2.4-8.8,7.8-14.1c9.5-9.3,23.1-11.7,35.8,0.7c12.4,12.4,11.5,25.6,1.7,35.3c-9.5,9.3-20.7,8.5-30.7-1.5
			c-1.2-1.2-1.9-1.9-2.2-2.4L899.7,764.8z M891.9,779.2c7.3,7.1,13.4,10.2,17.3,6.6c4.4-4.1-0.5-11.9-6.1-17.8L891.9,779.2z"/>
		<path class="st1" d="M841.2,872c-1.2,0.5-2.7,1.2-3.9,2.2c-1.2,1-2.4,1.9-3.4,2.9c-3.9-16.8-11-49.9-18-73.3
			c1.5-0.7,2.7-1.2,3.9-2.2c1.2-1,2.2-1.9,3.4-2.9c15.3,10.5,48.7,32.4,63.1,41.2c-2.7,1.5-5.4,3.2-7.8,4.9
			c-2.4,1.7-4.9,3.7-7.1,5.6c-12.4-9.7-29.5-21-44.3-31.2C831.5,836.9,836.3,855.9,841.2,872z"/>
		<path class="st1" d="M799.8,845.7c4.1,7.1,7.8,13.4,11.9,19.2c-1.7,0.7-4.1,1.7-6.8,3.4c-2.7,1.7-4.9,3.2-6.3,4.1
			c-2.9-6.6-6.3-12.9-10.5-20l-1.9-3.7c-4.1-7.1-7.8-13.4-11.9-19.2c1.7-0.7,4.1-1.7,6.8-3.4c2.7-1.7,4.9-3.2,6.3-4.1
			c2.9,6.6,6.3,12.9,10.5,20L799.8,845.7z M818.6,892.5c-3.9,2.2-8.8,1-11-2.9c-2.2-3.9-1-8.8,2.9-11c3.9-2.2,8.8-1,11,2.9
			C823.7,885.4,822.5,890.3,818.6,892.5z"/>
		<path class="st1" d="M763.5,862.8c-4.6-10-11.9-15.8-20.5-11.9c-4.1,1.9-7.3,5.1-9.5,9.5l-1.5-0.2l-0.2-6.1
			c1.9-3.7,5.1-7.6,12.2-10.7c11.9-5.6,25.8-3.2,33.4,12.9c7.3,16.1,1.9,28-10.5,33.6c-11.9,5.6-22.4,1-28.3-11.7
			c-0.7-1.5-1.2-2.4-1.2-3.2L763.5,862.8z M751.1,873.5c4.4,9.3,9,14.4,13.9,12.2c5.4-2.4,3.4-11.5,0.2-18.8L751.1,873.5z"/>
		<path class="st1" d="M674.8,884.4c-0.2,12.4,0,24.6,0.5,36.8c-1.2,0.2-2.7,0.2-3.9,0.7s-2.4,1-3.9,1.7c1.2-5.8,1.9-35.3,1.9-52.1
			c1.7-0.2,3.7-0.7,5.6-1.2c1.9-0.5,3.4-1.5,5.4-2.2c6.3,9.7,13.9,20.7,19.5,29h0.2c0-11.7,0.2-23.4,0-35.1c1.9-0.5,3.9-0.7,5.6-1.2
			c1.9-0.5,3.7-1.5,5.6-2.2c9,14.1,26.6,39,29.5,42.4c-2.9,0.7-5.4,1.2-7.8,1.9c-2.4,0.7-4.6,1.7-7.1,2.7
			c-6.6-10.2-14.1-21.7-20-30.7h-0.2c-0.2,12.4,0.2,24.6,0.5,36.8c-1.9,0.5-3.7,0.7-5.6,1.2c-1.9,0.5-3.4,1.5-5.4,2.2
			C688.5,904.9,681.9,894.4,674.8,884.4L674.8,884.4z"/>
		<path class="st1" d="M564.2,941c4.6,5.8,11.5,9.5,20.7,8.8c12.7-1,24.9-12.2,23.4-33.6c-1.2-16.1-11-27.8-26.8-26.6
			c-3.4,0.2-9.5,1.5-11,2.7c-0.2,1.7,0,4.1,0.2,7.1c0.7,11,1.7,15.6,1.9,17.5c-1.2,0-3.4-0.2-7.6,0c-4.9,0.2-6.8,0.7-8.3,1
			c0.2-2.2,0-10.7-0.5-17.1c-0.2-4.4-0.7-9.7-1.2-11.2c8.8-3.2,17.8-5.8,26.8-6.3c23.4-1.7,41.2,10.5,42.6,31.2
			c1.9,25.8-15.3,40-39.2,41.7c-10.2,0.7-17.3-1-24.9-4.4c1-3.7,1.7-7.1,2.2-10.5L564.2,941z"/>
		<path class="st1" d="M541.1,927.1c-0.5,13.4-0.7,23.6-0.7,35.3c-1.7-0.5-4.6-0.7-7.6-0.7c-2.9,0-5.8,0-7.6,0.2
			c1-11.5,1.7-21.9,2.2-35.1l0.2-6.6c0.5-13.4,0.7-23.6,0.7-35.3c1.7,0.5,4.6,0.7,7.6,0.7c2.9,0,5.8,0,7.6-0.2
			c-1,11.5-1.7,21.9-2.2,35.1L541.1,927.1z"/>
		<path class="st1" d="M512.1,927.3c-6.1,3.9-13.4,5.6-19.7,4.6c-10.7-1.2-18-6.8-16.6-18.8c1-8.5,2.2-15.6,3.2-22.9
			c0.7-6.3-1-7.3-5.1-7.8l0.2-2.4c4.1-1.5,6.6-1.9,9.7-1.5c4.9,0.7,7.6,3.9,8.8,8.5c3.7-3.9,7.8-6.6,14.1-5.8
			c10.2,1.2,13.6,8.5,12.9,15.1c-1,8.8-7.3,11.7-16.8,12.9c-11.7,1.2-12.7,1.9-13.2,5.6c-0.5,4.9,2.4,9.3,8.5,10
			c4.6,0.5,10.5-1.5,12.9-4.1h0.7L512.1,927.3z M490.1,907.6c6.1-2.4,13.6-1,14.9-11.2c0.7-4.9-1.2-8-4.9-8.3
			c-4.4-0.5-7.8,2.4-8.8,9C490.9,902.7,490.4,905.2,490.1,907.6z"/>
		<path class="st1" d="M445.1,915.4L445.1,915.4c-5.4,4.1-11.2,6.3-17.3,4.6c-5.8-1.7-9.3-6.1-10-12.7c-5.6,4.9-11.9,6.8-17.8,5.1
			c-9.7-2.7-13.9-9.7-10.5-22.2c1.9-6.6,3.4-11.2,4.9-16.3c1.2-4.1,2.2-9.3,3.4-14.4c1.7,0.7,4.4,1.7,7.3,2.4s5.8,1.5,7.6,1.5
			c-2.9,6.8-5.6,16.3-8.8,28c-2.2,8-0.2,12.9,4.6,14.1c6.3,1.7,9.5-4.4,11-9.3l1.9-7.1c2.2-8,3.9-15.1,5.1-21.9
			c1.7,0.7,4.1,1.7,7.3,2.4c2.9,0.7,5.6,1.2,7.6,1.5c-2.4,6.8-4.6,13.6-6.8,21.7l-1.7,6.1c-2.2,7.8-1.7,12.9,3.7,14.4
			c5.8,1.7,10-3.2,12.4-12.2l1-3.9c2.2-8,3.9-15.1,5.1-21.9c1.7,0.7,4.1,1.7,7.3,2.4c2.9,0.7,5.6,1.2,7.6,1.5
			c-2.4,6.8-4.6,13.6-6.8,21.7l-1,3.9c-2.2,8-3.9,15.1-5.1,21.9c-2.2-0.7-4.4-1.7-6.8-2.4c-2.4-0.7-4.6-1-7.3-1.5L445.1,915.4z"/>
		<path class="st1" d="M384.4,868.1c-5.4,12.2-9.3,21.9-13.6,32.6c-1.9-1.2-4.1-2.4-6.3-3.4c-2.2-1-4.4-1.7-6.6-2.4
			c1-1.9,2.9-5.1,4.1-7.8h-0.2c-4.1,4.4-10.7,6.3-17.3,3.4c-9.5-4.1-15.1-14.9-7.8-30.9c7.8-17.8,20-20.5,29.2-16.3
			c5.6,2.4,8.8,6.6,9,12.2h0.2c3.9-9,11.5-25.6,12.7-30.5c1.5,1,4.1,2.4,6.8,3.7c2.7,1.2,5.6,2.2,7.3,2.7
			c-5.1,10.2-9.5,19.7-15.1,31.9L384.4,868.1z M351,886.4c4.6,1.9,11.2-1,17.3-15.1c4.9-11.2,4.1-18-1.2-20.5
			c-5.4-2.4-11.2,1.9-16.6,14.1C345.2,877.6,346.1,884.2,351,886.4z"/>
		<path class="st1" d="M296,895.2c-3.9-2.2-5.4-7.1-3.2-11c2.2-3.9,7.1-5.4,11-3.2c3.9,2.2,5.4,7.1,3.2,11
			C304.7,895.9,299.9,897.1,296,895.2z M326.2,854.7c-3.9,7.3-7.3,13.6-10.2,20.2c-1.5-1-3.7-2.7-6.3-4.1s-5.4-2.7-6.8-3.2
			c3.9-5.8,7.8-12.2,11.7-19.5l1.9-3.7c3.9-7.3,7.3-13.6,10.2-20.2c1.5,1,3.7,2.7,6.3,4.1c2.7,1.5,5.1,2.4,6.8,3.2
			c-3.9,5.8-7.8,12.2-11.7,19.5L326.2,854.7z"/>
		<path class="st1" d="M282.1,846L282.1,846c-6.3,2.4-12.7,2.2-18-1.2c-8.5-5.6-10-13.6-2.7-24.4c3.9-5.8,7.1-9.5,10-13.9
			c2.4-3.7,5.1-8,7.8-12.4c1.2,1.2,3.7,3.2,6.1,4.6c2.4,1.7,5.1,3.2,6.6,3.9c-4.9,5.6-10.5,13.6-17.3,23.6c-4.6,7.1-4.4,11.9,0,14.9
			c5.1,3.4,10.5,0.2,15.8-7.3l2.2-3.4c4.6-6.8,8.5-12.9,11.9-19.2c1.2,1.2,3.4,2.9,6.1,4.6c2.7,1.7,4.9,2.9,6.6,3.9
			c-4.6,5.6-8.8,11.5-13.4,18.3l-2.2,3.4c-4.6,6.8-8.5,12.9-11.9,19.2c-1.9-1.5-3.7-3.2-5.6-4.4c-1.9-1.5-4.1-2.4-6.3-3.7L282.1,846
			z"/>
		<path class="st1" d="M216.3,800.1h0.2c-1-4.1-0.2-8.3,3.2-12.2c6.6-7.6,17.1-7.6,26.1,0c1,1,2.2,1.9,3.4,3.2c1.2,1,3.4,0.5,4.6-1
			c2.2-2.4,1.7-5.6-2.4-9.3l-5.6-4.9c-8.5-7.3-10-13.9-3.9-21c10.5-12.2,25.6-6.8,34.6,1c9.5,8.3,11.7,17.5,6.6,23.4
			c-4.1,4.9-9.7,5.1-15.8,3.2l-0.2,0.2c1.7,3.4,1.7,6.8-0.7,9.7c-2.9,3.4-9,4.6-14.1,1.9l-0.2,0.2c2.4,3.4,3.7,6.8,3.7,10.5
			s-1.5,7.1-4.4,10.2c-6.8,7.8-17.3,6.8-27-1.7c-1.9-1.7-3.7-3.7-5.4-5.1c-1.2-1.2-2.7-2.4-4.1-3.9c-2.4-2.2-5.4-4.6-8.3-6.8
			c0.5-0.5,1.2-1.2,1.7-1.7s1-1.2,1.5-1.9L216.3,800.1z M241.4,805.3c5.8-6.8,5.1-11.5,2.7-13.4c-3.4-2.9-7.6-1.5-13.4,5.6
			c-5.8,7.1-6.1,11.2-3.2,13.6C230.9,814,235.5,812.1,241.4,805.3z M259.4,775.3c2.7,2.4,4.6,3.7,6.3,3.9c1.7,0.5,5.6-0.5,8.8-4.1
			c5.1-5.8,2.9-12.9-2.4-17.5c-5.8-5.1-13.4-4.1-17.5,1C249.2,764.6,252.6,769.5,259.4,775.3z"/>
		<path class="st1" d="M199.2,739.5c-2.9-3.4-2.7-8.8,0.7-11.7c3.4-2.9,8.8-2.7,11.7,0.7s2.7,8.8-0.7,11.7
			C207.5,743.1,202.2,742.9,199.2,739.5z"/>
		<path class="st1" d="M144.9,713.9c-9.5,6.3-16.1,10.7-23.1,16.1c-1-1.9-2.2-4.4-4.1-7.3c-1.9-2.9-3.7-4.9-4.9-6.8
			c7.8-4.4,14.6-8.5,24.1-14.6l11.7-7.6c6.3-4.1,12.7-8.5,17.1-11.5c-4.1-6.3-8.8-12.7-13.9-18.8c1.2-0.5,2.2-1,4.1-2.2
			c1.7-1.2,2.4-1.9,3.4-2.7c1.9,3.2,4.1,7.3,9.3,15.1c9,13.9,10.7,16.1,12.2,17.8c-7.8,4.4-14.6,8.5-24.1,14.6L144.9,713.9z"/>
		<path class="st1" d="M116.9,671.8c-6.6-2.9-12.2-8-15.1-13.6c-4.9-9.7-4.4-18.8,6.3-24.1c7.8-3.9,14.1-6.8,20.7-10.2
			c5.6-2.9,5.4-4.9,3.7-8.5l2.2-1.2c3.7,2.4,5.4,4.4,6.6,7.1c2.2,4.4,1.2,8.5-2.2,11.9c5.4,1,9.7,2.9,12.7,8.5
			c4.6,9.3,0.5,16.1-5.4,19c-7.8,3.9-13.9,0.5-20-6.8c-7.6-9-8.8-9.5-12.2-7.8c-4.4,2.2-6.3,7.3-3.4,12.7c2.2,4.1,7.1,7.8,10.5,8.3
			l0.2,0.7L116.9,671.8z M121,642.5c5.6,3.7,8.5,10.7,17.8,6.1c4.4-2.2,5.8-5.6,4.4-8.8c-1.9-3.9-6.6-5.1-12.4-2.2
			C125.2,640.3,123,641.5,121,642.5z"/>
		<path class="st1" d="M94.5,622.8c-12.4,4.6-22.2,8.8-32.6,13.2c-0.2-1.7-1.2-4.6-2.2-7.3c-1-2.7-2.2-5.4-3.2-7.1
			c11-3.7,20.7-7.1,45.1-16.3c1.7-0.7,2.2-0.7,1.9-1.2c-0.5-1-11.5-4.9-27.8-10c-0.5-1.7-0.7-3.2-1.2-4.6c-0.5-1.5-1.5-2.9-2.4-5.1
			c4.9,1.9,19.7,8.8,23.9,10.2c1.9-2.4,19.2-25.1,22.2-28c0.7,2.7,1.5,5.1,2.4,7.8c1,2.7,2.2,4.6,3.2,7.1
			c-2.2,2.9-17.5,20.5-17.1,21.9c0.2,0.7,0.5,0.5,9.7-2.9c3.4-1.2,10.2-4.1,12.4-5.4c0.7,2.4,1.2,4.9,2.2,7.1s1.9,4.4,3.2,6.6
			c-11,3.7-20.7,7.1-33.1,11.7L94.5,622.8z"/>
		<path class="st1" d="M89.8,556.3c10.7-2.7,17.5-9,15.3-18c-1.2-4.6-3.7-8.3-7.6-11l0.5-1.5l6.1,0.7c3.4,2.7,6.3,6.3,8.3,13.9
			c3.4,12.9-1.5,26.1-18.8,30.5c-17.1,4.4-27.8-3.2-31.2-16.3c-3.4-12.9,2.9-22.2,16.6-25.8c1.7-0.5,2.7-0.7,3.2-0.7L89.8,556.3z
			 M81.6,542.1c-9.7,2.7-15.6,6.3-14.4,11.5c1.5,5.8,10.5,5.4,18.3,3.7L81.6,542.1z"/>
		<path class="st1" d="M27,451.5c0.2-1.5,0.2-2.9,0-4.6c-0.2-1.5-0.5-2.9-1-4.4c16.6,5.4,48.5,15.6,72.6,21.4c0,1.5-0.2,2.9,0,4.6
			c0.2,1.5,0.5,2.9,1,4.4c-16.8,7.8-52.6,25.8-67.5,33.9c0-3.2,0-6.3-0.2-9.3s-0.7-5.8-1.2-8.8c14.6-5.8,32.9-14.9,49.2-22.7
			C62.1,460.8,43.3,455.4,27,451.5z"/>
		<path class="st1" d="M20.6,421.5c0-4.4,3.7-8,8.3-7.8c4.6,0.2,8,3.7,7.8,8.3c0,4.4-3.7,8-8.3,7.8
			C23.8,429.6,20.6,425.9,20.6,421.5z M70.6,429.1c-8.3-0.2-15.6,0-22.7,0.5c0.2-1.9,0.5-4.4,0.7-7.6c0-3.2-0.2-5.8-0.5-7.6
			c7.1,0.7,14.4,1,22.7,1.2H75c8.3,0.2,15.6,0,22.7-0.5c-0.2,1.7-0.5,4.4-0.7,7.6c0,3.2,0.2,5.8,0.5,7.6c-7.1-0.7-14.4-1-22.7-1.2
			H70.6z"/>
		<path class="st1" d="M74,389.1c11,1,19.7-2.4,20.5-11.7c0.5-4.6-0.7-9-3.4-12.9l1-1.2l5.4,2.7c2.2,3.7,3.9,8.3,3.2,15.8
			c-1.2,13.2-10.2,23.9-28,22.2c-17.5-1.7-25.1-12.4-23.9-26.1c1.2-13.2,10.2-20,24.4-18.5c1.7,0.2,2.7,0.2,3.4,0.5L74,389.1z
			 M71.1,373.1c-10.2-0.7-17.1,0.7-17.5,5.8c-0.5,6.1,8,8.8,16.1,9.7L71.1,373.1z"/>
		<path class="st1" d="M99.8,301.4c-10.7-6.3-21.2-12.4-31.9-18c0.5-1.2,1-2.4,1.5-3.7c0.2-1.2,0.2-2.4,0.5-4.4
			c4.4,4.1,29.7,19.5,44.1,27.8c-0.7,1.7-1.5,3.7-1.7,5.4c-0.5,1.9-0.5,3.7-0.7,5.6c-11.7,0.5-24.9,1.5-34.8,2.2v0.2
			c10,6.1,20.2,11.9,30.5,17.5c-0.7,1.9-1.5,3.7-1.7,5.6c-0.5,1.9-0.5,3.9-1,5.8c-16.8,0.7-47,3.4-51.7,4.1c1-2.9,1.7-5.1,2.2-7.6
			c0.5-2.4,0.7-4.9,1.2-7.3c12.2-0.5,25.8-1.2,36.5-1.9v-0.2c-10.5-6.3-21.4-12.2-31.9-18c0.7-1.9,1.5-3.7,1.7-5.4
			c0.2-1.7,0.5-3.7,0.7-5.6C75.2,303.1,87.6,302.6,99.8,301.4L99.8,301.4z"/>
		<path class="st1" d="M106.4,177.4c-7.3,1.2-13.9,5.1-18,13.6c-5.6,11.5-1.9,27.8,17.3,37c14.6,7.1,29.5,4.4,36.3-9.7
			c1.5-3.2,3.4-8.8,3.2-10.7c-1.2-1-3.7-2.2-6.3-3.4c-10-4.9-14.4-6.3-16.1-7.1c0.7-1.2,1.9-2.7,3.7-6.6c2.2-4.4,2.7-6.3,3.2-7.6
			c1.7,1.5,9.3,5.4,15.1,8.3c3.9,1.9,8.8,4.1,10.2,4.6c-1.7,9-3.9,18.3-8,26.3c-10.2,21-29.7,30.2-48.2,21.2
			c-23.1-11.5-26.8-33.4-16.3-55.1c4.6-9.3,9.5-14.4,16.3-19.2c2.7,2.4,5.1,5.1,8,7.1L106.4,177.4z"/>
		<path class="st1" d="M130.3,164.5c-11.2-7.3-20.2-12.4-30.2-18.3c1.2-1.2,2.9-3.7,4.6-6.1c1.7-2.4,2.9-5.1,3.7-6.8
			c9.5,6.6,18,12.4,29.2,19.7l5.6,3.7c11.2,7.3,20.2,12.4,30.2,18.3c-1.2,1.2-2.9,3.7-4.6,6.1c-1.7,2.4-2.9,5.1-3.7,6.8
			c-9.5-6.6-18-12.4-29.2-19.7L130.3,164.5z"/>
		<path class="st1" d="M144.7,139.2c-0.2-7.1,1.9-14.4,5.8-19.5c6.6-8.5,14.9-11.9,24.6-4.6c6.8,5.4,12.4,9.7,18.3,14.4
			c5.1,3.9,6.6,2.9,9.3-0.5l1.9,1.5c-0.7,4.4-1.7,6.6-3.4,9c-2.9,3.9-7.1,4.6-11.7,3.2c1.5,5.1,1.7,10-2.2,15.1
			c-6.3,8.3-14.4,7.3-19.5,3.4c-7.1-5.4-6.3-12.4-2.7-21c4.6-10.7,4.6-11.9,1.7-14.4c-3.9-2.9-9.3-2.4-12.9,2.4
			c-2.9,3.7-3.9,9.7-2.9,13.2l-0.5,0.5L144.7,139.2z M172.9,130.4c-1,6.6-6.1,12.4,2.2,18.5c3.9,2.9,7.6,2.9,9.7,0
			c2.7-3.7,1.7-8-3.4-12.2C176.6,133.3,174.6,131.6,172.9,130.4z"/>
		<path class="st1" d="M188.8,87.5L188.8,87.5c-1-6.8,0.2-12.9,4.9-17.3c4.4-4.4,10-4.9,16.1-2.2c-1.5-7.3,0.2-13.6,4.4-18
			c7.3-7.1,15.3-7.1,24.4,2.2c4.9,4.9,8,8.8,11.7,12.4c2.9,3.2,6.8,6.6,10.7,10.2c-1.5,1-3.7,2.9-5.8,4.9c-2.2,1.9-4.1,4.4-5.1,5.6
			c-4.4-5.8-11.2-12.9-19.7-21.7c-5.8-6.1-11-6.8-14.6-3.2c-4.6,4.6-1,10.5,2.4,13.9l5.1,5.1c5.8,5.8,11,11,16.3,15.6
			c-1.5,1-3.7,2.7-5.8,4.9c-2.2,2.2-3.9,4.4-5.1,5.6c-4.6-5.6-9.5-10.7-15.3-16.8l-4.4-4.4c-5.6-5.8-10.2-8-14.1-3.9
			c-4.4,4.4-2.4,10.2,4.1,16.8l2.9,2.9c5.8,5.8,11,11,16.3,15.6c-1.5,1-3.7,2.7-5.8,4.9c-2.2,2.2-3.9,4.4-5.1,5.6
			c-4.6-5.6-9.5-10.7-15.3-16.8l-2.9-2.9c-5.8-5.8-11-11-16.3-15.6c1.9-1.5,3.7-2.9,5.6-4.6c1.7-1.7,3.2-3.7,4.9-5.6L188.8,87.5z"/>
		<path class="st1" d="M260.1,58.8c-7.8-10.7-14.1-19-21.4-28c1.9-1.2,4.1-2.4,6.1-3.7c1.9-1.5,3.7-2.9,5.4-4.6
			c1.2,1.9,2.9,5.1,4.6,7.6h0.2c-1.7-5.8,0-12.4,5.8-16.6c8.3-6.1,20.5-5.6,30.7,8.8c11.5,15.6,7.6,27.5-0.5,33.4
			c-4.9,3.4-10.2,4.1-15.1,1.7h-0.2c5.8,7.8,16.6,22.7,20,26.1c-1.5,0.7-4.1,2.4-6.6,4.1s-4.6,3.7-5.8,4.9c-6.3-9.5-12.2-18.3-20-29
			L260.1,58.8z M260.9,20.8c-4.1,2.9-4.6,10.2,4.4,22.7c7.3,10,13.4,12.7,18.3,9.3c4.6-3.4,3.9-10.7-3.9-21.4
			C271.6,20,265.3,17.6,260.9,20.8z"/>
		<path class="st1" d="M281.1-31.1c3.9-2.2,8.8-1,11,2.7c2.2,3.9,1,8.8-2.7,11c-3.9,2.2-8.8,1-11-2.7
			C276-23.8,277.2-28.7,281.1-31.1z M300.8,15.1c-4.1-7.1-8-13.2-12.2-19c1.7-0.7,4.1-1.9,6.8-3.4c2.7-1.7,4.9-3.4,6.3-4.4
			c3.2,6.3,6.6,12.7,11,19.7l2.2,3.4c4.1,7.1,8,13.2,12.2,19c-1.7,0.7-4.1,1.9-6.8,3.4c-2.7,1.7-4.9,3.2-6.3,4.4
			c-3.2-6.3-6.6-12.7-11-19.7L300.8,15.1z"/>
		<path class="st1" d="M330.6-18.5L330.6-18.5c1.2-6.6,4.4-11.9,10.2-14.9c9.3-4.4,16.8-1.7,22.4,10c2.9,6.3,4.9,10.7,7.1,15.6
			c1.9,3.9,4.4,8.5,6.8,13.2c-1.7,0.5-4.4,1.5-7.1,2.9c-2.7,1.2-5.1,2.7-6.6,3.7c-2.4-7.1-6.3-15.8-11.7-26.8
			c-3.7-7.6-8-9.7-12.9-7.6c-5.6,2.7-5.6,9-1.5,17.3l1.7,3.7c3.7,7.6,6.8,13.9,10.5,20c-1.7,0.5-4.1,1.5-7.1,2.9
			c-2.9,1.5-5.1,2.7-6.6,3.7c-2.4-6.6-5.6-13.4-9-20.7l-1.7-3.7c-3.7-7.3-6.8-13.9-10.5-20c2.2-1,4.6-1.7,6.8-2.7
			c2.2-1,4.1-2.4,6.6-3.7L330.6-18.5z"/>
		<path class="st1" d="M403.2-52.6l-0.2,0.2c3.9,1.2,7.3,4.1,9,8.8c3.4,9.5-1.9,18.5-13.2,22.4c-1.5,0.5-2.7,0.7-4.4,1.5
			c-1.5,0.5-2.2,2.7-1.5,4.4c1,3.2,4.1,4.1,9.3,2.4l7.1-2.4C420-19,426.3-16.8,429.5-8c5.4,15.3-6.8,25.6-18.3,29.5
			c-11.9,4.1-21,1.5-23.6-6.1c-2.2-6.1,0.5-11.2,5.4-15.1V0c-3.7-0.2-6.8-1.9-8-5.6c-1.5-4.1,0.5-10,5.4-13.4v-0.2
			c-4.1,0.5-7.8-0.2-11-1.9c-2.9-1.7-5.4-4.6-6.8-8.8c-3.4-9.7,2.9-18.3,15.1-22.7c2.2-0.7,4.9-1.5,7.3-2.2c1.7-0.5,3.4-1,5.4-1.7
			c3.2-1.2,6.6-2.4,10.2-3.7c0.2,0.7,0.2,1.7,0.7,2.4c0.2,0.7,0.7,1.5,1,2.2L403.2-52.6z M386.3-33.3c2.9,8.3,7.3,10.2,10.2,9.3
			c4.1-1.5,5.1-5.8,1.9-14.4c-2.9-8.8-6.8-11-10.2-9.7C383.9-46.7,383.2-41.6,386.3-33.3z M402.9-2.6c-3.4,1.2-5.4,2.2-6.6,3.4
			c-1.2,1.2-2.4,5.1-0.7,9.7c2.4,7.3,9.7,9,16.6,6.6c7.3-2.7,10.2-9.5,8-15.6C417.3-6,411.7-5.8,402.9-2.6z"/>
		<path class="st1" d="M464.3-36.7c4.4-1,9,2.2,9.7,6.6c1,4.4-2.2,9-6.6,9.7c-4.4,0.7-9-2.2-9.7-6.6C457-31.4,459.9-35.8,464.3-36.7
			z"/>
	</g>
</g>
</svg>
