<?xml version="1.0" encoding="utf-8"?>
<!-- Generator: Adobe Illustrator 25.4.1, SVG Export Plug-In . SVG Version: 6.00 Build 0)  -->
<svg version="1.1" id="Layer_1" xmlns="http://www.w3.org/2000/svg" xmlns:xlink="http://www.w3.org/1999/xlink" x="0px" y="0px"
	 width="173.3px" height="72.7px" viewBox="0 0 173.3 72.7" style="enable-background:new 0 0 173.3 72.7;" xml:space="preserve">
<style type="text/css">
	.st0{fill:#FFFFFF;}
</style>
<g>
	<path class="st0" d="M81.8,25.1c0-2.3,0-4-0.2-5.8c0.5,0,1,0.1,1.7,0.1c0.7,0,1.3-0.1,1.7-0.1c-0.1,1.8-0.2,3.4-0.2,5.8v2.8
		c0,1.5,0,3.1,0,4.2c1.6,0,3.2-0.1,4.8-0.3c0,0.3-0.1,0.5-0.1,0.9c0,0.4,0,0.6,0.1,0.9c-0.8,0-1.7-0.1-3.7-0.1c-3.4,0-4,0.1-4.4,0.1
		c0.1-1.8,0.2-3.4,0.2-5.8V25.1z"/>
	<path class="st0" d="M91.9,24.8c1.1-0.9,2.6-1.5,3.9-1.5c2.2,0,3.8,0.9,3.8,3.4c0,1.8-0.1,3.2-0.1,4.7c0,1.3,0.4,1.4,1.2,1.4v0.5
		c-0.8,0.4-1.3,0.6-1.9,0.6c-1,0-1.7-0.6-2-1.5c-0.6,0.9-1.4,1.5-2.7,1.5c-2.1,0-3-1.4-3-2.7c0-1.8,1.2-2.6,3.1-3.1
		c2.3-0.6,2.6-0.7,2.6-1.5c0-1-0.8-1.8-2-1.8c-1,0-2.1,0.6-2.5,1.1h-0.1L91.9,24.8z M96.8,28.3c-1.2,0.7-2.8,0.6-2.8,2.7
		c0,1,0.5,1.6,1.2,1.6c0.9,0,1.5-0.7,1.5-2.1C96.8,29.2,96.8,28.7,96.8,28.3"/>
	<path class="st0" d="M102.6,25.1c0-2.7-0.1-4.9-0.2-7.2c0.4,0.1,1,0.1,1.6,0.1c0.6,0,1.2,0,1.6-0.1c-0.1,2.4-0.2,4.5-0.2,9.8
		c0,0.4,0,0.5,0.1,0.5c0.2,0,1.8-1.8,3.9-4.6c0.3,0,0.6,0.1,1,0.1c0.3,0,0.6-0.1,1.2-0.1c-0.7,0.8-3.1,3.2-3.7,3.8
		c0.3,0.5,3.4,5.5,3.8,6.3c-0.6,0-1.1-0.1-1.7-0.1c-0.5,0-1.1,0.1-1.6,0.1c-0.4-0.6-2.7-4.9-3-4.9c-0.1,0-0.1,0.1-0.1,2.1
		c0,0.8,0,2.3,0.1,2.8c-0.5,0-1-0.1-1.5-0.1c-0.5,0-1,0.1-1.5,0.1c0.1-2.4,0.2-4.5,0.2-7.2V25.1z"/>
	<path class="st0" d="M115.8,28.6c0,2.3,0.9,4,2.8,4c1,0,1.8-0.3,2.6-0.9l0.3,0.2l-0.5,1.2c-0.7,0.5-1.6,0.9-3.2,0.9
		c-2.7,0-5.1-1.6-5.1-5.3c0-3.6,2-5.4,4.9-5.4c2.7,0,4.3,1.7,4.3,4.6c0,0.4,0,0.5,0,0.7H115.8z M119,27.7c0-2.1-0.5-3.4-1.5-3.4
		c-1.2,0-1.6,1.8-1.7,3.4H119z"/>
	<path class="st0" d="M138.6,19.3c0.3,0.1,0.6,0.1,0.9,0.1c0.3,0,0.6,0,0.9-0.1c-1.4,3.3-4.1,9.6-5.7,14.4c-0.3,0-0.6-0.1-0.9-0.1
		c-0.3,0-0.6,0.1-0.9,0.1c-1.3-3.6-4.3-11.2-5.7-14.4c0.6,0.1,1.3,0.1,1.9,0.1c0.6,0,1.2,0,1.8-0.1c0.9,3.1,2.4,7,3.7,10.5
		C136.1,26.3,137.5,22.5,138.6,19.3"/>
	<path class="st0" d="M143.8,18c0.9,0,1.7,0.7,1.7,1.7s-0.7,1.7-1.7,1.7c-0.9,0-1.7-0.7-1.7-1.7S142.9,18,143.8,18 M142.4,28.2
		c0-1.7,0-3.2-0.2-4.6c0.4,0,0.9,0.1,1.6,0.1c0.6,0,1.2-0.1,1.6-0.1c-0.1,1.5-0.2,2.9-0.2,4.6V29c0,1.7,0,3.2,0.2,4.6
		c-0.4,0-0.9-0.1-1.6-0.1c-0.6,0-1.2,0.1-1.6,0.1c0.1-1.5,0.2-2.9,0.2-4.6V28.2z"/>
	<path class="st0" d="M150.7,28.6c0,2.3,0.9,4,2.8,4c1,0,1.8-0.3,2.6-0.9l0.3,0.2l-0.5,1.2c-0.7,0.5-1.6,0.9-3.2,0.9
		c-2.7,0-5.1-1.6-5.1-5.3c0-3.6,2-5.4,4.9-5.4c2.7,0,4.3,1.7,4.3,4.6c0,0.4,0,0.5,0,0.7H150.7z M153.9,27.7c0-2.1-0.5-3.4-1.5-3.4
		c-1.2,0-1.6,1.8-1.7,3.4H153.9z"/>
	<path class="st0" d="M169.5,30.8c0.8-2.4,1.5-4.8,2.1-7.2c0.3,0,0.5,0.1,0.8,0.1c0.3,0,0.5-0.1,0.9-0.1c-0.6,1.1-2.5,6.8-3.5,10.1
		c-0.4,0-0.8-0.1-1.1-0.1c-0.4,0-0.8,0.1-1.2,0.1c-0.6-2.3-1.5-4.9-2-6.9h0c-0.7,2.3-1.4,4.6-2.1,6.9c-0.4,0-0.8-0.1-1.2-0.1
		c-0.4,0-0.8,0.1-1.2,0.1c-0.9-3.3-2.9-9.3-3.2-10.1c0.6,0,1.1,0.1,1.6,0.1c0.5,0,1-0.1,1.5-0.1c0.7,2.4,1.4,5.1,2.1,7.2h0
		c0.8-2.4,1.4-4.8,2.1-7.2c0.4,0,0.8,0.1,1.2,0.1c0.4,0,0.8-0.1,1.2-0.1C168,26,168.7,28.4,169.5,30.8L169.5,30.8z"/>
	<path class="st0" d="M93.8,43.5c-0.9-1.3-2.2-2.1-4.1-2.1c-2.6,0-5.3,2.2-5.3,6.5c0,3.3,1.9,5.8,5.1,5.8c0.7,0,1.9-0.1,2.3-0.4
		c0.1-0.3,0.1-0.9,0.1-1.5c0-2.3-0.1-3.2-0.1-3.6c0.3,0,0.7,0.1,1.5,0.1c1,0,1.4-0.1,1.7-0.1c-0.1,0.4-0.2,2.2-0.2,3.5
		c0,0.9,0,2,0.1,2.3c-1.8,0.5-3.7,0.9-5.6,0.9c-4.8,0-8.3-2.7-8.3-7c0-5.3,3.7-8,8.7-8c2.1,0,3.5,0.5,5,1.3
		c-0.2,0.7-0.5,1.4-0.6,2.1H93.8z"/>
	<path class="st0" d="M98,46.2c0-2.7-0.1-4.9-0.2-7.2c0.4,0.1,1,0.1,1.6,0.1c0.6,0,1.2,0,1.6-0.1c-0.1,2.4-0.2,4.5-0.2,7.2v1.4
		c0,2.7,0.1,4.9,0.2,7.2c-0.4-0.1-1-0.1-1.6-0.1c-0.6,0-1.2,0-1.6,0.1c0.1-2.4,0.2-4.5,0.2-7.2V46.2z"/>
	<path class="st0" d="M103.7,45.9c1.1-0.9,2.6-1.5,3.9-1.5c2.2,0,3.8,0.9,3.8,3.4c0,1.8-0.1,3.2-0.1,4.7c0,1.3,0.4,1.4,1.2,1.4v0.5
		c-0.8,0.4-1.3,0.6-1.9,0.6c-1,0-1.7-0.6-2-1.5c-0.6,0.9-1.4,1.5-2.7,1.5c-2.1,0-3-1.4-3-2.7c0-1.8,1.2-2.6,3.1-3.1
		c2.3-0.6,2.6-0.7,2.6-1.5c0-1-0.8-1.8-2-1.8c-1,0-2.1,0.6-2.5,1.1H104L103.7,45.9z M108.7,49.4c-1.2,0.7-2.8,0.6-2.8,2.7
		c0,1,0.5,1.6,1.2,1.6c0.9,0,1.5-0.7,1.5-2.1C108.6,50.4,108.7,49.9,108.7,49.4"/>
	<path class="st0" d="M117.1,46.3L117.1,46.3c0.8-1.1,1.9-1.8,3.2-1.8c1.3,0,2.2,0.7,2.7,2c0.8-1.3,2-2,3.2-2c2.1,0,3.3,1.2,3.3,3.8
		c0,1.4-0.1,2.4-0.1,3.5c0,0.9,0.1,2,0.1,3c-0.4-0.1-1-0.1-1.6-0.1c-0.6,0-1.2,0-1.6,0.1c0.2-1.5,0.2-3.5,0.2-6
		c0-1.7-0.6-2.6-1.7-2.6c-1.4,0-1.7,1.4-1.7,2.4v1.5c0,1.7,0,3.2,0.2,4.6c-0.4,0-0.9-0.1-1.6-0.1s-1.2,0.1-1.6,0.1
		c0.1-1.5,0.2-2.9,0.2-4.6v-1.3c0-1.7-0.4-2.6-1.5-2.6c-1.3,0-1.8,1.1-1.8,3.1v0.8c0,1.7,0,3.2,0.2,4.6c-0.4,0-0.9-0.1-1.6-0.1
		c-0.6,0-1.2,0.1-1.6,0.1c0.1-1.5,0.2-2.9,0.2-4.6v-0.8c0-1.7,0-3.2-0.2-4.6c0.5,0,1,0.1,1.5,0.1c0.5,0,1-0.1,1.5-0.1L117.1,46.3z"
		/>
	<path class="st0" d="M132,51.9c0-2.7-0.1-4.9-0.2-7.2c0.5,0,1,0.1,1.5,0.1c0.5,0,1-0.1,1.4-0.1c0,0.5-0.1,1.2-0.1,1.8h0
		c0.4-1.2,1.5-2.1,3-2.1c2.1,0,4.1,1.5,4.1,5.2c0,4-2.1,5.5-4.1,5.5c-1.2,0-2.2-0.5-2.7-1.5h0c0,2,0,5.7,0.2,6.8
		c-0.4-0.1-1-0.1-1.6-0.1c-0.6,0-1.2,0-1.6,0.1c0.1-2.4,0.2-4.5,0.2-7.2V51.9z M136.7,45.7c-1,0-2,1.1-2,4.3c0,2.5,0.7,3.7,1.9,3.7
		c1.2,0,1.9-1.3,1.9-4.1C138.6,46.9,137.9,45.7,136.7,45.7"/>
	<path class="st0" d="M145.5,39.1c0.9,0,1.7,0.7,1.7,1.7c0,0.9-0.7,1.7-1.7,1.7c-0.9,0-1.7-0.7-1.7-1.7
		C143.9,39.8,144.6,39.1,145.5,39.1 M144.1,49.3c0-1.7,0-3.2-0.2-4.6c0.4,0,0.9,0.1,1.6,0.1s1.2-0.1,1.6-0.1
		c-0.1,1.5-0.2,2.9-0.2,4.6v0.8c0,1.7,0,3.2,0.2,4.6c-0.4,0-0.9-0.1-1.6-0.1s-1.2,0.1-1.6,0.1c0.1-1.5,0.2-2.9,0.2-4.6V49.3z"/>
	<path class="st0" d="M152.7,46.3L152.7,46.3c0.8-1.1,1.9-1.8,3.2-1.8c2.1,0,3.3,1.2,3.3,3.8c0,1.4-0.1,2.4-0.1,3.5
		c0,0.9,0.1,2,0.1,3c-0.4-0.1-1-0.1-1.6-0.1c-0.6,0-1.2,0-1.6,0.1c0.2-1.5,0.2-3.5,0.2-6c0-1.7-0.6-2.6-1.7-2.6
		c-1.3,0-1.8,1.1-1.8,3.1v0.8c0,1.7,0,3.2,0.2,4.6c-0.4,0-0.9-0.1-1.6-0.1c-0.6,0-1.2,0.1-1.6,0.1c0.1-1.5,0.2-2.9,0.2-4.6v-0.8
		c0-1.7,0-3.2-0.2-4.6c0.5,0,1,0.1,1.5,0.1c0.5,0,1-0.1,1.5-0.1L152.7,46.3z"/>
	<path class="st0" d="M168.7,45.5L168.7,45.5c0.6,0.5,1.1,1.3,1.1,2.4c0,2.1-1.7,3.5-4.1,3.5c-0.3,0-0.6,0-0.9,0
		c-0.3,0-0.6,0.4-0.6,0.8c0,0.7,0.5,1.1,1.6,1.1l1.5,0c2.3,0,3.4,0.9,3.4,2.8c0,3.3-3.1,4.5-5.5,4.5c-2.6,0-4.2-1.1-4.2-2.8
		c0-1.3,0.8-2.1,2-2.6v0c-0.7-0.3-1.2-0.8-1.2-1.6c0-0.9,0.8-1.9,1.9-2.2v0c-0.8-0.2-1.5-0.6-2-1.1c-0.5-0.5-0.7-1.3-0.7-2.2
		c0-2.1,1.8-3.4,4.4-3.4c0.5,0,1,0.1,1.5,0.1c0.4,0,0.7,0,1.2,0c0.7,0,1.5,0,2.2,0c0,0.2,0,0.3,0,0.5s0,0.3,0,0.5L168.7,45.5z
		 M165.3,55.1c-0.7,0-1.2,0.1-1.5,0.2c-0.3,0.2-0.8,0.8-0.8,1.8c0,1.6,1.3,2.4,2.7,2.4c1.6,0,2.6-1.1,2.6-2.5
		C168.3,55.4,167.2,55.1,165.3,55.1 M164.1,48c0,1.8,0.7,2.5,1.4,2.5c0.9,0,1.4-0.8,1.4-2.7c0-1.9-0.6-2.6-1.3-2.6
		C164.6,45.3,164.1,46.2,164.1,48"/>
	<path class="st0" d="M33.3,9.6c0,0,0.1,0,0.1,0c0.2,0,0.4,0,0.5-0.1c0.2,0,0.5,0,0.7-0.1c0.3,0,0.5-0.1,0.8-0.1c0.1,0,0.2,0,0.3,0
		c0,0,0,0,0,0c-0.2-0.3-0.4-0.5-0.6-0.8C35,8.3,34.8,8.2,34.7,8c0,0,0,0,0,0c0,0,0,0,0,0c0.1,0.1,0.2,0.2,0.4,0.3
		c0.2,0.2,0.4,0.3,0.5,0.4C35.8,8.8,35.9,8.9,36,9c0,0,0,0,0,0c0-0.2,0.1-0.4,0.1-0.6c0-0.2,0.1-0.4,0.1-0.7c0-0.1,0-0.2,0-0.4
		c0-0.1,0-0.3,0-0.4c0-0.1,0-0.2,0-0.3c0,0,0,0,0-0.1c0,0,0,0.1,0,0.1c0,0.2,0,0.4,0.1,0.6c0,0.1,0,0.3,0,0.4c0,0.1,0,0.3,0,0.4
		c0,0.2,0,0.4,0.1,0.5c0,0.1,0,0.3,0.1,0.4c0,0,0,0,0,0c0.3-0.2,0.5-0.4,0.8-0.6c0.1-0.1,0.3-0.3,0.4-0.4c0,0,0,0,0,0c0,0,0,0,0,0
		c-0.1,0.1-0.2,0.2-0.3,0.4c-0.2,0.2-0.3,0.4-0.4,0.5C37,9,36.9,9.1,36.9,9.2c0,0,0,0,0,0c0.2,0,0.4,0.1,0.6,0.1
		c0.2,0,0.4,0.1,0.7,0.1c0.1,0,0.2,0,0.4,0c0.1,0,0.3,0,0.4,0c0.1,0,0.2,0,0.3,0c0,0,0,0,0.1,0c0,0-0.1,0-0.1,0
		c-0.2,0-0.4,0-0.6,0.1c-0.1,0-0.3,0-0.4,0c-0.1,0-0.3,0-0.4,0c-0.2,0-0.4,0-0.5,0.1c-0.1,0-0.3,0-0.4,0.1c0,0,0,0,0,0
		c0.2,0.3,0.4,0.5,0.6,0.8c0.1,0.1,0.3,0.3,0.4,0.4c0,0,0,0,0,0c0,0,0,0,0,0c-0.1-0.1-0.2-0.2-0.4-0.3c-0.2-0.2-0.4-0.3-0.5-0.4
		c-0.1-0.1-0.2-0.2-0.3-0.2c0,0,0,0,0,0c0,0.2-0.1,0.4-0.1,0.6c0,0.2-0.1,0.4-0.1,0.7c0,0.1,0,0.2,0,0.4c0,0.1,0,0.3,0,0.4
		c0,0.1,0,0.2,0,0.3c0,0,0,0,0,0.1c0,0,0-0.1,0-0.1c0-0.2,0-0.4-0.1-0.6c0-0.1,0-0.3,0-0.4c0-0.1,0-0.3,0-0.4c0-0.2,0-0.4-0.1-0.5
		c0-0.1,0-0.3-0.1-0.4c0,0,0,0,0,0c-0.3,0.2-0.5,0.4-0.8,0.6c-0.1,0.1-0.3,0.3-0.4,0.4c0,0,0,0,0,0c0,0,0,0,0,0
		c0.1-0.1,0.2-0.2,0.3-0.4c0.2-0.2,0.3-0.4,0.4-0.5c0.1-0.1,0.2-0.2,0.2-0.3c0,0,0,0,0,0c-0.2,0-0.4-0.1-0.6-0.1
		c-0.2,0-0.4-0.1-0.7-0.1c-0.1,0-0.2,0-0.4,0c-0.1,0-0.3,0-0.4,0C33.5,9.6,33.4,9.6,33.3,9.6C33.3,9.6,33.3,9.6,33.3,9.6"/>
	<path class="st0" d="M16.3,18.3C16.3,18.3,16.3,18.3,16.3,18.3c-0.1,0.2-0.1,0.3-0.1,0.4c0,0.2-0.1,0.3-0.1,0.5
		c0,0.2-0.1,0.3-0.1,0.5c0,0.1,0,0.1-0.1,0.2c0,0,0,0,0,0c0.2-0.1,0.4-0.1,0.7-0.2c0.1,0,0.2-0.1,0.3-0.1c0,0,0,0,0,0c0,0,0,0,0,0
		c-0.1,0.1-0.2,0.1-0.3,0.1c-0.1,0.1-0.3,0.1-0.4,0.2c-0.1,0-0.2,0.1-0.2,0.1c0,0,0,0,0,0c0.1,0.1,0.2,0.1,0.3,0.2
		c0.1,0.1,0.3,0.2,0.4,0.2c0.1,0,0.1,0.1,0.2,0.1c0.1,0,0.2,0.1,0.3,0.1c0.1,0,0.1,0.1,0.2,0.1c0,0,0,0,0,0c0,0-0.1,0-0.1,0
		c-0.1,0-0.2-0.1-0.4-0.1c-0.1,0-0.2-0.1-0.2-0.1c-0.1,0-0.2,0-0.3-0.1c-0.1,0-0.2-0.1-0.3-0.1c-0.1,0-0.2-0.1-0.3-0.1c0,0,0,0,0,0
		c0.1,0.2,0.1,0.4,0.2,0.6c0,0.1,0.1,0.2,0.1,0.4c0,0,0,0,0,0c0,0,0,0,0,0c-0.1-0.1-0.1-0.2-0.1-0.3c-0.1-0.1-0.1-0.3-0.2-0.4
		c0-0.1-0.1-0.2-0.1-0.2c0,0,0,0,0,0c-0.1,0.1-0.1,0.2-0.2,0.3c-0.1,0.1-0.2,0.3-0.2,0.4c0,0.1-0.1,0.1-0.1,0.2
		c0,0.1-0.1,0.2-0.1,0.3c0,0.1-0.1,0.1-0.1,0.2c0,0,0,0,0,0c0,0,0-0.1,0-0.1c0-0.1,0.1-0.2,0.1-0.4c0-0.1,0.1-0.2,0.1-0.2
		c0-0.1,0-0.2,0.1-0.3c0-0.1,0.1-0.2,0.1-0.3c0-0.1,0.1-0.2,0.1-0.3c0,0,0,0,0,0c-0.2,0.1-0.4,0.1-0.6,0.2c-0.1,0-0.2,0.1-0.4,0.1
		c0,0,0,0,0,0c0,0,0,0,0,0c0.1-0.1,0.2-0.1,0.3-0.1c0.1-0.1,0.3-0.1,0.4-0.2c0.1,0,0.2-0.1,0.2-0.1c0,0,0,0,0,0
		c-0.1-0.1-0.2-0.1-0.3-0.2c-0.1-0.1-0.3-0.2-0.4-0.2c-0.1,0-0.1-0.1-0.2-0.1c-0.1,0-0.2-0.1-0.3-0.1c-0.1,0-0.1-0.1-0.2-0.1
		c0,0,0,0,0,0c0,0,0.1,0,0.1,0c0.1,0,0.2,0.1,0.4,0.1c0.1,0,0.2,0.1,0.2,0.1c0.1,0,0.2,0,0.3,0.1c0.1,0,0.2,0.1,0.3,0.1
		c0.1,0,0.2,0.1,0.3,0.1c0,0,0,0,0,0c-0.1-0.2-0.1-0.4-0.2-0.6c0-0.1-0.1-0.2-0.1-0.4c0,0,0,0,0,0c0,0,0,0,0,0
		c0.1,0.1,0.1,0.2,0.1,0.3c0.1,0.1,0.1,0.3,0.2,0.4c0,0.1,0.1,0.2,0.1,0.2c0,0,0,0,0,0c0.1-0.1,0.1-0.2,0.2-0.3
		c0.1-0.1,0.2-0.3,0.2-0.4c0-0.1,0.1-0.1,0.1-0.2c0-0.1,0.1-0.2,0.1-0.3C16.2,18.4,16.2,18.3,16.3,18.3
		C16.3,18.3,16.3,18.3,16.3,18.3"/>
	<path class="st0" d="M56.5,18.3C56.5,18.3,56.5,18.3,56.5,18.3c0.1,0.2,0.1,0.3,0.1,0.4c0,0.2,0.1,0.3,0.1,0.5
		c0,0.2,0.1,0.3,0.1,0.5c0,0.1,0,0.1,0.1,0.2c0,0,0,0,0,0c-0.2-0.1-0.4-0.1-0.7-0.2c-0.1,0-0.2-0.1-0.3-0.1c0,0,0,0,0,0c0,0,0,0,0,0
		c0.1,0.1,0.2,0.1,0.3,0.1c0.1,0.1,0.3,0.1,0.4,0.2c0.1,0,0.2,0.1,0.2,0.1c0,0,0,0,0,0c-0.1,0.1-0.2,0.1-0.3,0.2
		c-0.1,0.1-0.3,0.2-0.4,0.2c-0.1,0-0.1,0.1-0.2,0.1c-0.1,0-0.2,0.1-0.3,0.1c-0.1,0-0.1,0.1-0.2,0.1c0,0,0,0,0,0c0,0,0.1,0,0.1,0
		c0.1,0,0.2-0.1,0.4-0.1c0.1,0,0.2-0.1,0.2-0.1c0.1,0,0.2,0,0.3-0.1c0.1,0,0.2-0.1,0.3-0.1c0.1,0,0.2-0.1,0.3-0.1c0,0,0,0,0,0
		c-0.1,0.2-0.1,0.4-0.2,0.6c0,0.1-0.1,0.2-0.1,0.4c0,0,0,0,0,0c0,0,0,0,0,0c0.1-0.1,0.1-0.2,0.1-0.3c0.1-0.1,0.1-0.3,0.2-0.4
		c0-0.1,0.1-0.2,0.1-0.2c0,0,0,0,0,0c0.1,0.1,0.1,0.2,0.2,0.3c0.1,0.1,0.2,0.3,0.2,0.4c0,0.1,0.1,0.1,0.1,0.2c0,0.1,0.1,0.2,0.1,0.3
		c0,0.1,0.1,0.1,0.1,0.2c0,0,0,0,0,0c0,0,0-0.1,0-0.1c0-0.1-0.1-0.2-0.1-0.4c0-0.1-0.1-0.2-0.1-0.2c0-0.1,0-0.2-0.1-0.3
		c0-0.1-0.1-0.2-0.1-0.3c0-0.1-0.1-0.2-0.1-0.3c0,0,0,0,0,0c0.2,0.1,0.4,0.1,0.6,0.2c0.1,0,0.2,0.1,0.4,0.1c0,0,0,0,0,0c0,0,0,0,0,0
		c-0.1-0.1-0.2-0.1-0.3-0.1c-0.1-0.1-0.3-0.1-0.4-0.2c-0.1,0-0.2-0.1-0.2-0.1c0,0,0,0,0,0c0.1-0.1,0.2-0.1,0.3-0.2
		c0.1-0.1,0.3-0.2,0.4-0.2c0.1,0,0.1-0.1,0.2-0.1c0.1,0,0.2-0.1,0.3-0.1c0.1,0,0.1-0.1,0.2-0.1c0,0,0,0,0,0c0,0-0.1,0-0.1,0
		c-0.1,0-0.2,0.1-0.4,0.1c-0.1,0-0.2,0.1-0.2,0.1c-0.1,0-0.2,0-0.3,0.1c-0.1,0-0.2,0.1-0.3,0.1c-0.1,0-0.2,0.1-0.3,0.1c0,0,0,0,0,0
		c0.1-0.2,0.1-0.4,0.2-0.6c0-0.1,0.1-0.2,0.1-0.4c0,0,0,0,0,0c0,0,0,0,0,0c-0.1,0.1-0.1,0.2-0.1,0.3c-0.1,0.1-0.1,0.3-0.2,0.4
		c0,0.1-0.1,0.2-0.1,0.2c0,0,0,0,0,0c-0.1-0.1-0.1-0.2-0.2-0.3c-0.1-0.1-0.2-0.3-0.2-0.4c0-0.1-0.1-0.1-0.1-0.2
		c0-0.1-0.1-0.2-0.1-0.3C56.6,18.4,56.5,18.3,56.5,18.3C56.5,18.3,56.5,18.3,56.5,18.3"/>
	<path class="st0" d="M48.2,6.3C48.2,6.3,48.2,6.4,48.2,6.3c0,0.1,0,0.1,0,0.1c0,0,0,0,0,0c0,0,0,0.1,0,0.1c0,0.1,0,0.1,0,0.2
		c0,0,0,0.1,0,0.1c0,0.1,0.1,0.1,0.1,0.2c0,0.1,0.1,0.1,0.2,0.1c0,0,0.1,0,0.1,0c0.1,0,0.1,0,0.2,0c0,0,0.1,0,0.1,0c0,0,0,0,0.1,0
		c0,0,0,0,0,0c0,0,0,0,0,0c0,0,0,0,0,0c0,0,0,0,0,0c0,0,0,0,0,0c0,0,0,0-0.1,0c0,0,0,0-0.1,0c0,0,0,0,0,0c0,0-0.1,0-0.1,0
		c-0.1,0-0.1,0-0.2,0c-0.1,0-0.2,0.1-0.2,0.1c0,0-0.1,0.1-0.1,0.1c0,0.1-0.1,0.1-0.1,0.2c0,0.1,0,0.1,0,0.2c0,0,0,0.1,0,0.1
		c0,0,0,0,0,0.1c0,0,0,0.1,0,0.1c0,0,0,0,0,0c0,0,0,0,0,0c0,0,0,0,0,0c0,0,0-0.1,0-0.1c0,0,0,0,0-0.1c0,0,0-0.1,0-0.1
		c0-0.1,0-0.1,0-0.2c0-0.1-0.1-0.2-0.1-0.2c0,0-0.1-0.1-0.1-0.1c-0.1,0-0.1-0.1-0.2-0.1c-0.1,0-0.1,0-0.2,0c0,0-0.1,0-0.1,0
		c0,0,0,0,0,0c0,0,0,0,0,0c0,0,0,0,0,0c0,0,0,0,0,0c0,0,0,0,0,0c0,0,0,0,0,0c0,0,0,0,0.1,0c0,0,0,0,0.1,0c0,0,0,0,0,0
		c0,0,0.1,0,0.1,0c0.1,0,0.1,0,0.2,0c0,0,0,0,0.1,0c0.1,0,0.1,0,0.2-0.1C48,7,48,7,48,6.9c0-0.1,0.1-0.1,0.1-0.2c0-0.1,0-0.1,0-0.2
		c0,0,0-0.1,0-0.1c0,0,0,0,0,0C48.2,6.5,48.2,6.4,48.2,6.3C48.2,6.4,48.2,6.4,48.2,6.3C48.2,6.4,48.2,6.3,48.2,6.3L48.2,6.3z"/>
	<path class="st0" d="M60.4,27.6C60.4,27.6,60.4,27.6,60.4,27.6c-0.1,0.1-0.1,0.1-0.1,0.1c0,0,0,0,0,0c0,0,0,0,0,0.1
		c0,0.1-0.1,0.1-0.1,0.2c0,0,0,0.1,0,0.1c0,0.1,0,0.1,0,0.2c0,0.1,0,0.1,0.1,0.2c0,0,0,0.1,0.1,0.1c0,0,0.1,0.1,0.1,0.1
		c0,0,0,0.1,0.1,0.1c0,0,0,0,0,0c0,0,0,0,0,0c0,0,0,0,0,0c0,0,0,0,0,0c0,0,0,0,0,0c0,0,0,0,0,0c0,0,0,0-0.1,0c0,0,0,0-0.1,0
		c0,0,0,0,0,0c0,0-0.1,0-0.1-0.1c-0.1,0-0.1-0.1-0.2-0.1c-0.1,0-0.2-0.1-0.3-0.1c-0.1,0-0.1,0-0.2,0c-0.1,0-0.1,0.1-0.2,0.1
		c-0.1,0-0.1,0.1-0.2,0.1c0,0-0.1,0-0.1,0.1c0,0,0,0,0,0c0,0,0,0-0.1,0.1c0,0,0,0,0,0c0,0,0,0,0,0c0,0,0,0,0,0c0,0,0.1-0.1,0.1-0.1
		c0,0,0,0,0,0c0,0,0-0.1,0.1-0.1c0-0.1,0.1-0.1,0.1-0.2c0-0.1,0.1-0.2,0.1-0.3c0-0.1,0-0.1,0-0.2c0-0.1-0.1-0.1-0.1-0.2
		c0-0.1-0.1-0.1-0.1-0.2c0,0,0-0.1-0.1-0.1c0,0,0,0,0,0c0,0,0,0,0,0c0,0,0,0,0,0c0,0,0,0,0,0c0,0,0,0,0,0c0,0,0,0,0,0c0,0,0,0,0,0
		c0,0,0,0,0.1,0c0,0,0,0,0,0c0,0,0,0,0.1,0c0.1,0,0.1,0.1,0.2,0.1c0,0,0,0,0.1,0c0.1,0,0.1,0,0.2,0c0.1,0,0.1,0,0.2,0
		c0.1,0,0.1-0.1,0.2-0.1c0,0,0.1-0.1,0.1-0.1c0,0,0.1,0,0.1-0.1c0,0,0,0,0,0C60.3,27.7,60.3,27.7,60.4,27.6
		C60.3,27.6,60.3,27.6,60.4,27.6C60.4,27.6,60.4,27.6,60.4,27.6L60.4,27.6z"/>
	<path class="st0" d="M20,8.4C20,8.4,20,8.4,20,8.4C20,8.5,20,8.5,20,8.4c-0.1,0.1-0.1,0.1-0.1,0.1c0,0,0,0,0,0.1
		c0,0-0.1,0.1-0.1,0.1c0,0,0,0,0,0.1c0,0,0,0.1,0,0.1c0,0.1,0,0.1,0,0.2c0,0,0,0.1,0.1,0.1c0,0,0.1,0.1,0.1,0.1c0,0,0,0,0,0.1
		c0,0,0,0,0,0c0,0,0,0,0,0c0,0,0,0,0,0c0,0,0,0,0,0c0,0,0,0,0,0c0,0,0,0,0,0c0,0,0,0,0,0c0,0,0,0,0,0c0,0,0,0,0,0c0,0,0,0-0.1,0
		c0,0-0.1,0-0.1-0.1c-0.1,0-0.1,0-0.2-0.1c0,0-0.1,0-0.1,0c0,0-0.1,0-0.1,0.1c0,0-0.1,0.1-0.1,0.1c0,0,0,0-0.1,0c0,0,0,0,0,0
		c0,0,0,0,0,0c0,0,0,0,0,0c0,0,0,0,0,0c0,0,0,0,0,0c0,0,0-0.1,0.1-0.1c0,0,0,0,0,0c0,0,0,0,0-0.1c0,0,0-0.1,0.1-0.1
		c0-0.1,0-0.1,0.1-0.2c0,0,0-0.1,0-0.1c0,0,0-0.1-0.1-0.1c0,0-0.1-0.1-0.1-0.1c0,0,0,0,0-0.1c0,0,0,0,0,0c0,0,0,0,0,0c0,0,0,0,0,0
		c0,0,0,0,0,0c0,0,0,0,0,0c0,0,0,0,0,0c0,0,0,0,0,0c0,0,0,0,0,0c0,0,0,0,0,0c0,0,0,0,0.1,0c0,0,0.1,0.1,0.1,0.1c0,0,0,0,0.1,0
		c0,0,0.1,0,0.1,0c0,0,0.1,0,0.1,0c0,0,0.1,0,0.1-0.1c0,0,0.1-0.1,0.1-0.1c0,0,0,0,0.1,0C19.9,8.5,19.9,8.5,20,8.4
		C19.9,8.5,19.9,8.5,20,8.4C20,8.4,20,8.4,20,8.4C20,8.4,20,8.4,20,8.4C20,8.4,20,8.4,20,8.4"/>
	<path class="st0" d="M31.7,5.3C31.6,5.3,31.6,5.3,31.7,5.3c-0.1,0-0.1,0-0.1,0c0,0,0,0,0,0c0,0,0,0-0.1,0c-0.1,0-0.1,0.1-0.2,0.1
		c0,0-0.1,0-0.1,0c0,0-0.1,0.1-0.1,0.1C31,5.6,31,5.7,31,5.8c0,0,0,0.1,0,0.1c0,0.1,0,0.1,0,0.2c0,0,0,0.1,0,0.1c0,0,0,0,0,0.1
		c0,0,0,0,0,0c0,0,0,0,0,0c0,0,0,0,0,0c0,0,0,0,0,0c0,0,0,0,0,0c0,0,0,0,0-0.1c0,0,0,0,0-0.1c0,0,0,0,0,0c0,0,0-0.1,0-0.1
		c0-0.1,0-0.1-0.1-0.2c0-0.1-0.1-0.1-0.1-0.2c0,0-0.1-0.1-0.1-0.1c-0.1,0-0.1,0-0.2,0c-0.1,0-0.1,0-0.2,0c0,0-0.1,0-0.1,0
		c0,0,0,0-0.1,0c0,0,0,0-0.1,0c0,0,0,0,0,0c0,0,0,0,0,0c0,0,0,0,0,0c0,0,0.1,0,0.1,0c0,0,0,0,0,0c0,0,0.1,0,0.1,0
		c0.1,0,0.1,0,0.2-0.1c0.1,0,0.1-0.1,0.2-0.2c0,0,0.1-0.1,0.1-0.1c0-0.1,0-0.1,0-0.2c0-0.1,0-0.1,0-0.2c0,0,0-0.1,0-0.1c0,0,0,0,0,0
		c0,0,0,0,0,0c0,0,0,0,0,0c0,0,0,0,0,0c0,0,0,0,0,0c0,0,0,0,0,0c0,0,0,0,0,0c0,0,0,0,0,0.1c0,0,0,0,0,0c0,0,0,0.1,0,0.1
		c0,0.1,0.1,0.1,0.1,0.2c0,0,0,0,0,0.1c0,0.1,0.1,0.1,0.1,0.1c0,0,0.1,0.1,0.1,0.1c0.1,0,0.1,0,0.2,0c0.1,0,0.1,0,0.2,0
		c0,0,0.1,0,0.1,0c0,0,0,0,0,0C31.5,5.3,31.5,5.3,31.7,5.3C31.6,5.3,31.6,5.3,31.7,5.3C31.6,5.3,31.6,5.3,31.7,5.3
		C31.7,5.3,31.7,5.3,31.7,5.3"/>
	<path class="st0" d="M46.5,18.9C46.5,18.9,46.5,18.9,46.5,18.9C46.5,18.9,46.5,18.9,46.5,18.9c-0.1,0-0.1,0-0.1,0c0,0,0,0-0.1,0
		c0,0-0.1,0-0.1,0.1c0,0,0,0-0.1,0c0,0-0.1,0.1-0.1,0.1c0,0-0.1,0.1-0.1,0.1c0,0,0,0.1,0,0.1c0,0,0,0.1,0,0.1c0,0,0,0,0,0.1
		c0,0,0,0,0,0c0,0,0,0,0,0c0,0,0,0,0,0c0,0,0,0,0,0c0,0,0,0,0,0c0,0,0,0,0,0c0,0,0,0,0-0.1c0,0,0,0,0,0c0,0,0,0,0,0c0,0,0,0,0-0.1
		c0,0,0-0.1-0.1-0.1c0-0.1-0.1-0.1-0.1-0.2c0,0-0.1,0-0.1-0.1c0,0-0.1,0-0.1,0c0,0-0.1,0-0.1,0c0,0,0,0-0.1,0c0,0,0,0,0,0
		c0,0,0,0-0.1,0c0,0,0,0,0,0c0,0,0,0,0,0c0,0,0,0,0,0c0,0,0.1,0,0.1,0c0,0,0,0,0,0c0,0,0,0,0.1,0c0,0,0.1,0,0.1-0.1
		c0.1,0,0.1-0.1,0.2-0.1c0,0,0-0.1,0.1-0.1c0,0,0-0.1,0-0.1c0,0,0-0.1,0-0.1c0,0,0,0,0-0.1c0,0,0,0,0,0c0,0,0,0,0,0c0,0,0,0,0,0
		c0,0,0,0,0,0c0,0,0,0,0,0c0,0,0,0,0,0c0,0,0,0,0,0c0,0,0,0,0,0c0,0,0,0,0,0c0,0,0,0,0,0.1c0,0,0,0.1,0.1,0.1c0,0,0,0,0,0
		c0,0,0.1,0.1,0.1,0.1c0,0,0.1,0,0.1,0.1c0,0,0.1,0,0.1,0c0,0,0.1,0,0.1,0c0,0,0,0,0.1,0c0,0,0,0,0,0C46.4,18.9,46.4,18.9,46.5,18.9
		C46.5,18.9,46.5,18.9,46.5,18.9C46.5,18.9,46.5,18.9,46.5,18.9C46.5,18.9,46.5,18.9,46.5,18.9"/>
	<path class="st0" d="M6.5,25.5C6.5,25.5,6.5,25.6,6.5,25.5C6.5,25.6,6.4,25.6,6.5,25.5c-0.1,0-0.1,0-0.1,0c0,0,0,0-0.1,0
		c0,0-0.1,0-0.1,0.1c0,0,0,0-0.1,0c0,0-0.1,0.1-0.1,0.1C6,25.9,6,25.9,6,26c0,0,0,0.1,0,0.1c0,0,0,0.1,0,0.1c0,0,0,0.1,0,0.1
		c0,0,0,0,0,0c0,0,0,0,0,0c0,0,0,0,0,0c0,0,0,0,0,0c0,0,0,0,0,0c0,0,0,0,0,0c0,0,0,0,0-0.1c0,0,0,0,0,0c0,0,0,0,0,0c0,0,0,0,0-0.1
		c0,0,0-0.1-0.1-0.1c0-0.1-0.1-0.1-0.1-0.2c0,0-0.1,0-0.1-0.1c0,0-0.1,0-0.1,0c0,0-0.1,0-0.1,0c0,0,0,0-0.1,0c0,0,0,0,0,0
		c0,0,0,0-0.1,0c0,0,0,0,0,0c0,0,0,0,0,0c0,0,0,0,0,0c0,0,0.1,0,0.1,0c0,0,0,0,0,0c0,0,0,0,0.1,0c0,0,0.1,0,0.1-0.1
		c0.1,0,0.1-0.1,0.2-0.1c0,0,0-0.1,0.1-0.1c0,0,0-0.1,0-0.1c0,0,0-0.1,0-0.1c0,0,0,0,0-0.1c0,0,0,0,0,0c0,0,0,0,0,0c0,0,0,0,0,0
		c0,0,0,0,0,0c0,0,0,0,0,0c0,0,0,0,0,0c0,0,0,0,0,0c0,0,0,0,0,0c0,0,0,0,0,0c0,0,0,0,0,0.1c0,0,0,0.1,0.1,0.1c0,0,0,0,0,0.1
		c0,0,0.1,0.1,0.1,0.1c0,0,0.1,0,0.1,0.1c0,0,0.1,0,0.1,0c0,0,0.1,0,0.1,0c0,0,0.1,0,0.1,0c0,0,0,0,0,0C6.4,25.6,6.4,25.6,6.5,25.5
		C6.4,25.6,6.5,25.5,6.5,25.5C6.5,25.5,6.5,25.5,6.5,25.5C6.5,25.5,6.5,25.5,6.5,25.5"/>
	<path class="st0" d="M29.6,18.5C29.6,18.5,29.5,18.5,29.6,18.5c-0.1,0-0.1,0-0.1,0c0,0,0,0,0,0c0,0,0,0-0.1,0c-0.1,0-0.1,0-0.2,0
		c0,0-0.1,0-0.1,0c-0.1,0-0.1,0-0.2,0c-0.1,0-0.1,0.1-0.2,0.1c0,0-0.1,0.1-0.1,0.1c0,0-0.1,0.1-0.1,0.1c0,0,0,0.1,0,0.1c0,0,0,0,0,0
		c0,0,0,0,0,0c0,0,0,0,0,0c0,0,0,0,0,0c0,0,0,0,0,0c0,0,0,0,0,0c0,0,0,0,0-0.1c0,0,0,0,0-0.1c0,0,0,0,0,0c0,0,0-0.1,0-0.1
		c0-0.1,0-0.1,0-0.2c0-0.1,0-0.2,0-0.2c0,0,0-0.1-0.1-0.1c0,0-0.1-0.1-0.1-0.1c0,0-0.1-0.1-0.1-0.1c0,0,0,0-0.1,0c0,0,0,0,0,0
		c0,0,0,0-0.1,0c0,0,0,0,0,0c0,0,0,0,0,0c0,0,0,0,0,0c0,0,0.1,0,0.1,0c0,0,0,0,0,0c0,0,0.1,0,0.1,0c0.1,0,0.1,0,0.2,0
		c0.1,0,0.2,0,0.2,0c0,0,0.1,0,0.1-0.1c0,0,0.1-0.1,0.1-0.1c0,0,0.1-0.1,0.1-0.1c0,0,0,0,0-0.1c0,0,0,0,0,0c0,0,0,0,0,0c0,0,0,0,0,0
		c0,0,0,0,0,0c0,0,0,0,0,0c0,0,0,0,0,0c0,0,0,0,0,0c0,0,0,0,0,0.1c0,0,0,0,0,0c0,0,0,0,0,0.1c0,0.1,0,0.1,0,0.2c0,0,0,0,0,0.1
		c0,0.1,0,0.1,0,0.2c0,0,0,0.1,0.1,0.1c0,0,0.1,0.1,0.1,0.1c0,0,0.1,0.1,0.1,0.1c0,0,0.1,0,0.1,0c0,0,0,0,0,0
		C29.5,18.5,29.5,18.5,29.6,18.5C29.5,18.5,29.5,18.5,29.6,18.5C29.5,18.5,29.6,18.5,29.6,18.5C29.6,18.5,29.6,18.5,29.6,18.5"/>
	<path class="st0" d="M58.1,14C58,14,58,14,58.1,14c-0.1,0-0.1,0-0.1,0c0,0,0,0,0,0c0,0,0,0-0.1,0c-0.1,0-0.1,0-0.2,0.1
		c0,0,0,0-0.1,0c0,0-0.1,0.1-0.1,0.1c0,0.1-0.1,0.1-0.1,0.2c0,0,0,0.1,0,0.1c0,0,0,0.1,0,0.1c0,0,0,0.1,0,0.1c0,0,0,0,0,0
		c0,0,0,0,0,0c0,0,0,0,0,0c0,0,0,0,0,0c0,0,0,0,0,0c0,0,0,0,0,0c0,0,0,0,0-0.1c0,0,0,0,0-0.1c0,0,0,0,0,0c0,0,0,0,0-0.1
		c0,0,0-0.1-0.1-0.1c0-0.1-0.1-0.1-0.1-0.2c0,0-0.1-0.1-0.1-0.1c-0.1,0-0.1,0-0.2,0c-0.1,0-0.1,0-0.2,0c0,0-0.1,0-0.1,0c0,0,0,0,0,0
		c0,0,0,0-0.1,0c0,0,0,0,0,0c0,0,0,0,0,0c0,0,0,0,0,0c0,0,0.1,0,0.1,0c0,0,0,0,0,0c0,0,0,0,0.1,0c0,0,0.1,0,0.1-0.1
		c0.1,0,0.1-0.1,0.2-0.1c0,0,0.1-0.1,0.1-0.1c0-0.1,0-0.1,0-0.2c0-0.1,0-0.1,0-0.2c0,0,0-0.1,0-0.1c0,0,0,0,0,0c0,0,0,0,0,0
		c0,0,0,0,0,0c0,0,0,0,0,0c0,0,0,0,0,0s0,0,0,0c0,0,0,0,0,0c0,0,0,0,0,0.1c0,0,0,0,0,0c0,0,0,0,0,0.1c0,0.1,0,0.1,0.1,0.2
		c0,0,0,0,0,0.1c0,0,0.1,0.1,0.1,0.1c0,0,0.1,0.1,0.1,0.1c0.1,0,0.1,0,0.2,0c0,0,0.1,0,0.1,0c0,0,0.1,0,0.1,0c0,0,0,0,0,0
		C57.9,14,58,14,58.1,14C58,14,58,14,58.1,14C58,14,58,14,58.1,14C58.1,14,58.1,14,58.1,14"/>
	<path class="st0" d="M36.4,19.6C36.4,19.6,36.4,19.6,36.4,19.6L36.4,19.6C36.4,19.6,36.4,19.6,36.4,19.6
		C36.4,19.6,36.4,19.6,36.4,19.6C36.4,19.6,36.4,19.6,36.4,19.6"/>
	<path class="st0" d="M36.4,19.6L36.4,19.6C36.4,19.6,36.4,19.6,36.4,19.6C36.4,19.6,36.4,19.6,36.4,19.6"/>
	<path class="st0" d="M36.4,0C16.3,0,0,16.3,0,36.4c0,2.5,0.2,4.9,0.7,7.3c0.1,0.5,0.2,1,0.3,1.4c0.2,1,0.5,2,0.9,3
		c0.2,0.7,0.5,1.3,0.7,2c0.7,1.7,1.5,3.4,2.5,5c0.3,0.6,0.7,1.1,1,1.6C7.1,57.9,8,59.1,9,60.3c0.3,0.4,0.7,0.8,1,1.1
		c0.9,0.9,1.8,1.8,2.8,2.6c0.5,0.5,1.1,0.9,1.7,1.3c6.1,4.6,13.7,7.4,21.9,7.4c8.2,0,15.8-2.7,21.9-7.4c0.6-0.4,1.1-0.9,1.7-1.4
		c1-0.8,1.9-1.7,2.8-2.6c0.3-0.4,0.7-0.7,1-1.1c1-1.1,1.9-2.3,2.7-3.6c0.4-0.5,0.7-1.1,1-1.6c1-1.6,1.8-3.2,2.5-4.9
		c0.3-0.7,0.5-1.3,0.8-2c0.3-1,0.6-2,0.9-3.1c0.1-0.5,0.2-1,0.3-1.4c0.5-2.3,0.7-4.8,0.7-7.3C72.7,16.3,56.4,0,36.4,0 M36.4,71.3
		c-5.7,0-11.1-1.4-15.9-3.8c0.3,0,0.7,0.1,1.1,0.1c2,0,3.1-0.6,4.1-1.2c0.9-0.5,1.7-1,3.3-1c1.7,0,2.4,0.5,3.3,1
		c0.9,0.6,2,1.2,4.1,1.2c2,0,3.1-0.6,4.1-1.2c0.9-0.5,1.7-1,3.3-1c1.7,0,2.4,0.5,3.3,1c0.9,0.6,2,1.2,4.1,1.2c0.4,0,0.7,0,1-0.1
		C47.5,69.9,42.1,71.3,36.4,71.3 M57.7,63.9c-1.5,0.2-2.4,0.7-3.2,1.1c-0.9,0.5-1.7,1-3.3,1s-2.4-0.5-3.3-1c-0.9-0.6-2-1.2-4.1-1.2
		c-2,0-3.1,0.6-4.1,1.2c-0.9,0.5-1.7,1-3.3,1c-1.7,0-2.4-0.5-3.3-1c-0.9-0.6-2-1.2-4.1-1.2c-2,0-3.1,0.6-4.1,1.2
		c-0.9,0.5-1.7,1-3.3,1c-1.7,0-2.4-0.5-3.3-1c-0.8-0.5-1.7-1-3.3-1.2c-1.3-1-2.5-2.1-3.7-3.3c0.7-0.4,1.5-0.7,2.9-0.7
		c1.7,0,2.4,0.5,3.3,1c0.9,0.6,2,1.2,4.1,1.2c2,0,3.1-0.6,4.1-1.2c0.9-0.5,1.7-1,3.3-1c1.7,0,2.4,0.5,3.3,1c0.9,0.6,2,1.2,4.1,1.2
		c2,0,3.1-0.6,4.1-1.2c0.9-0.5,1.7-1,3.3-1c1.7,0,2.4,0.5,3.3,1c0.9,0.6,2,1.2,4.1,1.2c2,0,3.1-0.6,4.1-1.2c0.9-0.5,1.7-1,3.3-1
		c1.3,0,2.1,0.3,2.8,0.7C60.3,61.8,59.1,62.9,57.7,63.9 M62.5,59.5c-0.9-0.5-2-1-3.8-1c-2,0-3.1,0.6-4.1,1.2c-0.9,0.5-1.7,1-3.3,1
		s-2.4-0.5-3.3-1c-0.9-0.6-2-1.2-4.1-1.2c-2,0-3.1,0.6-4.1,1.2c-0.9,0.5-1.7,1-3.3,1c-1.7,0-2.4-0.5-3.3-1c-0.9-0.6-2-1.2-4.1-1.2
		c-2,0-3.1,0.6-4.1,1.2c-0.9,0.5-1.7,1-3.3,1c-1.7,0-2.4-0.5-3.3-1c-0.9-0.6-2-1.2-4.1-1.2c-1.9,0-3,0.6-3.9,1.1
		c-0.8-0.9-1.6-1.9-2.4-3c1.3-0.2,2.2-0.7,2.9-1.1c0.9-0.5,1.7-1,3.3-1c1.7,0,2.4,0.5,3.3,1c0.9,0.6,2,1.2,4.1,1.2
		c2,0,3.1-0.6,4.1-1.2c0.9-0.5,1.7-1,3.3-1c1.7,0,2.4,0.5,3.3,1c0.9,0.6,2,1.2,4.1,1.2c2,0,3.1-0.6,4.1-1.2c0.9-0.5,1.7-1,3.3-1
		c1.7,0,2.4,0.5,3.3,1c0.9,0.6,2,1.2,4.1,1.2c2,0,3.1-0.6,4.1-1.2c0.9-0.5,1.7-1,3.3-1c1.7,0,2.4,0.5,3.3,1c0.7,0.4,1.5,0.9,2.8,1.1
		C64.1,57.6,63.3,58.6,62.5,59.5 M65.7,55.2c-1.4-0.1-2.2-0.5-3-1c-0.9-0.6-2-1.2-4.1-1.2c-2,0-3.1,0.6-4.1,1.2
		c-0.9,0.5-1.7,1-3.3,1s-2.4-0.5-3.3-1c-0.9-0.6-2-1.2-4.1-1.2c-2,0-3.1,0.6-4.1,1.2c-0.9,0.5-1.7,1-3.3,1c-1.7,0-2.4-0.5-3.3-1
		c-0.9-0.6-2-1.2-4.1-1.2c-2,0-3.1,0.6-4.1,1.2c-0.9,0.5-1.7,1-3.3,1c-1.7,0-2.4-0.5-3.3-1c-0.9-0.6-2-1.2-4.1-1.2
		c-2,0-3.1,0.6-4.1,1.2c-0.9,0.5-1.6,0.9-3.1,1c-0.9-1.4-1.7-2.8-2.3-4.2c0.6,0.2,1.3,0.3,2.1,0.3c2,0,3.1-0.6,4.1-1.2
		c0.9-0.5,1.7-1,3.3-1c1.7,0,2.4,0.5,3.3,1c0.9,0.6,2,1.2,4.1,1.2c2,0,3.1-0.6,4.1-1.2c0.9-0.5,1.7-1,3.3-1c1.7,0,2.4,0.5,3.3,1
		c0.9,0.6,2,1.2,4.1,1.2c2,0,3.1-0.6,4.1-1.2c0.9-0.5,1.7-1,3.3-1c1.7,0,2.4,0.5,3.3,1c0.9,0.6,2,1.2,4.1,1.2c2,0,3.1-0.6,4.1-1.2
		c0.9-0.5,1.7-1,3.3-1c1.7,0,2.4,0.5,3.3,1c0.9,0.6,2,1.2,4.1,1.2c0.8,0,1.5-0.1,2-0.2C67.4,52.5,66.6,53.9,65.7,55.2 M68.9,49.1
		c-0.7,0.4-1.5,0.7-2.8,0.7c-1.7,0-2.4-0.5-3.3-1c-0.9-0.6-2-1.2-4.1-1.2c-2,0-3.1,0.6-4.1,1.2c-0.9,0.5-1.7,1-3.3,1s-2.4-0.5-3.3-1
		c-0.9-0.6-2-1.2-4.1-1.2c-2,0-3.1,0.6-4.1,1.2c-0.9,0.5-1.7,1-3.3,1c-1.7,0-2.4-0.5-3.3-1c-0.9-0.6-2-1.2-4.1-1.2
		c-2,0-3.1,0.6-4.1,1.2c-0.9,0.5-1.7,1-3.3,1c-1.7,0-2.4-0.5-3.3-1c-0.9-0.6-2-1.2-4.1-1.2c-2,0-3.1,0.6-4.1,1.2
		c-0.9,0.5-1.7,1-3.3,1c-1.4,0-2.2-0.3-3-0.8c-0.5-1.3-0.9-2.6-1.3-4h67.6C69.8,46.5,69.4,47.8,68.9,49.1 M13.9,43.6l1.3-6.1
		l0.7,6.1H13.9z M41.7,25.5l-5.5,5.4l-5.5-5.4H41.7z M31.5,24.1l4.7-2.9l4.7,2.9H31.5z M24.7,34.2l10.1-1.3l-6,10L24.7,34.2z
		 M27.6,43.6H18l5.5-8.5L27.6,43.6z M36.2,33.3l6.2,10.3H30.1L36.2,33.3z M37.6,32.8l10.1,1.3l-4.1,8.6L37.6,32.8z M48.9,35.1
		l5.5,8.5h-9.6L48.9,35.1z M50.1,34.2l6.3-0.5l-1.1,8.5L50.1,34.2z M49.2,32.8l-3.7-6l9.7,5.6L49.2,32.8z M45.4,25.1l2.5-0.6
		l4.5,4.6L45.4,25.1z M47.5,32.7l-9.6-1.3l5.6-5.5L47.5,32.7z M43.6,24L43.6,24L41,22.4l4.3,1.2L43.6,24z M28.9,24l-1.7-0.4l4.3-1.2
		L28.9,24z M29.1,25.9l5.6,5.5L25,32.7L29.1,25.9z M26.9,26.8l-3.7,6h0l-6-0.5L26.9,26.8z M20.2,29l4.3-4.5l2.5,0.6L20.2,29z
		 M22.4,34.2l-5.2,8l-1-8.5L22.4,34.2z M56.6,43.6l0.8-6.4l1.4,6.4H56.6z M70.5,43.6H60.3l-2.4-10.8c0,0,0,0,0-0.1c0,0,0,0,0,0
		c0,0,0,0,0,0c0,0,0,0,0,0c0-0.1-0.1-0.2-0.1-0.2c0,0,0,0,0,0l-9-9.3c0,0,0,0,0,0c0,0,0,0-0.1-0.1c0,0-0.1,0-0.1-0.1c0,0,0,0,0,0
		c0,0,0,0,0,0c0,0-0.1,0-0.1,0l-11.9-3.4c0,0,0,0,0,0c0,0,0,0,0,0c0,0,0,0,0,0h0c0,0,0,0,0,0c0,0,0,0,0,0c0,0-0.1,0-0.1,0h0
		c0,0-0.1,0-0.1,0c0,0,0,0,0,0c0,0,0,0,0,0c0,0,0,0,0,0c0,0,0,0,0,0c0,0,0,0,0,0L24.1,23c0,0,0,0,0,0c0,0-0.1,0-0.1,0c0,0,0,0-0.1,0
		c0,0,0,0,0,0c0,0,0,0-0.1,0c0,0,0,0,0,0c0,0,0,0,0,0c0,0,0,0,0,0l-8.9,9.3c0,0,0,0,0,0c0,0,0,0,0,0c0,0,0,0,0,0
		c0,0.1-0.1,0.1-0.1,0.2c0,0,0,0.1,0,0.1c0,0,0,0,0,0l-2.3,10.8H2.2c-0.5-2.3-0.8-4.8-0.8-7.3c0-19.3,15.7-34.9,34.9-34.9
		s34.9,15.7,34.9,34.9C71.3,38.8,71,41.3,70.5,43.6"/>
	<path class="st0" d="M64.7,33c0,0.1,0,0.2,0,0.2L64.7,33C64.7,33,64.7,33,64.7,33"/>
	<path class="st0" d="M69.4,40.1c-0.1,0.2-0.3,0.4-0.5,0.4c0,0-0.1,0-0.1,0c-0.1,0-1.9-0.4-3.1-1.6v4.8c0,0.3-0.2,0.5-0.5,0.5
		c-0.3,0-0.5-0.2-0.5-0.5v-4.8c-1.2,1.2-3,1.6-3.1,1.6c0,0-0.1,0-0.1,0c-0.2,0-0.4-0.2-0.5-0.4c-0.1-0.3,0.1-0.5,0.4-0.6
		c0,0,0.9-0.2,1.7-0.7c0.8-0.5,1.7-1.2,1.7-2.3v-0.9c-0.8,0.8-2,1.2-2.7,1.3c0,0,0,0-0.1,0c-0.3,0-0.5-0.2-0.5-0.5
		c0-0.3,0.2-0.5,0.4-0.6c0.1,0,2.7-0.3,2.8-2.7v0c0-0.1,0-0.2,0-0.2c0,0,0,0,0,0v-0.4c-0.8,0.9-1.8,1.1-1.9,1.1
		c-0.3,0-0.5-0.1-0.6-0.4c0-0.3,0.1-0.5,0.4-0.6c0.1,0,2-0.4,2-3.2v0c0-0.3,0.2-0.5,0.5-0.5c0.1,0,0.3,0.1,0.4,0.1
		c0.1,0.1,0.1,0.2,0.1,0.4v0c0,2.8,1.9,3.2,2,3.2c0.3,0,0.5,0.3,0.4,0.6c0,0.2-0.3,0.4-0.5,0.4c0,0-0.1,0-0.1,0c0,0-1-0.2-1.9-1.1
		V33c0,0,0,0,0,0.1c0,0,0,0,0,0.1v0.2c0,0,0,0,0-0.1c0.1,2.3,2.7,2.7,2.8,2.7c0.3,0,0.5,0.3,0.4,0.6c0,0.3-0.2,0.5-0.5,0.5
		c0,0,0,0-0.1,0c-0.8-0.1-1.9-0.5-2.7-1.3v0.9c0,0,0,0,0,0.1c0,2.1,3.3,2.9,3.4,2.9C69.3,39.6,69.5,39.9,69.4,40.1"/>
	<path class="st0" d="M65.7,33.3L65.7,33.3C65.7,33.3,65.7,33.3,65.7,33.3l0-0.1C65.7,33.2,65.7,33.2,65.7,33.3"/>
	<path class="st0" d="M64.7,33c0,0.1,0,0.2,0,0.2L64.7,33C64.7,33.1,64.7,33.1,64.7,33"/>
	<path class="st0" d="M65.7,33.3L65.7,33.3C65.7,33.3,65.7,33.3,65.7,33.3l0-0.1C65.7,33.2,65.7,33.2,65.7,33.3"/>
	<path class="st0" d="M7,33.3L7,33.3C7,33.3,7,33.3,7,33.3l0-0.1C7,33.2,7,33.2,7,33.3"/>
	<path class="st0" d="M7.8,36.2C7.8,36.2,7.8,36.2,7.8,36.2C7.8,36.2,7.8,36.2,7.8,36.2"/>
	<path class="st0" d="M11.8,40.1c-0.1,0.2-0.3,0.4-0.5,0.4c0,0-0.1,0-0.1,0c-0.1,0-1.9-0.4-3.1-1.6v4.8c0,0.3-0.2,0.5-0.5,0.5
		c-0.3,0-0.5-0.2-0.5-0.5v-4.8c-1.2,1.2-3,1.6-3.1,1.6c0,0-0.1,0-0.1,0c-0.2,0-0.4-0.2-0.5-0.4c-0.1-0.3,0.1-0.5,0.4-0.6
		c0,0,0.9-0.2,1.7-0.7C6.2,38.4,7,37.7,7,36.6v-0.9c-0.8,0.8-2,1.2-2.7,1.3c0,0,0,0-0.1,0c-0.3,0-0.5-0.2-0.5-0.5
		c0-0.3,0.2-0.5,0.4-0.6c0.1,0,2.7-0.3,2.8-2.6c0,0,0,0,0,0v0c0,0,0-0.1,0-0.1v-0.5c-0.8,0.9-1.8,1.1-1.9,1.1
		c-0.3,0-0.5-0.1-0.6-0.4c0-0.3,0.1-0.5,0.4-0.6c0.1,0,2-0.4,2-3.2v0C7,29.2,7.3,29,7.6,29h0c0.3,0,0.5,0.2,0.5,0.5v0
		c0,2.8,1.9,3.2,2,3.2c0.3,0,0.5,0.3,0.4,0.6c0,0.2-0.3,0.4-0.5,0.4c0,0-0.1,0-0.1,0c0,0-1-0.2-1.9-1.1V33c0,0,0,0.1,0,0.1
		c0,0.1,0,0.1,0,0.2v0c0.1,2.3,2.7,2.7,2.8,2.7c0.3,0,0.5,0.3,0.4,0.6c0,0.3-0.2,0.5-0.5,0.5c0,0,0,0-0.1,0
		c-0.8-0.1-1.9-0.5-2.7-1.3v0.9c0,0,0,0,0,0.1c0,2.1,3.3,2.9,3.4,2.9C11.7,39.6,11.9,39.9,11.8,40.1"/>
	<path class="st0" d="M7.8,36.2C7.8,36.2,7.8,36.2,7.8,36.2C7.8,36.2,7.8,36.2,7.8,36.2"/>
</g>
</svg>
