<?xml version="1.0" encoding="utf-8"?>
<!-- Generator: Adobe Illustrator 26.1.0, SVG Export Plug-In . SVG Version: 6.00 Build 0)  -->
<svg class="spinner" version="1.1" id="Layer_1" xmlns="http://www.w3.org/2000/svg" xmlns:xlink="http://www.w3.org/1999/xlink" x="0px" y="0px"
	 width="450px" height="450px" viewBox="0 0 250 250" style="enable-background:new 0 0 250 250;" xml:space="preserve">
<style type="text/css">
	.st0{display:none;}
	.st1{display:inline;}
	.st2{fill:#fff;}
	.st3{fill:#fff;stroke:#070707;stroke-width:3.304;stroke-linecap:round;stroke-miterlimit:5.5066;}
	
	
	@keyframes spin {
		from {
		  transform: rotate(0turn);
		}
		to {
		  transform: rotate(1turn);
		}
	  }
	  
	  .spinner {
		animation: spin 12000ms;
		animation-timing-function: linear;
		animation-iteration-count: infinite;
	  }
</style>
<g>
	<g class="st0">
		<g class="st1">
			<g>
				<path class="st2" d="M120.4,84.3c0.1-0.1,0.1-0.1,0.2-0.1c0.3-0.1,0.6-0.1,0.8-0.1c0.3-0.1,0.7-0.1,1-0.1
					c0.4-0.1,0.8-0.1,1.2-0.2c0.1-0.1,0.3-0.1,0.4-0.1c0.1,0,0.1-0.1,0.1-0.1c-0.3-0.4-0.7-0.8-1-1.2c-0.2-0.2-0.4-0.4-0.5-0.6
					l-0.1-0.1c0.1-0.1,0.1,0,0.1,0.1c0.2,0.1,0.4,0.3,0.6,0.4c0.3,0.2,0.6,0.4,0.8,0.7c0.2,0.1,0.3,0.2,0.5,0.4
					c0.1,0.1,0.1,0.1,0.1-0.1c0.1-0.3,0.1-0.6,0.1-0.9c0.1-0.3,0.1-0.7,0.1-1c0.1-0.2,0.1-0.4,0.1-0.6c0.1-0.2,0.1-0.4,0.1-0.7
					c0-0.2,0.1-0.3,0.1-0.5c0-0.1,0-0.1,0.1-0.1c0.1,0.1,0.1,0.1,0.1,0.2c0.1,0.3,0.1,0.6,0.1,0.8c0.1,0.2,0.1,0.4,0.1,0.6
					c0.1,0.2,0.1,0.4,0.1,0.6c0.1,0.3,0.1,0.6,0.1,0.8c0.1,0.2,0.1,0.4,0.1,0.7c0,0.1,0.1,0.1,0.1,0.1c0.4-0.3,0.8-0.6,1.2-0.9
					c0.2-0.2,0.4-0.4,0.7-0.6l0.1-0.1c0.1,0.1,0,0.1-0.1,0.1c-0.1,0.2-0.3,0.4-0.4,0.6c-0.2,0.3-0.4,0.6-0.7,0.8
					c-0.1,0.2-0.2,0.3-0.4,0.5c-0.1,0.1-0.1,0.1,0.1,0.1c0.3,0.1,0.6,0.1,0.9,0.1c0.3,0.1,0.7,0.1,1,0.1c0.2,0.1,0.4,0.1,0.6,0.1
					c0.2,0.1,0.4,0.1,0.7,0.1c0.2,0,0.3,0.1,0.5,0.1c0.1,0,0.1,0,0.1,0.1c-0.1,0.1-0.1,0.1-0.2,0.1c-0.3,0.1-0.6,0.1-0.8,0.1
					c-0.2,0.1-0.4,0.1-0.6,0.1c-0.2,0.1-0.4,0.1-0.6,0.1c-0.3,0.1-0.6,0.1-0.8,0.1c-0.2,0.1-0.4,0.1-0.7,0.1c-0.1,0-0.1,0.1-0.1,0.1
					c0.3,0.4,0.6,0.8,0.9,1.2c0.2,0.2,0.4,0.4,0.6,0.7l0.1,0.1c-0.1,0.1-0.1,0-0.1-0.1c-0.2-0.1-0.4-0.3-0.6-0.4
					c-0.3-0.2-0.6-0.4-0.8-0.7c-0.2-0.1-0.3-0.2-0.5-0.4c-0.1-0.1-0.1-0.1-0.1,0.1c-0.1,0.3-0.1,0.6-0.1,0.9c-0.1,0.3-0.1,0.7-0.1,1
					c-0.1,0.2-0.1,0.4-0.1,0.6c-0.1,0.2-0.1,0.4-0.1,0.7c0,0.2-0.1,0.3-0.1,0.5c0,0.1,0,0.1-0.1,0.1c-0.1-0.1-0.1-0.1-0.1-0.2
					c-0.1-0.3-0.1-0.6-0.1-0.8c-0.1-0.2-0.1-0.4-0.1-0.6c-0.1-0.2-0.1-0.4-0.1-0.6c-0.1-0.3-0.1-0.6-0.1-0.8
					c-0.1-0.2-0.1-0.4-0.1-0.7c0-0.1-0.1-0.1-0.1-0.1c-0.4,0.3-0.8,0.6-1.2,0.9c-0.2,0.2-0.4,0.4-0.7,0.6l-0.1,0.1
					c-0.1-0.1,0-0.1,0.1-0.1c0.1-0.2,0.3-0.4,0.4-0.6c0.2-0.3,0.4-0.6,0.7-0.8c0.1-0.2,0.2-0.3,0.4-0.5c0.1-0.1,0.1-0.1-0.1-0.1
					c-0.3-0.1-0.6-0.1-0.9-0.1c-0.3-0.1-0.7-0.1-1-0.1c-0.2-0.1-0.4-0.1-0.6-0.1c-0.2-0.1-0.4-0.1-0.7-0.1
					C120.8,84.4,120.6,84.3,120.4,84.3C120.4,84.3,120.4,84.3,120.4,84.3z"/>
			</g>
		</g>
		<g class="st1">
			<g>
				<path class="st2" d="M94.8,97.4c0,0.1-0.1,0.1-0.1,0.1c-0.1,0.2-0.1,0.3-0.2,0.5c-0.1,0.2-0.2,0.4-0.2,0.7
					c-0.1,0.3-0.1,0.6-0.2,0.8c-0.1,0.1-0.1,0.2-0.1,0.3c0,0.1,0,0.1,0.1,0.1c0.3-0.1,0.7-0.2,1-0.3c0.2-0.1,0.3-0.1,0.5-0.2
					c0,0,0.1-0.1,0.1,0c0,0.1,0,0.1-0.1,0.1c-0.1,0.1-0.3,0.1-0.4,0.2c-0.2,0.1-0.4,0.2-0.7,0.3c-0.1,0.1-0.2,0.1-0.3,0.2
					c-0.1,0.1-0.1,0.1,0,0.1c0.2,0.1,0.3,0.2,0.5,0.3c0.2,0.1,0.4,0.2,0.6,0.3c0.1,0.1,0.2,0.1,0.3,0.2c0.1,0.1,0.3,0.1,0.4,0.2
					c0.1,0.1,0.2,0.1,0.3,0.2c0,0,0.1,0,0.1,0.1c-0.1,0-0.1-0.1-0.1-0.1c-0.2-0.1-0.4-0.1-0.6-0.2c-0.1-0.1-0.2-0.1-0.4-0.1
					s-0.3-0.1-0.4-0.1c-0.2-0.1-0.3-0.1-0.6-0.1c-0.1-0.1-0.3-0.1-0.4-0.1c-0.1,0-0.1,0-0.1,0.1c0.1,0.3,0.2,0.7,0.3,1
					c0.1,0.2,0.1,0.4,0.2,0.6c0,0,0.1,0.1,0,0.1s-0.1,0-0.1-0.1c-0.1-0.1-0.1-0.3-0.2-0.4c-0.1-0.2-0.2-0.4-0.3-0.7
					c-0.1-0.1-0.1-0.2-0.2-0.3c-0.1-0.1-0.1-0.1-0.1,0c-0.1,0.2-0.2,0.3-0.3,0.5c-0.1,0.2-0.2,0.4-0.3,0.6c-0.1,0.1-0.1,0.2-0.2,0.3
					c-0.1,0.1-0.1,0.3-0.2,0.4c-0.1,0.1-0.1,0.2-0.2,0.3c0,0,0,0.1-0.1,0.1c0-0.1,0.1-0.1,0.1-0.1c0.1-0.2,0.1-0.4,0.2-0.6
					c0.1-0.1,0.1-0.2,0.1-0.4s0.1-0.3,0.1-0.4c0.1-0.2,0.1-0.3,0.1-0.6c0.1-0.1,0.1-0.3,0.1-0.4c0-0.1,0-0.1-0.1-0.1
					c-0.3,0.1-0.7,0.2-1,0.3c-0.2,0.1-0.4,0.1-0.6,0.2c0,0-0.1,0.1-0.1,0s0-0.1,0.1-0.1c0.1-0.1,0.3-0.1,0.4-0.2
					c0.2-0.1,0.4-0.2,0.7-0.3c0.1-0.1,0.2-0.1,0.3-0.2c0.1-0.1,0.1-0.1,0-0.1c-0.2-0.1-0.3-0.2-0.5-0.3c-0.2-0.1-0.4-0.2-0.6-0.3
					c-0.1-0.1-0.2-0.1-0.3-0.2c-0.1-0.1-0.3-0.1-0.4-0.2c-0.1-0.1-0.2-0.1-0.3-0.2c0,0-0.1,0-0.1-0.1c0.1,0,0.1,0.1,0.1,0.1
					c0.2,0.1,0.4,0.1,0.6,0.2c0.1,0.1,0.2,0.1,0.4,0.1c0.1,0.1,0.3,0.1,0.4,0.1c0.2,0.1,0.3,0.1,0.6,0.1c0.1,0.1,0.3,0.1,0.4,0.1
					c0.1,0,0.1,0,0.1-0.1c-0.1-0.3-0.2-0.7-0.3-1c-0.1-0.2-0.1-0.4-0.2-0.6c0,0-0.1-0.1,0-0.1s0.1,0,0.1,0.1
					c0.1,0.1,0.1,0.3,0.2,0.4c0.1,0.2,0.2,0.4,0.3,0.7c0.1,0.1,0.1,0.2,0.2,0.3c0.1,0.1,0.1,0.1,0.1,0c0.1-0.2,0.2-0.3,0.3-0.5
					c0.1-0.2,0.2-0.4,0.3-0.6c0.1-0.1,0.1-0.2,0.2-0.3c0.1-0.1,0.1-0.3,0.2-0.4C94.6,97.5,94.7,97.4,94.8,97.4
					C94.7,97.4,94.7,97.4,94.8,97.4z"/>
			</g>
		</g>
		<g class="st1">
			<g>
				<path class="st2" d="M155.3,97.4c0,0.1,0.1,0.1,0.1,0.1c0.1,0.2,0.1,0.3,0.2,0.5c0.1,0.2,0.2,0.4,0.2,0.7
					c0.1,0.3,0.1,0.6,0.2,0.8c0.1,0.1,0.1,0.2,0.1,0.3c0,0.1,0,0.1-0.1,0.1c-0.3-0.1-0.7-0.2-1-0.3c-0.2-0.1-0.3-0.1-0.5-0.2
					c0,0-0.1-0.1-0.1,0c0,0.1,0,0.1,0.1,0.1c0.1,0.1,0.3,0.1,0.4,0.2c0.2,0.1,0.4,0.2,0.7,0.3c0.1,0.1,0.2,0.1,0.3,0.2
					c0.1,0.1,0.1,0.1,0,0.1c-0.2,0.1-0.3,0.2-0.5,0.3c-0.2,0.1-0.4,0.2-0.6,0.3c-0.1,0.1-0.2,0.1-0.3,0.2c-0.1,0.1-0.3,0.1-0.4,0.2
					c-0.1,0.1-0.2,0.1-0.3,0.2c0,0-0.1,0-0.1,0.1c0.1,0,0.1-0.1,0.1-0.1c0.2-0.1,0.4-0.1,0.6-0.2c0.1-0.1,0.2-0.1,0.4-0.1
					c0.1-0.1,0.3-0.1,0.4-0.1c0.2-0.1,0.3-0.1,0.6-0.1c0.1-0.1,0.3-0.1,0.4-0.1c0.1,0,0.1,0,0.1,0.1c-0.1,0.3-0.2,0.7-0.3,1
					c-0.1,0.2-0.1,0.4-0.2,0.6c0,0-0.1,0.1,0,0.1s0.1,0,0.1-0.1c0.1-0.1,0.1-0.3,0.2-0.4c0.1-0.2,0.2-0.4,0.3-0.7
					c0.1-0.1,0.1-0.2,0.2-0.3c0.1-0.1,0.1-0.1,0.1,0c0.1,0.2,0.2,0.3,0.3,0.5c0.1,0.2,0.2,0.4,0.3,0.6c0.1,0.1,0.1,0.2,0.2,0.3
					s0.1,0.3,0.2,0.4c0.1,0.1,0.1,0.2,0.2,0.3c0,0,0,0.1,0.1,0.1c0-0.1-0.1-0.1-0.1-0.1c-0.1-0.2-0.1-0.4-0.2-0.6
					c-0.1-0.1-0.1-0.2-0.1-0.4c-0.1-0.1-0.1-0.3-0.1-0.4c-0.1-0.2-0.1-0.3-0.1-0.6c-0.1-0.1-0.1-0.3-0.1-0.4c0-0.1,0-0.1,0.1-0.1
					c0.3,0.1,0.7,0.2,1,0.3c0.2,0.1,0.4,0.1,0.6,0.2c0,0,0.1,0.1,0.1,0s0-0.1-0.1-0.1c-0.1-0.1-0.3-0.1-0.4-0.2
					c-0.2-0.1-0.4-0.2-0.7-0.3c-0.1-0.1-0.2-0.1-0.3-0.2c-0.1-0.1-0.1-0.1,0-0.1c0.2-0.1,0.3-0.2,0.5-0.3c0.2-0.1,0.4-0.2,0.6-0.3
					c0.1-0.1,0.2-0.1,0.3-0.2s0.3-0.1,0.4-0.2c0.1-0.1,0.2-0.1,0.3-0.2c0,0,0.1,0,0.1-0.1c-0.1,0-0.1,0.1-0.1,0.1
					c-0.2,0.1-0.4,0.1-0.6,0.2c-0.1,0.1-0.2,0.1-0.4,0.1c-0.1,0.1-0.3,0.1-0.4,0.1c-0.2,0.1-0.3,0.1-0.6,0.1
					c-0.1,0.1-0.3,0.1-0.4,0.1c-0.1,0-0.1,0-0.1-0.1c0.1-0.3,0.2-0.7,0.3-1c0.1-0.2,0.1-0.4,0.2-0.6c0,0,0.1-0.1,0-0.1
					s-0.1,0-0.1,0.1c-0.1,0.1-0.1,0.3-0.2,0.4c-0.1,0.2-0.2,0.4-0.3,0.7c-0.1,0.1-0.1,0.2-0.2,0.3c-0.1,0.1-0.1,0.1-0.1,0
					c-0.1-0.2-0.2-0.3-0.3-0.5c-0.1-0.2-0.2-0.4-0.3-0.6c-0.1-0.1-0.1-0.2-0.2-0.3c-0.1-0.1-0.1-0.3-0.2-0.4
					C155.4,97.5,155.4,97.4,155.3,97.4C155.3,97.4,155.3,97.4,155.3,97.4z"/>
			</g>
		</g>
		<g class="st1">
			<path class="st2" d="M142.8,79.4C142.8,79.4,142.8,79.4,142.8,79.4c0,0.1,0,0.1,0,0.2s0,0.1,0,0.1c0,0.1,0,0.1,0,0.1
				c0,0.1,0.1,0.2,0.1,0.3s0.1,0.1,0.1,0.1c0.1,0.1,0.1,0.2,0.1,0.2s0.2,0.1,0.2,0.2c0.1,0.1,0.1,0.1,0.2,0.1
				c0.1,0.1,0.2,0.1,0.2,0.1s0.1,0.1,0.1,0.1c0.1,0,0.1,0,0.1,0c0.1,0,0.1,0,0.1,0h0.1h0.1l0,0l0,0c-0.1,0-0.1,0-0.1,0s-0.1,0-0.1,0
				s-0.1,0-0.1,0c-0.1,0-0.1,0-0.1,0.1c-0.1,0-0.2,0.1-0.3,0.1c-0.1,0.1-0.2,0.1-0.3,0.2c-0.1,0.1-0.1,0.1-0.2,0.2
				c-0.1,0.1-0.1,0.2-0.1,0.3c-0.1,0.1-0.1,0.2-0.1,0.3c0,0.1,0,0.1-0.1,0.1c0,0.1,0,0.1,0,0.1s0,0.1,0,0.1s0,0.1,0,0.1l0,0l0,0
				c0-0.1,0-0.1,0-0.2s0-0.1,0-0.1c0-0.1,0-0.1-0.1-0.1c0-0.1-0.1-0.2-0.1-0.3c-0.1-0.1-0.1-0.2-0.2-0.3c-0.1-0.1-0.1-0.1-0.2-0.2
				c-0.1-0.1-0.2-0.1-0.3-0.1c-0.1-0.1-0.2-0.1-0.3-0.1c-0.1,0-0.1,0-0.1-0.1c-0.1,0-0.1,0-0.1,0h-0.1c-0.1,0-0.1,0-0.1,0h-0.1l0,0
				l0,0c0.1,0,0.1,0,0.1,0c0.1,0,0.1,0,0.1,0c0.1,0,0.1,0,0.1,0s0.1,0,0.1,0c0.1,0,0.2-0.1,0.3-0.1c0.1,0,0.1-0.1,0.1-0.1
				c0.1-0.1,0.2-0.1,0.2-0.1c0.1-0.1,0.1-0.1,0.2-0.2c0.1-0.1,0.1-0.2,0.1-0.3c0.1-0.1,0.1-0.2,0.1-0.2s0-0.1,0.1-0.1
				c0-0.1,0-0.1,0-0.1c0-0.1,0-0.1,0-0.1c0-0.1,0-0.1,0-0.1C142.8,79.4,142.8,79.4,142.8,79.4L142.8,79.4z"/>
		</g>
		<g class="st1">
			<path class="st2" d="M161.2,111.4C161.2,111.5,161.2,111.5,161.2,111.4c-0.1,0.1-0.1,0.1-0.1,0.2s-0.1,0.1-0.1,0.1
				c-0.1,0.1-0.1,0.1-0.1,0.1c-0.1,0.1-0.1,0.2-0.2,0.3c-0.1,0.1-0.1,0.1-0.1,0.1c-0.1,0.1-0.1,0.2-0.1,0.3c0,0.1,0.1,0.2,0.1,0.3
				c0.1,0.1,0.1,0.1,0.1,0.2s0.1,0.1,0.2,0.2c0.1,0.1,0.1,0.1,0.1,0.1s0.1,0.1,0.1,0.1c0.1,0.1,0.1,0.1,0.1,0.1
				c0.1,0.1,0.1,0.1,0.1,0.1l0.1,0.1l0,0l0,0c-0.1-0.1-0.1-0.1-0.1-0.1c-0.1-0.1-0.1-0.1-0.1-0.1c-0.1,0-0.1-0.1-0.1-0.1
				c-0.1-0.1-0.1-0.1-0.1-0.1c-0.1-0.1-0.2-0.1-0.3-0.1c-0.1-0.1-0.3-0.1-0.4-0.1s-0.2,0-0.3,0.1s-0.2,0.1-0.3,0.1
				c-0.1,0.1-0.2,0.1-0.2,0.2s-0.1,0.1-0.1,0.1s-0.1,0.1-0.1,0.1c-0.1,0.1-0.1,0.1-0.1,0.1l-0.1,0.1l0,0l0,0
				c0.1-0.1,0.1-0.1,0.1-0.2c0-0.1,0.1-0.1,0.1-0.1c0.1-0.1,0.1-0.1,0.1-0.1c0.1-0.1,0.1-0.2,0.1-0.3c0.1-0.1,0.1-0.3,0.1-0.4
				s0-0.2-0.1-0.3s-0.1-0.2-0.1-0.3s-0.1-0.2-0.2-0.2c-0.1-0.1-0.1-0.1-0.1-0.1l-0.1-0.1c-0.1-0.1-0.1-0.1-0.1-0.1
				c-0.1-0.1-0.1-0.1-0.1-0.1l-0.1-0.1l0,0l0,0c0.1,0.1,0.1,0.1,0.1,0.1c0.1,0.1,0.1,0.1,0.1,0.1s0.1,0.1,0.1,0.1
				c0.1,0.1,0.1,0.1,0.1,0.1c0.1,0.1,0.2,0.1,0.3,0.2s0.1,0.1,0.1,0.1c0.1,0.1,0.2,0.1,0.3,0.1s0.2,0,0.3-0.1
				c0.1-0.1,0.2-0.1,0.3-0.1c0.1-0.1,0.1-0.1,0.2-0.2c0.1-0.1,0.1-0.1,0.1-0.1l0.1-0.1c0.1-0.1,0.1-0.1,0.1-0.1l0.1-0.1
				C161.2,111.4,161.2,111.4,161.2,111.4L161.2,111.4z"/>
		</g>
		<g class="st1">
			<path class="st2" d="M100.3,82.5C100.3,82.5,100.3,82.5,100.3,82.5c-0.1,0.1-0.1,0.1-0.1,0.1l-0.1,0.1c-0.1,0.1-0.1,0.1-0.1,0.1
				c-0.1,0.1-0.1,0.1-0.1,0.2C99.9,83,99.9,83,99.9,83c-0.1,0.1-0.1,0.1-0.1,0.2s0.1,0.2,0.1,0.2c0.1,0.1,0.1,0.1,0.1,0.1
				c0.1,0.1,0.1,0.1,0.1,0.2c0.1,0.1,0.1,0.1,0.1,0.1l0.1,0.1l0.1,0.1l0.1,0.1c0,0,0,0.1,0.1,0.1l0,0l0,0c-0.1-0.1-0.1-0.1-0.1-0.1
				c-0.1,0-0.1-0.1-0.1-0.1l-0.1-0.1c-0.1-0.1-0.1-0.1-0.1-0.1c-0.1-0.1-0.1-0.1-0.2-0.1c-0.1-0.1-0.2-0.1-0.3-0.1
				c-0.1,0-0.1,0-0.2,0.1c-0.1,0.1-0.1,0.1-0.2,0.1C99.1,83.9,99,84,99,84C98.9,84,98.9,84,98.9,84l-0.1,0.1
				c-0.1,0.1-0.1,0.1-0.1,0.1l-0.1,0.1l0,0l0,0c0.1-0.1,0.1-0.1,0.1-0.1s0.1-0.1,0.1-0.1c0.1-0.1,0.1-0.1,0.1-0.1
				c0.1-0.1,0.1-0.1,0.1-0.2c0.1-0.1,0.1-0.2,0.1-0.3s0-0.1-0.1-0.2C99,83.1,99,83.1,98.9,83c-0.1-0.1-0.1-0.1-0.1-0.2
				c-0.1-0.1-0.1-0.1-0.1-0.1l-0.1-0.1l-0.1-0.1l-0.1-0.1l-0.1-0.1l0,0l0,0c0.1,0,0.1,0.1,0.1,0.1c0.1,0,0.1,0.1,0.1,0.1l0.1,0.1
				c0.1,0.1,0.1,0.1,0.1,0.1c0.1,0.1,0.1,0.1,0.2,0.1c0.1,0,0.1,0.1,0.1,0.1c0.1,0.1,0.1,0.1,0.2,0.1s0.1,0,0.2-0.1
				c0.1-0.1,0.1-0.1,0.2-0.1s0.1-0.1,0.2-0.1c0.1-0.1,0.1-0.1,0.1-0.1l0.1-0.1l0.1-0.1l0.1-0.1C100.3,82.5,100.3,82.5,100.3,82.5
				L100.3,82.5z"/>
		</g>
		<g class="st1">
			<path class="st2" d="M117.9,77.8C117.8,77.8,117.8,77.8,117.9,77.8c-0.1,0.1-0.1,0.1-0.2,0.1s-0.1,0-0.1,0.1
				c-0.1,0-0.1,0.1-0.1,0.1c-0.1,0.1-0.2,0.1-0.3,0.1c-0.1,0.1-0.1,0.1-0.1,0.1c-0.1,0.1-0.1,0.1-0.2,0.2s-0.1,0.2-0.1,0.3
				c0,0.1-0.1,0.1-0.1,0.2s0,0.2,0,0.2s0,0.1,0,0.1c0,0.1,0,0.1,0,0.1c0,0.1,0,0.1,0,0.1c0,0.1,0,0.1,0,0.1v0.1l0,0l0,0
				c0-0.1-0.1-0.1-0.1-0.1s-0.1-0.1-0.1-0.1c0-0.1,0-0.1-0.1-0.1c0-0.1-0.1-0.1-0.1-0.1c-0.1-0.1-0.1-0.2-0.1-0.2
				c-0.1-0.1-0.1-0.2-0.2-0.3c-0.1-0.1-0.1-0.1-0.2-0.1c-0.1-0.1-0.2-0.1-0.3-0.1s-0.2,0-0.3,0c-0.1,0-0.1,0-0.1,0h-0.1
				c-0.1,0-0.1,0-0.1,0h-0.1l0,0l0,0c0.1,0,0.1-0.1,0.2-0.1s0.1,0,0.1-0.1c0.1,0,0.1-0.1,0.1-0.1c0.1-0.1,0.2-0.1,0.2-0.1
				c0.1-0.1,0.2-0.1,0.3-0.2c0.1-0.1,0.1-0.1,0.1-0.2c0.1-0.1,0.1-0.2,0.1-0.3s0-0.2,0-0.3c0-0.1,0-0.1,0-0.1v-0.1
				c0-0.1,0-0.1,0-0.1c0-0.1,0-0.1,0-0.1v-0.1l0,0l0,0c0,0.1,0,0.1,0.1,0.1c0,0.1,0.1,0.1,0.1,0.1s0,0.1,0.1,0.1
				c0,0.1,0.1,0.1,0.1,0.1c0.1,0.1,0.1,0.2,0.1,0.3c0,0.1,0.1,0.1,0.1,0.1c0.1,0.1,0.1,0.1,0.2,0.2c0.1,0.1,0.1,0.1,0.2,0.1
				c0.1,0.1,0.2,0.1,0.3,0.1c0.1,0,0.2,0,0.2,0c0.1,0,0.1,0,0.1,0c0.1,0,0.1,0,0.1,0h0.1c0.1,0,0.1,0,0.1,0
				C117.8,77.8,117.8,77.8,117.9,77.8L117.9,77.8z"/>
		</g>
		<g class="st1">
			<path class="st2" d="M140.4,98.3C140.4,98.3,140.4,98.3,140.4,98.3c-0.1,0.1-0.1,0.1-0.1,0.1h-0.1c-0.1,0-0.1,0.1-0.1,0.1
				c-0.1,0.1-0.1,0.1-0.2,0.1c-0.1,0-0.1,0.1-0.1,0.1c-0.1,0.1-0.1,0.1-0.2,0.1c-0.1,0.1-0.1,0.1-0.1,0.2c0,0.1-0.1,0.1-0.1,0.1
				c0,0.1,0,0.1,0,0.2c0,0.1,0,0.1,0,0.1s0,0.1,0,0.1c0,0.1,0,0.1,0,0.1c0,0.1,0,0.1,0,0.1v0.1l0,0l0,0c0-0.1,0-0.1-0.1-0.1
				c0-0.1,0-0.1-0.1-0.1v-0.1c0-0.1-0.1-0.1-0.1-0.1c-0.1-0.1-0.1-0.1-0.1-0.2c-0.1-0.1-0.1-0.2-0.2-0.2s-0.1-0.1-0.2-0.1
				s-0.1-0.1-0.2-0.1c-0.1,0-0.1,0-0.2,0c-0.1,0-0.1,0-0.1,0c-0.1,0-0.1,0-0.1,0c-0.1,0-0.1,0-0.1,0h0.1l0,0l0,0
				c0.1,0,0.1-0.1,0.1-0.1c0.1,0,0.1,0,0.1-0.1c0.1,0,0.1-0.1,0.1-0.1c0.1-0.1,0.1-0.1,0.2-0.1c0.1-0.1,0.2-0.1,0.2-0.2
				c0.1-0.1,0.1-0.1,0.1-0.2s0.1-0.1,0.1-0.2c0-0.1,0-0.1,0-0.2c0-0.1,0-0.1,0-0.1v-0.1c0-0.1,0-0.1,0-0.1c0-0.1,0-0.1,0-0.1v-0.1
				l0,0l0,0c0,0.1,0,0.1,0.1,0.1c0,0.1,0,0.1,0.1,0.1v0.1c0,0.1,0.1,0.1,0.1,0.1c0.1,0.1,0.1,0.1,0.1,0.2c0,0.1,0.1,0.1,0.1,0.1
				c0.1,0.1,0.1,0.1,0.1,0.2c0.1,0.1,0.1,0.1,0.2,0.1s0.1,0.1,0.2,0.1c0.1,0,0.1,0,0.2,0c0.1,0,0.1,0,0.1,0L140.4,98.3
				C140.4,98.2,140.4,98.2,140.4,98.3L140.4,98.3C140.3,98.3,140.3,98.3,140.4,98.3L140.4,98.3z"/>
		</g>
		<g class="st1">
			<path class="st2" d="M80,108.4C80,108.4,80,108.4,80,108.4c-0.1,0.1-0.1,0.1-0.1,0.1h-0.1c-0.1,0-0.1,0.1-0.1,0.1
				c-0.1,0.1-0.1,0.1-0.2,0.1c-0.1,0-0.1,0.1-0.1,0.1c-0.1,0.1-0.1,0.1-0.2,0.1c-0.1,0.1-0.1,0.1-0.1,0.2c0,0.1-0.1,0.1-0.1,0.2
				c0,0.1,0,0.1,0,0.2c0,0.1,0,0.1,0,0.1s0,0.1,0,0.1c0,0.1,0,0.1,0,0.1v0.1v0.1l0,0l0,0c0-0.1,0-0.1-0.1-0.1c0-0.1,0-0.1-0.1-0.1
				v-0.1c0-0.1-0.1-0.1-0.1-0.1c-0.1-0.1-0.1-0.1-0.1-0.2c-0.1-0.1-0.1-0.2-0.2-0.2c-0.1-0.1-0.1-0.1-0.2-0.1
				c-0.1-0.1-0.1-0.1-0.2-0.1c-0.1,0-0.1,0-0.2,0c-0.1,0-0.1,0-0.1,0s-0.1,0-0.1,0c-0.1,0-0.1,0-0.1,0h-0.1l0,0l0,0
				c0.1,0,0.1-0.1,0.1-0.1c0.1,0,0.1,0,0.1-0.1c0.1,0,0.1-0.1,0.1-0.1c0.1-0.1,0.1-0.1,0.2-0.1c0.1-0.1,0.2-0.1,0.2-0.2
				c0.1-0.1,0.1-0.1,0.1-0.2c0.1-0.1,0.1-0.1,0.1-0.2c0-0.1,0-0.1,0-0.2c0-0.1,0-0.1,0-0.1v-0.1c0-0.1,0-0.1,0-0.1
				c0-0.1,0-0.1,0-0.1v-0.1l0,0l0,0c0,0.1,0,0.1,0.1,0.1c0,0.1,0,0.1,0.1,0.1v0.1c0,0.1,0.1,0.1,0.1,0.1c0.1,0.1,0.1,0.1,0.1,0.2
				c0,0.1,0.1,0.1,0.1,0.1c0.1,0.1,0.1,0.1,0.1,0.2c0.1,0.1,0.1,0.1,0.2,0.1c0.1,0.1,0.1,0.1,0.2,0.1c0.1,0,0.1,0,0.2,0
				c0.1,0,0.1,0,0.1,0h0.1c0.1,0,0.1,0,0.1,0h0.1C80,108.4,80,108.4,80,108.4L80,108.4z"/>
		</g>
		<g class="st1">
			<path class="st2" d="M114.8,97.7C114.8,97.7,114.8,97.7,114.8,97.7c-0.1-0.1-0.1-0.1-0.2-0.1c-0.1,0-0.1,0-0.1,0
				c-0.1,0-0.1,0-0.1-0.1c-0.1,0-0.2-0.1-0.3-0.1c-0.1,0-0.1,0-0.1,0c-0.1,0-0.2,0.1-0.2,0.1c-0.1,0.1-0.2,0.1-0.2,0.2
				c-0.1,0.1-0.1,0.1-0.1,0.1c-0.1,0.1-0.1,0.1-0.1,0.2c-0.1,0.1-0.1,0.1-0.1,0.1s-0.1,0.1-0.1,0.1c0,0.1-0.1,0.1-0.1,0.1
				c0,0.1-0.1,0.1-0.1,0.1v0.1l0,0l0,0c0-0.1,0-0.1,0.1-0.1c0-0.1,0-0.1,0.1-0.1c0-0.1,0-0.1,0-0.1c0-0.1,0-0.1,0.1-0.1
				c0-0.1,0.1-0.2,0.1-0.2c0-0.1,0-0.2-0.1-0.3c-0.1-0.1-0.1-0.1-0.1-0.2c-0.1-0.1-0.1-0.1-0.2-0.2c-0.1-0.1-0.1-0.1-0.2-0.1
				c-0.1-0.1-0.1-0.1-0.1-0.1c-0.1,0-0.1-0.1-0.1-0.1s-0.1-0.1-0.1-0.1h-0.1l0,0l0,0c0.1,0,0.1,0.1,0.2,0.1s0.1,0,0.1,0
				s0.1,0,0.1,0.1c0.1,0,0.2,0.1,0.2,0.1c0.1,0,0.2,0,0.3-0.1c0.1-0.1,0.1-0.1,0.2-0.1c0.1-0.1,0.1-0.1,0.2-0.2
				c0.1-0.1,0.1-0.1,0.1-0.2c0.1-0.1,0.1-0.1,0.1-0.1c0-0.1,0-0.1,0.1-0.1c0-0.1,0.1-0.1,0.1-0.1c0-0.1,0.1-0.1,0.1-0.1v-0.1l0,0
				l0,0c0,0.1,0,0.1-0.1,0.1c0,0.1,0,0.1-0.1,0.1c0,0.1,0,0.1,0,0.1c0,0.1,0,0.1-0.1,0.1c0,0.1-0.1,0.2-0.1,0.3c0,0.1,0,0.1,0,0.1
				s0.1,0.2,0.1,0.2c0.1,0.1,0.1,0.1,0.1,0.2c0.1,0.1,0.1,0.1,0.2,0.2c0.1,0.1,0.1,0.1,0.2,0.1c0.1,0.1,0.1,0.1,0.1,0.1
				c0,0,0.1,0,0.1,0.1c0.1,0,0.1,0.1,0.1,0.1C114.8,97.7,114.8,97.7,114.8,97.7C114.7,97.7,114.8,97.7,114.8,97.7L114.8,97.7z"/>
		</g>
		<g class="st1">
			<path class="st2" d="M157.8,90.9C157.7,90.9,157.7,90.9,157.8,90.9c-0.1,0.1-0.1,0.1-0.2,0.1s-0.1,0-0.1,0
				c-0.1,0-0.1,0.1-0.1,0.1c-0.1,0.1-0.2,0.1-0.2,0.1c-0.1,0-0.1,0.1-0.1,0.1c-0.1,0.1-0.1,0.1-0.2,0.2c-0.1,0.1-0.1,0.2-0.1,0.3
				c0,0.1-0.1,0.1-0.1,0.2s0,0.1,0,0.2c0,0.1,0,0.1,0,0.1s0,0.1,0,0.1c0,0.1,0,0.1,0,0.1c0,0.1,0,0.1,0,0.1v0.1l0,0l0,0
				c0-0.1-0.1-0.1-0.1-0.1s-0.1-0.1-0.1-0.1c0-0.1,0-0.1,0-0.1c0-0.1-0.1-0.1-0.1-0.1c-0.1-0.1-0.1-0.1-0.1-0.2s-0.1-0.2-0.2-0.3
				c-0.1-0.1-0.1-0.1-0.2-0.1c-0.1-0.1-0.2-0.1-0.2-0.1c-0.1,0-0.2,0-0.2,0s-0.1,0-0.1,0s-0.1,0-0.1,0c-0.1,0-0.1,0-0.1,0h-0.1l0,0
				l0,0c0.1,0,0.1-0.1,0.1-0.1c0.1,0,0.1,0,0.1-0.1c0.1,0,0.1-0.1,0.1-0.1c0.1-0.1,0.1-0.1,0.2-0.1s0.2-0.1,0.3-0.2
				c0.1-0.1,0.1-0.1,0.1-0.2s0.1-0.2,0.1-0.2c0-0.1,0-0.2,0-0.2s0-0.1,0-0.1s0-0.1,0-0.1c0-0.1,0-0.1,0-0.1c0-0.1,0-0.1,0-0.1v-0.1
				l0,0l0,0c0,0.1,0,0.1,0.1,0.1c0,0.1,0.1,0.1,0.1,0.1c0,0.1,0,0.1,0.1,0.1c0,0.1,0.1,0.1,0.1,0.1c0.1,0.1,0.1,0.2,0.1,0.2
				c0,0.1,0.1,0.1,0.1,0.1c0.1,0.1,0.1,0.1,0.2,0.2c0.1,0.1,0.1,0.1,0.2,0.1c0.1,0.1,0.2,0.1,0.2,0.1s0.1,0,0.2,0c0.1,0,0.1,0,0.1,0
				h0.1c0.1,0,0.1,0,0.1,0L157.8,90.9C157.7,90.9,157.7,90.9,157.8,90.9L157.8,90.9z"/>
		</g>
		<g class="st1">
			<g>
				<path class="st2" d="M125.1,99.3L125.1,99.3L125.1,99.3L125.1,99.3C125.1,99.3,125.1,99.3,125.1,99.3L125.1,99.3z"/>
			</g>
			<g>
				<path class="st2" d="M125.1,99.3L125.1,99.3L125.1,99.3L125.1,99.3z"/>
			</g>
		</g>
		<g class="st1">
			<path class="st2" d="M125,69.9c-30.2,0-54.8,24.6-54.8,54.8c0,3.7,0.4,7.4,1.1,11c0.1,0.7,0.3,1.4,0.5,2.2
				c0.4,1.5,0.8,3.1,1.3,4.5c0.3,1,0.7,2,1.1,3c1.1,2.6,2.3,5.1,3.7,7.5c0.5,0.8,1,1.7,1.5,2.5c1.3,1.9,2.7,3.7,4.2,5.4
				c0.5,0.6,1,1.2,1.5,1.7c1.3,1.4,2.8,2.8,4.2,4c0.8,0.7,1.7,1.4,2.5,2c9.2,6.9,20.6,11.1,33,11.1s23.8-4.1,33-11.1
				c0.9-0.7,1.7-1.3,2.5-2c1.5-1.3,2.9-2.6,4.2-4c0.6-0.6,1-1.1,1.5-1.7c1.5-1.7,2.9-3.5,4.1-5.3c0.6-0.8,1-1.6,1.5-2.4
				c1.4-2.4,2.7-4.8,3.7-7.4c0.4-1,0.8-2,1.2-3c0.5-1.5,1-3,1.3-4.6c0.2-0.7,0.3-1.4,0.5-2.2c0.7-3.5,1.1-7.2,1.1-11
				C179.8,94.4,155.3,69.9,125,69.9z M125,177.3c-8.6,0-16.7-2.1-24-5.7c0.5,0.1,1.1,0.1,1.7,0.1c3.1,0,4.7-0.9,6.1-1.8
				c1.3-0.8,2.5-1.5,5-1.5s3.7,0.7,5,1.5c1.4,0.8,3,1.8,6.1,1.8c3.1,0,4.7-0.9,6.1-1.8c1.3-0.8,2.5-1.5,5-1.5c2.5,0,3.7,0.7,5,1.5
				c1.4,0.8,3.1,1.8,6.1,1.8c0.6,0,1-0.1,1.5-0.1C141.8,175.2,133.6,177.3,125,177.3z M157.2,166.2c-2.3,0.2-3.6,1-4.8,1.7
				c-1.3,0.8-2.5,1.5-5,1.5s-3.7-0.7-5-1.5c-1.4-0.8-3-1.8-6.1-1.8c-3.1,0-4.7,0.9-6.1,1.8c-1.3,0.8-2.5,1.5-5,1.5s-3.7-0.7-5-1.5
				c-1.4-0.8-3-1.8-6.1-1.8s-4.7,0.9-6.1,1.8c-1.3,0.8-2.5,1.5-5,1.5s-3.7-0.7-5-1.5c-1.3-0.7-2.6-1.5-5-1.8c-1.9-1.5-3.8-3.1-5.5-5
				c1.1-0.6,2.3-1.1,4.4-1.1c2.5,0,3.7,0.7,5,1.5c1.4,0.8,3.1,1.8,6.1,1.8c3.1,0,4.7-0.9,6.1-1.8c1.3-0.8,2.5-1.5,5-1.5
				s3.7,0.7,5,1.5c1.4,0.8,3,1.8,6.1,1.8s4.7-0.9,6.1-1.8c1.3-0.8,2.5-1.5,5-1.5c2.5,0,3.7,0.7,5,1.5c1.4,0.8,3.1,1.8,6.1,1.8
				c3.1,0,4.7-0.9,6.1-1.8c1.3-0.8,2.5-1.5,5-1.5c2,0,3.1,0.4,4.2,1C161.1,163,159.2,164.7,157.2,166.2z M164.4,159.6
				c-1.3-0.8-2.9-1.6-5.8-1.6c-3.1,0-4.7,0.9-6.1,1.8c-1.3,0.8-2.5,1.5-5,1.5c-2.5,0-3.7-0.7-5-1.5c-1.4-0.8-3-1.8-6.1-1.8
				c-3.1,0-4.7,0.9-6.1,1.8c-1.3,0.8-2.5,1.5-5,1.5s-3.7-0.7-5-1.5c-1.4-0.8-3-1.8-6.1-1.8s-4.7,0.9-6.1,1.8c-1.3,0.8-2.5,1.5-5,1.5
				s-3.7-0.7-5-1.5c-1.4-0.8-3-1.8-6.1-1.8c-2.9,0-4.5,0.8-5.9,1.7c-1.3-1.4-2.5-2.9-3.6-4.5c2-0.3,3.2-1,4.4-1.7
				c1.3-0.8,2.5-1.5,5-1.5s3.7,0.7,5,1.5c1.4,0.8,3.1,1.8,6.1,1.8c3.1,0,4.7-0.9,6.1-1.8c1.3-0.8,2.5-1.5,5-1.5s3.7,0.7,5,1.5
				c1.4,0.8,3,1.8,6.1,1.8c3.1,0,4.7-0.9,6.1-1.8c1.3-0.8,2.5-1.5,5-1.5c2.5,0,3.7,0.7,5,1.5c1.4,0.8,3.1,1.8,6.1,1.8
				c3.1,0,4.7-0.9,6.1-1.8c1.3-0.8,2.5-1.5,5-1.5c2.5,0,3.7,0.7,5,1.5c1.1,0.7,2.3,1.4,4.3,1.7C166.7,156.7,165.6,158.1,164.4,159.6
				z M169.3,153.1c-2.2-0.1-3.3-0.7-4.6-1.5c-1.4-0.8-3-1.8-6.1-1.8c-3.1,0-4.7,0.9-6.1,1.8c-1.3,0.8-2.5,1.5-5,1.5
				c-2.5,0-3.7-0.7-5-1.5c-1.4-0.8-3-1.8-6.1-1.8s-4.7,0.9-6.1,1.8c-1.3,0.8-2.5,1.5-5,1.5c-2.5,0-3.7-0.7-5-1.5
				c-1.4-0.8-3-1.8-6.1-1.8s-4.7,0.9-6.1,1.8c-1.3,0.8-2.5,1.5-5,1.5s-3.7-0.7-5-1.5c-1.4-0.8-3-1.8-6.1-1.8c-3.1,0-4.7,0.9-6.1,1.8
				c-1.3,0.8-2.4,1.4-4.7,1.5c-1.3-2-2.5-4.2-3.5-6.4c0.9,0.3,1.9,0.4,3.2,0.4c3.1,0,4.7-0.9,6.1-1.8c1.3-0.8,2.5-1.5,5-1.5
				c2.5,0,3.7,0.7,5,1.5c1.4,0.8,3.1,1.8,6.1,1.8c3.1,0,4.7-0.9,6.1-1.8c1.3-0.8,2.5-1.5,5-1.5s3.7,0.7,5,1.5c1.4,0.8,3,1.8,6.1,1.8
				c3.1,0,4.7-0.9,6.1-1.8c1.3-0.8,2.5-1.5,5-1.5c2.5,0,3.7,0.7,5,1.5c1.4,0.8,3.1,1.8,6.1,1.8c3.1,0,4.7-0.9,6.1-1.8
				c1.3-0.8,2.5-1.5,5-1.5c2.5,0,3.7,0.7,5,1.5c1.4,0.8,3.1,1.8,6.1,1.8c1.2,0,2.2-0.1,3-0.4C171.8,149,170.6,151,169.3,153.1z
				 M174,143.9c-1.1,0.6-2.3,1-4.3,1c-2.5,0-3.7-0.7-5-1.5c-1.4-0.8-3-1.8-6.1-1.8c-3.1,0-4.7,0.9-6.1,1.8c-1.3,0.8-2.5,1.5-5,1.5
				c-2.5,0-3.7-0.7-5-1.5c-1.4-0.8-3-1.8-6.1-1.8c-3.1,0-4.7,0.9-6.1,1.8c-1.3,0.8-2.5,1.5-5,1.5s-3.7-0.7-5-1.5
				c-1.4-0.8-3-1.8-6.1-1.8s-4.7,0.9-6.1,1.8c-1.3,0.8-2.5,1.5-5,1.5s-3.7-0.7-5-1.5c-1.4-0.8-3-1.8-6.1-1.8c-3.1,0-4.7,0.9-6.1,1.8
				c-1.3,0.8-2.5,1.5-5,1.5c-2.1,0-3.3-0.5-4.5-1.2c-0.8-1.9-1.4-4-1.9-6h101.9C175.4,139.9,174.8,141.9,174,143.9z M91.1,135.6
				l2-9.3l1,9.3H91.1z M133.1,108.3l-8.3,8.1l-8.3-8.1H133.1L133.1,108.3z M117.7,106.1l7.2-4.5l7.2,4.5H117.7z M107.4,121.4l15.3-2
				l-9,15L107.4,121.4z M111.8,135.6H97.4l8.3-12.8L111.8,135.6z M124.9,120.1l9.3,15.5h-18.7L124.9,120.1z M126.9,119.3l15.3,2
				l-6.2,13L126.9,119.3z M144,122.7l8.3,12.8h-14.5L144,122.7z M145.8,121.4l9.5-0.7l-1.6,12.8L145.8,121.4z M144.4,119.3l-5.5-9.1
				l14.6,8.4L144.4,119.3z M138.8,107.7l3.7-0.9l6.7,6.9L138.8,107.7z M141.8,119.1l-14.5-1.9l8.4-8.2L141.8,119.1z M136,106
				L136,106l-4-2.5l6.4,1.9L136,106z M113.7,106l-2.5-0.6l6.5-1.9L113.7,106z M114.1,109l8.4,8.2l-14.5,1.9L114.1,109z M110.7,110.2
				l-5.5,9.1l0,0l-9-0.7L110.7,110.2z M100.7,113.5l6.5-6.8l3.7,0.9L100.7,113.5z M104,121.4l-7.8,12.1l-1.4-12.8L104,121.4z
				 M155.6,135.6l1.2-9.6l2.1,9.6H155.6z M176.5,135.6h-15.4l-3.6-16.2c0-0.1,0-0.1-0.1-0.1l0,0v-0.1v-0.1c-0.1-0.1-0.1-0.2-0.2-0.3
				l0,0l-13.7-14l-0.1-0.1c-0.1-0.1-0.1-0.1-0.1-0.1s-0.1-0.1-0.1-0.1c-0.1,0-0.1-0.1-0.1-0.1l-0.1-0.1c-0.1-0.1-0.1-0.1-0.2-0.1
				l-17.9-5.1h-0.1c0,0,0,0-0.1,0c0,0,0,0-0.1,0l0,0h0c-0.1,0-0.1,0-0.1,0c-0.1,0-0.1,0-0.1,0h-0.1c-0.1,0-0.1,0-0.1,0h-0.1h-0.1
				l0,0c0,0,0,0-0.1,0h-0.1l-17.9,5.1h-0.1c-0.1,0-0.1,0.1-0.1,0.1s-0.1,0.1-0.1,0.1s-0.1,0.1-0.1,0.1c-0.1,0.1-0.1,0.1-0.1,0.1
				l-0.1,0.1c-0.1,0.1-0.1,0.1-0.1,0.1l-0.1,0.1l-13.4,14l-0.1,0.1l-0.1,0.1l-0.1,0.1c-0.1,0.1-0.1,0.2-0.1,0.3
				c0,0.1-0.1,0.1-0.1,0.1v0.1l-3.5,16.2H73.4c-0.7-3.5-1.2-7.2-1.2-11c0-29,23.6-52.6,52.6-52.6c29,0,52.6,23.6,52.6,52.6
				C177.6,128.4,177.2,132,176.5,135.6z"/>
		</g>
		<g class="st1">
			<g>
				<path class="st2" d="M167.7,119.7c0,0.1,0,0.2,0,0.4V119.7C167.7,119.6,167.7,119.6,167.7,119.7z"/>
			</g>
			<g>
				<path class="st2" d="M174.8,130.3c-0.1,0.4-0.4,0.6-0.7,0.6c-0.1,0-0.1,0-0.2-0.1c-0.2-0.1-2.9-0.7-4.7-2.4v7.3
					c0,0.4-0.3,0.8-0.8,0.8s-0.8-0.3-0.8-0.8v-7.3c-1.8,1.8-4.5,2.4-4.7,2.4c-0.1,0-0.1,0.1-0.2,0.1c-0.3,0-0.7-0.2-0.7-0.6
					c-0.1-0.4,0.2-0.8,0.6-0.9c0.1,0,1.3-0.3,2.5-1c1.3-0.7,2.5-1.8,2.5-3.4v-1.4c-1.3,1.3-3,1.8-4.1,1.9c-0.1,0-0.1,0-0.1,0
					c-0.4,0-0.7-0.3-0.8-0.7c-0.1-0.4,0.3-0.8,0.7-0.8c0.2-0.1,4.1-0.6,4.3-4l0,0c0-0.1,0-0.2,0-0.4c0-0.1,0-0.1,0-0.1v-0.7
					c-1.3,1.4-2.8,1.7-2.8,1.7c-0.4,0.1-0.8-0.2-0.9-0.7c-0.1-0.4,0.2-0.8,0.7-0.9c0.1-0.1,3-0.6,3-4.8v0.1c0-0.4,0.3-0.8,0.8-0.8
					c0.2,0,0.4,0.1,0.6,0.2s0.2,0.3,0.2,0.6v0.1c0,4.3,2.9,4.8,3,4.8c0.4,0.1,0.7,0.5,0.7,0.9c-0.1,0.4-0.4,0.7-0.7,0.7
					c-0.1,0-0.1,0-0.1,0s-1.5-0.3-2.8-1.7v0.6c0,0.1,0,0.1,0,0.1c0,0.1,0,0.1,0,0.1v0.3c0-0.1,0-0.1,0-0.1c0.1,3.5,4.1,4,4.3,4
					c0.4,0.1,0.7,0.4,0.7,0.8c-0.1,0.4-0.4,0.7-0.8,0.7c-0.1,0-0.1,0-0.1,0c-1.2-0.1-2.9-0.7-4.1-1.9v1.3c0,0.1,0,0.1,0,0.1
					c0,3.2,5,4.4,5.1,4.4C174.7,129.5,175,130,174.8,130.3z"/>
			</g>
			<g>
				<path class="st2" d="M169.2,120L169.2,120c0,0.1,0,0.1,0,0.1v-0.3C169.2,119.9,169.2,119.9,169.2,120z"/>
			</g>
			<g>
				<path class="st2" d="M167.7,119.7c0,0.1,0,0.2,0,0.4V119.7L167.7,119.7z"/>
				<path class="st2" d="M169.2,120L169.2,120c0,0.1,0,0.1,0,0.1v-0.3C169.2,119.9,169.2,119.9,169.2,120z"/>
			</g>
			<g>
				<path class="st3" d="M168.5,114.3"/>
			</g>
		</g>
		<g class="st1">
			<g>
				<path class="st2" d="M80.8,120L80.8,120C80.8,120,80.8,120,80.8,120v-0.2C80.8,119.9,80.8,119.9,80.8,120z"/>
				<path class="st2" d="M81.9,124.3c0.1,0.1,0.1,0.1,0.1,0.1C82,124.4,81.9,124.3,81.9,124.3z"/>
				<path class="st2" d="M88,130.3c-0.1,0.4-0.4,0.6-0.7,0.6c-0.1,0-0.1,0-0.2-0.1c-0.2-0.1-2.9-0.7-4.7-2.4v7.3
					c0,0.4-0.3,0.8-0.8,0.8s-0.8-0.3-0.8-0.8v-7.3c-1.8,1.8-4.5,2.4-4.7,2.4c-0.1,0-0.1,0.1-0.2,0.1c-0.3,0-0.7-0.2-0.7-0.6
					c-0.1-0.4,0.2-0.8,0.6-0.9c0.1,0,1.3-0.3,2.5-1c1.3-0.7,2.5-1.8,2.5-3.4v-1.4c-1.3,1.2-3,1.8-4.1,1.9c-0.1,0-0.1,0-0.1,0
					c-0.4,0-0.7-0.3-0.8-0.7c-0.1-0.4,0.3-0.8,0.7-0.8c0.2-0.1,4.1-0.5,4.3-4V120l0,0c0-0.1,0-0.1,0-0.2v-0.9
					c-1.3,1.4-2.8,1.7-2.8,1.7c-0.4,0.1-0.8-0.2-0.9-0.7c-0.1-0.4,0.2-0.8,0.7-0.9c0.1-0.1,3-0.6,3-4.8v0.1c0-0.4,0.3-0.8,0.8-0.8
					l0,0c0.4,0,0.8,0.3,0.8,0.8v0.1c0,4.3,2.9,4.8,3,4.8c0.4,0.1,0.7,0.5,0.7,0.9c-0.1,0.4-0.4,0.7-0.7,0.7c-0.1,0-0.1,0-0.1,0
					s-1.5-0.3-2.8-1.7v0.5c0,0.1,0,0.1,0,0.2s0,0.2,0,0.3l0,0c0.1,3.5,4.1,4,4.3,4c0.4,0.1,0.7,0.4,0.7,0.8s-0.4,0.7-0.8,0.7
					c-0.1,0-0.1,0-0.1,0c-1.2-0.1-2.9-0.7-4.1-1.9v1.3c0,0.1,0,0.1,0,0.1c0,3.2,5,4.4,5.1,4.4C87.8,129.5,88.1,130,88,130.3z"/>
			</g>
			<g>
				<path class="st2" d="M81.9,124.3c0.1,0.1,0.1,0.1,0.1,0.1C82,124.4,81.9,124.3,81.9,124.3z"/>
			</g>
			<g>
				<path class="st3" d="M81.6,114.3"/>
			</g>
		</g>
	</g>
	<g>
		<path class="st2" d="M114.6,12.1c-0.2-2.6-0.3-4.4-0.6-6.3c0.5,0,1.2,0.1,1.9,0c0.8-0.1,1.4-0.2,1.9-0.2c0,2,0.1,3.8,0.2,6.4
			l0.2,3.1c0.1,1.7,0.2,3.5,0.3,4.6c1.7-0.1,3.5-0.3,5.2-0.6c0,0.3-0.1,0.6-0.1,1c0.1,0.5,0.1,0.7,0.2,1c-0.8,0-1.9,0-4,0.1
			c-3.7,0.2-4.4,0.3-4.8,0.4c0-2-0.1-3.8-0.2-6.4L114.6,12.1z"/>
		<path class="st2" d="M126,11.3c1.3-1,2.9-1.5,4.4-1.4c2.4,0.1,4.2,1.2,4,4c-0.1,1.9-0.2,3.6-0.3,5.2c-0.1,1.4,0.3,1.6,1.3,1.7v0.6
			c-0.9,0.4-1.4,0.6-2.1,0.5c-1.1-0.1-1.8-0.7-2.1-1.8c-0.8,0.9-1.7,1.6-3.1,1.5c-2.3-0.1-3.2-1.7-3.1-3.2c0.1-2,1.5-2.8,3.6-3.2
			c2.6-0.5,2.9-0.7,2.9-1.5c0.1-1.1-0.7-2-2.1-2.1c-1-0.1-2.3,0.5-2.8,1.2h-0.2L126,11.3z M131.2,15.4c-1.3,0.7-3.1,0.5-3.2,2.8
			c-0.1,1.1,0.4,1.8,1.2,1.8c1,0.1,1.8-0.7,1.8-2.2C131.2,16.5,131.2,15.9,131.2,15.4z"/>
		<path class="st2" d="M138.1,12.4c0.4-3,0.8-5.3,1-7.9c0.4,0.1,1,0.3,1.7,0.4s1.3,0.2,1.7,0.2c-0.5,2.5-0.9,4.8-1.8,10.7
			c-0.1,0.4-0.1,0.5,0.1,0.5c0.3,0.1,2.3-1.7,5.1-4.4c0.3,0.1,0.7,0.2,1,0.3c0.3,0.1,0.7,0.1,1.3,0.1c-0.9,0.8-3.9,2.9-4.7,3.6
			c0.3,0.7,2.8,6.6,3,7.4c-0.6-0.2-1.2-0.3-1.8-0.4c-0.6-0.1-1.2-0.1-1.8-0.2c-0.3-0.8-2.1-5.7-2.4-5.8c-0.2,0-0.2,0.1-0.5,2.2
			c-0.1,0.8-0.3,2.5-0.3,3c-0.6-0.1-1.1-0.3-1.6-0.4c-0.6-0.1-1.1-0.1-1.7-0.2c0.5-2.5,0.9-4.8,1.4-7.8L138.1,12.4z"/>
		<path class="st2" d="M151.7,18.9c-0.7,2.4-0.2,4.5,1.9,5c1,0.3,2,0.2,3-0.3l0.2,0.3L156,25c-0.9,0.4-2,0.6-3.6,0.1
			c-2.9-0.8-5-3.2-3.9-7s3.7-5.1,6.7-4.4c2.9,0.8,4,3.1,3.2,6.2c-0.1,0.4-0.2,0.6-0.2,0.7L151.7,18.9z M155.4,18.8
			c0.6-2.3,0.5-3.8-0.7-4.1c-1.3-0.3-2.3,1.5-2.8,3.2L155.4,18.8z"/>
		<path class="st2" d="M179.3,18.2c0.3,0.2,0.6,0.4,0.9,0.6s0.7,0.2,1,0.3c-2.9,2.6-8.5,7.8-12.3,11.8c-0.3-0.2-0.6-0.4-0.9-0.6
			s-0.7-0.2-1-0.3c0.3-4.2,0.8-13.2,0.9-17c0.6,0.4,1.2,0.7,1.8,0.9c0.6,0.3,1.3,0.5,1.9,0.7c-0.5,3.5-0.7,8.1-1,12.2
			C173.6,24.1,176.8,20.9,179.3,18.2z"/>
		<path class="st2" d="M178.9,29.3c0.9-1.6,1.7-3,2.4-4.5c0.3,0.3,0.8,0.6,1.4,1c0.6,0.4,1.2,0.6,1.5,0.8c-0.9,1.3-1.8,2.7-2.8,4.3
			l-0.4,0.8c-0.9,1.6-1.7,3-2.4,4.5c-0.3-0.2-0.8-0.6-1.4-1c-0.6-0.4-1.2-0.6-1.5-0.8c0.9-1.3,1.8-2.7,2.8-4.3L178.9,29.3z
			 M185.8,20.3c0.9,0.5,1.2,1.6,0.7,2.5c-0.5,0.9-1.6,1.2-2.5,0.7c-0.9-0.5-1.2-1.6-0.7-2.5C183.9,20.1,185,19.8,185.8,20.3z"/>
		<path class="st2" d="M186.3,34.4c-1.4,2-1.7,4.1,0,5.3c0.9,0.6,1.8,0.9,2.9,0.8l0.1,0.3l-1.2,0.8c-0.9,0.1-2-0.2-3.5-1.2
			c-2.4-1.7-3.5-4.7-1.2-8c2.3-3.2,5.2-3.5,7.8-1.8c2.4,1.7,2.8,4.2,0.9,6.9c-0.2,0.3-0.3,0.5-0.4,0.6L186.3,34.4z M189.8,35.6
			c1.3-1.9,1.8-3.4,0.8-4.1c-1.1-0.8-2.6,0.6-3.7,2L189.8,35.6z"/>
		<path class="st2" d="M200.6,49.3c2.4-1.4,4.8-2.8,7.1-4.3c0.2,0.2,0.4,0.5,0.6,0.7s0.5,0.3,0.8,0.6c-1.3,0.4-7.2,3.6-10.4,5.6
			c-0.3-0.3-0.6-0.7-0.8-0.9c-0.3-0.3-0.7-0.6-1-0.8c1.2-2.4,2.5-5.1,3.5-7.1l-0.1-0.1c-2.3,1.3-4.6,2.6-6.8,4
			c-0.3-0.3-0.6-0.7-0.9-1c-0.3-0.3-0.7-0.6-1.1-0.8c1.8-3.4,4.6-9.6,5-10.6c0.4,0.5,0.8,0.9,1.3,1.3c0.4,0.4,0.9,0.7,1.3,1
			c-1.3,2.4-2.6,5.2-3.7,7.4l0.1,0.1c2.4-1.4,4.8-2.8,7.1-4.3c0.3,0.3,0.6,0.7,0.9,0.9c0.3,0.3,0.7,0.6,1,0.8
			C203.1,44.3,201.8,46.8,200.6,49.3L200.6,49.3z"/>
		<path class="st2" d="M224.2,64.4c0.6-1.6,0.6-3.3-0.7-5.1c-1.6-2.4-5.2-3.5-9.2-0.7c-3,2.1-4.1,5.3-2.1,8.3
			c0.4,0.7,1.3,1.7,1.8,1.8c0.3-0.2,0.8-0.5,1.4-0.8c2-1.4,2.8-2.1,3.2-2.4c0.1,0.3,0.3,0.7,0.9,1.5c0.6,0.9,0.9,1.3,1.2,1.5
			c-0.4,0.2-2.1,1.2-3.3,2c-0.8,0.6-1.8,1.3-2,1.5c-1.6-1.3-3.1-2.8-4.3-4.5c-3-4.4-2.6-9.2,1.2-11.8c4.8-3.3,9.6-1.5,12.6,2.9
			c1.3,1.9,1.8,3.5,2,5.3c-0.8,0.2-1.6,0.4-2.3,0.8L224.2,64.4z"/>
		<path class="st2" d="M224.1,70.5c2.6-1.4,4.7-2.6,6.9-3.9c0.1,0.4,0.4,1,0.7,1.6c0.3,0.6,0.7,1.2,0.9,1.5
			c-2.4,1.1-4.5,2.1-7.1,3.6l-1.3,0.7c-2.6,1.4-4.7,2.6-6.9,3.9c-0.1-0.4-0.4-1-0.7-1.6s-0.7-1.2-0.9-1.5c2.4-1.1,4.5-2.1,7.1-3.6
			L224.1,70.5z"/>
		<path class="st2" d="M227.5,76.2c1.4,0.7,2.6,2,3.2,3.3c0.9,2.3,0.7,4.3-1.8,5.3c-1.8,0.8-3.3,1.3-4.8,2c-1.3,0.6-1.3,1-0.9,1.9
			l-0.5,0.2c-0.8-0.6-1.1-1-1.4-1.7c-0.4-1-0.1-1.9,0.7-2.7c-1.2-0.3-2.1-0.8-2.7-2.1c-0.9-2.1,0.1-3.6,1.5-4.2
			c1.8-0.8,3.1,0.1,4.4,1.8c1.6,2.1,1.8,2.3,2.6,1.9c1-0.4,1.5-1.5,1-2.8c-0.4-1-1.5-1.9-2.3-2l-0.1-0.2L227.5,76.2z M226.1,82.8
			c-1.2-0.9-1.8-2.5-3.9-1.7c-1,0.4-1.4,1.2-1.1,1.9c0.4,0.9,1.4,1.3,2.8,0.7C225.1,83.1,225.7,83,226.1,82.8z"/>
		<path class="st2" d="M232.8,90.6L232.8,90.6c1.4,0.6,2.5,1.5,2.9,2.9c0.3,1.3-0.2,2.5-1.4,3.4c1.6,0.6,2.7,1.6,3,2.9
			c0.6,2.2-0.3,3.8-3.2,4.6c-1.5,0.4-2.6,0.6-3.7,0.9c-0.9,0.2-2.1,0.6-3.2,0.9c-0.1-0.4-0.2-1-0.3-1.7c-0.2-0.7-0.4-1.3-0.6-1.7
			c1.7-0.2,3.8-0.8,6.4-1.4c1.9-0.5,2.5-1.4,2.3-2.5c-0.4-1.4-2-1.4-3-1.1l-1.6,0.4c-1.8,0.5-3.4,0.9-4.9,1.5
			c-0.1-0.4-0.2-1-0.3-1.7c-0.2-0.7-0.4-1.3-0.6-1.7c1.6-0.3,3.2-0.7,5-1.2l1.4-0.4c1.8-0.5,2.7-1.1,2.4-2.4c-0.3-1.3-1.8-1.6-3.8-1
			l-0.9,0.2c-1.8,0.5-3.4,0.9-4.9,1.5c-0.1-0.4-0.2-1-0.3-1.7c-0.2-0.7-0.4-1.3-0.6-1.7c1.6-0.3,3.2-0.7,5-1.2l0.9-0.2
			c1.8-0.5,3.4-0.9,4.9-1.5c0.1,0.6,0.2,1.1,0.3,1.6c0.2,0.6,0.3,1,0.6,1.6L232.8,90.6z"/>
		<path class="st2" d="M230.5,107.9c3-0.3,5.3-0.7,7.9-1c0,0.6,0,1.1,0.1,1.6c0.1,0.6,0.2,1,0.3,1.5c-0.5,0-1.3,0-2,0.1v0.1
			c1.3,0.3,2.4,1.4,2.6,3c0.3,2.3-1.2,4.6-5.2,5.1c-4.4,0.5-6.3-1.6-6.5-3.9c-0.2-1.4,0.3-2.5,1.3-3.1v-0.1c-2.2,0.2-6.3,0.7-7.4,1
			c0-0.4,0-1-0.1-1.7c-0.1-0.7-0.2-1.3-0.3-1.7c2.6-0.2,5-0.3,7.9-0.7L230.5,107.9z M237.8,112.3c-0.1-1.2-1.5-2-4.9-1.7
			c-2.8,0.3-4,1.2-3.9,2.5c0.2,1.3,1.7,2,4.7,1.7C236.8,114.5,237.9,113.5,237.8,112.3z"/>
		<path class="st2" d="M234.5,120.8c1.9-0.1,3.5-0.1,5.1-0.3c-0.1,0.4-0.1,1-0.1,1.7c0,0.7,0.1,1.3,0.2,1.7
			c-1.6-0.1-3.2-0.1-5.1-0.1h-0.9c-1.9,0.1-3.5,0.1-5.1,0.3c0.1-0.4,0.1-1,0.1-1.7c0-0.7-0.1-1.3-0.2-1.7c1.6,0.1,3.2,0.1,5.1,0.1
			H234.5z M245.7,122.1c0,1-0.8,1.8-1.8,1.9c-1,0-1.8-0.8-1.9-1.8c-0.1-1,0.8-1.8,1.8-1.9C244.8,120.3,245.7,121,245.7,122.1z"/>
		<path class="st2" d="M237.8,130.3L237.8,130.3c1.2,1,1.9,2.2,1.8,3.6c-0.2,2.3-1.5,3.5-4.5,3.3c-1.5-0.1-2.6-0.3-3.9-0.3
			c-1-0.1-2.1-0.1-3.4-0.1c0.1-0.4,0.2-1,0.2-1.7c0.1-0.7,0.1-1.3,0-1.7c1.7,0.3,3.9,0.5,6.6,0.7c1.9,0.1,2.9-0.5,2.9-1.7
			c0.1-1.4-1.2-2.1-3.2-2.2l-0.9-0.1c-1.9-0.1-3.5-0.2-5.1-0.2c0.1-0.4,0.2-1,0.2-1.7c0.1-0.7,0-1.3,0-1.7c1.6,0.2,3.2,0.4,5.1,0.6
			l0.9,0.1c1.9,0.1,3.5,0.2,5.1,0.2c-0.1,0.6-0.2,1-0.2,1.6s0,1.1,0,1.7L237.8,130.3z"/>
		<path class="st2" d="M236.3,148.5L236.3,148.5c-0.7,0.6-1.7,0.9-2.8,0.7c-2.3-0.4-3.4-2.5-3-5.1c0.1-0.3,0.2-0.6,0.2-1
			c0.1-0.4-0.3-0.7-0.7-0.8c-0.7-0.1-1.3,0.3-1.5,1.5l-0.3,1.7c-0.5,2.5-1.6,3.5-3.6,3.1c-3.6-0.7-4.2-4.2-3.7-6.9
			c0.5-2.8,2.1-4.3,3.9-4c1.4,0.3,2.1,1.3,2.4,2.8h0.1c0.5-0.7,1.2-1.1,2-1c1,0.2,1.9,1.2,2,2.5h0.1c0.4-0.9,0.9-1.5,1.6-1.9
			c0.7-0.4,1.5-0.5,2.5-0.3c2.3,0.4,3.3,2.6,2.8,5.5c-0.1,0.6-0.3,1.1-0.4,1.7c-0.1,0.4-0.2,0.8-0.3,1.3c-0.1,0.8-0.3,1.6-0.4,2.4
			c-0.2-0.1-0.3-0.1-0.6-0.2c-0.2-0.1-0.4-0.1-0.6-0.1L236.3,148.5z M226.6,142.8c0.2-0.8,0.2-1.3,0.1-1.7c-0.1-0.4-0.8-1-1.8-1.3
			c-1.7-0.3-2.9,0.9-3.1,2.5c-0.3,1.8,0.7,3.1,2.2,3.3C225.7,146,226.2,144.9,226.6,142.8z M234.5,143c-2-0.4-2.8,0.3-2.9,1
			c-0.2,1,0.6,1.6,2.6,2c2,0.4,2.9-0.1,3-0.9C237.3,144,236.4,143.3,234.5,143z"/>
		<path class="st2" d="M226.4,158.7c-0.3,1-1.4,1.5-2.4,1.2s-1.5-1.4-1.2-2.4c0.3-1,1.4-1.5,2.4-1.2S226.8,157.7,226.4,158.7z"/>
		<path class="st2" d="M227.5,172.2c2.3,1.2,3.9,1.9,5.8,2.7c-0.3,0.4-0.6,0.9-0.9,1.7c-0.3,0.7-0.6,1.3-0.8,1.8
			c-1.8-1-3.3-1.9-5.6-3l-2.8-1.4c-1.5-0.8-3.1-1.5-4.2-2c-0.8,1.5-1.5,3.1-2.1,4.8c-0.3-0.2-0.4-0.3-0.9-0.6s-0.7-0.3-0.9-0.4
			c0.4-0.7,1-1.7,1.9-3.5c1.7-3.4,1.9-3.9,2.1-4.4c1.8,1,3.3,1.9,5.6,3L227.5,172.2z"/>
		<path class="st2" d="M222.5,182.5c0.2,1.6-0.2,3.2-1,4.5c-1.3,2-3.1,3-5.5,1.5c-1.7-1-3-2-4.4-2.9c-1.2-0.8-1.5-0.5-2.1,0.3
			l-0.4-0.3c0.1-1,0.2-1.5,0.6-2.1c0.6-0.9,1.5-1.2,2.6-0.9c-0.4-1.1-0.6-2.3,0.2-3.4c1.3-1.9,3.1-1.9,4.3-1.1
			c1.7,1.1,1.7,2.7,1,4.7c-0.9,2.5-0.8,2.8-0.2,3.2c0.9,0.6,2.1,0.4,2.9-0.8c0.6-0.9,0.7-2.3,0.4-3l0.1-0.1L222.5,182.5z M216.3,185
			c0.1-1.5,1.2-2.9-0.8-4.1c-0.9-0.6-1.8-0.6-2.2,0.2c-0.6,0.8-0.3,1.9,1,2.6C215.4,184.4,215.9,184.7,216.3,185z"/>
		<path class="st2" d="M215.4,192.4c2.4,1.9,4.2,3.3,6.3,4.9c-0.3,0.3-0.8,0.8-1.2,1.3c-0.4,0.5-0.8,1-1,1.4c-1.9-1.7-3.7-3.2-8.3-7
			c-0.3-0.3-0.4-0.3-0.4-0.2c-0.2,0.2,0.3,2.8,1.2,6.6c-0.3,0.3-0.6,0.5-0.8,0.8c-0.2,0.3-0.4,0.6-0.7,1c-0.2-1.2-0.6-4.8-0.7-5.8
			c-0.7-0.1-7-0.9-8-1.2c0.4-0.5,0.9-0.9,1.2-1.3c0.4-0.4,0.7-0.9,1-1.4c0.8,0.1,6,1.1,6.2,0.8c0.1-0.1,0.1-0.2-1.7-1.5
			c-0.7-0.5-2-1.5-2.5-1.8c0.4-0.4,0.8-0.8,1.2-1.2c0.3-0.4,0.7-0.9,0.9-1.4c1.9,1.7,3.7,3.2,6.1,5.2L215.4,192.4z"/>
		<path class="st2" d="M202.9,200.8c-1.8-1.8-3.7-2.4-5.3-0.9c-0.8,0.8-1.2,1.7-1.3,2.8l-0.3,0.1l-0.6-1.3c0.1-0.9,0.6-2,1.8-3.2
			c2.1-2.1,5.2-2.6,8.1,0.2c2.8,2.8,2.6,5.8,0.4,8c-2.1,2.1-4.7,1.9-6.9-0.3c-0.3-0.3-0.4-0.4-0.5-0.6L202.9,200.8z M201.2,204.1
			c1.7,1.6,3,2.3,3.9,1.5c1-0.9-0.1-2.7-1.4-4L201.2,204.1z"/>
		<path class="st2" d="M189.7,225.1c-0.3,0.1-0.6,0.3-0.9,0.5c-0.3,0.2-0.6,0.4-0.8,0.7c-0.9-3.8-2.5-11.3-4.1-16.6
			c0.3-0.2,0.6-0.3,0.9-0.5s0.5-0.4,0.8-0.7c3.5,2.4,11,7.3,14.3,9.3c-0.6,0.3-1.2,0.7-1.8,1.1s-1.1,0.8-1.6,1.3
			c-2.8-2.2-6.7-4.7-10-7C187.5,217.1,188.6,221.4,189.7,225.1z"/>
		<path class="st2" d="M180.3,219.1c0.9,1.6,1.8,3,2.7,4.4c-0.4,0.2-0.9,0.4-1.5,0.8s-1.1,0.7-1.4,0.9c-0.7-1.5-1.4-2.9-2.4-4.5
			l-0.4-0.8c-0.9-1.6-1.8-3-2.7-4.4c0.4-0.2,0.9-0.4,1.5-0.8s1.1-0.7,1.4-0.9c0.7,1.5,1.4,2.9,2.4,4.5L180.3,219.1z M184.6,229.7
			c-0.9,0.5-2,0.2-2.5-0.7s-0.2-2,0.7-2.5s2-0.2,2.5,0.7C185.7,228.1,185.5,229.2,184.6,229.7z"/>
		<path class="st2" d="M172.1,223c-1-2.3-2.7-3.6-4.6-2.7c-0.9,0.4-1.7,1.2-2.1,2.1l-0.3-0.1L165,221c0.4-0.8,1.2-1.7,2.8-2.4
			c2.7-1.3,5.8-0.7,7.5,2.9c1.7,3.6,0.4,6.3-2.4,7.6c-2.7,1.3-5.1,0.2-6.4-2.6c-0.2-0.3-0.3-0.6-0.3-0.7L172.1,223z M169.3,225.4
			c1,2.1,2,3.2,3.1,2.8c1.2-0.6,0.8-2.6,0.1-4.2L169.3,225.4z"/>
		<path class="st2" d="M152.1,227.9c-0.1,2.8,0,5.6,0.1,8.3c-0.3,0.1-0.6,0.1-0.9,0.2c-0.3,0.1-0.6,0.2-0.9,0.4
			c0.3-1.3,0.4-8,0.4-11.8c0.4-0.1,0.8-0.2,1.3-0.3s0.8-0.3,1.2-0.5c1.4,2.2,3.1,4.7,4.4,6.6h0.1c0-2.6,0.1-5.3,0-7.9
			c0.4-0.1,0.9-0.2,1.3-0.3c0.4-0.1,0.8-0.3,1.3-0.5c2,3.2,6,8.8,6.7,9.6c-0.7,0.2-1.2,0.3-1.8,0.4c-0.6,0.2-1,0.4-1.6,0.6
			c-1.5-2.3-3.2-4.9-4.5-6.9h-0.1c-0.1,2.8,0.1,5.6,0.1,8.3c-0.4,0.1-0.8,0.2-1.3,0.3s-0.8,0.3-1.2,0.5
			C155.2,232.5,153.7,230.1,152.1,227.9L152.1,227.9z"/>
		<path class="st2" d="M127.1,240.6c1,1.3,2.6,2.1,4.7,2c2.9-0.2,5.6-2.8,5.3-7.6c-0.3-3.6-2.5-6.3-6.1-6c-0.8,0.1-2.1,0.3-2.5,0.6
			c-0.1,0.4,0,0.9,0.1,1.6c0.2,2.5,0.4,3.5,0.4,4c-0.3,0-0.8-0.1-1.7,0c-1.1,0.1-1.5,0.2-1.9,0.2c0.1-0.5,0-2.4-0.1-3.9
			c-0.1-1-0.2-2.2-0.3-2.5c2-0.7,4-1.3,6.1-1.4c5.3-0.4,9.3,2.4,9.6,7c0.4,5.8-3.5,9-8.9,9.4c-2.3,0.2-3.9-0.2-5.6-1
			c0.2-0.8,0.4-1.6,0.5-2.4L127.1,240.6z"/>
		<path class="st2" d="M121.9,237.5c-0.1,3-0.2,5.3-0.2,8c-0.4-0.1-1-0.2-1.7-0.2s-1.3,0-1.7,0.1c0.2-2.6,0.4-5,0.5-7.9l0.1-1.5
			c0.1-3,0.2-5.3,0.2-8c0.4,0.1,1,0.2,1.7,0.2c0.7,0,1.3,0,1.7-0.1c-0.2,2.6-0.4,5-0.5,7.9L121.9,237.5z"/>
		<path class="st2" d="M115.4,237.6c-1.4,0.9-3,1.3-4.5,1c-2.4-0.3-4.1-1.5-3.7-4.2c0.2-1.9,0.5-3.5,0.7-5.2
			c0.2-1.4-0.2-1.7-1.2-1.8l0.1-0.6c0.9-0.3,1.5-0.4,2.2-0.3c1.1,0.2,1.7,0.9,2,1.9c0.8-0.9,1.8-1.5,3.2-1.3
			c2.3,0.3,3.1,1.9,2.9,3.4c-0.2,2-1.7,2.6-3.8,2.9c-2.6,0.3-2.9,0.4-3,1.3c-0.1,1.1,0.6,2.1,1.9,2.3c1,0.1,2.4-0.3,2.9-0.9h0.2
			L115.4,237.6z M110.4,233.1c1.4-0.6,3.1-0.2,3.4-2.5c0.2-1.1-0.3-1.8-1.1-1.9c-1-0.1-1.8,0.6-2,2
			C110.6,232,110.4,232.5,110.4,233.1z"/>
		<path class="st2" d="M100.2,234.9L100.2,234.9c-1.2,0.9-2.5,1.4-3.9,1c-1.3-0.4-2.1-1.4-2.3-2.9c-1.3,1.1-2.7,1.5-4,1.2
			c-2.2-0.6-3.1-2.2-2.4-5c0.4-1.5,0.8-2.5,1.1-3.7c0.3-0.9,0.5-2.1,0.8-3.2c0.4,0.2,1,0.4,1.7,0.6c0.7,0.2,1.3,0.3,1.7,0.3
			c-0.7,1.5-1.3,3.7-2,6.3c-0.5,1.8-0.1,2.9,1,3.2c1.4,0.4,2.1-1,2.5-2.1l0.4-1.6c0.5-1.8,0.9-3.4,1.2-5c0.4,0.2,0.9,0.4,1.7,0.6
			c0.7,0.2,1.3,0.3,1.7,0.3c-0.6,1.5-1,3.1-1.5,4.9l-0.4,1.4c-0.5,1.8-0.4,2.9,0.8,3.2c1.3,0.4,2.3-0.7,2.8-2.8l0.2-0.9
			c0.5-1.8,0.9-3.4,1.2-5c0.4,0.2,0.9,0.4,1.7,0.6c0.7,0.2,1.3,0.3,1.7,0.3c-0.6,1.5-1,3.1-1.5,4.9l-0.2,0.9c-0.5,1.8-0.9,3.4-1.2,5
			c-0.5-0.2-1-0.4-1.5-0.6c-0.6-0.2-1-0.2-1.7-0.3L100.2,234.9z"/>
		<path class="st2" d="M86.5,224.2c-1.2,2.8-2.1,5-3.1,7.4c-0.4-0.3-0.9-0.6-1.4-0.8c-0.5-0.2-1-0.4-1.5-0.6
			c0.2-0.4,0.7-1.2,0.9-1.8h-0.1c-0.9,1-2.4,1.4-3.9,0.8c-2.1-0.9-3.4-3.4-1.8-7c1.8-4,4.5-4.6,6.6-3.7c1.3,0.6,2,1.5,2,2.8h0.1
			c0.9-2,2.6-5.8,2.9-6.9c0.3,0.2,0.9,0.6,1.5,0.8c0.6,0.3,1.3,0.5,1.7,0.6c-1.2,2.3-2.1,4.5-3.4,7.2L86.5,224.2z M78.9,228.3
			c1,0.4,2.5-0.2,3.9-3.4c1.1-2.5,0.9-4.1-0.3-4.6c-1.2-0.6-2.5,0.4-3.7,3.2C77.6,226.3,77.8,227.8,78.9,228.3z"/>
		<path class="st2" d="M66.5,230.3c-0.9-0.5-1.2-1.6-0.7-2.5c0.5-0.9,1.6-1.2,2.5-0.7s1.2,1.6,0.7,2.5
			C68.5,230.5,67.3,230.7,66.5,230.3z M73.3,221.1c-0.9,1.7-1.7,3.1-2.3,4.6c-0.3-0.2-0.8-0.6-1.4-0.9s-1.2-0.6-1.5-0.7
			c0.9-1.3,1.8-2.8,2.6-4.4l0.4-0.8c0.9-1.7,1.7-3.1,2.3-4.6c0.3,0.2,0.8,0.6,1.4,0.9c0.6,0.3,1.2,0.6,1.5,0.7
			c-0.9,1.3-1.8,2.8-2.6,4.4L73.3,221.1z"/>
		<path class="st2" d="M63.3,219.2L63.3,219.2c-1.4,0.6-2.9,0.5-4.1-0.3c-1.9-1.3-2.3-3.1-0.6-5.5c0.9-1.3,1.6-2.1,2.3-3.1
			c0.6-0.8,1.2-1.8,1.8-2.8c0.3,0.3,0.8,0.7,1.4,1c0.6,0.4,1.2,0.7,1.5,0.9c-1.1,1.3-2.4,3.1-3.9,5.3c-1,1.6-1,2.7,0,3.4
			c1.2,0.8,2.4,0.1,3.6-1.7l0.5-0.8c1-1.5,1.9-2.9,2.7-4.4c0.3,0.3,0.8,0.7,1.4,1c0.6,0.4,1.1,0.7,1.5,0.9c-1,1.3-2,2.6-3,4.1
			l-0.5,0.8c-1,1.5-1.9,2.9-2.7,4.4c-0.4-0.3-0.8-0.7-1.3-1c-0.4-0.3-0.9-0.6-1.4-0.8L63.3,219.2z"/>
		<path class="st2" d="M48.5,208.8L48.5,208.8c-0.2-0.9,0-1.9,0.8-2.8c1.5-1.7,3.9-1.7,5.9,0c0.2,0.2,0.5,0.4,0.8,0.7
			c0.3,0.2,0.8,0.1,1-0.2c0.5-0.6,0.4-1.3-0.6-2.1l-1.3-1.1c-1.9-1.7-2.3-3.1-0.9-4.7c2.4-2.8,5.8-1.5,7.8,0.2
			c2.1,1.9,2.6,4,1.5,5.3c-0.9,1.1-2.2,1.2-3.6,0.7l-0.1,0.1c0.4,0.8,0.4,1.5-0.2,2.2c-0.7,0.8-2,1-3.2,0.4l-0.1,0.1
			c0.6,0.8,0.8,1.5,0.8,2.4c0,0.8-0.3,1.6-1,2.3c-1.5,1.8-3.9,1.5-6.1-0.4c-0.4-0.4-0.8-0.8-1.2-1.2c-0.3-0.3-0.6-0.6-0.9-0.9
			c-0.6-0.5-1.2-1-1.9-1.5c0.1-0.1,0.3-0.3,0.4-0.4s0.2-0.3,0.3-0.4L48.5,208.8z M54.1,210c1.3-1.5,1.2-2.6,0.6-3
			c-0.8-0.7-1.7-0.3-3,1.3s-1.4,2.5-0.7,3.1C51.8,211.9,52.8,211.5,54.1,210z M58.3,203.2c0.6,0.6,1,0.8,1.4,0.9
			c0.4,0.1,1.3-0.1,2-0.9c1.2-1.3,0.7-2.9-0.6-4c-1.3-1.2-3-0.9-4,0.2C55.9,200.8,56.7,201.9,58.3,203.2z"/>
		<path class="st2" d="M44.6,195.1c-0.7-0.8-0.6-2,0.2-2.6c0.8-0.7,2-0.6,2.6,0.2c0.7,0.8,0.6,2-0.2,2.6
			C46.5,195.9,45.3,195.9,44.6,195.1z"/>
		<path class="st2" d="M32.4,189.3c-2.1,1.4-3.6,2.4-5.2,3.6c-0.2-0.4-0.5-1-0.9-1.7c-0.4-0.7-0.8-1.1-1.1-1.5
			c1.8-1,3.3-1.9,5.5-3.3l2.6-1.7c1.4-0.9,2.9-1.9,3.9-2.6c-0.9-1.4-2-2.9-3.1-4.2c0.3-0.1,0.5-0.2,0.9-0.5c0.4-0.3,0.6-0.4,0.8-0.6
			c0.4,0.7,0.9,1.7,2.1,3.4c2,3.1,2.4,3.6,2.8,4c-1.8,1-3.3,1.9-5.5,3.3L32.4,189.3z"/>
		<path class="st2" d="M26,179.8c-1.5-0.7-2.8-1.8-3.4-3.1c-1.1-2.2-1-4.2,1.4-5.5c1.8-0.9,3.2-1.5,4.7-2.3c1.3-0.7,1.2-1.1,0.8-1.9
			l0.5-0.3c0.8,0.6,1.2,1,1.5,1.6c0.5,1,0.3,1.9-0.5,2.7c1.2,0.2,2.2,0.7,2.9,1.9c1,2.1,0.1,3.6-1.2,4.3c-1.8,0.9-3.1,0.1-4.5-1.5
			c-1.7-2-2-2.1-2.8-1.8c-1,0.5-1.4,1.7-0.8,2.9c0.5,0.9,1.6,1.8,2.4,1.9l0.1,0.2L26,179.8z M26.9,173.2c1.3,0.8,1.9,2.4,4,1.4
			c1-0.5,1.3-1.3,1-2c-0.4-0.9-1.5-1.2-2.8-0.5C27.9,172.7,27.4,173,26.9,173.2z"/>
		<path class="st2" d="M20.9,168.7c-2.8,1-5,2-7.4,3c-0.1-0.4-0.3-1-0.5-1.7c-0.2-0.6-0.5-1.2-0.7-1.6c2.5-0.8,4.7-1.6,10.2-3.7
			c0.4-0.2,0.5-0.2,0.4-0.3c-0.1-0.2-2.6-1.1-6.3-2.3c-0.1-0.4-0.2-0.7-0.3-1c-0.1-0.3-0.3-0.7-0.6-1.2c1.1,0.4,4.5,2,5.4,2.3
			c0.4-0.6,4.4-5.7,5-6.3c0.2,0.6,0.3,1.2,0.6,1.8c0.2,0.6,0.5,1,0.7,1.6c-0.5,0.7-4,4.6-3.9,5c0.1,0.2,0.1,0.1,2.2-0.7
			c0.8-0.3,2.3-0.9,2.8-1.2c0.2,0.6,0.3,1.1,0.5,1.6c0.2,0.5,0.4,1,0.7,1.5c-2.5,0.8-4.7,1.6-7.5,2.6L20.9,168.7z"/>
		<path class="st2" d="M19.9,153.7c2.4-0.6,4-2,3.5-4.1c-0.3-1-0.8-1.9-1.7-2.5l0.1-0.3l1.4,0.2c0.8,0.6,1.4,1.4,1.9,3.1
			c0.8,2.9-0.3,5.9-4.2,6.9c-3.9,1-6.3-0.7-7-3.7c-0.8-2.9,0.7-5,3.7-5.8c0.4-0.1,0.6-0.2,0.7-0.2L19.9,153.7z M18.1,150.5
			c-2.2,0.6-3.5,1.4-3.2,2.6c0.3,1.3,2.4,1.2,4.1,0.8L18.1,150.5z"/>
		<path class="st2" d="M5.7,130c0.1-0.3,0.1-0.7,0-1c-0.1-0.3-0.1-0.7-0.2-1c3.7,1.2,11,3.5,16.4,4.8c0,0.3-0.1,0.7,0,1
			c0.1,0.3,0.1,0.7,0.2,1c-3.8,1.8-11.9,5.8-15.3,7.7c0-0.7,0-1.4-0.1-2.1c-0.1-0.7-0.2-1.3-0.3-2c3.3-1.3,7.4-3.4,11.1-5.1
			C13.7,132.1,9.4,130.9,5.7,130z"/>
		<path class="st2" d="M4.3,123.2c0-1,0.8-1.8,1.9-1.8s1.8,0.8,1.8,1.9c0,1-0.8,1.8-1.9,1.8C5,125.1,4.3,124.2,4.3,123.2z
			 M15.5,124.9c-1.9-0.1-3.5,0-5.1,0.1c0.1-0.4,0.1-1,0.2-1.7c0-0.7-0.1-1.3-0.1-1.7c1.6,0.2,3.2,0.2,5.1,0.3h0.9
			c1.9,0.1,3.5,0,5.1-0.1c-0.1,0.4-0.1,1-0.2,1.7c0,0.7,0.1,1.3,0.1,1.7c-1.6-0.2-3.2-0.2-5.1-0.3H15.5z"/>
		<path class="st2" d="M16.3,115.9c2.5,0.2,4.5-0.6,4.6-2.6c0.1-1-0.2-2-0.8-2.9l0.2-0.3l1.2,0.6c0.5,0.8,0.9,1.9,0.7,3.6
			c-0.3,3-2.3,5.4-6.3,5c-4-0.4-5.7-2.8-5.4-5.9c0.3-3,2.3-4.5,5.5-4.2c0.4,0.1,0.6,0.1,0.8,0.1L16.3,115.9z M15.6,112.3
			c-2.3-0.2-3.9,0.2-4,1.3c-0.1,1.4,1.8,2,3.6,2.2L15.6,112.3z"/>
		<path class="st2" d="M22.1,96.1c-2.4-1.4-4.8-2.8-7.2-4.1c0.1-0.3,0.2-0.6,0.3-0.8c0.1-0.3,0.1-0.6,0.1-1c1,0.9,6.7,4.4,10,6.3
			c-0.2,0.4-0.3,0.8-0.4,1.2c-0.1,0.4-0.1,0.8-0.2,1.3c-2.6,0.1-5.6,0.3-7.9,0.5v0.1c2.3,1.4,4.6,2.7,6.9,4
			c-0.2,0.4-0.3,0.8-0.4,1.3c-0.1,0.4-0.1,0.9-0.2,1.3c-3.8,0.2-10.6,0.8-11.7,0.9c0.2-0.7,0.4-1.2,0.5-1.7c0.1-0.6,0.2-1.1,0.3-1.7
			c2.8-0.1,5.8-0.3,8.3-0.4v-0.1c-2.4-1.4-4.8-2.8-7.2-4.1c0.2-0.4,0.3-0.8,0.4-1.2s0.1-0.8,0.2-1.3C16.6,96.5,19.4,96.4,22.1,96.1
			L22.1,96.1z"/>
		<path class="st2" d="M23.6,68.1c-1.7,0.3-3.1,1.2-4.1,3.1c-1.3,2.6-0.4,6.3,3.9,8.4c3.3,1.6,6.7,1,8.2-2.2c0.3-0.7,0.8-2,0.7-2.4
			c-0.3-0.2-0.8-0.5-1.4-0.8c-2.3-1.1-3.2-1.4-3.6-1.6c0.2-0.3,0.4-0.6,0.8-1.5c0.5-1,0.6-1.4,0.7-1.7c0.4,0.3,2.1,1.2,3.4,1.9
			c0.9,0.4,2,0.9,2.3,1c-0.4,2-0.9,4.1-1.8,5.9C30.5,82.9,26,85,21.9,83c-5.2-2.6-6.1-7.5-3.7-12.4c1-2.1,2.1-3.2,3.7-4.4
			c0.6,0.6,1.2,1.2,1.8,1.6L23.6,68.1z"/>
		<path class="st2" d="M29.1,65.1c-2.5-1.7-4.6-2.8-6.8-4.1c0.3-0.3,0.7-0.8,1-1.4c0.4-0.6,0.7-1.2,0.8-1.5c2.1,1.5,4.1,2.8,6.6,4.5
			l1.3,0.8c2.5,1.7,4.6,2.8,6.8,4.1c-0.3,0.3-0.7,0.8-1,1.4c-0.4,0.6-0.7,1.2-0.8,1.5c-2.1-1.5-4.1-2.8-6.6-4.5L29.1,65.1z"/>
		<path class="st2" d="M32.3,59.4c-0.1-1.6,0.4-3.2,1.3-4.4c1.5-1.9,3.4-2.7,5.6-1c1.5,1.2,2.8,2.2,4.1,3.2c1.2,0.9,1.5,0.7,2.1-0.1
			l0.4,0.3c-0.2,1-0.4,1.5-0.8,2c-0.7,0.9-1.6,1-2.6,0.7c0.3,1.2,0.4,2.3-0.5,3.4c-1.4,1.9-3.2,1.7-4.4,0.8
			c-1.6-1.2-1.4-2.8-0.6-4.7c1-2.4,1-2.7,0.4-3.2c-0.9-0.7-2.1-0.6-2.9,0.6c-0.7,0.8-0.9,2.2-0.7,3L33.6,60L32.3,59.4z M38.7,57.4
			c-0.2,1.5-1.4,2.8,0.5,4.2c0.9,0.7,1.7,0.7,2.2,0c0.6-0.8,0.4-1.8-0.8-2.8C39.5,58.1,39,57.7,38.7,57.4z"/>
		<path class="st2" d="M42.3,47.7L42.3,47.7c-0.2-1.5,0.1-2.9,1.1-3.9c1-1,2.3-1.1,3.6-0.5c-0.3-1.7,0.1-3.1,1-4.1
			c1.7-1.6,3.5-1.6,5.5,0.5c1.1,1.1,1.8,2,2.6,2.8c0.7,0.7,1.5,1.5,2.4,2.3c-0.3,0.2-0.8,0.7-1.3,1.1c-0.5,0.4-0.9,1-1.2,1.3
			c-1-1.3-2.5-2.9-4.5-4.9c-1.3-1.4-2.5-1.5-3.3-0.7c-1,1-0.2,2.4,0.6,3.1l1.2,1.2c1.3,1.3,2.5,2.5,3.7,3.5
			c-0.3,0.2-0.8,0.6-1.3,1.1c-0.5,0.5-0.9,1-1.2,1.3c-1-1.3-2.1-2.4-3.5-3.8l-1-1c-1.3-1.3-2.3-1.8-3.2-0.9c-1,1-0.6,2.3,0.9,3.8
			l0.7,0.7c1.3,1.3,2.5,2.5,3.7,3.5c-0.3,0.2-0.8,0.6-1.3,1.1c-0.5,0.5-0.9,1-1.2,1.3c-1-1.3-2.1-2.4-3.5-3.8L42.3,52
			c-1.3-1.3-2.5-2.5-3.7-3.5c0.4-0.3,0.8-0.7,1.3-1c0.4-0.4,0.7-0.8,1.1-1.3L42.3,47.7z"/>
		<path class="st2" d="M58.4,41.2c-1.8-2.4-3.2-4.3-4.8-6.3c0.4-0.3,0.9-0.6,1.4-0.8c0.4-0.3,0.8-0.7,1.2-1c0.3,0.4,0.7,1.2,1,1.7
			h0.1c-0.4-1.3,0-2.8,1.3-3.7c1.9-1.4,4.6-1.3,6.9,2c2.6,3.5,1.7,6.2-0.1,7.5c-1.1,0.8-2.3,0.9-3.4,0.4h-0.1
			c1.3,1.8,3.7,5.1,4.5,5.9c-0.3,0.2-0.9,0.6-1.5,0.9c-0.6,0.4-1,0.8-1.3,1.1c-1.4-2.1-2.8-4.1-4.5-6.6L58.4,41.2z M58.5,32.7
			c-0.9,0.7-1,2.3,1,5.1c1.7,2.3,3,2.9,4.1,2.1c1-0.8,0.9-2.4-0.9-4.8C61,32.5,59.5,31.9,58.5,32.7z"/>
		<path class="st2" d="M63.1,20.9c0.9-0.5,2-0.2,2.5,0.6c0.5,0.9,0.2,2-0.6,2.5c-0.9,0.5-2,0.2-2.5-0.6
			C61.9,22.6,62.2,21.5,63.1,20.9z M67.6,31.4c-0.9-1.6-1.8-3-2.8-4.3c0.4-0.2,0.9-0.4,1.5-0.8c0.6-0.4,1.1-0.8,1.4-1
			c0.7,1.4,1.5,2.9,2.5,4.5l0.5,0.8c0.9,1.6,1.8,3,2.8,4.3c-0.4,0.2-0.9,0.4-1.5,0.8c-0.6,0.4-1.1,0.7-1.4,1
			c-0.7-1.4-1.5-2.9-2.5-4.5L67.6,31.4z"/>
		<path class="st2" d="M74.3,23.8L74.3,23.8c0.3-1.5,1-2.7,2.3-3.4c2.1-1,3.8-0.4,5.1,2.3c0.7,1.4,1.1,2.4,1.6,3.5
			c0.4,0.9,1,1.9,1.5,3c-0.4,0.1-1,0.3-1.6,0.7c-0.6,0.3-1.2,0.6-1.5,0.8c-0.6-1.6-1.4-3.6-2.6-6.1c-0.8-1.7-1.8-2.2-2.9-1.7
			c-1.3,0.6-1.3,2-0.3,3.9l0.4,0.8c0.8,1.7,1.5,3.1,2.4,4.5c-0.4,0.1-0.9,0.3-1.6,0.7c-0.7,0.3-1.2,0.6-1.5,0.8
			c-0.6-1.5-1.3-3-2-4.7l-0.4-0.8c-0.8-1.7-1.5-3.1-2.4-4.5c0.5-0.2,1-0.4,1.5-0.6c0.5-0.2,0.9-0.6,1.5-0.8L74.3,23.8z"/>
		<path class="st2" d="M90.7,16.1L90.7,16.1c0.8,0.3,1.6,1,2,2c0.8,2.1-0.4,4.2-3,5.1c-0.3,0.1-0.6,0.2-1,0.3
			c-0.3,0.1-0.5,0.6-0.3,1c0.2,0.7,0.9,0.9,2.1,0.6l1.6-0.6c2.4-0.8,3.9-0.3,4.6,1.7c1.2,3.5-1.5,5.8-4.1,6.7
			c-2.7,0.9-4.7,0.3-5.3-1.4c-0.5-1.4,0.1-2.5,1.2-3.4V28c-0.8-0.1-1.5-0.4-1.8-1.3c-0.3-0.9,0.1-2.3,1.2-3v-0.1
			c-0.9,0.1-1.8-0.1-2.5-0.4c-0.7-0.4-1.2-1-1.5-2c-0.8-2.2,0.7-4.1,3.4-5.1c0.5-0.2,1.1-0.3,1.7-0.5c0.4-0.1,0.8-0.2,1.2-0.4
			c0.7-0.3,1.5-0.6,2.3-0.8c0.1,0.2,0.1,0.4,0.2,0.6c0.1,0.2,0.2,0.3,0.2,0.5L90.7,16.1z M86.9,20.4c0.7,1.9,1.7,2.3,2.3,2.1
			c0.9-0.3,1.2-1.3,0.4-3.2c-0.7-2-1.5-2.5-2.3-2.2C86.3,17.4,86.2,18.6,86.9,20.4z M90.6,27.4c-0.8,0.3-1.2,0.5-1.5,0.8
			c-0.3,0.3-0.6,1.2-0.2,2.2c0.6,1.7,2.2,2,3.7,1.5c1.7-0.6,2.3-2.1,1.8-3.5C93.9,26.6,92.6,26.7,90.6,27.4z"/>
		<path class="st2" d="M104.5,19.7c1-0.2,2,0.5,2.2,1.5c0.2,1-0.5,2-1.5,2.2s-2-0.5-2.2-1.5C102.9,20.9,103.5,19.9,104.5,19.7z"/>
	</g>
</g>
</svg>
