<?xml version="1.0" standalone="no"?>
<!DOCTYPE svg PUBLIC "-//W3C//DTD SVG 1.1//EN" "http://www.w3.org/Graphics/SVG/1.1/DTD/svg11.dtd" >
<svg xmlns="http://www.w3.org/2000/svg" xmlns:xlink="http://www.w3.org/1999/xlink" version="1.1">
<metadata>
Created by FontForge 20170731 at Thu Mar 17 11:46:42 2022
 By Aleksey,,,
Copyright (c) 1995, 2002 Adobe Systems Incorporated.  All Rights Reserved.(c) 1995, 2002 Heidelberger Druckmaschinen AG. All rights reserved.
</metadata>
<defs>
<font id="OptimaLTStd-DemiBold" horiz-adv-x="530" >
  <font-face 
    font-family="Optima LT Std DemiBold"
    font-weight="600"
    font-stretch="normal"
    units-per-em="2048"
    panose-1="2 11 6 2 5 5 8 2 3 4"
    ascent="1501"
    descent="-547"
    x-height="981"
    cap-height="1405"
    bbox="-287 -541 2052 1882"
    underline-thickness="102"
    underline-position="-307"
    unicode-range="U+0020-FB02"
  />
<missing-glyph horiz-adv-x="1024" 
d="M0 0v1434h1024v-1434h-1024zM512 809l348 522h-696zM573 717l349 -522v1044zM164 102h696l-348 523zM102 1239v-1044l349 522z" />
    <glyph glyph-name="fi" unicode="fi" horiz-adv-x="1138" 
d="M664 1311l-15 -13q-61 41 -151 41q-138 0 -138 -131q0 -51 58 -241q104 0 141 2l76 6q-8 -32 -8 -55q0 -28 8 -56q-35 6 -213 6v-112q0 -116 5 -381t15 -377q-117 12 -129 12q-28 0 -133 -12q13 81 15 207q1 71 3.5 189t2.5 171q0 221 -4 303h-66q-13 0 -88 -6q6 27 6 56
q0 8 -2.5 26.5t-3.5 28.5q32 -3 55.5 -5t24.5 -2t76 -1q10 95 15.5 131.5t24 94t50.5 114.5q16 27 24.5 41t41.5 54t65 63.5t85 44t111 20.5q17 0 62 -8q-16 -46 -16 -103q0 -77 2 -108zM1004 983l-5 -92q-12 -258 -12 -350q0 -157 6 -373q0 -14 4 -85t4 -83q-78 12 -118 12
q-46 0 -140 -12l11 221q6 156 6 254q0 293 -21 508q82 -12 138 -12q61 0 127 12zM870 1171q-56 0 -98.5 42t-42.5 100q0 57 42 100t99 43t100.5 -43t43.5 -100q0 -58 -44 -100t-100 -42z" />
    <glyph glyph-name="fl" unicode="fl" horiz-adv-x="1138" 
d="M737 1518q83 -13 142 -13q42 0 131 13q-21 -232 -21 -754q0 -1 -0.5 -42t-0.5 -88t0.5 -114.5t1.5 -135.5t3 -137.5t6 -134.5t9 -112q-13 1 -38.5 4.5t-46.5 5.5t-40 2q-34 0 -142 -12q21 144 21 815q0 417 -25 703zM664 1311l-15 -13q-61 41 -151 41q-138 0 -138 -131
q0 -51 58 -241q104 0 141 2l76 6q-8 -32 -8 -55q0 -28 8 -56q-35 6 -213 6v-112q0 -116 5 -381t15 -377q-117 12 -129 12q-28 0 -133 -12q13 81 15 207q1 71 3.5 189t2.5 171q0 221 -4 303h-66q-13 0 -88 -6q6 27 6 56q0 8 -2.5 26.5t-3.5 28.5q32 -3 55.5 -5t24.5 -2t76 -1
q10 95 15.5 131.5t24 94t50.5 114.5q16 27 24.5 41t41.5 54t65 63.5t85 44t111 20.5q17 0 62 -8q-16 -46 -16 -103q0 -77 2 -108z" />
    <glyph glyph-name=".notdef" horiz-adv-x="1024" 
d="M0 0v1434h1024v-1434h-1024zM512 809l348 522h-696zM573 717l349 -522v1044zM164 102h696l-348 523zM102 1239v-1044l349 522z" />
    <glyph glyph-name=".null" horiz-adv-x="0" 
 />
    <glyph glyph-name="nonmarkingreturn" horiz-adv-x="682" 
 />
    <glyph glyph-name="space" unicode=" " horiz-adv-x="532" 
 />
    <glyph glyph-name="exclam" unicode="!" horiz-adv-x="569" 
d="M401 1049l-98 -656h-43l-94 674q-16 112 -16 186q0 49 15.5 83t40 49t44 20.5t37.5 5.5q61 0 98 -43t37 -104t-21 -215zM139 139q0 59 42.5 102.5t103.5 43.5q58 0 101.5 -43.5t43.5 -102.5t-43 -102t-102 -43q-61 0 -103.5 43t-42.5 102z" />
    <glyph glyph-name="quotedbl" unicode="&#x22;" horiz-adv-x="909" 
d="M162 1454h215l-70 -633h-92zM532 1454h216l-70 -633h-92z" />
    <glyph glyph-name="numbersign" unicode="#" horiz-adv-x="1062" 
d="M381 553h252l49 272h-252zM760 410l-76 -410h-154l76 410h-252l-75 -410h-154l76 410h-205v143h231l49 272h-215v144h242l72 399h153l-71 -399h252l71 399h154l-72 -399h205v-144h-231l-50 -272h215v-143h-241z" />
    <glyph glyph-name="dollar" unicode="$" horiz-adv-x="1062" 
d="M473 72v528q-12 5 -57 22.5t-62 25t-54 26t-57.5 33.5t-45.5 38.5t-43 49.5q-60 89 -60 211q0 48 9.5 95.5t36 100.5t67 95t109.5 74.5t157 43.5v133h96v-127h2q69 0 130 -12t99.5 -26t112.5 -46q-6 -12 -10 -21t-7.5 -16t-7 -18t-5.5 -16.5t-7 -22t-7 -25t-9.5 -34.5
t-11.5 -41h-29q-23 81 -88.5 127.5t-161.5 52.5v-473q13 -5 51.5 -19t56.5 -21.5t52 -22.5t54.5 -27.5t45.5 -31t43 -38.5q103 -112 103 -270q0 -179 -118.5 -300.5t-287.5 -137.5v-201h-96v190h-20q-176 0 -381 105q22 72 29.5 111t17.5 120h28q23 -54 50 -95t55.5 -66
t54 -41t56.5 -22.5t51.5 -8.5t48.5 -2h10zM473 891v422q-80 -20 -121 -78t-41 -125q0 -87 36.5 -133t125.5 -86zM569 559v-469q77 28 120.5 94t43.5 144q0 90 -43.5 142.5t-120.5 88.5z" />
    <glyph glyph-name="percent" unicode="%" horiz-adv-x="1781" 
d="M455 1395q158 0 244.5 -89t86.5 -247q0 -72 -20 -131.5t-53 -99t-76 -67t-87.5 -40t-88.5 -12.5q-150 0 -249 87t-99 248q0 70 20 131.5t60 111.5t107 79t155 29zM299 1040q0 -127 36.5 -195.5t121.5 -68.5q143 0 143 291q0 18 -0.5 32.5t-3.5 43t-8 50.5t-15.5 48.5
t-25 44t-37 29.5t-51.5 12q-35 0 -62.5 -12t-44.5 -35t-28 -48.5t-16 -61t-7 -64.5t-2 -66zM1337 666q159 0 245.5 -89t86.5 -247q0 -89 -30.5 -159t-79.5 -110t-104.5 -60.5t-111.5 -20.5q-150 0 -249 87t-99 248q0 70 20 131.5t60 111.5t107 79t155 29zM1182 311
q0 -127 36 -195.5t121 -68.5q144 0 144 291q0 21 -1 39t-4.5 52t-13.5 60.5t-24.5 53t-40 41t-58.5 14.5q-35 0 -62.5 -12t-44 -35t-28 -48.5t-16.5 -61t-6.5 -64.5t-1.5 -66zM1251 1425h99l-820 -1468h-98z" />
    <glyph glyph-name="ampersand" unicode="&#x26;" horiz-adv-x="1478" 
d="M1282 786l102 -110q-62 -110 -109 -173t-155 -186q19 -21 59.5 -64t58.5 -61.5t48 -50t46.5 -48t35.5 -35t33 -29.5v-29q-186 12 -195 12q-45 0 -131 -8l-123 143q-49 -38 -82 -60t-92 -53.5t-125.5 -47t-140.5 -15.5q-136 0 -238 60q-20 12 -43 33t-52 55t-47.5 84.5
t-18.5 105.5q0 80 31.5 150t86 122.5t112.5 89.5t126 66q-47 50 -77 99t-42 92t-15 69t-3 60q0 132 97 223.5t259 91.5q65 0 117 -16t83.5 -41t52 -59t28.5 -66t8 -66q0 -84 -69 -170t-191 -159q90 -112 123.5 -152.5t93 -110t129.5 -147.5q59 71 98.5 131.5t59.5 111.5
t28 81t15 73zM635 104q132 0 258 113q-143 162 -198 229t-181 232q-25 -18 -40.5 -30t-44 -40.5t-45 -56.5t-30.5 -71.5t-14 -90.5q0 -67 27.5 -122.5t71.5 -90t95 -53.5t101 -19zM530 1130q0 -40 27.5 -97t50.5 -90.5t64 -88.5q34 25 57.5 46t55 56.5t48.5 79.5t17 92
q0 16 -3 34t-13 44t-26 46t-45.5 34t-68.5 14q-70 0 -117 -50t-47 -120z" />
    <glyph glyph-name="quotesingle" unicode="'" 
d="M158 1454h215l-70 -633h-92z" />
    <glyph glyph-name="parenleft" unicode="(" horiz-adv-x="645" 
d="M543 1481l45 -33q-131 -191 -193.5 -376t-62.5 -425q0 -260 57 -473t201 -391l-45 -49q-206 174 -305 401.5t-99 487.5q0 237 108 466.5t294 391.5z" />
    <glyph glyph-name="parenright" unicode=")" horiz-adv-x="645" 
d="M100 -266l-45 33q131 192 193.5 376t62.5 424q0 260 -57 473.5t-201 391.5l45 49q206 -174 305 -401.5t99 -487.5q0 -237 -108 -466.5t-294 -391.5z" />
    <glyph glyph-name="asterisk" unicode="*" horiz-adv-x="833" 
d="M475 1311l-18 -201q24 16 40.5 27.5t34.5 25t26 19t28 22.5t26.5 22t35.5 30t42 36q26 -55 66 -131q-92 -30 -273 -112q145 -72 269 -119q-36 -58 -68 -123q-134 108 -174 137l-53 39q21 -248 26 -287q-4 0 -27.5 3t-37.5 3q-10 0 -21 -1t-24 -2.5t-21 -2.5
q1 12 14.5 136.5t14.5 148.5q-87 -61 -231 -172q-31 64 -68 125q140 55 179 72t87 43q-22 10 -82 37.5t-103.5 46t-84.5 32.5q38 59 65 127q152 -126 238 -182q-7 161 -29 301q34 -6 68 -6q30 0 65 6q-8 -65 -10 -100z" />
    <glyph glyph-name="plus" unicode="+" horiz-adv-x="1366" 
d="M616 1157h134v-465h464v-133h-464v-465h-134v465h-464v133h464v465z" />
    <glyph glyph-name="comma" unicode="," 
d="M328 51l-273 -416l-45 21l127 477q8 32 17 55.5t24.5 48t39 37.5t54.5 13q43 0 76 -27.5t33 -77.5t-53 -131z" />
    <glyph glyph-name="hyphen" unicode="-" horiz-adv-x="833" 
d="M137 403q10 87 10 119q0 39 -10 94q84 -6 254 -6q115 0 305 6q-10 -88 -10 -106q0 -14 5 -58t5 -49q-43 0 -144 3.5t-151 3.5q-138 0 -264 -7z" />
    <glyph glyph-name="period" unicode="." 
d="M121 141q0 59 42 102.5t103 43.5q58 0 102 -43.5t44 -102.5q0 -58 -43.5 -101.5t-102.5 -43.5q-61 0 -103 43t-42 102z" />
    <glyph glyph-name="slash" unicode="/" horiz-adv-x="796" 
d="M612 1448h136l-564 -1509h-135z" />
    <glyph glyph-name="zero" unicode="0" horiz-adv-x="1062" 
d="M530 61q38 0 69 20.5t49 49.5t31 68.5t18 69.5t8 61q14 147 14 352q0 220 -17 360q-5 40 -10.5 69t-18 66.5t-29.5 61t-46 40.5t-66 17q-127 0 -163 -200q-25 -134 -25 -373q0 -311 18 -436q6 -40 11 -64.5t17.5 -59t29 -54t45 -34t65.5 -14.5zM537 1384q120 0 213.5 -59
t146.5 -168q78 -162 78 -473q0 -338 -116.5 -524.5t-330.5 -186.5q-230 0 -335 176.5t-105 524.5q0 169 19.5 281t68.5 206q24 46 52.5 82t71 70t103 52.5t134.5 18.5z" />
    <glyph glyph-name="one" unicode="1" horiz-adv-x="1062" 
d="M123 1081v17q28 10 55 21t47 19t49.5 21t44 19.5t50 23t47.5 22.5t57 27.5t59 28.5q35 17 112 61t108 64l22 -14q-22 -191 -22 -856q0 -332 14 -535q-1 0 -52 6t-79 6q-27 0 -80.5 -5.5t-62.5 -6.5q16 157 20 275.5t4 504.5v379q-35 -23 -146.5 -86.5t-158.5 -87.5
q-54 58 -88 96z" />
    <glyph glyph-name="two" unicode="2" horiz-adv-x="1062" 
d="M61 0v72q103 93 218 211.5t186 210.5q180 234 180 475q0 47 -5.5 89t-20.5 83.5t-38.5 71.5t-62 48.5t-88.5 18.5q-98 0 -162 -76q-25 -29 -40 -67.5t-19 -64.5t-8 -68l-17 -13l-121 121q60 137 160.5 203.5t259.5 66.5q60 0 117 -10.5t114 -37.5t99.5 -67.5t69 -105
t26.5 -145.5q0 -125 -44.5 -220.5t-168.5 -232.5q-56 -62 -195.5 -199t-166.5 -155q531 0 631 14q-11 -57 -11 -119q0 -43 9 -104q-290 12 -451 12q-254 0 -451 -12z" />
    <glyph glyph-name="three" unicode="3" horiz-adv-x="1062" 
d="M193 1042h-21q-34 56 -106 138q123 196 407 196q186 0 295 -77t109 -224q0 -134 -72.5 -214.5t-218.5 -123.5q-8 -2 -8 -8t14 -6q73 -5 133.5 -25t110.5 -57.5t78 -100.5t28 -147q0 -83 -32 -153t-85 -117.5t-123.5 -81t-146 -49t-152.5 -15.5q-84 0 -182 28.5
t-180 103.5q41 62 90 167h23q2 -16 11 -39t30.5 -53t50 -54.5t75 -42t101.5 -17.5q117 0 188.5 83.5t71.5 233.5q0 54 -14 102.5t-42 89t-77.5 64t-114.5 23.5q-17 0 -35 -2.5t-42 -7.5t-35 -7q10 23 10 58q0 45 -10 75q41 -14 73 -14q108 0 172 69.5t64 200.5
q0 128 -58.5 186t-156.5 58q-191 0 -223 -240z" />
    <glyph glyph-name="four" unicode="4" horiz-adv-x="1062" 
d="M606 526v584l-409 -584h409zM242 758l295 418q102 143 129 192q46 -12 90 -12q40 0 90 12q-4 -94 -8 -391.5t-4 -450.5q65 0 174 4q-11 -51 -11 -94q0 -38 11 -86q-9 0 -74.5 3t-99.5 3q0 -173 1.5 -225t8.5 -131q-94 12 -115 12t-44 -2t-51 -5.5t-44 -4.5
q11 74 13.5 133t2.5 223q-154 2 -364 2q-91 0 -193 -4v123q0 6 7.5 18t24.5 34.5t19 25.5q25 33 142 203z" />
    <glyph glyph-name="five" unicode="5" horiz-adv-x="1062" 
d="M135 281h21q45 -106 105.5 -156.5t168.5 -50.5q106 0 178 90t72 244q0 136 -64.5 223.5t-193.5 87.5q-39 0 -80 -12.5t-65.5 -25.5t-61.5 -36l-25 21q7 171 7 292q0 146 -3.5 215.5t-17.5 176.5l10 18q185 -12 361 -12q132 0 336 12q-1 -8 -4.5 -27t-5 -36.5t-1.5 -40.5
q0 -12 2 -29.5t5 -42.5t4 -39q-37 4 -154 4h-428q-4 -54 -4 -207q0 -28 -1 -84.5t-1 -87.5q41 14 63 20.5t64.5 13.5t87.5 7q92 0 169.5 -23t136 -68.5t91.5 -117.5t33 -164t-30 -169.5t-81.5 -131t-120.5 -91t-146 -55t-159 -17.5q-106 0 -191 28t-165 105q62 102 88 166z
" />
    <glyph glyph-name="six" unicode="6" horiz-adv-x="1062" 
d="M539 61q198 0 198 345q0 321 -200 321q-56 0 -95.5 -29t-59 -79.5t-28 -104t-8.5 -117.5q0 -29 1.5 -55.5t7 -69t19 -76.5t33.5 -66.5t54 -50.5t78 -18zM678 1376q39 0 117 -8q10 -49 28 -88l-10 -6q-34 12 -82 12q-68 0 -125 -24t-97 -67.5t-70 -97t-49 -121.5
t-30.5 -131t-17.5 -134q98 116 258 116q80 0 149.5 -24.5t125 -72.5t87 -127.5t31.5 -182.5q0 -94 -28.5 -171.5t-74 -127t-104.5 -83.5t-118 -48.5t-117 -14.5q-102 0 -182.5 32.5t-132 88t-86 133t-48.5 161.5t-14 181q0 237 72.5 419.5t206.5 284t311 101.5z" />
    <glyph glyph-name="seven" unicode="7" horiz-adv-x="1062" 
d="M1038 1352v-49q-21 -25 -163.5 -275t-198.5 -354q-266 -494 -357 -674q-70 12 -110 12q-22 0 -100 -12l-5 14l52 74q86 121 326.5 518.5t310.5 528.5h-281q-138 0 -395 -15q10 64 10 115q0 21 -10 133q152 -16 921 -16z" />
    <glyph glyph-name="eight" unicode="8" horiz-adv-x="1062" 
d="M532 721q-46 0 -81 -24t-54.5 -59t-31.5 -82.5t-15.5 -86t-3.5 -78.5q0 -328 184 -328q187 0 187 328q0 330 -185 330zM530 1286q-49 0 -82.5 -26.5t-47.5 -69t-18.5 -74t-4.5 -63.5q0 -30 3 -59.5t13.5 -64t26.5 -60t45 -43t67 -17.5q27 0 51 9t49 32t39.5 72t14.5 120
q0 244 -156 244zM389 762v10q-104 19 -177 91t-73 190q0 108 52 182t138.5 107.5t202.5 33.5q76 0 143.5 -17.5t125 -53.5t91.5 -101t34 -151q0 -112 -67 -180.5t-181 -96.5v-8q165 -43 232 -129t67 -236q0 -93 -28 -168t-72.5 -122.5t-103.5 -79.5t-117 -45t-117 -13
q-209 0 -332 105.5t-123 308.5q0 42 6 79.5t18 68t25 55.5t34 46t37 36.5t41 29t39.5 21.5t40 16.5l34.5 11.5t30 9z" />
    <glyph glyph-name="nine" unicode="9" horiz-adv-x="1062" 
d="M516 1374q23 0 37 -0.5t45 -4t53.5 -10.5t55.5 -21t59.5 -34t56 -52t54.5 -72q39 -64 62.5 -155.5t28.5 -150t5 -112.5t-5 -113t-21 -138.5t-41 -151t-70.5 -143.5t-104.5 -124t-147.5 -84.5t-194.5 -32.5q-94 0 -180 43q-17 78 -43 148l24 4q94 -94 226 -94q58 0 105 25
t77.5 63.5t53.5 92.5t35 104t19 107.5t9 93.5t2 69q-47 -58 -124 -82.5t-147 -24.5q-16 0 -36.5 2t-59 11t-73.5 24.5t-74 46t-67.5 71.5t-47 105.5t-18.5 143.5q0 206 119 326t327 120zM516 621q197 0 197 344q0 38 -3.5 75.5t-16 85t-33 82.5t-58.5 59.5t-88 24.5
q-60 0 -102 -37t-60.5 -95.5t-25.5 -105.5t-7 -91q0 -153 48.5 -247.5t148.5 -94.5z" />
    <glyph glyph-name="colon" unicode=":" horiz-adv-x="569" 
d="M139 141q0 59 42.5 102.5t103.5 43.5q58 0 101.5 -43.5t43.5 -102.5t-43 -102t-102 -43q-61 0 -103.5 43t-42.5 102zM139 799q0 59 42.5 102t103.5 43q59 0 102 -43t43 -102t-43.5 -102.5t-101.5 -43.5q-61 0 -103.5 43.5t-42.5 102.5z" />
    <glyph glyph-name="semicolon" unicode=";" horiz-adv-x="569" 
d="M348 51l-272 -416l-45 21l129 477q25 90 56 122t79 32q43 0 75.5 -28t32.5 -77q0 -33 -12 -58.5t-43 -72.5zM139 799q0 59 42.5 102t103.5 43q59 0 102 -43t43 -102t-43.5 -102.5t-101.5 -43.5q-61 0 -103.5 43.5t-42.5 102.5z" />
    <glyph glyph-name="less" unicode="&#x3c;" horiz-adv-x="1366" 
d="M170 580l1026 436v-144l-864 -364l864 -365v-143l-1026 436v144z" />
    <glyph glyph-name="equal" unicode="=" horiz-adv-x="1366" 
d="M152 535h1062v-134h-1062v134zM152 852h1062v-133h-1062v133z" />
    <glyph glyph-name="greater" unicode="&#x3e;" horiz-adv-x="1366" 
d="M1196 436l-1026 -436v143l864 365l-864 364v144l1026 -436v-144z" />
    <glyph glyph-name="question" unicode="?" horiz-adv-x="757" 
d="M530 498l-22 -76q-52 -21 -111 -21q-124 0 -191 66t-67 168q0 30 3 49.5t17 56.5t51 85t97 108l72 72q78 78 78 157q0 44 -17 75t-45 46.5t-55.5 22t-56.5 6.5q-109 0 -164 -109h-19l-14 121q36 24 60.5 37t76.5 27t113 14q145 0 244.5 -81t99.5 -202q0 -54 -12 -98
t-43.5 -89t-54 -70.5t-76.5 -80.5q-105 -108 -129.5 -141.5t-24.5 -73.5t27.5 -67t68.5 -27q30 0 90 29zM180 141q0 59 42.5 102.5t103.5 43.5q58 0 101.5 -43.5t43.5 -102.5t-43.5 -102t-101.5 -43q-61 0 -103.5 43t-42.5 102z" />
    <glyph glyph-name="at" unicode="@" horiz-adv-x="1638" 
d="M1368 201l33 -56q-132 -94 -277 -140t-333 -46q-110 0 -213 26.5t-193.5 83t-158.5 136.5t-107 195t-39 251q0 168 63 312.5t172 245.5t261 158.5t325 57.5q194 0 344.5 -77t232 -211.5t81.5 -302.5q0 -146 -54.5 -271.5t-148 -199.5t-203.5 -74q-181 0 -195 162
q-35 -69 -95 -115.5t-148 -46.5q-118 0 -187 76t-69 213q0 79 33 163t87.5 152.5t132.5 113t160 44.5q70 0 122.5 -31.5t68.5 -95.5l31 104h147q-91 -295 -122.5 -409t-31.5 -158q0 -99 93 -99q73 1 142.5 65t114 173t44.5 229q0 233 -161.5 379t-418.5 146
q-141 0 -267.5 -58t-215.5 -155t-141 -225.5t-52 -266.5q0 -275 170.5 -446.5t450.5 -171.5q278 0 522 170zM618 526q0 -76 34.5 -120t95.5 -44q99 0 161 127q35 73 70 192t35 177q0 54 -33 86.5t-78 32.5q-74 0 -142.5 -79.5t-105.5 -183t-37 -188.5z" />
    <glyph glyph-name="A" unicode="A" horiz-adv-x="1327" 
d="M1024 0l-86 227l-86 217q-198 9 -262 9q-62 0 -246 -9q-119 -286 -164 -444q-81 12 -98 12q-16 0 -31.5 -2t-33.5 -5.5t-27 -4.5l237 528q129 288 184.5 414.5t111.5 264.5t79 218q38 -10 68 -10q27 0 65 10q98 -282 295 -739q221 -504 305 -686l-40 4t-62 5.5t-57 2.5
q-33 0 -88.5 -6t-63.5 -6zM793 571l-193 504l-209 -504q25 -1 98.5 -4.5t114.5 -3.5q63 0 189 8z" />
    <glyph glyph-name="B" unicode="B" horiz-adv-x="1214" 
d="M1118 389q0 -154 -123 -270q-54 -52 -137.5 -85.5t-232.5 -33.5q-43 0 -129 5t-129 5q-37 0 -104 -4.5t-93 -5.5q14 333 14 727q0 421 -16 678q108 -8 178 -10q23 0 144 5t141 5q92 0 164 -15t134 -50t96 -102t34 -163q0 -68 -30 -125.5t-80.5 -96t-110.5 -63t-125 -34.5
q91 -9 159 -30t126.5 -61t89 -109.5t30.5 -166.5zM432 696v-411q0 -56 4 -170q89 -13 111 -13q147 0 224 74t77 221q0 168 -87 236.5t-255 68.5q-34 0 -74 -6zM432 1130v-329q58 -4 84 -4q134 0 206.5 69.5t72.5 202.5q0 107 -56.5 170.5t-160.5 63.5q-60 0 -142 -7
q-4 -110 -4 -166z" />
    <glyph glyph-name="C" unicode="C" horiz-adv-x="1441" 
d="M1382 1319l-61 -201h-21q-12 24 -22 40t-41.5 48t-69.5 52t-106 36.5t-152 16.5q-254 0 -389 -160t-135 -453q0 -262 125 -428q143 -186 371 -186q73 0 137.5 14.5t111 35.5t91 54.5t73 62t60.5 66.5l22 -14l-22 -203q-234 -129 -518 -129q-120 0 -229 29t-201 88
t-159 142.5t-105 199t-38 250.5q0 157 49 290t144.5 234.5t250.5 159t355 57.5q253 0 479 -102z" />
    <glyph glyph-name="D" unicode="D" horiz-adv-x="1593" 
d="M1489 743q0 -214 -79 -373t-226 -253q-102 -66 -206.5 -91.5t-238.5 -25.5q-63 0 -189 5t-188 5q-34 0 -192 -10l12 375q2 90 2 379q0 299 -4 385q-2 45 -5 133.5t-5 132.5q137 -10 168 -10q54 0 172.5 5t181.5 5q81 0 140 -4t138.5 -16.5t151 -43t131.5 -77.5
q117 -91 176.5 -225t59.5 -296zM436 1038v-635q0 -49 10 -284q225 -10 279 -10q32 0 69.5 7t85 25.5t92.5 48t88.5 79t75.5 112t52 154.5t20 200q0 84 -16 160t-56 151t-100.5 129t-158 87.5t-220.5 33.5q-94 0 -211 -10q-10 -205 -10 -248z" />
    <glyph glyph-name="E" unicode="E" horiz-adv-x="1024" 
d="M440 1278v-481q316 0 443 14q-11 -42 -11 -74q0 -43 11 -69q-105 8 -158 10q-188 4 -285 4v-555q186 0 490 14q-10 -23 -10 -67q0 -45 10 -74q-184 12 -377 12q-186 0 -383 -12q8 174 10 256q8 238 8 463q0 422 -18 686q200 -12 371 -12q53 0 188.5 5.5t188.5 6.5
q-11 -46 -11 -66q0 -46 11 -75l-193 10q-76 4 -285 4z" />
    <glyph glyph-name="F" unicode="F" horiz-adv-x="1024" 
d="M451 1278v-477h141q118 0 328 10q-11 -37 -11 -68q0 -19 11 -69l-113 4q-113 4 -356 4v-274q0 -239 2 -302q3 -70 8 -106q-56 12 -148 12q-75 0 -133 -12q13 278 16 385.5t3 339.5q0 266 -21 680q216 -12 387 -12q48 0 387 12q-10 -48 -10 -78q0 -34 10 -67
q-276 18 -501 18z" />
    <glyph glyph-name="G" unicode="G" horiz-adv-x="1593" 
d="M104 680q0 157 49 290t144.5 234.5t250.5 159t355 57.5q253 0 479 -102l-61 -201h-21q-12 24 -22 40t-41.5 48t-69.5 52t-106 36.5t-152 16.5q-254 0 -389 -160t-135 -453q0 -265 125 -428q143 -186 371 -186q176 0 290 74q7 167 7 186q0 84 -13 301q105 -14 146 -14
q54 0 129 14q-8 -48 -12.5 -164.5t-4.5 -179.5q0 -86 7 -186q-129 -68 -287 -106t-307 -38q-120 0 -229 29t-201 88t-159 142.5t-105 199t-38 250.5z" />
    <glyph glyph-name="H" unicode="H" horiz-adv-x="1554" 
d="M1116 360l2 330q-222 8 -332 8q-116 0 -350 -8v-205q0 -240 19 -485q-3 0 -55.5 6t-86.5 6q-22 0 -46 -2t-53 -5.5t-46 -4.5q18 350 18 932q0 247 -20 473q123 -12 147 -12q61 0 142 12q-19 -215 -19 -584q204 -8 309 -8q123 0 373 8q0 251 -4 353q0 41 -10 231
q117 -12 149 -12q27 0 144 12q-29 -229 -29 -922q0 -329 21 -483q-16 1 -47 4.5t-56 5.5t-47 2q-10 0 -139 -12q16 296 16 360z" />
    <glyph glyph-name="I" unicode="I" horiz-adv-x="645" 
d="M199 932q0 264 -21 473q117 -12 146 -12q47 0 145 12q-23 -152 -23 -713q0 -474 21 -692q-20 1 -68.5 6.5t-74.5 5.5q-25 0 -77.5 -5.5t-70.5 -6.5q23 244 23 932z" />
    <glyph glyph-name="J" unicode="J" horiz-adv-x="645" 
d="M-14 -305l-15 98q46 5 80 14.5t60 29t43.5 36t29 53.5t18 64t9.5 84.5t3.5 96.5t0.5 118v753q0 145 -16 363q94 -12 147 -12q45 0 141 12q-16 -376 -16 -377q0 -51 -1 -313t-1 -344q0 -11 1 -67.5t1 -72.5q0 -52 -1.5 -85.5t-11 -94t-27.5 -103.5t-55 -90.5t-89 -78.5
q-40 -24 -80 -40t-84.5 -25t-67 -12t-69.5 -7z" />
    <glyph glyph-name="K" unicode="K" horiz-adv-x="1327" 
d="M182 932q0 171 -3 243t-15 230q15 -1 45.5 -4.5t54.5 -5.5t43 -2q50 0 144 12q-10 -73 -17 -324q-2 -102 -2 -325q105 91 176.5 163t173.5 183q207 225 262 303q35 -12 97 -12q64 0 137 12q-132 -112 -334 -309q-147 -144 -285 -295l109 -144q398 -524 543 -657
q-96 12 -183 12q-22 0 -51 -2t-66 -5.5t-57 -4.5q-96 135 -156 217.5t-162.5 211.5t-203.5 241q0 -441 19 -670q-9 1 -62 6.5t-82 5.5q-24 0 -74.5 -5.5t-68.5 -6.5q13 256 15.5 380t2.5 552z" />
    <glyph glyph-name="L" unicode="L" horiz-adv-x="1024" 
d="M190 559v287q0 111 -6 293q-1 21 -4 133.5t-4 132.5q61 -12 141 -12q67 0 144 12q-21 -464 -21 -883q0 -50 6 -389h37q347 0 475 19q-10 -38 -10 -82q0 -36 10 -70q-312 12 -391 12q-166 0 -391 -12q0 14 7 272.5t7 286.5z" />
    <glyph glyph-name="M" unicode="M" horiz-adv-x="1857" 
d="M375 1405l63 -129q103 -210 173 -343t214 -390l111 -197l76 133q141 248 235.5 426t255.5 500q21 -6 45 -6q22 0 43 6l17 -170q33 -349 82 -713q49 -374 82 -522q-98 12 -148 12q-44 0 -139 -12l-6 76q-2 19 -9.5 130t-9.5 130q-3 28 -19 167.5t-29.5 264t-16.5 162.5
q-122 -208 -263.5 -473.5t-224.5 -456.5q-28 4 -41 4q-15 0 -39 -4q-41 82 -126 241.5t-156 297.5q-18 35 -109 197.5t-96 172.5q-69 -535 -86 -909q-56 12 -94 12q-32 0 -86 -12l12 63q36 185 107 671t90 671q24 -6 47 -6q3 0 45 6z" />
    <glyph glyph-name="N" unicode="N" horiz-adv-x="1554" 
d="M184 551v278q0 196 -4 576q32 -4 49 -4q15 0 47 4q293 -323 625 -647l242 -238q33 -31 102 -88v455q0 230 -24 518q50 -12 88 -12q36 0 86 12q-23 -317 -23 -692q0 -61 1 -265t1 -255q0 -22 1 -99.5t1 -103.5q-28 4 -41 4q-15 0 -43 -4q-188 204 -499 515t-482 468
q0 -320 6 -645q2 -94 19 -328q-7 1 -41 6.5t-51 5.5q-32 0 -82 -12l16 285q6 82 6 266z" />
    <glyph glyph-name="O" unicode="O" horiz-adv-x="1744" 
d="M389 696q0 -95 16 -182t53 -168t91.5 -140t137.5 -94.5t185 -35.5q101 0 183.5 36.5t137.5 97t92.5 142t54 167.5t16.5 177q0 104 -15.5 193.5t-52 169t-91.5 136t-137.5 89.5t-187.5 33q-102 0 -185 -38t-137.5 -99.5t-91.5 -143.5t-53 -167t-16 -173zM879 1421
q118 0 226 -25t205.5 -80t169.5 -135.5t114 -198.5t42 -261q0 -226 -96 -396.5t-269 -262t-399 -91.5q-160 0 -299 47t-242.5 134.5t-162.5 221.5t-59 298q0 152 40.5 277t111 211.5t168.5 146t211 87t239 27.5z" />
    <glyph glyph-name="P" unicode="P" horiz-adv-x="1175" 
d="M446 629v-307q0 -152 15 -322q-71 12 -144 12t-141 -12q14 230 14 295l5 502q0 245 -5 350l-10 258q118 -10 205 -10q23 0 141 5t138 5q91 0 163.5 -15.5t137.5 -62.5q139 -102 139 -289q0 -62 -15.5 -118.5t-53 -112t-94.5 -96t-148 -65.5t-205 -25q-48 0 -142 8z
M446 1296v-567q74 -8 109 -8q65 0 117 21.5t82.5 54t50.5 75t27.5 80.5t7.5 74q0 127 -63.5 203t-186.5 76q-38 0 -144 -9z" />
    <glyph glyph-name="Q" unicode="Q" horiz-adv-x="1744" 
d="M1405 -393l-469 366q-23 -2 -68 -2q-76 0 -140.5 7.5t-141 28t-149 64t-136.5 107.5q-61 61 -103 133t-61 140t-26 119.5t-7 101.5q0 152 40.5 277t111 211.5t168.5 146t211 87t239 27.5q118 0 226 -25t206 -80t170 -135.5t114 -198.5t42 -261q0 -257 -123.5 -441
t-339.5 -260l463 -286q-126 -56 -227 -127zM385 662q0 -73 13.5 -148t49 -155t88.5 -141.5t140 -101.5t196 -40q114 0 213 55t162 152q105 161 105 458q0 91 -17.5 174t-55.5 157t-93.5 128t-136.5 85.5t-179 31.5q-67 0 -131 -18t-129.5 -64.5t-114 -118t-79.5 -188.5
t-31 -266z" />
    <glyph glyph-name="R" unicode="R" horiz-adv-x="1290" 
d="M446 1294v-530q117 -6 142 -6q74 0 130 25t87.5 66.5t47 89.5t15.5 101q0 73 -18 124.5t-68 88.5q-70 52 -190 52q-23 0 -83.5 -5.5t-62.5 -5.5zM782 696l58 -82q16 -22 53.5 -77t52.5 -76q182 -255 346 -461q-114 12 -182 12q-74 0 -166 -12q-15 24 -52.5 85.5
t-53.5 84.5q-114 177 -342 498h-50v-291q0 -30 4.5 -190.5t4.5 -186.5q-123 12 -138 12q-51 0 -141 -12q18 442 19 656v188q0 199 -2 280t-13 281q118 -10 205 -10q27 0 171 5t167 5q110 0 184.5 -20.5t136.5 -79.5q95 -92 95 -230q0 -82 -29 -149.5t-80 -112.5t-113 -74
t-135 -43z" />
    <glyph glyph-name="S" unicode="S" horiz-adv-x="1099" 
d="M141 307h29q34 -74 71 -122.5t78.5 -72t79 -32t88.5 -8.5q120 0 194.5 72t74.5 184q0 166 -168 235q-29 12 -105.5 42.5t-105.5 43.5q-145 64 -201.5 147.5t-56.5 215.5q0 58 13.5 112t48 109t87 96t137 66.5t191.5 25.5q70 0 135 -13t103.5 -27.5t101.5 -43.5
q-30 -74 -40 -104.5t-24 -89.5h-28q-23 85 -96 131.5t-173 46.5q-116 0 -178.5 -62.5t-62.5 -158.5q0 -32 7.5 -58.5t16.5 -46t32 -39t39.5 -31.5t54.5 -29.5t61 -26.5t73 -29q97 -38 134 -53.5t76.5 -40t68.5 -56.5q57 -61 78.5 -135t21.5 -135q0 -65 -17.5 -127t-58 -121
t-99 -103t-147.5 -71t-198 -27q-81 0 -164.5 21t-122 38t-96.5 46q24 74 31.5 111.5t15.5 119.5z" />
    <glyph glyph-name="T" unicode="T" horiz-adv-x="1138" 
d="M698 1038v-757q0 -139 15 -281q-118 12 -150 12q-28 0 -139 -12q2 39 6.5 114.5t7 122.5t4.5 112t2 120l-2 571q0 68 -4 228h-102q-164 0 -320 -15q11 46 11 76t-11 76q194 -12 547 -12q311 0 547 12q-10 -58 -10 -78q0 -19 10 -74q-151 15 -408 15q-4 -148 -4 -230z" />
    <glyph glyph-name="U" unicode="U" horiz-adv-x="1478" 
d="M432 1405l-6 -156q-6 -156 -6 -528q0 -255 10 -338t53 -141q44 -60 125.5 -92.5t188.5 -32.5q123 0 215.5 58t126.5 153q26 73 26 276q0 502 -18 801q9 -1 27.5 -4.5t34 -5.5t30.5 -2t31 2t35.5 5.5t29.5 4.5l-6 -98q-7 -119 -20 -805q-2 -119 -27 -203t-68 -137.5
t-114 -98.5q-68 -43 -161.5 -65.5t-182.5 -22.5q-79 0 -151.5 10.5t-147.5 38t-132.5 70.5t-99.5 114t-55 163q-4 29 -4 108v557q0 196 -10 369q94 -12 143 -12q51 0 133 12z" />
    <glyph glyph-name="V" unicode="V" horiz-adv-x="1290" 
d="M715 334l78 192q1 3 32.5 82t68.5 175t80.5 211t83.5 226.5t62 184.5q67 -12 94 -12q32 0 99 12q-101 -200 -293 -651q-167 -397 -293 -754q-50 12 -76 12q-36 0 -94 -12q-6 17 -25 71t-23 65t-18.5 52t-19 53t-17.5 47.5t-21 55t-22 55t-27.5 68.5t-31 75.5t-39.5 94.5
q-14 33 -93.5 230t-94.5 231q-11 27 -68.5 158.5t-64.5 148.5q59 -12 166 -12q49 0 151 12q46 -158 94 -294t170 -452q25 -65 78.5 -183t63.5 -142z" />
    <glyph glyph-name="W" unicode="W" horiz-adv-x="2048" 
d="M610 479l39 -114l51 133q236 649 299 907q7 -1 25 -4.5t33.5 -5.5t32.5 -2q32 0 90 12q1 -1 33.5 -107.5t72 -234t53.5 -170.5q81 -246 189 -535q76 201 168 476q66 196 170 571q46 -12 94 -12q45 0 92 12q-159 -397 -305 -809q-119 -339 -201 -596q-62 12 -82 12
q-19 0 -54 -6l-34 -6q-92 299 -116 367q-12 33 -76 223t-76 223q-11 33 -41.5 118t-42.5 118l-61 -170q-96 -267 -195 -557q-13 -37 -30 -91.5t-38 -124.5t-32 -106q-52 12 -78 12t-84 -12l-51 156q-115 348 -230 675q-92 261 -211 574q123 -12 160 -12q66 0 143 12
q64 -247 293 -926z" />
    <glyph glyph-name="X" unicode="X" horiz-adv-x="1251" 
d="M735 768q65 -115 233.5 -389t241.5 -379q-156 12 -178 12q-52 0 -158 -12l-90 184q-35 72 -65 129t-46 85t-44.5 76t-44.5 77l-105 -148q-18 -25 -42 -62.5t-53.5 -86.5t-51.5 -85.5t-55 -93t-44 -75.5q-86 12 -106 12q-34 0 -96 -12l205 283q94 134 100 141l176 248
q-148 260 -219 372l-230 361q93 -12 166 -12q63 0 162 12q46 -100 77.5 -164.5t84 -162t111.5 -191.5q2 2 74.5 115t86.5 135q26 44 78.5 134t79.5 134q70 -12 111 -12q13 0 29 2t37 5.5t32 4.5q-126 -163 -195 -259t-262 -378z" />
    <glyph glyph-name="Y" unicode="Y" horiz-adv-x="1214" 
d="M731 549v-76q0 -141 14 -473q-16 1 -44.5 4.5t-52 5.5t-44.5 2q-20 0 -137 -12q12 320 12 555l-121 209q-60 104 -207.5 347t-177.5 294q114 -12 168 -12q97 0 168 12q91 -193 165 -337t194 -355q126 217 182.5 328t171.5 364q66 -12 119 -12q51 0 86 12
q-44 -78 -211 -342q-53 -85 -142.5 -245t-115.5 -204q-27 -48 -27 -65z" />
    <glyph glyph-name="Z" unicode="Z" horiz-adv-x="1251" 
d="M16 0v66q24 34 149.5 203.5t143.5 195.5q405 608 518 803q-435 0 -725 -23q0 4 3.5 34t3.5 46q0 33 -7 80q33 -3 65 -5t73.5 -3.5t66.5 -2t80.5 -1t77 -0.5h93.5h95q383 0 553 12q4 -28 4 -35q0 -12 -4 -20t-24 -35l-105 -146q-95 -133 -282 -415l-181 -271
q-156 -235 -221 -346h197q206 0 379 15q80 6 233 14q-10 -63 -10 -84q0 -49 10 -82q-5 0 -61.5 2.5t-110 4.5t-169 3.5t-253.5 1.5q-385 0 -592 -12z" />
    <glyph glyph-name="bracketleft" unicode="[" horiz-adv-x="645" 
d="M365 1360l-9 -201q-6 -150 -6 -452v-531q0 -96 10 -321q76 0 224 4q-9 -32 -9 -43q0 -18 9 -49q-102 6 -209 6q-131 0 -213 -6q14 355 14 489v768q0 56 -4.5 159t-9.5 179t-6 86q141 -6 243 -6q92 0 185 6q-9 -22 -9 -43q0 -11 9 -51q-111 6 -219 6z" />
    <glyph glyph-name="backslash" unicode="\" horiz-adv-x="796" 
d="M49 1448h135l564 -1509h-136z" />
    <glyph glyph-name="bracketright" unicode="]" horiz-adv-x="645" 
d="M469 1024v-768q0 -103 4 -299q1 -29 5 -96t5 -94q-110 8 -213 8q-69 0 -209 -8q7 40 7 49q0 22 -7 43q148 -4 224 -4q10 245 10 321v531q0 302 -6 452l-8 201q-109 0 -220 -6q1 5 4 24.5t3 28.5q0 17 -7 41q98 -4 185 -4q37 1 117.5 2t123.5 2q-18 -317 -18 -424z" />
    <glyph glyph-name="asciicircum" unicode="^" horiz-adv-x="1366" 
d="M213 518l397 850h148l397 -850h-154l-317 688l-317 -688h-154z" />
    <glyph glyph-name="underscore" unicode="_" horiz-adv-x="1024" 
d="M0 -256v102h1024v-102h-1024z" />
    <glyph glyph-name="grave" unicode="`" 
d="M137 1460l289 -311h-104l-334 207q-43 27 -43 76q0 40 30.5 62t59.5 22q23 0 43.5 -10t29.5 -18t29 -28z" />
    <glyph glyph-name="a" unicode="a" horiz-adv-x="1024" 
d="M403 541l70 18q92 25 116.5 34.5t31.5 22.5q8 16 8 41q0 111 -54.5 164t-144.5 53q-55 0 -98 -15t-67.5 -39.5t-37.5 -46.5t-18 -44q-20 4 -31 4q-13 0 -33 -4q11 71 11 100q0 38 -2 56q115 69 179.5 91.5t145.5 22.5q172 0 272.5 -78t100.5 -229q0 -39 -3 -178t-3 -172
q0 -161 11 -205.5t61 -44.5q19 0 57 17q-8 -24 -8 -37t8 -37q-119 -45 -174 -45q-43 0 -73 9t-48.5 30t-27.5 37.5t-21 48.5q-48 -64 -122 -102t-153 -38q-68 0 -120.5 18.5t-82 46t-48.5 63.5t-25 65t-6 57q0 37 5.5 69t13.5 56.5t24.5 46t30.5 36.5t40.5 30t44.5 24
t52.5 20t55.5 17t62 17zM623 295v213q-195 -51 -256.5 -90t-61.5 -142q0 -81 36.5 -128.5t98.5 -47.5q81 0 132 56.5t51 138.5z" />
    <glyph glyph-name="b" unicode="b" horiz-adv-x="1214" 
d="M1116 514q0 -105 -31.5 -201t-89.5 -172t-147.5 -121t-198.5 -45q-103 0 -180.5 30.5t-138.5 113.5q-46 -31 -65.5 -49t-63.5 -70h-70q1 10 3.5 59t3 59t3 54t3 60t2.5 59t2.5 70.5t1.5 74.5t1 89t0.5 97.5t0.5 116.5q0 367 -25 779q67 -13 137 -13q49 0 125 13
q-9 -162 -11 -259.5t-5 -433.5q128 174 313 174q79 0 153 -28.5t137.5 -85t101.5 -152.5t38 -219zM612 70q61 0 107 28t72.5 71t43 102t22 112t5.5 111q0 380 -246 380q-61 0 -107 -26.5t-72 -66t-42 -96t-21 -106.5t-5 -106q0 -403 243 -403z" />
    <glyph glyph-name="c" unicode="c" horiz-adv-x="985" 
d="M913 211l33 -18q-8 -12 -14 -25t-10.5 -31t-6.5 -27t-5.5 -32.5t-4.5 -28.5q-142 -74 -301 -74q-98 0 -182.5 28.5t-143.5 77t-101.5 112.5t-62.5 135.5t-20 146.5q0 82 20 157.5t63 142.5t105 116.5t151.5 78.5t197.5 29q88 0 156.5 -17t156.5 -54q-35 -67 -47 -193h-39
q-2 8 -6.5 22t-20.5 42t-38 50t-62.5 39t-89.5 17q-68 0 -127 -34.5t-92 -84.5q-64 -95 -64 -276q0 -64 8.5 -121.5t30.5 -113t56 -96t88 -65t123 -24.5q43 0 76 7.5t67 29.5t49.5 34.5t56.5 49.5z" />
    <glyph glyph-name="d" unicode="d" horiz-adv-x="1214" 
d="M846 0l6 141q-46 -68 -124.5 -119t-186.5 -51q-131 0 -234.5 67.5t-159 181t-55.5 251.5q0 125 36 225.5t99 164.5t146 98t178 34q54 0 98.5 -10t80.5 -32t58.5 -41t55.5 -52q0 448 -25 660q73 -13 146 -13q59 0 116 13q-22 -383 -22 -734q0 -127 5.5 -417t16.5 -367
q-60 12 -116 12q-20 0 -119 -12zM590 94q118 0 186 101.5t68 298.5q0 79 -11.5 144t-37.5 123.5t-76 91t-121 32.5q-58 0 -103.5 -24t-72.5 -62t-44.5 -89t-23.5 -99t-6 -99q0 -45 3.5 -86.5t12 -91.5t26.5 -90.5t43.5 -75.5t65.5 -54.5t91 -19.5z" />
    <glyph glyph-name="e" unicode="e" horiz-adv-x="1099" 
d="M1010 483h-672q0 -27 0.5 -46.5t7 -63t18 -75.5t35.5 -72.5t57.5 -67t87 -44.5t120.5 -18q72 0 156.5 36t133.5 93l23 -14q-11 -26 -16 -43l-19 -88q-7 -8 -33 -23.5t-69 -34.5t-108.5 -33t-133.5 -14q-49 0 -105.5 9t-135 41.5t-130.5 85.5q-137 139 -137 391
q0 123 40 220t107.5 155.5t151 89t176.5 30.5q36 0 61 -1t77 -11t91 -28t83 -55.5t73 -90.5q68 -128 60 -328zM342 584h432q0 31 -0.5 50.5t-4.5 58t-11 64.5t-22 58.5t-36.5 52t-55 33.5t-75.5 14q-210 0 -227 -331z" />
    <glyph glyph-name="f" unicode="f" horiz-adv-x="645" 
d="M664 1311l-15 -13q-61 41 -151 41q-138 0 -138 -131q0 -51 58 -241q104 0 141 2l76 6q-8 -32 -8 -55q0 -28 8 -56q-35 6 -213 6v-112q0 -116 5 -381t15 -377q-117 12 -129 12q-28 0 -133 -12q13 81 15 207q1 71 3.5 189t2.5 171q0 221 -4 303h-66q-13 0 -88 -6q6 27 6 56
q0 8 -2.5 26.5t-3.5 28.5q32 -3 55.5 -5t24.5 -2t76 -1q10 95 15.5 131.5t24 94t50.5 114.5q16 27 24.5 41t41.5 54t65 63.5t85 44t111 20.5q17 0 62 -8q-16 -46 -16 -103q0 -77 2 -108z" />
    <glyph glyph-name="g" unicode="g" horiz-adv-x="1062" 
d="M887 868l-76 4q98 -94 98 -223q0 -39 -9 -75.5t-32.5 -75.5t-60 -69t-97 -51.5t-137.5 -27.5q-7 0 -86 -3t-94 -5q-76 -12 -76 -86q0 -25 8 -43.5t19.5 -28.5t30 -16.5t32 -8t33.5 -3.5q5 0 145 -2.5t169 -6.5q58 -7 98.5 -21t55.5 -24.5t30 -25.5q74 -74 74 -185
q0 -127 -72 -227t-187.5 -152.5t-250.5 -52.5q-125 0 -224.5 30.5t-161 95t-61.5 155.5q0 45 10 82.5t27.5 62.5t35.5 43.5t39.5 29.5t34 16t23.5 8l49 14q-67 23 -105 68t-38 94q0 22 2 38.5t12 44t28 48.5t54.5 44.5t87.5 39.5q-71 26 -118.5 61t-69.5 74t-30.5 74
t-8.5 77q0 159 111 247.5t286 88.5q55 0 148 -14q89 -13 119.5 -15.5t95.5 -2.5q116 0 162 10q-6 -30 -6 -53q0 -38 6 -62q-100 10 -123 10zM506 -446q57 0 111 14.5t101.5 42.5t76 76t28.5 110q0 48 -20.5 83t-49 53t-73.5 28.5t-80 13t-82 2.5q-162 0 -227 -53
q-11 -9 -23 -22.5t-26.5 -47t-14.5 -69.5q0 -117 77 -174t202 -57zM502 416q75 0 123.5 66t48.5 194q0 23 -2 46.5t-12 60.5t-27 64t-51 47.5t-80 20.5q-36 0 -65 -10.5t-47 -26t-31 -41t-19 -45.5t-9.5 -51t-4 -46.5t-0.5 -41.5q0 -50 7 -88t24.5 -74t54 -55.5t90.5 -19.5z
" />
    <glyph glyph-name="h" unicode="h" horiz-adv-x="1175" 
d="M397 1518l-4 -66q-14 -229 -14 -627q118 168 319 168q196 0 285 -137q22 -35 33 -80.5t12.5 -77.5t1.5 -92q0 -22 -2 -105t-2 -116q0 -221 12 -385q-62 12 -127 12q-27 0 -80.5 -6t-56.5 -6q23 220 23 428q0 232 -15 291q-17 61 -64 94t-112 33q-66 0 -123 -31.5
t-80 -101.5q-24 -77 -24 -240q0 -289 10 -473q-82 12 -129 12q-19 0 -44.5 -2.5t-51 -6t-29.5 -3.5q12 201 14.5 334t2.5 469l-2 399q0 44 -15 316q67 -13 139 -13q60 0 123 13z" />
    <glyph glyph-name="i" unicode="i" 
d="M135 0l10 221q7 182 7 254q0 293 -21 508q82 -12 137 -12q61 0 127 12l-4 -92q-12 -258 -12 -350q0 -157 6 -373q0 -14 4 -85t4 -83q-78 12 -119 12q-45 0 -139 -12zM262 1171q-56 0 -98.5 42t-42.5 100q0 57 42 100t99 43t100.5 -43t43.5 -100q0 -58 -44 -100t-100 -42z
" />
    <glyph glyph-name="j" unicode="j" 
d="M-18 -539l-23 78q41 9 64.5 17t51.5 25.5t42.5 44t28 69t19 104.5t5.5 148q0 125 -2 375.5t-2 326.5q0 75 -14 334q61 -12 133 -12q59 0 133 12q-17 -261 -17 -473q0 -77 2.5 -231.5t2.5 -231.5q0 -57 -5 -152t-12 -137q-8 -47 -30 -87t-47 -67t-64 -51t-68 -37
t-73.5 -25.5t-66 -17.5t-58.5 -12zM285 1171q-56 0 -100 42t-44 100q0 57 43.5 100t100.5 43t99 -43t42 -100q0 -58 -42.5 -100t-98.5 -42z" />
    <glyph glyph-name="k" unicode="k" horiz-adv-x="1099" 
d="M387 438v-41q0 -295 10 -397q-54 12 -121 12q-41 0 -135 -12q15 215 15 432q0 31 2 197.5t2 193.5q0 480 -21 695q50 -9 137 -13q67 0 130 13l-9 -132q-12 -221 -12 -665q0 -17 1 -73t1 -73q0 -26 10 -26q15 0 31 14q54 46 183.5 194t185.5 226q75 -12 131 -12
q70 0 110 12l4 -12q-121 -99 -421 -365l159 -221q12 -16 70.5 -96.5t67.5 -93.5q76 -100 102 -132t49 -53l-2 -10q-186 12 -190 12q-44 0 -142 -12q-12 19 -69 113t-66 108l-125 185q-26 39 -41 56.5t-19.5 20t-13.5 2.5q-10 0 -12 -10t-2 -37z" />
    <glyph glyph-name="l" unicode="l" 
d="M129 1518q83 -13 141 -13q42 0 131 13q-20 -221 -20 -754q0 -2 -0.5 -42t-0.5 -87.5v-114.5t1.5 -136l3 -138t5.5 -134t9 -112q-13 1 -38.5 4.5t-46.5 5.5t-40 2q-33 0 -141 -12q21 144 21 815q0 417 -25 703z" />
    <glyph glyph-name="m" unicode="m" horiz-adv-x="1781" 
d="M381 440q0 -297 10 -440q-13 1 -36.5 4.5t-43 5.5t-37.5 2q-15 0 -135 -12q15 276 15 541q0 210 -17 442q94 -12 142 -12q46 0 108 12q-7 -48 -12 -182q113 190 311 190q61 0 110.5 -14.5t78.5 -32.5t54.5 -49t34.5 -48t23 -46q124 190 334 190q67 0 121.5 -19t89 -49.5
t58 -69t33 -76t9.5 -72.5q0 -42 -3 -151t-3 -151q0 -314 12 -403q-23 2 -66.5 7t-62.5 5q-17 0 -42.5 -2.5t-51 -5.5t-33.5 -4q17 212 17 362q0 236 -2 273q-14 211 -176 211q-53 0 -91.5 -14.5t-61.5 -50.5t-36.5 -68t-19.5 -98.5t-7 -108t-1 -127.5q0 -87 14 -379
q-13 1 -38.5 4.5t-46.5 5.5t-40 2q-15 0 -133 -12q16 123 16 397q0 265 -14 322q-32 127 -178 127q-57 0 -103.5 -32.5t-70.5 -86.5q-29 -63 -29 -287z" />
    <glyph glyph-name="n" unicode="n" horiz-adv-x="1175" 
d="M1032 647q0 -23 -4 -181.5t-4 -213.5q0 -170 14 -252q-15 1 -42 4.5t-49 5.5t-42 2q-16 0 -133 -12q11 68 18 186.5t7 200.5q0 271 -15 330q-18 69 -69 102t-121 33q-57 0 -107 -33.5t-75 -85.5q-35 -71 -35 -270q0 -268 14 -463q-120 12 -129 12q-43 0 -129 -12
q15 221 18 297.5t3 249.5q0 184 -3 248t-14 188q60 -12 135 -12q47 0 113 12q-10 -59 -10 -170q46 62 85 98t97.5 59t134.5 23q166 0 254 -90.5t88 -255.5z" />
    <glyph glyph-name="o" unicode="o" horiz-adv-x="1214" 
d="M92 485q0 235 140.5 373.5t373.5 138.5q240 0 377 -132.5t137 -379.5q0 -237 -138.5 -373.5t-375.5 -136.5q-234 0 -374 137t-140 373zM348 487q0 -59 5 -112t22 -113.5t44 -103.5t75 -72t112 -29t112 29t75 72t44 103.5t22 113.5t5 112t-5 112t-22 113t-44 103t-75 71.5
t-112 28.5t-112 -29t-75 -72t-44 -103.5t-22 -113t-5 -110.5z" />
    <glyph glyph-name="p" unicode="p" horiz-adv-x="1214" 
d="M369 983l-7 -143q120 172 320 172q81 0 152.5 -28.5t123.5 -77.5t89.5 -114t56 -139t18.5 -151q0 -73 -15.5 -144t-51 -138t-87.5 -117.5t-131 -81.5t-175 -31q-56 0 -101.5 10.5t-81 32.5t-57 40.5t-51.5 49.5q0 -416 22 -655q-61 12 -135 12q-57 0 -127 -12
q25 318 25 765q0 480 -23 750q12 -1 38 -4.5t47 -5.5t40 -2q18 0 111 12zM866 481q0 36 -2.5 70.5t-10 85t-25 91.5t-43.5 78.5t-69 59t-98 21.5q-58 0 -103 -26.5t-71.5 -67t-43.5 -95t-23 -104.5t-6 -102q0 -75 10.5 -138t36.5 -125t79 -97.5t130 -35.5q56 0 100 26
t69.5 66t42 93.5t22 101.5t5.5 98z" />
    <glyph glyph-name="q" unicode="q" horiz-adv-x="1214" 
d="M848 840l-6 143q93 -12 112 -12q47 0 121 12q-18 -248 -18 -747q0 -548 22 -768q-47 12 -129 12q-57 0 -135 -12q25 199 25 655q-72 -72 -136 -102.5t-153 -30.5q-114 0 -204 42t-145.5 114t-84.5 163.5t-29 196.5q0 218 126 362t318 144q199 0 316 -172zM344 469
q0 -48 6 -95.5t22.5 -99t42 -90t69 -63.5t98.5 -25q66 0 116 27.5t77.5 68.5t45 97t22.5 103t5 97q0 175 -68 286.5t-190 111.5q-246 0 -246 -418z" />
    <glyph glyph-name="r" unicode="r" horiz-adv-x="757" 
d="M141 0l9 201q4 90 4 327q0 185 -15 455q71 -12 135 -12q68 0 117 12q-12 -104 -12 -215q18 29 25.5 41t29 41.5t36 44t40 37t49 33.5t55.5 19.5t66 8.5q29 0 53 -6q-18 -35 -18 -147q0 -46 10 -88l-14 -11q-35 29 -121 29q-64 0 -112.5 -33t-69.5 -78q-9 -19 -13.5 -35
t-8 -58t-3.5 -109q0 -267 18 -457q-2 0 -47 6t-71 6q-20 0 -142 -12z" />
    <glyph glyph-name="s" unicode="s" horiz-adv-x="833" 
d="M115 231h37q9 -22 15 -34t26.5 -38.5t44.5 -41.5t67.5 -28t97.5 -13q73 0 113.5 42.5t40.5 102.5q0 39 -26 68t-51.5 41t-86.5 36q-8 3 -12 5q-8 3 -42 15t-62 22t-35 14q-22 11 -34 17.5t-40 29t-44 47.5t-30 69t-14 97q0 140 94.5 227.5t261.5 87.5q131 0 275 -61
q-43 -85 -52 -182h-32q-17 33 -28.5 51.5t-34.5 43.5t-56.5 36.5t-77.5 11.5q-74 0 -120 -36.5t-46 -98.5t45 -91t178 -73q39 -13 57 -19.5t53.5 -21.5t53.5 -28t43.5 -36t38 -47.5t22 -60t9.5 -76.5t-12.5 -84.5t-42 -89.5t-72.5 -82t-112 -59t-152 -23q-55 0 -110.5 12
t-91 25.5t-101.5 42.5q25 67 30 86q6 21 10 57z" />
    <glyph glyph-name="t" unicode="t" horiz-adv-x="681" 
d="M432 1343l14 -6q-6 -21 -7.5 -70.5t-6.5 -299.5q104 0 141 2l76 6q-6 -27 -6 -51q0 -32 6 -62q-88 8 -223 8q0 -44 -3 -197t-3 -196q0 -85 1.5 -135t6.5 -100t14 -75t26 -46t40.5 -28t58.5 -7q62 0 123 43q-8 -40 -8 -49q0 -19 8 -47q-46 -24 -113.5 -42t-117.5 -18
q-47 0 -99.5 14t-85.5 40q-86 68 -86 231q0 36 6.5 278.5t6.5 333.5h-62q-21 0 -96 -6q6 30 6 45q0 29 -6 66q56 -8 70 -8h90q0 139 -4 233q148 67 233 143z" />
    <glyph glyph-name="u" unicode="u" horiz-adv-x="1175" 
d="M141 336q0 72 4.5 216t4.5 216q0 98 -13 215q71 -12 131 -12q66 0 133 12q-12 -62 -18 -204.5t-6 -241.5q0 -220 14 -275q17 -62 67 -97.5t113 -35.5q44 0 80.5 13.5t59 35t34 37t19.5 31.5q35 69 35 252q0 351 -15 485q74 -12 119 -12q55 0 139 12q-20 -303 -20 -549
q0 -253 16 -434q-25 2 -67 7t-62 5q-26 0 -116 -12q8 76 8 166q-27 -37 -51 -62.5t-65 -58.5t-96 -50.5t-120 -17.5q-91 0 -168 42t-119 120q-41 76 -41 197z" />
    <glyph glyph-name="v" unicode="v" horiz-adv-x="1024" 
d="M309 983l25 -78q97 -306 237 -674l23 60q4 10 23 63t35 96.5t20 57.5q48 154 94 289q41 129 51 186q44 -12 84 -12q49 0 98 12l-118 -266q-82 -186 -162 -391q-95 -243 -119 -336q-54 12 -86 12q-34 0 -104 -12q-61 195 -93 276q-19 47 -141.5 354t-144.5 363
q90 -12 141 -12q73 0 137 12z" />
    <glyph glyph-name="w" unicode="w" horiz-adv-x="1630" 
d="M307 983l58 -197q22 -76 172 -544l51 143q85 238 188 598q40 -12 82 -12q48 0 98 12l33 -115q98 -343 205 -622l31 82q94 258 205 655q50 -12 90 -12q32 0 86 12q-52 -133 -101 -250l-86 -211q-120 -291 -194 -532q-41 12 -82 12q-39 0 -105 -12l-34 114
q-79 255 -101 318q-60 173 -69 205l-23 69q-11 -25 -55 -151l-123 -348q-22 -62 -60 -207q-35 12 -79 12q-52 0 -105 -12l-80 264q-75 249 -278 729q73 -12 141 -12q74 0 135 12z" />
    <glyph glyph-name="x" unicode="x" horiz-adv-x="1024" 
d="M422 838l127 -197q114 154 221 342q40 -12 84 -12q16 0 34 2t40 5.5t33 4.5l-121 -141q-129 -149 -234 -287q59 -94 381 -555q-136 12 -145 12q-1 0 -142 -12q-87 148 -229 365q-60 -79 -107.5 -152.5t-130.5 -212.5q-54 12 -86 12q-16 0 -34.5 -2t-41 -5.5t-34.5 -4.5
q59 74 188 225q155 187 185 230q-18 34 -156 237q-110 157 -148 209q-5 7 -19 27.5t-24 35.5t-14 19q86 -12 154 -12q45 0 135 12q8 -13 37 -65.5t47 -79.5z" />
    <glyph glyph-name="y" unicode="y" horiz-adv-x="1024" 
d="M479 494l96 -234l37 86q54 124 144 395q46 155 75 242q50 -12 91 -12q34 0 92 12q-108 -214 -348.5 -773t-282.5 -738q-54 12 -92 12q-41 0 -94 -12l32 53q59 96 230 438q-11 38 -37 101t-105 245q-36 82 -57 131l-244 543q86 -12 144 -12q46 0 141 12q15 -56 85 -245
t93 -244z" />
    <glyph glyph-name="z" unicode="z" horiz-adv-x="985" 
d="M39 0v63q130 161 311 424q18 25 102.5 149t88.5 130l61 90h-80q-34 0 -199 -7t-227 -13q6 30 6 65q0 33 -6 80q98 -12 412 -12q334 0 412 12v-70l-62 -80q-147 -191 -285.5 -395.5t-197.5 -310.5h71q332 0 478 14q-11 -43 -11 -76q0 -40 7 -63q-59 1 -207.5 6.5
t-233.5 5.5q-296 0 -440 -12z" />
    <glyph glyph-name="braceleft" unicode="{" horiz-adv-x="819" 
d="M61 563v86q143 3 207 73.5t64 209.5v102q0 57 1 87.5t9 83.5t23.5 83.5t46.5 69.5t75.5 60.5t114 38t158.5 18.5v-89q-53 -3 -94 -15.5t-67.5 -28.5t-45 -44t-27.5 -49t-14 -58t-5.5 -57.5t-0.5 -59.5v-3v-94q0 -33 -0.5 -51.5t-3 -51.5t-7 -53t-14 -49t-23 -47.5
t-35 -40.5t-48.5 -35.5t-64 -25.5t-82 -17q45 -5 82 -16.5t63.5 -24.5t48 -34.5t35 -39.5t23 -46t14.5 -48.5t7.5 -53.5t3 -53t0.5 -54v-95q0 -30 0.5 -46t2.5 -45.5t6.5 -46.5t13 -43t21 -41.5t32 -34t44 -29t59 -19t75.5 -10.5v-88q-61 2 -112 9t-90 20.5t-71 28.5t-55 38
t-40 44.5t-27.5 52t-17.5 56t-10 61.5t-4 63.5t-1 66.5v103q0 150 -60.5 214.5t-210.5 67.5z" />
    <glyph glyph-name="bar" unicode="|" horiz-adv-x="454" 
d="M154 -512v2048h147v-2048h-147z" />
    <glyph glyph-name="braceright" unicode="}" horiz-adv-x="819" 
d="M758 649v-86q-143 -3 -207 -73t-64 -209v-103q0 -57 -1 -87.5t-9 -83.5t-23.5 -83t-46.5 -69t-76 -60.5t-114 -38t-158 -18.5v88q53 3 94 15.5t67.5 28.5t45 44t27.5 49t14 58t5.5 57.5t0.5 59.5v3v95q0 33 0.5 51.5t3 51.5t7 53t14 49t23 47t35 40t48.5 35.5t64 25.5
t82 17q-57 7 -101.5 23.5t-73.5 36t-49 51t-30.5 57t-15.5 66.5t-6 66.5t-1 70.5v94q0 30 -0.5 46t-2.5 45.5t-6.5 46.5t-13 43t-21 41.5t-32 34t-44 29t-59 19t-75.5 10.5v89q86 -3 153 -17.5t111.5 -35.5t76 -56t48.5 -67.5t26 -82.5t11 -87.5t2 -94.5v-102
q0 -151 61 -215.5t210 -67.5z" />
    <glyph glyph-name="asciitilde" unicode="~" horiz-adv-x="1366" 
d="M221 354h-102q8 125 77.5 214t188.5 89q100 0 309 -77q76 -28 112.5 -40.5t90 -26t88.5 -13.5q69 0 109.5 47t50.5 123h102q-8 -125 -77.5 -214t-188.5 -89q-99 0 -309 79q-207 78 -291 78q-57 0 -105 -42.5t-55 -127.5z" />
    <glyph glyph-name="uni00A0" unicode="&#xa0;" horiz-adv-x="532" 
 />
    <glyph glyph-name="exclamdown" unicode="&#xa1;" horiz-adv-x="569" 
d="M168 -55l98 653h41l96 -672q17 -139 17 -186q0 -45 -14 -78t-36.5 -49t-44 -23.5t-42.5 -7.5q-37 0 -65.5 15.5t-43 39.5t-21 47.5t-6.5 45.5q0 73 21 215zM135 850q0 59 42.5 102t103.5 43q59 0 102 -43.5t43 -101.5t-43 -101.5t-102 -43.5q-61 0 -103.5 43t-42.5 102z
" />
    <glyph glyph-name="cent" unicode="&#xa2;" horiz-adv-x="1062" 
d="M332 -252l80 260q-152 55 -235 185t-83 282q0 82 20 157.5t63 142.5t105 116.5t151.5 78.5t197.5 29q32 0 82 -4l69 230l92 -23l-69 -225q33 -8 139 -49q-35 -67 -47 -193h-39q-30 89 -86 131l-231 -749q63 -27 123 -27q43 0 76 7.5t67 29.5t49.5 34.5t56.5 49.5
q27 -13 33 -18q-16 -23 -22.5 -46.5t-18.5 -97.5q-142 -74 -301 -74q-52 0 -102 9l-80 -258zM461 172l223 729q-28 4 -43 4q-64 0 -114 -24t-81 -62.5t-51.5 -91.5t-28.5 -106t-8 -111q0 -235 103 -338z" />
    <glyph glyph-name="sterling" unicode="&#xa3;" horiz-adv-x="1062" 
d="M967 1133h-19q-26 47 -42 72t-43 53t-62 39.5t-82 11.5q-73 0 -121.5 -42t-67.5 -93q-20 -51 -20 -232l2 -174h72q118 0 235 10q-8 -54 -8 -61q0 -17 8 -64l-94 9q-36 4 -213 4q-7 -129 -24 -195q-8 -33 -21 -65q-19 -50 -49.5 -91.5t-50.5 -59t-54 -42.5h224
q205 0 271.5 2t211.5 12q-1 -8 -5.5 -46.5t-4.5 -63.5q0 -17 4.5 -62l5.5 -55q-177 14 -455 14q-359 0 -502 -14q11 50 11 88q0 39 -11 90q21 0 32.5 0.5t35 3.5t38.5 10t35 18.5t33 31t25.5 46t18.5 65t6 85.5q0 116 -15 228q-83 0 -202 -7q8 40 8 62q0 11 -8 57
q102 -10 190 -10q-4 70 -4 90q0 148 28.5 243t92.5 163q58 61 147.5 100t204.5 39q125 0 277 -53q-31 -153 -39 -217z" />
    <glyph glyph-name="currency" unicode="&#xa4;" horiz-adv-x="1062" 
d="M903 399l137 -137l-94 -94l-137 137q-129 -94 -274 -94q-153 0 -279 94l-137 -137l-94 94l137 137q-94 134 -94 277q0 156 94 276l-137 138l94 94l137 -137q125 94 276 94q76 0 140 -23t137 -71l137 137l94 -94l-137 -138q94 -119 94 -276q0 -154 -94 -277zM236 676
q0 -125 86 -211t210 -86t210.5 86.5t86.5 210.5q0 128 -85.5 212.5t-211.5 84.5q-125 0 -210.5 -84.5t-85.5 -212.5z" />
    <glyph glyph-name="yen" unicode="&#xa5;" horiz-adv-x="1062" 
d="M649 528v-98q174 0 334 10q-8 -54 -8 -61q0 -18 8 -62q-140 11 -334 11q0 -123 10 -328q-15 1 -40.5 4.5t-46.5 5.5t-40 2q-15 0 -126 -12q10 132 10 328q-168 0 -334 -11q8 50 8 66q0 11 -8 57q130 -10 334 -10v105l-21 45q-152 0 -313 -11q8 50 8 66q0 11 -8 57
q110 -10 270 -10q-253 450 -413 686q83 -12 153 -12q88 0 146 12q94 -203 165.5 -345t184.5 -339q111 194 167 304t150 316q19 41 29 64q58 -12 100 -12q50 0 90 12q-163 -248 -415 -686q54 0 274 10q-8 -54 -8 -61q0 -18 8 -62q-138 11 -313 11q-21 -32 -21 -52z" />
    <glyph glyph-name="brokenbar" unicode="&#xa6;" horiz-adv-x="454" 
d="M154 -358v716h147v-716h-147zM154 666v716h147v-716h-147z" />
    <glyph glyph-name="section" unicode="&#xa7;" horiz-adv-x="1062" 
d="M147 -180l33 194h19q15 -28 26 -46.5t39 -52.5t57 -55t75 -38t98 -17q107 0 165 57.5t58 139.5q0 44 -16.5 76.5t-67.5 65.5t-86.5 50t-131.5 58q-12 5 -18 8q-33 14 -97 48.5t-87 51.5q-111 78 -111 224q0 47 13.5 89t29 69t43.5 55t41 38t37 27q-21 23 -31.5 36t-25 38
t-21 54.5t-6.5 66.5q0 142 104 234.5t271 92.5q29 0 61.5 -3t80 -12t94.5 -31t81 -54q-19 -33 -30.5 -57.5t-16.5 -39.5t-20 -59h-14q-15 31 -25 49t-31.5 44t-44.5 40t-60.5 24.5t-84.5 10.5q-74 0 -132.5 -41.5t-58.5 -119.5q0 -23 3.5 -41.5t15.5 -36.5t21.5 -30.5
t34 -28.5t39 -25.5t52 -27t58 -26.5t69.5 -30q45 -19 66.5 -28.5t60 -29.5t58.5 -35t46.5 -39.5t39.5 -49t22.5 -58t9.5 -71.5q0 -53 -12.5 -98t-38.5 -81.5t-46 -58t-54 -51.5q22 -20 35 -34t32.5 -41t29 -62t9.5 -76q0 -98 -55 -180t-135 -123q-114 -58 -246 -58
q-170 0 -324 105zM817 477q0 63 -45.5 101t-173.5 96q-131 59 -173.5 81t-111.5 70q-37 -33 -57 -63.5t-20 -71.5q0 -30 7 -55t23.5 -45t31.5 -34t43 -29t44 -22.5t49 -21.5q247 -105 314 -147q33 33 51 64t18 77z" />
    <glyph glyph-name="dieresis" unicode="&#xa8;" 
d="M596 1290q0 -48 -35.5 -84.5t-85.5 -36.5q-51 0 -86 35.5t-35 85.5q0 51 35 86t86 35t86 -35.5t35 -85.5zM176 1290q0 -48 -35.5 -84.5t-85.5 -36.5q-51 0 -86 35.5t-35 85.5q0 51 35 86t86 35t86 -35.5t35 -85.5z" />
    <glyph glyph-name="copyright" unicode="&#xa9;" horiz-adv-x="1679" 
d="M840 1425q200 0 370 -97.5t269.5 -266.5t99.5 -369q0 -148 -58.5 -283.5t-157 -234t-235.5 -157t-288 -58.5t-288 58.5t-236 157t-157.5 234t-58.5 283.5q0 150 59 286t158.5 234t236 155.5t286.5 57.5zM1477 692q0 174 -85 321.5t-232 233.5t-320 86q-172 0 -319 -85.5
t-232.5 -233t-85.5 -322.5q0 -130 50.5 -248.5t135.5 -204.5t203 -137t248 -51q133 0 251.5 50t203 136t133.5 204.5t49 250.5zM1171 1071l-36 -121h-13q-56 113 -233 113q-154 0 -235 -95t-81 -270q0 -95 30.5 -175.5t99.5 -135.5t167 -55q102 0 166.5 37.5t118.5 99.5
l12 -8l-12 -121q-144 -78 -311 -78q-122 0 -220 48t-158 146t-60 232q0 94 29.5 173.5t86.5 141t150 96t213 34.5q145 0 286 -62z" />
    <glyph glyph-name="ordfeminine" unicode="&#xaa;" horiz-adv-x="665" 
d="M629 860v-55q-79 -27 -117 -27q-44 0 -69 15t-44 53q-27 -33 -74.5 -54.5t-101.5 -21.5q-81 0 -135.5 39.5t-54.5 114.5q0 40 12 70t27.5 47.5t49.5 33t57 22.5t71 19l45 10q64 14 82 23.5t18 30.5q0 60 -34 89t-91 29q-65 0 -97.5 -26t-41.5 -55h-51q8 27 8 57v41
q94 69 219 69q112 0 179.5 -47t64.5 -137q0 -23 -2 -107t-2 -104q0 -88 7 -113.5t38 -25.5q7 0 37 10zM391 963v118q-119 -31 -156.5 -53t-37.5 -78q0 -43 22.5 -68.5t59.5 -25.5q52 0 82 31t30 76z" />
    <glyph glyph-name="guillemotleft" unicode="&#xab;" horiz-adv-x="909" 
d="M100 502l60 90q162 248 196 313q60 -48 115 -80q-74 -82 -219 -323q10 -13 74 -102t77 -105l68 -90q-66 -44 -109 -82q-176 273 -262 379zM698 123l-55 92q-2 3 -26 36t-33 48q-93 134 -146 203l60 90q111 168 181 287q10 17 15 26q48 -42 113 -80q-75 -84 -217 -323
q20 -29 75 -104t76 -103l66 -90q-51 -36 -109 -82z" />
    <glyph glyph-name="logicalnot" unicode="&#xac;" horiz-adv-x="1366" 
d="M152 852h1062v-543h-133v410h-929v133z" />
    <glyph glyph-name="uni00AD" unicode="&#xad;" horiz-adv-x="833" 
d="M137 403q10 87 10 119q0 39 -10 94q84 -6 254 -6q115 0 305 6q-10 -88 -10 -106q0 -14 5 -58t5 -49q-43 0 -144 3.5t-151 3.5q-138 0 -264 -7z" />
    <glyph glyph-name="registered" unicode="&#xae;" horiz-adv-x="1024" 
d="M428 1188v-166q16 -2 53 -2q55 0 83 28t28 64q0 80 -109 80q-31 0 -55 -4zM319 1034q0 111 -4 203q36 -4 86 -4q10 0 68 2t68 2q68 0 118 -27t50 -88q0 -58 -41 -91.5t-105 -41.5q7 -8 84 -102t117 -142q-63 5 -70 5q-2 0 -65 -5q-16 20 -54.5 72.5t-66.5 88.5t-58 69
h-18q0 -74 4 -230q-50 5 -59 5q-2 0 -60 -5q6 137 6 289zM512 1425q188 0 316 -127t128 -313q0 -184 -128.5 -312t-315.5 -128q-188 0 -316 128t-128 312q0 186 127.5 313t316.5 127zM879 985q0 155 -106 261t-261 106q-154 0 -260.5 -106t-106.5 -261t106.5 -261
t260.5 -106q155 0 261 107t106 260z" />
    <glyph glyph-name="macron" unicode="&#xaf;" 
d="M-27 1229v133h586v-133h-586z" />
    <glyph glyph-name="degree" unicode="&#xb0;" horiz-adv-x="819" 
d="M98 1071q0 134 89.5 222.5t222.5 88.5q134 0 222.5 -89t88.5 -222q0 -130 -89.5 -220.5t-221.5 -90.5q-133 0 -222.5 90t-89.5 221zM225 1071q0 -82 52.5 -135t132.5 -53q81 0 132.5 54t51.5 134q0 81 -51.5 135t-132.5 54q-78 0 -131.5 -54.5t-53.5 -134.5z" />
    <glyph glyph-name="plusminus" unicode="&#xb1;" horiz-adv-x="1366" 
d="M616 1157h134v-401h464v-133h-464v-402h-134v402h-464v133h464v401zM1214 133v-133h-1062v133h1062z" />
    <glyph glyph-name="twosuperior" unicode="&#xb2;" horiz-adv-x="696" 
d="M41 553v49q174 147 262 254q115 143 115 279q0 46 -10 82.5t-40 65t-79 28.5q-67 0 -103.5 -42.5t-44.5 -113.5l-16 -12l-82 78q38 82 103.5 121.5t175.5 39.5q52 0 98.5 -11t89 -35.5t67.5 -69.5t25 -107q0 -76 -29 -133.5t-110 -138.5q-30 -30 -114.5 -107.5
t-106.5 -93.5q327 0 393 8q-6 -27 -6 -78q0 -31 4 -63q-211 8 -295 8q-117 0 -297 -8z" />
    <glyph glyph-name="threesuperior" unicode="&#xb3;" horiz-adv-x="696" 
d="M641 786q0 -62 -31.5 -111t-83 -78.5t-111.5 -44.5t-122 -15q-155 0 -248 79q26 36 57 109h27q2 -13 12 -31t29 -39.5t54 -36t79 -14.5q68 0 112 46.5t44 127.5q0 71 -37.5 119.5t-116.5 48.5q-15 0 -78 -10q6 12 6 39t-6 51q24 -8 52 -8q67 0 107 41t40 115
q0 69 -35.5 102t-91.5 33q-125 0 -145 -138h-25q-10 21 -21.5 35t-46.5 51q81 119 269 119q124 0 196 -46t72 -134q0 -82 -46.5 -130.5t-139.5 -72.5q-11 -3 -11 -4q0 -4 15 -4q98 -5 161.5 -53t63.5 -146z" />
    <glyph glyph-name="acute" unicode="&#xb4;" 
d="M545 1374l-336 -207h-105l289 312q51 55 99 55q40 0 68 -23.5t28 -60.5q0 -45 -43 -76z" />
    <glyph glyph-name="mu" unicode="&#xb5;" horiz-adv-x="1175" 
d="M1022 434q0 -253 16 -434q-25 2 -67 7t-62 5q-26 0 -116 -12q8 76 8 166q-37 -87 -119.5 -138t-175.5 -51q-82 0 -135 43q0 -348 20 -552q-59 12 -133 12q-58 0 -125 -12q21 251 21 747q0 620 -17 768q71 -12 131 -12q66 0 133 12q-24 -115 -24 -487q0 -54 1 -86.5
t5 -76.5t12 -70t23 -54.5t36.5 -44t53.5 -25.5t74 -10q217 0 217 369q0 351 -15 485q74 -12 119 -12q55 0 139 12q-20 -303 -20 -549z" />
    <glyph glyph-name="paragraph" unicode="&#xb6;" horiz-adv-x="1228" 
d="M1143 1282h-103v-1698h-153v1698h-230v-1698h-153v873q-203 15 -312.5 138.5t-109.5 330.5q0 62 13 122.5t50 127t94 115.5t153.5 81.5t219.5 32.5h531v-123z" />
    <glyph glyph-name="periodcentered" unicode="&#xb7;" 
d="M121 627q0 59 42 102t103 43q59 0 102.5 -43.5t43.5 -101.5q0 -59 -44 -102.5t-102 -43.5q-61 0 -103 43.5t-42 102.5z" />
    <glyph glyph-name="cedilla" unicode="&#xb8;" 
d="M227 0h86l-63 -131q24 8 59 8q77 0 131 -33.5t54 -105.5q0 -45 -18.5 -79t-45.5 -53t-65.5 -30t-71 -14.5t-68.5 -3.5q-117 0 -182 32l33 72q73 -24 129 -24q16 0 32 2.5t36 10t32 25t12 43.5q0 41 -30.5 58.5t-73.5 17.5q-17 0 -49 -8l-25 16z" />
    <glyph glyph-name="onesuperior" unicode="&#xb9;" horiz-adv-x="696" 
d="M469 883q0 -212 10 -322q-72 8 -92 8q-18 0 -54.5 -3.5t-45.5 -4.5q11 92 13.5 162.5t2.5 306.5v219q-104 -52 -190 -102q-13 15 -60 59v19q99 35 262 108q51 23 142 74l26 -12q-14 -119 -14 -512z" />
    <glyph glyph-name="ordmasculine" unicode="&#xba;" horiz-adv-x="790" 
d="M735 1077q0 -142 -91 -223.5t-249 -81.5q-156 0 -248 81.5t-92 223.5q0 141 92.5 224t247.5 83q160 0 250 -79t90 -228zM233 1079q0 -33 3.5 -63t14 -65t27.5 -60.5t47 -42.5t70 -17t70 17t47 42t27.5 60t14 65t3.5 62q0 43 -6.5 81t-22 78.5t-50 64.5t-83.5 24
t-83.5 -24.5t-50 -65t-22 -78t-6.5 -78.5z" />
    <glyph glyph-name="guillemotright" unicode="&#xbb;" horiz-adv-x="909" 
d="M414 592l59 -90q-64 -79 -146.5 -202t-115.5 -177q-43 36 -109 82q50 61 220 297q-143 237 -220 323q55 32 115 80q30 -57 197 -313zM750 592l59 -90q-160 -206 -260 -379q-37 30 -109 82q1 2 49 67.5t102 139t66 90.5q-128 216 -217 323q65 38 113 80q33 -62 197 -313z
" />
    <glyph glyph-name="onequarter" unicode="&#xbc;" horiz-adv-x="1730" 
d="M1411 322v327l-248 -327h248zM1178 455l190 250q17 22 35 45.5t24 31.5t12.5 18t12.5 21q28 -8 68 -8q23 0 59 8q-8 -164 -8 -499q40 0 112 2q-8 -36 -8 -62q0 -22 8 -55q-21 0 -57.5 1t-54.5 1q0 -143 8 -209q-66 8 -82 8q-17 0 -48.5 -3.5t-47.5 -4.5q10 63 10 209
q-88 2 -219 2q-71 0 -141 -4v80q0 4 5.5 11.5t15 19t13.5 16.5q31 39 93 121zM1237 1425h98l-819 -1468h-98zM469 883q0 -212 10 -322q-72 8 -92 8q-18 0 -54.5 -3.5t-45.5 -4.5q11 92 13.5 162.5t2.5 306.5v219q-104 -52 -190 -102q-13 15 -60 59v19q99 35 262 108
q51 23 142 74l26 -12q-14 -119 -14 -512z" />
    <glyph glyph-name="onehalf" unicode="&#xbd;" horiz-adv-x="1730" 
d="M1227 1425h98l-819 -1468h-98zM1075 0v49q174 147 262 254q115 143 115 279q0 46 -10 82.5t-40 65t-79 28.5q-67 0 -103 -42.5t-44 -113.5l-17 -12l-82 78q38 82 103.5 121.5t175.5 39.5q52 0 98.5 -11t89 -35.5t67.5 -69.5t25 -107q0 -76 -29 -133.5t-110 -138.5
q-30 -30 -114.5 -107.5t-106.5 -93.5q327 0 393 8q-6 -27 -6 -78q0 -31 4 -63q-211 8 -295 8q-117 0 -297 -8zM469 883q0 -212 10 -322q-72 8 -92 8q-18 0 -54.5 -3.5t-45.5 -4.5q11 92 13.5 162.5t2.5 306.5v219q-104 -52 -190 -102q-13 15 -60 59v19q99 35 262 108
q51 23 142 74l26 -12q-14 -119 -14 -512z" />
    <glyph glyph-name="threequarters" unicode="&#xbe;" horiz-adv-x="1730" 
d="M1411 322v327l-248 -327h248zM1178 455l190 250q17 22 35 45.5t24 31.5t12.5 18t12.5 21q28 -8 68 -8q23 0 59 8q-8 -164 -8 -499q40 0 112 2q-8 -36 -8 -62q0 -22 8 -55q-21 0 -57.5 1t-54.5 1q0 -143 8 -209q-66 8 -82 8q-17 0 -48.5 -3.5t-47.5 -4.5q10 63 10 209
q-88 2 -219 2q-71 0 -141 -4v80q0 4 5.5 11.5t15 19t13.5 16.5q31 39 93 121zM1247 1425h99l-820 -1468h-98zM641 786q0 -62 -31.5 -111t-83 -78.5t-111.5 -44.5t-122 -15q-155 0 -248 79q26 36 57 109h27q2 -13 12 -31t29 -39.5t54 -36t79 -14.5q68 0 112 46.5t44 127.5
q0 71 -37.5 119.5t-116.5 48.5q-15 0 -78 -10q6 12 6 39t-6 51q24 -8 52 -8q67 0 107 41t40 115q0 69 -35.5 102t-91.5 33q-125 0 -145 -138h-25q-10 21 -21.5 35t-46.5 51q81 119 269 119q124 0 196 -46t72 -134q0 -82 -46.5 -130.5t-139.5 -72.5q-11 -3 -11 -4q0 -4 15 -4
q98 -5 161.5 -53t63.5 -146z" />
    <glyph glyph-name="questiondown" unicode="&#xbf;" horiz-adv-x="757" 
d="M217 487l23 76q34 13 53.5 17t56.5 4q124 0 191 -66t67 -168q0 -30 -3 -49.5t-17 -56.5t-51 -85t-97 -108l-71 -71q-78 -78 -78 -158q0 -44 17 -75t45 -46.5t55.5 -22t56.5 -6.5q109 0 164 109h18l15 -121q-36 -24 -60.5 -37t-76.5 -27t-113 -14q-145 0 -244.5 81
t-99.5 202q0 54 12 98t43.5 89t54 70.5t76.5 80.5q105 108 129.5 141.5t24.5 73.5t-28 67t-69 27q-30 0 -90 -29zM274 848q0 59 42.5 102t103.5 43q58 0 101.5 -43.5t43.5 -101.5q0 -59 -43.5 -102.5t-101.5 -43.5q-61 0 -103.5 43.5t-42.5 102.5z" />
    <glyph glyph-name="Agrave" unicode="&#xc0;" horiz-adv-x="1327" 
d="M1024 0l-86 227l-86 217q-198 9 -262 9q-62 0 -246 -9q-119 -286 -164 -444q-81 12 -98 12q-16 0 -31.5 -2t-33.5 -5.5t-27 -4.5l237 528q129 288 184.5 414.5t111.5 264.5t79 218q38 -10 68 -10q27 0 65 10q98 -282 295 -739q221 -504 305 -686l-40 4t-62 5.5t-57 2.5
q-33 0 -88.5 -6t-63.5 -6zM793 571l-193 504l-209 -504q25 -1 98.5 -4.5t114.5 -3.5q63 0 189 8zM557 1788l289 -311h-105l-333 206q-43 27 -43 76q0 40 30.5 62t59.5 22q23 0 43.5 -9.5t30 -18t28.5 -27.5z" />
    <glyph glyph-name="Aacute" unicode="&#xc1;" horiz-adv-x="1327" 
d="M1024 0l-86 227l-86 217q-198 9 -262 9q-62 0 -246 -9q-119 -286 -164 -444q-81 12 -98 12q-16 0 -31.5 -2t-33.5 -5.5t-27 -4.5l237 528q129 288 184.5 414.5t111.5 264.5t79 218q38 -10 68 -10q27 0 65 10q98 -282 295 -739q221 -504 305 -686l-40 4t-62 5.5t-57 2.5
q-33 0 -88.5 -6t-63.5 -6zM793 571l-193 504l-209 -504q25 -1 98.5 -4.5t114.5 -3.5q63 0 189 8zM944 1702l-336 -207h-104l289 311q52 56 98 56q40 0 68 -23.5t28 -60.5q0 -45 -43 -76z" />
    <glyph glyph-name="Acircumflex" unicode="&#xc2;" horiz-adv-x="1327" 
d="M1024 0l-86 227l-86 217q-198 9 -262 9q-62 0 -246 -9q-119 -286 -164 -444q-81 12 -98 12q-16 0 -31.5 -2t-33.5 -5.5t-27 -4.5l237 528q129 288 184.5 414.5t111.5 264.5t79 218q38 -10 68 -10q27 0 65 10q98 -282 295 -739q221 -504 305 -686l-40 4t-62 5.5t-57 2.5
q-33 0 -88.5 -6t-63.5 -6zM793 571l-193 504l-209 -504q25 -1 98.5 -4.5t114.5 -3.5q63 0 189 8zM745 1829l254 -352h-102l-231 204l-234 -204h-100l252 352h161z" />
    <glyph glyph-name="Atilde" unicode="&#xc3;" horiz-adv-x="1327" 
d="M1024 0l-86 227l-86 217q-198 9 -262 9q-62 0 -246 -9q-119 -286 -164 -444q-81 12 -98 12q-16 0 -31.5 -2t-33.5 -5.5t-27 -4.5l237 528q129 288 184.5 414.5t111.5 264.5t79 218q38 -10 68 -10q27 0 65 10q98 -282 295 -739q221 -504 305 -686l-40 4t-62 5.5t-57 2.5
q-33 0 -88.5 -6t-63.5 -6zM793 571l-193 504l-209 -504q25 -1 98.5 -4.5t114.5 -3.5q63 0 189 8zM954 1753h74q-7 -29 -13.5 -49t-25 -57.5t-40.5 -61t-61 -42.5t-87 -19q-52 0 -115 22t-114 44t-74 22q-76 0 -107 -90h-74q7 24 11.5 37t16 40.5t22 44.5t29 39.5t38.5 35.5
t48.5 22.5t60.5 9.5q45 0 159 -43q108 -45 144 -45q27 0 47.5 9t32.5 25.5t17.5 27.5t10.5 28z" />
    <glyph glyph-name="Adieresis" unicode="&#xc4;" horiz-adv-x="1327" 
d="M1024 0l-86 227l-86 217q-198 9 -262 9q-62 0 -246 -9q-119 -286 -164 -444q-81 12 -98 12q-16 0 -31.5 -2t-33.5 -5.5t-27 -4.5l237 528q129 288 184.5 414.5t111.5 264.5t79 218q38 -10 68 -10q27 0 65 10q98 -282 295 -739q221 -504 305 -686l-40 4t-62 5.5t-57 2.5
q-33 0 -88.5 -6t-63.5 -6zM793 571l-193 504l-209 -504q25 -1 98.5 -4.5t114.5 -3.5q63 0 189 8zM995 1618q0 -48 -35.5 -84.5t-85.5 -36.5q-51 0 -85.5 35.5t-34.5 85.5q0 51 34.5 86t85.5 35t86 -35.5t35 -85.5zM575 1618q0 -48 -35 -84.5t-85 -36.5q-51 0 -86 35.5
t-35 85.5q0 51 35 86t86 35t85.5 -35.5t34.5 -85.5z" />
    <glyph glyph-name="Aring" unicode="&#xc5;" horiz-adv-x="1327" 
d="M1024 0l-86 227l-86 217q-198 9 -262 9q-62 0 -246 -9q-119 -286 -164 -444q-81 12 -98 12q-16 0 -31.5 -2t-33.5 -5.5t-27 -4.5l237 528q129 288 184.5 414.5t111.5 264.5t79 218q38 -10 68 -10q27 0 65 10q98 -282 295 -739q221 -504 305 -686l-40 4t-62 5.5t-57 2.5
q-33 0 -88.5 -6t-63.5 -6zM793 571l-193 504l-209 -504q25 -1 98.5 -4.5t114.5 -3.5q63 0 189 8zM874 1671q0 -86 -62.5 -148.5t-147.5 -62.5q-87 0 -149 63t-62 148q0 84 62 147.5t149 63.5q85 0 147.5 -63t62.5 -148zM788 1671q0 50 -37.5 87.5t-86.5 37.5
q-51 0 -88 -37.5t-37 -87.5q0 -52 37.5 -88.5t87.5 -36.5t87 36.5t37 88.5z" />
    <glyph glyph-name="AE" unicode="&#xc6;" horiz-adv-x="1744" 
d="M1167 682v-555q189 0 490 14q-10 -22 -10 -67t10 -74q-185 12 -369 12q-196 0 -387 -12l8 217q6 210 6 225q-92 9 -241 9q-117 0 -252 -9q-23 -29 -76.5 -114t-71.5 -117q-61 -101 -118 -211q-74 12 -111 12q-20 0 -56 -5.5t-52 -6.5q20 19 83.5 107.5t156.5 224
t112 162.5q153 221 332 491q23 35 42.5 64.5t34.5 52t30.5 47.5t23.5 37.5t23 37.5t19 31.5t19.5 34.5t18 32.5t22 40t23.5 42.5q204 -12 383 -12q67 0 385 12q-11 -46 -11 -66q0 -46 11 -75l-193 10q-76 4 -285 4v-481q316 0 443 14q-11 -42 -11 -74q0 -43 11 -69
q-105 8 -158 10q-188 4 -285 4zM915 567l5 668q-4 -8 -183 -291l-192 -303q-3 -5 -20.5 -32.5t-26.5 -41.5q112 -8 213 -8q113 0 204 8z" />
    <glyph glyph-name="Ccedilla" unicode="&#xc7;" horiz-adv-x="1441" 
d="M698 -197l78 172q-141 9 -262.5 59.5t-213 137.5t-144 218t-52.5 290q0 157 49 290t144.5 234.5t250.5 159t355 57.5q253 0 479 -102l-61 -201h-21q-12 24 -22 40t-41.5 48t-69.5 52t-106 36.5t-152 16.5q-254 0 -389 -160t-135 -453q0 -262 125 -428q143 -186 371 -186
q73 0 137.5 14.5t111 35.5t91 54.5t73 62t60.5 66.5l22 -14l-22 -203q-227 -124 -494 -127l-51 -104q24 8 59 8q77 0 131 -33.5t54 -105.5q0 -45 -18.5 -79t-45.5 -53t-65.5 -30t-71 -14.5t-68.5 -3.5q-117 0 -182 32l33 72q73 -24 129 -24q24 0 45.5 4t44.5 23.5t23 53.5
q0 41 -31 58.5t-74 17.5q-17 0 -49 -8z" />
    <glyph glyph-name="Egrave" unicode="&#xc8;" horiz-adv-x="1024" 
d="M440 1278v-481q316 0 443 14q-11 -42 -11 -74q0 -43 11 -69q-105 8 -158 10q-188 4 -285 4v-555q186 0 490 14q-10 -23 -10 -67q0 -45 10 -74q-184 12 -377 12q-186 0 -383 -12q8 174 10 256q8 238 8 463q0 422 -18 686q200 -12 371 -12q53 0 188.5 5.5t188.5 6.5
q-11 -46 -11 -66q0 -46 11 -75l-193 10q-76 4 -285 4zM385 1788l289 -311h-105l-333 206q-43 27 -43 76q0 40 30.5 62t59.5 22q23 0 43.5 -9.5t30 -18t28.5 -27.5z" />
    <glyph glyph-name="Eacute" unicode="&#xc9;" horiz-adv-x="1024" 
d="M440 1278v-481q316 0 443 14q-11 -42 -11 -74q0 -43 11 -69q-105 8 -158 10q-188 4 -285 4v-555q186 0 490 14q-10 -23 -10 -67q0 -45 10 -74q-184 12 -377 12q-186 0 -383 -12q8 174 10 256q8 238 8 463q0 422 -18 686q200 -12 371 -12q53 0 188.5 5.5t188.5 6.5
q-11 -46 -11 -66q0 -46 11 -75l-193 10q-76 4 -285 4zM854 1702l-336 -207h-104l288 311q52 56 99 56q40 0 68 -23.5t28 -60.5q0 -45 -43 -76z" />
    <glyph glyph-name="Ecircumflex" unicode="&#xca;" horiz-adv-x="1024" 
d="M440 1278v-481q316 0 443 14q-11 -42 -11 -74q0 -43 11 -69q-105 8 -158 10q-188 4 -285 4v-555q186 0 490 14q-10 -23 -10 -67q0 -45 10 -74q-184 12 -377 12q-186 0 -383 -12q8 174 10 256q8 238 8 463q0 422 -18 686q200 -12 371 -12q53 0 188.5 5.5t188.5 6.5
q-11 -46 -11 -66q0 -46 11 -75l-193 10q-76 4 -285 4zM625 1829l254 -352h-103l-231 204l-234 -204h-100l252 352h162z" />
    <glyph glyph-name="Edieresis" unicode="&#xcb;" horiz-adv-x="1024" 
d="M440 1278v-481q316 0 443 14q-11 -42 -11 -74q0 -43 11 -69q-105 8 -158 10q-188 4 -285 4v-555q186 0 490 14q-10 -23 -10 -67q0 -45 10 -74q-184 12 -377 12q-186 0 -383 -12q8 174 10 256q8 238 8 463q0 422 -18 686q200 -12 371 -12q53 0 188.5 5.5t188.5 6.5
q-11 -46 -11 -66q0 -46 11 -75l-193 10q-76 4 -285 4zM864 1618q0 -48 -35.5 -84.5t-85.5 -36.5q-51 0 -85.5 35.5t-34.5 85.5q0 51 34.5 86t85.5 35t86 -35.5t35 -85.5zM444 1618q0 -48 -35 -84.5t-85 -36.5q-51 0 -86 35.5t-35 85.5q0 51 35 86t86 35t85.5 -35.5
t34.5 -85.5z" />
    <glyph glyph-name="Igrave" unicode="&#xcc;" horiz-adv-x="645" 
d="M199 932q0 264 -21 473q117 -12 146 -12q47 0 145 12q-23 -152 -23 -713q0 -474 21 -692q-20 1 -68.5 6.5t-74.5 5.5q-25 0 -77.5 -5.5t-70.5 -6.5q23 244 23 932zM195 1788l288 -311h-104l-334 206q-43 27 -43 76q0 40 30.5 62t59.5 22q23 0 43.5 -9.5t30.5 -18
t29 -27.5z" />
    <glyph glyph-name="Iacute" unicode="&#xcd;" horiz-adv-x="645" 
d="M199 932q0 264 -21 473q117 -12 146 -12q47 0 145 12q-23 -152 -23 -713q0 -474 21 -692q-20 1 -68.5 6.5t-74.5 5.5q-25 0 -77.5 -5.5t-70.5 -6.5q23 244 23 932zM602 1702l-336 -207h-104l289 311q52 56 98 56q40 0 68 -23.5t28 -60.5q0 -45 -43 -76z" />
    <glyph glyph-name="Icircumflex" unicode="&#xce;" horiz-adv-x="645" 
d="M199 932q0 264 -21 473q117 -12 146 -12q47 0 145 12q-23 -152 -23 -713q0 -474 21 -692q-20 1 -68.5 6.5t-74.5 5.5q-25 0 -77.5 -5.5t-70.5 -6.5q23 244 23 932zM403 1829l254 -352h-102l-231 204l-234 -204h-100l252 352h161z" />
    <glyph glyph-name="Idieresis" unicode="&#xcf;" horiz-adv-x="645" 
d="M199 932q0 264 -21 473q117 -12 146 -12q47 0 145 12q-23 -152 -23 -713q0 -474 21 -692q-20 1 -68.5 6.5t-74.5 5.5q-25 0 -77.5 -5.5t-70.5 -6.5q23 244 23 932zM653 1618q0 -48 -35.5 -84.5t-85.5 -36.5q-51 0 -85.5 35.5t-34.5 85.5q0 51 34.5 86t85.5 35t86 -35.5
t35 -85.5zM233 1618q0 -48 -35 -84.5t-85 -36.5q-51 0 -86 35.5t-35 85.5q0 51 35 86t86 35t85.5 -35.5t34.5 -85.5z" />
    <glyph glyph-name="Eth" unicode="&#xd0;" horiz-adv-x="1593" 
d="M170 0l12 399q0 39 1 140t1 163q-28 0 -170 -10q6 38 6 72q0 30 -6 65q101 -12 170 -12q0 232 -4 322q0 79 -10 264q137 -10 168 -10q54 0 172.5 5t181.5 5q81 0 140 -4t138.5 -16.5t151 -43t131.5 -77.5q117 -91 176.5 -224.5t59.5 -294.5q0 -214 -79 -373t-226 -253
q-102 -66 -206.5 -91.5t-238.5 -25.5q-63 0 -189 5t-188 5q-34 0 -192 -10zM786 696l-98 2q-168 4 -252 4q0 -347 10 -583q225 -10 279 -10q32 0 69.5 7t85 25.5t92.5 48t88.5 79t75.5 112t52 154.5t20 200q0 84 -16 160t-56 151t-100.5 129t-158 87.5t-220.5 33.5
q-94 0 -211 -10q-10 -205 -10 -248v-221q153 2 350 17q-1 -8 -2.5 -21.5t-2.5 -25t-1 -21.5q0 -13 2.5 -37.5t3.5 -32.5z" />
    <glyph glyph-name="Ntilde" unicode="&#xd1;" horiz-adv-x="1554" 
d="M184 551v278q0 196 -4 576q32 -4 49 -4q15 0 47 4q293 -323 625 -647l242 -238q33 -31 102 -88v455q0 230 -24 518q50 -12 88 -12q36 0 86 12q-23 -317 -23 -692q0 -61 1 -265t1 -255q0 -22 1 -99.5t1 -103.5q-28 4 -41 4q-15 0 -43 -4q-188 204 -499 515t-482 468
q0 -320 6 -645q2 -94 19 -328q-7 1 -41 6.5t-51 5.5q-32 0 -82 -12l16 285q6 82 6 266zM1067 1753h74q-58 -229 -228 -229q-52 0 -115 22t-114 44t-74 22q-75 0 -106 -90h-74q11 34 17.5 53.5t26.5 57.5t41.5 60t58.5 40t81 18q46 0 160 -43q108 -45 143 -45q27 0 48 9
t33 25.5t17.5 28t10.5 27.5z" />
    <glyph glyph-name="Ograve" unicode="&#xd2;" horiz-adv-x="1744" 
d="M389 696q0 -95 16 -182t53 -168t91.5 -140t137.5 -94.5t185 -35.5q101 0 183.5 36.5t137.5 97t92.5 142t54 167.5t16.5 177q0 104 -15.5 193.5t-52 169t-91.5 136t-137.5 89.5t-187.5 33q-102 0 -185 -38t-137.5 -99.5t-91.5 -143.5t-53 -167t-16 -173zM879 1421
q118 0 226 -25t205.5 -80t169.5 -135.5t114 -198.5t42 -261q0 -226 -96 -396.5t-269 -262t-399 -91.5q-160 0 -299 47t-242.5 134.5t-162.5 221.5t-59 298q0 152 40.5 277t111 211.5t168.5 146t211 87t239 27.5zM745 1788l289 -311h-104l-334 206q-43 27 -43 76
q0 40 30.5 62t59.5 22q23 0 43.5 -9.5t30 -18t28.5 -27.5z" />
    <glyph glyph-name="Oacute" unicode="&#xd3;" horiz-adv-x="1744" 
d="M389 696q0 -95 16 -182t53 -168t91.5 -140t137.5 -94.5t185 -35.5q101 0 183.5 36.5t137.5 97t92.5 142t54 167.5t16.5 177q0 104 -15.5 193.5t-52 169t-91.5 136t-137.5 89.5t-187.5 33q-102 0 -185 -38t-137.5 -99.5t-91.5 -143.5t-53 -167t-16 -173zM879 1421
q118 0 226 -25t205.5 -80t169.5 -135.5t114 -198.5t42 -261q0 -226 -96 -396.5t-269 -262t-399 -91.5q-160 0 -299 47t-242.5 134.5t-162.5 221.5t-59 298q0 152 40.5 277t111 211.5t168.5 146t211 87t239 27.5zM1153 1702l-336 -207h-104l288 311q52 56 99 56
q40 0 68 -23.5t28 -60.5q0 -45 -43 -76z" />
    <glyph glyph-name="Ocircumflex" unicode="&#xd4;" horiz-adv-x="1744" 
d="M389 696q0 -95 16 -182t53 -168t91.5 -140t137.5 -94.5t185 -35.5q101 0 183.5 36.5t137.5 97t92.5 142t54 167.5t16.5 177q0 104 -15.5 193.5t-52 169t-91.5 136t-137.5 89.5t-187.5 33q-102 0 -185 -38t-137.5 -99.5t-91.5 -143.5t-53 -167t-16 -173zM879 1421
q118 0 226 -25t205.5 -80t169.5 -135.5t114 -198.5t42 -261q0 -226 -96 -396.5t-269 -262t-399 -91.5q-160 0 -299 47t-242.5 134.5t-162.5 221.5t-59 298q0 152 40.5 277t111 211.5t168.5 146t211 87t239 27.5zM954 1829l254 -352h-102l-232 204l-233 -204h-100l252 352
h161z" />
    <glyph glyph-name="Otilde" unicode="&#xd5;" horiz-adv-x="1744" 
d="M389 696q0 -95 16 -182t53 -168t91.5 -140t137.5 -94.5t185 -35.5q101 0 183.5 36.5t137.5 97t92.5 142t54 167.5t16.5 177q0 104 -15.5 193.5t-52 169t-91.5 136t-137.5 89.5t-187.5 33q-102 0 -185 -38t-137.5 -99.5t-91.5 -143.5t-53 -167t-16 -173zM879 1421
q118 0 226 -25t205.5 -80t169.5 -135.5t114 -198.5t42 -261q0 -226 -96 -396.5t-269 -262t-399 -91.5q-160 0 -299 47t-242.5 134.5t-162.5 221.5t-59 298q0 152 40.5 277t111 211.5t168.5 146t211 87t239 27.5zM1163 1753h74q-7 -29 -13.5 -49t-25 -57.5t-40.5 -61
t-61 -42.5t-87 -19q-52 0 -115 22t-114 44t-74 22q-76 0 -107 -90h-74q7 24 11.5 37t16 40.5t22 44.5t29 39.5t38.5 35.5t48.5 22.5t60.5 9.5q45 0 159 -43q108 -45 144 -45q27 0 47.5 9t32.5 25.5t17.5 27.5t10.5 28z" />
    <glyph glyph-name="Odieresis" unicode="&#xd6;" horiz-adv-x="1744" 
d="M389 696q0 -95 16 -182t53 -168t91.5 -140t137.5 -94.5t185 -35.5q101 0 183.5 36.5t137.5 97t92.5 142t54 167.5t16.5 177q0 104 -15.5 193.5t-52 169t-91.5 136t-137.5 89.5t-187.5 33q-102 0 -185 -38t-137.5 -99.5t-91.5 -143.5t-53 -167t-16 -173zM879 1421
q118 0 226 -25t205.5 -80t169.5 -135.5t114 -198.5t42 -261q0 -226 -96 -396.5t-269 -262t-399 -91.5q-160 0 -299 47t-242.5 134.5t-162.5 221.5t-59 298q0 152 40.5 277t111 211.5t168.5 146t211 87t239 27.5zM1204 1618q0 -48 -35.5 -84.5t-85.5 -36.5q-51 0 -85.5 35.5
t-34.5 85.5q0 51 34.5 86t85.5 35t86 -35.5t35 -85.5zM784 1618q0 -48 -35 -84.5t-85 -36.5q-51 0 -86 35.5t-35 85.5q0 51 35 86t86 35t85.5 -35.5t34.5 -85.5z" />
    <glyph glyph-name="multiply" unicode="&#xd7;" horiz-adv-x="1366" 
d="M588 627l-420 417l94 95l420 -420l418 420l94 -95l-420 -417l420 -420l-94 -96l-418 419l-420 -419l-94 96z" />
    <glyph glyph-name="Oslash" unicode="&#xd8;" horiz-adv-x="1744" 
d="M403 94l-227 -256q-22 25 -36.5 37t-49.5 33q113 119 232 250l-21 20q-61 61 -103 133t-61 140t-26 119.5t-7 101.5q0 152 40.5 277t111 211.5t168.5 146t211 87t239 27.5q272 0 465 -125l209 246q14 -22 29 -36t55 -40q-111 -115 -215 -229q215 -185 215 -516
q0 -226 -96 -396.5t-269 -262t-399 -91.5q-285 0 -465 123zM1221 1161q-129 156 -351 156q-67 0 -131 -18t-129.5 -64.5t-114 -118t-79.5 -188.5t-31 -266q0 -190 82 -347q292 321 754 846zM1274 1081q-206 -230 -750 -850q128 -155 348 -155q90 0 164 27.5t125.5 76.5
t89.5 112t59.5 139.5t31.5 152.5t10 157q0 196 -78 340z" />
    <glyph glyph-name="Ugrave" unicode="&#xd9;" horiz-adv-x="1478" 
d="M432 1405l-6 -156q-6 -156 -6 -528q0 -255 10 -338t53 -141q44 -60 125.5 -92.5t188.5 -32.5q123 0 215.5 58t126.5 153q26 73 26 276q0 502 -18 801q9 -1 27.5 -4.5t34 -5.5t30.5 -2t31 2t35.5 5.5t29.5 4.5l-6 -98q-7 -119 -20 -805q-2 -119 -27 -203t-68 -137.5
t-114 -98.5q-68 -43 -161.5 -65.5t-182.5 -22.5q-79 0 -151.5 10.5t-147.5 38t-132.5 70.5t-99.5 114t-55 163q-4 29 -4 108v557q0 196 -10 369q94 -12 143 -12q51 0 133 12zM612 1788l289 -311h-104l-334 206q-43 27 -43 76q0 40 30.5 62t59.5 22q23 0 43.5 -9.5t30 -18
t28.5 -27.5z" />
    <glyph glyph-name="Uacute" unicode="&#xda;" horiz-adv-x="1478" 
d="M432 1405l-6 -156q-6 -156 -6 -528q0 -255 10 -338t53 -141q44 -60 125.5 -92.5t188.5 -32.5q123 0 215.5 58t126.5 153q26 73 26 276q0 502 -18 801q9 -1 27.5 -4.5t34 -5.5t30.5 -2t31 2t35.5 5.5t29.5 4.5l-6 -98q-7 -119 -20 -805q-2 -119 -27 -203t-68 -137.5
t-114 -98.5q-68 -43 -161.5 -65.5t-182.5 -22.5q-79 0 -151.5 10.5t-147.5 38t-132.5 70.5t-99.5 114t-55 163q-4 29 -4 108v557q0 196 -10 369q94 -12 143 -12q51 0 133 12zM1081 1702l-336 -207h-104l289 311q52 56 98 56q40 0 68 -23.5t28 -60.5q0 -45 -43 -76z" />
    <glyph glyph-name="Ucircumflex" unicode="&#xdb;" horiz-adv-x="1478" 
d="M432 1405l-6 -156q-6 -156 -6 -528q0 -255 10 -338t53 -141q44 -60 125.5 -92.5t188.5 -32.5q123 0 215.5 58t126.5 153q26 73 26 276q0 502 -18 801q9 -1 27.5 -4.5t34 -5.5t30.5 -2t31 2t35.5 5.5t29.5 4.5l-6 -98q-7 -119 -20 -805q-2 -119 -27 -203t-68 -137.5
t-114 -98.5q-68 -43 -161.5 -65.5t-182.5 -22.5q-79 0 -151.5 10.5t-147.5 38t-132.5 70.5t-99.5 114t-55 163q-4 29 -4 108v557q0 196 -10 369q94 -12 143 -12q51 0 133 12zM852 1829l254 -352h-102l-232 204l-233 -204h-101l252 352h162z" />
    <glyph glyph-name="Udieresis" unicode="&#xdc;" horiz-adv-x="1478" 
d="M432 1405l-6 -156q-6 -156 -6 -528q0 -255 10 -338t53 -141q44 -60 125.5 -92.5t188.5 -32.5q123 0 215.5 58t126.5 153q26 73 26 276q0 502 -18 801q9 -1 27.5 -4.5t34 -5.5t30.5 -2t31 2t35.5 5.5t29.5 4.5l-6 -98q-7 -119 -20 -805q-2 -119 -27 -203t-68 -137.5
t-114 -98.5q-68 -43 -161.5 -65.5t-182.5 -22.5q-79 0 -151.5 10.5t-147.5 38t-132.5 70.5t-99.5 114t-55 163q-4 29 -4 108v557q0 196 -10 369q94 -12 143 -12q51 0 133 12zM1092 1618q0 -48 -35.5 -84.5t-85.5 -36.5q-51 0 -86 35.5t-35 85.5q0 51 35 86t86 35t86 -35.5
t35 -85.5zM672 1618q0 -48 -35.5 -84.5t-85.5 -36.5q-51 0 -86 35.5t-35 85.5q0 51 35 86t86 35t86 -35.5t35 -85.5z" />
    <glyph glyph-name="Yacute" unicode="&#xdd;" horiz-adv-x="1214" 
d="M731 549v-76q0 -141 14 -473q-16 1 -44.5 4.5t-52 5.5t-44.5 2q-20 0 -137 -12q12 320 12 555l-121 209q-60 104 -207.5 347t-177.5 294q114 -12 168 -12q97 0 168 12q91 -193 165 -337t194 -355q126 217 182.5 328t171.5 364q66 -12 119 -12q51 0 86 12
q-44 -78 -211 -342q-53 -85 -142.5 -245t-115.5 -204q-27 -48 -27 -65zM948 1702l-336 -207h-104l289 311q52 56 98 56q40 0 68 -23.5t28 -60.5q0 -45 -43 -76z" />
    <glyph glyph-name="Thorn" unicode="&#xde;" horiz-adv-x="1175" 
d="M190 1147l-10 258q15 -1 44.5 -4.5t54 -5.5t49.5 -2q47 0 133 12q-15 -92 -15 -313q99 6 201 6q103 0 177.5 -15t140.5 -63q139 -102 139 -289q0 -62 -15.5 -119t-53 -112.5t-94.5 -96t-148 -65.5t-205 -25q-36 0 -142 9v-97q0 -39 2.5 -80.5t7 -86t5.5 -58.5
q-71 12 -144 12t-141 -12q14 230 14 295l5 502q0 245 -5 350zM446 989v-567q74 -8 109 -8q65 0 117 21.5t82.5 54t50.5 75t27.5 80.5t7.5 74q0 120 -63 199t-179 79q-62 0 -152 -8z" />
    <glyph glyph-name="germandbls" unicode="&#xdf;" horiz-adv-x="1175" 
d="M137 0l4 186q11 276 11 600q0 25 -1 111.5t-1 108.5q0 55 0.5 81t3 66.5t8.5 63.5t16.5 53t27 55t40.5 51q64 70 156.5 109t201.5 39q152 0 239 -67.5t87 -190.5q0 -40 -8.5 -74.5t-19.5 -57t-34.5 -49t-38.5 -39.5t-47 -40q-68 -57 -87 -78t-19 -39q0 -19 14.5 -37
t77.5 -70q11 -9 74 -54.5t73 -53.5q58 -46 92.5 -81t61.5 -89t27 -115q0 -98 -54 -191t-151.5 -153.5t-212.5 -60.5q-65 0 -123 18.5t-90 36.5q25 56 35 86.5t22 91.5h33q14 -66 65.5 -101.5t110.5 -35.5q75 0 129.5 48t54.5 136q0 34 -12.5 66t-29 56.5t-52 56.5t-63.5 53
t-80 59q-60 42 -86.5 63t-55.5 50t-39 55.5t-10 60.5q0 38 17 66t74 82q66 61 95 93.5t48.5 82t19.5 117.5q0 23 -2.5 45t-12.5 55t-27 56.5t-50 41t-78 17.5q-134 0 -168 -131q-12 -43 -17.5 -96t-6 -99.5t-0.5 -179.5l2 -555q0 -228 10 -379q-77 10 -121 10
q-21 0 -133 -10z" />
    <glyph glyph-name="agrave" unicode="&#xe0;" horiz-adv-x="1024" 
d="M403 541l70 18q92 25 116.5 34.5t31.5 22.5q8 16 8 41q0 111 -54.5 164t-144.5 53q-55 0 -98 -15t-67.5 -39.5t-37.5 -46.5t-18 -44q-20 4 -31 4q-13 0 -33 -4q11 71 11 100q0 38 -2 56q115 69 179.5 91.5t145.5 22.5q172 0 272.5 -78t100.5 -229q0 -39 -3 -178t-3 -172
q0 -161 11 -205.5t61 -44.5q19 0 57 17q-8 -24 -8 -37t8 -37q-119 -45 -174 -45q-43 0 -73 9t-48.5 30t-27.5 37.5t-21 48.5q-48 -64 -122 -102t-153 -38q-68 0 -120.5 18.5t-82 46t-48.5 63.5t-25 65t-6 57q0 37 5.5 69t13.5 56.5t24.5 46t30.5 36.5t40.5 30t44.5 24
t52.5 20t55.5 17t62 17zM623 295v213q-195 -51 -256.5 -90t-61.5 -142q0 -81 36.5 -128.5t98.5 -47.5q81 0 132 56.5t51 138.5zM385 1460l289 -311h-105l-333 207q-43 27 -43 76q0 40 30.5 62t59.5 22q23 0 43.5 -10t29.5 -18t29 -28z" />
    <glyph glyph-name="aacute" unicode="&#xe1;" horiz-adv-x="1024" 
d="M403 541l70 18q92 25 116.5 34.5t31.5 22.5q8 16 8 41q0 111 -54.5 164t-144.5 53q-55 0 -98 -15t-67.5 -39.5t-37.5 -46.5t-18 -44q-20 4 -31 4q-13 0 -33 -4q11 71 11 100q0 38 -2 56q115 69 179.5 91.5t145.5 22.5q172 0 272.5 -78t100.5 -229q0 -39 -3 -178t-3 -172
q0 -161 11 -205.5t61 -44.5q19 0 57 17q-8 -24 -8 -37t8 -37q-119 -45 -174 -45q-43 0 -73 9t-48.5 30t-27.5 37.5t-21 48.5q-48 -64 -122 -102t-153 -38q-68 0 -120.5 18.5t-82 46t-48.5 63.5t-25 65t-6 57q0 37 5.5 69t13.5 56.5t24.5 46t30.5 36.5t40.5 30t44.5 24
t52.5 20t55.5 17t62 17zM623 295v213q-195 -51 -256.5 -90t-61.5 -142q0 -81 36.5 -128.5t98.5 -47.5q81 0 132 56.5t51 138.5zM772 1374l-336 -207h-104l289 312q51 55 98 55q40 0 68 -23.5t28 -60.5q0 -45 -43 -76z" />
    <glyph glyph-name="acircumflex" unicode="&#xe2;" horiz-adv-x="1024" 
d="M403 541l70 18q92 25 116.5 34.5t31.5 22.5q8 16 8 41q0 111 -54.5 164t-144.5 53q-55 0 -98 -15t-67.5 -39.5t-37.5 -46.5t-18 -44q-20 4 -31 4q-13 0 -33 -4q11 71 11 100q0 38 -2 56q115 69 179.5 91.5t145.5 22.5q172 0 272.5 -78t100.5 -229q0 -39 -3 -178t-3 -172
q0 -161 11 -205.5t61 -44.5q19 0 57 17q-8 -24 -8 -37t8 -37q-119 -45 -174 -45q-43 0 -73 9t-48.5 30t-27.5 37.5t-21 48.5q-48 -64 -122 -102t-153 -38q-68 0 -120.5 18.5t-82 46t-48.5 63.5t-25 65t-6 57q0 37 5.5 69t13.5 56.5t24.5 46t30.5 36.5t40.5 30t44.5 24
t52.5 20t55.5 17t62 17zM623 295v213q-195 -51 -256.5 -90t-61.5 -142q0 -81 36.5 -128.5t98.5 -47.5q81 0 132 56.5t51 138.5zM594 1501l254 -352h-103l-231 205l-233 -205h-101l252 352h162z" />
    <glyph glyph-name="atilde" unicode="&#xe3;" horiz-adv-x="1024" 
d="M403 541l70 18q92 25 116.5 34.5t31.5 22.5q8 16 8 41q0 111 -54.5 164t-144.5 53q-55 0 -98 -15t-67.5 -39.5t-37.5 -46.5t-18 -44q-20 4 -31 4q-13 0 -33 -4q11 71 11 100q0 38 -2 56q115 69 179.5 91.5t145.5 22.5q172 0 272.5 -78t100.5 -229q0 -39 -3 -178t-3 -172
q0 -161 11 -205.5t61 -44.5q19 0 57 17q-8 -24 -8 -37t8 -37q-119 -45 -174 -45q-43 0 -73 9t-48.5 30t-27.5 37.5t-21 48.5q-48 -64 -122 -102t-153 -38q-68 0 -120.5 18.5t-82 46t-48.5 63.5t-25 65t-6 57q0 37 5.5 69t13.5 56.5t24.5 46t30.5 36.5t40.5 30t44.5 24
t52.5 20t55.5 17t62 17zM623 295v213q-195 -51 -256.5 -90t-61.5 -142q0 -81 36.5 -128.5t98.5 -47.5q81 0 132 56.5t51 138.5zM803 1425h74q-58 -229 -228 -229q-52 0 -115 22t-114 44t-74 22q-75 0 -106 -90h-74q11 34 17.5 53.5t26.5 57.5t41.5 60t58.5 40t81 18
q46 0 160 -43q108 -45 143 -45q27 0 48 9t33 25.5t17.5 28t10.5 27.5z" />
    <glyph glyph-name="adieresis" unicode="&#xe4;" horiz-adv-x="1024" 
d="M403 541l70 18q92 25 116.5 34.5t31.5 22.5q8 16 8 41q0 111 -54.5 164t-144.5 53q-55 0 -98 -15t-67.5 -39.5t-37.5 -46.5t-18 -44q-20 4 -31 4q-13 0 -33 -4q11 71 11 100q0 38 -2 56q115 69 179.5 91.5t145.5 22.5q172 0 272.5 -78t100.5 -229q0 -39 -3 -178t-3 -172
q0 -161 11 -205.5t61 -44.5q19 0 57 17q-8 -24 -8 -37t8 -37q-119 -45 -174 -45q-43 0 -73 9t-48.5 30t-27.5 37.5t-21 48.5q-48 -64 -122 -102t-153 -38q-68 0 -120.5 18.5t-82 46t-48.5 63.5t-25 65t-6 57q0 37 5.5 69t13.5 56.5t24.5 46t30.5 36.5t40.5 30t44.5 24
t52.5 20t55.5 17t62 17zM623 295v213q-195 -51 -256.5 -90t-61.5 -142q0 -81 36.5 -128.5t98.5 -47.5q81 0 132 56.5t51 138.5zM844 1290q0 -48 -35.5 -84.5t-85.5 -36.5q-51 0 -86 35.5t-35 85.5q0 51 35 86t86 35t86 -35.5t35 -85.5zM424 1290q0 -48 -35.5 -84.5
t-85.5 -36.5q-51 0 -86 35.5t-35 85.5q0 51 35 86t86 35t86 -35.5t35 -85.5z" />
    <glyph glyph-name="aring" unicode="&#xe5;" horiz-adv-x="1024" 
d="M403 541l70 18q92 25 116.5 34.5t31.5 22.5q8 16 8 41q0 111 -54.5 164t-144.5 53q-55 0 -98 -15t-67.5 -39.5t-37.5 -46.5t-18 -44q-20 4 -31 4q-13 0 -33 -4q11 71 11 100q0 38 -2 56q115 69 179.5 91.5t145.5 22.5q172 0 272.5 -78t100.5 -229q0 -39 -3 -178t-3 -172
q0 -161 11 -205.5t61 -44.5q19 0 57 17q-8 -24 -8 -37t8 -37q-119 -45 -174 -45q-43 0 -73 9t-48.5 30t-27.5 37.5t-21 48.5q-48 -64 -122 -102t-153 -38q-68 0 -120.5 18.5t-82 46t-48.5 63.5t-25 65t-6 57q0 37 5.5 69t13.5 56.5t24.5 46t30.5 36.5t40.5 30t44.5 24
t52.5 20t55.5 17t62 17zM623 295v213q-195 -51 -256.5 -90t-61.5 -142q0 -81 36.5 -128.5t98.5 -47.5q81 0 132 56.5t51 138.5zM713 1343q0 -86 -63 -148t-148 -62q-87 0 -149 62.5t-62 147.5q0 84 62 147.5t149 63.5q85 0 148 -63t63 -148zM627 1343q0 49 -37.5 87
t-87.5 38q-51 0 -88 -37.5t-37 -87.5q0 -52 37.5 -88t87.5 -36t87.5 36t37.5 88z" />
    <glyph glyph-name="ae" unicode="&#xe6;" horiz-adv-x="1630" 
d="M205 725h-58l13 59q4 28 4 43q0 24 -8 60q33 31 136 71.5t226 40.5q181 0 279 -102q69 53 139 76.5t174 23.5q139 0 243 -59t152 -176q37 -90 37 -281l-332 6q-108 2 -342 -4q0 -174 66 -266q88 -123 274 -123q139 0 277 127l20 -12q-20 -65 -28 -129
q-162 -109 -347 -109q-94 0 -171 23t-123.5 59t-72 66t-38.5 57q-1 -1 -7.5 -10.5t-8 -11.5t-8.5 -11t-10 -12.5t-10 -12t-12 -13.5l-13 -13t-15 -13.5t-16 -13t-19 -14.5q-109 -78 -237 -78q-114 0 -191 52q-104 65 -104 223q0 35 7 65.5t17 54t30.5 44.5t38 35.5t50 29
t55 23.5t64.5 20.5t68 17.5t75 17q151 34 162 43q16 16 16 61q0 35 -4 62t-17.5 57.5t-37 50t-66 32.5t-100.5 13q-43 0 -80 -11.5t-61 -28t-43 -38t-28 -38.5t-15 -33zM653 340v168q-102 -26 -192 -53q-25 -8 -38 -13.5t-35 -16t-34.5 -23t-25.5 -31t-19 -43.5t-6 -56
q0 -19 3.5 -39.5t14.5 -45.5t28 -44t47 -32t69 -13q46 0 91 27.5t71 73.5q26 45 26 141zM868 584h439q0 56 -1 85t-9 71t-23 71q-52 102 -174 102q-45 0 -81.5 -13t-60 -32t-40.5 -50.5t-26 -57t-14.5 -63.5t-7 -59t-2.5 -54z" />
    <glyph glyph-name="ccedilla" unicode="&#xe7;" horiz-adv-x="985" 
d="M446 -197l80 181q-84 10 -155 42.5t-121.5 80t-86 108t-52.5 126.5t-17 134q0 82 20 157.5t63 142.5t105 116.5t151.5 78.5t197.5 29q88 0 156.5 -17t156.5 -54q-35 -67 -47 -193h-39q-2 8 -6.5 22t-20.5 42t-38 50t-62.5 39t-89.5 17q-68 0 -127 -34.5t-92 -84.5
q-64 -95 -64 -276q0 -64 8.5 -121.5t30.5 -113t56 -96t88 -65t123 -24.5q43 0 76 7.5t67 29.5t49.5 34.5t56.5 49.5l33 -18q-8 -12 -14 -25t-10.5 -31t-6.5 -27t-5.5 -32.5t-4.5 -28.5q-139 -74 -297 -74l-51 -106q24 8 59 8q77 0 131 -33.5t54 -105.5q0 -45 -18.5 -79
t-45.5 -53t-65.5 -30t-71 -14.5t-68.5 -3.5q-117 0 -182 32l33 72q73 -24 129 -24q24 0 45.5 4t44.5 23.5t23 53.5q0 41 -31 58.5t-74 17.5q-17 0 -49 -8z" />
    <glyph glyph-name="egrave" unicode="&#xe8;" horiz-adv-x="1099" 
d="M1010 483h-672q0 -27 0.5 -46.5t7 -63t18 -75.5t35.5 -72.5t57.5 -67t87 -44.5t120.5 -18q72 0 156.5 36t133.5 93l23 -14q-11 -26 -16 -43l-19 -88q-7 -8 -33 -23.5t-69 -34.5t-108.5 -33t-133.5 -14q-49 0 -105.5 9t-135 41.5t-130.5 85.5q-137 139 -137 391
q0 123 40 220t107.5 155.5t151 89t176.5 30.5q36 0 61 -1t77 -11t91 -28t83 -55.5t73 -90.5q68 -128 60 -328zM342 584h432q0 31 -0.5 50.5t-4.5 58t-11 64.5t-22 58.5t-36.5 52t-55 33.5t-75.5 14q-210 0 -227 -331zM422 1460l289 -311h-105l-334 207q-43 27 -43 76
q0 40 30.5 62t59.5 22q23 0 44 -10t30.5 -18.5t28.5 -27.5z" />
    <glyph glyph-name="eacute" unicode="&#xe9;" horiz-adv-x="1099" 
d="M1010 483h-672q0 -27 0.5 -46.5t7 -63t18 -75.5t35.5 -72.5t57.5 -67t87 -44.5t120.5 -18q72 0 156.5 36t133.5 93l23 -14q-11 -26 -16 -43l-19 -88q-7 -8 -33 -23.5t-69 -34.5t-108.5 -33t-133.5 -14q-49 0 -105.5 9t-135 41.5t-130.5 85.5q-137 139 -137 391
q0 123 40 220t107.5 155.5t151 89t176.5 30.5q36 0 61 -1t77 -11t91 -28t83 -55.5t73 -90.5q68 -128 60 -328zM342 584h432q0 31 -0.5 50.5t-4.5 58t-11 64.5t-22 58.5t-36.5 52t-55 33.5t-75.5 14q-210 0 -227 -331zM850 1374l-336 -207h-104l288 312q51 55 99 55
q40 0 68 -23.5t28 -60.5q0 -45 -43 -76z" />
    <glyph glyph-name="ecircumflex" unicode="&#xea;" horiz-adv-x="1099" 
d="M1010 483h-672q0 -27 0.5 -46.5t7 -63t18 -75.5t35.5 -72.5t57.5 -67t87 -44.5t120.5 -18q72 0 156.5 36t133.5 93l23 -14q-11 -26 -16 -43l-19 -88q-7 -8 -33 -23.5t-69 -34.5t-108.5 -33t-133.5 -14q-49 0 -105.5 9t-135 41.5t-130.5 85.5q-137 139 -137 391
q0 123 40 220t107.5 155.5t151 89t176.5 30.5q36 0 61 -1t77 -11t91 -28t83 -55.5t73 -90.5q68 -128 60 -328zM342 584h432q0 31 -0.5 50.5t-4.5 58t-11 64.5t-22 58.5t-36.5 52t-55 33.5t-75.5 14q-210 0 -227 -331zM631 1501l254 -352h-103l-231 205l-234 -205h-100
l252 352h162z" />
    <glyph glyph-name="edieresis" unicode="&#xeb;" horiz-adv-x="1099" 
d="M1010 483h-672q0 -27 0.5 -46.5t7 -63t18 -75.5t35.5 -72.5t57.5 -67t87 -44.5t120.5 -18q72 0 156.5 36t133.5 93l23 -14q-11 -26 -16 -43l-19 -88q-7 -8 -33 -23.5t-69 -34.5t-108.5 -33t-133.5 -14q-49 0 -105.5 9t-135 41.5t-130.5 85.5q-137 139 -137 391
q0 123 40 220t107.5 155.5t151 89t176.5 30.5q36 0 61 -1t77 -11t91 -28t83 -55.5t73 -90.5q68 -128 60 -328zM342 584h432q0 31 -0.5 50.5t-4.5 58t-11 64.5t-22 58.5t-36.5 52t-55 33.5t-75.5 14q-210 0 -227 -331zM881 1290q0 -48 -35.5 -84.5t-85.5 -36.5
q-51 0 -86 35.5t-35 85.5q0 51 35 86t86 35t86 -35.5t35 -85.5zM461 1290q0 -48 -35.5 -84.5t-85.5 -36.5q-51 0 -86 35.5t-35 85.5q0 51 35 86t86 35t86 -35.5t35 -85.5z" />
    <glyph glyph-name="igrave" unicode="&#xec;" 
d="M395 983l-4 -92q-12 -258 -12 -350q0 -157 6 -373q0 -14 4 -85t4 -83q-78 12 -119 12q-45 0 -139 -12l10 221q7 182 7 254q0 293 -21 508q82 -12 137 -12q61 0 127 12zM137 1460l289 -311h-104l-334 207q-43 27 -43 76q0 40 30.5 62t59.5 22q23 0 43.5 -10t29.5 -18
t29 -28z" />
    <glyph glyph-name="iacute" unicode="&#xed;" 
d="M395 983l-4 -92q-12 -258 -12 -350q0 -157 6 -373q0 -14 4 -85t4 -83q-78 12 -119 12q-45 0 -139 -12l10 221q7 182 7 254q0 293 -21 508q82 -12 137 -12q61 0 127 12zM545 1374l-336 -207h-105l289 312q51 55 99 55q40 0 68 -23.5t28 -60.5q0 -45 -43 -76z" />
    <glyph glyph-name="icircumflex" unicode="&#xee;" 
d="M395 983l-4 -92q-12 -258 -12 -350q0 -157 6 -373q0 -14 4 -85t4 -83q-78 12 -119 12q-45 0 -139 -12l10 221q7 182 7 254q0 293 -21 508q82 -12 137 -12q61 0 127 12zM346 1501l254 -352h-102l-232 205l-233 -205h-101l252 352h162z" />
    <glyph glyph-name="idieresis" unicode="&#xef;" 
d="M395 983l-4 -92q-12 -258 -12 -350q0 -157 6 -373q0 -14 4 -85t4 -83q-78 12 -119 12q-45 0 -139 -12l10 221q7 182 7 254q0 293 -21 508q82 -12 137 -12q61 0 127 12zM596 1290q0 -48 -35.5 -84.5t-85.5 -36.5q-51 0 -86 35.5t-35 85.5q0 51 35 86t86 35t86 -35.5
t35 -85.5zM176 1290q0 -48 -35.5 -84.5t-85.5 -36.5q-51 0 -86 35.5t-35 85.5q0 51 35 86t86 35t86 -35.5t35 -85.5z" />
    <glyph glyph-name="eth" unicode="&#xf0;" horiz-adv-x="1214" 
d="M92 485q0 235 140.5 373.5t373.5 138.5q64 0 115 -10q-59 99 -213 242q-195 -65 -303 -119q-21 49 -58 94q144 37 287 90q-103 87 -246 174q95 34 148 62q135 -71 270 -174q206 72 303 119q21 -46 58 -95q-188 -49 -285 -88q208 -158 323 -350.5t115 -439.5
q0 -254 -137 -390.5t-377 -136.5q-234 0 -374 137t-140 373zM348 487q0 -59 5 -112t22 -113.5t44 -103.5t75 -72t112 -29t112 29t75 72t44 103.5t22 113.5t5 112t-5 112t-22 113t-44 103t-75 71.5t-112 28.5t-112 -29t-75 -72t-44 -103.5t-22 -113t-5 -110.5z" />
    <glyph glyph-name="ntilde" unicode="&#xf1;" horiz-adv-x="1175" 
d="M1032 647q0 -23 -4 -181.5t-4 -213.5q0 -170 14 -252q-15 1 -42 4.5t-49 5.5t-42 2q-16 0 -133 -12q11 68 18 186.5t7 200.5q0 271 -15 330q-18 69 -69 102t-121 33q-57 0 -107 -33.5t-75 -85.5q-35 -71 -35 -270q0 -268 14 -463q-120 12 -129 12q-43 0 -129 -12
q15 221 18 297.5t3 249.5q0 184 -3 248t-14 188q60 -12 135 -12q47 0 113 12q-10 -59 -10 -170q46 62 85 98t97.5 59t134.5 23q166 0 254 -90.5t88 -255.5zM879 1425h73q-7 -29 -13.5 -49t-25 -57.5t-40.5 -61t-61 -42.5t-87 -19q-52 0 -115 22t-114 44t-74 22
q-76 0 -107 -90h-73q11 34 17.5 53.5t26.5 57.5t41.5 60t58.5 40t81 18q46 0 160 -43q108 -45 143 -45q27 0 48 9t33 25.5t17.5 28t10.5 27.5z" />
    <glyph glyph-name="ograve" unicode="&#xf2;" horiz-adv-x="1214" 
d="M92 485q0 235 140.5 373.5t373.5 138.5q240 0 377 -132.5t137 -379.5q0 -237 -138.5 -373.5t-375.5 -136.5q-234 0 -374 137t-140 373zM348 487q0 -59 5 -112t22 -113.5t44 -103.5t75 -72t112 -29t112 29t75 72t44 103.5t22 113.5t5 112t-5 112t-22 113t-44 103t-75 71.5
t-112 28.5t-112 -29t-75 -72t-44 -103.5t-22 -113t-5 -110.5zM479 1460l289 -311h-104l-334 207q-43 27 -43 76q0 40 30.5 62t59.5 22q23 0 43.5 -10t29.5 -18t29 -28z" />
    <glyph glyph-name="oacute" unicode="&#xf3;" horiz-adv-x="1214" 
d="M92 485q0 235 140.5 373.5t373.5 138.5q240 0 377 -132.5t137 -379.5q0 -237 -138.5 -373.5t-375.5 -136.5q-234 0 -374 137t-140 373zM348 487q0 -59 5 -112t22 -113.5t44 -103.5t75 -72t112 -29t112 29t75 72t44 103.5t22 113.5t5 112t-5 112t-22 113t-44 103t-75 71.5
t-112 28.5t-112 -29t-75 -72t-44 -103.5t-22 -113t-5 -110.5zM887 1374l-336 -207h-105l289 312q51 55 99 55q40 0 68 -23.5t28 -60.5q0 -45 -43 -76z" />
    <glyph glyph-name="ocircumflex" unicode="&#xf4;" horiz-adv-x="1214" 
d="M92 485q0 235 140.5 373.5t373.5 138.5q240 0 377 -132.5t137 -379.5q0 -237 -138.5 -373.5t-375.5 -136.5q-234 0 -374 137t-140 373zM348 487q0 -59 5 -112t22 -113.5t44 -103.5t75 -72t112 -29t112 29t75 72t44 103.5t22 113.5t5 112t-5 112t-22 113t-44 103t-75 71.5
t-112 28.5t-112 -29t-75 -72t-44 -103.5t-22 -113t-5 -110.5zM688 1501l254 -352h-102l-232 205l-233 -205h-101l252 352h162z" />
    <glyph glyph-name="otilde" unicode="&#xf5;" horiz-adv-x="1214" 
d="M92 485q0 235 140.5 373.5t373.5 138.5q240 0 377 -132.5t137 -379.5q0 -237 -138.5 -373.5t-375.5 -136.5q-234 0 -374 137t-140 373zM348 487q0 -59 5 -112t22 -113.5t44 -103.5t75 -72t112 -29t112 29t75 72t44 103.5t22 113.5t5 112t-5 112t-22 113t-44 103t-75 71.5
t-112 28.5t-112 -29t-75 -72t-44 -103.5t-22 -113t-5 -110.5zM897 1425h74q-58 -229 -228 -229q-52 0 -115 22t-114 44t-74 22q-75 0 -106 -90h-74q11 34 17.5 53.5t26.5 57.5t41.5 60t58.5 40t81 18q46 0 160 -43q108 -45 143 -45q27 0 48 9t33 25.5t17.5 28t10.5 27.5z
" />
    <glyph glyph-name="odieresis" unicode="&#xf6;" horiz-adv-x="1214" 
d="M92 485q0 235 140.5 373.5t373.5 138.5q240 0 377 -132.5t137 -379.5q0 -237 -138.5 -373.5t-375.5 -136.5q-234 0 -374 137t-140 373zM348 487q0 -59 5 -112t22 -113.5t44 -103.5t75 -72t112 -29t112 29t75 72t44 103.5t22 113.5t5 112t-5 112t-22 113t-44 103t-75 71.5
t-112 28.5t-112 -29t-75 -72t-44 -103.5t-22 -113t-5 -110.5zM938 1290q0 -48 -35.5 -84.5t-85.5 -36.5q-51 0 -86 35.5t-35 85.5q0 51 35 86t86 35t86 -35.5t35 -85.5zM518 1290q0 -48 -35.5 -84.5t-85.5 -36.5q-51 0 -86 35.5t-35 85.5q0 51 35 86t86 35t86 -35.5
t35 -85.5z" />
    <glyph glyph-name="divide" unicode="&#xf7;" horiz-adv-x="1366" 
d="M1214 692v-133h-1062v133h1062zM817 227q0 -54 -39.5 -93.5t-93.5 -39.5q-56 0 -95.5 39t-39.5 94t39.5 95t95.5 40q52 0 92.5 -41t40.5 -94zM817 1022q0 -54 -39.5 -93.5t-93.5 -39.5q-56 0 -95.5 39t-39.5 94q0 56 39.5 95.5t95.5 39.5q52 0 92.5 -41t40.5 -94z" />
    <glyph glyph-name="oslash" unicode="&#xf8;" horiz-adv-x="1214" 
d="M309 53l-155 -190l-70 57l156 186q-148 145 -148 377t136 373t366 141q189 0 313 -75l162 194l70 -57l-160 -189q141 -132 141 -352q0 -254 -129.5 -398.5t-376.5 -144.5q-186 0 -305 78zM373 268l432 529q-64 118 -197 118q-63 0 -111.5 -28t-76 -70t-44.5 -100.5
t-22.5 -111t-5.5 -109.5q0 -136 25 -228zM864 492q0 126 -24 210q-61 -74 -211 -258t-221 -270q31 -51 81 -84t113 -33q262 0 262 435z" />
    <glyph glyph-name="ugrave" unicode="&#xf9;" horiz-adv-x="1175" 
d="M141 336q0 72 4.5 216t4.5 216q0 98 -13 215q71 -12 131 -12q66 0 133 12q-12 -62 -18 -204.5t-6 -241.5q0 -220 14 -275q17 -62 67 -97.5t113 -35.5q44 0 80.5 13.5t59 35t34 37t19.5 31.5q35 69 35 252q0 351 -15 485q74 -12 119 -12q55 0 139 12q-20 -303 -20 -549
q0 -253 16 -434q-25 2 -67 7t-62 5q-26 0 -116 -12q8 76 8 166q-27 -37 -51 -62.5t-65 -58.5t-96 -50.5t-120 -17.5q-91 0 -168 42t-119 120q-41 76 -41 197zM461 1460l289 -311h-105l-334 207q-43 27 -43 76q0 40 30.5 62t59.5 22q23 0 44 -10t30.5 -18.5t28.5 -27.5z" />
    <glyph glyph-name="uacute" unicode="&#xfa;" horiz-adv-x="1175" 
d="M141 336q0 72 4.5 216t4.5 216q0 98 -13 215q71 -12 131 -12q66 0 133 12q-12 -62 -18 -204.5t-6 -241.5q0 -220 14 -275q17 -62 67 -97.5t113 -35.5q44 0 80.5 13.5t59 35t34 37t19.5 31.5q35 69 35 252q0 351 -15 485q74 -12 119 -12q55 0 139 12q-20 -303 -20 -549
q0 -253 16 -434q-25 2 -67 7t-62 5q-26 0 -116 -12q8 76 8 166q-27 -37 -51 -62.5t-65 -58.5t-96 -50.5t-120 -17.5q-91 0 -168 42t-119 120q-41 76 -41 197zM930 1374l-336 -207h-105l289 312q51 55 99 55q40 0 68 -23.5t28 -60.5q0 -45 -43 -76z" />
    <glyph glyph-name="ucircumflex" unicode="&#xfb;" horiz-adv-x="1175" 
d="M141 336q0 72 4.5 216t4.5 216q0 98 -13 215q71 -12 131 -12q66 0 133 12q-12 -62 -18 -204.5t-6 -241.5q0 -220 14 -275q17 -62 67 -97.5t113 -35.5q44 0 80.5 13.5t59 35t34 37t19.5 31.5q35 69 35 252q0 351 -15 485q74 -12 119 -12q55 0 139 12q-20 -303 -20 -549
q0 -253 16 -434q-25 2 -67 7t-62 5q-26 0 -116 -12q8 76 8 166q-27 -37 -51 -62.5t-65 -58.5t-96 -50.5t-120 -17.5q-91 0 -168 42t-119 120q-41 76 -41 197zM670 1501l254 -352h-103l-231 205l-234 -205h-100l252 352h162z" />
    <glyph glyph-name="udieresis" unicode="&#xfc;" horiz-adv-x="1175" 
d="M141 336q0 72 4.5 216t4.5 216q0 98 -13 215q71 -12 131 -12q66 0 133 12q-12 -62 -18 -204.5t-6 -241.5q0 -220 14 -275q17 -62 67 -97.5t113 -35.5q44 0 80.5 13.5t59 35t34 37t19.5 31.5q35 69 35 252q0 351 -15 485q74 -12 119 -12q55 0 139 12q-20 -303 -20 -549
q0 -253 16 -434q-25 2 -67 7t-62 5q-26 0 -116 -12q8 76 8 166q-27 -37 -51 -62.5t-65 -58.5t-96 -50.5t-120 -17.5q-91 0 -168 42t-119 120q-41 76 -41 197zM920 1290q0 -48 -35.5 -84.5t-85.5 -36.5q-51 0 -86 35.5t-35 85.5q0 51 35 86t86 35t86 -35.5t35 -85.5z
M500 1290q0 -48 -35.5 -84.5t-85.5 -36.5q-51 0 -86 35.5t-35 85.5q0 51 35 86t86 35t86 -35.5t35 -85.5z" />
    <glyph glyph-name="yacute" unicode="&#xfd;" horiz-adv-x="1024" 
d="M479 494l96 -234l37 86q54 124 144 395q46 155 75 242q50 -12 91 -12q34 0 92 12q-108 -214 -348.5 -773t-282.5 -738q-54 12 -92 12q-41 0 -94 -12l32 53q59 96 230 438q-11 38 -37 101t-105 245q-36 82 -57 131l-244 543q86 -12 144 -12q46 0 141 12q15 -56 85 -245
t93 -244zM854 1374l-336 -207h-104l288 312q51 55 99 55q40 0 68 -23.5t28 -60.5q0 -45 -43 -76z" />
    <glyph glyph-name="thorn" unicode="&#xfe;" horiz-adv-x="1214" 
d="M1122 502q0 -73 -15.5 -144t-51 -138t-87.5 -117.5t-131 -81.5t-175 -31q-56 0 -101.5 10.5t-81 32.5t-57 40.5t-51.5 49.5q0 -416 22 -655q-61 12 -135 12q-78 0 -127 -12q25 318 25 1034q0 746 -23 1016q120 -13 135 -13q25 0 71.5 6t61.5 7q-39 -325 -39 -678
q120 172 320 172q81 0 152.5 -28.5t123.5 -77.5t89.5 -114t56 -139t18.5 -151zM866 481q0 36 -2.5 70.5t-10 85t-25 91.5t-43.5 78.5t-69 59t-98 21.5q-58 0 -103 -26.5t-71.5 -67t-43.5 -95t-23 -104.5t-6 -102q0 -75 10.5 -138t36.5 -125t79 -97.5t130 -35.5q56 0 100 26
t69.5 66t42 93.5t22 101.5t5.5 98z" />
    <glyph glyph-name="ydieresis" unicode="&#xff;" horiz-adv-x="1024" 
d="M479 494l96 -234l37 86q54 124 144 395q46 155 75 242q50 -12 91 -12q34 0 92 12q-108 -214 -348.5 -773t-282.5 -738q-54 12 -92 12q-41 0 -94 -12l32 53q59 96 230 438q-11 38 -37 101t-105 245q-36 82 -57 131l-244 543q86 -12 144 -12q46 0 141 12q15 -56 85 -245
t93 -244zM854 1290q0 -48 -35.5 -84.5t-85.5 -36.5q-51 0 -86 35.5t-35 85.5q0 51 35 86t86 35t86 -35.5t35 -85.5zM434 1290q0 -48 -35.5 -84.5t-85.5 -36.5q-51 0 -85.5 35.5t-34.5 85.5q0 51 34.5 86t85.5 35t86 -35.5t35 -85.5z" />
    <glyph glyph-name="dotlessi" unicode="&#x131;" 
d="M395 983l-4 -92q-12 -258 -12 -350q0 -157 6 -373q0 -14 4 -85t4 -83q-78 12 -119 12q-45 0 -139 -12l10 221q7 182 7 254q0 293 -21 508q82 -12 137 -12q61 0 127 12z" />
    <glyph glyph-name="Lslash" unicode="&#x141;" horiz-adv-x="1024" 
d="M190 674v180q0 47 -3 162t-6.5 238t-4.5 151q61 -12 141 -12q67 0 144 12l-4 -102q-17 -468 -17 -486q194 119 322 205q-8 -54 -8 -86q0 -46 8 -78q-48 -19 -71 -29.5t-82 -43t-169 -97.5v-215q0 -1 6 -340h37q347 0 475 19q-10 -38 -10 -78t10 -74q-312 12 -391 12
q-166 0 -391 -12q2 75 5.5 200.5t6 218t2.5 118.5q-35 -24 -143 -101q0 5 4 37t4 53q0 17 -4 42l-4 24q74 39 143 82z" />
    <glyph glyph-name="lslash" unicode="&#x142;" 
d="M154 522v152q-45 -39 -70 -64.5t-64 -72.5q7 68 7 94q0 36 -7 71q77 63 134 115q0 268 -5 401.5t-20 299.5q83 -13 141 -13q64 0 131 13q0 -7 -8 -111t-8 -125q-4 -78 -4 -225q50 46 129 141q-6 -49 -6 -98q0 -7 6 -76q-96 -75 -129 -106v-230q0 -93 2 -259t2 -185
q0 -53 14 -244q-11 1 -34.5 4.5t-43.5 5.5t-40 2q-50 0 -148 -12q21 250 21 522z" />
    <glyph glyph-name="OE" unicode="&#x152;" horiz-adv-x="2048" 
d="M84 692q0 167 52.5 305t145 230.5t220.5 143t278 50.5q86 0 159 -15t130.5 -45.5t90 -53t75.5 -58.5q0 72 -4 156q200 -12 364 -12q59 0 199.5 5.5t165.5 6.5q-10 -42 -10 -66q0 -48 10 -75l-193 10q-76 4 -280 4v-481q311 0 438 14q-10 -38 -10 -74q0 -46 10 -69
q-105 8 -158 10q-188 4 -280 4v-555q184 0 485 14q-10 -22 -10 -67t10 -74q-184 12 -368 12q-204 0 -371 -12q6 84 6 152q-53 -81 -201.5 -131t-263.5 -50q-99 0 -195.5 26t-186.5 83t-158 139t-109 204t-41 269zM1249 709q0 158 -35 278t-96.5 190.5t-139 105t-169.5 34.5
q-96 0 -174 -38t-128.5 -100.5t-85 -146t-49 -170.5t-14.5 -178q0 -153 39 -273t104 -191t143.5 -107.5t164.5 -36.5q94 0 170.5 38t125.5 100.5t82.5 146t47.5 170.5t14 178z" />
    <glyph glyph-name="oe" unicode="&#x153;" horiz-adv-x="1820" 
d="M1677 225l23 -14q-9 -15 -15 -37t-11 -54t-7 -40q-24 -28 -124 -66.5t-224 -38.5q-97 0 -193.5 31.5t-164.5 91.5q-59 -50 -152 -86.5t-213 -36.5q-227 0 -366.5 140.5t-139.5 367.5q0 232 136 373t366 141q235 0 371 -114q137 114 327 114q241 0 345 -129t98 -385h-670
q0 -85 17 -152.5t53.5 -121.5t100.5 -83.5t152 -29.5q64 0 150 32t141 97zM862 492q0 26 -0.5 47t-5.5 68t-14 83.5t-28 81.5t-45 75t-68 50.5t-95 20.5t-95.5 -19t-70 -53t-47 -74.5t-29.5 -90.5t-14 -94t-4 -91q0 -48 3.5 -91.5t12.5 -96.5t27.5 -95t45.5 -78.5t69 -57
t96 -20.5q55 0 98.5 19.5t71.5 55t47 76.5t28.5 93.5t13 96.5t3.5 94zM1065 584h432q0 31 -0.5 50.5t-4.5 58t-11 64.5t-22.5 58.5t-37 52t-55 33.5t-76.5 14q-207 0 -225 -331z" />
    <glyph glyph-name="Scaron" unicode="&#x160;" horiz-adv-x="1099" 
d="M141 307h29q34 -74 71 -122.5t78.5 -72t79 -32t88.5 -8.5q120 0 194.5 72t74.5 184q0 166 -168 235q-29 12 -105.5 42.5t-105.5 43.5q-145 64 -201.5 147.5t-56.5 215.5q0 58 13.5 112t48 109t87 96t137 66.5t191.5 25.5q70 0 135 -13t103.5 -27.5t101.5 -43.5
q-30 -74 -40 -104.5t-24 -89.5h-28q-23 85 -96 131.5t-173 46.5q-116 0 -178.5 -62.5t-62.5 -158.5q0 -32 7.5 -58.5t16.5 -46t32 -39t39.5 -31.5t54.5 -29.5t61 -26.5t73 -29q97 -38 134 -53.5t76.5 -40t68.5 -56.5q57 -61 78.5 -135t21.5 -135q0 -65 -17.5 -127t-58 -121
t-99 -103t-147.5 -71t-198 -27q-81 0 -164.5 21t-122 38t-96.5 46q24 74 31.5 111.5t15.5 119.5zM469 1477l-252 352h100l234 -207l231 207h103l-254 -352h-162z" />
    <glyph glyph-name="scaron" unicode="&#x161;" horiz-adv-x="833" 
d="M115 231h37q9 -22 15 -34t26.5 -38.5t44.5 -41.5t67.5 -28t97.5 -13q73 0 113.5 42.5t40.5 102.5q0 39 -26 68t-51.5 41t-86.5 36q-8 3 -12 5q-8 3 -42 15t-62 22t-35 14q-22 11 -34 17.5t-40 29t-44 47.5t-30 69t-14 97q0 140 94.5 227.5t261.5 87.5q131 0 275 -61
q-43 -85 -52 -182h-32q-17 33 -28.5 51.5t-34.5 43.5t-56.5 36.5t-77.5 11.5q-74 0 -120 -36.5t-46 -98.5t45 -91t178 -73q39 -13 57 -19.5t53.5 -21.5t53.5 -28t43.5 -36t38 -47.5t22 -60t9.5 -76.5t-12.5 -84.5t-42 -89.5t-72.5 -82t-112 -59t-152 -23q-55 0 -110.5 12
t-91 25.5t-101.5 42.5q25 67 30 86q6 21 10 57zM336 1149l-252 352h100l234 -207l231 207h103l-254 -352h-162z" />
    <glyph glyph-name="Ydieresis" unicode="&#x178;" horiz-adv-x="1214" 
d="M731 549v-76q0 -141 14 -473q-16 1 -44.5 4.5t-52 5.5t-44.5 2q-20 0 -137 -12q12 320 12 555l-121 209q-60 104 -207.5 347t-177.5 294q114 -12 168 -12q97 0 168 12q91 -193 165 -337t194 -355q126 217 182.5 328t171.5 364q66 -12 119 -12q51 0 86 12
q-44 -78 -211 -342q-53 -85 -142.5 -245t-115.5 -204q-27 -48 -27 -65zM958 1618q0 -48 -35 -84.5t-85 -36.5q-51 0 -86 35.5t-35 85.5q0 51 35 86t86 35t85.5 -35.5t34.5 -85.5zM539 1618q0 -48 -35.5 -84.5t-85.5 -36.5q-51 0 -86 35.5t-35 85.5q0 51 35 86t86 35
t86 -35.5t35 -85.5z" />
    <glyph glyph-name="Zcaron" unicode="&#x17d;" horiz-adv-x="1251" 
d="M16 0v66q24 34 149.5 203.5t143.5 195.5q405 608 518 803q-435 0 -725 -23q0 4 3.5 34t3.5 46q0 33 -7 80q33 -3 65 -5t73.5 -3.5t66.5 -2t80.5 -1t77 -0.5h93.5h95q383 0 553 12q4 -28 4 -35q0 -12 -4 -20t-24 -35l-105 -146q-95 -133 -282 -415l-181 -271
q-156 -235 -221 -346h197q206 0 379 15q80 6 233 14q-10 -63 -10 -84q0 -49 10 -82q-5 0 -61.5 2.5t-110 4.5t-169 3.5t-253.5 1.5q-385 0 -592 -12zM545 1477l-252 352h100l234 -207l231 207h103l-254 -352h-162z" />
    <glyph glyph-name="zcaron" unicode="&#x17e;" horiz-adv-x="985" 
d="M39 0v63q130 161 311 424q18 25 102.5 149t88.5 130l61 90h-80q-34 0 -199 -7t-227 -13q6 30 6 65q0 33 -6 80q98 -12 412 -12q334 0 412 12v-70l-62 -80q-147 -191 -285.5 -395.5t-197.5 -310.5h71q332 0 478 14q-11 -43 -11 -76q0 -40 7 -63q-59 1 -207.5 6.5
t-233.5 5.5q-296 0 -440 -12zM412 1149l-252 352h100l234 -207l231 207h102l-254 -352h-161z" />
    <glyph glyph-name="florin" unicode="&#x192;" horiz-adv-x="1062" 
d="M14 -260l29 14q38 -43 109 -43q19 0 33.5 3t26 11.5t20 17t15 28t10.5 34.5t8.5 45t7 52.5t6.5 64.5q6 58 13 113.5t11.5 84.5t18 107.5t18.5 112.5q47 300 53 328q-137 0 -209 -6q13 33 13 57q0 25 -4 53q70 -6 213 -6q22 78 34.5 120t36.5 104.5t48 103.5t62 88.5
t85 87.5q44 38 86.5 61t84.5 32t67 11t65 2q-23 -132 -27 -196l-22 -8q-44 49 -109 49q-59 0 -92 -40t-43 -104q-5 -29 -21.5 -166.5t-17.5 -144.5q150 0 234 6q-13 -35 -13 -53q0 -34 4 -57q-72 6 -243 6q-5 -41 -19.5 -120t-19.5 -112l-43 -276q-9 -56 -17 -95.5
t-28.5 -107t-46 -120t-69.5 -114t-99 -108.5q-60 -52 -117.5 -78.5t-89 -30.5t-78.5 -4q22 49 22 109q0 36 -6 84z" />
    <glyph glyph-name="circumflex" unicode="&#x2c6;" 
d="M346 1501l254 -352h-102l-232 205l-233 -205h-101l252 352h162z" />
    <glyph glyph-name="caron" unicode="&#x2c7;" 
d="M184 1149l-252 352h101l233 -207l232 207h102l-254 -352h-162z" />
    <glyph glyph-name="uni02C9" unicode="&#x2c9;" 
d="M-27 1229v133h586v-133h-586z" />
    <glyph glyph-name="breve" unicode="&#x2d8;" 
d="M-37 1475h80q39 -183 211 -183q95 0 156 40.5t77 144.5h82q-6 -46 -11 -72t-16.5 -62t-32 -66t-52.5 -58q-41 -37 -87 -53.5t-116 -16.5q-39 0 -73 6.5t-59.5 20.5t-47 29t-37 37.5t-27 40.5t-19.5 44.5t-13 43t-8.5 41.5t-4.5 35t-2 28z" />
    <glyph glyph-name="dotaccent" unicode="&#x2d9;" 
d="M385 1290q0 -48 -35.5 -84.5t-85.5 -36.5q-51 0 -86 35.5t-35 85.5q0 51 35 86t86 35t86 -35.5t35 -85.5z" />
    <glyph glyph-name="ring" unicode="&#x2da;" 
d="M475 1343q0 -86 -63 -148t-148 -62q-87 0 -149 62.5t-62 147.5q0 84 62 147.5t149 63.5q85 0 148 -63t63 -148zM389 1343q0 49 -37.5 87t-87.5 38q-51 0 -88 -37.5t-37 -87.5q0 -52 37.5 -88t87.5 -36t87.5 36t37.5 88z" />
    <glyph glyph-name="ogonek" unicode="&#x2db;" 
d="M410 25h63q-8 -9 -56 -61.5t-65 -76.5q-35 -51 -35 -90q0 -53 31.5 -77.5t65.5 -24.5q46 0 114 55l35 -37q-37 -41 -56 -60t-49.5 -42.5t-61 -33t-68.5 -9.5q-76 0 -117 48.5t-41 109.5q0 37 17 75t36 63.5t60.5 61.5t60.5 50.5t66 48.5z" />
    <glyph glyph-name="tilde" unicode="&#x2dc;" 
d="M555 1425h74q-58 -229 -228 -229q-52 0 -115 22t-114 44t-74 22q-75 0 -106 -90h-74q11 34 17.5 53.5t26.5 57.5t41.5 60t58.5 40t81 18q46 0 160 -43q108 -45 143 -45q27 0 48 9t33 25.5t17.5 28t10.5 27.5z" />
    <glyph glyph-name="hungarumlaut" unicode="&#x2dd;" 
d="M106 1149h-98l246 311q48 56 96 56q41 0 68.5 -23t27.5 -59q0 -52 -40 -78zM416 1149h-99l246 311q48 56 96 56q41 0 69 -23t28 -59q0 -52 -41 -78z" />
    <glyph glyph-name="uni03A9" unicode="&#x3a9;" horiz-adv-x="1390" 
d="M1327 313l-51 -313h-471l-17 41q10 24 51 117t61.5 146t50 139t43 164t12.5 151q0 120 -16.5 214.5t-45.5 157t-69.5 103.5t-85.5 58.5t-97 17.5q-69 0 -123 -27.5t-97 -90t-66 -173.5t-23 -268q0 -89 17.5 -181t57 -198t63 -161t75.5 -169l-16 -41h-471l-46 313l60 2
q28 -88 57.5 -114.5t91.5 -26.5h185q-52 44 -85.5 75t-85 91.5t-82 117t-54 138.5t-23.5 170q0 138 44 253.5t120 194.5t181 122.5t226 43.5q249 0 406.5 -163.5t157.5 -438.5q0 -80 -22.5 -157.5t-52.5 -134t-82.5 -120.5t-89 -101t-95.5 -91h202q60 0 87 25.5t57 115.5z
" />
    <glyph glyph-name="uni03BC" unicode="&#x3bc;" horiz-adv-x="1175" 
d="M1022 434q0 -253 16 -434q-25 2 -67 7t-62 5q-26 0 -116 -12q8 76 8 166q-37 -87 -119.5 -138t-175.5 -51q-82 0 -135 43q0 -348 20 -552q-59 12 -133 12q-58 0 -125 -12q21 251 21 747q0 620 -17 768q71 -12 131 -12q66 0 133 12q-24 -115 -24 -487q0 -54 1 -86.5
t5 -76.5t12 -70t23 -54.5t36.5 -44t53.5 -25.5t74 -10q217 0 217 369q0 351 -15 485q74 -12 119 -12q55 0 139 12q-20 -303 -20 -549z" />
    <glyph glyph-name="pi" unicode="&#x3c0;" horiz-adv-x="1110" 
d="M1006 936l55 -16q-9 -59 -30 -121t-42 -90q-40 -13 -123 -13q-10 -104 -10 -405q1 -91 20 -132.5t58 -41.5q25 0 44 11t44 36l27 -49q-37 -63 -97.5 -101.5t-122.5 -38.5q-190 0 -190 263q0 190 18 464q-52 0 -137.5 2.5t-120.5 2.5v-27q0 -159 -14.5 -288t-38 -205
t-41 -116t-33.5 -61q-76 -32 -131 -35l-14 39q96 133 139 325.5t43 369.5q-84 1 -130.5 -15.5t-115.5 -62.5l-30 55q1 1 22.5 29t27 33.5t29 30.5t37 33t41.5 25t53 23t60.5 12t73.5 5q69 0 245 -2.5t271 -2.5q46 0 68.5 13t44.5 51z" />
    <glyph glyph-name="endash" unicode="&#x2013;" horiz-adv-x="1024" 
d="M-6 598h1036v-172h-1036v172z" />
    <glyph glyph-name="emdash" unicode="&#x2014;" horiz-adv-x="2048" 
d="M266 598h1516v-172h-1516v172z" />
    <glyph glyph-name="quoteleft" unicode="&#x2018;" 
d="M393 1464l45 -20l-129 -479q-9 -35 -18 -58.5t-24.5 -47.5t-39.5 -36t-57 -12q-46 0 -75 29t-29 73q0 31 12.5 58t42.5 73z" />
    <glyph glyph-name="quoteright" unicode="&#x2019;" 
d="M137 811l-45 20l129 480q18 74 47.5 113.5t91.5 39.5q46 0 75.5 -29t29.5 -73q0 -31 -12.5 -58t-42.5 -73z" />
    <glyph glyph-name="quotesinglbase" unicode="&#x201a;" 
d="M109 -365l-46 21l130 479q9 35 18 58.5t24.5 47.5t39.5 36t57 12q46 0 75 -29.5t29 -73.5q0 -31 -12.5 -58t-42.5 -73z" />
    <glyph glyph-name="quotedblleft" unicode="&#x201c;" horiz-adv-x="909" 
d="M401 1464l45 -20l-129 -479q-9 -35 -18 -58.5t-24.5 -47.5t-39.5 -36t-57 -12q-46 0 -75 29t-29 73q0 31 12.5 58t42.5 73zM772 1464l45 -20l-129 -479q-9 -35 -18 -58.5t-24.5 -47.5t-39.5 -36t-57 -12q-46 0 -75.5 29t-29.5 73q0 31 12.5 57.5t43.5 73.5z" />
    <glyph glyph-name="quotedblright" unicode="&#x201d;" horiz-adv-x="909" 
d="M137 811l-45 20l129 480q18 74 47.5 113.5t91.5 39.5q46 0 75.5 -29t29.5 -73q0 -31 -12.5 -58t-42.5 -73zM508 811l-45 20l129 480q18 74 47.5 113.5t91.5 39.5q46 0 75.5 -29t29.5 -73q0 -31 -12.5 -57.5t-43.5 -73.5z" />
    <glyph glyph-name="quotedblbase" unicode="&#x201e;" horiz-adv-x="909" 
d="M109 -365l-46 21l130 479q9 35 18 58.5t24.5 47.5t39.5 36t57 12q46 0 75 -29.5t29 -73.5q0 -31 -12.5 -58t-42.5 -73zM479 -365l-45 21l129 479q9 35 18 58.5t24.5 47.5t39.5 36t57 12q46 0 75.5 -29.5t29.5 -73.5q0 -31 -12.5 -58t-42.5 -73z" />
    <glyph glyph-name="dagger" unicode="&#x2020;" horiz-adv-x="1062" 
d="M631 1192v-234h141q12 0 205 9q-6 -41 -6 -82t6 -84q-42 1 -118 5.5t-97 4.5h-131v-598q0 -135 10 -213q-6 0 -47.5 6t-65.5 6q-48 0 -106 -12q7 151 8.5 269.5t1.5 541.5h-133q-41 0 -114.5 -3.5t-98.5 -4.5q0 5 3 37.5t3 50.5q0 46 -6 76q141 -9 346 -9q0 248 -10 453
q70 -12 110 -12q31 0 113 12q-14 -126 -14 -219z" />
    <glyph glyph-name="daggerdbl" unicode="&#x2021;" horiz-adv-x="1062" 
d="M434 506v399h-135q-32 0 -67.5 -1t-78.5 -2.5t-67 -2.5q6 43 6 86q0 24 -6 78q115 -12 348 -12q0 123 -12 360q70 -12 110 -12q31 0 113 12q-14 -133 -14 -219v-141h141q69 0 205 12q0 -3 -3 -35t-3 -49q0 -7 1 -20.5t2.5 -32t2.5 -29.5q-34 0 -102.5 4t-102.5 4h-141
v-399h141q35 0 205 10q-6 -40 -6 -82q0 -40 6 -84q-34 0 -102.5 5t-102.5 5h-141v-147q0 -135 10 -213q-7 1 -43.5 6.5t-60.5 5.5q-45 0 -115 -12q9 183 12 360h-135q-69 0 -213 -8q6 47 6 90q0 26 -6 74q170 -10 348 -10z" />
    <glyph glyph-name="bullet" unicode="&#x2022;" horiz-adv-x="1024" 
d="M868 719q0 -146 -105 -251.5t-251 -105.5t-251 105.5t-105 251.5q0 147 105.5 251.5t250.5 104.5t250.5 -104.5t105.5 -251.5z" />
    <glyph glyph-name="ellipsis" unicode="&#x2026;" horiz-adv-x="2048" 
d="M197 141q0 59 42 102.5t103 43.5q58 0 101.5 -43.5t43.5 -102.5t-43.5 -102t-101.5 -43q-61 0 -103 43t-42 102zM879 141q0 59 42 102.5t103 43.5q58 0 101.5 -43.5t43.5 -102.5t-43.5 -102t-101.5 -43q-61 0 -103 43t-42 102zM1561 141q0 59 42 102.5t103 43.5
q58 0 101.5 -43.5t43.5 -102.5t-43.5 -102t-101.5 -43q-61 0 -103 43t-42 102z" />
    <glyph glyph-name="perthousand" unicode="&#x2030;" horiz-adv-x="2048" 
d="M1116 330q0 40 -4 76t-16 81t-40 72t-69 27q-30 0 -53 -12t-36.5 -37t-21.5 -48t-11.5 -61t-4 -58.5t-0.5 -56.5q0 -28 0.5 -44t3 -47.5t7 -51t14 -44.5t22.5 -39.5t34 -25t48 -10.5q30 0 53 13t36.5 39t21.5 50t11.5 62t4 59t0.5 56zM1298 324q0 -78 -22 -140
t-55.5 -98.5t-77 -60.5t-82 -32.5t-74.5 -8.5q-138 0 -223.5 89t-85.5 214q0 162 77 264t234 102q147 0 228 -91t81 -238zM2036 324q0 -78 -22.5 -140t-56 -98.5t-77 -60.5t-82 -32.5t-74.5 -8.5q-138 0 -223.5 89t-85.5 214q0 162 77 264t234 102q147 0 228.5 -91
t81.5 -238zM1853 330q0 40 -4 76t-16 81t-40 72t-69 27q-30 0 -53 -12t-36.5 -37t-21.5 -48t-11.5 -61t-4 -58.5t-0.5 -56.5q0 -28 0.5 -44t3 -47.5t7 -51t14 -44.5t22.5 -39.5t34 -25t48 -10.5q30 0 53 13t36.5 39t21.5 50t11.5 62t4 59t0.5 56zM451 1067q0 40 -4 76
t-16 81t-40 72t-69 27q-30 0 -53 -12t-36.5 -37t-21.5 -48t-11.5 -60.5t-4 -58t-0.5 -56.5q0 -28 0.5 -44t3 -47.5t7 -51.5t14 -45t22.5 -39.5t34 -25t48 -10.5q30 0 53 13t36.5 39t21.5 50t11.5 62t4 59t0.5 56zM633 1061q0 -78 -22 -140t-55.5 -98.5t-77 -60.5t-82 -32.5
t-74.5 -8.5q-138 0 -224 89t-86 214q0 162 77.5 264.5t234.5 102.5q147 0 228 -91.5t81 -238.5zM1020 1425h98l-819 -1468h-98z" />
    <glyph glyph-name="guilsinglleft" unicode="&#x2039;" horiz-adv-x="569" 
d="M98 502l60 90q162 248 196 313q60 -48 115 -80q-74 -82 -219 -323q10 -13 74 -102t77 -105l68 -90q-66 -44 -109 -82q-176 273 -262 379z" />
    <glyph glyph-name="guilsinglright" unicode="&#x203a;" horiz-adv-x="569" 
d="M412 592l57 -90q-106 -135 -260 -379q-37 30 -109 82q45 57 217 297q-48 85 -117.5 187t-99.5 136q65 38 113 80q30 -52 119 -194q4 -6 23 -33.5t36 -53t21 -32.5z" />
    <glyph glyph-name="fraction" unicode="&#x2044;" horiz-adv-x="342" 
d="M532 1425h99l-819 -1468h-99z" />
    <glyph glyph-name="Euro" unicode="&#x20ac;" horiz-adv-x="1062" 
d="M1067 238l18 -13l-32 -145q-159 -105 -351 -105q-182 0 -319 80q-61 36 -111 88.5t-78 99.5t-49 103t-28.5 85.5t-12.5 60.5l-165 -11l34 90l121 -2q-7 81 0 185l-155 -9l34 89l129 -5q39 234 170 371q67 70 154.5 113.5t158 57t142.5 13.5q176 0 354 -112
q-35 -83 -45 -174l-20 -2q-48 88 -131 141t-176 53q-60 0 -128 -35.5t-122 -117.5q-81 -124 -101 -308l635 9l-37 -93l-606 7q-6 -92 4 -183l547 6l-35 -92l-506 9q11 -155 93 -275q52 -74 126 -111.5t156 -37.5q94 0 181 49.5t151 120.5z" />
    <glyph glyph-name="afii61289" unicode="&#x2113;" horiz-adv-x="837" 
d="M760 258l45 -39q-124 -242 -346 -242q-147 0 -215 78q-37 46 -52.5 106t-15.5 183v145l-110 -77l-27 57l135 102v269q0 217 22 319t83 178q85 117 200 117q94 0 144.5 -76t50.5 -194q0 -111 -36 -210.5t-94 -179t-151 -173.5v-168q0 -189 36.5 -263.5t123.5 -74.5
q111 0 207 143zM393 948v-221q71 86 114.5 205.5t43.5 247.5q0 204 -78 204q-25 0 -40.5 -19t-24.5 -71t-12 -131.5t-3 -214.5z" />
    <glyph glyph-name="trademark" unicode="&#x2122;" horiz-adv-x="1947" 
d="M371 913v299q0 60 -2 109q-164 0 -242 -6q6 18 6 47q0 22 -6 43q125 -8 324 -8q173 0 309 8q-6 -27 -6 -41q0 -6 6 -49q-70 6 -230 6q-2 -39 -2 -113v-395q0 -37 7 -145q-40 8 -91 8q-37 0 -84 -8q11 225 11 245zM958 1405l35 -70q109 -200 226 -385l59 -94
q109 165 319 549q29 -5 64 0l8 -90q5 -56 13 -118.5t18 -137t16 -119.5q19 -147 47 -272q-54 8 -90 8q-34 0 -86 -8q-7 113 -12 176q-2 25 -18 153.5t-17 143.5q-63 -95 -144 -234t-128 -239q-31 5 -58 0q-82 150 -161 280q-6 10 -34.5 56t-51 83t-25.5 43
q-42 -317 -47 -462q-58 8 -62 8q-11 0 -57 -8q70 330 121 737q35 -5 65 0z" />
    <glyph glyph-name="Omega" unicode="&#x2126;" horiz-adv-x="1390" 
d="M1327 313l-51 -313h-471l-17 41q10 24 51 117t61.5 146t50 139t43 164t12.5 151q0 120 -16.5 214.5t-45.5 157t-69.5 103.5t-85.5 58.5t-97 17.5q-69 0 -123 -27.5t-97 -90t-66 -173.5t-23 -268q0 -89 17.5 -181t57 -198t63 -161t75.5 -169l-16 -41h-471l-46 313l60 2
q28 -88 57.5 -114.5t91.5 -26.5h185q-52 44 -85.5 75t-85 91.5t-82 117t-54 138.5t-23.5 170q0 138 44 253.5t120 194.5t181 122.5t226 43.5q249 0 406.5 -163.5t157.5 -438.5q0 -80 -22.5 -157.5t-52.5 -134t-82.5 -120.5t-89 -101t-95.5 -91h202q60 0 87 25.5t57 115.5z
" />
    <glyph glyph-name="estimated" unicode="&#x212e;" horiz-adv-x="1697" 
d="M1630 657h-1265q-11 0 -11 -8v-383q0 -23 17 -43q95 -98 218.5 -153.5t260.5 -55.5q147 0 278 62.5t226 171.5h112q-106 -126 -269 -199.5t-349 -73.5q-212 0 -392.5 94t-285 255.5t-104.5 351.5q0 144 62 274.5t166.5 224.5t249.5 149.5t304 55.5t304 -55.5
t249.5 -149.5t166.5 -224.5t62 -274.5v-19zM1343 709v385q0 27 -18 45q-95 93 -218 146.5t-257 53.5q-136 0 -259 -54.5t-218 -151.5q-19 -19 -19 -48v-376q0 -4 3.5 -8.5t7.5 -4.5h970q8 0 8 13z" />
    <glyph glyph-name="partialdiff" unicode="&#x2202;" horiz-adv-x="1048" 
d="M516 848h2q66 0 130 -30.5t106 -90.5q19 154 22 219q7 178 -47 299q-30 65 -89.5 107.5t-139.5 42.5q-131 0 -275 -121q-16 -1 -36 27t-31 66.5t-2 62.5q128 77 276 77q276 0 420 -282q55 -105 78.5 -230t23.5 -235q0 -128 -24 -257.5t-72 -226.5q-65 -139 -169.5 -219
t-246.5 -80q-165 0 -263.5 104t-98.5 286q0 98 33.5 184t85.5 149q56 67 140 107.5t177 40.5zM567 758h-2q-111 0 -180 -111q-42 -73 -65 -182.5t-23 -218.5q0 -92 38.5 -146.5t108.5 -54.5q108 0 197 209q66 158 94 383q-18 43 -64.5 82t-103.5 39z" />
    <glyph glyph-name="Delta" unicode="&#x2206;" horiz-adv-x="1245" 
d="M1178 0h-1112v63l497 1291l99 24l516 -1315v-63zM901 113l-360 940l-351 -940h711z" />
    <glyph glyph-name="product" unicode="&#x220f;" horiz-adv-x="1363" 
d="M1311 1368v-61q-45 -4 -71.5 -7.5t-48.5 -12.5t-31.5 -18t-16.5 -30t-8.5 -43t-1.5 -61v-1055q0 -43 1.5 -67.5t8.5 -46.5t17 -32.5t32 -19.5t47.5 -12.5t69.5 -7.5v-62h-551v62q39 3 59.5 6t40.5 11.5t27.5 18t13.5 32t7 47t1 69.5v1143q0 45 -13 57t-60 12h-312
q-43 0 -54 -10t-11 -51v-1151v-6v-40.5t1 -32.5t2.5 -27.5t5 -21t8 -18l12.5 -12.5t17 -10t22.5 -6.5t28.5 -6t36 -3.5v-62h-537v62q65 5 96 11.5t51.5 28t24.5 51.5t4 93v1057q0 39 -1.5 61.5t-8.5 43.5t-17.5 30.5t-33 18t-49.5 12t-72 6.5v61h1264z" />
    <glyph glyph-name="summation" unicode="&#x2211;" horiz-adv-x="1081" 
d="M1038 225l-90 -405h-895v57l422 639l-416 793v59h891q1 -11 9.5 -134.5t13.5 -201.5l-62 -12q-27 131 -69 201q-22 42 -61 56.5t-144 14.5h-303l334 -616l-430 -664h458q48 0 75 1.5t55.5 10t44 21.5t34.5 41t34 63t36 93z" />
    <glyph glyph-name="minus" unicode="&#x2212;" horiz-adv-x="1366" 
d="M1214 692v-133h-1062v133h1062z" />
    <glyph glyph-name="uni2215" unicode="&#x2215;" horiz-adv-x="342" 
d="M532 1425h99l-819 -1468h-99z" />
    <glyph glyph-name="uni2219" unicode="&#x2219;" 
d="M121 627q0 59 42 102t103 43q59 0 102.5 -43.5t43.5 -101.5q0 -59 -44 -102.5t-102 -43.5q-61 0 -103 43.5t-42 102.5z" />
    <glyph glyph-name="radical" unicode="&#x221a;" horiz-adv-x="1083" 
d="M1059 1720l-338 -2039l-51 -23l-410 1069l-170 -76l-24 74l342 152l290 -793h4l265 1655z" />
    <glyph glyph-name="infinity" unicode="&#x221e;" horiz-adv-x="1468" 
d="M1378 563v-2q0 -149 -91 -239.5t-214 -90.5q-87 0 -167 48t-169 167q-85 -105 -165 -160t-185 -55q-122 0 -210.5 90.5t-88.5 229.5q0 144 89.5 235t225.5 91q98 0 179 -53.5t161 -155.5q77 87 108 114q107 95 232 95q126 0 210.5 -87.5t84.5 -226.5zM403 365h3
q38 0 73.5 14.5t70.5 45t56.5 54t57.5 66.5q-76 102 -110 134q-73 69 -157 69q-80 0 -126 -55.5t-46 -143.5q-2 -76 50 -130t128 -54zM1071 748h-2q-24 0 -47 -6t-45.5 -20.5t-38.5 -25.5t-39 -35t-32 -34.5t-31.5 -38t-26.5 -31.5q90 -110 145 -151t123 -41q74 0 119 58
t45 128q0 87 -47 142t-123 55z" />
    <glyph glyph-name="integral" unicode="&#x222b;" horiz-adv-x="772" 
d="M313 -6l-41 788q-10 153 -1 273t24 210t43 155t57.5 107.5t67.5 67.5t72 35t71 10q51 0 94 -28t43 -78q0 -52 -31.5 -80.5t-76.5 -28.5q-24 0 -41 18t-23.5 39.5t-17.5 39.5t-25 18q-74 0 -59 -301l37 -727q7 -171 0.5 -306t-29.5 -237t-54.5 -173.5t-74 -116t-88 -65
t-96.5 -20.5q-58 0 -97.5 33t-39.5 78q-1 49 37 83t86 34q21 0 36.5 -19.5t23 -43t18.5 -43t24 -19.5q77 0 61 297z" />
    <glyph glyph-name="approxequal" unicode="&#x2248;" horiz-adv-x="1026" 
d="M864 872l88 -79q-45 -89 -111.5 -143t-144.5 -54q-53 0 -98.5 17t-108.5 57q-95 63 -157 63q-30 0 -55 -10t-47.5 -33t-36 -41t-35.5 -51l-92 78q43 86 117 140t159 54q41 0 83 -13t59.5 -23t54.5 -33q7 -4 30.5 -18.5t29.5 -18t23 -12.5t25.5 -11t22 -5t26.5 -3
q50 0 87.5 34t80.5 105zM864 520l88 -80q-46 -89 -111.5 -142.5t-144.5 -53.5q-52 0 -97.5 17t-109.5 56q-34 23 -54 34.5t-48 21.5t-55 10q-31 0 -56.5 -10.5t-47.5 -33.5t-35.5 -41.5t-34.5 -51.5l-92 78q42 86 117 140t159 54q19 0 36.5 -2t35.5 -7t29 -8.5t28.5 -12.5
t23 -11.5t24.5 -13.5t20 -12q9 -5 39 -23.5t41.5 -24.5t34 -13t42.5 -7q50 0 86.5 33t81.5 104z" />
    <glyph glyph-name="notequal" unicode="&#x2260;" horiz-adv-x="1026" 
d="M756 983l-72 -164h250v-141h-303l-111 -254h414v-139h-467l-90 -213l-111 43l74 170h-250v139h303l109 254h-412v141h463l92 209z" />
    <glyph glyph-name="lessequal" unicode="&#x2264;" horiz-adv-x="1026" 
d="M930 199l-830 424v151l830 422v-162l-692 -332v-4l692 -336v-163zM938 -14h-846v141h846v-141z" />
    <glyph glyph-name="greaterequal" unicode="&#x2265;" horiz-adv-x="1026" 
d="M102 1196l832 -422v-151l-832 -424v163l693 334v4l-693 334v162zM934 -14h-840v141h840v-141z" />
    <glyph glyph-name="lozenge" unicode="&#x25ca;" horiz-adv-x="1091" 
d="M1001 657l-370 -794h-170l-369 794l373 799h168zM844 657l-293 650h-6l-295 -648l295 -655h6z" />
    </font>
</defs>
</svg>
